<svg xmlns="http://www.w3.org/2000/svg" xmlns:xlink="http://www.w3.org/1999/xlink" viewBox="0 0 1920 200"><defs><style>.cls-1{fill:url(#linear-gradient);}.cls-2{fill:#74a020;}.cls-3{fill:#9fc7d6;}.cls-4{fill:#77a3bc;}.cls-5{fill:#a0c7d6;}.cls-6{fill:#6e9fb9;}.cls-7{fill:#9ec6d6;}.cls-8{fill:#99c4d4;}.cls-9{fill:#709fb9;}.cls-10{fill:#6e9eb9;}.cls-11{fill:#520;}.cls-12{fill:#3db19e;}.cls-13{fill:#019697;}.cls-14{fill:#029697;}.cls-15{fill:#029797;}.cls-16{fill:#30353e;}.cls-17{fill:#2f3740;}.cls-18{fill:#2c3a42;}.cls-19{fill:#2e3941;}.cls-20{fill:#8cc63f;}.cls-21{fill:#e8451f;}.cls-22{fill:#eab82f;}</style><linearGradient id="linear-gradient" x1="0.5" y1="100" x2="1919.5" y2="100" gradientUnits="userSpaceOnUse"><stop offset="0" stop-color="#29abe2"/><stop offset="0.5" stop-color="#bdccd4"/><stop offset="1" stop-color="#00a0c7"/></linearGradient></defs><g id="Sky"><rect class="cls-1" x="0.5" y="0.5" width="1919" height="199"/><path d="M1919,1V199H1V1H1919m1-1H0V200H1920V0Z" transform="translate(0 0)"/></g><g id="Grass"><path class="cls-2" d="M185,199.39q-36.54-.12-73.08-.22c-8.28,0-16.56.14-24.84.22-27-.08-54.07-.13-81.1-.29-1.52,0-3.59,1.18-4.64-1.13.72-3.44.1-6.92.35-10.37.07-1-.62-2.49,1.31-2.58.11.48,0,1.24.34,1.41,1.16.66.69-.54.78-.88,1.81-7,.94-14.1.45-22.63,3.89,8.31,3.71,16,4.87,23.56,1.76-2.23,1.66-4.82,1.79-7.35,1.27-.58-.9-3.27,1.81-2.95l.24,7.73c1.16,1-1,3.43,1.6,3.87,1.13-2.33,2.18-4.72,4.72-6.56l-.46,7.05,3.67-4.46c2.15,1.2.47,3.52,2,5,3.7-4.37,4.86-9.6,5.54-15.22a3.61,3.61,0,0,1,.69,4c-1.28,3.85,3.86,6.8,1.11,10.92,2.43-1.2,4.33-4.53,7.16-1,.95,1.2,1.6-.06,2.26-.77,1.2-1.29,1.93-3.12,3.92-3.64,1.39,1.24-.16,2.89.87,4.42L48.64,185c1,1.38-.13,3.08,1.23,4.31,2.27-2.18,1.94-5.15,2.48-8,1.3,1.58.38,3.33,1,4.92,2.65-.38,1.93-3.38,3.59-4.74.12,2.22.51,4.28-.17,6.4,2.73-2.35,3.13-5.51,3.49-8.69,1.16,1.69,1.1,1.69,1.33,4.36.09,1.05-.84,2.94,1.62,2.59,2.54.41-.88,2.2.6,2.72,1.77.62,2.6-.93,3.73-1.82,1.5-1.18,2.09-3.48,4.45-3.57,1.26-.55,1.8-1.95,3-2.5l1.22-1.89c1.86,0,1.21,1.09.9,2l-.42,3.74L81,182.17l-1.47,4.36c2.06,1.46,8.85-7.08,10.56-13.44.94-.35,1.3,0,1.12.95-.48,2.91-.95,5.82-1.45,8.84,2-.29,2.43-2.17,4.16-3.33-.64,3.34-1.23,6.35-1.77,9.16,2.1,1.17,3.23-4.34,5.84-.6,1-.57,1.21-2.65,3-3.11,1,2.3,2,1.89,3,0,1.11-1.29,1.68-3.31,4-2.94.23,3.42,2.39,2.23,4,1.53,2.27-1,3.85-1.19,3.48,2.27,2.11-1.63,2.4-4.16,4-5.76.7-1.48,1.74,1.54,2.43-.19,1.52-2.56,1.73-5.48,2.3-8.31.75-1.64.06-4,2.45-4.82,2.38,4.26,2.83,8.29,1.69,16.08,1.93-.66,4.32-2.13,4.47,1.58,0,.64.09.64.68.61.71-1.58,1.71,1.72,2.39-.16,1.11-1.7,1.36-5.21,3.55-4.64,2.89.76,1.26,4.42,1.91,7a41.94,41.94,0,0,0,3.32-8c.32-.93.68-2.22,1.7-2.19,1.39,0,1.51,1.48,1.72,2.61a8.46,8.46,0,0,1-.35,3.67c-.73,1.85.38.49.76.42,1.31.58,1.38,1.73,1.34,2.92a5.41,5.41,0,0,1-.58,1.88,3.47,3.47,0,0,0,.61-1.73c.28-1.37-.34-3.7,1.52-3.68,2.22,0,2.39,2.24,2.34,3.73a17.07,17.07,0,0,1,8.12-10.09l1.27-.48c1.33.4-1.53,3.56,1.76,2.67,1.54-1.57,1.91-4.23,5.13-5.16L167.2,182c1,1.92-.37,3.72-.32,6.39.2-2.68,1.36-3.75,3-4.44,1.11-.3,1.44-1.91,2.88-1.72.79,1.88-.72,3.46-.65,5.23,6.75,3.36,6.87-3.12,9.1-6.35,1.84,1-2.12,5.19,2.81,4.78v5.36c4-2.18,7.91-3.59,12.48-3.61,5.14,0,6.15-4.67,7.54-8.53,1.82-.18,1.39.93,1.11,1.95l-.76,4.39c2-.92,2.3-3.1,3.64-4.43.88-.18,1.42-.05,1,1-.21,2.48-1.86,4.38-3.2,7.23,4.37-2.34,9.3-1,12.06-5.31,1.66,1.67-.53,2.43-.15,3.81,2.73-1.14,4.61-3.72,7.87-4.46.36,2-1.84,2.6-2,4.18,1.86.16,2.93-2.15,5.3-1.56-.59,2-2.85,3.43-2.83,6.65,5.17-2.92,10.94-3.34,15-7.55.89-.2,1.41-.05,1,1-.29.9-1.08,2.28-.77,2.61,1.32,1.38,2.45-1.08,3.84-.58.5,1.57-1.32,2.16-1.33,4,4.58-1.85,7.21-5.4,9.8-9,.85.84.31,1.87.46,2.8,1.08,1,.1,2.15.2,3.22,3.56-1.51,7.11-3,10.7-4.51,1.27-.51,2.73-2,3.93-.84,1.46,1.39-.8,2.54-1,3.93s-1.12,2.38-1.56,3.63c-2.79,7.88-2.78,7.86-11.3,7.88Z" transform="translate(0 0)"/><path class="cls-2" d="M429,199.39q-36.54-.12-73.08-.22c-8.28,0-16.56.14-24.84.22-27-.08-54.07-.13-81.1-.29-1.52,0-3.59,1.18-4.64-1.13.72-3.44.1-6.92.35-10.37.07-1-.62-2.49,1.31-2.58.11.48.05,1.24.34,1.41,1.16.66.69-.54.78-.88,1.81-7,.94-14.1.45-22.63,3.89,8.31,3.71,16,4.87,23.56,1.76-2.23,1.66-4.82,1.79-7.35,1.27-.58-.9-3.27,1.81-2.95l.24,7.73c1.16,1-1,3.43,1.6,3.87,1.13-2.33,2.18-4.72,4.72-6.56l-.46,7.05,3.67-4.46c2.15,1.2.47,3.52,2,5,3.7-4.37,4.86-9.6,5.54-15.22a3.61,3.61,0,0,1,.69,4c-1.28,3.85,3.86,6.8,1.11,10.92,2.43-1.2,4.33-4.53,7.16-1,1,1.2,1.6-.06,2.26-.77,1.2-1.29,1.93-3.12,3.92-3.64,1.39,1.24-.16,2.89.87,4.42l2.32-2.53c.95,1.38-.13,3.08,1.23,4.31,2.27-2.18,1.94-5.15,2.48-8,1.3,1.58.38,3.33,1,4.92,2.65-.38,1.93-3.38,3.59-4.74.12,2.22.51,4.28-.17,6.4,2.73-2.35,3.13-5.51,3.49-8.69,1.16,1.69,1.1,1.69,1.33,4.36.09,1.05-.84,2.94,1.62,2.59,2.54.41-.88,2.2.6,2.72,1.77.62,2.6-.93,3.73-1.82,1.5-1.18,2.09-3.48,4.45-3.57,1.26-.55,1.8-1.95,3-2.5l1.22-1.89c1.86,0,1.21,1.09.9,2l-.42,3.74,4.28-2.69-1.47,4.36c2.06,1.46,8.85-7.08,10.56-13.44.94-.35,1.3,0,1.12.95-.48,2.91-.95,5.82-1.45,8.84,2-.29,2.43-2.17,4.16-3.33-.64,3.34-1.23,6.35-1.77,9.16,2.1,1.17,3.23-4.34,5.84-.6,1-.57,1.21-2.65,3-3.11,1,2.3,2,1.89,3,0,1.11-1.29,1.68-3.31,4-2.94.23,3.42,2.39,2.23,4,1.53,2.27-1,3.85-1.19,3.48,2.27,2.11-1.63,2.4-4.16,4-5.76.7-1.48,1.74,1.54,2.43-.19,1.52-2.56,1.73-5.48,2.3-8.31.75-1.64.06-4,2.45-4.82,2.38,4.26,2.83,8.29,1.69,16.08,1.93-.66,4.32-2.13,4.47,1.58,0,.64.09.64.68.61.71-1.58,1.71,1.72,2.39-.16,1.11-1.7,1.36-5.21,3.55-4.64,2.89.76,1.26,4.42,1.91,7a41.94,41.94,0,0,0,3.32-8c.32-.93.68-2.22,1.7-2.19,1.39,0,1.51,1.48,1.72,2.61a8.46,8.46,0,0,1-.35,3.67c-.73,1.85.38.49.76.42,1.31.58,1.38,1.73,1.34,2.92a5.41,5.41,0,0,1-.58,1.88,3.47,3.47,0,0,0,.61-1.73c.28-1.37-.34-3.7,1.52-3.68,2.22,0,2.39,2.24,2.34,3.73a17.07,17.07,0,0,1,8.12-10.09l1.27-.48c1.33.4-1.53,3.56,1.76,2.67,1.54-1.57,1.91-4.23,5.13-5.16L411.2,182c1,1.92-.37,3.72-.32,6.39.2-2.68,1.36-3.75,3-4.44,1.11-.3,1.44-1.91,2.88-1.72.79,1.88-.72,3.46-.65,5.23,6.75,3.36,6.87-3.12,9.1-6.35,1.84,1-2.12,5.19,2.81,4.78v5.36c4-2.18,7.91-3.59,12.48-3.61,5.14,0,6.15-4.67,7.54-8.53,1.82-.18,1.39.93,1.11,1.95l-.76,4.39c2-.92,2.3-3.1,3.64-4.43.88-.18,1.42-.05.95,1-.21,2.48-1.86,4.38-3.2,7.23,4.37-2.34,9.3-1,12.06-5.31,1.66,1.67-.53,2.43-.15,3.81,2.73-1.14,4.61-3.72,7.87-4.46.36,2-1.84,2.6-2,4.18,1.86.16,2.93-2.15,5.3-1.56-.59,2-2.85,3.43-2.83,6.65,5.17-2.92,10.94-3.34,15-7.55.89-.2,1.41-.05,1,1-.29.9-1.08,2.28-.77,2.61,1.32,1.38,2.45-1.08,3.84-.58.5,1.57-1.32,2.16-1.33,4,4.58-1.85,7.21-5.4,9.8-9,.85.84.31,1.87.46,2.8,1.08,1,.1,2.15.2,3.22,3.56-1.51,7.11-3,10.7-4.51,1.27-.51,2.73-2,3.93-.84,1.46,1.39-.8,2.54-1,3.93s-1.12,2.38-1.56,3.63c-2.79,7.88-2.78,7.86-11.3,7.88Z" transform="translate(0 0)"/><path class="cls-2" d="M674,199.39q-36.54-.12-73.08-.22c-8.28,0-16.56.14-24.84.22-27-.08-54.07-.13-81.1-.29-1.52,0-3.59,1.18-4.64-1.13.72-3.44.1-6.92.35-10.37.07-1-.62-2.49,1.31-2.58.11.48.05,1.24.34,1.41,1.16.66.69-.54.78-.88,1.81-7,.94-14.1.45-22.63,3.89,8.31,3.71,16,4.87,23.56,1.76-2.23,1.66-4.82,1.79-7.35,1.27-.58-.9-3.27,1.81-2.95l.24,7.73c1.16,1-1,3.43,1.6,3.87,1.13-2.33,2.18-4.72,4.72-6.56l-.46,7.05,3.67-4.46c2.15,1.2.47,3.52,2,5,3.7-4.37,4.86-9.6,5.54-15.22a3.61,3.61,0,0,1,.69,4c-1.28,3.85,3.86,6.8,1.11,10.92,2.43-1.2,4.33-4.53,7.16-1,1,1.2,1.6-.06,2.26-.77,1.2-1.29,1.93-3.12,3.92-3.64,1.39,1.24-.16,2.89.87,4.42l2.32-2.53c1,1.38-.13,3.08,1.23,4.31,2.27-2.18,1.94-5.15,2.48-8,1.3,1.58.38,3.33,1,4.92,2.65-.38,1.93-3.38,3.59-4.74.12,2.22.51,4.28-.17,6.4,2.73-2.35,3.13-5.51,3.49-8.69,1.16,1.69,1.1,1.69,1.33,4.36.09,1.05-.84,2.94,1.62,2.59,2.54.41-.88,2.2.6,2.72,1.77.62,2.6-.93,3.73-1.82,1.5-1.18,2.09-3.48,4.45-3.57,1.26-.55,1.8-1.95,3-2.5l1.22-1.89c1.86,0,1.21,1.09.9,2l-.42,3.74,4.28-2.69-1.47,4.36c2.06,1.46,8.85-7.08,10.56-13.44.94-.35,1.3,0,1.12.95-.48,2.91-1,5.82-1.45,8.84,2-.29,2.43-2.17,4.16-3.33-.64,3.34-1.23,6.35-1.77,9.16,2.1,1.17,3.23-4.34,5.84-.6,1-.57,1.21-2.65,3-3.11,1,2.3,2,1.89,3,0,1.11-1.29,1.68-3.31,4-2.94.23,3.42,2.39,2.23,4,1.53,2.27-1,3.85-1.19,3.48,2.27,2.11-1.63,2.4-4.16,4-5.76.7-1.48,1.74,1.54,2.43-.19,1.52-2.56,1.73-5.48,2.3-8.31.75-1.64.06-4,2.45-4.82,2.38,4.26,2.83,8.29,1.69,16.08,1.93-.66,4.32-2.13,4.47,1.58,0,.64.09.64.68.61.71-1.58,1.71,1.72,2.39-.16,1.11-1.7,1.36-5.21,3.55-4.64,2.89.76,1.26,4.42,1.91,7a41.94,41.94,0,0,0,3.32-8c.32-.93.68-2.22,1.7-2.19,1.39,0,1.51,1.48,1.72,2.61a8.46,8.46,0,0,1-.35,3.67c-.73,1.85.38.49.76.42,1.31.58,1.38,1.73,1.34,2.92a5.41,5.41,0,0,1-.58,1.88,3.47,3.47,0,0,0,.61-1.73c.28-1.37-.34-3.7,1.52-3.68,2.22,0,2.39,2.24,2.34,3.73a17.07,17.07,0,0,1,8.12-10.09l1.27-.48c1.33.4-1.53,3.56,1.76,2.67,1.54-1.57,1.91-4.23,5.13-5.16L656.2,182c1,1.92-.37,3.72-.32,6.39.2-2.68,1.36-3.75,3-4.44,1.11-.3,1.44-1.91,2.88-1.72.79,1.88-.72,3.46-.65,5.23,6.75,3.36,6.87-3.12,9.1-6.35,1.84,1-2.12,5.19,2.81,4.78v5.36c4-2.18,7.91-3.59,12.48-3.61,5.14,0,6.15-4.67,7.54-8.53,1.82-.18,1.39.93,1.11,1.95l-.76,4.39c2-.92,2.3-3.1,3.64-4.43.88-.18,1.42-.05,1,1-.21,2.48-1.86,4.38-3.2,7.23,4.37-2.34,9.3-1,12.06-5.31,1.66,1.67-.53,2.43-.15,3.81,2.73-1.14,4.61-3.72,7.87-4.46.36,2-1.84,2.6-2,4.18,1.86.16,2.93-2.15,5.3-1.56-.59,2-2.85,3.43-2.83,6.65,5.17-2.92,10.94-3.34,15-7.55.89-.2,1.41-.05,1,1-.29.9-1.08,2.28-.77,2.61,1.32,1.38,2.45-1.08,3.84-.58.5,1.57-1.32,2.16-1.33,4,4.58-1.85,7.21-5.4,9.8-9,.85.84.31,1.87.46,2.8,1.08,1,.1,2.15.2,3.22,3.56-1.51,7.11-3,10.7-4.51,1.27-.51,2.73-2,3.93-.84,1.46,1.39-.8,2.54-1,3.93s-1.12,2.38-1.56,3.63c-2.79,7.88-2.78,7.86-11.3,7.88Z" transform="translate(0 0)"/><path class="cls-2" d="M920,199.39q-36.54-.12-73.08-.22c-8.28,0-16.56.14-24.84.22-27-.08-54.07-.13-81.1-.29-1.52,0-3.59,1.18-4.64-1.13.72-3.44.1-6.92.35-10.37.07-1-.62-2.49,1.31-2.58.11.48,0,1.24.34,1.41,1.16.66.69-.54.78-.88,1.81-7,.94-14.1.45-22.63,3.89,8.31,3.71,16,4.87,23.56,1.76-2.23,1.66-4.82,1.79-7.35,1.27-.58-.9-3.27,1.81-2.95l.24,7.73c1.16,1-1,3.43,1.6,3.87,1.13-2.33,2.18-4.72,4.72-6.56l-.46,7.05,3.67-4.46c2.15,1.2.47,3.52,2,5,3.7-4.37,4.86-9.6,5.54-15.22a3.61,3.61,0,0,1,.69,4c-1.28,3.85,3.86,6.8,1.11,10.92,2.43-1.2,4.33-4.53,7.16-1,1,1.2,1.6-.06,2.26-.77,1.2-1.29,1.93-3.12,3.92-3.64,1.39,1.24-.16,2.89.87,4.42l2.32-2.53c1,1.38-.13,3.08,1.23,4.31,2.27-2.18,1.94-5.15,2.48-8,1.3,1.58.38,3.33,1,4.92,2.65-.38,1.93-3.38,3.59-4.74.12,2.22.51,4.28-.17,6.4,2.73-2.35,3.13-5.51,3.49-8.69,1.16,1.69,1.1,1.69,1.33,4.36.09,1.05-.84,2.94,1.62,2.59,2.54.41-.88,2.2.6,2.72,1.77.62,2.6-.93,3.73-1.82,1.5-1.18,2.09-3.48,4.45-3.57,1.26-.55,1.8-1.95,3-2.5l1.22-1.89c1.86,0,1.21,1.09.9,2l-.42,3.74,4.28-2.69-1.47,4.36c2.06,1.46,8.85-7.08,10.56-13.44.94-.35,1.3,0,1.12.95-.48,2.91-1,5.82-1.45,8.84,2-.29,2.43-2.17,4.16-3.33-.64,3.34-1.23,6.35-1.77,9.16,2.1,1.17,3.23-4.34,5.84-.6,1-.57,1.21-2.65,3-3.11,1,2.3,2,1.89,3,0,1.11-1.29,1.68-3.31,4-2.94.23,3.42,2.39,2.23,4,1.53,2.27-1,3.85-1.19,3.48,2.27,2.11-1.63,2.4-4.16,4-5.76.7-1.48,1.74,1.54,2.43-.19,1.52-2.56,1.73-5.48,2.3-8.31.75-1.64.06-4,2.45-4.82,2.38,4.26,2.83,8.29,1.69,16.08,1.93-.66,4.32-2.13,4.47,1.58,0,.64.09.64.68.61.71-1.58,1.71,1.72,2.39-.16,1.11-1.7,1.36-5.21,3.55-4.64,2.89.76,1.26,4.42,1.91,7a41.94,41.94,0,0,0,3.32-8c.32-.93.68-2.22,1.7-2.19,1.39,0,1.51,1.48,1.72,2.61a8.46,8.46,0,0,1-.35,3.67c-.73,1.85.38.49.76.42,1.31.58,1.38,1.73,1.34,2.92a5.41,5.41,0,0,1-.58,1.88,3.47,3.47,0,0,0,.61-1.73c.28-1.37-.34-3.7,1.52-3.68,2.22,0,2.39,2.24,2.34,3.73a17.07,17.07,0,0,1,8.12-10.09l1.27-.48c1.33.4-1.53,3.56,1.76,2.67,1.54-1.57,1.91-4.23,5.13-5.16L902.2,182c1,1.92-.37,3.72-.32,6.39.2-2.68,1.36-3.75,3-4.44,1.11-.3,1.44-1.91,2.88-1.72.79,1.88-.72,3.46-.65,5.23,6.75,3.36,6.87-3.12,9.1-6.35,1.84,1-2.12,5.19,2.81,4.78v5.36c4-2.18,7.91-3.59,12.48-3.61,5.14,0,6.15-4.67,7.54-8.53,1.82-.18,1.39.93,1.11,1.95l-.76,4.39c2-.92,2.3-3.1,3.64-4.43.88-.18,1.42-.05,1,1-.21,2.48-1.86,4.38-3.2,7.23,4.37-2.34,9.3-1,12.06-5.31,1.66,1.67-.53,2.43-.15,3.81,2.73-1.14,4.61-3.72,7.87-4.46.36,2-1.84,2.6-2,4.18,1.86.16,2.93-2.15,5.3-1.56-.59,2-2.85,3.43-2.83,6.65,5.17-2.92,10.94-3.34,15-7.55.89-.2,1.41-.05,1,1-.29.9-1.08,2.28-.77,2.61,1.32,1.38,2.45-1.08,3.84-.58.5,1.57-1.32,2.16-1.33,4,4.58-1.85,7.21-5.4,9.8-9,.85.84.31,1.87.46,2.8,1.08,1,.1,2.15.2,3.22,3.56-1.51,7.11-3,10.7-4.51,1.27-.51,2.73-2,3.93-.84,1.46,1.39-.8,2.54-1,3.93s-1.12,2.38-1.56,3.63c-2.79,7.88-2.78,7.86-11.3,7.88Z" transform="translate(0 0)"/><path class="cls-2" d="M1143,199.79q-36.54-.12-73.08-.22c-8.28,0-16.56.14-24.84.22-27-.08-54.07-.13-81.1-.29-1.52,0-3.59,1.18-4.64-1.13.72-3.44.1-6.92.35-10.37.07-1-.62-2.49,1.31-2.58.11.48,0,1.24.34,1.41,1.16.66.69-.54.78-.88,1.81-7,.94-14.1.45-22.63,3.89,8.31,3.71,16,4.87,23.56,1.76-2.23,1.66-4.82,1.79-7.35,1.27-.58-.9-3.27,1.81-2.95l.24,7.73c1.16,1-1,3.43,1.6,3.87,1.13-2.33,2.18-4.72,4.72-6.56l-.46,7,3.67-4.46c2.15,1.2.47,3.52,2,5,3.7-4.37,4.86-9.6,5.54-15.22a3.61,3.61,0,0,1,.69,4c-1.28,3.85,3.86,6.8,1.11,10.92,2.43-1.2,4.33-4.53,7.16-1,1,1.2,1.6-.06,2.26-.77,1.2-1.29,1.93-3.12,3.92-3.64,1.39,1.24-.16,2.89.87,4.42l2.32-2.53c1,1.38-.13,3.08,1.23,4.31,2.27-2.18,1.94-5.15,2.48-8,1.3,1.58.38,3.33,1,4.92,2.65-.38,1.93-3.38,3.59-4.74.12,2.22.51,4.28-.17,6.4,2.73-2.35,3.13-5.51,3.49-8.69,1.16,1.69,1.1,1.69,1.33,4.36.09,1-.84,2.94,1.62,2.59,2.54.41-.88,2.2.6,2.72,1.77.62,2.6-.93,3.73-1.82,1.5-1.18,2.09-3.48,4.45-3.57,1.26-.55,1.8-1.95,3-2.5l1.22-1.89c1.86,0,1.21,1.09.9,2l-.42,3.74,4.28-2.69-1.47,4.36c2.06,1.46,8.85-7.08,10.56-13.44.94-.35,1.3,0,1.12.95-.48,2.91-1,5.82-1.45,8.84,2-.29,2.43-2.17,4.16-3.33-.64,3.34-1.23,6.35-1.77,9.16,2.1,1.17,3.23-4.34,5.84-.6,1-.57,1.21-2.65,3-3.11,1,2.3,2,1.89,3,0,1.11-1.29,1.68-3.31,4-2.94.23,3.42,2.39,2.23,4,1.53,2.27-1,3.85-1.19,3.48,2.27,2.11-1.63,2.4-4.16,4-5.76.7-1.48,1.74,1.54,2.43-.19,1.52-2.56,1.73-5.48,2.3-8.31.75-1.64.06-4,2.45-4.82,2.38,4.26,2.83,8.29,1.69,16.08,1.93-.66,4.32-2.13,4.47,1.58,0,.64.09.64.68.61.71-1.58,1.71,1.72,2.39-.16,1.11-1.7,1.36-5.21,3.55-4.64,2.89.76,1.26,4.42,1.91,7a41.94,41.94,0,0,0,3.32-8c.32-.93.68-2.22,1.7-2.19,1.39,0,1.51,1.48,1.72,2.61a8.46,8.46,0,0,1-.35,3.67c-.73,1.85.38.49.76.42,1.31.58,1.38,1.73,1.34,2.92a5.41,5.41,0,0,1-.58,1.88,3.47,3.47,0,0,0,.61-1.73c.28-1.37-.34-3.7,1.52-3.68,2.22,0,2.39,2.24,2.34,3.73a17.07,17.07,0,0,1,8.12-10.09l1.27-.48c1.33.4-1.53,3.56,1.76,2.67,1.54-1.57,1.91-4.23,5.13-5.16l-2.86,8.19c1,1.92-.37,3.72-.32,6.39.2-2.68,1.36-3.75,3-4.44,1.11-.3,1.44-1.91,2.88-1.72.79,1.88-.72,3.46-.65,5.23,6.75,3.36,6.87-3.12,9.1-6.35,1.84,1-2.12,5.19,2.81,4.78v5.36c4-2.18,7.91-3.59,12.48-3.61,5.14,0,6.15-4.67,7.54-8.53,1.82-.18,1.39.93,1.11,2l-.76,4.39c2-.92,2.3-3.1,3.64-4.43.88-.18,1.42,0,1,1-.21,2.48-1.86,4.38-3.2,7.23,4.37-2.34,9.3-1,12.06-5.31,1.66,1.67-.53,2.43-.15,3.81,2.73-1.14,4.61-3.72,7.87-4.46.36,2-1.84,2.6-2,4.18,1.86.16,2.93-2.15,5.3-1.56-.59,2-2.85,3.43-2.83,6.65,5.17-2.92,10.94-3.34,15-7.55.89-.2,1.41-.05,1,1-.29.9-1.08,2.28-.77,2.61,1.32,1.38,2.45-1.08,3.84-.58.5,1.57-1.32,2.16-1.33,4,4.58-1.85,7.21-5.4,9.8-9,.85.84.31,1.87.46,2.8,1.08,1,.1,2.15.2,3.22,3.56-1.51,7.11-3.05,10.7-4.51,1.27-.51,2.73-2,3.93-.84,1.46,1.39-.8,2.54-1,3.93s-1.12,2.38-1.56,3.63c-2.79,7.88-2.78,7.86-11.3,7.88Z" transform="translate(0 0)"/><path class="cls-2" d="M1387,199.79q-36.54-.12-73.08-.22c-8.28,0-16.56.14-24.84.22-27-.08-54.07-.13-81.1-.29-1.52,0-3.59,1.18-4.64-1.13.72-3.44.1-6.92.35-10.37.07-1-.62-2.49,1.31-2.58.11.48,0,1.24.34,1.41,1.16.66.69-.54.78-.88,1.81-7,.94-14.1.45-22.63,3.89,8.31,3.71,16,4.87,23.56,1.76-2.23,1.66-4.82,1.79-7.35,1.27-.58-.9-3.27,1.81-2.95l.24,7.73c1.16,1-1,3.43,1.6,3.87,1.13-2.33,2.18-4.72,4.72-6.56l-.46,7,3.67-4.46c2.15,1.2.47,3.52,2,5,3.7-4.37,4.86-9.6,5.54-15.22a3.61,3.61,0,0,1,.69,4c-1.28,3.85,3.86,6.8,1.11,10.92,2.43-1.2,4.33-4.53,7.16-1,1,1.2,1.6-.06,2.26-.77,1.2-1.29,1.93-3.12,3.92-3.64,1.39,1.24-.16,2.89.87,4.42l2.32-2.53c.95,1.38-.13,3.08,1.23,4.31,2.27-2.18,1.94-5.15,2.48-8,1.3,1.58.38,3.33,1,4.92,2.65-.38,1.93-3.38,3.59-4.74.12,2.22.51,4.28-.17,6.4,2.73-2.35,3.13-5.51,3.49-8.69,1.16,1.69,1.1,1.69,1.33,4.36.09,1-.84,2.94,1.62,2.59,2.54.41-.88,2.2.6,2.72,1.77.62,2.6-.93,3.73-1.82,1.5-1.18,2.09-3.48,4.45-3.57,1.26-.55,1.8-1.95,3-2.5l1.22-1.89c1.86,0,1.21,1.09.9,2l-.42,3.74,4.28-2.69-1.47,4.36c2.06,1.46,8.85-7.08,10.56-13.44.94-.35,1.3,0,1.12.95-.48,2.91-1,5.82-1.45,8.84,2-.29,2.43-2.17,4.16-3.33-.64,3.34-1.23,6.35-1.77,9.16,2.1,1.17,3.23-4.34,5.84-.6,1-.57,1.21-2.65,3-3.11,1,2.3,2,1.89,3,0,1.11-1.29,1.68-3.31,4-2.94.23,3.42,2.39,2.23,4,1.53,2.27-1,3.85-1.19,3.48,2.27,2.11-1.63,2.4-4.16,4-5.76.7-1.48,1.74,1.54,2.43-.19,1.52-2.56,1.73-5.48,2.3-8.31.75-1.64.06-4,2.45-4.82,2.38,4.26,2.83,8.29,1.69,16.08,1.93-.66,4.32-2.13,4.47,1.58,0,.64.09.64.68.61.71-1.58,1.71,1.72,2.39-.16,1.11-1.7,1.36-5.21,3.55-4.64,2.89.76,1.26,4.42,1.91,7a41.94,41.94,0,0,0,3.32-8c.32-.93.68-2.22,1.7-2.19,1.39,0,1.51,1.48,1.72,2.61a8.46,8.46,0,0,1-.35,3.67c-.73,1.85.38.49.76.42,1.31.58,1.38,1.73,1.34,2.92a5.41,5.41,0,0,1-.58,1.88,3.47,3.47,0,0,0,.61-1.73c.28-1.37-.34-3.7,1.52-3.68,2.22,0,2.39,2.24,2.34,3.73a17.07,17.07,0,0,1,8.12-10.09l1.27-.48c1.33.4-1.53,3.56,1.76,2.67,1.54-1.57,1.91-4.23,5.13-5.16l-2.86,8.19c1,1.92-.37,3.72-.32,6.39.2-2.68,1.36-3.75,3-4.44,1.11-.3,1.44-1.91,2.88-1.72.79,1.88-.72,3.46-.65,5.23,6.75,3.36,6.87-3.12,9.1-6.35,1.84,1-2.12,5.19,2.81,4.78v5.36c4-2.18,7.91-3.59,12.48-3.61,5.14,0,6.15-4.67,7.54-8.53,1.82-.18,1.39.93,1.11,2l-.76,4.39c2-.92,2.3-3.1,3.64-4.43.88-.18,1.42,0,1,1-.21,2.48-1.86,4.38-3.2,7.23,4.37-2.34,9.3-1,12.06-5.31,1.66,1.67-.53,2.43-.15,3.81,2.73-1.14,4.61-3.72,7.87-4.46.36,2-1.84,2.6-2,4.18,1.86.16,2.93-2.15,5.3-1.56-.59,2-2.85,3.43-2.83,6.65,5.17-2.92,10.94-3.34,15-7.55.89-.2,1.41-.05,1,1-.29.9-1.08,2.28-.77,2.61,1.32,1.38,2.45-1.08,3.84-.58.5,1.57-1.32,2.16-1.33,4,4.58-1.85,7.21-5.4,9.8-9,.85.84.31,1.87.46,2.8,1.08,1,.1,2.15.2,3.22,3.56-1.51,7.11-3.05,10.7-4.51,1.27-.51,2.73-2,3.93-.84,1.46,1.39-.8,2.54-1,3.93s-1.12,2.38-1.56,3.63c-2.79,7.88-2.78,7.86-11.3,7.88Z" transform="translate(0 0)"/><path class="cls-2" d="M1632,199.79q-36.54-.12-73.08-.22c-8.28,0-16.56.14-24.84.22-27-.08-54.07-.13-81.1-.29-1.52,0-3.59,1.18-4.64-1.13.72-3.44.1-6.92.35-10.37.07-1-.62-2.49,1.31-2.58.11.48,0,1.24.34,1.41,1.16.66.69-.54.78-.88,1.81-7,.94-14.1.45-22.63,3.89,8.31,3.71,16,4.87,23.56,1.76-2.23,1.66-4.82,1.79-7.35,1.27-.58-.9-3.27,1.81-2.95l.24,7.73c1.16,1-1,3.43,1.6,3.87,1.13-2.33,2.18-4.72,4.72-6.56l-.46,7,3.67-4.46c2.15,1.2.47,3.52,2,5,3.7-4.37,4.86-9.6,5.54-15.22a3.61,3.61,0,0,1,.69,4c-1.28,3.85,3.86,6.8,1.11,10.92,2.43-1.2,4.33-4.53,7.16-1,1,1.2,1.6-.06,2.26-.77,1.2-1.29,1.93-3.12,3.92-3.64,1.39,1.24-.16,2.89.87,4.42l2.32-2.53c.95,1.38-.13,3.08,1.23,4.31,2.27-2.18,1.94-5.15,2.48-8,1.3,1.58.38,3.33,1,4.92,2.65-.38,1.93-3.38,3.59-4.74.12,2.22.51,4.28-.17,6.4,2.73-2.35,3.13-5.51,3.49-8.69,1.16,1.69,1.1,1.69,1.33,4.36.09,1-.84,2.94,1.62,2.59,2.54.41-.88,2.2.6,2.72,1.77.62,2.6-.93,3.73-1.82,1.5-1.18,2.09-3.48,4.45-3.57,1.26-.55,1.8-1.95,3-2.5l1.22-1.89c1.86,0,1.21,1.09.9,2l-.42,3.74,4.28-2.69-1.47,4.36c2.06,1.46,8.85-7.08,10.56-13.44.94-.35,1.3,0,1.12.95-.48,2.91-1,5.82-1.45,8.84,2-.29,2.43-2.17,4.16-3.33-.64,3.34-1.23,6.35-1.77,9.16,2.1,1.17,3.23-4.34,5.84-.6,1-.57,1.21-2.65,3-3.11,1,2.3,2,1.89,3,0,1.11-1.29,1.68-3.31,4-2.94.23,3.42,2.39,2.23,4,1.53,2.27-1,3.85-1.19,3.48,2.27,2.11-1.63,2.4-4.16,4-5.76.7-1.48,1.74,1.54,2.43-.19,1.52-2.56,1.73-5.48,2.3-8.31.75-1.64.06-4,2.45-4.82,2.38,4.26,2.83,8.29,1.69,16.08,1.93-.66,4.32-2.13,4.47,1.58,0,.64.09.64.68.61.71-1.58,1.71,1.72,2.39-.16,1.11-1.7,1.36-5.21,3.55-4.64,2.89.76,1.26,4.42,1.91,7a41.94,41.94,0,0,0,3.32-8c.32-.93.68-2.22,1.7-2.19,1.39,0,1.51,1.48,1.72,2.61a8.46,8.46,0,0,1-.35,3.67c-.73,1.85.38.49.76.42,1.31.58,1.38,1.73,1.34,2.92a5.41,5.41,0,0,1-.58,1.88,3.47,3.47,0,0,0,.61-1.73c.28-1.37-.34-3.7,1.52-3.68,2.22,0,2.39,2.24,2.34,3.73a17.07,17.07,0,0,1,8.12-10.09l1.27-.48c1.33.4-1.53,3.56,1.76,2.67,1.54-1.57,1.91-4.23,5.13-5.16l-2.86,8.19c1,1.92-.37,3.72-.32,6.39.2-2.68,1.36-3.75,3-4.44,1.11-.3,1.44-1.91,2.88-1.72.79,1.88-.72,3.46-.65,5.23,6.75,3.36,6.87-3.12,9.1-6.35,1.84,1-2.12,5.19,2.81,4.78v5.36c4-2.18,7.91-3.59,12.48-3.61,5.14,0,6.15-4.67,7.54-8.53,1.82-.18,1.39.93,1.11,2l-.76,4.39c2-.92,2.3-3.1,3.64-4.43.88-.18,1.42,0,1,1-.21,2.48-1.86,4.38-3.2,7.23,4.37-2.34,9.3-1,12.06-5.31,1.66,1.67-.53,2.43-.15,3.81,2.73-1.14,4.61-3.72,7.87-4.46.36,2-1.84,2.6-2,4.18,1.86.16,2.93-2.15,5.3-1.56-.59,2-2.85,3.43-2.83,6.65,5.17-2.92,10.94-3.34,15-7.55.89-.2,1.41-.05,1,1-.29.9-1.08,2.28-.77,2.61,1.32,1.38,2.45-1.08,3.84-.58.5,1.57-1.32,2.16-1.33,4,4.58-1.85,7.21-5.4,9.8-9,.85.84.31,1.87.46,2.8,1.08,1,.1,2.15.2,3.22,3.56-1.51,7.11-3.05,10.7-4.51,1.27-.51,2.73-2,3.93-.84,1.46,1.39-.8,2.54-1,3.93s-1.12,2.38-1.56,3.63c-2.79,7.88-2.78,7.86-11.3,7.88Z" transform="translate(0 0)"/><path class="cls-2" d="M1847.61,199.79q-30.49-.12-61-.22c-6.91,0-13.82.14-20.73.22-22.57-.08-45.14-.13-67.71-.29-1.27,0-3,1.18-3.87-1.13.6-3.44.09-6.92.29-10.37.06-1-.52-2.49,1.1-2.58.08.48,0,1.24.28,1.41,1,.66.58-.54.65-.88,1.51-7,.78-14.1.38-22.63,3.24,8.31,3.09,16,4.06,23.56,1.47-2.23,1.39-4.82,1.5-7.35,1.06-.58-.75-3.27,1.51-2.95l.2,7.73c1,1-.83,3.43,1.33,3.87.94-2.33,1.82-4.72,3.94-6.56l-.38,7,3.06-4.46c1.8,1.2.4,3.52,1.68,5,3.09-4.37,4.06-9.6,4.63-15.22a4.17,4.17,0,0,1,.57,4c-1.07,3.85,3.23,6.8.93,10.92,2-1.2,3.62-4.53,6-1,.8,1.2,1.34-.06,1.89-.77,1-1.29,1.61-3.12,3.28-3.64,1.15,1.24-.14,2.89.72,4.42l1.94-2.53c.79,1.38-.11,3.08,1,4.31,1.89-2.18,1.61-5.15,2.07-8,1.08,1.58.32,3.33.82,4.92,2.2-.38,1.6-3.38,3-4.74.1,2.22.42,4.28-.14,6.4,2.28-2.35,2.61-5.51,2.91-8.69,1,1.69.92,1.69,1.11,4.36.08,1-.7,2.94,1.35,2.59,2.12.41-.73,2.2.5,2.72,1.48.62,2.18-.93,3.12-1.82,1.25-1.18,1.75-3.48,3.72-3.57,1-.55,1.5-1.95,2.54-2.5l1-1.89c1.55,0,1,1.09.75,2l-.35,3.74,3.57-2.69-1.23,4.36c1.72,1.46,7.39-7.08,8.82-13.44.78-.35,1.09,0,.94.95-.4,2.91-.8,5.82-1.21,8.84,1.64-.29,2-2.17,3.47-3.33-.54,3.34-1,6.35-1.48,9.16,1.75,1.17,2.69-4.34,4.88-.6.86-.57,1-2.65,2.49-3.11.84,2.3,1.68,1.89,2.51,0,.93-1.29,1.4-3.31,3.34-2.94.2,3.42,2,2.23,3.38,1.53,1.9-1,3.21-1.19,2.91,2.27,1.76-1.63,2-4.16,3.35-5.76.59-1.48,1.45,1.54,2-.19,1.28-2.56,1.45-5.48,1.93-8.31.63-1.64,0-4,2-4.82,2,4.26,2.36,8.29,1.41,16.08,1.62-.66,3.61-2.13,3.73,1.58,0,.64.08.64.57.61.6-1.58,1.43,1.72,2-.16.94-1.7,1.15-5.21,3-4.64,2.42.76,1.06,4.42,1.6,7a47.57,47.57,0,0,0,2.77-8c.26-.93.57-2.22,1.42-2.19,1.16,0,1.26,1.48,1.43,2.61a9.85,9.85,0,0,1-.29,3.67c-.61,1.85.32.49.63.42,1.09.58,1.16,1.73,1.13,2.92a6.59,6.59,0,0,1-.49,1.88,4.05,4.05,0,0,0,.51-1.73c.23-1.37-.28-3.7,1.27-3.68,1.85,0,2,2.24,1.95,3.73,1.15-4.05,3.17-7.81,6.78-10.09l1.06-.48c1.11.4-1.28,3.56,1.47,2.67,1.28-1.57,1.59-4.23,4.28-5.16-.89,3-1.64,5.61-2.39,8.19.87,1.92-.3,3.72-.26,6.39.16-2.68,1.13-3.75,2.49-4.44.92-.3,1.19-1.91,2.4-1.72.66,1.88-.6,3.46-.55,5.23,5.64,3.36,5.74-3.12,7.6-6.35,1.54,1-1.77,5.19,2.35,4.78v5.36c3.36-2.18,6.6-3.59,10.42-3.61,4.29,0,5.13-4.67,6.29-8.53,1.52-.18,1.16.93.93,2-.21,1.44-.42,2.88-.63,4.39,1.64-.92,1.91-3.1,3-4.43.72-.18,1.18,0,.79,1-.18,2.48-1.55,4.38-2.67,7.23,3.64-2.34,7.76-1,10.06-5.31,1.39,1.67-.44,2.43-.12,3.81,2.27-1.14,3.85-3.72,6.57-4.46.29,2-1.54,2.6-1.7,4.18,1.55.16,2.45-2.15,4.43-1.56-.49,2-2.38,3.43-2.37,6.65,4.32-2.92,9.13-3.34,12.53-7.55.74-.2,1.17-.05.81,1-.24.9-.91,2.28-.65,2.61,1.1,1.38,2-1.08,3.21-.58.42,1.57-1.11,2.16-1.11,4,3.82-1.85,6-5.4,8.18-9,.71.84.26,1.87.38,2.8.9,1,.09,2.15.17,3.22,3-1.51,5.94-3.05,8.93-4.51,1.06-.51,2.28-2,3.28-.84,1.22,1.39-.66,2.54-.88,3.93a28.7,28.7,0,0,1-1.3,3.63c-2.33,7.88-2.31,7.86-9.43,7.88Z" transform="translate(0 0)"/></g><g id="Wind"><path class="cls-3" d="M682.27,135.67c-6.44-.94-11-3.9-11.95-10.9a6.66,6.66,0,0,0,0-4.87c.59-4.41,3.24-7.83,7.25-8.48s8.94-1.18,11.9,3.39c1,1.55,2.15,3.12.41,4.87s-3.61,1.74-5.22,0c-1.83-2-4-2.76-6.17-1.31-1.7,1.13-2.1,3.28-1.77,5.36a5.72,5.72,0,0,0,4.81,5c7,1.65,12.78-1.8,16.58-10a6,6,0,0,0-.15-5.91c-3-7.59-9.15-10.73-16.66-12-1.12-.19-2.32,0-3.24-.91a5.74,5.74,0,0,0-5.75,0c-15.47,2.92-28,12.33-41.64,19.15-9.5,4.73-19.06,9.2-29.58,11.21-1.28.24-2.61.27-3.92.39a25.22,25.22,0,0,0-9.87,0,24.1,24.1,0,0,1-13.43-4.52c-1.75-1.18-3.23-2.58-1.84-4.9s3.39-1.89,5.19-.81c10.76,6.46,21.69,4.14,32.51.5,13.11-4.42,24.87-11.69,37-18.17,7.47-4,14.91-8,23.52-8.83a25,25,0,0,0,9.87,0c13.43,1.51,21.44,7.52,23.93,17.94a28.37,28.37,0,0,0,0,8.87c-2.13,9-8.19,13.46-16.93,14.93A6.76,6.76,0,0,0,682.27,135.67Z" transform="translate(0 0)"/><path class="cls-3" d="M704.29,73.91c-5.87,2.25-11.75.69-17.46-.42-9.32-1.82-18.52-4.3-27.76-6.5a27,27,0,0,0-12.73,0c-9.2,2.33-18.16,5.16-25.55,11.55-1.61,1.4-3.53,1.06-4.82-.65s-.77-3.45.9-4.77c8.09-6.4,17-10.87,27.42-12.1,1.55.79,3.21.38,4.8.36,1.83,0-.68-.34,0-.54a7.33,7.33,0,0,1,7.28,0,2.3,2.3,0,0,1-.37.33,5.2,5.2,0,0,1-1.37.27c.23.39.43,0,.64,0,1.63-.13,3.32.43,4.9-.37,10.53,1.55,20.8,4.24,31.1,6.83,1.24,1,2.56.61,3.87.18h6.12c1.3.37,2.61.93,3.82-.22,3.73-1.59,7.72-2.57,10.61-5.84,7-7.92,4.74-17.66-5.51-22.92a4.27,4.27,0,0,0-5,.07c-3.86,1.81-7.31,4-8,8.72-.76,5.39,3,8.34,7.83,6.06,2.36-1.1,4.2-1.29,5.51,1.08,1.46,2.65-.71,4.1-2.46,5.18a10.84,10.84,0,0,1-12.22-.21c-4.18-2.69-6.46-8.79-5.37-13.59,1.58-7,6-11.28,12.75-13.26a23.31,23.31,0,0,0,8.81,0c8,2.38,12.72,7.58,14,15.87a9.38,9.38,0,0,0,0,5.88c-2.06,10.56-8.52,16.72-18.94,18.91C705.24,73.19,705.24,73.19,704.29,73.91Z" transform="translate(0 0)"/><path class="cls-4" d="M745.08,62.06c9.56,2.32,14.65,10.27,12.18,19-.56-.44-.77-.9-.09-1.42-.61.2-.54.72-.53,1.19a8.27,8.27,0,0,0,.22,2.89c-2.69,6.75-7.86,10.41-14.77,12a7.06,7.06,0,0,0-4.17-.2,1.13,1.13,0,0,1,1.44.45c-6.58,1.92-13,.44-19.37-1a1.26,1.26,0,0,1,1.19-.53c-.1.66,1.12,0,.68.09-1.7-.18-3.17-.42-4.62.16-10.93-2.73-21.82-5.69-32.82-8.14-16.63-3.71-32-.55-45.91,9.36-.54.39-1.09.76-1.65,1.13-1.85,1.21-3.83,1.72-5.25-.39-1.2-1.77-.5-3.5,1.12-4.81,4.82-3.92,10-7.4,16-9,2.94-.77,5.4-2.92,8.58-2.77a6.78,6.78,0,0,0,2.93.3,2.67,2.67,0,0,0,.95-.11c-.46,0-.93,0-1.19-.51a3.77,3.77,0,0,1,3.3-.71,71.79,71.79,0,0,0,15.85,0c1.47-.14,2.93-.24,4.17.8.84,1.31,1.86.42,2.82.24l39.22,9.72c1.52,1.26,3.15.48,4.75.24,4.93-.28,9.95.26,14.59-2.21,5-2.67,7.36-6.9,6.37-12.26-.61-3.33-2.41-6-5.89-6.61s-7.08-.59-9.37,2.86c-1.13,1.7-1.85,3.82-.23,5.51,1.4,1.46,2.92.6,4.37-.57s3.15-1.58,4.53.59.68,3.81-.8,5.32c-3.91,4-13.44,3.22-15.29-4.87a7.63,7.63,0,0,0-.06-4.84c1.18-6.69,5.56-9.86,11.92-10.87A7.7,7.7,0,0,0,745.08,62.06Z" transform="translate(0 0)"/><path class="cls-5" d="M648.93,75a4.14,4.14,0,0,1-3.11,3.52,118,118,0,0,0-32.67,16.77c-1.76,1.27-3.67,1.92-5.17-.35s-.44-3.87,1.62-5.36a122,122,0,0,1,33.11-17C646.22,71.44,648.9,72.56,648.93,75Z" transform="translate(0 0)"/><path class="cls-6" d="M679.14,79a31.86,31.86,0,0,1-15.85,0A72.41,72.41,0,0,1,679.14,79Z" transform="translate(0 0)"/><path class="cls-7" d="M646.34,67c4.16-2.23,8.55-.81,12.84-.78.05,0,.14.26.12.39a1.58,1.58,0,0,1-.23.42Z" transform="translate(0 0)"/><path class="cls-8" d="M680.14,94a11.93,11.93,0,0,1-9.87,0Z" transform="translate(0 0)"/><path class="cls-8" d="M649.08,60.81,651,61c-2.25.69-4.5,1.54-6.73,0Z" transform="translate(0 0)"/><path class="cls-8" d="M672.34,100c1.67-2.3,3.88-.77,5.87-.83a.61.61,0,0,1,.12.4,1.33,1.33,0,0,1-.24.41Z" transform="translate(0 0)"/><path class="cls-8" d="M660.16,61c-1.85,1.55-3.91.81-6,.66.56-1.12,1.51-.62,2.23-.84Z" transform="translate(0 0)"/><path class="cls-8" d="M695.13,68c-1.34.94-2.67,1.87-3.87-.18Z" transform="translate(0 0)"/><path class="cls-9" d="M660,79.75l1.22.5c-.14.19-.27.53-.42.54-1.21,0-2.51.38-3.49-.72Z" transform="translate(0 0)"/><path class="cls-10" d="M686.13,80.05c-1.07,1.14-2.41.83-3.71.66,0,0-.14-.58-.06-.63a4.17,4.17,0,0,1,.95-.27Z" transform="translate(0 0)"/><path class="cls-8" d="M670.35,119.9a3.53,3.53,0,0,1,0,4.87Z" transform="translate(0 0)"/><path class="cls-8" d="M682.27,135.67a3.56,3.56,0,0,1,4.87,0Z" transform="translate(0 0)"/><path class="cls-3" d="M250.27,107.67c-6.44-.94-11-3.9-12-10.9a6.66,6.66,0,0,0,0-4.87c.59-4.41,3.24-7.83,7.25-8.48s8.94-1.18,11.9,3.39c1,1.55,2.15,3.12.41,4.87s-3.61,1.74-5.22,0c-1.83-2-4-2.76-6.17-1.31-1.7,1.13-2.1,3.28-1.77,5.36a5.72,5.72,0,0,0,4.81,5c7,1.65,12.78-1.8,16.58-10a6,6,0,0,0-.15-5.91c-3-7.59-9.15-10.73-16.66-12-1.12-.19-2.32,0-3.24-.91a5.74,5.74,0,0,0-5.75,0c-15.47,2.92-28,12.33-41.64,19.15-9.5,4.73-19.06,9.2-29.58,11.21-1.28.24-2.61.27-3.92.39a25.22,25.22,0,0,0-9.87,0,24.1,24.1,0,0,1-13.43-4.52c-1.75-1.18-3.23-2.58-1.84-4.9s3.39-1.89,5.19-.81c10.76,6.46,21.69,4.14,32.51.5,13.11-4.42,24.87-11.69,37-18.17,7.47-4,14.91-8,23.52-8.83a25,25,0,0,0,9.87,0c13.43,1.51,21.44,7.52,23.93,17.94a28.37,28.37,0,0,0,0,8.87c-2.13,9-8.19,13.46-16.93,14.93A6.76,6.76,0,0,0,250.27,107.67Z" transform="translate(0 0)"/><path class="cls-3" d="M272.29,45.91c-5.87,2.25-11.75.69-17.46-.42-9.32-1.82-18.52-4.3-27.76-6.5a27,27,0,0,0-12.73,0c-9.2,2.33-18.16,5.16-25.55,11.55-1.61,1.4-3.53,1.06-4.82-.65s-.77-3.45.9-4.77c8.09-6.4,17-10.87,27.42-12.1,1.55.79,3.21.38,4.8.36,1.83,0-.68-.34,0-.54a7.33,7.33,0,0,1,7.28,0,2.3,2.3,0,0,1-.37.33,5.2,5.2,0,0,1-1.37.27c.23.39.43,0,.64,0,1.63-.13,3.32.43,4.9-.37,10.53,1.55,20.8,4.24,31.1,6.83,1.24,1,2.56.61,3.87.18h6.12c1.3.37,2.61.93,3.82-.22,3.73-1.59,7.72-2.57,10.61-5.84,7-7.92,4.74-17.66-5.51-22.92a4.27,4.27,0,0,0-5,.07c-3.86,1.81-7.31,4.05-8,8.72-.76,5.39,3,8.34,7.83,6.06,2.36-1.1,4.2-1.29,5.51,1.08,1.46,2.65-.71,4.1-2.46,5.18a10.84,10.84,0,0,1-12.22-.21c-4.18-2.69-6.46-8.79-5.37-13.59,1.58-7,6-11.28,12.75-13.26a23.31,23.31,0,0,0,8.81,0c8,2.38,12.72,7.58,14,15.87a9.38,9.38,0,0,0,0,5.88c-2.06,10.56-8.52,16.72-18.94,18.91C273.24,45.19,273.24,45.19,272.29,45.91Z" transform="translate(0 0)"/><path class="cls-4" d="M313.08,34.06c9.56,2.32,14.65,10.27,12.18,19-.56-.44-.77-.9-.09-1.42-.61.2-.54.72-.53,1.19a8.27,8.27,0,0,0,.22,2.89c-2.69,6.75-7.86,10.41-14.77,12a7.06,7.06,0,0,0-4.17-.2,1.13,1.13,0,0,1,1.44.45c-6.58,1.92-13,.44-19.37-1a1.26,1.26,0,0,1,1.19-.53c-.1.66,1.12,0,.68.09-1.7-.18-3.17-.42-4.62.16-10.93-2.73-21.82-5.69-32.82-8.14-16.63-3.71-32-.55-45.91,9.36-.54.39-1.09.76-1.65,1.13-1.85,1.21-3.83,1.72-5.25-.39-1.2-1.77-.5-3.5,1.12-4.81,4.82-3.92,10-7.4,16-9,2.94-.77,5.4-2.92,8.58-2.77a6.78,6.78,0,0,0,2.93.3,2.67,2.67,0,0,0,1-.11c-.46,0-.93,0-1.19-.51a3.77,3.77,0,0,1,3.3-.71,71.79,71.79,0,0,0,15.85,0c1.47-.14,2.93-.24,4.17.8.84,1.31,1.86.42,2.82.24l39.22,9.72c1.52,1.26,3.15.48,4.75.24,4.93-.28,9.95.26,14.59-2.21,5-2.67,7.36-6.9,6.37-12.26-.61-3.33-2.41-5.95-5.89-6.61s-7.08-.59-9.37,2.86c-1.13,1.7-1.85,3.82-.23,5.51,1.4,1.46,2.92.6,4.37-.57s3.15-1.58,4.53.59.68,3.81-.8,5.32c-3.91,4-13.44,3.22-15.29-4.87a7.63,7.63,0,0,0-.06-4.84c1.18-6.69,5.56-9.86,11.92-10.87A7.7,7.7,0,0,0,313.08,34.06Z" transform="translate(0 0)"/><path class="cls-5" d="M216.93,47a4.14,4.14,0,0,1-3.11,3.52,118,118,0,0,0-32.67,16.77c-1.76,1.27-3.67,1.92-5.17-.35s-.44-3.87,1.62-5.36a122,122,0,0,1,33.11-17C214.22,43.44,216.9,44.56,216.93,47Z" transform="translate(0 0)"/><path class="cls-6" d="M247.14,51a31.86,31.86,0,0,1-15.85,0A72.41,72.41,0,0,1,247.14,51Z" transform="translate(0 0)"/><path class="cls-7" d="M214.34,39c4.16-2.23,8.55-.81,12.84-.78,0,0,.14.26.12.39a1.58,1.58,0,0,1-.23.42Z" transform="translate(0 0)"/><path class="cls-8" d="M248.14,66a11.93,11.93,0,0,1-9.87,0Z" transform="translate(0 0)"/><path class="cls-8" d="M217.08,32.81,219,33c-2.25.69-4.5,1.54-6.73,0Z" transform="translate(0 0)"/><path class="cls-8" d="M240.34,72c1.67-2.3,3.88-.77,5.87-.83a.61.61,0,0,1,.12.4,1.33,1.33,0,0,1-.24.41Z" transform="translate(0 0)"/><path class="cls-8" d="M228.16,33c-1.85,1.55-3.91.81-6,.66.56-1.12,1.51-.62,2.23-.84Z" transform="translate(0 0)"/><path class="cls-8" d="M263.13,40c-1.34.94-2.67,1.87-3.87-.18Z" transform="translate(0 0)"/><path class="cls-9" d="M228,51.75l1.22.5c-.14.19-.27.53-.42.54-1.21,0-2.51.38-3.49-.72Z" transform="translate(0 0)"/><path class="cls-10" d="M254.13,52.05c-1.07,1.14-2.41.83-3.71.66,0,0-.14-.58-.06-.63a4.17,4.17,0,0,1,.95-.27Z" transform="translate(0 0)"/><path class="cls-8" d="M238.35,91.9a3.53,3.53,0,0,1,0,4.87Z" transform="translate(0 0)"/><path class="cls-3" d="M1197.27,156.67c-6.44-.94-11-3.9-12-10.9a6.66,6.66,0,0,0,0-4.87c.59-4.41,3.24-7.83,7.25-8.48s8.94-1.18,11.9,3.39c1,1.55,2.15,3.12.41,4.87s-3.61,1.74-5.22,0c-1.83-2-4-2.76-6.17-1.31-1.7,1.13-2.1,3.28-1.77,5.36a5.72,5.72,0,0,0,4.81,5c7,1.65,12.78-1.8,16.58-10a6,6,0,0,0-.15-5.91c-3-7.59-9.15-10.73-16.66-12-1.12-.19-2.32,0-3.24-.91a5.74,5.74,0,0,0-5.75,0c-15.47,2.92-28,12.33-41.64,19.15-9.5,4.73-19.06,9.2-29.58,11.21-1.28.24-2.61.27-3.92.39a25.22,25.22,0,0,0-9.87,0,24.1,24.1,0,0,1-13.43-4.52c-1.75-1.18-3.23-2.58-1.84-4.9s3.39-1.89,5.19-.81c10.76,6.46,21.69,4.14,32.51.5,13.11-4.42,24.87-11.69,37-18.17,7.47-4,14.91-8,23.52-8.83a25,25,0,0,0,9.87,0c13.43,1.51,21.44,7.52,23.93,17.94a28.37,28.37,0,0,0,0,8.87c-2.13,9-8.19,13.46-16.93,14.93A6.76,6.76,0,0,0,1197.27,156.67Z" transform="translate(0 0)"/><path class="cls-3" d="M1219.29,94.91c-5.87,2.25-11.75.69-17.46-.42-9.32-1.82-18.52-4.3-27.76-6.5a27,27,0,0,0-12.73,0c-9.2,2.33-18.16,5.16-25.55,11.55-1.61,1.4-3.53,1.06-4.82-.65s-.77-3.45.9-4.77c8.09-6.4,17-10.87,27.42-12.1,1.55.79,3.21.38,4.8.36,1.83,0-.68-.34,0-.54a7.33,7.33,0,0,1,7.28,0,2.3,2.3,0,0,1-.37.33,5.2,5.2,0,0,1-1.37.27c.23.39.43,0,.64,0,1.63-.13,3.32.43,4.9-.37,10.53,1.55,20.8,4.24,31.1,6.83,1.24,1,2.56.61,3.87.18h6.12c1.3.37,2.61.93,3.82-.22,3.73-1.59,7.72-2.57,10.61-5.84,7-7.92,4.74-17.66-5.51-22.92a4.27,4.27,0,0,0-5,.07c-3.86,1.81-7.31,4-8,8.72-.76,5.39,3,8.34,7.83,6.06,2.36-1.1,4.2-1.29,5.51,1.08,1.46,2.65-.71,4.1-2.46,5.18a10.84,10.84,0,0,1-12.22-.21c-4.18-2.69-6.46-8.79-5.37-13.59,1.58-7,6-11.28,12.75-13.26a23.31,23.31,0,0,0,8.81,0c8,2.38,12.72,7.58,14,15.87a9.38,9.38,0,0,0,0,5.88c-2.06,10.56-8.52,16.72-18.94,18.91C1220.24,94.19,1220.24,94.19,1219.29,94.91Z" transform="translate(0 0)"/><path class="cls-4" d="M1260.08,83.06c9.56,2.32,14.65,10.27,12.18,19-.56-.44-.77-.9-.09-1.42-.61.2-.54.72-.53,1.19a8.27,8.27,0,0,0,.22,2.89c-2.69,6.75-7.86,10.41-14.77,12a7.06,7.06,0,0,0-4.17-.2,1.13,1.13,0,0,1,1.44.45c-6.58,1.92-13,.44-19.37-1a1.26,1.26,0,0,1,1.19-.53c-.1.66,1.12,0,.68.09-1.7-.18-3.17-.42-4.62.16-10.93-2.73-21.82-5.69-32.82-8.14-16.63-3.71-32-.55-45.91,9.36-.54.39-1.09.76-1.65,1.13-1.85,1.21-3.83,1.72-5.25-.39-1.2-1.77-.5-3.5,1.12-4.81,4.82-3.92,10-7.4,16-9,2.94-.77,5.4-2.92,8.58-2.77a6.78,6.78,0,0,0,2.93.3,2.67,2.67,0,0,0,1-.11c-.46,0-.93,0-1.19-.51a3.77,3.77,0,0,1,3.3-.71,71.79,71.79,0,0,0,15.85,0c1.47-.14,2.93-.24,4.17.8.84,1.31,1.86.42,2.82.24l39.22,9.72c1.52,1.26,3.15.48,4.75.24,4.93-.28,10,.26,14.59-2.21,5-2.67,7.36-6.9,6.37-12.26-.61-3.33-2.41-6-5.89-6.61s-7.08-.59-9.37,2.86c-1.13,1.7-1.85,3.82-.23,5.51,1.4,1.46,2.92.6,4.37-.57s3.15-1.58,4.53.59.68,3.81-.8,5.32c-3.91,4-13.44,3.22-15.29-4.87a7.63,7.63,0,0,0-.06-4.84c1.18-6.69,5.56-9.86,11.92-10.87A7.7,7.7,0,0,0,1260.08,83.06Z" transform="translate(0 0)"/><path class="cls-5" d="M1163.93,96a4.14,4.14,0,0,1-3.11,3.52,118,118,0,0,0-32.67,16.77c-1.76,1.27-3.67,1.92-5.17-.35s-.44-3.87,1.62-5.36a122,122,0,0,1,33.11-17C1161.22,92.44,1163.9,93.56,1163.93,96Z" transform="translate(0 0)"/><path class="cls-6" d="M1194.14,100a31.86,31.86,0,0,1-15.85,0A72.41,72.41,0,0,1,1194.14,100Z" transform="translate(0 0)"/><path class="cls-7" d="M1161.34,88c4.16-2.23,8.55-.81,12.84-.78,0,0,.14.26.12.39a1.58,1.58,0,0,1-.23.42Z" transform="translate(0 0)"/><path class="cls-8" d="M1195.14,115a11.93,11.93,0,0,1-9.87,0Z" transform="translate(0 0)"/><path class="cls-8" d="M1164.08,81.81l1.94.2c-2.25.69-4.5,1.54-6.73,0Z" transform="translate(0 0)"/><path class="cls-8" d="M1187.34,121c1.67-2.3,3.88-.77,5.87-.83a.61.61,0,0,1,.12.4,1.33,1.33,0,0,1-.24.41Z" transform="translate(0 0)"/><path class="cls-8" d="M1175.16,82c-1.85,1.55-3.91.81-6,.66.56-1.12,1.51-.62,2.23-.84Z" transform="translate(0 0)"/><path class="cls-8" d="M1210.13,89c-1.34.94-2.67,1.87-3.87-.18Z" transform="translate(0 0)"/><path class="cls-9" d="M1175,100.75l1.22.5c-.14.19-.27.53-.42.54-1.21,0-2.51.38-3.49-.72Z" transform="translate(0 0)"/><path class="cls-10" d="M1201.13,101.05c-1.07,1.14-2.41.83-3.71.66-.05,0-.14-.58-.06-.63a4.17,4.17,0,0,1,1-.27Z" transform="translate(0 0)"/><path class="cls-8" d="M1185.35,140.9a3.53,3.53,0,0,1,0,4.87Z" transform="translate(0 0)"/><path class="cls-8" d="M1197.27,156.67a3.56,3.56,0,0,1,4.87,0Z" transform="translate(0 0)"/></g><g id="Tree"><path class="cls-11" d="M92.76,111.75c-5.25-.18-7.92-2-6-7.94.63-2-.73-4.61-1.21-7.11L74,92.06l1.9-2.37-6.12-4.48,11.86-.85C77.67,81.55,70.82,86.29,69.1,77l10.74,5.46-1.69-4.07,3.95-.55-2.91-2.74,3.63.63a23,23,0,0,0-1.9-4.44c-.69-1-2-1.5-3-2.23a14.85,14.85,0,0,0-.32,4c.14.83,1.16,1.51,1.79,2.26-4.21,1.4-8.69-1.68-12.85.78-.5.3-1.3.12-1.78.43-5,3.21-5.22,3.16-8.89-2.23h7.07l-.77-4.14,8.65,2.2.65-1.09-4.51-5.2,2.71-1.29L66.51,57l7.28,4,1-3.63c4.28.23,3.32,9.82,10.42,5.35a27.75,27.75,0,0,0-2.07,4.11,10.07,10.07,0,0,0,.11,3.26L88,65q3.49,7.36,7,14.74c1.1-8.26-.85-12.3-7.08-14.64l-.16-4.67-.07.13,3.58-4.76q2.31,5.37,4.63,10.73l2.19-1c-1.61-3.24-3.22-6.48-4.93-9.94l-2,.31c-.66-.9-1.18-2.47-2-2.62-5.49-1-4.36-4.81-3.63-9.72l4.5,6.21,2.82-2.46,3.73,8.55,1-.46c.48-2.06,1-4.12,1.42-6.14l5.19,4.9L104,54l4.28,10.24,3.88-2.68V71.75l.82.07,2.86-9.28c-4.13-3.58-3.61-5.92,2-8.76l.26,5.7,3.73-.89c-.68-2.77-1.26-5.18-1.85-7.6l4.87,1.66c-3-6.14-6.08-12.33-9.66-19.58,7.43,2.35,7.6,8.53,10.32,12.8,2.81,4.43,5.86,8.72,8.8,13.06l1.38-.59c-.36-1.35-.29-3.17-1.16-4-3.17-3-2.19-5.71-.23-8.71s.3-6.21-3.63-6.43c.42,1.65,1.13,3.19,1.1,4.71,0,1.32-.9,2.63-1.46,4.11-3.23-1.71-3.64-3.64-2.35-6.39,1.1-2.36,2-4.75-2.48-4.77-.92,0-1.83-2.73-2.74-4.21l1.16-1,6.35,1.73,3.69-6.9,1.76.41-1.17,10.24,2.79,1.11L139,33.12l1.69-.88,2.46,4,.73,1.36c.26,1.34.52,2.68.75,4-1.34.71-3.55,1.21-3.8,2.21-.54,2.15-.07,4.55,0,6.85l1.67,0q1.05-4.56,2.08-9.12l3.3,1.77c.73-3,1.38-5.77,2.27-9.48,2.55,3.58,3,5.9,1.8,9.34-.87,2.43.59,5.69,2,8.86l2.85-5.64,1.44-.21,2.56,14.29,7.52-8.54,2.61,5.17,4.78-1.86c-.34,3.26-.66,6.33-1.13,10.9l4.29-4.82c-.62-1.91-2-4.1-1.42-4.75,1.38-1.67,3.59-2.66,5.65-4-.81,4.85-1.22,8.84-2.27,12.66-.33,1.19-2.37,1.92-3.65,2.83s-2.51,1.76-4.09,2.87L169.9,67l-4.63,3.87c-.44-.58-1.39-1.4-1.25-1.7a38.61,38.61,0,0,1,3.21-5.67,14.42,14.42,0,0,1,2.87-2.33l-3-1.39c-6.79,3.76-4.58,9.54-3.86,15.37l5.59-2.74,1.29.52c-.85,2.4-1.63,4.83-2.68,7.14-.08.18-2-.45-4.5-1.06,1.69,1.48,2.82,3.07,3.44,2.89,1.83-.52,4.64-1.43,5-2.74,1.93-7.31,1.72-7.37,8.61-6.32a6.11,6.11,0,0,1,1.34.55l-.1-.13-3.78,4.25,8.16.9-.14-.1-3.24,2.86.16-.17c-2.21,1.49-4.3,3.25-7.05.72-.4-.36-2,.6-2.86,1.88l3.69.39c0,.4.17.8,0,.91-1.07,1-2.24,2.81-3.28,2.74-6.11-.36-6.29,4.51-7.95,7.58L168.27,98c2-2.11,3.74-5.34,6.42-6.51s6.22-.26,9.38-.26l.4,1.55-9.67,3.07L175,97l14.5-2.12.64,1.79c-2.79,1.17-5.76,3.59-8.32,3.22-4.13-.6-5.34,1.17-6.33,4.24l.14.3c-3.22.94-6.23,2.09-6.11,6.66l4.55-1c.06,1,.1,1.88.16,3.17,3-1.13,6.67-.7,6.59-5.51,0-.6,2.89-1.53,4.52-1.8,1.22-.2,2.58.42,4.87.86-4.15-3.64-3.78-4.71-.33-7.22,1.7-1.23,3.61-4.09,3.3-5.82-1.24-6.85,3.76-5.48,8.34-6.82l-5.34,6.65,3.45,1.45-6.81,4.49,2,2.23,5.94.62-15,10.48c1.09,1.5,2.17,3,3.55,4.92H178.1l-13.76,2.59c-1.61.9-3.25,2.61-4.83,2.55-3-.11-6-1.23-9.16-2v3.88c-1.34-.75-2.45-1.29-3.46-2-3.61-2.41-7.76-.51-7.71,3.92.16,17.12.52,34.25.93,51.37.1,3.9,1.42,6.37,6.27,7a40.32,40.32,0,0,1,22.13,10.61l-18.11-4-.3.82,6.82,5.63c-3.09-.35-4.78-.42-6.42-.75-6.48-1.28-12.94-3.54-19.44-3.62-3.69,0-7.42,3.44-11.14,5.32a8.17,8.17,0,0,1-1.26.32l.84-4.42-24.81,3.09c1.48-4.74,4.87-7.21,9.54-8.14a73.59,73.59,0,0,1,7.43-.95c6.44-.63,10.32-4.44,10.29-10.92,0-11.78-.43-23.56-.62-35.35-.08-5,0-10,0-15.93-4-.57-8.48-1.36-13-1.8-5-.49-10-.74-14.94-.89a9.38,9.38,0,0,0-3.87,1.12c-2.37,1.06-4.67,2.3-7,3.46l-.87-1.56L86,122.36H76.08l3.34,4.27c-3.19,0-5.17-.09-7.12,0a9.6,9.6,0,0,0-2.52.92h.1l-9.19-.71,0-1.9,12.09-2.16-6.89-4.71v6l-8.09-4.9.67-2,20.59,1.24.48-.47a57.32,57.32,0,0,1-6.85-3c-2-1.19-3.75-2.91-6.29-5l3.16-1.26c-1.94-2.7-3.75-5.23-5.57-7.75l1.51-1.41,7,5.59,4.3-1.82v.1l4.4,7.92,2.84,5c2.78-.89,5.51-1.7,8.15-2.72.36-.14.31-1.34.43-2.07a63.59,63.59,0,0,0,1.89-7.13,5.18,5.18,0,0,0-1.29-3.35c-.22-.3-2,0-2.47.6-.68.9-1.34,2.39-1,3.34A50.25,50.25,0,0,0,92.76,111.75ZM146.59,96l-.11-1.18a34.19,34.19,0,0,1,6.08.14c.52.1,1.13,2.84,1,2.89-5.71,2.69-1.42,5.56-.47,9l5-2.92c-4-8.09-1.62-14.1,5.85-15.24l.94-4.28L138,97.73l7,.52-10.45,8,4,5.57L149.44,98Zm8.39-32c-1,1.33-1.95,2.64-3,4.1-1.31-1.81-2.25-3.08-3.1-4.26L141.4,69l3.38,12.77,5.42-4.23c-.25,3.8.72,8.27-2.89,8-4.45-.3-3.87,2.21-5.12,4.46,7.5-.25,11.67-7.52,11.41-15.54h-4.32c-.36-5,3-5.7,6.37-6.41l1.89,3.43C160.5,67.36,157.4,65.79,155,63.92Zm-36.23,21.9c-6.19,2.63-4-3.57-5.19-6.72l-4.09.27c1.35,5.26,2.59,10.06,4.27,16.65,6.4,5.81,7.73,6.08,11.5,2.4ZM102,116.72l6.3-5.59,1,.64-1.61,7,1.43.35.85-4.53,4.51-3c1.11,1.49,2.37,3,3.41,4.64a46.14,46.14,0,0,1,2.16,4.27l1.28-.64c-.6-1.49-1.64-2.94-1.73-4.46-.39-6.08-2.82-7.72-8.77-5.67a9.69,9.69,0,0,1-2.43.24l-8.52.67-2.35-4.92v9.12Zm31.88-41.59c-.79-3.25-1.48-6.12-2.22-9.2l-3.54,2.87c-3.25-4,4.62-8.23-1.15-11.92-2.88,3.67-2.68,7.84-1.56,11.87.87,3.15,2.58,6.07,3.85,9l2.43-3.92ZM95.51,87.74c2.86-3.32,2.79-3.84-2.43-6.11-2.38-1-4.84-1.88-7.26-2.81l-1.43,1.7Zm50.48-30-.65-1.59c-2,.55-4.35.72-6,1.86-.57.39.49,3.16,1.07,6.23C143.05,61.2,144.52,59.49,146,57.78ZM99.27,88.69C97.15,96,97.15,96,98.94,97.37,99.32,94.5,103.32,92.21,99.27,88.69Z" transform="translate(0 0)"/><path class="cls-11" d="M311.68,111.73c-5.24-.18-7.92-2-6-7.94.64-2-.72-4.62-1.2-7.11L292.88,92l1.9-2.37-6.12-4.48,11.86-.86C296.6,81.53,289.75,86.27,288,77l10.74,5.45-1.69-4.06,3.95-.55-2.91-2.74,3.63.63a23,23,0,0,0-1.9-4.44c-.69-1-2-1.5-3-2.23a15.29,15.29,0,0,0-.33,4c.14.83,1.17,1.51,1.79,2.26-4.2,1.4-8.68-1.68-12.84.78-.5.3-1.3.12-1.79.43-4.95,3.21-5.21,3.16-8.88-2.23h7.07l-.77-4.14,8.64,2.2.66-1.09L285.86,66l2.7-1.29c-.87-2.17-1.74-4.34-3.12-7.8l7.27,4,1-3.63c4.28.23,3.32,9.82,10.42,5.35a26.82,26.82,0,0,0-2.07,4.11,10,10,0,0,0,.1,3.25c2.06-2.18,3.42-3.64,4.79-5.1q3.5,7.36,7,14.74c1.1-8.26-.86-12.3-7.08-14.65l-.16-4.66-.07.13,3.58-4.76,4.62,10.73,2.2-1-4.93-9.94-2,.31c-.65-.91-1.18-2.47-2-2.62-5.49-1-4.36-4.81-3.63-9.72L309,49.72l2.83-2.46,3.72,8.55,1-.46c.47-2.06,1-4.12,1.41-6.14l5.2,4.9-.25-.18,4.28,10.25L331,61.5V71.73l.82.07,2.85-9.28c-4.12-3.58-3.6-5.92,2.06-8.76l.25,5.7,3.73-.89c-.67-2.77-1.25-5.19-1.84-7.6l4.87,1.65c-3-6.13-6.08-12.32-9.66-19.58,7.43,2.36,7.59,8.53,10.31,12.81s5.86,8.71,8.81,13.06l1.38-.59c-.37-1.36-.3-3.17-1.16-4-3.17-3-2.19-5.71-.23-8.71s.29-6.21-3.63-6.43c.42,1.65,1.13,3.19,1.09,4.71,0,1.32-.89,2.63-1.45,4.11-3.23-1.71-3.64-3.64-2.36-6.4,1.11-2.35,2-4.74-2.47-4.76-.92,0-1.83-2.73-2.74-4.21l1.15-1,6.35,1.74,3.69-6.9,1.77.41-1.17,10.24,2.79,1.11,1.64-5.17,1.69-.88,2.46,4,.73,1.36c.26,1.33.51,2.67.75,4-1.34.71-3.56,1.22-3.81,2.22-.54,2.15-.06,4.55,0,6.85l1.68,0c.69-3,1.39-6.08,2.08-9.12l3.3,1.76c.72-3,1.38-5.76,2.27-9.47,2.55,3.57,3,5.9,1.8,9.34-.87,2.42.58,5.69,1.95,8.85l2.86-5.63,1.44-.22,2.56,14.3,7.52-8.54,2.61,5.17,4.77-1.86c-.33,3.26-.65,6.33-1.12,10.89l4.28-4.81c-.62-1.91-1.95-4.1-1.41-4.75,1.38-1.67,3.59-2.67,5.65-4.05-.81,4.85-1.22,8.84-2.27,12.66-.33,1.19-2.37,1.92-3.65,2.83s-2.51,1.76-4.09,2.86L388.83,67l-4.63,3.87c-.44-.58-1.39-1.4-1.25-1.7a38.61,38.61,0,0,1,3.21-5.67A14.7,14.7,0,0,1,389,61.16l-3-1.39c-6.78,3.77-4.57,9.55-3.86,15.37l5.6-2.74,1.29.53c-.85,2.4-1.63,4.83-2.68,7.14-.08.18-2-.45-4.5-1.06,1.69,1.48,2.81,3.07,3.44,2.89,1.83-.52,4.64-1.43,5-2.74,1.92-7.31,1.72-7.37,8.6-6.32a5.74,5.74,0,0,1,1.34.55l-.1-.14-3.78,4.26,8.16.9-.13-.11-3.24,2.87.16-.17c-2.21,1.49-4.3,3.25-7.06.72-.4-.36-2,.6-2.86,1.88l3.7.39c0,.39.17.8,0,.91-1.06,1-2.23,2.8-3.27,2.74-6.11-.37-6.29,4.51-7.95,7.58L387.2,98c2-2.11,3.74-5.34,6.41-6.51s6.22-.26,9.39-.26l.4,1.55-9.67,3.07.18,1.15,14.5-2.12.63,1.79c-2.78,1.17-5.75,3.59-8.31,3.22-4.13-.6-5.34,1.17-6.33,4.24l.14.3c-3.22.94-6.23,2.09-6.11,6.66l4.55-1c0,1,.1,1.88.16,3.17,3-1.13,6.67-.7,6.59-5.51,0-.61,2.88-1.53,4.51-1.8,1.23-.2,2.59.42,4.88.86-4.15-3.64-3.78-4.72-.33-7.22,1.69-1.23,3.61-4.09,3.29-5.82-1.23-6.85,3.77-5.48,8.35-6.82l-5.34,6.65L418.54,95l-6.81,4.49,2,2.22,5.95.63c-5.49,3.84-10.05,7-15,10.48,1.08,1.5,2.17,3,3.54,4.92H397l-13.76,2.58c-1.61.91-3.25,2.62-4.83,2.56-3-.12-6-1.23-9.16-2v3.88c-1.34-.76-2.45-1.3-3.46-2-3.61-2.42-7.76-.51-7.72,3.92.17,17.12.53,34.25.94,51.37.09,3.9,1.42,6.36,6.27,7a40.26,40.26,0,0,1,22.13,10.61l-18.11-4-.3.82,6.82,5.63c-3.09-.35-4.78-.42-6.42-.75-6.49-1.28-12.95-3.54-19.44-3.62-3.69,0-7.42,3.44-11.14,5.32a9.65,9.65,0,0,1-1.26.32l.84-4.42-24.81,3.09c1.48-4.74,4.87-7.21,9.54-8.14a73.59,73.59,0,0,1,7.43-1c6.44-.64,10.31-4.44,10.29-10.92,0-11.78-.44-23.56-.62-35.35-.08-5,0-10,0-15.94-4-.56-8.48-1.35-13-1.8-5-.48-10-.74-14.94-.88a9.42,9.42,0,0,0-3.88,1.12c-2.37,1.06-4.66,2.3-7,3.46l-.87-1.57,4.37-4.85H295l3.34,4.27c-3.2,0-5.17-.1-7.13,0a9.66,9.66,0,0,0-2.51.92h.1l-9.2-.71,0-1.9,12.09-2.16-6.89-4.71v6l-8.09-4.91.67-2L298,118.42l.47-.48a55.55,55.55,0,0,1-6.84-3c-2-1.19-3.75-2.92-6.29-5l3.16-1.27L282.94,101l1.5-1.4,7,5.59,4.31-1.82v.1q2.19,4,4.4,7.92l2.84,5c2.78-.9,5.5-1.7,8.15-2.72.36-.14.31-1.34.43-2.07a65.81,65.81,0,0,0,1.89-7.13,5.18,5.18,0,0,0-1.29-3.35c-.22-.3-2.05,0-2.47.6-.68.9-1.34,2.39-1,3.33A51,51,0,0,0,311.68,111.73Zm53.84-15.8-.11-1.18a34.19,34.19,0,0,1,6.08.14c.52.1,1.13,2.83,1,2.89-5.71,2.69-1.43,5.56-.47,9l5-2.92c-4-8.09-1.63-14.1,5.84-15.24l.95-4.28L357,97.71l7,.52-10.45,8,4,5.57L368.37,98Zm8.39-32c-1,1.33-2,2.64-3,4.1l-3.1-4.26L360.32,69c1,3.65,2.14,8,3.39,12.77l5.41-4.24c-.24,3.81.73,8.28-2.88,8-4.46-.3-3.87,2.21-5.12,4.46,7.5-.25,11.67-7.52,11.41-15.54H368.2c-.35-5,3-5.7,6.37-6.41l1.89,3.43C379.43,67.34,376.33,65.77,373.91,63.9ZM337.68,85.8c-6.2,2.63-4-3.57-5.19-6.72l-4.09.26L332.67,96c6.4,5.82,7.73,6.09,11.5,2.41Zm-16.77,30.9,6.3-5.59,1,.64-1.61,7,1.43.34.84-4.52,4.52-3c1.11,1.49,2.36,3,3.41,4.63a46.24,46.24,0,0,1,2.15,4.28l1.29-.64c-.6-1.49-1.64-2.94-1.74-4.46-.39-6.08-2.81-7.72-8.76-5.67a9.74,9.74,0,0,1-2.43.24l-8.52.67-2.35-4.92v9.12Zm31.88-41.59-2.21-9.2L347,68.78c-3.24-4,4.62-8.23-1.14-11.92-2.89,3.67-2.68,7.84-1.56,11.87.87,3.15,2.57,6.07,3.85,9l2.42-3.92Zm-38.35,12.6c2.86-3.31,2.78-3.83-2.43-6.1-2.38-1-4.84-1.88-7.26-2.81l-1.43,1.7Zm50.48-29.95-.65-1.59c-2,.55-4.35.72-6,1.85-.57.4.49,3.16,1.07,6.24C362,61.18,363.45,59.47,364.92,57.76ZM318.2,88.67c-2.12,7.33-2.12,7.33-.33,8.68C318.25,94.48,322.25,92.18,318.2,88.67Z" transform="translate(0 0)"/><path class="cls-11" d="M514.88,110.73c-5.24-.18-7.92-2-6-7.94.64-2-.72-4.62-1.2-7.11L496.08,91l1.9-2.37-6.12-4.48,11.86-.86C499.8,80.53,493,85.27,491.23,76L502,81.46l-1.69-4.06,4-.55-2.91-2.74,3.63.63a23,23,0,0,0-1.9-4.44c-.69-1-2-1.5-3-2.23a15.29,15.29,0,0,0-.33,4c.14.83,1.17,1.51,1.79,2.26-4.2,1.4-8.68-1.68-12.84.78-.5.3-1.3.12-1.79.43-5,3.21-5.21,3.16-8.88-2.23H485l-.77-4.14,8.64,2.2.66-1.09L489.06,65l2.7-1.29c-.87-2.17-1.74-4.34-3.12-7.8l7.27,4,1-3.63c4.28.23,3.32,9.82,10.42,5.35a26.82,26.82,0,0,0-2.07,4.11,10,10,0,0,0,.1,3.25c2.06-2.18,3.42-3.64,4.79-5.1q3.49,7.37,7,14.74c1.1-8.26-.86-12.3-7.08-14.65l-.16-4.66-.07.13,3.58-4.76L518,65.46l2.2-1-4.93-9.94-2,.31c-.65-.91-1.18-2.47-2-2.62-5.49-1-4.36-4.81-3.63-9.72l4.49,6.21L515,46.26l3.72,8.55,1-.46c.47-2.06.95-4.12,1.41-6.14l5.2,4.9-.25-.18,4.28,10.25,3.88-2.68V70.73l.82.07,2.85-9.28c-4.12-3.58-3.6-5.92,2.06-8.76l.25,5.7,3.73-.89c-.67-2.77-1.25-5.19-1.84-7.6L547,51.62c-3-6.13-6.08-12.32-9.66-19.58,7.43,2.36,7.59,8.53,10.31,12.81s5.86,8.71,8.81,13.06l1.38-.59c-.37-1.36-.3-3.17-1.16-4-3.17-3-2.19-5.71-.23-8.71s.29-6.21-3.63-6.43c.42,1.65,1.13,3.19,1.09,4.71,0,1.32-.89,2.63-1.45,4.11-3.23-1.71-3.64-3.64-2.36-6.4,1.11-2.35,2-4.74-2.47-4.76-.92,0-1.83-2.73-2.74-4.21l1.15-1,6.35,1.74,3.69-6.9,1.77.41-1.17,10.24,2.79,1.11,1.64-5.17,1.69-.88,2.46,4,.73,1.36c.26,1.33.51,2.67.75,4-1.34.71-3.56,1.22-3.81,2.22-.54,2.15-.06,4.55,0,6.85l1.68,0c.69-3,1.39-6.08,2.08-9.12l3.3,1.76c.72-3,1.38-5.76,2.27-9.47,2.55,3.57,3,5.9,1.8,9.34-.87,2.42.58,5.69,2,8.85l2.86-5.63,1.44-.22,2.56,14.3,7.52-8.54L593,56.06l4.77-1.86c-.33,3.26-.65,6.33-1.12,10.89l4.28-4.81c-.62-1.91-1.95-4.1-1.41-4.75,1.38-1.67,3.59-2.67,5.65-4.05-.81,4.85-1.22,8.84-2.27,12.66-.33,1.19-2.37,1.92-3.65,2.83s-2.51,1.76-4.09,2.86L592,66l-4.63,3.87c-.44-.58-1.39-1.4-1.25-1.7a38.61,38.61,0,0,1,3.21-5.67,14.7,14.7,0,0,1,2.86-2.34l-3-1.39c-6.78,3.77-4.57,9.55-3.86,15.37l5.6-2.74,1.29.53c-.85,2.4-1.63,4.83-2.68,7.14-.08.18-2-.45-4.5-1.06,1.69,1.48,2.81,3.07,3.44,2.89,1.83-.52,4.64-1.43,5-2.74,1.92-7.31,1.72-7.37,8.6-6.32a5.74,5.74,0,0,1,1.34.55l-.1-.14-3.78,4.26,8.16.9-.13-.11-3.24,2.87.16-.17c-2.21,1.49-4.3,3.25-7.06.72-.4-.36-2,.6-2.86,1.88l3.7.39c0,.39.17.8,0,.91-1.06,1-2.23,2.8-3.27,2.74-6.11-.37-6.29,4.51-7.95,7.58L590.4,97c2-2.11,3.74-5.34,6.41-6.51s6.22-.26,9.39-.26l.4,1.55-9.67,3.07.18,1.15,14.5-2.12.63,1.79c-2.78,1.17-5.75,3.59-8.31,3.22-4.13-.6-5.34,1.17-6.33,4.24l.14.3c-3.22.94-6.23,2.09-6.11,6.66l4.55-1c.05,1,.1,1.88.16,3.17,3-1.13,6.67-.7,6.59-5.51,0-.61,2.88-1.53,4.51-1.8,1.23-.2,2.59.42,4.88.86-4.15-3.64-3.78-4.72-.33-7.22,1.69-1.23,3.61-4.09,3.29-5.82-1.23-6.85,3.77-5.48,8.35-6.82l-5.34,6.65L621.74,94l-6.81,4.49,2,2.22,5.95.63c-5.49,3.84-10,7-15,10.48,1.08,1.5,2.17,3,3.54,4.92H600.23l-13.76,2.58c-1.61.91-3.25,2.62-4.83,2.56-3-.12-6-1.23-9.16-2v3.88c-1.34-.76-2.45-1.3-3.46-2-3.61-2.42-7.76-.51-7.72,3.92.17,17.12.53,34.25.94,51.37.09,3.9,1.42,6.36,6.27,7a40.26,40.26,0,0,1,22.13,10.61l-18.11-4-.3.82,6.82,5.63c-3.09-.35-4.78-.42-6.42-.75-6.49-1.28-13-3.54-19.44-3.62-3.69,0-7.42,3.44-11.14,5.32a9.65,9.65,0,0,1-1.26.32l.84-4.42-24.81,3.09c1.48-4.74,4.87-7.21,9.54-8.14a73.59,73.59,0,0,1,7.43-1c6.44-.64,10.31-4.44,10.29-10.92,0-11.78-.44-23.56-.62-35.35-.08-5,0-10,0-15.94-4-.56-8.48-1.35-13-1.8-5-.48-9.95-.74-14.94-.88a9.42,9.42,0,0,0-3.88,1.12c-2.37,1.06-4.66,2.3-7,3.46l-.87-1.57,4.37-4.85h-9.91l3.34,4.27c-3.2,0-5.17-.1-7.13,0a9.66,9.66,0,0,0-2.51.92h.1l-9.2-.71,0-1.9,12.09-2.16L488,117.08v6L480,118.19l.67-2,20.59,1.24.47-.48a55.55,55.55,0,0,1-6.84-3c-2-1.19-3.75-2.92-6.29-5l3.16-1.27L486.14,100l1.5-1.4,7,5.59,4.31-1.82v.1q2.19,4,4.4,7.92l2.84,5c2.78-.9,5.5-1.7,8.15-2.72.36-.14.31-1.34.43-2.07a65.81,65.81,0,0,0,1.89-7.13,5.18,5.18,0,0,0-1.29-3.35c-.22-.3-2,0-2.47.6-.68.9-1.34,2.39-1,3.33A51,51,0,0,0,514.88,110.73Zm53.84-15.8-.11-1.18a34.19,34.19,0,0,1,6.08.14c.52.1,1.13,2.83,1,2.89-5.71,2.69-1.43,5.56-.47,9l5-2.92c-4-8.09-1.63-14.1,5.84-15.24l.95-4.28-26.87,13.4,7,.52-10.45,8,4,5.57L571.57,97Zm8.39-32c-1,1.33-2,2.64-3,4.1L571,62.74,563.52,68c1,3.65,2.14,8,3.39,12.77l5.41-4.24c-.24,3.81.73,8.28-2.88,8-4.46-.3-3.87,2.21-5.12,4.46,7.5-.25,11.67-7.52,11.41-15.54H571.4c-.35-5,3-5.7,6.37-6.41l1.89,3.43C582.63,66.34,579.53,64.77,577.11,62.9ZM540.88,84.8c-6.2,2.63-4-3.57-5.19-6.72l-4.09.26L535.87,95c6.4,5.82,7.73,6.09,11.5,2.41Zm-16.77,30.9,6.3-5.59,1,.64-1.61,7,1.43.34.84-4.52,4.52-3c1.11,1.49,2.36,3,3.41,4.63a46.24,46.24,0,0,1,2.15,4.28l1.29-.64c-.6-1.49-1.64-2.94-1.74-4.46-.39-6.08-2.81-7.72-8.76-5.67a9.74,9.74,0,0,1-2.43.24l-8.52.67-2.35-4.92v9.12ZM556,74.11l-2.21-9.2-3.55,2.87c-3.24-4,4.62-8.23-1.14-11.92-2.89,3.67-2.68,7.84-1.56,11.87.87,3.15,2.57,6.07,3.85,9l2.42-3.92Zm-38.35,12.6c2.86-3.31,2.78-3.83-2.43-6.1-2.38-1-4.84-1.88-7.26-2.81l-1.43,1.7Zm50.48-29.95-.65-1.59c-2,.55-4.35.72-6,1.85-.57.4.49,3.16,1.07,6.24C565.18,60.18,566.65,58.47,568.12,56.76ZM521.4,87.67c-2.12,7.33-2.12,7.33-.33,8.68C521.45,93.48,525.45,91.18,521.4,87.67Z" transform="translate(0 0)"/><path class="cls-11" d="M752.28,109.53c-5.24-.18-7.92-2-6-7.94.64-2-.72-4.62-1.2-7.11l-11.58-4.64,1.9-2.37L729.26,83l11.86-.86c-3.92-2.8-10.77,1.94-12.49-7.32l10.74,5.45-1.69-4.06,4-.55-2.91-2.74,3.63.63a23,23,0,0,0-1.9-4.44c-.69-1-2-1.5-3-2.23a15.29,15.29,0,0,0-.33,3.95c.14.83,1.17,1.51,1.79,2.26-4.2,1.4-8.68-1.68-12.84.78-.5.3-1.3.12-1.79.43-5,3.21-5.21,3.16-8.88-2.23h7.07l-.77-4.14,8.64,2.2L731,69l-4.51-5.2,2.7-1.29c-.87-2.17-1.74-4.34-3.12-7.8l7.27,4,1-3.63c4.28.23,3.32,9.82,10.42,5.35a26.82,26.82,0,0,0-2.07,4.11,10,10,0,0,0,.1,3.25c2.06-2.18,3.42-3.64,4.79-5.1q3.49,7.37,7,14.74c1.1-8.26-.86-12.3-7.08-14.65l-.16-4.66-.07.13,3.58-4.76,4.62,10.73,2.2-1-4.93-9.94-2,.31c-.65-.91-1.18-2.47-2-2.62-5.49-1.05-4.36-4.81-3.63-9.72l4.49,6.21,2.83-2.46,3.72,8.55,1-.46c.47-2.06,1-4.12,1.41-6.14l5.2,4.9-.25-.18L767.76,62l3.88-2.68V69.53l.82.07,2.85-9.28c-4.12-3.58-3.6-5.92,2.06-8.76l.25,5.7,3.73-.89c-.67-2.77-1.25-5.19-1.84-7.6l4.87,1.65c-3-6.13-6.08-12.32-9.66-19.58,7.43,2.36,7.59,8.53,10.31,12.81s5.86,8.71,8.81,13.06l1.38-.59c-.37-1.36-.3-3.17-1.16-4-3.17-3-2.19-5.71-.23-8.71s.29-6.21-3.63-6.43c.42,1.65,1.13,3.19,1.09,4.71,0,1.32-.89,2.63-1.45,4.11-3.23-1.71-3.64-3.64-2.36-6.4,1.11-2.35,2-4.74-2.47-4.76-.92,0-1.83-2.73-2.74-4.21l1.15-1,6.35,1.74,3.69-6.9,1.77.41L794.06,35l2.79,1.11,1.64-5.17,1.69-.88,2.46,4,.73,1.36c.26,1.33.51,2.67.75,4-1.34.71-3.56,1.22-3.81,2.22-.54,2.15-.06,4.55,0,6.85l1.68,0c.69-3,1.39-6.08,2.08-9.12l3.3,1.76c.72-3,1.38-5.76,2.27-9.47,2.55,3.57,3,5.9,1.8,9.34-.87,2.42.58,5.69,2,8.85l2.86-5.63,1.44-.22,2.56,14.3,7.52-8.54,2.61,5.17L835.14,53c-.33,3.26-.65,6.33-1.12,10.89l4.28-4.81c-.62-1.91-1.95-4.1-1.41-4.75,1.38-1.67,3.59-2.67,5.65-4-.81,4.85-1.22,8.84-2.27,12.66-.33,1.19-2.37,1.92-3.65,2.83s-2.51,1.76-4.09,2.86l-3.1-3.83-4.63,3.87c-.44-.58-1.39-1.4-1.25-1.7a38.61,38.61,0,0,1,3.21-5.67A14.7,14.7,0,0,1,829.62,59l-3-1.39c-6.78,3.77-4.57,9.55-3.86,15.37l5.6-2.74,1.29.53c-.85,2.4-1.63,4.83-2.68,7.14-.08.18-2-.45-4.5-1.06,1.69,1.48,2.81,3.07,3.44,2.89,1.83-.52,4.64-1.43,5-2.74,1.92-7.31,1.72-7.37,8.6-6.32a5.74,5.74,0,0,1,1.34.55l-.1-.14-3.78,4.26,8.16.9L845,76.1,841.71,79l.16-.17c-2.21,1.49-4.3,3.25-7.06.72-.4-.36-2,.6-2.86,1.88l3.7.39c0,.39.17.8,0,.91-1.06,1-2.23,2.8-3.27,2.74-6.11-.37-6.29,4.51-7.95,7.58l3.33,2.74c2-2.11,3.74-5.34,6.41-6.51s6.22-.26,9.39-.26l.4,1.55-9.67,3.07.18,1.15L849,92.64l.63,1.79c-2.78,1.17-5.75,3.59-8.31,3.22-4.13-.6-5.34,1.17-6.33,4.24l.14.3c-3.22.94-6.23,2.09-6.11,6.66l4.55-1c0,1,.1,1.88.16,3.17,3-1.13,6.67-.7,6.59-5.51,0-.61,2.88-1.53,4.51-1.8,1.23-.2,2.59.42,4.88.86-4.15-3.64-3.78-4.72-.33-7.22,1.69-1.23,3.61-4.09,3.29-5.82-1.23-6.85,3.77-5.48,8.35-6.82l-5.34,6.65,3.45,1.45-6.81,4.49,2,2.22,5.95.63c-5.49,3.84-10,7-15,10.48,1.08,1.5,2.17,3,3.54,4.92H837.63l-13.76,2.58c-1.61.91-3.25,2.62-4.83,2.56-3-.12-6-1.23-9.16-2v3.88c-1.34-.76-2.45-1.3-3.46-2-3.61-2.42-7.76-.51-7.72,3.92.17,17.12.53,34.25.94,51.37.09,3.9,1.42,6.36,6.27,7A40.26,40.26,0,0,1,828,193.59l-18.11-4-.3.82,6.82,5.63c-3.09-.35-4.78-.42-6.42-.75-6.49-1.28-12.95-3.54-19.44-3.62-3.69-.05-7.42,3.44-11.14,5.32a9.65,9.65,0,0,1-1.26.32l.84-4.42L754.22,196c1.48-4.74,4.87-7.21,9.54-8.14a73.59,73.59,0,0,1,7.43-.95c6.44-.64,10.31-4.44,10.29-10.92,0-11.78-.44-23.56-.62-35.35-.08-5,0-10,0-15.94-4-.56-8.48-1.35-13-1.8-5-.48-10-.74-14.94-.88A9.42,9.42,0,0,0,749,123.1c-2.37,1.06-4.66,2.3-7,3.46l-.87-1.57,4.37-4.85h-9.91l3.34,4.27c-3.2,0-5.17-.1-7.13,0a9.66,9.66,0,0,0-2.51.92h.1l-9.2-.71,0-1.9,12.09-2.16-6.89-4.71v6L717.35,117l.67-2,20.59,1.24.47-.48a55.55,55.55,0,0,1-6.84-3c-2-1.19-3.75-2.92-6.29-5l3.16-1.27-5.57-7.75,1.5-1.4,7,5.59,4.31-1.82v.1q2.19,4,4.4,7.92l2.84,5c2.78-.9,5.5-1.7,8.15-2.72.36-.14.31-1.34.43-2.07a65.81,65.81,0,0,0,1.89-7.13A5.18,5.18,0,0,0,752.78,99c-.22-.3-2,0-2.47.6-.68.9-1.34,2.39-1,3.33A51,51,0,0,0,752.28,109.53Zm53.84-15.8L806,92.55a34.19,34.19,0,0,1,6.08.14c.52.1,1.13,2.83,1,2.89-5.71,2.69-1.43,5.56-.47,9l5-2.92c-4-8.09-1.63-14.1,5.84-15.24l.95-4.28-26.87,13.4,7,.52-10.45,8,4,5.57L809,95.8Zm8.39-32c-1,1.33-2,2.64-3,4.1l-3.1-4.26-7.45,5.27c1,3.65,2.14,8,3.39,12.77l5.41-4.24c-.24,3.81.73,8.28-2.88,8-4.46-.3-3.87,2.21-5.12,4.46,7.5-.25,11.67-7.52,11.41-15.54H808.8c-.35-5,3-5.7,6.37-6.41l1.89,3.43C820,65.14,816.93,63.57,814.51,61.7ZM778.28,83.6c-6.2,2.63-4-3.57-5.19-6.72l-4.09.26,4.27,16.65c6.4,5.82,7.73,6.09,11.5,2.41Zm-16.77,30.9,6.3-5.59,1,.64-1.61,7,1.43.34.84-4.52,4.52-3c1.11,1.49,2.36,3,3.41,4.63a46.24,46.24,0,0,1,2.15,4.28l1.29-.64c-.6-1.49-1.64-2.94-1.74-4.46-.39-6.08-2.81-7.72-8.76-5.67a9.74,9.74,0,0,1-2.43.24l-8.52.67L757,103.43v9.12Zm31.88-41.59-2.21-9.2-3.55,2.87c-3.24-4,4.62-8.23-1.14-11.92-2.89,3.67-2.68,7.84-1.56,11.87.87,3.15,2.57,6.07,3.85,9l2.42-3.92ZM755,85.51c2.86-3.31,2.78-3.83-2.43-6.1-2.38-1-4.84-1.88-7.26-2.81l-1.43,1.7Zm50.48-29.95L804.87,54c-2,.55-4.35.72-6,1.85-.57.4.49,3.16,1.07,6.24C802.58,59,804.05,57.27,805.52,55.56ZM758.8,86.47c-2.12,7.33-2.12,7.33-.33,8.68C758.85,92.28,762.85,90,758.8,86.47Z" transform="translate(0 0)"/><path class="cls-11" d="M965.28,111.53c-5.24-.18-7.92-2-6-7.94.64-2-.72-4.62-1.2-7.11l-11.58-4.64,1.9-2.37L942.26,85l11.86-.86c-3.92-2.8-10.77,1.94-12.49-7.32l10.74,5.45-1.69-4.06,4-.55-2.91-2.74,3.63.63a23,23,0,0,0-1.9-4.44c-.69-1-2-1.5-3-2.23a15.29,15.29,0,0,0-.33,3.95c.14.83,1.17,1.51,1.79,2.26-4.2,1.4-8.68-1.68-12.84.78-.5.3-1.3.12-1.79.43-5,3.21-5.21,3.16-8.88-2.23h7.07l-.77-4.14,8.64,2.2L944,71l-4.51-5.2,2.7-1.29c-.87-2.17-1.74-4.34-3.12-7.8l7.27,4,1-3.63c4.28.23,3.32,9.82,10.42,5.35a26.82,26.82,0,0,0-2.07,4.11,10,10,0,0,0,.1,3.25c2.06-2.18,3.42-3.64,4.79-5.1q3.49,7.36,7,14.74c1.1-8.26-.86-12.3-7.08-14.65l-.16-4.66-.07.13,3.58-4.76,4.62,10.73,2.2-1-4.93-9.94-2,.31c-.65-.91-1.18-2.47-2-2.62-5.49-1.05-4.36-4.81-3.63-9.72l4.49,6.21,2.83-2.46,3.72,8.55,1-.46c.47-2.06,1-4.12,1.41-6.14l5.2,4.9-.25-.18L980.76,64l3.88-2.68V71.53l.82.07,2.85-9.28c-4.12-3.58-3.6-5.92,2.06-8.76l.25,5.7,3.73-.89c-.67-2.77-1.25-5.19-1.84-7.6l4.87,1.65c-3-6.13-6.08-12.32-9.66-19.58,7.43,2.36,7.59,8.53,10.31,12.81s5.86,8.71,8.81,13.06l1.38-.59c-.37-1.36-.3-3.17-1.16-4-3.17-3-2.19-5.71-.23-8.71s.29-6.21-3.63-6.43c.42,1.65,1.13,3.19,1.09,4.71,0,1.32-.89,2.63-1.45,4.11-3.23-1.71-3.64-3.64-2.36-6.4,1.11-2.35,2-4.74-2.47-4.76-.92,0-1.83-2.73-2.74-4.21l1.15-1,6.35,1.74,3.69-6.9,1.77.41L1007.06,37l2.79,1.11,1.64-5.17,1.69-.88,2.46,4,.73,1.36c.26,1.33.51,2.67.75,4-1.34.71-3.56,1.22-3.81,2.22-.54,2.15-.06,4.55,0,6.85l1.68,0c.69-3,1.39-6.08,2.08-9.12l3.3,1.76c.72-3,1.38-5.76,2.27-9.47,2.55,3.57,3,5.9,1.8,9.34-.87,2.42.58,5.69,2,8.85l2.86-5.63,1.44-.22,2.56,14.3,7.52-8.54,2.61,5.17,4.77-1.86c-.33,3.26-.65,6.33-1.12,10.89l4.28-4.81c-.62-1.91-2-4.1-1.41-4.75,1.38-1.67,3.59-2.67,5.65-4-.81,4.85-1.22,8.84-2.27,12.66-.33,1.19-2.37,1.92-3.65,2.83s-2.51,1.76-4.09,2.86l-3.1-3.83-4.63,3.87c-.44-.58-1.39-1.4-1.25-1.7a38.61,38.61,0,0,1,3.21-5.67,14.7,14.7,0,0,1,2.86-2.34l-3-1.39c-6.78,3.77-4.57,9.55-3.86,15.37l5.6-2.74,1.29.53c-.85,2.4-1.63,4.83-2.68,7.14-.08.18-2-.45-4.5-1.06,1.69,1.48,2.81,3.07,3.44,2.89,1.83-.52,4.64-1.43,5-2.74,1.92-7.31,1.72-7.37,8.6-6.32a5.74,5.74,0,0,1,1.34.55l-.1-.14-3.78,4.26,8.16.9-.13-.11L1054.71,81l.16-.17c-2.21,1.49-4.3,3.25-7.06.72-.4-.36-2,.6-2.86,1.88l3.7.39c0,.39.17.8,0,.91-1.06,1-2.23,2.8-3.27,2.74-6.11-.37-6.29,4.51-8,7.58l3.33,2.74c2-2.11,3.74-5.34,6.41-6.51s6.22-.26,9.39-.26l.4,1.55-9.67,3.07.18,1.15,14.5-2.12.63,1.79c-2.78,1.17-5.75,3.59-8.31,3.22-4.13-.6-5.34,1.17-6.33,4.24l.14.3c-3.22.94-6.23,2.09-6.11,6.66l4.55-1c.05,1,.1,1.88.16,3.17,3-1.13,6.67-.7,6.59-5.51,0-.61,2.88-1.53,4.51-1.8,1.23-.2,2.59.42,4.88.86-4.15-3.64-3.78-4.72-.33-7.22,1.69-1.23,3.61-4.09,3.29-5.82-1.23-6.85,3.77-5.48,8.35-6.82l-5.34,6.65,3.45,1.45-6.81,4.49,2,2.22,6,.63c-5.49,3.84-10,7-15,10.48,1.08,1.5,2.17,3,3.54,4.92h-11.25l-13.76,2.58c-1.61.91-3.25,2.62-4.83,2.56-3-.12-6-1.23-9.16-2v3.88c-1.34-.76-2.45-1.3-3.46-2-3.61-2.42-7.76-.51-7.72,3.92.17,17.12.53,34.25.94,51.37.09,3.9,1.42,6.36,6.27,7A40.26,40.26,0,0,1,1041,195.59l-18.11-4-.3.82,6.82,5.63c-3.09-.35-4.78-.42-6.42-.75-6.49-1.28-12.95-3.54-19.44-3.62-3.69-.05-7.42,3.44-11.14,5.32a9.65,9.65,0,0,1-1.26.32l.84-4.42L967.22,198c1.48-4.74,4.87-7.21,9.54-8.14a73.59,73.59,0,0,1,7.43-.95c6.44-.64,10.31-4.44,10.29-10.92,0-11.78-.44-23.56-.62-35.35-.08-5,0-10,0-15.94-4-.56-8.48-1.35-13-1.8-5-.48-10-.74-14.94-.88A9.42,9.42,0,0,0,962,125.1c-2.37,1.06-4.66,2.3-7,3.46l-.87-1.57,4.37-4.85h-9.91l3.34,4.27c-3.2,0-5.17-.1-7.13,0a9.66,9.66,0,0,0-2.51.92h.1l-9.2-.71,0-1.9,12.09-2.16-6.89-4.71v6L930.35,119l.67-2,20.59,1.24.47-.48a55.55,55.55,0,0,1-6.84-3c-2-1.19-3.75-2.92-6.29-5l3.16-1.27-5.57-7.75,1.5-1.4,7,5.59,4.31-1.82v.1q2.19,4,4.4,7.92l2.84,5c2.78-.9,5.5-1.7,8.15-2.72.36-.14.31-1.34.43-2.07a65.81,65.81,0,0,0,1.89-7.13,5.18,5.18,0,0,0-1.29-3.35c-.22-.3-2,0-2.47.6-.68.9-1.34,2.39-1,3.33A51,51,0,0,0,965.28,111.53Zm53.84-15.8-.11-1.18a34.19,34.19,0,0,1,6.08.14c.52.1,1.13,2.83,1,2.89-5.71,2.69-1.43,5.56-.47,9l5-2.92c-4-8.09-1.63-14.1,5.84-15.24l1-4.28-26.87,13.4,7,.52-10.45,8,4,5.57L1022,97.8Zm8.39-32c-1,1.33-2,2.64-3,4.1l-3.1-4.26-7.45,5.27c1,3.65,2.14,8,3.39,12.77l5.41-4.24c-.24,3.81.73,8.28-2.88,8-4.46-.3-3.87,2.21-5.12,4.46,7.5-.25,11.67-7.52,11.41-15.54h-4.33c-.35-5,3-5.7,6.37-6.41l1.89,3.43C1033,67.14,1029.93,65.57,1027.51,63.7ZM991.28,85.6c-6.2,2.63-4-3.57-5.19-6.72l-4.09.26,4.27,16.65c6.4,5.82,7.73,6.09,11.5,2.41Zm-16.77,30.9,6.3-5.59,1,.64-1.61,7,1.43.34.84-4.52,4.52-3c1.11,1.49,2.36,3,3.41,4.63a46.24,46.24,0,0,1,2.15,4.28l1.29-.64c-.6-1.49-1.64-2.94-1.74-4.46-.39-6.08-2.81-7.72-8.76-5.67a9.74,9.74,0,0,1-2.43.24l-8.52.67L970,105.43v9.12Zm31.88-41.59-2.21-9.2-3.55,2.87c-3.24-4,4.62-8.23-1.14-11.92-2.89,3.67-2.68,7.84-1.56,11.87.87,3.15,2.57,6.07,3.85,9l2.42-3.92ZM968,87.51c2.86-3.31,2.78-3.83-2.43-6.1-2.38-1-4.84-1.88-7.26-2.81l-1.43,1.7Zm50.48-29.95-.65-1.59c-2,.55-4.35.72-6,1.85-.57.4.49,3.16,1.07,6.24C1015.58,61,1017.05,59.27,1018.52,57.56ZM971.8,88.47c-2.12,7.33-2.12,7.33-.33,8.68C971.85,94.28,975.85,92,971.8,88.47Z" transform="translate(0 0)"/></g><g id="Leaf"><path class="cls-12" d="M119,133.13a22.21,22.21,0,0,0-6,1l-15.47,1.85L96,136a26,26,0,0,0-6,.48l-1.64,0H76.19l-2.63-.12L67,135.36,61.43,133c-1.85-.33-2.49-1.73-3.34-2.95-.77-2.65.09-3.71,3.49-4.22-2.1-.29-4.12-.25-6.1-.52a25.66,25.66,0,0,1-5.5-1.4,15,15,0,0,1-5.83-3.54,4.59,4.59,0,0,1-.71-.82C43,117,42,114.76,39,113.62c-.72-.28-1.19-1.17-1.8-1.76l-1.75-2.51a18.45,18.45,0,0,1-.37-4.86c.71-2,2.18-3.57,3.38-5.31l.54-.44c.82-2,3.12-2.56,4.72-3.8,1.85-.66,3.4-1.93,5.09-2.3a42.78,42.78,0,0,1-4.46-1.81A37,37,0,0,1,40.84,89c-.8-.54-1.71-1-1.9-2L36.27,84.1,35,80.25c-.25-2.18,1.25-3,3.33-3.41,1.29-.89,2.86-.93,4.38-1.13,2.22.18,4.39-.51,6.62-.35.78.12,1.55.31,2.35.38,1.58.14,2.12-.5,1.9-1.8A13.89,13.89,0,0,1,60.3,63.62a7.71,7.71,0,0,1,.93-.65c1.85-1.13,3.93-1.93,5.9-2.89,1.36-1.08-.36-1.33-.68-1.94a32,32,0,0,1-4-4.7c-1.88-3.54-1.41-6.78,1.62-9.68a12.52,12.52,0,0,1,3.25-2.21c1.73-.72,3.38-1.59,5.18-2.19a38.67,38.67,0,0,1,14.08-2c1,0,2.31.49,2.59-1,0-.39,0-.77,0-1.15,0-2.66-.14-5.3,0-7.95a5,5,0,0,1,.2-1.59,47.48,47.48,0,0,1,2.78-7.36,30.39,30.39,0,0,1,3.32-5.16,27.94,27.94,0,0,1,5.82-5.93,38.22,38.22,0,0,1,6.17-3.53,25.36,25.36,0,0,1,4.17-1.12l1.6-.37A9.08,9.08,0,0,1,115,2a33.25,33.25,0,0,1,8.57.6,50.21,50.21,0,0,1,6.85,2c1.7.87,3.55,1.51,5.2,2.48a53.15,53.15,0,0,1,6.12,4.45c.44.39.89.79,1.3,1.21a55.93,55.93,0,0,1,5,6.4c.65,1.28,1.2,2.6,1.82,3.89.55,1.66,1.11,3.32,1.63,5a6.42,6.42,0,0,1,.14,1.57c-.09,2.52.2,5-.22,7.54a2.24,2.24,0,0,1-.2.8,1.88,1.88,0,0,1-.12.18h.16a4.1,4.1,0,0,0,.21-1c1.37-3.59,4-6.47,6.6-9.37.25-.25.53-.49.8-.72a38.92,38.92,0,0,1,6.17-4.48,28.79,28.79,0,0,1,5.79-2.43,30.62,30.62,0,0,1,5-1.12c2-.08,3.95-.12,5.92,0a32,32,0,0,1,5.07,1.11,21.81,21.81,0,0,1,6.43,3,21.51,21.51,0,0,1,5.21,5.53,12,12,0,0,1,1.24,2.55c.32.93.7,1.83,1,2.76a4.22,4.22,0,0,1,.2,1.16c0,2.63.23,5.26,0,7.88-.16.9-.46,1.78-.7,2.67a38.06,38.06,0,0,1-3.3,7.87c-1,1.49-1.71,3.12-2.79,4.58s-2,2.79-2.89,4.28c1.15.44,2-.19,3-.2a41.67,41.67,0,0,1,5.12-.05,47.41,47.41,0,0,1,5.31,1,6.65,6.65,0,0,1,.75.26c2.08,1.09,4.63,1.64,5.72,3.89l1.22,1.26a17.27,17.27,0,0,1,2.71,5.34v4.85l-1.67,5.81c-.54,1.14-1.08,2.29-1.61,3.43a3,3,0,0,0-1.13,1.9,4.7,4.7,0,0,1-2.77,3.82l-3.31,3.43c0,.64-1.12,1.31.08,1.91,2,.15,3.92-.23,5.87.4,3.41,1.12,4.87,2.72,5.14,6l-2.4,3.84-2.63,2.44a3.64,3.64,0,0,1-3.23,2.5l-2.78,1.87c-.68.84-.29,1.44.57,1.94a34.45,34.45,0,0,1,9.33,3.9c1.1.73,1.87,1.54,1.49,2.84-1.32,1.24-3.17,1.75-4.76,2.61-1.65,1.63-4.09,1.58-6.19,2.28-1.81.47-3.7.63-5.54,1-2,.17-3.88.57-5.85.66-3.63.41-7.3.45-10.95.64a5.8,5.8,0,0,1-.92.2,16.16,16.16,0,0,1-2.95.14,25.09,25.09,0,0,0-9.73,0c-1.83.43-3.59-.32-5.39-.47-2.75-.22-5.42.5-8.15.45a3.1,3.1,0,0,1-1.95-.65l-1-.06a16,16,0,0,0-5.93.12,9.57,9.57,0,0,1-4.6-.14l-3.29.14a26.41,26.41,0,0,0-4.41.76,4.19,4.19,0,0,1-3.81-.33l-3.3,0a37.79,37.79,0,0,0-5.3,1A3.79,3.79,0,0,1,119,133.13Z" transform="translate(0 0)"/><path class="cls-13" d="M167.5,37.84c-1.81,4.28-1.89,8.79-3.46,13A32.65,32.65,0,0,1,156.28,62a3.19,3.19,0,0,1-3.38,1.1A2.6,2.6,0,0,1,151.35,60a31.18,31.18,0,0,1,7.5-16.27A19.43,19.43,0,0,1,167.5,37.84Z" transform="translate(0 0)"/><path class="cls-13" d="M166.5,81.9c-.55,3.45-3.15,5.94-5.25,8.63-2.93,3.75-6.9,6.6-11,9.28a4.46,4.46,0,0,1-1,.48c-.95.33-1.88,1.29-3,.36-.9-.76-.36-1.66,0-2.47,1.92-4.24,5.18-7.74,8.15-11.38A19.14,19.14,0,0,1,164,80.19C165.9,79.61,166.76,80.22,166.5,81.9Z" transform="translate(0 0)"/><path class="cls-13" d="M91.26,108.37c-5-.14-9.5-1.31-13.2-4.41-.82-.69-1.69-1.43-1.14-2.5a3.26,3.26,0,0,1,3-1.84,32.52,32.52,0,0,1,14.72,3.1c1.61.73,3,1.86,2.31,3.66-.6,1.58-2.24,2-4,2Z" transform="translate(0 0)"/><path class="cls-13" d="M103.07,52.78a3.4,3.4,0,0,1-4.92,2.92A20.72,20.72,0,0,1,88.1,46.86c-1-1.67.2-3,2-2.39,4.19,1.51,8.57,2.83,11.77,5.91A3.42,3.42,0,0,1,103.07,52.78Z" transform="translate(0 0)"/><path class="cls-13" d="M127.13,98.7c.13-3.27.63-5.69,2.28-7.83a4,4,0,0,1,4.38-1.79c2,.49,1.77,2.08,1.62,3.44-.42,3.87-2,7.5-3.45,11.11-.66,1.59-2.18,1.59-3.23.09A7.74,7.74,0,0,1,127.13,98.7Z" transform="translate(0 0)"/><path class="cls-14" d="M193.43,82.7c-1.4-.17-2.53-.41-3.09-1.52a3,3,0,0,1,.7-3.78c3.05-2.93,7.18-4,11.35-4.85,1.71-.34,2.23,1,2,2.17a5.9,5.9,0,0,1-1.9,3.66A20,20,0,0,1,193.43,82.7Z" transform="translate(0 0)"/><path class="cls-15" d="M185.27,105.77a12.65,12.65,0,0,1,5.07,1c1.57.69,1.8,1.67.15,2.45a21.46,21.46,0,0,1-12,2.24c-2-.23-4,.1-5.89-.74-.91-.41-2.47-.24-2.48-1.52s1.4-1.58,2.54-1.74C176.85,106.82,181.07,106.32,185.27,105.77Z" transform="translate(0 0)"/><path class="cls-16" d="M140.24,125.3c2.14-3.78,4.28-7.42,7.39-10.5a8.85,8.85,0,0,1,3.76-2.33,3.23,3.23,0,0,1,3.26.71,2.36,2.36,0,0,1,.72,3.09,4.84,4.84,0,0,1-.48.86C151.07,121.32,145.68,123.32,140.24,125.3Z" transform="translate(0 0)"/><path class="cls-17" d="M102.6,126.75l-1.17-.44c-1.61-.69-3.39.13-5-.46l-.58.18a2.34,2.34,0,0,1-.7-.12c-.75-.24-1.83.09-2.07-1a.55.55,0,0,1,.6-.26l1,.12c1.65-.54,3.43.2,5.06-.43h8.79c1.25.58,2.67-.1,3.93.42a20.27,20.27,0,0,1,7.14,1.32c.86.32,2.26.51,2,1.62s-1.74,1-2.74.91c-4.22-.49-8.42-1.08-12.63-1.62-.36,0-.72-.07-1.08-.1A4.13,4.13,0,0,1,102.6,126.75Z" transform="translate(0 0)"/><path class="cls-18" d="M117,111.42c2.51.08,7.72,5.48,12.31,12.59C126.88,123.64,119.15,115.79,117,111.42Z" transform="translate(0 0)"/><path class="cls-12" d="M331.43,133.57a22.43,22.43,0,0,0-6.05,1l-15.56,1.85-1.53.1a25.79,25.79,0,0,0-6.08.48l-1.64,0H288.42l-2.65-.12-6.64-1.07-5.55-2.39c-1.87-.33-2.51-1.74-3.37-3-.76-2.66.09-3.73,3.51-4.23-2.1-.3-4.13-.26-6.13-.53a25.92,25.92,0,0,1-5.53-1.4,15.14,15.14,0,0,1-5.86-3.55,5.17,5.17,0,0,1-.72-.83c-.46-2.56-1.4-4.79-4.43-5.93-.72-.28-1.2-1.17-1.81-1.77l-1.76-2.52a18.57,18.57,0,0,1-.37-4.88c.72-2,2.19-3.58,3.39-5.32l.56-.45c.82-2,3.13-2.57,4.74-3.81,1.86-.67,3.41-1.94,5.11-2.31a41.92,41.92,0,0,1-4.48-1.82,37.3,37.3,0,0,1-3.56-1.83c-.81-.54-1.72-1-1.91-2-.89-1-1.79-1.94-2.68-2.92-.42-1.29-.84-2.58-1.25-3.87-.25-2.18,1.26-3,3.35-3.41,1.3-.9,2.87-.94,4.4-1.14,2.24.18,4.42-.51,6.66-.35.78.12,1.56.3,2.36.38,1.59.14,2.13-.5,1.91-1.81a14,14,0,0,1,6.73-10.35,7.78,7.78,0,0,1,.93-.66c1.87-1.14,3.95-1.94,5.93-2.9,1.37-1.08-.35-1.33-.68-2a32.34,32.34,0,0,1-4-4.72c-1.88-3.55-1.42-6.8,1.63-9.71a12.83,12.83,0,0,1,3.27-2.22c1.74-.72,3.4-1.59,5.21-2.2a39.07,39.07,0,0,1,14.16-2c.95.05,2.32.49,2.6-1,0-.39,0-.77,0-1.16,0-2.66-.15-5.31,0-8a5.46,5.46,0,0,1,.21-1.6,48.14,48.14,0,0,1,2.79-7.38,31.3,31.3,0,0,1,3.34-5.18,27.76,27.76,0,0,1,5.86-5.95,37.41,37.41,0,0,1,6.2-3.54A24.9,24.9,0,0,1,324,2.55l1.61-.37a8.44,8.44,0,0,1,1.74-.2,33.63,33.63,0,0,1,8.62.6,50.35,50.35,0,0,1,6.89,2c1.71.88,3.57,1.52,5.23,2.49a54.89,54.89,0,0,1,6.15,4.47c.44.4.89.79,1.31,1.21a57.58,57.58,0,0,1,5,6.43c.66,1.29,1.21,2.61,1.84,3.9.55,1.67,1.11,3.34,1.63,5a6.91,6.91,0,0,1,.15,1.57c-.09,2.53.2,5.06-.22,7.57a2.26,2.26,0,0,1-.21.8,1.88,1.88,0,0,1-.12.18h.16a4.69,4.69,0,0,0,.22-1c1.37-3.6,4-6.5,6.63-9.41.25-.25.53-.49.8-.72a39.93,39.93,0,0,1,6.2-4.5,29.42,29.42,0,0,1,5.83-2.44A31,31,0,0,1,388.55,19c2-.08,4-.12,5.95,0a31.32,31.32,0,0,1,5.1,1.12,22,22,0,0,1,6.46,3c2,1.68,4,3.33,5.24,5.56a11,11,0,0,1,1.24,2.56c.33.92.71,1.83,1,2.76a4.64,4.64,0,0,1,.21,1.17c0,2.64.23,5.27,0,7.91-.17.9-.46,1.79-.71,2.68a37.83,37.83,0,0,1-3.32,7.9c-1,1.5-1.72,3.13-2.8,4.59s-2,2.8-2.9,4.3c1.15.44,2-.2,3-.21a44.25,44.25,0,0,1,5.15,0,48.38,48.38,0,0,1,5.34,1,7.41,7.41,0,0,1,.75.26c2.09,1.09,4.66,1.65,5.75,3.9l1.23,1.27a17.18,17.18,0,0,1,2.72,5.36L428,79l-1.68,5.83c-.55,1.15-1.09,2.29-1.63,3.44a3,3,0,0,0-1.13,1.91A4.72,4.72,0,0,1,420.72,94l-3.32,3.45c0,.64-1.13,1.31.07,1.92,2,.14,3.95-.24,5.91.4,3.43,1.12,4.89,2.72,5.17,6-.81,1.28-1.61,2.57-2.41,3.85l-2.65,2.45a3.65,3.65,0,0,1-3.24,2.51l-2.81,1.87c-.68.85-.28,1.45.58,2a34.69,34.69,0,0,1,9.38,3.92c1.11.73,1.88,1.54,1.5,2.85-1.33,1.25-3.19,1.75-4.79,2.62-1.66,1.64-4.11,1.59-6.22,2.28-1.83.48-3.72.64-5.57,1-2,.17-3.9.58-5.88.66-3.66.42-7.34.46-11,.64a6,6,0,0,1-.93.21,16.27,16.27,0,0,1-3,.13,25.59,25.59,0,0,0-9.79,0c-1.84.43-3.61-.33-5.42-.47-2.77-.22-5.45.5-8.2.44a3,3,0,0,1-1.95-.65l-1-.06a16.15,16.15,0,0,0-6,.12,9.56,9.56,0,0,1-4.63-.14l-3.31.14a26.67,26.67,0,0,0-4.43.77,4.23,4.23,0,0,1-3.83-.33l-3.32,0a36.8,36.8,0,0,0-5.33,1A3.84,3.84,0,0,1,331.43,133.57Z" transform="translate(0 0)"/><path class="cls-13" d="M379.23,82.15c-.55,3.46-3.17,6-5.28,8.67-2.94,3.75-6.94,6.61-11.07,9.31a4.27,4.27,0,0,1-1,.47c-1,.34-1.89,1.31-3,.37-.9-.76-.35-1.67,0-2.48,1.92-4.26,5.2-7.76,8.19-11.42a19.28,19.28,0,0,1,9.53-6.64C378.62,79.85,379.49,80.46,379.23,82.15Z" transform="translate(0 0)"/><path class="cls-13" d="M346.29,64.8a9.7,9.7,0,0,1-1,5.35c-1.3,2.45-3.65,2.81-5.61.78-3.73-3.85-5-11-1.23-15.75,2-2.58,3.84-2.36,5.71.42C346.2,58.68,345.61,62.17,346.29,64.8Z" transform="translate(0 0)"/><path class="cls-13" d="M303.57,108.72c-5-.14-9.55-1.32-13.27-4.43-.82-.69-1.71-1.43-1.15-2.51a3.28,3.28,0,0,1,3-1.84,32.71,32.71,0,0,1,14.8,3.11c1.62.73,3,1.86,2.32,3.67-.6,1.59-2.25,2-4,2Z" transform="translate(0 0)"/><path class="cls-13" d="M315.44,52.92a3.41,3.41,0,0,1-4.94,2.94A20.89,20.89,0,0,1,300.39,47c-1-1.67.2-3.06,2.06-2.39,4.21,1.51,8.62,2.84,11.83,5.93A3.38,3.38,0,0,1,315.44,52.92Z" transform="translate(0 0)"/><path class="cls-14" d="M406.3,83c-1.4-.17-2.54-.41-3.1-1.53a3,3,0,0,1,.71-3.79c3.06-2.94,7.21-4,11.4-4.86,1.73-.35,2.25,1,2,2.17a5.94,5.94,0,0,1-1.91,3.68A20.12,20.12,0,0,1,406.3,83Z" transform="translate(0 0)"/><path class="cls-15" d="M398.1,106.11a12.79,12.79,0,0,1,5.1,1c1.58.7,1.81,1.68.15,2.47a21.68,21.68,0,0,1-12.06,2.24c-2-.23-4.06.1-5.93-.74-.92-.41-2.48-.24-2.5-1.53s1.42-1.59,2.56-1.75C389.64,107.17,393.87,106.66,398.1,106.11Z" transform="translate(0 0)"/><path class="cls-17" d="M315,127.17l-1.18-.44c-1.62-.69-3.42.12-5.05-.46l-.57.17a2.12,2.12,0,0,1-.71-.12c-.75-.23-1.83.1-2.08-1a.55.55,0,0,1,.6-.25l1.06.12c1.65-.54,3.45.2,5.09-.43H321c1.26.58,2.69-.1,4,.42a20.22,20.22,0,0,1,7.17,1.33c.87.31,2.28.51,2,1.62s-1.75,1-2.76.91c-4.24-.48-8.47-1.08-12.7-1.63l-1.08-.09A4.16,4.16,0,0,1,315,127.17Z" transform="translate(0 0)"/><path class="cls-19" d="M350.14,122.26a61.82,61.82,0,0,1,4.67-15.41c.31-.69.68-1.64,1.95-1.23,1.09.36.64,1.27.55,1.86-.76,4.88-3.07,9.29-5.47,13.65a9.36,9.36,0,0,0-1.15,2.16C349.65,123.3,349.93,122.76,350.14,122.26Z" transform="translate(0 0)"/><path class="cls-12" d="M543.78,128.29a25.32,25.32,0,0,0-6.22.9l-16,1.74L520,131a28.92,28.92,0,0,0-6.24.45l-1.69,0H499.59l-2.72-.11-6.83-1-5.69-2.24c-1.92-.31-2.58-1.63-3.46-2.78-.79-2.49.09-3.49,3.61-4-2.17-.28-4.25-.24-6.3-.5a28.36,28.36,0,0,1-5.69-1.31,15.88,15.88,0,0,1-6-3.33,4.13,4.13,0,0,1-.74-.77c-.48-2.4-1.45-4.49-4.55-5.56-.75-.26-1.24-1.1-1.86-1.66-.61-.78-1.21-1.57-1.81-2.36a15.3,15.3,0,0,1-.38-4.57c.73-1.86,2.25-3.36,3.48-5l.57-.42c.85-1.88,3.22-2.4,4.87-3.57,1.91-.62,3.51-1.82,5.25-2.17a43.82,43.82,0,0,1-4.6-1.7,39.42,39.42,0,0,1-3.66-1.72c-.82-.5-1.76-.93-2-1.87l-2.75-2.73-1.29-3.63c-.25-2,1.3-2.83,3.45-3.2,1.33-.84,3-.88,4.52-1.07,2.3.18,4.54-.48,6.83-.32.81.11,1.61.28,2.44.35,1.62.14,2.18-.47,2-1.69.57-4,2.79-7.31,6.91-9.7a8.61,8.61,0,0,1,.95-.62c1.92-1.07,4.06-1.82,6.1-2.72,1.4-1-.37-1.24-.7-1.82a31.36,31.36,0,0,1-4.08-4.42C483.51,50,484,47,487.12,44.24a13,13,0,0,1,3.36-2.09c1.79-.67,3.49-1.49,5.35-2.06a43.8,43.8,0,0,1,14.55-1.85c1,0,2.38.45,2.67-1,0-.36,0-.72-.06-1.08,0-2.5-.14-5,0-7.48a4.75,4.75,0,0,1,.21-1.49,43.19,43.19,0,0,1,2.87-6.92,29,29,0,0,1,3.43-4.86,27.74,27.74,0,0,1,6-5.58,40.79,40.79,0,0,1,6.37-3.31,28.13,28.13,0,0,1,4.3-1.06l1.65-.35A9.79,9.79,0,0,1,539.62,5a37.38,37.38,0,0,1,8.85.56,55.33,55.33,0,0,1,7.08,1.86c1.76.82,3.67,1.42,5.37,2.33a55.76,55.76,0,0,1,6.32,4.18c.46.38.92.75,1.35,1.15a54.55,54.55,0,0,1,5.12,6c.67,1.2,1.24,2.44,1.88,3.66.57,1.56,1.15,3.12,1.68,4.69a5.68,5.68,0,0,1,.15,1.48c-.09,2.37.21,4.74-.22,7.09a1.85,1.85,0,0,1-.22.75,1.77,1.77,0,0,1-.12.17H577a3.69,3.69,0,0,0,.23-.91c1.41-3.38,4.12-6.09,6.81-8.82.26-.23.54-.45.83-.67a39,39,0,0,1,6.37-4.21,31.37,31.37,0,0,1,6-2.3,34.57,34.57,0,0,1,5.21-1c2-.08,4.08-.12,6.11,0a35,35,0,0,1,5.24,1,24,24,0,0,1,6.64,2.84c2,1.57,4.1,3.12,5.38,5.2a10.68,10.68,0,0,1,1.28,2.4c.33.87.72,1.72,1.06,2.59a3.51,3.51,0,0,1,.21,1.1,73.26,73.26,0,0,1,0,7.41c-.18.85-.48,1.68-.74,2.51a33.57,33.57,0,0,1-3.4,7.4c-1,1.41-1.77,2.94-2.88,4.31s-2,2.62-3,4c1.18.42,2.08-.18,3-.19a49.15,49.15,0,0,1,5.29,0,52.74,52.74,0,0,1,5.48,1c.27.07.52.16.77.25,2.16,1,4.79,1.55,5.91,3.66l1.26,1.19a15.52,15.52,0,0,1,2.8,5l0,4.56c-.58,1.82-1.15,3.64-1.73,5.46-.55,1.08-1.11,2.15-1.67,3.23a2.79,2.79,0,0,0-1.16,1.78,4.46,4.46,0,0,1-2.86,3.6l-3.42,3.23c0,.59-1.16,1.23.08,1.8,2,.13,4.06-.23,6.07.37,3.52,1,5,2.55,5.3,5.61l-2.47,3.62-2.72,2.29a3.7,3.7,0,0,1-3.33,2.35l-2.88,1.76c-.71.79-.3,1.36.59,1.82a37.6,37.6,0,0,1,9.63,3.68c1.15.68,1.94,1.44,1.55,2.67-1.37,1.17-3.28,1.64-4.92,2.45-1.71,1.54-4.23,1.49-6.39,2.14-1.88.44-3.83.6-5.73.94-2,.15-4,.53-6,.62-3.75.38-7.53.42-11.31.59a7.63,7.63,0,0,1-1,.2,18.15,18.15,0,0,1-3,.12,28.75,28.75,0,0,0-10,0c-1.89.41-3.71-.31-5.58-.44-2.84-.21-5.6.46-8.42.42a3.35,3.35,0,0,1-2-.62l-1,0a18,18,0,0,0-6.13.11,10.79,10.79,0,0,1-4.76-.13l-3.4.13a29.31,29.31,0,0,0-4.55.72,4.7,4.7,0,0,1-3.94-.31l-3.4,0a41.52,41.52,0,0,0-5.48.93A4.33,4.33,0,0,1,543.78,128.29Z" transform="translate(0 0)"/><path class="cls-13" d="M593.9,38.66c-1.86,4-1.94,8.27-3.57,12.21s-4.61,7.4-8,10.54a3.51,3.51,0,0,1-3.49,1,2.39,2.39,0,0,1-1.61-2.9c.79-5.68,3.53-10.73,7.75-15.31A20.33,20.33,0,0,1,593.9,38.66Z" transform="translate(0 0)"/><path class="cls-13" d="M592.87,80.1c-.56,3.25-3.25,5.6-5.42,8.12-3,3.53-7.13,6.21-11.38,8.73a4.76,4.76,0,0,1-1,.45c-1,.31-1.94,1.22-3.06.34-.93-.71-.37-1.56,0-2.33,2-4,5.34-7.27,8.41-10.7a19.9,19.9,0,0,1,9.8-6.21C592.25,78,593.14,78.52,592.87,80.1Z" transform="translate(0 0)"/><path class="cls-13" d="M515.16,105c-5.14-.13-9.82-1.23-13.64-4.15-.84-.64-1.75-1.34-1.17-2.35a3.39,3.39,0,0,1,3-1.73,36.29,36.29,0,0,1,15.2,2.92c1.67.68,3.1,1.74,2.39,3.44-.62,1.49-2.31,1.87-4.13,1.87Z" transform="translate(0 0)"/><path class="cls-13" d="M527.35,52.71c0,2.2-2.54,3.72-5.08,2.76a20.94,20.94,0,0,1-10.38-8.33c-1-1.56.21-2.86,2.11-2.24,4.32,1.43,8.85,2.66,12.16,5.56A3.09,3.09,0,0,1,527.35,52.71Z" transform="translate(0 0)"/><path class="cls-13" d="M552.21,95.91c.12-3.08.65-5.35,2.35-7.37a4.38,4.38,0,0,1,4.52-1.68c2,.46,1.83,2,1.68,3.23-.44,3.64-2,7.06-3.57,10.46-.67,1.49-2.24,1.49-3.34.08A6.85,6.85,0,0,1,552.21,95.91Z" transform="translate(0 0)"/><path class="cls-14" d="M620.68,80.85c-1.44-.15-2.6-.38-3.19-1.43a2.64,2.64,0,0,1,.73-3.55c3.15-2.75,7.41-3.76,11.72-4.55,1.77-.33,2.31.89,2.09,2a5.45,5.45,0,0,1-2,3.45A21.61,21.61,0,0,1,620.68,80.85Z" transform="translate(0 0)"/><path class="cls-15" d="M612.26,102.56a14.23,14.23,0,0,1,5.24.9c1.62.65,1.85,1.57.15,2.31a24.18,24.18,0,0,1-12.39,2.1c-2-.22-4.17.09-6.09-.69-.94-.39-2.55-.23-2.56-1.44s1.45-1.48,2.62-1.63C603.57,103.55,607.92,103.07,612.26,102.56Z" transform="translate(0 0)"/><path class="cls-17" d="M526.87,122.29l-1.21-.41c-1.66-.65-3.51.11-5.18-.44l-.59.17a2.53,2.53,0,0,1-.73-.11c-.77-.22-1.88.08-2.14-.92a.59.59,0,0,1,.62-.24l1.09.11c1.7-.51,3.54.19,5.22-.4H533c1.29.55,2.76-.09,4.06.4a22.44,22.44,0,0,1,7.37,1.24c.89.29,2.34.48,2.08,1.52s-1.79,1-2.83.85c-4.36-.45-8.7-1-13-1.52-.37,0-.74-.06-1.11-.09A4.74,4.74,0,0,1,526.87,122.29Z" transform="translate(0 0)"/><path class="cls-19" d="M563,117.69a54.14,54.14,0,0,1,4.8-14.44c.32-.65.7-1.54,2-1.15,1.13.34.66,1.18.56,1.74-.77,4.57-3.14,8.7-5.61,12.79a8.33,8.33,0,0,0-1.18,2C562.49,118.67,562.78,118.16,563,117.69Z" transform="translate(0 0)"/><path class="cls-18" d="M541.71,107.87c2.6.07,8,5.16,12.72,11.84C552,119.36,544,112,541.71,107.87Z" transform="translate(0 0)"/><path class="cls-12" d="M772.13,133.62a23.12,23.12,0,0,0-6.1.95l-15.69,1.83-1.55.09a26.81,26.81,0,0,0-6.13.48L741,137H728.76l-2.67-.12-6.7-1-5.59-2.36c-1.88-.32-2.53-1.71-3.4-2.92-.77-2.62.1-3.66,3.55-4.16-2.13-.3-4.18-.26-6.19-.52a27,27,0,0,1-5.58-1.39,15.3,15.3,0,0,1-5.9-3.49,5,5,0,0,1-.73-.81c-.47-2.53-1.42-4.72-4.46-5.85-.73-.27-1.22-1.16-1.83-1.74l-1.77-2.49a17.61,17.61,0,0,1-.38-4.8c.72-2,2.21-3.53,3.42-5.25l.56-.44c.83-2,3.16-2.53,4.78-3.75,1.87-.66,3.44-1.91,5.16-2.28a41.55,41.55,0,0,1-4.52-1.79A35.45,35.45,0,0,1,692.92,90c-.81-.53-1.74-1-1.93-2l-2.7-2.88L687,81.33c-.25-2.15,1.27-3,3.38-3.37,1.31-.88,2.9-.92,4.43-1.12,2.26.18,4.46-.5,6.71-.34.8.12,1.58.3,2.39.37,1.6.14,2.15-.49,1.93-1.78a13.72,13.72,0,0,1,6.78-10.2,6.76,6.76,0,0,1,.94-.64,65.67,65.67,0,0,1,6-2.86c1.38-1.07-.36-1.31-.68-1.92a32.54,32.54,0,0,1-4-4.65c-1.9-3.5-1.43-6.7,1.64-9.57a13,13,0,0,1,3.3-2.19c1.76-.7,3.43-1.57,5.25-2.16a40.15,40.15,0,0,1,14.28-2c1,.05,2.34.48,2.62-1,0-.38-.05-.76-.05-1.14,0-2.62-.15-5.24,0-7.86a5.26,5.26,0,0,1,.21-1.57,46.68,46.68,0,0,1,2.82-7.27A30.08,30.08,0,0,1,748.3,15a27.56,27.56,0,0,1,5.9-5.86,39.15,39.15,0,0,1,6.25-3.49,26,26,0,0,1,4.23-1.11c.54-.11,1.08-.25,1.62-.37A9.37,9.37,0,0,1,768.05,4a34.63,34.63,0,0,1,8.69.59,52.55,52.55,0,0,1,7,1.95c1.72.87,3.6,1.5,5.27,2.46a54,54,0,0,1,6.2,4.39c.45.4.9.79,1.33,1.2a57,57,0,0,1,5,6.34c.66,1.26,1.21,2.57,1.85,3.84.56,1.64,1.12,3.29,1.65,4.94a6.22,6.22,0,0,1,.14,1.55c-.09,2.49.21,5-.22,7.46a2,2,0,0,1-.21.79,1.77,1.77,0,0,1-.12.17h.16a3.63,3.63,0,0,0,.22-.95c1.38-3.55,4-6.4,6.69-9.27.26-.25.53-.48.81-.72a39.93,39.93,0,0,1,6.25-4.42,29.67,29.67,0,0,1,5.87-2.41,31.52,31.52,0,0,1,5.12-1.1c2-.08,4-.12,6,0a31.75,31.75,0,0,1,5.14,1.1,22.31,22.31,0,0,1,6.51,3c2,1.65,4,3.28,5.29,5.47a11.38,11.38,0,0,1,1.25,2.52c.33.91.72,1.81,1.05,2.72a4.22,4.22,0,0,1,.2,1.16c0,2.6.23,5.19,0,7.79-.17.89-.47,1.76-.72,2.64a37,37,0,0,1-3.34,7.78c-1,1.48-1.74,3.09-2.83,4.53s-2,2.76-2.93,4.23c1.17.43,2.05-.19,3-.2a42.8,42.8,0,0,1,5.19,0,48.57,48.57,0,0,1,5.38,1,6.81,6.81,0,0,1,.76.26c2.11,1.08,4.7,1.62,5.8,3.84l1.24,1.25a17,17,0,0,1,2.75,5.28v4.8l-1.69,5.74L866.11,89A3,3,0,0,0,865,90.9a4.67,4.67,0,0,1-2.81,3.78l-3.36,3.39c0,.63-1.14,1.3.08,1.89,2,.15,4-.23,6,.4,3.46,1.1,4.93,2.68,5.2,5.9l-2.42,3.8L865,112.47a3.67,3.67,0,0,1-3.27,2.47l-2.83,1.85c-.69.83-.29,1.43.58,1.91a35.74,35.74,0,0,1,9.46,3.87c1.12.72,1.89,1.51,1.52,2.81-1.35,1.22-3.22,1.72-4.84,2.57-1.67,1.62-4.15,1.57-6.27,2.26-1.84.46-3.75.62-5.62,1-2,.17-3.93.56-5.93.65-3.68.41-7.39.45-11.1.63a5.69,5.69,0,0,1-.93.2,16.6,16.6,0,0,1-3,.14,26.21,26.21,0,0,0-9.87,0c-1.85.43-3.64-.32-5.46-.46-2.79-.22-5.5.49-8.27.44a3.11,3.11,0,0,1-2-.65l-1-.05a16.47,16.47,0,0,0-6,.12,9.81,9.81,0,0,1-4.66-.15l-3.34.15a27,27,0,0,0-4.46.75,4.37,4.37,0,0,1-3.87-.32h-3.34a38.88,38.88,0,0,0-5.38,1A3.94,3.94,0,0,1,772.13,133.62Z" transform="translate(0 0)"/><path class="cls-13" d="M820.32,83c-.56,3.41-3.2,5.88-5.33,8.54-3,3.7-7,6.52-11.16,9.17a4.08,4.08,0,0,1-1,.47c-1,.33-1.9,1.29-3,.37-.91-.76-.36-1.65,0-2.45,1.94-4.19,5.25-7.65,8.26-11.25a19.47,19.47,0,0,1,9.61-6.54C819.71,80.7,820.58,81.3,820.32,83Z" transform="translate(0 0)"/><path class="cls-13" d="M787.11,65.87a9.44,9.44,0,0,1-1,5.27c-1.31,2.41-3.67,2.77-5.65.77-3.77-3.79-5-10.81-1.25-15.52,2.05-2.54,3.88-2.33,5.76.41C787,59.84,786.42,63.28,787.11,65.87Z" transform="translate(0 0)"/><path class="cls-13" d="M761.65,85.23a2.37,2.37,0,0,1-1.26,2.54,3.33,3.33,0,0,1-3.11-.27c-5.45-2.79-8.72-9.22-7.31-14.62.33-1.24.85-2.1,2.63-1C758.12,75.09,760.06,80.06,761.65,85.23Z" transform="translate(0 0)"/><path class="cls-13" d="M756,54.16c0,2.31-2.5,3.92-5,2.9a20.88,20.88,0,0,1-10.2-8.75c-1-1.64.21-3,2.07-2.36,4.25,1.5,8.69,2.8,11.94,5.85A3.36,3.36,0,0,1,756,54.16Z" transform="translate(0 0)"/><path class="cls-13" d="M780.4,99.58c.13-3.24.64-5.63,2.31-7.75a4.16,4.16,0,0,1,4.45-1.76c2,.48,1.79,2.05,1.64,3.39-.43,3.83-2,7.42-3.5,11-.66,1.58-2.21,1.58-3.28.09A7.57,7.57,0,0,1,780.4,99.58Z" transform="translate(0 0)"/><path class="cls-16" d="M793.7,125.88c2.17-3.74,4.34-7.33,7.49-10.38a9,9,0,0,1,3.81-2.31,3.32,3.32,0,0,1,3.3.71,2.29,2.29,0,0,1,.74,3,4.52,4.52,0,0,1-.5.85C804.67,122,799.22,123.92,793.7,125.88Z" transform="translate(0 0)"/><path class="cls-12" d="M989.21,130.11a21.16,21.16,0,0,0-5.82,1l-15,1.83L967,133a24.31,24.31,0,0,0-5.84.48l-1.58,0H947.86l-2.55-.11-6.38-1.06L933.59,130c-1.79-.32-2.41-1.72-3.23-2.93-.74-2.62.09-3.68,3.37-4.18-2-.29-4-.25-5.89-.52a24.06,24.06,0,0,1-5.32-1.38,14.64,14.64,0,0,1-5.63-3.51,5.36,5.36,0,0,1-.69-.82c-.45-2.53-1.35-4.73-4.26-5.87-.7-.27-1.16-1.15-1.74-1.74l-1.69-2.49a18.61,18.61,0,0,1-.36-4.82c.69-2,2.11-3.55,3.26-5.27l.53-.44c.8-2,3-2.54,4.56-3.77,1.79-.66,3.28-1.92,4.92-2.29a46.5,46.5,0,0,1-7.74-3.6c-.77-.54-1.65-1-1.83-2l-2.58-2.88-1.2-3.83c-.24-2.16,1.21-3,3.22-3.38,1.25-.88,2.77-.92,4.23-1.12,2.15.18,4.25-.51,6.4-.35.76.12,1.5.3,2.28.38,1.52.14,2-.5,1.83-1.79a13.82,13.82,0,0,1,6.47-10.24,9.57,9.57,0,0,1,.89-.64c1.8-1.13,3.8-1.92,5.71-2.87,1.31-1.07-.35-1.32-.66-1.93A31.28,31.28,0,0,1,934.63,51c-1.82-3.51-1.37-6.72,1.56-9.6a12.23,12.23,0,0,1,3.14-2.2c1.68-.71,3.27-1.58,5-2.17a36.41,36.41,0,0,1,13.61-2c.92,0,2.24.48,2.5-1,0-.38-.05-.76-.05-1.14,0-2.63-.13-5.26,0-7.89a5.54,5.54,0,0,1,.19-1.57,49.59,49.59,0,0,1,2.69-7.3,30.2,30.2,0,0,1,3.22-5.13,27.44,27.44,0,0,1,5.62-5.88,36.52,36.52,0,0,1,6-3.5,24.28,24.28,0,0,1,4-1.11l1.55-.37a8.56,8.56,0,0,1,1.67-.2,31,31,0,0,1,8.28.6,46.8,46.8,0,0,1,6.63,2c1.64.87,3.44,1.5,5,2.46a52.46,52.46,0,0,1,5.91,4.41c.43.4.86.79,1.26,1.2a57.19,57.19,0,0,1,4.79,6.36c.63,1.27,1.16,2.58,1.76,3.86.54,1.65,1.07,3.29,1.58,4.95a7.48,7.48,0,0,1,.14,1.56c-.09,2.5.19,5-.22,7.48a2.19,2.19,0,0,1-.2.79,1.08,1.08,0,0,1-.11.18h.15a4,4,0,0,0,.21-1c1.32-3.56,3.86-6.42,6.38-9.3.24-.25.51-.48.77-.72a38,38,0,0,1,6-4.44,28.19,28.19,0,0,1,5.6-2.42,29.86,29.86,0,0,1,4.87-1.1c1.91-.08,3.82-.12,5.73,0a30.21,30.21,0,0,1,4.9,1.1,21,21,0,0,1,6.21,3,20.76,20.76,0,0,1,5,5.48,11.33,11.33,0,0,1,1.2,2.54c.32.91.68,1.81,1,2.73a4.55,4.55,0,0,1,.2,1.16c0,2.6.22,5.21,0,7.81-.16.9-.44,1.77-.68,2.65a38.27,38.27,0,0,1-3.19,7.81c-1,1.48-1.66,3.1-2.69,4.54s-1.9,2.77-2.8,4.25c1.11.44,2-.19,2.86-.2a38.94,38.94,0,0,1,5,0,44.3,44.3,0,0,1,5.13,1,5.59,5.59,0,0,1,.72.26c2,1.08,4.49,1.63,5.53,3.86l1.18,1.26a17,17,0,0,1,2.62,5.29l0,4.81L1080.37,82l-1.56,3.4a3,3,0,0,0-1.09,1.88A4.66,4.66,0,0,1,1075,91l-3.2,3.4c0,.63-1.08,1.3.08,1.9,1.89.14,3.8-.24,5.68.4,3.3,1.1,4.7,2.69,5,5.91l-2.31,3.82-2.54,2.41a3.56,3.56,0,0,1-3.12,2.49l-2.7,1.85c-.66.84-.27,1.44.55,1.92a33.08,33.08,0,0,1,9,3.88c1.07.72,1.81,1.52,1.45,2.82-1.29,1.23-3.07,1.73-4.61,2.59-1.59,1.62-4,1.57-6,2.26-1.76.46-3.58.62-5.36,1-1.89.17-3.75.57-5.65.66-3.51.4-7,.45-10.58.63a5.45,5.45,0,0,1-.89.2,15.12,15.12,0,0,1-2.85.13,24,24,0,0,0-9.41,0c-1.77.43-3.47-.32-5.21-.47-2.66-.22-5.24.5-7.88.45a2.92,2.92,0,0,1-1.88-.65l-1-.06a15.14,15.14,0,0,0-5.73.12,9,9,0,0,1-4.45-.14l-3.18.14a24.7,24.7,0,0,0-4.26.76,4,4,0,0,1-3.69-.33l-3.18,0a35.2,35.2,0,0,0-5.13,1A3.54,3.54,0,0,1,989.21,130.11Z" transform="translate(0 0)"/><path class="cls-13" d="M1036.11,35.56c-1.74,4.25-1.81,8.72-3.34,12.88a32.51,32.51,0,0,1-7.49,11.12,3.07,3.07,0,0,1-3.27,1.09,2.61,2.61,0,0,1-1.51-3.07,31.42,31.42,0,0,1,7.26-16.15A19,19,0,0,1,1036.11,35.56Z" transform="translate(0 0)"/><path class="cls-13" d="M1035.15,79.28c-.53,3.42-3,5.9-5.07,8.57-2.83,3.71-6.67,6.54-10.65,9.2a3.93,3.93,0,0,1-.91.47c-.93.33-1.82,1.29-2.87.37-.86-.76-.34-1.65,0-2.46,1.85-4.2,5-7.67,7.87-11.29a18.55,18.55,0,0,1,9.17-6.56C1034.57,77,1035.4,77.61,1035.15,79.28Z" transform="translate(0 0)"/><path class="cls-13" d="M962.43,105.54c-4.81-.13-9.19-1.3-12.77-4.38-.78-.67-1.63-1.41-1.09-2.47a3.13,3.13,0,0,1,2.86-1.83,30.74,30.74,0,0,1,14.22,3.08c1.56.72,2.9,1.84,2.24,3.63-.58,1.57-2.17,2-3.87,2Z" transform="translate(0 0)"/><path class="cls-13" d="M973.84,50.38a3.29,3.29,0,0,1-4.75,2.91,20.24,20.24,0,0,1-9.72-8.78c-.94-1.65.19-3,2-2.37,4,1.5,8.29,2.81,11.38,5.87A3.41,3.41,0,0,1,973.84,50.38Z" transform="translate(0 0)"/><path class="cls-14" d="M1061.18,80.07c-1.35-.17-2.44-.41-3-1.51a3,3,0,0,1,.69-3.75c2.94-2.9,6.93-4,11-4.8,1.66-.35,2.16.94,2,2.14a5.9,5.9,0,0,1-1.84,3.64A19.13,19.13,0,0,1,1061.18,80.07Z" transform="translate(0 0)"/><path class="cls-15" d="M1053.3,103a11.87,11.87,0,0,1,4.9,1c1.52.69,1.73,1.65.14,2.43a20.37,20.37,0,0,1-11.59,2.23c-1.91-.24-3.91.09-5.7-.74-.88-.41-2.39-.24-2.4-1.51s1.36-1.57,2.46-1.73C1045.16,104,1049.23,103.51,1053.3,103Z" transform="translate(0 0)"/><path class="cls-16" d="M1009.77,122.34a46.4,46.4,0,0,1,7.14-10.42,8.5,8.5,0,0,1,3.64-2.3,3,3,0,0,1,3.15.7,2.38,2.38,0,0,1,.7,3.06,5.09,5.09,0,0,1-.47.86C1020.24,118.4,1015,120.38,1009.77,122.34Z" transform="translate(0 0)"/><path class="cls-17" d="M973.39,123.78l-1.13-.43c-1.56-.69-3.28.12-4.85-.46l-.56.18a2.62,2.62,0,0,1-.68-.12c-.71-.24-1.76.09-2-1a.53.53,0,0,1,.58-.25l1,.11c1.59-.53,3.31.21,4.89-.42h8.49c1.21.58,2.59-.09,3.8.42a19,19,0,0,1,6.9,1.31c.84.31,2.19.5,1.95,1.6s-1.68,1-2.65.9c-4.08-.48-8.14-1.06-12.21-1.6-.34,0-.69-.07-1-.1A3.86,3.86,0,0,1,973.39,123.78Z" transform="translate(0 0)"/><path class="cls-19" d="M1007.19,118.93a62.2,62.2,0,0,1,4.49-15.23c.3-.69.65-1.63,1.87-1.22,1.06.36.62,1.25.53,1.84-.73,4.82-2.94,9.18-5.25,13.5a8.82,8.82,0,0,0-1.11,2.13C1006.72,120,1007,119.43,1007.19,118.93Z" transform="translate(0 0)"/><path class="cls-18" d="M987.28,108.57c2.43.08,7.46,5.44,11.9,12.5C996.86,120.7,989.38,112.91,987.28,108.57Z" transform="translate(0 0)"/></g><g id="Fruit"><path class="cls-20" d="M141.65,66.93A6.31,6.31,0,0,1,140,62.45a8.72,8.72,0,0,0-.43-3,5.72,5.72,0,0,0-4.28-4.19,1.07,1.07,0,0,1-.6-.31c-.49,0-1,.18-1.5.23l-.28.06a5.3,5.3,0,0,0-3.19,2,7.7,7.7,0,0,0-1.58,5,6.79,6.79,0,0,1-1.72,4.7A7.5,7.5,0,0,0,126,76.9a9,9,0,0,0,5.23,3,11.71,11.71,0,0,0,8-.88A7.5,7.5,0,0,0,141.65,66.93Z" transform="translate(0 0)"/><path class="cls-21" d="M69.41,79c0-5.46,5.13-8.49,9.47-6.15a2.56,2.56,0,0,0,2.82,0,6.24,6.24,0,0,1,7.18.64A5.71,5.71,0,0,1,91,79.55a22.72,22.72,0,0,1-2.88,7.78c-1.84,2.83-4.92,3.66-7.36,2.24a1,1,0,0,0-1,0c-3.08,1.66-5.8.29-7.58-2.61A20.48,20.48,0,0,1,69.41,79Z" transform="translate(0 0)"/><path class="cls-21" d="M323.57,26.75c0-5.46,5.12-8.49,9.47-6.15a2.58,2.58,0,0,0,2.82,0,6.25,6.25,0,0,1,7.18.64,5.71,5.71,0,0,1,2.09,6.05,22.49,22.49,0,0,1-2.88,7.79c-1.84,2.83-4.92,3.66-7.36,2.24a1,1,0,0,0-1-.06c-3.08,1.67-5.79.3-7.57-2.6A20.15,20.15,0,0,1,323.57,26.75Z" transform="translate(0 0)"/><path class="cls-21" d="M520.57,76.75c0-5.46,5.12-8.49,9.47-6.15a2.58,2.58,0,0,0,2.82,0,6.25,6.25,0,0,1,7.18.64,5.71,5.71,0,0,1,2.09,6,22.49,22.49,0,0,1-2.88,7.79c-1.84,2.83-4.92,3.66-7.36,2.24a1,1,0,0,0-1-.06c-3.08,1.67-5.79.3-7.57-2.6A20.15,20.15,0,0,1,520.57,76.75Z" transform="translate(0 0)"/><path class="cls-21" d="M819.57,46.75c0-5.46,5.12-8.49,9.47-6.15a2.58,2.58,0,0,0,2.82,0,6.25,6.25,0,0,1,7.18.64,5.71,5.71,0,0,1,2.09,6,22.49,22.49,0,0,1-2.88,7.79c-1.84,2.83-4.92,3.66-7.36,2.24a1,1,0,0,0-1-.06c-3.08,1.67-5.79.3-7.57-2.6A20.15,20.15,0,0,1,819.57,46.75Z" transform="translate(0 0)"/><path class="cls-20" d="M330.81,89.77a6.27,6.27,0,0,1-1.68-4.48,8.45,8.45,0,0,0-.44-3,5.68,5.68,0,0,0-4.27-4.19,1.21,1.21,0,0,1-.61-.31c-.48,0-1,.17-1.49.23l-.28.06a5.31,5.31,0,0,0-3.19,2,7.67,7.67,0,0,0-1.58,5,6.77,6.77,0,0,1-1.73,4.7,7.51,7.51,0,0,0-.34,9.91,9,9,0,0,0,5.23,3,11.71,11.71,0,0,0,8-.88A7.5,7.5,0,0,0,330.81,89.77Z" transform="translate(0 0)"/><path class="cls-20" d="M615.81,61.77a6.27,6.27,0,0,1-1.68-4.48,8.45,8.45,0,0,0-.44-2.95,5.68,5.68,0,0,0-4.27-4.19,1.21,1.21,0,0,1-.61-.31c-.48,0-1,.17-1.49.23l-.28.06a5.31,5.31,0,0,0-3.19,2,7.67,7.67,0,0,0-1.58,5,6.77,6.77,0,0,1-1.73,4.7,7.51,7.51,0,0,0-.34,9.91,9,9,0,0,0,5.23,3,11.71,11.71,0,0,0,8-.88A7.5,7.5,0,0,0,615.81,61.77Z" transform="translate(0 0)"/><path class="cls-20" d="M747.81,112.77a6.27,6.27,0,0,1-1.68-4.48,8.45,8.45,0,0,0-.44-3,5.68,5.68,0,0,0-4.27-4.19,1.21,1.21,0,0,1-.61-.31c-.48,0-1,.17-1.49.23l-.28.06a5.31,5.31,0,0,0-3.19,2,7.67,7.67,0,0,0-1.58,5,6.77,6.77,0,0,1-1.73,4.7,7.51,7.51,0,0,0-.34,9.91,9,9,0,0,0,5.23,3,11.71,11.71,0,0,0,8-.88A7.5,7.5,0,0,0,747.81,112.77Z" transform="translate(0 0)"/><path class="cls-21" d="M947.77,77a6.41,6.41,0,0,1,9.47-5.8,2.7,2.7,0,0,0,2.82,0,6.56,6.56,0,0,1,7.18.6,5.23,5.23,0,0,1,2.09,5.71,20.46,20.46,0,0,1-2.88,7.33c-1.84,2.67-4.92,3.45-7.36,2.11a1,1,0,0,0-1,0c-3.08,1.57-5.79.27-7.57-2.46A18.22,18.22,0,0,1,947.77,77Z" transform="translate(0 0)"/><path class="cls-20" d="M1001,78.37a6.27,6.27,0,0,1-1.68-4.48,8.45,8.45,0,0,0-.44-3,5.68,5.68,0,0,0-4.27-4.19,1.21,1.21,0,0,1-.61-.31c-.48,0-1,.17-1.49.23l-.28.06a5.31,5.31,0,0,0-3.19,2,7.67,7.67,0,0,0-1.58,5,6.77,6.77,0,0,1-1.73,4.7,7.51,7.51,0,0,0-.34,9.91,9,9,0,0,0,5.23,3,11.71,11.71,0,0,0,8-.88A7.5,7.5,0,0,0,1001,78.37Z" transform="translate(0 0)"/><circle class="cls-22" cx="389" cy="44" r="7"/><circle class="cls-22" cx="542" cy="29" r="7"/><circle class="cls-22" cx="839" cy="112" r="7"/><circle class="cls-22" cx="948" cy="121" r="7"/><circle class="cls-22" cx="190" cy="35" r="7"/></g></svg>