<svg xmlns="http://www.w3.org/2000/svg" xmlns:xlink="http://www.w3.org/1999/xlink" viewBox="0 0 1920 1080"><defs><style>.cls-1{fill:url(#linear-gradient);}.cls-2{fill:#f9f9f9;}.cls-3{fill:#f5f5f6;}.cls-4{fill:#e9ebea;}.cls-5{fill:#e5e7e8;}.cls-6{fill:#e7e9eb;}.cls-7{fill:#eaebed;}.cls-8{fill:#e7e8ea;}.cls-9{fill:#e77dde;}.cls-10{fill:#e57ae0;}.cls-11{fill:#a1cfbb;}.cls-12{fill:#a2d3bc;}.cls-13{fill:#dadcde;}.cls-14{fill:#594d7f;}.cls-15{fill:#5b4f85;}.cls-16{fill:#a7d9c6;}.cls-17{fill:#a7dac6;}.cls-18{fill:#595081;}.cls-19{fill:#5e5187;}.cls-20{fill:#b5eed2;}.cls-21{fill:#d379cd;}.cls-22{fill:#707ac8;}.cls-23{fill:#6b74c2;}.cls-24{fill:#6a74c4;}</style><linearGradient id="linear-gradient" x1="210.5" y1="1289.5" x2="1709.5" y2="-209.5" gradientUnits="userSpaceOnUse"><stop offset="0" stop-color="#152634"/><stop offset="1" stop-color="#173046"/></linearGradient></defs><g id="Layer_2" data-name="Layer 2"><g id="Layer_1-2" data-name="Layer 1"><rect class="cls-1" x="0.5" y="0.5" width="1919" height="1079"/><path d="M1919,1V1079H1V1H1919m1-1H0V1080H1920V0Z"/><path class="cls-2" d="M427.79,343.43c14.72-2.67,22.83-10.93,25.11-26.32,1.83,16,10.93,23.38,25.32,26.27-15.74,1.27-23.05,9.85-24.72,25.48C449.23,355.82,444.46,343.86,427.79,343.43Z"/><path class="cls-3" d="M209.21,261.19c2.67,10.22,6.49,17.86,18.71,18.43-10.08,3.94-18.12,8-17.46,20.61-5.09-8.29-6-19.77-19.76-19.12C201.14,278.1,207.81,272.62,209.21,261.19Z"/><path class="cls-4" d="M334.61,142.09c1.66,7,6.3,9.15,13,12.17-7.53,1.27-11.55,4-12.2,11-2.21-6.16-4.64-10.29-11.12-10.1C327.27,150,336,151.14,334.61,142.09Z"/><path class="cls-5" d="M555.43,260.68C556,267,560,269.57,567.33,272c-7.26,1.6-11.39,3.86-10.65,11.09-4.85-3.92-5.12-11.37-12.43-10.54C549.47,269.83,553.32,266.47,555.43,260.68Z"/><path class="cls-6" d="M634.73,465c-1.53-5.93-4.81-8.72-11.63-9.59,5.44-3.17,11.18-4.08,11.53-11.32,1.87,6.61,6.56,8.73,15.11,11C640.56,455.78,636.76,458.83,634.73,465Z"/><path class="cls-7" d="M569,90.76c2.43,5.75,5.9,8.92,14.28,10-8.42,2-12.63,5-13.9,11.68-2.19-5.63-3.92-10.43-10.67-10.92C563.91,99.19,568.15,96.91,569,90.76Z"/><path class="cls-8" d="M360.74,507.54c5.21-2,6.79-6.24,9.93-11.15,1.56,5.4,3.23,9.37,11.14,9.51-6.15,4-10.76,5.66-10.26,12.33C367.16,514.24,366.54,508.3,360.74,507.54Z"/><path class="cls-9" d="M660.77,142.39c-3-.21-4.44-1.94-4.46-4.9,0-3.82,2.43-5,5.61-4.72s4,2.52,3.82,5.37C665.52,141.26,663.7,142.53,660.77,142.39Z"/><path class="cls-10" d="M413.68,102.53c.46,3.65-1.67,4.09-4.51,4s-4.85-.64-4.42-4.23c.36-3,1.85-4.56,4.76-4.73C413,97.4,413.42,99.89,413.68,102.53Z"/><path class="cls-11" d="M180.23,156.85c-2.36-.08-4.13-1.12-4.31-3.77s1-4.2,3.69-4.18c2.41,0,4.31,1.31,4.63,3.62C184.59,155.09,182.65,156.35,180.23,156.85Z"/><path class="cls-12" d="M306.44,311.36c2.3.52,3.94,2,3.77,4.45s-1.74,4.14-4.25,3.87a4,4,0,0,1-3.69-4.49C302.39,312.62,303.68,311.14,306.44,311.36Z"/><path class="cls-13" d="M260.42,416.77c-1.7,1.51-3.45,4.29-5.21,4.29-1.92,0-3.84-2.56-5.76-4,2-1.76,3.72-4.49,5.92-4.92C256.71,411.86,258.72,415.11,260.42,416.77Z"/><path class="cls-14" d="M242.72,97.59c2.23.37,4.21,1.13,3.87,4a3.76,3.76,0,0,1-3.41,3.51,3.83,3.83,0,0,1-4.4-3.56C238.4,98.67,240.53,98,242.72,97.59Z"/><path class="cls-15" d="M569.75,188.38a3.57,3.57,0,0,1-3.69-3.23c-.34-2.49,1-4.34,3.53-4.43s3.88,1.79,3.69,4.25A3.53,3.53,0,0,1,569.75,188.38Z"/><path class="cls-16" d="M452.64,193.22c.89-2.82,2.29-4.37,4.77-4.1s4,1.66,3.86,4.27-1.94,3.84-4.35,3.57A5.21,5.21,0,0,1,452.64,193.22Z"/><path class="cls-17" d="M213.47,537.12c.16,2.78-1.46,3.88-3.82,3.84-2.14-.05-4.34-.68-4.52-3.36s1.5-3.8,3.87-4S212.93,534.68,213.47,537.12Z"/><path class="cls-18" d="M622.41,364.72c-2,0-3.75-.81-3.71-3,0-2,1.5-3.26,3.56-3.44s3.56.95,3.62,3.08S624.53,364.62,622.41,364.72Z"/><path class="cls-19" d="M179.41,437.12c-.51,2-1.71,3.1-3.76,3.07a3,3,0,0,1-3.25-3.36,3.07,3.07,0,0,1,3.55-3.1C178,433.83,179.05,435.14,179.41,437.12Z"/><path class="cls-20" d="M517.94,412.82a3.23,3.23,0,0,1-3.35,3.13c-2,.08-3.53-.76-3.74-3-.24-2.66.94-4.2,3.7-4C516.59,409.19,517.75,410.41,517.94,412.82Z"/><path class="cls-21" d="M551.69,526.59c-1.89-.4-3.35-1.48-3.43-3.49-.09-2.28,1.62-3,3.53-3a2.57,2.57,0,0,1,2.75,2.61A3.32,3.32,0,0,1,551.69,526.59Z"/><path class="cls-22" d="M276.77,196.33c-.53,1.38-.61,3-2.48,3s-3.68-1.25-3.69-2.92,1.68-2.92,3.7-2.87C276.17,193.61,276.26,195.18,276.77,196.33Z"/><path class="cls-23" d="M392.57,260.39c-1.28-.36-2.8-.37-3-2.27a3,3,0,0,1,3-3.44c.95,0,2.44,1.36,2.8,2.43C396.19,259.43,394.37,260.05,392.57,260.39Z"/><path class="cls-24" d="M660.88,247a2.58,2.58,0,0,1,3,2.27c.34,2.21-1.6,1.95-2.81,1.9-.92,0-2.5-.68-2.59-1.24A2.56,2.56,0,0,1,660.88,247Z"/><path class="cls-2" d="M942.84,794.09c14.72-2.67,22.84-10.93,25.11-26.32,1.83,16,10.93,23.38,25.32,26.26-15.74,1.27-23,9.86-24.72,25.49C964.28,806.47,959.51,794.52,942.84,794.09Z"/><path class="cls-3" d="M724.27,711.84c2.66,10.23,6.48,17.87,18.7,18.43-10.08,4-18.12,8-17.46,20.62-5.09-8.29-6-19.77-19.76-19.12C716.19,728.76,722.86,723.28,724.27,711.84Z"/><path class="cls-4" d="M849.66,592.75c1.66,7,6.3,9.14,13,12.16-7.54,1.28-11.55,4-12.21,11-2.21-6.16-4.64-10.29-11.12-10.1C842.32,600.66,851,601.8,849.66,592.75Z"/><path class="cls-5" d="M1070.48,711.33c.54,6.34,4.52,8.9,11.9,11.35-7.26,1.6-11.39,3.86-10.65,11.09-4.85-3.92-5.12-11.37-12.43-10.55C1064.52,720.49,1068.37,717.13,1070.48,711.33Z"/><path class="cls-6" d="M1149.78,915.65c-1.53-5.93-4.81-8.73-11.63-9.59,5.44-3.17,11.19-4.08,11.53-11.32,1.87,6.61,6.56,8.73,15.11,11C1155.61,906.44,1151.82,909.49,1149.78,915.65Z"/><path class="cls-7" d="M1084,541.41c2.43,5.76,5.9,8.93,14.28,10.05-8.42,2-12.63,5-13.9,11.68-2.19-5.63-3.92-10.43-10.67-10.93C1079,549.85,1083.2,547.57,1084,541.41Z"/><path class="cls-8" d="M875.79,958.2c5.21-2,6.79-6.24,9.93-11.15,1.56,5.4,3.23,9.36,11.14,9.5-6.15,4-10.76,5.67-10.26,12.34C882.21,964.9,881.59,959,875.79,958.2Z"/><path class="cls-9" d="M1175.82,593.05c-3-.21-4.44-1.95-4.46-4.9,0-3.83,2.43-5,5.61-4.72s4,2.52,3.82,5.37C1180.57,591.91,1178.75,593.18,1175.82,593.05Z"/><path class="cls-10" d="M928.74,553.19c.45,3.65-1.68,4.09-4.51,4s-4.86-.64-4.43-4.23c.36-3,1.85-4.56,4.76-4.73C928,548.06,928.47,550.54,928.74,553.19Z"/><path class="cls-11" d="M695.28,607.51c-2.35-.08-4.13-1.12-4.31-3.77s1-4.2,3.69-4.18c2.41,0,4.31,1.31,4.63,3.62C699.64,605.75,697.7,607,695.28,607.51Z"/><path class="cls-12" d="M821.49,762c2.3.51,3.94,2,3.77,4.44s-1.74,4.15-4.25,3.88a4,4,0,0,1-3.69-4.49C817.44,763.27,818.73,761.8,821.49,762Z"/><path class="cls-13" d="M775.48,867.43c-1.71,1.51-3.46,4.28-5.22,4.29-1.92,0-3.84-2.57-5.76-4,2-1.76,3.72-4.49,5.92-4.93C771.76,862.52,773.77,865.77,775.48,867.43Z"/><path class="cls-14" d="M757.77,548.25c2.23.37,4.21,1.13,3.87,4a3.77,3.77,0,0,1-3.41,3.51,3.83,3.83,0,0,1-4.4-3.57C753.45,549.32,755.58,548.64,757.77,548.25Z"/><path class="cls-15" d="M1084.81,639a3.58,3.58,0,0,1-3.7-3.23c-.34-2.49,1-4.34,3.53-4.43s3.88,1.79,3.69,4.25A3.52,3.52,0,0,1,1084.81,639Z"/><path class="cls-16" d="M967.69,643.88c.9-2.82,2.29-4.37,4.77-4.1s4,1.66,3.87,4.27-2,3.84-4.36,3.57A5.21,5.21,0,0,1,967.69,643.88Z"/><path class="cls-17" d="M728.52,987.78c.16,2.78-1.46,3.88-3.82,3.83-2.14,0-4.33-.67-4.52-3.35s1.5-3.8,3.87-4S728,985.34,728.52,987.78Z"/><path class="cls-18" d="M1137.46,815.38c-2,0-3.75-.81-3.71-3,0-2,1.5-3.27,3.56-3.44s3.56,1,3.62,3.08S1139.58,815.28,1137.46,815.38Z"/><path class="cls-19" d="M694.46,887.78c-.51,2-1.71,3.1-3.76,3.07a3,3,0,0,1-3.24-3.37,3.05,3.05,0,0,1,3.54-3.1C693.08,884.48,694.1,885.8,694.46,887.78Z"/><path class="cls-20" d="M1033,863.48a3.23,3.23,0,0,1-3.35,3.13c-2,.08-3.53-.76-3.73-3-.25-2.66.93-4.2,3.69-4C1031.65,859.84,1032.8,861.07,1033,863.48Z"/><path class="cls-21" d="M1066.74,977.24c-1.89-.39-3.35-1.47-3.43-3.48-.09-2.29,1.62-3,3.53-3a2.57,2.57,0,0,1,2.75,2.61C1069.69,975.48,1068.79,976.83,1066.74,977.24Z"/><path class="cls-22" d="M791.82,647c-.53,1.38-.61,3-2.47,3s-3.69-1.25-3.7-2.92,1.68-2.93,3.7-2.88S791.31,645.84,791.82,647Z"/><path class="cls-23" d="M907.62,711.05c-1.28-.36-2.8-.37-3-2.27a3,3,0,0,1,3-3.44c.94,0,2.43,1.36,2.79,2.43C911.24,710.08,909.43,710.7,907.62,711.05Z"/><path class="cls-24" d="M1175.93,697.61a2.57,2.57,0,0,1,3,2.27c.34,2.21-1.6,1.94-2.81,1.9-.92,0-2.5-.68-2.59-1.25A2.55,2.55,0,0,1,1175.93,697.61Z"/><path class="cls-2" d="M1621.26,310.87c14.72-2.66,22.83-10.93,25.1-26.32,1.83,16,10.94,23.38,25.32,26.27-15.74,1.27-23,9.85-24.72,25.48C1642.69,323.26,1637.93,311.3,1621.26,310.87Z"/><path class="cls-3" d="M1402.68,228.63c2.67,10.22,6.49,17.86,18.7,18.43-10.08,3.94-18.11,8-17.45,20.61-5.1-8.28-6-19.77-19.77-19.12C1394.6,245.54,1401.28,240.06,1402.68,228.63Z"/><path class="cls-4" d="M1528.07,109.53c1.67,7,6.31,9.15,13,12.17-7.53,1.28-11.55,4-12.2,11-2.21-6.17-4.64-10.3-11.13-10.11C1520.73,117.44,1529.43,118.58,1528.07,109.53Z"/><path class="cls-5" d="M1748.9,228.12c.54,6.33,4.51,8.89,11.89,11.34-7.25,1.61-11.39,3.86-10.65,11.09-4.84-3.92-5.12-11.37-12.42-10.54C1742.93,237.27,1746.78,233.91,1748.9,228.12Z"/><path class="cls-6" d="M1828.19,432.44c-1.53-5.94-4.81-8.73-11.62-9.59,5.44-3.17,11.18-4.09,11.52-11.33,1.88,6.62,6.56,8.73,15.11,11C1834,423.22,1830.23,426.27,1828.19,432.44Z"/><path class="cls-7" d="M1762.45,58.2c2.42,5.75,5.89,8.92,14.27,10-8.42,2-12.63,5-13.89,11.69-2.2-5.63-3.92-10.43-10.67-10.93C1757.37,66.63,1761.61,64.35,1762.45,58.2Z"/><path class="cls-8" d="M1554.21,475c5.2-2,6.79-6.24,9.92-11.14,1.57,5.39,3.23,9.36,11.14,9.5-6.15,4-10.75,5.67-10.26,12.33C1560.63,481.68,1560,475.74,1554.21,475Z"/><path class="cls-9" d="M1854.23,109.83c-3-.21-4.44-1.94-4.45-4.9,0-3.82,2.43-5,5.6-4.72s4,2.52,3.83,5.37C1859,108.7,1857.16,110,1854.23,109.83Z"/><path class="cls-10" d="M1607.15,70c.46,3.65-1.67,4.09-4.51,4s-4.85-.64-4.42-4.23c.35-3,1.84-4.56,4.76-4.73C1606.43,64.84,1606.89,67.33,1607.15,70Z"/><path class="cls-11" d="M1373.7,124.29c-2.36-.08-4.13-1.12-4.32-3.77s1-4.2,3.69-4.18c2.42,0,4.32,1.31,4.63,3.62C1378.06,122.53,1376.12,123.79,1373.7,124.29Z"/><path class="cls-12" d="M1499.9,278.8c2.3.52,3.95,2,3.77,4.45s-1.73,4.15-4.24,3.87a4,4,0,0,1-3.69-4.49C1495.86,280.06,1497.14,278.59,1499.9,278.8Z"/><path class="cls-13" d="M1453.89,384.21c-1.7,1.51-3.46,4.29-5.21,4.29-1.92,0-3.84-2.56-5.76-4,1.95-1.76,3.71-4.48,5.92-4.92C1450.18,379.3,1452.19,382.55,1453.89,384.21Z"/><path class="cls-14" d="M1436.18,65c2.23.37,4.22,1.13,3.88,4a3.76,3.76,0,0,1-3.42,3.51,3.82,3.82,0,0,1-4.39-3.56C1431.86,66.11,1434,65.43,1436.18,65Z"/><path class="cls-15" d="M1763.22,155.82a3.58,3.58,0,0,1-3.7-3.23c-.33-2.48,1-4.34,3.53-4.43s3.89,1.79,3.69,4.26A3.52,3.52,0,0,1,1763.22,155.82Z"/><path class="cls-16" d="M1646.11,160.66c.89-2.82,2.29-4.37,4.76-4.1s4,1.66,3.87,4.27-1.94,3.84-4.35,3.58A5.22,5.22,0,0,1,1646.11,160.66Z"/><path class="cls-17" d="M1406.93,504.56c.17,2.78-1.46,3.88-3.81,3.84-2.14,0-4.34-.68-4.53-3.36s1.51-3.8,3.87-4S1406.39,502.12,1406.93,504.56Z"/><path class="cls-18" d="M1815.87,332.16c-2,0-3.74-.81-3.71-3,0-2,1.5-3.26,3.56-3.44s3.57.95,3.62,3.08S1818,332.06,1815.87,332.16Z"/><path class="cls-19" d="M1372.88,404.57a3.58,3.58,0,0,1-3.77,3.06,3,3,0,0,1-3.24-3.36,3.07,3.07,0,0,1,3.55-3.1C1371.5,401.27,1372.52,402.58,1372.88,404.57Z"/><path class="cls-20" d="M1711.41,380.26a3.24,3.24,0,0,1-3.36,3.13c-2,.08-3.53-.76-3.73-3-.24-2.65.93-4.2,3.7-4C1710.06,376.63,1711.22,377.85,1711.41,380.26Z"/><path class="cls-21" d="M1745.15,494c-1.89-.4-3.34-1.48-3.42-3.49-.09-2.28,1.61-3,3.53-3a2.56,2.56,0,0,1,2.75,2.61C1748.11,492.27,1747.21,493.62,1745.15,494Z"/><path class="cls-22" d="M1470.24,163.78c-.54,1.37-.62,3-2.48,3s-3.68-1.24-3.69-2.92,1.68-2.92,3.7-2.87S1469.72,162.62,1470.24,163.78Z"/><path class="cls-23" d="M1586,227.83c-1.28-.36-2.8-.37-3-2.27a3,3,0,0,1,3-3.44c.94,0,2.44,1.37,2.8,2.43C1589.66,226.87,1587.84,227.49,1586,227.83Z"/><path class="cls-24" d="M1854.35,214.39a2.59,2.59,0,0,1,3.05,2.27c.33,2.21-1.61,2-2.81,1.9-.92,0-2.51-.68-2.59-1.24A2.55,2.55,0,0,1,1854.35,214.39Z"/><path class="cls-2" d="M1034.17,284.15c14.72-2.67,22.83-10.93,25.1-26.32,1.83,16,10.94,23.38,25.33,26.27-15.75,1.27-23,9.85-24.73,25.48C1055.6,296.54,1050.84,284.58,1034.17,284.15Z"/><path class="cls-3" d="M815.59,201.91c2.67,10.22,6.49,17.86,18.7,18.43-10.08,3.94-18.11,8-17.45,20.61-5.1-8.29-6-19.77-19.77-19.12C807.51,218.82,814.19,213.34,815.59,201.91Z"/><path class="cls-4" d="M941,82.81c1.67,7,6.31,9.15,13,12.17-7.53,1.27-11.55,4-12.2,11-2.21-6.16-4.64-10.29-11.13-10.1C933.64,90.72,942.34,91.86,941,82.81Z"/><path class="cls-5" d="M1161.81,201.4c.54,6.33,4.51,8.89,11.89,11.34-7.25,1.6-11.38,3.86-10.65,11.09-4.84-3.92-5.12-11.37-12.42-10.54C1155.84,210.55,1159.69,207.19,1161.81,201.4Z"/><path class="cls-6" d="M1241.1,405.71c-1.53-5.93-4.81-8.72-11.62-9.59,5.44-3.17,11.18-4.08,11.52-11.32,1.88,6.61,6.56,8.73,15.11,11C1246.94,396.5,1243.14,399.55,1241.1,405.71Z"/><path class="cls-7" d="M1175.36,31.48c2.43,5.75,5.89,8.92,14.27,10-8.42,2-12.63,5-13.89,11.68-2.2-5.63-3.92-10.43-10.67-10.92C1170.28,39.91,1174.52,37.63,1175.36,31.48Z"/><path class="cls-8" d="M967.12,448.26c5.2-1.95,6.79-6.24,9.92-11.15,1.57,5.4,3.23,9.37,11.14,9.51-6.15,4-10.75,5.66-10.26,12.33C973.54,455,972.92,449,967.12,448.26Z"/><path class="cls-9" d="M1267.14,83.11c-3-.21-4.44-1.94-4.45-4.9,0-3.82,2.43-5,5.6-4.72s4,2.52,3.83,5.37C1271.9,82,1270.07,83.25,1267.14,83.11Z"/><path class="cls-10" d="M1020.06,43.25c.46,3.65-1.67,4.09-4.51,4s-4.85-.64-4.42-4.23c.35-2.95,1.84-4.56,4.76-4.73C1019.34,38.12,1019.8,40.61,1020.06,43.25Z"/><path class="cls-11" d="M786.61,97.57c-2.36-.08-4.13-1.12-4.32-3.77s1-4.2,3.69-4.18c2.42,0,4.32,1.31,4.63,3.62C791,95.81,789,97.07,786.61,97.57Z"/><path class="cls-12" d="M912.81,252.08c2.3.52,4,2,3.77,4.45s-1.73,4.14-4.24,3.87a4,4,0,0,1-3.69-4.49C908.77,253.34,910.05,251.86,912.81,252.08Z"/><path class="cls-13" d="M866.8,357.49c-1.7,1.51-3.46,4.29-5.21,4.29-1.92,0-3.84-2.56-5.76-4,1.95-1.76,3.71-4.48,5.92-4.92C863.09,352.58,865.1,355.83,866.8,357.49Z"/><path class="cls-14" d="M849.09,38.31c2.23.37,4.22,1.13,3.88,4a3.76,3.76,0,0,1-3.42,3.51,3.82,3.82,0,0,1-4.39-3.56C844.77,39.39,846.9,38.7,849.09,38.31Z"/><path class="cls-15" d="M1176.13,129.1a3.58,3.58,0,0,1-3.7-3.23c-.33-2.49,1-4.34,3.53-4.43s3.89,1.79,3.7,4.25A3.53,3.53,0,0,1,1176.13,129.1Z"/><path class="cls-16" d="M1059,133.94c.89-2.82,2.29-4.37,4.76-4.1s4,1.66,3.87,4.27-1.94,3.84-4.35,3.57A5.21,5.21,0,0,1,1059,133.94Z"/><path class="cls-17" d="M819.84,477.84c.17,2.78-1.45,3.88-3.81,3.84-2.14-.05-4.34-.68-4.53-3.36s1.51-3.8,3.87-3.95S819.3,475.4,819.84,477.84Z"/><path class="cls-18" d="M1228.79,305.44c-2,0-3.75-.81-3.72-3,0-2,1.5-3.26,3.56-3.44s3.57.95,3.63,3.08S1230.91,305.34,1228.79,305.44Z"/><path class="cls-19" d="M785.79,377.84a3.59,3.59,0,0,1-3.77,3.07,3,3,0,0,1-3.24-3.36,3.07,3.07,0,0,1,3.55-3.1C784.41,374.55,785.43,375.86,785.79,377.84Z"/><path class="cls-20" d="M1124.32,353.54a3.23,3.23,0,0,1-3.35,3.13c-2,.08-3.54-.76-3.74-3-.24-2.66.93-4.2,3.7-4C1123,349.91,1124.13,351.13,1124.32,353.54Z"/><path class="cls-21" d="M1158.06,467.31c-1.89-.4-3.34-1.48-3.42-3.49-.09-2.28,1.61-3,3.53-3a2.57,2.57,0,0,1,2.75,2.61A3.32,3.32,0,0,1,1158.06,467.31Z"/><path class="cls-22" d="M883.15,137.05c-.54,1.38-.62,3-2.48,3s-3.68-1.25-3.69-2.92,1.68-2.92,3.7-2.87S882.63,135.9,883.15,137.05Z"/><path class="cls-23" d="M998.94,201.11c-1.28-.36-2.8-.37-3-2.27a3,3,0,0,1,3-3.44c.94,0,2.44,1.36,2.8,2.43C1002.57,200.15,1000.75,200.77,998.94,201.11Z"/><path class="cls-24" d="M1267.26,187.67a2.59,2.59,0,0,1,3,2.27c.33,2.21-1.61,1.95-2.81,1.9-.92,0-2.51-.68-2.59-1.24A2.55,2.55,0,0,1,1267.26,187.67Z"/><path class="cls-2" d="M379.67,847.53c14.72-2.66,22.83-10.93,25.11-26.32,1.83,16,10.93,23.38,25.32,26.27-15.74,1.27-23.05,9.85-24.72,25.48C401.11,859.92,396.34,848,379.67,847.53Z"/><path class="cls-3" d="M161.09,765.29c2.67,10.22,6.49,17.86,18.71,18.43-10.08,3.94-18.12,8-17.46,20.61-5.09-8.28-6-19.77-19.76-19.12C153,782.2,159.69,776.72,161.09,765.29Z"/><path class="cls-4" d="M286.49,646.19c1.66,7,6.3,9.15,13,12.17-7.53,1.28-11.55,4-12.2,11-2.21-6.17-4.64-10.3-11.12-10.11C279.15,654.1,287.84,655.24,286.49,646.19Z"/><path class="cls-5" d="M507.31,764.78c.54,6.33,4.52,8.89,11.9,11.34-7.26,1.61-11.39,3.86-10.65,11.09-4.85-3.92-5.12-11.37-12.43-10.54C501.35,773.93,505.2,770.57,507.31,764.78Z"/><path class="cls-6" d="M586.61,969.1c-1.53-5.94-4.81-8.73-11.63-9.59,5.44-3.17,11.18-4.09,11.53-11.33,1.87,6.62,6.56,8.73,15.11,11C592.44,959.88,588.64,962.93,586.61,969.1Z"/><path class="cls-7" d="M520.86,594.86c2.43,5.75,5.9,8.92,14.28,10-8.42,2-12.63,5-13.9,11.69-2.19-5.63-3.92-10.43-10.67-10.93C515.79,603.29,520,601,520.86,594.86Z"/><path class="cls-8" d="M312.62,1011.64c5.21-1.95,6.79-6.24,9.93-11.15,1.56,5.4,3.23,9.37,11.14,9.51-6.15,4-10.76,5.67-10.26,12.33C319,1018.34,318.42,1012.4,312.62,1011.64Z"/><path class="cls-9" d="M612.65,646.49c-3-.21-4.44-1.94-4.46-4.9,0-3.82,2.43-5,5.61-4.72s4,2.52,3.82,5.37C617.4,645.36,615.58,646.63,612.65,646.49Z"/><path class="cls-10" d="M365.56,606.63c.46,3.65-1.67,4.09-4.51,4s-4.85-.64-4.42-4.23c.36-2.95,1.85-4.56,4.76-4.73C364.85,601.5,365.3,604,365.56,606.63Z"/><path class="cls-11" d="M132.11,661c-2.36-.08-4.13-1.12-4.31-3.77s1-4.2,3.69-4.18c2.41,0,4.31,1.31,4.63,3.62C136.47,659.19,134.53,660.45,132.11,661Z"/><path class="cls-12" d="M258.32,815.46c2.3.52,3.94,2,3.77,4.45s-1.74,4.15-4.25,3.87a4,4,0,0,1-3.69-4.49C254.27,816.72,255.56,815.25,258.32,815.46Z"/><path class="cls-13" d="M212.3,920.87c-1.7,1.51-3.45,4.29-5.21,4.29-1.92,0-3.84-2.56-5.76-4,1.95-1.76,3.72-4.48,5.92-4.92C208.59,916,210.6,919.21,212.3,920.87Z"/><path class="cls-14" d="M194.6,601.69c2.23.37,4.21,1.13,3.87,4a3.76,3.76,0,0,1-3.41,3.51,3.83,3.83,0,0,1-4.4-3.56C190.28,602.77,192.41,602.09,194.6,601.69Z"/><path class="cls-15" d="M521.63,692.48a3.57,3.57,0,0,1-3.69-3.23c-.34-2.48,1-4.34,3.53-4.43s3.88,1.79,3.69,4.25A3.53,3.53,0,0,1,521.63,692.48Z"/><path class="cls-16" d="M404.52,697.32c.89-2.82,2.29-4.37,4.77-4.1s4,1.66,3.86,4.27-1.94,3.84-4.35,3.58A5.22,5.22,0,0,1,404.52,697.32Z"/><path class="cls-17" d="M165.35,1041.22c.16,2.78-1.46,3.88-3.82,3.84-2.14,0-4.34-.68-4.52-3.36s1.5-3.8,3.87-4S164.81,1038.78,165.35,1041.22Z"/><path class="cls-18" d="M574.29,868.82c-2,0-3.75-.81-3.71-3,0-2,1.5-3.26,3.56-3.44s3.56.95,3.62,3.08S576.41,868.72,574.29,868.82Z"/><path class="cls-19" d="M131.29,941.22c-.51,2-1.71,3.11-3.76,3.07a3,3,0,0,1-3.24-3.36,3.05,3.05,0,0,1,3.54-3.1C129.91,937.93,130.93,939.24,131.29,941.22Z"/><path class="cls-20" d="M469.82,916.92a3.23,3.23,0,0,1-3.35,3.13c-2,.08-3.53-.76-3.74-3-.24-2.65.94-4.2,3.7-4C468.47,913.29,469.63,914.51,469.82,916.92Z"/><path class="cls-21" d="M503.57,1030.69c-1.89-.4-3.35-1.48-3.43-3.49-.09-2.28,1.62-3,3.53-3a2.55,2.55,0,0,1,2.75,2.6C506.52,1028.93,505.62,1030.28,503.57,1030.69Z"/><path class="cls-22" d="M228.65,700.44c-.53,1.37-.61,3-2.48,3s-3.68-1.24-3.69-2.92,1.68-2.92,3.7-2.87C228.05,697.71,228.14,699.28,228.65,700.44Z"/><path class="cls-23" d="M344.45,764.49c-1.28-.36-2.8-.37-3-2.27a3,3,0,0,1,3-3.44c.95,0,2.44,1.37,2.8,2.43C348.07,763.53,346.25,764.15,344.45,764.49Z"/><path class="cls-24" d="M612.76,751.05a2.58,2.58,0,0,1,3,2.27c.34,2.21-1.6,1.95-2.81,1.9-.92,0-2.5-.68-2.59-1.24A2.56,2.56,0,0,1,612.76,751.05Z"/><path class="cls-2" d="M1549.5,831.94c14.72-2.66,22.84-10.93,25.11-26.32,1.83,16,10.93,23.39,25.32,26.27-15.74,1.27-23,9.85-24.72,25.49C1570.94,844.33,1566.17,832.37,1549.5,831.94Z"/><path class="cls-3" d="M1330.92,749.7c2.67,10.22,6.49,17.86,18.71,18.43-10.08,4-18.12,8-17.46,20.62-5.09-8.29-6-19.77-19.76-19.13C1322.85,766.61,1329.52,761.14,1330.92,749.7Z"/><path class="cls-4" d="M1456.32,630.61c1.66,7,6.3,9.14,13,12.16-7.53,1.28-11.55,4-12.2,11-2.21-6.17-4.64-10.3-11.12-10.11C1449,638.51,1457.67,639.66,1456.32,630.61Z"/><path class="cls-5" d="M1677.14,749.19c.54,6.33,4.52,8.9,11.9,11.34-7.26,1.61-11.39,3.87-10.65,11.1-4.85-3.93-5.12-11.38-12.43-10.55C1671.18,758.34,1675,755,1677.14,749.19Z"/><path class="cls-6" d="M1756.44,953.51c-1.53-5.94-4.81-8.73-11.63-9.59,5.44-3.17,11.18-4.08,11.53-11.33,1.87,6.62,6.56,8.73,15.11,11C1762.27,944.29,1758.47,947.34,1756.44,953.51Z"/><path class="cls-7" d="M1690.69,579.27c2.43,5.75,5.9,8.92,14.28,10-8.42,2-12.63,5-13.9,11.69-2.19-5.63-3.92-10.43-10.67-10.93C1685.62,587.71,1689.86,585.42,1690.69,579.27Z"/><path class="cls-8" d="M1482.45,996.05c5.21-1.95,6.79-6.24,9.93-11.14,1.56,5.4,3.23,9.36,11.14,9.5-6.15,4-10.76,5.67-10.26,12.33C1488.87,1002.76,1488.25,996.81,1482.45,996.05Z"/><path class="cls-9" d="M1782.48,630.9c-3-.21-4.44-1.94-4.46-4.89,0-3.83,2.43-5,5.61-4.72s4,2.51,3.82,5.36C1787.23,629.77,1785.41,631,1782.48,630.9Z"/><path class="cls-10" d="M1535.39,591c.46,3.66-1.67,4.1-4.51,4s-4.85-.65-4.42-4.24c.36-3,1.85-4.56,4.76-4.73C1534.68,585.91,1535.13,588.4,1535.39,591Z"/><path class="cls-11" d="M1301.94,645.37c-2.36-.08-4.13-1.13-4.31-3.77s1-4.21,3.69-4.18c2.41,0,4.31,1.3,4.63,3.61C1306.3,643.6,1304.36,644.87,1301.94,645.37Z"/><path class="cls-12" d="M1428.15,799.87c2.3.52,3.94,2,3.77,4.45s-1.74,4.15-4.25,3.87a4,4,0,0,1-3.69-4.49C1424.1,801.13,1425.39,799.66,1428.15,799.87Z"/><path class="cls-13" d="M1382.14,905.28c-1.71,1.51-3.46,4.29-5.22,4.29-1.92,0-3.84-2.56-5.76-4,1.95-1.76,3.72-4.48,5.92-4.92C1378.42,900.37,1380.43,903.62,1382.14,905.28Z"/><path class="cls-14" d="M1364.43,586.1c2.23.37,4.21,1.13,3.87,4a3.75,3.75,0,0,1-3.41,3.5,3.83,3.83,0,0,1-4.4-3.56C1360.11,587.18,1362.24,586.5,1364.43,586.1Z"/><path class="cls-15" d="M1691.46,676.89a3.57,3.57,0,0,1-3.69-3.23c-.34-2.48,1-4.33,3.53-4.43s3.88,1.79,3.69,4.26A3.52,3.52,0,0,1,1691.46,676.89Z"/><path class="cls-16" d="M1574.35,681.74c.89-2.82,2.29-4.38,4.77-4.11s4,1.67,3.86,4.27-1.94,3.85-4.35,3.58A5.23,5.23,0,0,1,1574.35,681.74Z"/><path class="cls-17" d="M1335.18,1025.63c.16,2.78-1.46,3.89-3.82,3.84-2.14,0-4.34-.68-4.52-3.35s1.5-3.81,3.87-4S1334.64,1023.19,1335.18,1025.63Z"/><path class="cls-18" d="M1744.12,853.23c-2,0-3.75-.8-3.71-3,0-2,1.5-3.26,3.56-3.44s3.56,1,3.62,3.09S1746.24,853.13,1744.12,853.23Z"/><path class="cls-19" d="M1301.12,925.64c-.51,2-1.71,3.1-3.76,3.06a3,3,0,0,1-3.24-3.36,3.05,3.05,0,0,1,3.54-3.1C1299.74,922.34,1300.76,923.65,1301.12,925.64Z"/><path class="cls-20" d="M1639.65,901.34a3.22,3.22,0,0,1-3.35,3.12c-2,.08-3.53-.76-3.74-3-.24-2.65.94-4.2,3.7-4C1638.3,897.7,1639.46,898.93,1639.65,901.34Z"/><path class="cls-21" d="M1673.4,1015.1c-1.89-.4-3.35-1.48-3.43-3.49-.09-2.28,1.62-3,3.53-3a2.55,2.55,0,0,1,2.75,2.61C1676.35,1013.34,1675.45,1014.69,1673.4,1015.1Z"/><path class="cls-22" d="M1398.48,684.85c-.53,1.37-.61,3-2.48,3s-3.68-1.24-3.69-2.92,1.68-2.92,3.7-2.87S1398,683.69,1398.48,684.85Z"/><path class="cls-23" d="M1514.28,748.9c-1.28-.35-2.8-.36-3-2.27a3,3,0,0,1,3-3.44c1,0,2.44,1.37,2.8,2.43C1517.9,747.94,1516.08,748.56,1514.28,748.9Z"/><path class="cls-24" d="M1782.59,735.46a2.58,2.58,0,0,1,3.05,2.27c.34,2.21-1.6,1.95-2.81,1.9-.92,0-2.5-.68-2.59-1.24A2.56,2.56,0,0,1,1782.59,735.46Z"/></g></g></svg>