<?xml version="1.0" encoding="utf-8"?>
<!-- Generator: Adobe Illustrator 24.1.2, SVG Export Plug-In . SVG Version: 6.00 Build 0)  -->
<svg version="1.1" id="Layer_1" xmlns="http://www.w3.org/2000/svg" xmlns:xlink="http://www.w3.org/1999/xlink" x="0px" y="0px"
	 viewBox="0 0 1920 1080" style="enable-background:new 0 0 1920 1080;" xml:space="preserve">
<style type="text/css">
	.st0{fill:url(#SVGID_1_);}
</style>
<linearGradient id="SVGID_1_" gradientUnits="userSpaceOnUse" x1="1276.269" y1="207.3419" x2="720.0504" y2="1170.7415" gradientTransform="matrix(1 0 0 -1 0 1080)">
	<stop  offset="1.830000e-02" style="stop-color:#FF766A"/>
	<stop  offset="0.3216" style="stop-color:#DD315D"/>
	<stop  offset="0.625" style="stop-color:#DC3535"/>
	<stop  offset="0.9573" style="stop-color:#AF1E68"/>
</linearGradient>
<path class="st0" d="M954.6,320.9c-0.1-27.6-5.3-53.9-16.6-79.2c-29.1-65.3-79.3-110.8-138.2-148.4c-9-5.7-14.1-5.4-21.9,2.2
	c-129.3,126.2-258.8,252-388.5,377.7c-6.5,6.4-9.1,11.3-5.3,20.6c42.9,106.4,110.7,195.7,190.1,277c6.3,6.4,9.5,3.8,14.4-0.9
	c21.9-20.5,44-40.7,66.1-61c96.8-89,193.5-178,290.5-266.8c6.6-6,9.6-12.2,9.4-21.2c-0.6-19.7-0.2-39.3-0.2-59
	C954.6,348.2,954.6,334.5,954.6,320.9z M965.2,648.5c0,23.5,0,47,0.1,70.5c0,2.1-0.1,5.3,1.1,6.1c2.9,2,4.6-1.4,6.5-3
	c2.9-2.5,5.4-5.4,8.1-8.1c75.9-76.3,151.8-152.5,227.6-228.7c22.7-22.8,49.3-39.8,79.9-49.2c51.4-15.7,88.7-0.3,113.8,43.7
	c5.3,9.4,9.6,19.5,13.3,29.7c16.6,45.1,19.2,92.5,22.3,139.8c0.2,3.4-2.1,8.8,2.1,9.9c3.5,0.8,5.2-4.6,7.3-7.5
	c35.6-49.1,66.1-101.1,88-157.7c38.7-99.9,47.6-201.8,17.6-305.6c-20.8-71.9-62.7-124.7-136.8-147.7c-10-3.1-16.9-2.3-24.9,5.1
	c-138.8,128-278,255.9-417.1,383.5c-6.6,6-9.2,12.4-9.1,21.3c0.4,43.7,0.2,87.4,0.2,131.1C965.2,603.7,965.2,626.2,965.2,648.5z
	 M968,1049.8c58.3-31,113.5-66.9,167.6-104.5c104.9-72.9,200.8-155.9,282.2-255c7.3-9,10.9-17.9,10.2-29.7
	c-2.2-33.8-3.2-67.6-9.6-100.9c-5.9-30.6-13.8-60.5-32.4-86.4c-16.5-22.9-38.3-34.9-67.1-32.7c-38.9,2.9-71.3,21.1-98,47.4
	c-83.3,82-165.2,165.4-247.8,248.1c-5.4,5.4-8.1,10.9-8.1,18.7c0.3,97.2,0.4,194.4,0.5,291.6C966.5,1047.7,967.3,1048.7,968,1049.8z
	 M372.5,459.5c3.6,11.4,6.5,9.7,13.2,3.2C513.6,338.3,641.5,213.9,769.7,89.7c7-6.9,7.4-9.8-2-14.3C696.3,41,622.1,20.4,542.1,32
	c-69.2,10.1-123.6,43.2-155.9,107.6c-27.6,54.8-35.6,113.7-36.9,163C349.3,363.4,357.4,412,372.5,459.5z M954.5,467.9
	c-0.1-5.5,3.8-13.5-2.6-16c-4.2-1.6-8.4,5.7-12.2,9.3C825.9,565.7,712.5,670.4,598.5,774.5c-8.6,7.8-9.3,11.4-0.7,19.6
	c49,45.9,100.6,88.7,154.3,128.9c9.5,7,14.3,7,22.7-1.5c56.1-57.3,112.8-114.1,169.6-170.6c7.7-7.7,10.4-15.4,10.3-25.9
	c-0.5-43.1-0.2-86.2-0.2-129.4C954.6,553.1,954.8,510.5,954.5,467.9z M965.3,407.1c0,4.2-2,10.4,1.4,12.2c4.2,2.2,6.9-3.9,9.9-6.7
	c97.8-89.6,195.4-179.3,293.1-269.1c36.9-34,73.9-68,110.8-102.1c2-1.9,6.4-3.3,4.6-7.4c-1.3-2.9-4.7-2-7.3-2.3
	c-12.5-1.1-25-3.2-37.4-3.1c-100.2,1-188.6,35.2-266,97.5c-72.1,57.9-118.3,129.4-109,218.3C965.2,371.1,965.1,389.1,965.3,407.1z
	 M954.2,1046.5c0.2-37.1,0.3-74.1,0.3-111.2c0.1-55.6,0-111.2-0.1-166.9c0-3,1.6-7.3-2-8.6c-3.6-1.5-5.3,2.9-7.4,5
	C889.9,820,835,875.2,779.8,930.4c-4.8,4.8-7.7,7.3,0.2,12.7c55.9,37.6,112.1,75,171.7,106.7
	C952.7,1048.7,953.5,1047.7,954.2,1046.5z M951.9,1049.8c1.7,0.7,3.6,3,5-0.1c0.2-0.6-1.6-2.1-2.6-3.2
	C953.5,1047.7,952.7,1048.7,951.9,1049.8z M965.6,1046.5c-0.9,1.1-2.9,2.7-2.5,3.3c1.4,3.1,3.3,0.7,5,0.1
	C967.3,1048.7,966.5,1047.7,965.6,1046.5z"/>
</svg>
