<svg xmlns="http://www.w3.org/2000/svg" xmlns:xlink="http://www.w3.org/1999/xlink" viewBox="0 0 883.49 485.04"><defs><style>.cls-1{fill:url(#linear-gradient);}.cls-2{fill:#109bdc;}.cls-3{fill:#d89935;}</style><linearGradient id="linear-gradient" x1="100.49" y1="584" x2="783.49" y2="-99" gradientUnits="userSpaceOnUse"><stop offset="0" stop-color="#fff"/><stop offset="1" stop-color="#f2f2f2"/></linearGradient></defs><g id="Layer_2" data-name="Layer 2"><g id="Layer_1-2" data-name="Layer 1"><rect class="cls-1" x="0.99" y="0.5" width="882" height="484"/><path d="M882.49,1V484H1.49V1h881m1-1H.49V485h883V0Z"/><path class="cls-2" d="M98.4,176.62h-.15l-.12.08c-.24.17-.57.13-.81.28h0c-.29.37-.85.07-1.17.37h0a2.45,2.45,0,0,1-.92.31h-.13l-.11.08c-.23.18-.57.13-.81.29h0c-.27.37-.85.05-1.14.39h0c-.24.18-.57.15-.83.3h0c-.27.38-.86.05-1.14.4h0c-.23.18-.58.14-.81.3h0c-.24.25-.6.22-.92.33h-.14l-.11.08c-.22.18-.57.12-.78.31h0c-.22.21-.57.17-.81.32h0c-.23.26-.61.23-.92.34h-.14l-.11.08c-.22.17-.56.1-.76.31h0c-.22.19-.57.14-.8.32h0c-.21.23-.57.18-.81.34h0c-.2.25-.56.21-.82.34l0,0c-.22.29-.6.25-.92.36h-.08l-.1.08c-.22.17-.57.09-.75.32h0c-.22.17-.57.12-.78.33h0c-.22.19-.57.13-.79.33h0c-.21.21-.56.15-.79.34h0c-.2.22-.57.16-.79.34h0c-.21.23-.57.17-.8.35h0c-.21.23-.56.18-.8.35h0c-.2.23-.56.18-.8.34h0c-.19.25-.56.18-.79.36h0c-.19.23-.56.17-.79.35h0c-.2.23-.56.17-.79.35h0c-.2.23-.56.17-.78.35h0c-.21.22-.57.16-.78.35h0c-.2.21-.57.15-.77.35h0c-.21.19-.57.13-.76.35h0c-.21.18-.57.1-.75.34h0a1.17,1.17,0,0,1-.56.27h-.14l-.09.09a1.48,1.48,0,0,1-.46.26l0,0c-.17.28-.55.22-.8.37h0c-.17.27-.55.2-.79.37h0c-.19.25-.56.18-.78.37h0c-.2.22-.57.16-.78.36h0c-.2.2-.56.13-.75.36h0a1.16,1.16,0,0,1-.55.28H64l-.1.09a3.37,3.37,0,0,1-.46.25l0,0c-.17.28-.55.22-.79.38h0c-.18.24-.56.18-.78.37h0c-.2.22-.57.15-.77.36h0c-.2.19-.57.11-.74.35h0c-.16.08-.27.24-.46.27l0,0c-.16.29-.55.23-.79.38l0,0c-.18.26-.56.2-.78.38h0c-.19.23-.57.16-.77.37h0c-.19.19-.57.11-.74.35h0c-.16.09-.27.24-.46.28l0,0c-.15.29-.54.23-.78.39h0c-.17.25-.55.19-.77.37h0c-.2.22-.57.16-.77.37h0a1,1,0,0,1-.57.29h-.12l-.09.08a1.4,1.4,0,0,1-.46.27l0,0c-.16.28-.55.22-.78.38h0c-.18.25-.55.18-.77.38h0c-.2.21-.56.14-.76.36h0a1.08,1.08,0,0,1-.56.29H50l-.09.09a4.17,4.17,0,0,1-.46.26l0,0c-.17.27-.55.21-.78.38h0c-.19.24-.57.17-.78.37h0c-.19.21-.56.13-.75.36h0a1.11,1.11,0,0,1-.55.28.19.19,0,0,0-.23.09,3,3,0,0,1-.46.26l0,0c-.17.27-.55.2-.78.37h0c-.19.24-.56.17-.77.37h0c-.19.2-.56.13-.74.36h0c-.16.09-.27.25-.46.28l0,0c-.15.3-.54.23-.79.38h0c-.18.27-.56.2-.79.38h0c-.18.24-.56.16-.76.37h0c-.2.2-.57.12-.74.36h0c-.17.08-.28.23-.46.27l0,0c-.16.3-.55.23-.79.39h0c-.18.25-.56.19-.78.37h0c-.19.22-.56.15-.76.37h0a1,1,0,0,1-.57.29h-.13l-.08.08a1.33,1.33,0,0,1-.46.27l0,0c-.16.29-.55.22-.78.39h0c-.18.25-.55.18-.77.37h0c-.2.22-.57.14-.76.36h0a.93.93,0,0,1-.55.29h-.14l-.09.09a3,3,0,0,1-.46.26l0,0c-.17.27-.56.21-.79.38h0c-.18.24-.56.17-.77.37h0c-.19.21-.57.14-.75.36h0a1.21,1.21,0,0,1-.46.28l.05,0c-.15.3-.54.24-.79.39l0,0c-.17.27-.55.2-.78.37h0a3.2,3.2,0,0,1-.79.68c-3.73,1.93-7.58,3.7-11.32,5.64a8.58,8.58,0,0,1-1.8.5h0c-2,1.8-4.79,2.57-7.18,3.88A59.3,59.3,0,0,1,2,221.71c-.6.25-1.21.71-1.95.24V.71C.92.15,2,.38,3,.38q85.1,0,170.19,0c16.36,0,32.7,0,49.06-.12H377.93A4.28,4.28,0,0,0,380,0h22.81l0,.9c-.34.57,0,1.24-.31,1.8l-.08.55c-.31.45.05,1-.35,1.49h0c-.42.39,0,1-.39,1.37h0c-.34.28-.06.72-.35,1a.2.2,0,0,0-.07.26c-.28.32,0,.8-.39,1.1v0c-.18.21-.14.5-.32.71a.19.19,0,0,0-.08.25c-.15.24-.12.55-.34.77h0c-.39.26,0,.78-.46,1v0c-.17.22-.12.53-.38.72h0c-.2.2-.15.5-.37.7h0c-.23.18-.17.49-.37.68h0c-.25.17-.18.47-.37.67h0c-.26.16-.18.47-.39.66h0c-.25.17-.17.49-.4.67h0c-.23.18-.15.51-.42.67h0c-.21.2-.13.54-.46.68l0,0c-.05.17-.22.27-.32.41h0c-.27.14-.18.48-.44.64h0c-.21.2-.12.55-.46.67l0,0a.91.91,0,0,1-.34.41h0c-.24.18-.15.53-.46.66l0,0a1,1,0,0,1-.35.4h0c-.24.18-.14.54-.46.66l0,0a.77.77,0,0,1-.36.41h0a4.81,4.81,0,0,1-.83,1l0,0a1.12,1.12,0,0,1-.36.39h0c-.3.32-.46.74-.85,1l0,0a.8.8,0,0,1-.38.39h0a3.24,3.24,0,0,1-.36.38h0c-.34.28-.46.73-.87,1l0,0a.63.63,0,0,1-.39.39l0,0a1,1,0,0,1-.39.38h0l-.37.37h0a2.31,2.31,0,0,0-.36.34h0c-.37.26-.46.75-.92.94l.05,0a.46.46,0,0,1-.42.39l0,0a.56.56,0,0,1-.41.39l0,0a.61.61,0,0,1-.42.38l0,0a.76.76,0,0,1-.41.38l0,0a.8.8,0,0,1-.42.37l0,0a.82.82,0,0,1-.41.37l0,0a1,1,0,0,1-.31.35l0,0a1.13,1.13,0,0,1-.41.37h0a1.1,1.1,0,0,1-.42.35h0a.92.92,0,0,1-.42.36l0,0a.83.83,0,0,1-.42.36l0,0a.85.85,0,0,1-.41.36l0,0a.76.76,0,0,1-.43.36l0,0a.66.66,0,0,1-.43.37l0,0a.58.58,0,0,1-.44.37l0,0a.51.51,0,0,1-.44.36l0,0c-.22.4-.78.45-1.06.79l0,0a1.2,1.2,0,0,0-.38.3h0a4,4,0,0,0-.4.32h0a2.2,2.2,0,0,1-.41.33h0a1.09,1.09,0,0,1-.44.35l0,0a.66.66,0,0,1-.46.35l0,0c-.25.38-.78.45-1.08.78h0a3.08,3.08,0,0,0-.41.3h0a1.7,1.7,0,0,1-.43.33h0a.78.78,0,0,1-.46.34l0,0c-.27.36-.77.45-1.11.76h0a3.25,3.25,0,0,1-.42.31h0a.88.88,0,0,1-.46.34l0,0c-.28.36-.77.48-1.13.75h0a1.32,1.32,0,0,1-.46.32l0,0a8,8,0,0,1-1.14.74h0a1.33,1.33,0,0,1-.46.31l0,0a7.35,7.35,0,0,1-1,.64h0a1.32,1.32,0,0,1-.46.32l0,0c-.14.28-.55.18-.71.43h0c-.16.08-.28.21-.46.29h0a.69.69,0,0,1-.46.32l0,0c-.11.31-.53.22-.73.44h0a1,1,0,0,1-.46.31l0,0c-.13.29-.54.2-.73.42h0a1.41,1.41,0,0,1-.46.3l0,0c-.14.27-.55.18-.73.4h0a1.41,1.41,0,0,1-.46.3l0,0c-.15.27-.55.18-.73.41h0a1.7,1.7,0,0,1-.46.29l0,0c-.16.27-.56.19-.74.41h0a1.7,1.7,0,0,1-.46.29l0,0c-.15.28-.55.2-.76.41h0a1,1,0,0,1-.46.3l.05,0c-.14.3-.54.23-.76.41h0c-.17.23-.57.14-.73.38h0a2.74,2.74,0,0,1-.46.29l0,0c-.16.27-.55.19-.76.39h0a.81.81,0,0,1-.46.3l0-.05c-.13.32-.53.25-.77.41h0c-.17.25-.57.17-.75.39-3.27,1.6-6.51,3.21-9.78,4.79-12.25,5.91-24.88,11.16-37.41,16.61-15.37,6.68-30.42,13.84-44.51,22.46a238.58,238.58,0,0,0-20.62,13.93,5.06,5.06,0,0,0-1.38,1.18.71.71,0,0,1-.46.37l0,0a.54.54,0,0,1-.46.36l0,0c-.22.4-.77.45-1.06.79h0a1.9,1.9,0,0,0-.39.31h0c-.14.1-.26.22-.4.32h0a1.74,1.74,0,0,1-.42.34h0a1,1,0,0,1-.42.35l0,0a.89.89,0,0,1-.43.36l0,0a.65.65,0,0,1-.43.36l0,0a.54.54,0,0,1-.46.36l0,0a.45.45,0,0,1-.44.36l0,0a14.46,14.46,0,0,1-1.84,1.47h0a1.89,1.89,0,0,0-.37.32h0a3.09,3.09,0,0,0-.39.33h0c-.14.1-.27.22-.4.33h0a4.32,4.32,0,0,1-.39.34h0c-.13.12-.25.24-.39.35h0a3.36,3.36,0,0,1-.41.34h0a1.36,1.36,0,0,1-.41.34h0a1.29,1.29,0,0,1-.41.36h0a1.4,1.4,0,0,1-.41.36h0a1.42,1.42,0,0,1-.41.36h0a1.59,1.59,0,0,1-.41.36h0a1.35,1.35,0,0,1-.4.35h0a1.29,1.29,0,0,1-.41.36h0a1.25,1.25,0,0,1-.4.36h0a1.72,1.72,0,0,1-.4.36h0a1.39,1.39,0,0,1-.41.35h0a1.29,1.29,0,0,1-.41.36v0a1.29,1.29,0,0,1-.41.36h0a1.25,1.25,0,0,1-.4.36h0a1.39,1.39,0,0,1-.41.35h0a1.29,1.29,0,0,1-.41.36h0a1.4,1.4,0,0,1-.41.36h0a1.57,1.57,0,0,1-.4.37h0a4.26,4.26,0,0,1-.38.35h0l-.39.35h0l-.39.34h0l-.4.34h0c-.12.12-.26.23-.39.35h0a3,3,0,0,0-.36.35h0a2.37,2.37,0,0,0-.38.33h0a1.91,1.91,0,0,0-.37.33h0a1.89,1.89,0,0,0-.37.32h0a1.42,1.42,0,0,0-.36.33h0c-1.35,1.43-3,2.64-4.37,4l0,0a.48.48,0,0,1-.43.38l0,0a.48.48,0,0,1-.42.38l0,0a.5.5,0,0,1-.43.38l0,0a.45.45,0,0,1-.43.37l0,0a.49.49,0,0,1-.43.38l.05,0a.51.51,0,0,1-.43.38l0,0a.48.48,0,0,1-.43.37l0,0a.49.49,0,0,1-.42.38l0,0a.51.51,0,0,1-.43.38l0,0a.48.48,0,0,1-.43.37l0,0a.47.47,0,0,1-.42.37l0,0a.49.49,0,0,1-.43.37l0,0a.48.48,0,0,1-.43.37l.05,0a.49.49,0,0,1-.43.37l0,0a.45.45,0,0,1-.42.37l0,0c-1,.83-1.92,1.73-3,2.48h0a1.7,1.7,0,0,0-.38.32h0c-.14.11-.27.21-.4.33h0a4.39,4.39,0,0,1-.4.33h0a1.9,1.9,0,0,1-.41.34h0a1.1,1.1,0,0,1-.42.35v0a1,1,0,0,1-.42.36l0,0a.76.76,0,0,1-.43.36l0,0a.58.58,0,0,1-.43.37l0,0a.52.52,0,0,1-.46.36l0,0a7.68,7.68,0,0,1-1.48,1.12h0c-.14.11-.26.23-.41.33h0a1.5,1.5,0,0,1-.42.33l0,0a.86.86,0,0,1-.46.35l0,0a.58.58,0,0,1-.46.35l0,0c-.24.39-.77.45-1.08.78h0c-.15.09-.27.22-.42.31h0a1.26,1.26,0,0,1-.42.34l0,0a.69.69,0,0,1-.46.35l0,0c-.26.37-.78.45-1.1.76h0c-.15.1-.27.23-.42.32h0a1,1,0,0,1-.46.33l0,0c-.28.35-.78.45-1.11.75h0a2.61,2.61,0,0,1-.43.31h0a.78.78,0,0,1-.46.34l0-.05c-.11.3-.54.2-.7.45h0c-.16.08-.27.22-.43.3h0a.91.91,0,0,1-.46.33l0,0c-.12.29-.54.19-.7.45h0c-.16.09-.28.22-.43.3h0a.81.81,0,0,1-.46.33l0,0c-.12.3-.53.21-.72.44h0a1.29,1.29,0,0,1-.46.31l0,0c-.15.27-.56.18-.72.42h0a5.16,5.16,0,0,1-.46.29l0,0a6.59,6.59,0,0,1-1.17.7h0a7.08,7.08,0,0,1-1.19.69h0c-.17.24-.56.15-.73.4h0a4.34,4.34,0,0,1-.46.28l0,0c-.16.26-.55.18-.74.4h0a1.24,1.24,0,0,1-.46.29l0,0c-.15.3-.54.22-.77.4h0c-.17.23-.56.15-.74.39h0c-.15.09-.26.24-.46.28l0,0c-.16.29-.55.22-.78.39h0c-.19.25-.56.17-.77.38h0c-.19.2-.56.12-.73.36h0c-.16.09-.27.24-.46.27l0,0c-.17.29-.55.23-.8.38h0c-.18.26-.56.2-.8.37h0c-.19.24-.56.18-.79.36h0c-.2.23-.56.17-.79.35h0c-.2.23-.56.17-.79.35h0c-.2.23-.57.17-.8.35h0c-.21.23-.57.17-.8.35h0c-.2.23-.56.18-.81.34h0c-.2.25-.56.21-.81.35l0,0c-.22.28-.6.24-.92.35h-.13l-.11.08c-.22.17-.56.11-.77.31h0c-.22.2-.57.16-.81.32h0c-.24.25-.61.22-.92.34h-.14l-.11.08c-.23.17-.57.12-.79.3h0c-.25.22-.61.2-.92.32h-.15l-.11.08c-.23.17-.57.12-.8.3h0c-.29.34-.85,0-1.14.36h0c-.26.2-.61.18-.89.31h-.16l-.12.08c-.25.16-.59.13-.85.28h-.17l-.14.08c-.25.14-.57.11-.8.27h0c-.3.35-.85.06-1.17.36h0c-.31.32-.85,0-1.18.34h0c-.31.33-.85.06-1.18.35h0c-.33.33-.88.09-1.24.34h-.16l-.15.07a4.79,4.79,0,0,1-.89.27h-.15l-.11.07c-.33.28-.85,0-1.17.32h0c-.35.31-.88.08-1.25.32h-.16l-.14.07c-.34.26-.85,0-1.17.31h0c-.36.3-.89.08-1.27.31h-.15l-.13.08c-.35.26-.86,0-1.22.3h-.17l-.16.07c-.34.24-.84,0-1.17.29h0c-.37.31-.92.11-1.3.31l-.13,0-.11.08c-.37.28-.92.08-1.3.3l-.13,0-.11.07c-.38.28-.92.09-1.3.3l-.14,0-.11.07c-.38.28-.92.09-1.31.29l-.13,0-.11.07c-.46.37-1.11,0-1.57.34h-.19l-.18.07c-.37.22-.86,0-1.21.28h-.18l-.15.07c-.38.24-.88,0-1.25.28l-.16,0-.14.08c-.38.25-.89.07-1.28.28l-.14,0-.12.07c-.46.35-1.11,0-1.57.32h0c-.46.38-1.14,0-1.62.34l-.17,0-.14.07c-.39.25-.9.08-1.3.28l-.13,0-.11.07c-.46.36-1.13,0-1.59.33l-.19,0-.16.08c-.38.23-.88,0-1.25.27l-.16,0-.14.07c-.39.25-.9.08-1.3.28l-.13,0-.11.06c-.46.37-1.13,0-1.59.34l-.19,0-.16.08c-.37.23-.87,0-1.23.27l-.17,0-.15.07c-.37.25-.87.06-1.26.28l-.15,0-.13.07c-.38.26-.89.08-1.29.29l-.14,0-.11.07c-.39.27-.92.09-1.32.3l-.12,0-.11.07c-.38.29-.92.1-1.31.3l-.13,0-.11.07c-.38.29-.92.1-1.31.3l-.13,0-.1.07c-.37.29-.9.09-1.29.31l-.15,0-.11.07c-.37.28-.88.07-1.26.31h-.15l-.14.07c-.36.26-.87,0-1.22.29h-.18l-.15.08a6,6,0,0,1-.92.25l-.13,0-.1.08c-.36.29-.88.06-1.24.31h-.17l-.15.08a5.42,5.42,0,0,1-.92.26l-.12,0-.11.07c-.34.3-.87.05-1.21.33H106l-.16.07c-.27.15-.6.13-.87.26h-.16l-.13.08a4.86,4.86,0,0,1-.92.27h-.14l-.11.07a3.27,3.27,0,0,1-.92.28l-.13,0-.09.07c-.32.3-.85,0-1.17.33h0a3,3,0,0,1-.92.3l-.12,0-.1.07a3.29,3.29,0,0,1-.92.29H99l-.1.08C99,176.52,98.68,176.49,98.4,176.62Z"/><path class="cls-3" d="M866.78,290.24a.17.17,0,0,0,.23-.1,1.15,1.15,0,0,1,.53-.39.18.18,0,0,0,.24-.09h0a1.18,1.18,0,0,1,.52-.38.2.2,0,0,0,.25-.13,5.19,5.19,0,0,1,.46-.36l0,0c.18-.39.56-.31.81-.52l0,0c.18-.38.56-.3.8-.52l0,0c.19-.36.56-.28.8-.51h0c.2-.35.57-.27.8-.52v0c.2-.35.57-.26.8-.52h0c.2-.33.57-.24.8-.5h0c.2-.32.56-.24.79-.51h0c.2-.31.57-.22.78-.49h0c.21-.3.57-.21.79-.5h0c.2-.29.57-.19.77-.5h0c.21-.27.57-.18.77-.48h0c.2-.27.57-.16.75-.49h0c.22-.25.58-.15.76-.48h0c.21-.24.57-.14.74-.48h0a1.42,1.42,0,0,1,.55-.39.18.18,0,0,0,.24-.09v0a1.11,1.11,0,0,1,.53-.37c.1,0,.18,0,.24-.11a1.18,1.18,0,0,1,.53-.38.2.2,0,0,0,.25-.12l.43-.39,0,0c.11-.19.23-.21.37-.06V484.76c-3.63.53-7.28.09-10.92.23H652.26a3.87,3.87,0,0,1-2.1-.19,11.11,11.11,0,0,0-1.16-.09q-30.56,0-61.11,0c-.32,0-.64,0-1,.06a4.63,4.63,0,0,0-2.3-.19q-54,0-107.95,0c-.68,0-1.61.63-2.07-.66l-.07.05a1,1,0,0,1,.44-.52l0,.05c.28-.5.79-.63,1.11-1.07h0c.15-.13.27-.31.42-.45h0a1.55,1.55,0,0,1,.43-.49l0,0a.9.9,0,0,1,.46-.5l0,.06c.12-.41.55-.26.69-.63l0,0a2,2,0,0,0,.4-.42h0a5.92,5.92,0,0,1,.41-.45v0a1.26,1.26,0,0,1,.44-.48l0,0a.8.8,0,0,1,.46-.49l0,.05c.11-.41.54-.27.69-.62l0,0a2.52,2.52,0,0,0,.41-.45h0a2,2,0,0,1,.43-.45l0,0a1,1,0,0,1,.46-.49l0,.05c.28-.5.78-.64,1.11-1.08h0c.15-.13.27-.31.42-.45h0a1.5,1.5,0,0,1,.46-.48l0,0a.8.8,0,0,1,.46-.49l0,.05c.27-.53.78-.68,1.12-1.08h0a2.63,2.63,0,0,1,.43-.45v0a1,1,0,0,1,.46-.49l0,.05c.29-.5.79-.65,1.12-1.07h0c.15-.14.27-.32.42-.45h0a1.35,1.35,0,0,1,.46-.49l0,0a.81.81,0,0,1,.46-.5l0,.06c.11-.42.55-.28.7-.62v0a3.65,3.65,0,0,0,.42-.45h0a1.75,1.75,0,0,1,.43-.47l0,0a.92.92,0,0,1,.46-.49l0,.05c.28-.52.78-.67,1.13-1.07h0a2.29,2.29,0,0,1,.43-.45l0,0a1,1,0,0,1,.46-.49l0,.05c.12-.4.55-.25.68-.62l.05,0a2,2,0,0,0,.4-.42h0a3.64,3.64,0,0,1,.43-.45v0a1,1,0,0,1,.46-.49l0,.05c.28-.5.78-.65,1.12-1.07h0a3.64,3.64,0,0,1,.43-.45v0a1,1,0,0,1,.46-.49l0,.05c.13-.38.55-.24.69-.61l0,0a1.77,1.77,0,0,0,.4-.42h0a3.64,3.64,0,0,1,.43-.45v0a1,1,0,0,1,.46-.49l0,.05c.29-.5.78-.66,1.13-1.06h0a2,2,0,0,1,.43-.45l0,0a1,1,0,0,1,.46-.49l0,.06c.12-.4.55-.27.7-.62l0,0a2.78,2.78,0,0,0,.41-.43h0a2,2,0,0,1,.46-.45l0,0a.8.8,0,0,1,.46-.49l0,.06c.12-.42.54-.29.71-.62h0c.15-.13.27-.31.43-.45h0a1.18,1.18,0,0,1,.46-.48l0,0c.3-.48.79-.65,1.14-1.05h0a2.61,2.61,0,0,1,.43-.45v0a.9.9,0,0,1,.46-.48l0,.05c.12-.4.55-.27.7-.61h0a3.64,3.64,0,0,0,.43-.45h0a1.41,1.41,0,0,1,.46-.48l0,.05c.3-.48.78-.66,1.13-1.05h0a2.45,2.45,0,0,1,.46-.45l0,0a.9.9,0,0,1,.46-.48l0,.05c.12-.41.54-.28.71-.61h0c.16-.13.28-.32.43-.45v0a1.12,1.12,0,0,1,.46-.48l0,.05c.29-.49.77-.68,1.15-1h0a1.24,1.24,0,0,1,.46-.45l0,.05c.13-.38.55-.24.69-.61l0,0a2.09,2.09,0,0,0,.42-.42h0a1.49,1.49,0,0,1,.46-.44l0,0a10.19,10.19,0,0,1,1.15-1h0a2.08,2.08,0,0,1,.44-.45l0,0a.82.82,0,0,1,.46-.49l0,.06c.13-.45.54-.3.73-.6h0a2.18,2.18,0,0,1,.46-.45l0,0a.81.81,0,0,1,.46-.48l0,.06c.12-.43.54-.3.73-.61h0a2.18,2.18,0,0,1,.46-.45l0,0c.32-.45.79-.65,1.15-1h0a1.79,1.79,0,0,1,.46-.45l0,0c.14-.37.56-.23.7-.59l0,0a2.78,2.78,0,0,0,.42-.42h0a1.52,1.52,0,0,1,.46-.45l0,.05c.14-.38.55-.25.71-.59h0A4.67,4.67,0,0,0,523,437h0a1.05,1.05,0,0,1,.46-.45l0,.05c.14-.39.56-.27.73-.59h0a4.89,4.89,0,0,1,.46-.45l0,0a.88.88,0,0,1,.46-.47l0,.05c.12-.44.54-.3.73-.6h0a1.64,1.64,0,0,1,.46-.45l0,.05c.15-.37.56-.24.72-.59h0a5.7,5.7,0,0,0,.43-.42v0a1,1,0,0,1,.46-.47l0,0c.14-.4.55-.28.74-.59h0a2.18,2.18,0,0,1,.46-.45l0,0c.16-.36.57-.23.72-.58l0,0a5.7,5.7,0,0,0,.43-.42h0a1,1,0,0,1,.46-.45l0,.05c.14-.4.55-.29.74-.59h0a2.18,2.18,0,0,1,.46-.45l0,.05c.15-.37.55-.24.72-.58h0c.16-.13.28-.31.46-.45v0a.88.88,0,0,1,.46-.45l0,.06c.13-.45.54-.31.75-.59h0a1.24,1.24,0,0,1,.46-.45l0,.05c.14-.39.55-.28.74-.58h0a1.79,1.79,0,0,1,.46-.45l0,0c.16-.37.56-.25.74-.58h0a3.16,3.16,0,0,1,.46-.43l0,0c.16-.34.56-.21.72-.57h0c.17-.1.28-.29.46-.41v0a.92.92,0,0,1,.46-.45l0,.06c.13-.45.53-.32.75-.59h0a1.05,1.05,0,0,1,.46-.45l0,.06c.15-.41.55-.3.76-.58h0a1.05,1.05,0,0,1,.46-.45l0,.05c.14-.4.55-.29.75-.58h0a1.32,1.32,0,0,1,.46-.45l0,.06c.15-.4.55-.29.75-.58h0a1.32,1.32,0,0,1,.46-.45l0,.05c.15-.4.55-.29.76-.58h0a1.24,1.24,0,0,1,.46-.45l0,.05c.15-.4.55-.29.75-.58h0a1.32,1.32,0,0,1,.46-.45l0,.05c.16-.4.55-.29.77-.57h0a1.05,1.05,0,0,1,.46-.45l-.05.06c.15-.42.55-.31.77-.58h0a1,1,0,0,1,.46-.45l0,.06c.14-.43.54-.32.77-.58h0c.17-.33.56-.2.72-.55l0,0c.17-.11.28-.31.46-.42l0,0c.17-.35.57-.23.74-.56h0c.16-.14.27-.33.46-.42l0,0c.17-.37.57-.26.76-.56h0a1.41,1.41,0,0,1,.46-.45l0,.05c.15-.4.55-.3.76-.57h0a.83.83,0,0,1,.57-.44c.1,0,.17,0,.21-.13l.42-.39,0,0c.17-.35.56-.24.75-.55h0c.15-.14.26-.35.46-.42l0,.05c.16-.4.56-.29.77-.57h0a.79.79,0,0,1,.56-.44c.1,0,.17,0,.21-.12l.43-.4,0,0c.18-.35.56-.24.76-.54h0c.15-.16.26-.37.46-.43l0,0c.15-.4.55-.31.78-.56h0c.17-.33.56-.22.74-.54h0c.15-.14.27-.35.46-.42l0,.05c.16-.39.56-.3.78-.56h0c.18-.32.57-.21.75-.53h0c.15-.14.27-.35.46-.42l0,0c.16-.39.55-.29.78-.56h0c.18-.32.56-.21.75-.53h0c.15-.13.27-.35.46-.41l0,.05c.16-.4.55-.3.78-.56h0c.18-.34.56-.23.76-.53h0a1,1,0,0,1,.55-.45c.11,0,.18,0,.24-.12a5.22,5.22,0,0,1,.43-.39l0,0c.18-.36.56-.27.78-.54h0c.19-.31.57-.21.76-.52h0a1.12,1.12,0,0,1,.54-.42.2.2,0,0,0,.25-.13l.43-.38,0,0c.18-.36.56-.26.78-.53h0c.19-.32.56-.22.76-.52h0a1.05,1.05,0,0,1,.55-.42c.1,0,.18,0,.24-.11a4,4,0,0,1,.43-.39l0,0c.17-.37.55-.28.79-.53h0c.19-.34.56-.24.78-.53h0c.19-.29.57-.19.75-.51h0a1.16,1.16,0,0,1,.56-.41.18.18,0,0,0,.23-.1h0a3.5,3.5,0,0,1,.46-.39l0,.05c.17-.39.55-.3.79-.53h0c.18-.36.56-.27.79-.53h0c.2-.32.57-.23.78-.51h0c.2-.29.57-.19.77-.5h0c.2-.27.57-.17.75-.5h0a1.14,1.14,0,0,1,.55-.39.19.19,0,0,0,.23-.1v0c.15-.12.26-.32.46-.38l0,.05c.18-.4.55-.32.81-.52l0,0c.18-.38.56-.29.8-.52h0c.18-.36.56-.28.79-.51h0c.19-.35.56-.27.8-.51l0,0c.19-.34.56-.26.79-.51h0c.2-.33.57-.25.8-.51h0c.2-.32.56-.24.79-.5h0c.2-.32.57-.24.8-.49h0c.2-.32.56-.24.79-.5h0c.2-.32.57-.24.79-.5h0c.21-.32.57-.24.8-.5h0c.2-.32.56-.23.79-.49h0c.21-.32.57-.25.81-.49h0c.2-.34.57-.26.81-.5h0c.2-.34.56-.27.81-.5h0c.19-.36.56-.28.81-.5l0,0c.21-.38.6-.32.88-.51a.23.23,0,0,0,.28-.11,1.16,1.16,0,0,1,.53-.37.18.18,0,0,0,.24-.1c.22-.24.57-.13.75-.45h0c.23-.25.58-.18.79-.45h0c.22-.28.58-.21.8-.47h0c.21-.31.57-.25.81-.48h0c.2-.35.56-.27.81-.49h0c.22-.38.6-.33.92-.49a.19.19,0,0,0,.25-.1h0c.22-.24.57-.14.76-.45h0c.23-.27.58-.2.81-.44h0c.21-.31.57-.25.81-.48l0,0c.23-.37.61-.32.92-.49a.2.2,0,0,0,.26-.1h0c.22-.24.57-.14.77-.45h0c.23-.27.58-.22.82-.44h0c.24-.35.6-.3.89-.48a.23.23,0,0,0,.28-.11c.22-.23.56-.14.77-.45h0c.22-.27.57-.21.81-.45h0c.24-.35.6-.3.92-.47.1.05.18,0,.25-.1.23-.24.57-.16.79-.45h0c.24-.31.6-.26.88-.45a.24.24,0,0,0,.29-.11c.23-.21.57-.13.78-.42h0c.22-.28.57-.22.81-.45l0,0c.28-.53.86-.07,1.16-.54h0c.23-.28.57-.22.82-.45l0,0c.28-.53.85-.09,1.16-.54h0c.24-.3.6-.25.88-.45a.24.24,0,0,0,.29-.1c.23-.23.56-.15.79-.42h0c.25-.31.61-.28.92-.44a.18.18,0,0,0,.24-.08h0c.23-.26.57-.19.81-.43h0c.29-.51.86-.08,1.17-.53h0c.26-.29.61-.27.92-.45a.18.18,0,0,0,.25-.06v0c.23-.26.57-.19.81-.42h0c.3-.52.86-.1,1.18-.52h0c.3-.48.86-.06,1.17-.51h0c.26-.28.61-.27.92-.43a.18.18,0,0,0,.24-.06v0c.25-.27.6-.23.88-.41a.21.21,0,0,0,.28-.09c.26-.25.6-.2.87-.41a.24.24,0,0,0,.3-.09c.26-.23.59-.18.84-.4a.29.29,0,0,0,.33-.1c.25-.21.58-.16.84-.38a.3.3,0,0,0,.33-.1c.25-.21.58-.17.84-.39a.27.27,0,0,0,.32-.09c.24-.21.57-.17.8-.39h0c.32-.5.87-.12,1.23-.5a.28.28,0,0,0,.32-.09c.26-.22.6-.19.86-.39a.26.26,0,0,0,.31-.08c.26-.24.6-.22.88-.4a.2.2,0,0,0,.28-.08c.27-.24.62-.24.92-.39a.16.16,0,0,0,.22,0l0,0c.33-.43.86,0,1.19-.45h0c.34-.45.87-.09,1.23-.47a.3.3,0,0,0,.33-.09c.27-.22.6-.2.88-.38a.19.19,0,0,0,.27-.06h0c.33-.39.85,0,1.18-.45h0c.35-.45.88-.11,1.25-.45a.25.25,0,0,0,.31-.08c.33-.37.84,0,1.16-.45h0c.36-.41.89-.1,1.27-.45a.21.21,0,0,0,.29-.07c.35-.38.87,0,1.21-.45a.31.31,0,0,0,.35-.08,5.16,5.16,0,0,1,.92-.36.16.16,0,0,0,.22,0l0,0c.36-.41.89-.1,1.27-.45a.21.21,0,0,0,.29-.07c.36-.38.87-.06,1.24-.45a.25.25,0,0,0,.32-.07c.35-.36.86,0,1.22-.42a.29.29,0,0,0,.33-.07c.36-.35.87,0,1.22-.41a.3.3,0,0,0,.34-.08c.36-.34.87,0,1.22-.4a.26.26,0,0,0,.33-.07c.37-.35.87-.06,1.24-.41a.24.24,0,0,0,.31-.06c.38-.36.89-.1,1.28-.41a.19.19,0,0,0,.26,0v0c.46-.5,1.12.05,1.57-.45h0c.46-.53,1.15,0,1.65-.44a.23.23,0,0,0,.3-.06c.46-.47,1.12.05,1.59-.45a.31.31,0,0,0,.35-.07c.4-.32.89-.08,1.29-.38a.17.17,0,0,0,.24,0l0,0c.49-.5,1.15,0,1.66-.45a.2.2,0,0,0,.28,0h0c.5-.48,1.15,0,1.66-.45a.2.2,0,0,0,.28,0h0c.5-.48,1.15,0,1.67-.45a.19.19,0,0,0,.25,0l0,0c.6-.57,1.38.08,2-.45a.29.29,0,0,0,.35-.05c.5-.42,1.14,0,1.64-.4a.22.22,0,0,0,.29,0h0c.62-.55,1.38.06,2-.45a.25.25,0,0,0,.32,0c.62-.53,1.38.07,2-.45a.25.25,0,0,0,.32,0c.63-.52,1.4.05,2-.45l.69-.09c.62-.45,1.38.1,2-.41a.27.27,0,0,0,.33,0c.65-.49,1.43,0,2.08-.41l1-.12c.63-.44,1.38.09,2-.39l.7-.07c.76-.51,1.64.11,2.4-.42l.71-.07c.77-.49,1.66.09,2.43-.4l1.07-.09c.78-.45,1.67.08,2.45-.38l1-.09c1-.55,2.16.14,3.19-.42l1.08-.07c1-.51,2.19.12,3.22-.39a2.41,2.41,0,0,0,1.43-.1c1.29-.55,2.67.18,4-.41a2.79,2.79,0,0,0,1.49-.08c1.3-.53,2.69.16,4-.39a2.56,2.56,0,0,0,1.45-.07c1.55-.57,3.18.17,4.73-.43a2.7,2.7,0,0,0,1.49-.07c1.42-.53,2.93.16,4.35-.41a2.76,2.76,0,0,0,1.48-.07c1.3-.54,2.68.15,4-.4a2.75,2.75,0,0,0,1.45-.09c1.18-.53,2.43.15,3.6-.4l1.07-.07c1-.54,2.19.12,3.22-.4l1-.08c1-.57,2.15.15,3.18-.45l.7-.06c.89-.54,1.91.13,2.8-.42l.7-.07c.77-.5,1.65.1,2.42-.41l.69-.08c.65-.45,1.42,0,2.07-.39l.65-.08c.64-.48,1.41.05,2.05-.41l.67-.09c.52-.4,1.16,0,1.69-.39l.64-.09c.51-.41,1.15,0,1.67-.4l.67-.1c.48-.41,1.12.06,1.6-.4a.29.29,0,0,0,.34-.06c.46-.45,1.12,0,1.6-.42a.3.3,0,0,0,.34-.06c.46-.45,1.12.05,1.59-.45a.33.33,0,0,0,.36-.07c.37-.33.88-.07,1.26-.39a.18.18,0,0,0,.27,0h0c.46-.5,1.13,0,1.6-.45a.31.31,0,0,0,.35-.07c.37-.33.87,0,1.23-.4a.28.28,0,0,0,.33-.07c.36-.35.87-.07,1.24-.41a.24.24,0,0,0,.31-.06c.36-.37.87-.08,1.25-.42a.24.24,0,0,0,.3-.07c.36-.37.87-.06,1.24-.42a.27.27,0,0,0,.32-.08c.35-.36.86,0,1.2-.42a.3.3,0,0,0,.35-.08,5.48,5.48,0,0,1,.92-.36.16.16,0,0,0,.25-.07c.36-.41.89-.08,1.25-.45a.26.26,0,0,0,.32-.07c.33-.37.84,0,1.16-.45h0c.35-.45.88-.09,1.24-.45a.28.28,0,0,0,.33-.09c.27-.22.6-.21.92-.37a.19.19,0,0,0,.25-.05v0c.33-.4.86,0,1.18-.45h0c.32-.45.86-.08,1.19-.48h0c.33-.48.88-.11,1.24-.48a.3.3,0,0,0,.32-.09c.26-.23.59-.19.86-.4a.25.25,0,0,0,.31-.09c.26-.22.6-.2.88-.38a.21.21,0,0,0,.28-.08c.26-.25.6-.22.88-.4a.21.21,0,0,0,.28-.09c.26-.25.6-.2.87-.41a.24.24,0,0,0,.3-.09c.24-.22.57-.17.81-.39l0,0c.3-.52.86-.11,1.19-.51h0c.3-.5.85-.09,1.18-.52h0c.3-.47.85-.06,1.16-.51h0c.26-.28.61-.26.92-.45a.19.19,0,0,0,.26-.08h0c.24-.25.59-.2.85-.41a.27.27,0,0,0,.31-.11c.24-.21.57-.14.79-.4h0c.25-.31.61-.29.92-.45a.16.16,0,0,0,.23,0l0,0c.23-.26.57-.2.81-.42l0,0c.28-.53.85-.09,1.16-.54h0c.25-.3.6-.26.89-.45a.23.23,0,0,0,.28-.1c.23-.23.57-.16.79-.42h0c.25-.31.61-.28.92-.45a.2.2,0,0,0,.26-.09h0c.23-.24.57-.16.8-.43h0c.24-.31.6-.27.89-.44A.21.21,0,0,0,819,319c.23-.23.57-.15.79-.42h0c.23-.31.59-.26.87-.45a.26.26,0,0,0,.3-.11c.23-.22.56-.13.76-.42h0c.23-.27.58-.21.82-.45h0c.23-.35.6-.31.92-.48a.18.18,0,0,0,.25-.09h0c.22-.24.56-.15.77-.45h0c.23-.29.58-.23.82-.45l0,0c.23-.36.6-.32.92-.48a.2.2,0,0,0,.26-.1h0c.22-.24.57-.15.77-.45h0c.22-.28.57-.22.81-.45h0c.21-.33.57-.26.82-.48l0,0c.23-.38.61-.34.92-.49a.18.18,0,0,0,.23-.07,0,0,0,0,1,0,0c.22-.26.57-.16.78-.45h0c.22-.28.57-.22.81-.45h0c.21-.33.56-.26.81-.48l0,0c.23-.38.6-.33.92-.5a.21.21,0,0,0,.27-.11h0c.21-.24.56-.13.75-.45h0c.22-.25.58-.18.79-.45h0c.21-.29.57-.22.8-.45h0c.21-.32.57-.25.81-.48l0,0c.2-.35.56-.28.81-.49l0,0c.22-.38.6-.32.89-.5a.21.21,0,0,0,.27-.12,1.16,1.16,0,0,1-1.41.34.17.17,0,0,0,.23-.08v0c.21-.25.57-.14.75-.45h0c.22-.25.58-.17.78-.45h0c.22-.27.57-.19.79-.47h0c.21-.29.57-.22.79-.48h0c.21-.31.57-.24.8-.49h0c.21-.33.57-.25.8-.49h0c.2-.34.57-.26.81-.5h0c.19-.35.56-.28.8-.5l0,0c.19-.36.55-.28.8-.5l0,0c.19-.36.56-.28.81-.5l0,0c.19-.37.56-.29.82-.5l0,0c.19-.4.55-.32.81-.52l0,0c.18-.39.55-.31.81-.52l0,0c.18-.4.55-.31.81-.52l0,0c.19-.39.56-.31.81-.51l0,0c.18-.39.55-.31.81-.52l0,0c.18-.39.55-.3.81-.51l0,0c.18-.39.55-.31.81-.52l0,0c.19-.39.56-.3.81-.51l0,0c.18-.39.55-.31.81-.51l0,0c.18-.38.55-.31.81-.51l0,0c.17-.39.55-.31.81-.51l0,0c.18-.39.56-.31.81-.53l0,0c.18-.37.55-.29.8-.52l0,0c.19-.36.56-.29.81-.51h0c.19-.36.56-.28.8-.5l0,0c.19-.36.56-.28.8-.52l0,0c.19-.34.56-.26.8-.51h0c.2-.34.57-.26.8-.5h0c.2-.34.57-.26.79-.52h0c.21-.32.57-.23.8-.49h0c.2-.31.57-.23.79-.51h0c.21-.29.57-.21.78-.49h0c.21-.3.57-.2.77-.5h0c.22-.28.57-.19.77-.49h0c.21-.27.58-.17.77-.49h0c.21-.25.57-.15.75-.48h0A.91.91,0,0,1,866.78,290.24Z"/></g></g></svg>