<?xml version="1.0" encoding="utf-8"?>
<!-- Generator: Adobe Illustrator 24.1.2, SVG Export Plug-In . SVG Version: 6.00 Build 0)  -->
<svg version="1.1" id="Layer_1" xmlns="http://www.w3.org/2000/svg" xmlns:xlink="http://www.w3.org/1999/xlink" x="0px" y="0px"
	 viewBox="0 0 1920 1080" style="enable-background:new 0 0 1920 1080;" xml:space="preserve">
<style type="text/css">
	.st0{fill:url(#SVGID_1_);}
</style>
<linearGradient id="SVGID_1_" gradientUnits="userSpaceOnUse" x1="422.5186" y1="149.0168" x2="1389.4216" y2="1115.9203" gradientTransform="matrix(1 0 0 -1 0 1080)">
	<stop  offset="0" style="stop-color:#E98800"/>
	<stop  offset="0.4274" style="stop-color:#E8FF3F"/>
	<stop  offset="0.9832" style="stop-color:#FBB03B"/>
</linearGradient>
<path class="st0" d="M804.9,866.6c-7.6-4-16.7-6.3-22.5-12.1c-55.5-56.1-111.3-112.2-165.4-169.7c-52.6-55.8-102.5-114-155.2-169.7
	c-27.8-29.4-43.8-27.6-67.3,4c-44.9,60.5-93.4,117.5-152.7,164.8c-5.2,4.1-8.5,17.6-5.7,23.4c13.2,26.9,25.9,54.9,44.2,78.2
	c42.2,53.6,98.7,91.1,155.6,127.2c28,17.7,59.8,20.7,91.9,14.9c60-10.7,119.9-22.2,179.8-33.4c30-5.6,60.1-11.3,90.1-16.9
	C800.3,873.7,802.6,870.2,804.9,866.6z M772.7,276.5c-14.6,3.1-35.8,3.9-45.7-4.4c-46.9-38.9-102.1-45.8-159-48.4
	c-64.9-2.9-120.7,17.2-162.6,68.5c-15.2,18.6-30.1,37.5-42.7,57.9c-33.7,54.7-67.3,109.5-98.2,165.8c-14.4,26.1-25.3,55-32.4,84
	c-6.1,24.9-4.4,51.6-6.2,77.5c2.8,0.7,5.6,1.3,8.4,2c15-13.3,31.4-25.2,44.7-40c38.2-42.6,75.4-86.1,112.3-129.8
	c23.7-28.1,39.6-30.2,69.1-8.3c7.3,5.4,17.7,10.6,26.3,10c62.1-4.2,122.5-17.1,179.8-42.1c43.3-18.9,83.4-43.4,105.5-86.9
	c21-41.1,37.8-84.4,57.9-129.9C808.1,262,791.1,272.6,772.7,276.5z M829,739.7c-4-8.3-7.8-16.8-11.3-25.4
	c-15.5-38.3-2.4-58.9,38.5-58.8c22.4,0,44.8,3.4,67.2,3c13.4-0.2,29.2-1.3,39.8-8.1c25.8-16.7,49.2-37.2,74.8-57.1
	c-46.1-44.9-84.2-97.4-151.9-107.5c-33.5-5-67.7-10.1-101.3-8.7c-40.7,1.6-81.2,9.4-121.6,15.7c-59.4,9.3-118.8,19.5-183.9,30.3
	c111,118.5,218.3,233.1,326.9,349C845.5,827.7,851.5,786.5,829,739.7z M1087.1,186.1c-45.4-8.8-91.6-15.6-137.7-18.1
	c-16.9-0.9-37.3,9.2-51.4,20.3c-34.2,26.8-62.9,58.7-76.4,102.1c-7.1,22.7-19.8,43.6-28,66.1c-20.4,55.1-60.7,90.1-111.9,115
	c-5.5,2.7-10.8,5.8-16.2,8.7c193.6-28,344.7-133.1,488.4-267.1C1129.5,202.9,1109.1,190.3,1087.1,186.1z M1333.5,514.6
	c-30.1-30.8-58.3-63.9-91-91.7c-29.3-24.8-65.9-37.3-105.4-36.1c-51.9,1.5-103.7,5.2-155.6,5.3c-30.2,0-57,5.7-83.8,20.8
	c-30.2,17-63.2,28.9-95,43.1c-7,3.2-14,6.6-20.9,10c111.1-8.4,196.6,36,260.6,122.8c23.4-16.5,41.4-31.6,61.6-42.7
	c17.2-9.4,36.6-19.2,55.4-20.1c56.8-2.6,113.9-0.9,170.9-0.9C1331.4,521.4,1332.5,518,1333.5,514.6z M1313.1,481.9
	c7.8,8.6,15.5,17.4,24,25.2c4.2,3.8,11.4,9.1,15.2,7.8c20.8-7.2,42.3-14.1,61.2-25.1c24.5-14.3,45.4-35,70.4-48.2
	c50.5-26.7,102.7-50.2,154.1-75c27.5-13.3,40.5-35.3,36.3-63.4c-5.6-38.1-25.3-68.8-50.2-96.8c-66.5,45.8-113.4,117.6-195.3,136.4
	c-77.2,17.8-155.5,30.6-234,45.7C1246.1,402.5,1278.4,443.7,1313.1,481.9z M1117.3,372.1c21.9-0.4,46.1,1.3,65.2-7.3
	c49.1-21.9,98.2-45.5,143-75.1c37.9-25,69.8-59.3,104.4-89.5c-47.4-12.6-91-24.9-135.1-35.5c-30-7.2-61.3-10-85.1,14.7
	c-18.5,19.2-37.7,35.8-59.5,51.6c-63,45.8-121.5,97.6-174.8,141.3C1017,372.5,1067.2,373.1,1117.3,372.1z M1582.8,192
	c-18.6,0.4-37.2,3.9-55.6,2.9c-60.4-3.4-108.5,15.9-150.2,62.3c-41.6,46.3-95.9,78-153.8,102c-10,4.1-19.9,8.5-29.8,12.7
	c27.2,0,53.4-2.5,79.4-5.5c107.4-12.8,211.3-33.5,288.8-119.5c15.7-17.4,35.5-31,59.2-51.4C1603.3,193.8,1593.1,191.8,1582.8,192z"
	/>
</svg>
