<?xml version="1.0" encoding="utf-8"?>
<!-- Generator: Adobe Illustrator 24.1.2, SVG Export Plug-In . SVG Version: 6.00 Build 0)  -->
<svg version="1.1" id="Layer_1" xmlns="http://www.w3.org/2000/svg" xmlns:xlink="http://www.w3.org/1999/xlink" x="0px" y="0px"
	 viewBox="0 0 1920 1080" style="enable-background:new 0 0 1920 1080;" xml:space="preserve">
<style type="text/css">
	.st0{fill:url(#SVGID_1_);}
</style>
<linearGradient id="SVGID_1_" gradientUnits="userSpaceOnUse" x1="618.5547" y1="163.7296" x2="1256.2205" y2="801.3953" gradientTransform="matrix(1 0 0 -1 0 1080)">
	<stop  offset="0" style="stop-color:#FBBC36"/>
	<stop  offset="0.5026" style="stop-color:#FCED22"/>
	<stop  offset="1" style="stop-color:#FF81A4"/>
</linearGradient>
<path class="st0" d="M855.6,18.7c34-5.1,65-9.8,97.6-14.7c0,37.9-1.9,74.9,0.6,111.6c1.9,29.1,6.1,58.6,14.5,86.4
	c17.1,56.1,52.3,75,109.6,65c30.4-5.3,60.9-10.6,91.6-12.5c53.9-3.4,97.2,19.8,119.2,68.1c20.8,45.9,37.6,94.9,47.1,144.3
	c12,62.8,14.9,127.3,21.6,191c0.4,3.6,0,7.3,0,13.6c-38.5-31-74.3-61-111.4-89.3c-78.2-59.7-160.9-112.2-250.9-152.3
	c-13-5.8-18.8-12.8-18.3-27.5c0.9-31.6-10.4-60.1-31.7-82.4C864.1,235.2,860,128.7,855.6,18.7z M475.1,689
	c11.7-18,31.1-30.7,50.4-21.8c26.7,12.4,51.9,30.2,73.5,50.3c9.7,9,9.6,28.9,13,44c2,9,1.8,18.4,2.9,27.7
	c9.5,74.3,37.8,139.3,91.8,192.7c16.1,15.9,29.5,17,44,0.6c15.8-17.8,34-34.4,45.5-54.8c49.2-86.8,38.4-177.9,16.9-270.7
	c-77.9,2-146.4-24.6-214.4-55.2c-41-18.5-85.3-27.3-131-22.7c-26.6,2.6-40.2,14.6-42.1,38c-3.4,42.8,4.4,83.9,19.5,125.7
	C455.7,723.5,464.4,705.6,475.1,689z M961.5,552.7c-18,21.8-34,41.3-50.2,60.9c87.5,136,116.5,286.1,110.8,446.5
	c88.6-16.5,163.9-53.8,229.3-116.3C1186.2,788.3,1090.6,658.3,961.5,552.7z M972,517.6c-4.5,19.5,3,28.7,16.3,40
	c82.1,69.3,151.8,149.6,205.7,242.7c24.5,42.2,46.4,85.9,70,130c57.9-63.8,88.6-138.6,92.8-224.1c0.4-8.1-6.4-18.6-13-24.6
	c-72.8-67.4-152.1-126.2-237.2-177c-40.2-24-82.2-44.8-126.8-68.8C977.3,467.2,977.6,493.1,972,517.6z M767.6,1025.1
	c65.8,36.5,137.1,44.2,210.8,41.7c22.9-0.8,30.3-9.4,30.5-31.7c0.9-100.5-10.9-199.1-48.4-292.9c-16.7-41.7-38.5-81.4-57.4-120.9
	c-28.4,13.2-51.2,23.8-74.6,34.8c26.4,130.7,35,257.5-86.7,353.2C750.5,1014.7,758.8,1020.2,767.6,1025.1z"/>
</svg>
