<?xml version="1.0" encoding="utf-8"?>
<!-- Generator: Adobe Illustrator 24.1.2, SVG Export Plug-In . SVG Version: 6.00 Build 0)  -->
<svg version="1.1" id="Layer_1" xmlns="http://www.w3.org/2000/svg" xmlns:xlink="http://www.w3.org/1999/xlink" x="0px" y="0px"
	 viewBox="0 0 1920 1080" style="enable-background:new 0 0 1920 1080;" xml:space="preserve">
<style type="text/css">
	.st0{fill:url(#SVGID_1_);}
	.st1{fill:url(#SVGID_2_);}
	.st2{fill:url(#SVGID_3_);}
	.st3{fill:url(#SVGID_4_);}
	.st4{fill:url(#SVGID_5_);}
	.st5{fill:url(#SVGID_6_);}
	.st6{fill:url(#SVGID_7_);}
	.st7{fill:url(#SVGID_8_);}
	.st8{fill:url(#SVGID_9_);}
	.st9{fill:url(#SVGID_10_);}
	.st10{fill:url(#SVGID_11_);}
	.st11{fill:url(#SVGID_12_);}
</style>
<g>
	
		<linearGradient id="SVGID_1_" gradientUnits="userSpaceOnUse" x1="483.0674" y1="309.2282" x2="483.0674" y2="608.7957" gradientTransform="matrix(1 0 0 -1 0 1080)">
		<stop  offset="0" style="stop-color:#FE3E99"/>
		<stop  offset="0.2064" style="stop-color:#EE2E7C"/>
		<stop  offset="0.3878" style="stop-color:#E4256A"/>
		<stop  offset="0.5168" style="stop-color:#E02163"/>
		<stop  offset="0.5671" style="stop-color:#DB225A"/>
		<stop  offset="0.7089" style="stop-color:#D02447"/>
		<stop  offset="0.8526" style="stop-color:#C9263B"/>
		<stop  offset="1" style="stop-color:#C72637"/>
	</linearGradient>
	<path class="st0" d="M532.7,491.8c33.9,0.1,73,6.6,106.5,31.8c34.6,26,56,59.8,49.7,106.2c-4.2,31.3-19.3,57.5-41.9,78.1
		c-63.2,57.5-137.3,86.9-222.2,83.2c-40.3-1.7-77.5-15.3-108.8-42.2c-45.4-39-52.7-101.7-18.2-151c28-39.9,67.2-64.4,110.8-82.2
		C446.2,500.3,485.3,492,532.7,491.8z"/>
	
		<linearGradient id="SVGID_2_" gradientUnits="userSpaceOnUse" x1="482.1266" y1="343.0722" x2="482.1266" y2="442.5182" gradientTransform="matrix(1 0 0 -1 0 1080)">
		<stop  offset="0" style="stop-color:#FFFFFF"/>
		<stop  offset="5.280000e-02" style="stop-color:#FFE4F8"/>
		<stop  offset="0.1687" style="stop-color:#FFAFEA"/>
		<stop  offset="0.277" style="stop-color:#FF85DF"/>
		<stop  offset="0.3745" style="stop-color:#FF67D7"/>
		<stop  offset="0.4577" style="stop-color:#FF55D3"/>
		<stop  offset="0.5168" style="stop-color:#FF4ED1"/>
		<stop  offset="0.5911" style="stop-color:#FA40B8"/>
		<stop  offset="0.6912" style="stop-color:#F4319C"/>
		<stop  offset="0.7926" style="stop-color:#F02789"/>
		<stop  offset="0.895" style="stop-color:#EE207D"/>
		<stop  offset="1" style="stop-color:#ED1E79"/>
	</linearGradient>
	<path class="st1" d="M341.5,717.9c3.8,3.6,6.8,8.2,11,9.9c12.5,5.1,25.1,11.4,38.2,13.3c51.9,7.6,102.3-1.6,151.6-18.1
		c22.7-7.6,45.1-16.6,62.8-33.5c7.5-7.2,12.9-17.6,16.9-27.5c1.9-4.7-1.3-11.7-2.3-17.7c-1.2,0-2.4,0-3.5,0
		c8.7,21.7-3.1,34.7-17.8,46.3c-5.3,4.2-11.2,7.9-17.2,11.2c-32.3,18-67.3,27.6-103.4,33.4c-33.1,5.4-66.4,8.3-99.2-0.5
		C366.1,731.4,354.5,724,341.5,717.9z"/>
	
		<linearGradient id="SVGID_3_" gradientUnits="userSpaceOnUse" x1="961.1348" y1="48.0769" x2="961.1348" y2="340.8718" gradientTransform="matrix(1 0 0 -1 0 1080)">
		<stop  offset="0" style="stop-color:#FF3F9A"/>
		<stop  offset="4.100000e-02" style="stop-color:#FB3792"/>
		<stop  offset="0.1574" style="stop-color:#F12580"/>
		<stop  offset="0.2402" style="stop-color:#ED1E79"/>
		<stop  offset="0.9581" style="stop-color:#C1272D"/>
	</linearGradient>
	<path class="st2" d="M997.2,759.2c32,0.2,68.7,6.3,102.7,24.5c20.9,11.2,38.4,26.4,51.3,46.8c25,39.4,24.8,79.1,0.8,118.7
		c-13.8,22.6-32.8,40.2-55,53.5c-60.2,35.9-124.8,55-195.1,47.8c-42.7-4.4-81-20.3-113.2-50.2c-44.5-41.4-48.6-106.8-9.3-154.9
		c27.5-33.7,64-53.6,103.7-67.7C918.1,765.3,954.2,759.2,997.2,759.2z"/>
	
		<linearGradient id="SVGID_4_" gradientUnits="userSpaceOnUse" x1="979.0994" y1="75.2269" x2="979.0994" y2="175.208" gradientTransform="matrix(1 0 0 -1 0 1080)">
		<stop  offset="0" style="stop-color:#FFFFFF"/>
		<stop  offset="5.280000e-02" style="stop-color:#FFE4F8"/>
		<stop  offset="0.1687" style="stop-color:#FFAFEA"/>
		<stop  offset="0.277" style="stop-color:#FF85DF"/>
		<stop  offset="0.3745" style="stop-color:#FF67D7"/>
		<stop  offset="0.4577" style="stop-color:#FF55D3"/>
		<stop  offset="0.5168" style="stop-color:#FF4ED1"/>
		<stop  offset="0.5911" style="stop-color:#FA40B8"/>
		<stop  offset="0.6912" style="stop-color:#F4319C"/>
		<stop  offset="0.7926" style="stop-color:#F02789"/>
		<stop  offset="0.895" style="stop-color:#EE207D"/>
		<stop  offset="1" style="stop-color:#ED1E79"/>
	</linearGradient>
	<path class="st3" d="M1123,911.6c2.4,24.8-0.9,32.8-22.3,47.1c-11,7.4-22.9,13.8-35,19c-36.9,15.8-75.7,25.1-115.5,28.5
		c-41.4,3.6-83.5,7.7-120.7-19.8c3.2,4.2,6.5,8.7,11,10.6c10.9,4.6,22.1,10.1,33.5,11.6c74.2,9.6,145-4.1,212.1-36.7
		c12.8-6.2,24.4-16.5,34.5-27C1131.2,933.9,1130.9,921.1,1123,911.6z"/>
	
		<linearGradient id="SVGID_5_" gradientUnits="userSpaceOnUse" x1="1397.9452" y1="304.3551" x2="1397.9452" y2="596.5902" gradientTransform="matrix(1 0 0 -1 0 1080)">
		<stop  offset="0" style="stop-color:#FF3F9A"/>
		<stop  offset="4.100000e-02" style="stop-color:#FB3792"/>
		<stop  offset="0.1574" style="stop-color:#F12580"/>
		<stop  offset="0.2402" style="stop-color:#ED1E79"/>
		<stop  offset="0.9581" style="stop-color:#C1272D"/>
	</linearGradient>
	<path class="st4" d="M1371.3,795.7c-44.9-0.5-85.1-10.2-121.5-33.9c-77.3-50.5-81.7-141.3-9.2-198.7
		c39.7-31.5,85.7-47.8,134.7-55.5c43.9-6.9,87.5-5.6,130.2,8.3c29.1,9.5,54.7,24.5,74.5,48.9c36.3,45,36,100-1,144.7
		c-18.8,22.8-42.3,38.9-68.5,51.6C1465.7,782.7,1418.7,794.7,1371.3,795.7z"/>
	
		<linearGradient id="SVGID_6_" gradientUnits="userSpaceOnUse" x1="1428.8723" y1="331.6472" x2="1428.8723" y2="437.0702" gradientTransform="matrix(1 0 0 -1 0 1080)">
		<stop  offset="0" style="stop-color:#FFFFFF"/>
		<stop  offset="5.280000e-02" style="stop-color:#FFE4F8"/>
		<stop  offset="0.1687" style="stop-color:#FFAFEA"/>
		<stop  offset="0.277" style="stop-color:#FF85DF"/>
		<stop  offset="0.3745" style="stop-color:#FF67D7"/>
		<stop  offset="0.4577" style="stop-color:#FF55D3"/>
		<stop  offset="0.5168" style="stop-color:#FF4ED1"/>
		<stop  offset="0.5911" style="stop-color:#FA40B8"/>
		<stop  offset="0.6912" style="stop-color:#F4319C"/>
		<stop  offset="0.7926" style="stop-color:#F02789"/>
		<stop  offset="0.895" style="stop-color:#EE207D"/>
		<stop  offset="1" style="stop-color:#ED1E79"/>
	</linearGradient>
	<path class="st5" d="M1574.3,650.2c7.3,19.8-2.3,32.7-16.2,43.4c-8.9,6.9-18.4,13.4-28.5,18.2c-59.3,28.2-121.8,42-187.1,39.3
		c-16.9-0.7-33.7-7.1-50.2-11.9c-4.9-1.4-9-6-13.5-9.1c-0.6,0.9-1.2,1.9-1.8,2.8c6.3,4.2,12.2,9.9,19.1,12.3
		c11.8,4.1,24.1,7.3,36.4,8.8c38.7,4.7,76.7-1.1,114.4-9.6c35-7.9,69.3-18.5,99.8-38.3c10.4-6.8,19.9-15.8,27.8-25.5
		C1583.1,670.1,1582.1,660,1574.3,650.2z"/>
	
		<linearGradient id="SVGID_7_" gradientUnits="userSpaceOnUse" x1="874.9471" y1="763.0348" x2="1118.1266" y2="1006.2141" gradientTransform="matrix(1 0 0 -1 0 1080)">
		<stop  offset="5.586592e-03" style="stop-color:#D8D5FF"/>
		<stop  offset="0.4861" style="stop-color:#E1A0FF"/>
		<stop  offset="1" style="stop-color:#EC62FF"/>
	</linearGradient>
	<path class="st6" d="M996.9,359.2c-57.8-0.6-107.6-20.5-144.8-66.6c-55.7-69-44.8-161.5,24.5-219.5
		c73.2-61.3,189.8-54.5,255.5,14.8c66.4,69.9,56.3,177-22.3,234.7C1076.2,347.2,1038.5,359.5,996.9,359.2z M1008.1,108.1
		c3.5,4,6,6.7,8.2,9.6c8,10.8,15.6,21.9,24,32.4c5.3,6.6,12.5,12.9,21.1,9.4c21.9-8.7,41.3-21.5,54-42.5c6.8-11.2,4.3-21.4-5.7-29.5
		c-8.8-7.1-17.9-13.8-26.6-21.1C1063.2,49.9,1040.8,42,1015,45c-19.6,2.3-39.3,3.6-58.6,7.4c-12.1,2.4-24.5,6.8-34.9,13.3
		c-31.4,19.6-47.1,51.1-56.9,85.9c-7.3,26.2,5.1,46,31.2,51.9c21.8,4.9,33.5-4.2,34-26.9c0.3-13.9-0.3-27.8,0.5-41.7
		c0.9-13.7,6.6-18.5,19.9-17.7c7.4,0.4,14.8,2.3,22.2,2.9C985.2,121.2,998.7,124.1,1008.1,108.1z M1104.2,174.2
		c-5.7-3.8-9.1-7.7-11.5-7.2c-3.2,0.7-5.7,4.9-8.5,7.6c2.6,2.7,5.1,7.4,7.9,7.5C1095.1,182.4,1098.3,178.3,1104.2,174.2z
		 M1025.7,291.2c3.9-6,7.7-9.3,7.8-12.6c0-2.4-4.8-6.8-7.5-6.9c-2.6-0.1-7.4,4.3-7.5,6.8C1018.4,281.7,1022,285.1,1025.7,291.2z
		 M1038.3,343.3c3.9-5.8,7.7-9.1,7.9-12.4c0.1-2.4-4.7-6.9-7.4-7c-2.7-0.1-7.7,4.2-7.7,6.6C1031,333.8,1034.7,337.2,1038.3,343.3z
		 M938,241.8c-6.1-3.7-9.5-7.4-12.7-7.1c-2.6,0.2-4.9,5.2-7.3,8.1c3,2.5,5.8,6.5,9,7C929.6,250,932.7,245.8,938,241.8z M868.5,239.4
		c-5.2-3.7-8.6-8-10.9-7.5c-3.3,0.8-5.7,5.1-8.5,8c2.9,2.7,5.6,6.9,8.9,7.5C860.3,247.9,863.5,243.5,868.5,239.4z M1079.2,259.7
		c4-5.9,7.7-9.1,7.9-12.4c0.1-2.4-4.7-6.9-7.4-7c-2.7-0.1-7.7,4.2-7.7,6.6C1071.9,250.2,1075.6,253.6,1079.2,259.7z M948.3,298
		c-5.4-4.3-8.5-8.7-10.9-8.3c-3.3,0.5-6,4.6-9,7.1c2.4,2.8,4.6,7.6,7.3,7.9C938.7,305.1,942.2,301.5,948.3,298z M1142.1,236.5
		c0-1.4,0-2.8,0-4.2c-3-1.8-6.1-5.2-8.8-4.9c-3.1,0.4-5.7,4.2-8.5,6.6c2.8,2.6,5.4,6.7,8.6,7.5
		C1135.8,242.1,1139.2,238.4,1142.1,236.5z M967.1,235.8c3.9-5.5,8.1-8.9,7.6-11.3c-0.7-3.2-4.6-7.3-7.8-7.9c-2-0.4-7.2,4.5-7.3,7.1
		C959.5,226.9,963.3,230.1,967.1,235.8z M1031.4,214.7c3.6-5.6,7.5-9.3,6.8-11.3c-1-3.2-5.1-7-8.1-7.2c-2.3-0.2-6.7,4.7-6.9,7.6
		C1022.9,206.3,1027.1,209.3,1031.4,214.7z M839.1,189.2c3.9-5.7,8-9,7.6-11.6c-0.6-3.3-4.7-6-7.4-8.9c-2.6,2.6-7.2,5.1-7.4,7.8
		C831.8,179.7,835.4,183.2,839.1,189.2z"/>
	
		<linearGradient id="SVGID_8_" gradientUnits="userSpaceOnUse" x1="332.9836" y1="695.0479" x2="576.348" y2="938.4123" gradientTransform="matrix(1 0 0 -1 0 1080)">
		<stop  offset="1.120000e-02" style="stop-color:#ACB2FF"/>
		<stop  offset="0.5112" style="stop-color:#2E3192"/>
		<stop  offset="0.6197" style="stop-color:#5749A8"/>
		<stop  offset="0.8621" style="stop-color:#BD87DF"/>
		<stop  offset="0.9944" style="stop-color:#F7AAFF"/>
	</linearGradient>
	<path class="st7" d="M476.8,99.7c39,0.9,90.4,22.7,127.3,72.9c50.2,68.2,36.4,160.2-30.4,213.6c-74.2,59.2-182.7,54.2-251.2-11.7
		c-70.1-67.4-61.1-180.1,18.8-238.5C375,111.4,411.7,99.7,476.8,99.7z M455.1,420.5c82.9-0.3,150.2-69.4,149.8-154
		c-0.4-85.9-68.1-152.9-154.1-152.5c-79.7,0.4-146.2,70.1-146.1,153.2C304.8,352.1,372.2,420.8,455.1,420.5z"/>
	
		<linearGradient id="SVGID_9_" gradientUnits="userSpaceOnUse" x1="829.0054" y1="386.9201" x2="1072.1346" y2="630.0494" gradientTransform="matrix(1 0 0 -1 0 1080)">
		<stop  offset="0" style="stop-color:#F25BFF"/>
		<stop  offset="0.9944" style="stop-color:#AAB4FF"/>
	</linearGradient>
	<path class="st8" d="M950,735.4c-55.7-0.9-103.6-20.2-141.2-63.3c-51-58.5-50.5-144.2,1-202.6c69-78.3,196.4-83.3,271.2-10.8
		c72.8,70.6,63.5,183.2-20.4,242.3C1027.4,724.5,990.5,735.8,950,735.4z M1038.9,573.2c0-32.3-6.7-53.1-20.1-71.6
		c-40.2-55.3-121-64.5-174.5-19.8c-49.8,41.6-51.7,116.6-4.2,160.4c41.8,38.4,106.1,42.7,152.1,9.8
		C1022,630.7,1038.2,601.5,1038.9,573.2z"/>
	
		<linearGradient id="SVGID_10_" gradientUnits="userSpaceOnUse" x1="985.4083" y1="969.7713" x2="973.239" y2="1029.6041" gradientTransform="matrix(1 0 0 -1 0 1080)">
		<stop  offset="5.586592e-03" style="stop-color:#662D91"/>
		<stop  offset="0.151" style="stop-color:#572888"/>
		<stop  offset="0.504" style="stop-color:#361D74"/>
		<stop  offset="0.7997" style="stop-color:#221668"/>
		<stop  offset="1" style="stop-color:#1B1464"/>
	</linearGradient>
	<path class="st9" d="M925.9,159.5c0,8,0.1,16,0,24c-0.1,9.5-5.5,14.7-14.1,16.5c-20.1,4.4-53.6-12.6-44.8-44.2
		c10-36.1,25.7-68.7,58.6-88.4c11.4-6.8,25.2-10.5,38.4-12.8c19.7-3.5,39.8-5.2,59.8-6.5c17.9-1.1,34.3,4.2,48.7,15.4
		c11.7,9.1,23.4,18,34.9,27.2c9.1,7.3,10.7,13.7,5.2,23.6c-11.5,20.7-30.4,32.6-51.3,40.8c-4.4,1.8-13.5-2.6-17.5-7
		c-9.2-10.1-16.6-22-24.8-33.1c-8.4-11.3-8.5-10.6-19.5-2.6c-4.7,3.4-12,4.6-18.1,4.5c-11.2-0.2-22.3-2.8-33.5-3.1
		c-13.8-0.4-20.4,6.3-21.8,20.5c-0.4,4.2-0.4,8.3-0.5,12.5s0,8.4,0,12.5C925.8,159.5,925.9,159.5,925.9,159.5z"/>
	
		<linearGradient id="SVGID_11_" gradientUnits="userSpaceOnUse" x1="349.9705" y1="708.1368" x2="559.3728" y2="917.5391" gradientTransform="matrix(1 0 0 -1 0 1080)">
		<stop  offset="1.120000e-02" style="stop-color:#14007F"/>
		<stop  offset="0.5112" style="stop-color:#7D6AFF"/>
		<stop  offset="0.68" style="stop-color:#5465F1"/>
		<stop  offset="0.9944" style="stop-color:#005AD4"/>
	</linearGradient>
	<path class="st10" d="M308.8,266.9c0-83,64.8-149.4,145.9-149.4c80.8,0,146.2,66.8,146.4,149.4c0.2,82.8-66,150.4-146.9,150.1
		C373.4,416.7,308.8,350,308.8,266.9z"/>
	
		<linearGradient id="SVGID_12_" gradientUnits="userSpaceOnUse" x1="844.6485" y1="438.6137" x2="1000.0038" y2="593.9691" gradientTransform="matrix(1 0 0 -1 0 1080)">
		<stop  offset="0" style="stop-color:#CE55FF"/>
		<stop  offset="2.410000e-02" style="stop-color:#CA52FD"/>
		<stop  offset="0.2216" style="stop-color:#AC3AF1"/>
		<stop  offset="0.3909" style="stop-color:#9A2CE9"/>
		<stop  offset="0.5112" style="stop-color:#9327E6"/>
		<stop  offset="0.5669" style="stop-color:#8928E2"/>
		<stop  offset="0.7088" style="stop-color:#762BDB"/>
		<stop  offset="0.8526" style="stop-color:#6A2CD6"/>
		<stop  offset="1" style="stop-color:#662DD5"/>
	</linearGradient>
	<path class="st11" d="M809.4,564c1.1-42.9,21.6-73.3,58.1-93.3c40.5-22.3,95.2-16.5,130.4,13.8c49.4,42.5,50.3,113,2.1,156.8
		c-54.2,49.3-144.7,34.1-179-30.1C813.2,596.5,808.9,580.9,809.4,564z"/>
</g>
</svg>
