<?xml version="1.0" encoding="utf-8"?>
<!-- Generator: Adobe Illustrator 24.1.2, SVG Export Plug-In . SVG Version: 6.00 Build 0)  -->
<svg version="1.1" id="Layer_1" xmlns="http://www.w3.org/2000/svg" xmlns:xlink="http://www.w3.org/1999/xlink" x="0px" y="0px"
	 viewBox="0 0 1920 1080" style="enable-background:new 0 0 1920 1080;" xml:space="preserve">
<style type="text/css">
	.st0{fill:url(#SVGID_1_);}
	.st1{fill:url(#SVGID_2_);}
	.st2{fill:url(#SVGID_3_);}
	.st3{fill:url(#SVGID_4_);}
</style>
<g>
	
		<linearGradient id="SVGID_1_" gradientUnits="userSpaceOnUse" x1="801.5967" y1="66.4621" x2="801.5967" y2="713.9003" gradientTransform="matrix(1 0 0 -1 0 1080)">
		<stop  offset="5.586592e-03" style="stop-color:#FBB03B"/>
		<stop  offset="0.5" style="stop-color:#FBB03B"/>
		<stop  offset="1" style="stop-color:#D4622A"/>
	</linearGradient>
	<path class="st0" d="M671.1,467.3c0-8.1,0-14.8,0-23c8.9-9.5,18.1-20.4,28.5-30c16.9-15.4,36-27.9,54.8-40.8
		c13.9-9.6,23.8-10,37.5,0.1c11.4,8.5,25.9,12.4,39.4,17.5c9.6,3.5,18.4,9.5,27.2,15c8,5.1,15.9,10.5,23.2,16.6
		c9.7,7.9,16.6,18.4,23.4,28.7c3.7,5.6,6.3,12,10.2,17.5c7.9,11.2,10.5,24.7,15.9,36.9c1.2,2.8,0.7,6.5,0.7,9.7
		c0,163.3,0,326.5,0,489.8c0,1-0.3,2.1-0.4,3.1c-8.6,6.1-14.7,5.4-25.5,5c-15.2-0.5-17.8-9.8-21.2-21.4c-3-10.2-2.9-20.2-3-30.5
		c-0.1-8.9,0-17.8,0-26.8c0-17.3-0.9-34.6,0.3-51.8c1.2-17.7-4.3-34.6-3.7-52.1c0.6-17.3,0.1-34.6,0.1-51.8s2.2-34.9-0.6-51.7
		c-3.4-20.8-2.3-41.5-2.7-62.2c-0.4-21.2,0-42.3-0.1-63.5c-0.1-10.2-4.7-19.8-3.5-30.4c1.1-9.9,1.2-20.2,0-30
		c-2-16.3-7.4-32.5-19.3-43.5c-10-9.2-22.2-19-38-16.2c-4,0.7-5.5-2.8-9.7-2.2c-9.2,1.3-24,3-33,6.8c-1.4,0.6-2.9,1.9-4.2,1.7
		c-17.4-1.5-34.7,2.2-52.3-2.6c-8.9-2.5-18.6-3.1-27.1-7.4C681.9,474.4,676.3,470.5,671.1,467.3z"/>
	
		<linearGradient id="SVGID_2_" gradientUnits="userSpaceOnUse" x1="353.3864" y1="396.6062" x2="856.252" y2="899.4715" gradientTransform="matrix(1 0 0 -1 0 1080)">
		<stop  offset="0" style="stop-color:#F37F7B"/>
		<stop  offset="0.5" style="stop-color:#FE3E96"/>
		<stop  offset="1" style="stop-color:#DD1E47"/>
	</linearGradient>
	<path class="st1" d="M467.9,457.5c-21.6-9.5-31.6-30.2-50.4-40.8c-1.4-0.8-2.4-2.3-3.6-3.5c-18.8-17.7-37.6-35.6-56.6-53.1
		c-5.5-5.1-11.8-9.2-17.3-13.5c-1.1-16.6,6-31.8,3.3-47.8c5.2-8.4,2.5-17.9,3.5-26.7c6.7-3.3,13.2-6.4,19.7-9.6
		c29.1-14.3,59.1-26.7,88.3-40.9c19.9-9.6,40.2-18.5,60.5-27.2c13.7-5.9,27.4-11.8,40.9-18.1c13.1-6.1,25.6-13.5,39.1-18.6
		c20.8-7.9,40.5-17.7,60.6-27.2c20.4-9.7,41.5-18,62.2-27.1c12.2-5.4,24.3-11.2,37.4-17.3c11.7,10.2,18,23.7,22.5,38.4
		c4.2,13.8,7.9,27.6,6.8,42.3c-0.7,9.4-1,19,0.1,28.4c1.1,9-4.1,16.7-3.7,25.4c0.4,8.5-4,16.2-5.6,24.3c-3.4,17.4-9.1,34-16.6,50
		c-1.1,2.3-1,5.3-1,7.9c-0.1,8.9-0.1,17.8,0,26.7c0.1,10.1,3.6,19.5,7,29.9c-7.6,4.9-15.5,9.9-23.3,15c-23,15-45.6,30.8-63.6,51.8
		c-7.3,8.6-15.5,17.7-13.9,31.2C597.7,457.5,531.6,457.5,467.9,457.5z M463.7,464.8c0,2.7,0.8,5.4-0.1,7c-7.1,12.1-12,25.1-17.3,38
		c-5.5,13.3-13.6,25.6-18.4,39.1c-8.9,24.8-20.8,48.2-31.1,72.4c-8.6,20.4-17.6,40.6-26.8,61.7c7.3,9.5,15.8,19.2,22.7,29.8
		c16.7,25.7,37.4,47.8,59.3,68.9c3.8,3.6,8.2,7,12.8,9.3c2.3,1.1,6.6,0.7,8.8-0.8c24.2-16.5,49-31.9,74-47.2
		c17.5-10.7,33.3-24,51.2-33.8c29.3-16,56.7-35.1,84.9-52.8c30.6-19.1,61.4-38,91.1-58.6c8.8-6.1,20.2-8.7,25.2-16.6
		c-5.6-32.4-16.5-60.7-32.8-86.7c-19.6-1-38.7,1.6-57.6-3.3c-10.6-2.8-20.6-6.8-31-9.8c-7.6-2.2-6.3-9.6-11.2-12.7
		c-1.8-1.1-3-3.2-3.6-3.9C596.4,464.8,530.3,464.8,463.7,464.8z M404.5,237.5c22.1-9.9,44.3-19.6,66.3-29.6
		c25.4-11.4,50.6-23.1,75.9-34.7c23.4-10.7,46.8-21.5,70.4-31.6c28.4-12.1,56.2-25.7,84.3-38.6c5.6-2.6,11.1-5.2,17.1-7.3
		c11.6-4,22.2-11.1,35.1-17.9c-12.7-9.1-23.3-18.2-35.3-24.8c-23.1-12.8-47.6-22.2-73.4-28.6c-13.2-3.3-26.7-5.9-40-7.9
		c-15.8-2.3-32.2-1.1-48.4-0.3c-7.7,0.4-15.3,3.1-22.9,5.1c-16.7,4.5-30.9,13.3-42.7,26c-9.6,10.4-18.7,21.4-28.5,31.6
		c-13.1,13.7-26.5,27.1-40.2,40.2c-12.6,12-23,25.7-33,39.8c-17.6,24.9-27.4,53.2-35.9,82.1c-1.7,5.9-2.4,12.1-4.2,21.4
		C369.8,253.1,387.2,245.2,404.5,237.5z M788.5,597.9c-17.3,8.7-32.4,20.8-49.1,30.6c-17.5,10.4-34.3,22-51.5,32.9
		c-16.3,10.3-32.8,20.2-49.1,30.6c-20.3,13-39.8,27.3-60.6,39.3c-17.6,10.2-34.3,21.8-51.6,32.6c-17.6,11-35.3,21.9-53,32.9
		c16.5,17.4,38.3,25.3,59,35.3c17,8.2,35.4,7.6,52.8,9c22.1,1.7,44.6,2.7,67.2-1.8c15.2-3,29.6-7.7,42.4-14.7
		c21.4-11.6,40.4-27.5,58.8-43.7c11.9-10.4,20.2-23.8,29.2-36.5c6.5-9.1,11.4-19.8,14.7-30.5c2.6-8.5,4.5-17.5,4.1-26.9
		c-0.4-8.9,2.6-18,2.9-27c0.5-17.2-0.1-34.5,0.3-51.7c0.1-6.7-1.9-12.2-6.4-18C795.2,593.1,792.2,596.1,788.5,597.9z M368.5,671.4
		c6.2-16.4,13.1-32.4,21.1-48.1c5.1-10,9.6-20.7,13.5-31.1c9.4-25.2,22.2-48.8,31.8-73.8c6.6-17,14.6-33.3,23.2-52.8
		c-10.2,3.6-17.3,7.4-24.8,8.5c-16.2,2.3-31.1,8.5-46.8,12.2c-14.7,3.5-29.1,7.8-43.8,11.3c-7.7,1.8-9.8,3-9.4,10.2
		c0.7,15.2-2.3,30.5,3,45.5c2.6,7.4-0.8,15.6,2.9,23.9c3.2,7.2,2.2,16.7,3.3,25.2c1.9,15.3,7.7,29.4,11.1,44.2
		c2.1,9,7.7,17.3,11.5,25.3C367.5,671.6,368.4,671.7,368.5,671.4z M444.4,446.8c-17-10.1-28.6-26.3-44-38.4
		c-21-16.5-39.4-36.2-59.1-54.6c-8.4,15.1-1.1,31.8-5.3,46.6c-4.3,15.4-1.8,30.4-2.6,45.5c-0.8,15.9-0.2,31.9-0.2,47.7
		c41.8-11.3,82.7-22.3,124.6-33.7C452.9,455,449.3,449.8,444.4,446.8z"/>
	
		<linearGradient id="SVGID_3_" gradientUnits="userSpaceOnUse" x1="1107.6215" y1="63.2" x2="1107.6215" y2="715.8875" gradientTransform="matrix(1 0 0 -1 0 1080)">
		<stop  offset="0" style="stop-color:#FBB03B"/>
		<stop  offset="0.5" style="stop-color:#FBB03B"/>
		<stop  offset="1" style="stop-color:#D4622A"/>
	</linearGradient>
	<path class="st2" d="M1253,462.1c-9.4,12.1-21.3,16.6-35,19.1c-14.1,2.5-28.1,5.7-42.4,6.3c-15,0.6-30.1,0.5-45.1,0
		c-5.6-0.2-11.3-2.1-16.8-3.7c-5.9-1.7-11.7-4.1-17.5-6.1c-0.5-0.2-1.5-0.2-1.6,0c-2.4,5.4-8.6-2.1-10.9,3.3
		c-14.2-1.4-25.7,3.7-36.5,13.1c-8.2,7.2-19,22.4-21.8,32.6c-4,14.5-2.5,29.2-3.3,43.8c-1.3,23.5-4.2,46.8-3.4,70.5
		c0.8,23.4,2.6,47.1-0.5,70.1c-2.8,20.9-1.9,41.5-2.5,62.2c-0.6,20.6,1.7,41.4-0.5,61.8c-5.1,48-1.8,96-3,144
		c0,0.4-6.6,21.8-6.7,22.3c-0.8,8.6-8.3,10.9-14.2,13.7c-5.3,2.5-11.4,2.8-16.9-1.2c-1.5-1.1-4.3-0.2-6.2-1
		c-3.6-1.5-6.5-3.8-6.2-8.4c0.2-3.9,0-7.8,0-11.7c0-156.5,0.1-313-0.1-469.5c0-22.5,9-41.6,20-60.3c3.1-5.4,5.9-11,9.6-16.1
		c3.7-5.2,8-10.4,12.1-14.8c9.9-10.4,21.5-19.5,33.6-27.3c11.6-7.6,24.2-13.4,37.7-17.8c13.6-4.3,26.4-11.9,38.6-19.4
		c5.9-3.6,9.9-4.5,16.2-1.6c29.6,14,58.1,30,85.3,48.3c12,8.1,21.1,19,31.5,28.6C1252.2,447.9,1253.6,454.5,1253,462.1z"/>
	
		<linearGradient id="SVGID_4_" gradientUnits="userSpaceOnUse" x1="1040.7858" y1="398.267" x2="1539.2344" y2="896.7155" gradientTransform="matrix(1 0 0 -1 0 1080)">
		<stop  offset="0" style="stop-color:#F37F7B"/>
		<stop  offset="0.5" style="stop-color:#FF3F9A"/>
		<stop  offset="0.5963" style="stop-color:#FD3D94"/>
		<stop  offset="0.7187" style="stop-color:#F63785"/>
		<stop  offset="0.8552" style="stop-color:#EC2C6B"/>
		<stop  offset="1" style="stop-color:#DD1E47"/>
	</linearGradient>
	<path class="st3" d="M1128.7,358.7c9.7-19.3,7.9-40.1,6.9-60.5c-0.3-7.3-5.9-14.2-8.2-21.5c-5.3-16.8-11.1-33.6-14.5-50.8
		c-3.1-15.4-3.3-31.2-4.8-47.2c15.5-6.5,30.1-12.8,44.8-18.7c13.4-5.4,26.9-10.4,40.4-15.6c26.9-10.4,53.7-21.1,80.5-31.8
		c18.6-7.4,37.3-15,55.8-22.8c26.6-11.2,53.7-21.2,80.5-31.7c0.8-0.3,1.6-1,1.6-1c3.1,3.8,5.8,7.8,9.1,11.2
		c18,18.2,36.1,36.4,54.4,54.4c20.6,20.3,36.8,44,48.6,70.2c7.4,16.4,12,34.1,16.9,51.5c4,14.3,6.7,29,7.1,44
		c0.2,5.6,2.6,11.2,3.5,14.6c-37.1,52.2-72.9,102.6-109.5,154.1c-58.9,0-119.5,0-180.7,0c-6.6-16.6-18.4-28.9-33.1-40.6
		C1197.6,392.3,1163.3,376,1128.7,358.7z M1150.8,615.4c10.4,5.8,21.1,11.2,31.4,17.2c12.1,7.1,23.7,15.3,36,22.1
		c13,7.3,27.4,12.5,39.9,20.5c23.2,14.9,47.8,27.3,71.6,41.1c18.4,10.6,36.7,21.5,55.4,31.8c13.2,7.3,26.5,14.2,39.3,22.2
		c6.2,3.8,12.7,9.8,21.9,8c35.5-36.6,68.6-75.4,90.3-121.3c-31.4-64.6-62.6-128.5-93.8-192.6c-61.8,0-123.5,0-182.6,0
		c-5.5,5.3-9.2,9.8-13.7,13c-11.3,7.9-24.9,11.4-37.9,12.9c-16.1,1.9-32.1,5.8-48.7,4.1c-10.9-1.1-22-0.2-31.6-0.2
		c-19.5,26.9-28.2,56.7-35.3,89.2C1112.1,593.5,1131.4,604.7,1150.8,615.4z M1410.9,770.6c-21.7-14.4-45.2-25.5-67.6-38.6
		c-12.9-7.6-26.9-13.4-39.4-21.5c-21.8-14.2-45.2-25.4-67.6-38.7c-12.9-7.6-27-13.3-39.4-21.5c-21.7-14.3-45.3-25.3-67.5-38.7
		c-11.5-7-23.4-13.3-35.9-20.3c-1.4,4.3-4,8.6-4.1,13c-0.5,16.1,0.1,32.3-0.3,48.4c-0.3,16.4,5.1,32.2,3.8,48.7
		c-0.5,5.7,3,11.9,5.3,17.7c9.6,23.2,23.2,43.9,41.3,61.3c6.2,6,13.5,10.8,19.7,16.7c12.4,11.7,27.3,19.8,41.7,28.4
		c18.4,11,38.8,16.3,59.8,16.4c21.8,0.1,43.9,3.6,65.4-3c20.5,2.9,37.3-9.6,56.1-13.8c18.4-13.5,39.4-23.6,54.7-41.6
		C1428.3,779.3,1418.9,775.9,1410.9,770.6z M1360.8,21.6c-5.3-6-14.2,1.5-19.6-5.5c-1-1.3-5.3-0.4-8.1-0.2
		c-17.3,1.2-34.6-0.9-52.2,2.6c-13.8,2.8-28.5,4.3-42,8c-26.8,7.4-52.4,18.7-75.9,34.3c-22,14.6-37.3,34.5-45.6,59.3
		c-5.4,15.9-11.2,32.1-6.9,50.5c11.4-4.6,22.3-9,33.2-13.5c19.5-8,39-16.1,58.6-23.6c25-9.6,49.8-19.6,74.6-29.5
		c19.5-7.8,39.2-15.5,58.6-23.8c11.6-5.1,23.8-9.6,35.9-14c12.1-4.4,23.9-9.5,36.1-14.4C1394,37.4,1379.6,26.1,1360.8,21.6z
		 M1560.8,487.6c0-15.3,0.6-29.7-0.2-44c-0.7-14.6,2.3-29.2-2.7-43.9c-2.7-8-0.1-17.7-0.6-26.6c-0.6-9-2.5-18-3.1-27
		c-0.6-9.8,1-20-6-29.1c-5.9,11.5-14,21.2-21.2,31.5c-8.4,12.2-16.9,24.3-25.8,36.1c-10.8,14.3-20.3,29.6-30.8,44.1
		c-7.5,10.4-15.4,20.4-23.1,30.7C1485.6,468.9,1522.7,478.1,1560.8,487.6z M1450.2,466.6c30.1,61.8,61.2,120.8,89.4,180.6
		c8.3-23.2,13-47.8,16.5-72.8c3.5-26,6.4-51.9,4.2-80.2C1523.9,485.1,1487.7,476.1,1450.2,466.6z"/>
</g>
</svg>
