<?xml version="1.0" encoding="utf-8"?>
<!-- Generator: Adobe Illustrator 24.1.2, SVG Export Plug-In . SVG Version: 6.00 Build 0)  -->
<svg version="1.1" id="Layer_1" xmlns="http://www.w3.org/2000/svg" xmlns:xlink="http://www.w3.org/1999/xlink" x="0px" y="0px"
	 viewBox="0 0 1920 1080" style="enable-background:new 0 0 1920 1080;" xml:space="preserve">
<style type="text/css">
	.st0{fill:url(#SVGID_1_);}
</style>
<linearGradient id="SVGID_1_" gradientUnits="userSpaceOnUse" x1="211.5261" y1="544.4" x2="1521.4303" y2="544.4" gradientTransform="matrix(1 0 0 -1 0 1080)">
	<stop  offset="0" style="stop-color:#FE81B6"/>
	<stop  offset="0.5077" style="stop-color:#F5AAFF"/>
	<stop  offset="1" style="stop-color:#EE3690"/>
</linearGradient>
<path class="st0" d="M980.4,194.1c16.6,14.8,32.2,27.6,46.6,41.7c156,154.2,311.8,308.6,467.7,463c35.6,35.2,36.8,69.8-3.2,101.8
	c-30.6,24.4-66.9,41.9-101.6,60.7c-4.8,2.6-17.3-3.3-22.9-8.7c-44.9-43.9-89.2-88.4-133.3-133.1c-81.3-82.3-162.6-164.5-243.1-247.5
	c-8.4-8.7-16-22.6-16.1-34.1c-0.2-77.9,1.7-155.8,3-233.8C977.7,201.6,978.9,199.3,980.4,194.1z M524.5,86.1
	c-84.6,27.7-159,71.1-218.3,138.7c-10.9,12.5-13.5,21.1,0,32.7c12.9,11.2,24.5,24.1,36.7,36.2c82,81.7,164.1,163.3,246,245.1
	c8.3,8.3,15.1,16.5,27.5,4c66.5-67.3,133.5-134.1,200.5-200.8c8.4-8.3,8.5-14.8,0.1-23.3c-78.1-78.9-156-158.1-234.1-237.1
	c-4.4-4.4-10.6-7-16.2-10.6C551.8,76.3,538.3,81.5,524.5,86.1z M1519.5,693.1c-3.6-27.5-10.5-55-10.5-82.5
	c0.1-55.2-20.3-102.6-46.5-149.4c-16.8-29.9-31.3-61.3-43.8-93.3c-14.5-36.9-37.1-65.9-68.3-90.4c-18.3-14.4-36.5-32.1-47.2-52.2
	c-15.8-29.6-35.5-53.9-62.5-72.7c-23.9-16.7-47.7-33.3-72.1-49.2c-51.3-33.5-109.7-44-169.2-50.9c-16.2-1.9-22.9,4.8-22.4,21.3
	c0.8,25.1-0.6,50.3,0.8,75.4c0.5,9,4.4,19.7,10.4,26.3c27.1,29.8,55.1,58.9,83.4,87.5c131.6,133,263.3,265.9,395.1,398.6
	c15.4,15.5,31.8,30.1,51.3,48.5C1519,700.3,1520,696.6,1519.5,693.1z M214.1,444.7c10.8,61.8,25.1,121.1,76.3,165.2
	c47.5,41,100.4,70.4,160.8,85.7c6.7,1.7,17.8-3.4,23.4-8.9c33.4-32.9,64.7-67.9,98.9-99.8c15.7-14.6,13.4-22.4-0.2-36
	c-70-70-139.2-141-208.7-211.5c-27.3-27.7-54.6-55.2-81.8-82.7C229.7,304,202.7,379.4,214.1,444.7z M1284.9,993.6
	c30-16,56.9-36.8,71.8-68.7c18.5-39.5,13.2-52.8-25.7-69.2c-3.7-1.5-7.2-3.3-10.9-4.8c-84-33.2-169.4-60.5-261.3-55.9
	c-56.1,2.8-108.7,16.6-148.1,60.3c-6.4,7.1-10.8,20.1-9.5,29.4c5.4,36.8,21.2,69.4,48.9,95c46.2,42.8,103.2,55.8,163.9,58.6
	C1174.5,1035.9,1231.7,1021.9,1284.9,993.6z M960.6,426.5c-0.6,2.5,0.3,0.6,0.2-1.3c-1.1-81.3-2-162.6-3.9-243.9
	c-0.2-7.6-5.1-16.5-10.5-22.3c-33.8-36.2-68.7-71.4-102.6-107.5c-12.8-13.6-27.7-19.7-46-18.4c-38.2,2.7-76.6,3.9-114.5,8.8
	c-31,4-61.4,12.5-88.6,18.3C717.9,183.5,840,305.7,960.6,426.5z M1342.4,843.3c-120.6-119-241.2-238-364.2-359.4
	c-2.4,7.5-4.1,10.5-4.1,13.5c-0.3,95.1-0.5,190.3-0.7,285.4c0,12.3,5.3,15.8,17.5,13.6c22-4,44.2-8.5,66.5-9.4
	c91.1-4.2,176.1,22.1,259.7,54.6c6.9,2.7,14,5.3,21,7.9C1339.5,847.4,1341,845.4,1342.4,843.3z M744,668.7
	C810.1,604,875.9,539,942.2,474.5c10.6-10.4,10.2-17.5-0.3-27.6c-29.1-27.9-57.7-56.3-85.8-85.3c-11.4-11.8-19.8-11.5-31.2,0
	c-64.2,64.8-128.8,129.2-193.5,193.5c-9.5,9.4-10.5,16.4-0.4,26.2c29.9,29,59.1,58.7,88.6,88.1c3.2,3.1,7.1,5.5,11.7,9
	C735.9,674.8,740.4,672.2,744,668.7z M951,489.8c-65,64.9-129.7,130-194.8,194.8c-10.2,10.2-5.5,16.7,2.3,24.6
	c32.7,33.6,64.9,67.7,97.7,101.1c38.6,39.3,38.4,38.5,84.5,9c15-9.6,21.5-20.3,21.3-38.5c-1-91.8-0.7-183.7-0.9-275.5
	c0-6.2-0.8-12.5-1.3-20.8C955.2,487.2,952.7,488,951,489.8z M703.3,681.9c-27.9-28.2-56.4-55.8-83.7-84.5
	c-11.3-11.9-19.1-12-30.6-0.2c-32.6,33.7-65.7,67-99.6,99.5c-12.7,12.1-17.5,23.1-8.7,39.6c3.8,7.1,2.3,17,5,25
	c3.7,10.8,6.6,23.6,14.2,31c16,15.5,35,27.9,52.6,41.8c10.9,8.6,19.5,7,29.2-2.8c40.3-41,81.2-81.5,121.8-122.2
	c3.7-3.7,6.7-8,11-13.3C710.5,690.8,707.2,686,703.3,681.9z M857.3,835.4c-38.7-38.7-77.6-77.3-116.2-116c-8.5-8.5-14.7-5-21.6,2
	c-20.8,21.2-42,41.9-62.8,63.1c-21.9,22.3-43.5,45-67.1,69.6c8.4,2.5,13.1,4.4,18,5.4c43.3,8.3,86.6,16.8,130,24.4
	c8.8,1.5,19.2,2.5,27.2-0.6c31.8-12.4,62.9-26.5,95.7-40.7C858.8,838.9,858.5,836.7,857.3,835.4z M957.7,96.2
	c0.8-46.7,0.9-46.8-46-53.3c-17.1-2.4-34.2-4-44.1-5.2c26.9,29.5,56.2,61.5,90.1,98.7C957.7,119.2,957.5,107.7,957.7,96.2z"/>
</svg>
