<svg xmlns="http://www.w3.org/2000/svg" xmlns:xlink="http://www.w3.org/1999/xlink" viewBox="0 0 883 485"><defs><style>.cls-1{fill:url(#linear-gradient);}.cls-2{fill:#3ca9d3;}.cls-3{fill:#89c8d0;}</style><linearGradient id="linear-gradient" y1="242.5" x2="883" y2="242.5" gradientUnits="userSpaceOnUse"><stop offset="0" stop-color="#4296d2"/><stop offset="0.5" stop-color="#45a6dd"/><stop offset="1" stop-color="#2569b1"/></linearGradient></defs><g id="Layer_2" data-name="Layer 2"><g id="Layer_2-2" data-name="Layer 2"><rect class="cls-1" width="883" height="485"/><path class="cls-2" d="M768.23,65.57c10.92-.35,20-4.21,28.38-9.74,7.07-4.67,13.87-9.73,20.8-14.62a46.53,46.53,0,0,1,11.82-6.16c12.46-4.23,24.32,3.42,26,16.81.78,6.23-.36,12-4.33,17a12.24,12.24,0,0,1-10.17,4.9c-1.78,0-3.3-.68-3.72-2.7-.38-1.85.54-2.84,2.14-3.65a29,29,0,0,0,4.78-3c4.57-3.6,6.13-9,4-13.32-2-4.11-8.16-6.72-13.26-5.62a18.45,18.45,0,0,0-14.35,17.89c-.06,8.33,5.79,15.11,14.94,17.32,15.79,3.82,32.8-7.45,36.78-24.37,6.14-26.06-17.07-50-43.84-45.5-12.43,2.08-23.26,7.4-33.43,14.48-5.85,4.08-11.43,8.58-17.67,12.07-9,5-18.35,7.76-28.38,3.13C742.94,37.79,738.05,34,736,27.55c-.32-1-.63-2-2-1.81s-1.39,1.3-1.37,2.34C733.14,50.17,749,67.27,768.23,65.57Z"/><path class="cls-2" d="M757.16,420c10.92,0,20.12,3.56,28.68,8.82,7.21,4.43,14.18,9.27,21.26,13.93a46.21,46.21,0,0,0,12,5.78c12.59,3.83,24.2-4.2,25.45-17.64.59-6.25-.74-12-4.87-16.87a12.24,12.24,0,0,0-10.33-4.56c-1.77.09-3.27.78-3.62,2.81-.33,1.87.63,2.82,2.25,3.58a28.78,28.78,0,0,1,4.88,2.87c4.68,3.46,6.41,8.76,4.44,13.19-1.86,4.17-7.94,7-13.08,6a18.43,18.43,0,0,1-14.91-17.42c-.33-8.32,5.29-15.29,14.36-17.79,15.66-4.33,33,6.39,37.56,23.17,7,25.85-15.45,50.52-42.35,46.89-12.49-1.68-23.49-6.64-33.88-13.39-6-3.89-11.71-8.2-18-11.49-9.15-4.74-18.6-7.17-28.47-2.22-5.71,2.88-10.48,6.82-12.36,13.33-.29,1-.57,2.07-1.91,1.88s-1.43-1.25-1.44-2.3C722.59,436.5,737.86,418.9,757.16,420Z"/><path class="cls-2" d="M123.62,66.61c-10.93-.35-20-4.21-28.38-9.74-7.07-4.67-13.88-9.73-20.81-14.61A46,46,0,0,0,62.62,36.1c-12.47-4.24-24.32,3.41-26,16.8-.79,6.23.35,12,4.33,17a12.25,12.25,0,0,0,10.17,4.89c1.77,0,3.29-.68,3.71-2.7.38-1.85-.54-2.84-2.13-3.65a29.1,29.1,0,0,1-4.79-3c-4.56-3.6-6.13-9-4-13.32,2-4.11,8.16-6.72,13.26-5.61A18.43,18.43,0,0,1,71.5,64.39c.06,8.33-5.79,15.11-14.93,17.33-15.8,3.81-32.8-7.46-36.79-24.38-6.14-26.06,17.07-50,43.84-45.5,12.43,2.09,23.27,7.4,33.43,14.48,5.85,4.08,11.43,8.58,17.67,12.07,9,5,18.36,7.76,28.38,3.13,5.81-2.69,10.69-6.48,12.79-12.92.32-1,.64-2.05,2-1.81s1.39,1.29,1.37,2.34C158.7,51.21,142.87,68.31,123.62,66.61Z"/><path class="cls-2" d="M134.69,421c-10.93,0-20.12,3.56-28.68,8.82-7.22,4.44-14.19,9.28-21.27,13.93a46.21,46.21,0,0,1-12,5.78c-12.59,3.83-24.19-4.2-25.45-17.63-.58-6.25.74-12,4.88-16.88a12.22,12.22,0,0,1,10.32-4.56c1.78.09,3.27.78,3.62,2.81.33,1.87-.63,2.83-2.25,3.58A28.56,28.56,0,0,0,59,419.75c-4.68,3.45-6.41,8.76-4.44,13.18,1.87,4.17,7.95,7,13.08,6a18.45,18.45,0,0,0,14.92-17.41c.32-8.33-5.3-15.3-14.37-17.8-15.66-4.32-33,6.39-37.55,23.17-7,25.86,15.45,50.52,42.34,46.89,12.49-1.68,23.5-6.64,33.88-13.39,6-3.89,11.71-8.2,18.06-11.49,9.14-4.74,18.59-7.17,28.46-2.21,5.72,2.87,10.48,6.81,12.37,13.33.29,1,.57,2.06,1.9,1.87s1.43-1.25,1.44-2.3C169.26,437.55,154,419.94,134.69,421Z"/><path class="cls-3" d="M258,189.36c6.13,1.23,12.75,2.9,19.61,3.11,20.24.63,38.55-5.88,56.35-14.69,15.64-7.75,31-16.09,47.57-21.82,21.21-7.34,42.48-9.35,63.81-.44a65.41,65.41,0,0,1,13.9,7.79c1.38,1,3.26,2.25,2.27,4.41-.89,1.94-2.64,1.27-4.36,1a60.37,60.37,0,0,0-35.84,6c-11.8,5.84-23.11,12.53-34.28,19.45-36.17,22.38-73.8,24-112.72,8.24-6.16-2.49-12.46-4.69-18.2-8.1-1.32-.78-2.56-1.7-2-3.57S256.08,189.37,258,189.36Z"/><path class="cls-2" d="M280,142.38c15.73-.59,31.57,5.4,47.72,9.8,5.77,1.57,11.49,3.32,17.23,5,1.43.41,3,.57,3.37,2.46s-.79,2.73-2.11,3.57c-17.84,11.37-36.71,19.89-58,22.5-15.73,1.92-30.61-2.51-45.84-4.64-10.91-1.52-22-2.23-31.59,5.14-1.63,1.25-3.77,2.28-5.53.89s-.84-3.73-.07-5.55c5-11.68,13.9-19.79,24.45-26.15C244.59,146.34,261,142.16,280,142.38Z"/><path class="cls-3" d="M447,217.36c6.13,1.23,12.75,2.9,19.61,3.11,20.24.63,38.55-5.88,56.35-14.69,15.64-7.75,31-16.09,47.57-21.82,21.21-7.34,42.48-9.35,63.81-.44a65.41,65.41,0,0,1,13.9,7.79c1.38,1,3.26,2.25,2.27,4.41-.89,1.94-2.64,1.27-4.36,1a60.37,60.37,0,0,0-35.84,6c-11.8,5.84-23.11,12.53-34.28,19.45-36.17,22.38-73.8,24-112.72,8.24-6.16-2.49-12.46-4.69-18.2-8.1-1.32-.78-2.56-1.7-2-3.57S445.08,217.37,447,217.36Z"/><path class="cls-2" d="M469,170.38c15.73-.59,31.57,5.4,47.72,9.8,5.77,1.57,11.49,3.32,17.23,5,1.43.41,3,.57,3.37,2.46s-.79,2.73-2.11,3.57c-17.84,11.37-36.71,19.89-58,22.5-15.73,1.92-30.61-2.51-45.84-4.64-10.91-1.52-22-2.23-31.59,5.14-1.63,1.25-3.77,2.28-5.53.89s-.84-3.73-.07-5.55c5-11.68,13.9-19.79,24.45-26.15C433.59,174.34,450,170.16,469,170.38Z"/><path class="cls-2" d="M204.07,253.07c6.13,1.23,12.74,2.9,19.61,3.11,20.24.63,38.54-5.88,56.35-14.69,15.63-7.75,31-16.09,47.57-21.82,21.21-7.34,42.48-9.35,63.81-.44a65.41,65.41,0,0,1,13.9,7.79c1.38,1,3.25,2.25,2.27,4.41-.89,1.94-2.65,1.27-4.36,1a60.37,60.37,0,0,0-35.84,6c-11.8,5.84-23.11,12.53-34.28,19.45-36.18,22.38-73.81,24-112.72,8.24-6.16-2.49-12.46-4.69-18.21-8.1-1.31-.78-2.56-1.7-2-3.57S202.2,253.08,204.07,253.07Z"/><path class="cls-3" d="M226.1,206.09c15.73-.59,31.57,5.4,47.72,9.8,5.77,1.57,11.48,3.32,17.23,5,1.42.41,3,.57,3.37,2.46s-.79,2.73-2.11,3.57c-17.85,11.37-36.71,19.89-58,22.5-15.74,1.92-30.61-2.51-45.84-4.64-10.91-1.52-22-2.23-31.6,5.14-1.62,1.25-3.77,2.28-5.52.89s-.84-3.73-.07-5.55c5-11.68,13.89-19.79,24.45-26.15C190.71,210.05,207.13,205.87,226.1,206.09Z"/><path class="cls-2" d="M383.07,288.07c6.13,1.23,12.74,2.9,19.61,3.11,20.24.63,38.54-5.88,56.35-14.69,15.63-7.75,31-16.09,47.57-21.82,21.21-7.34,42.48-9.35,63.81-.44a65.41,65.41,0,0,1,13.9,7.79c1.38,1,3.25,2.25,2.27,4.41-.89,1.94-2.65,1.27-4.36,1a60.37,60.37,0,0,0-35.84,6c-11.8,5.84-23.11,12.53-34.28,19.45-36.18,22.38-73.81,24-112.72,8.24-6.16-2.49-12.46-4.69-18.21-8.1-1.31-.78-2.56-1.7-2-3.57S381.2,288.08,383.07,288.07Z"/><path class="cls-3" d="M405.1,241.09c15.73-.59,31.57,5.4,47.72,9.8,5.77,1.57,11.48,3.32,17.23,5,1.42.41,3,.57,3.37,2.46s-.79,2.73-2.11,3.57c-17.85,11.37-36.71,19.89-58,22.5-15.74,1.92-30.61-2.51-45.84-4.64-10.91-1.52-22-2.23-31.6,5.14-1.62,1.25-3.77,2.28-5.52.89s-.84-3.73-.07-5.55c5-11.68,13.89-19.79,24.45-26.15C369.71,245.05,386.13,240.87,405.1,241.09Z"/><path class="cls-2" d="M565.07,318.07c6.13,1.23,12.74,2.9,19.61,3.11,20.24.63,38.54-5.88,56.35-14.69,15.63-7.75,31-16.09,47.57-21.82,21.21-7.34,42.48-9.35,63.81-.44a65.41,65.41,0,0,1,13.9,7.79c1.38,1,3.25,2.25,2.27,4.41-.89,1.94-2.65,1.27-4.36,1a60.37,60.37,0,0,0-35.84,6c-11.8,5.84-23.11,12.53-34.28,19.45-36.18,22.38-73.81,24-112.72,8.24-6.16-2.49-12.46-4.69-18.21-8.1-1.31-.78-2.56-1.7-2-3.57S563.2,318.08,565.07,318.07Z"/><path class="cls-3" d="M587.1,271.09c15.73-.59,31.57,5.4,47.72,9.8,5.77,1.57,11.48,3.32,17.23,5,1.42.41,3,.57,3.37,2.46s-.79,2.73-2.11,3.57c-17.85,11.37-36.71,19.89-58,22.5-15.74,1.92-30.61-2.51-45.84-4.64-10.91-1.52-22-2.23-31.6,5.14-1.62,1.25-3.77,2.28-5.52.89s-.84-3.73-.07-5.55c5-11.68,13.89-19.79,24.45-26.15C551.71,275.05,568.13,270.87,587.1,271.09Z"/><path class="cls-2" d="M139.45,319.36c6.13,1.23,12.75,2.9,19.61,3.11,20.24.63,38.55-5.88,56.35-14.69,15.64-7.75,31-16.09,47.57-21.82,21.21-7.34,42.48-9.35,63.81-.44a65.41,65.41,0,0,1,13.9,7.79c1.38,1,3.26,2.25,2.27,4.41-.89,1.94-2.64,1.27-4.36,1a60.37,60.37,0,0,0-35.84,6c-11.8,5.84-23.11,12.53-34.28,19.45-36.17,22.38-73.8,24-112.72,8.24-6.16-2.49-12.46-4.69-18.2-8.1-1.32-.78-2.56-1.7-2-3.57S137.58,319.37,139.45,319.36Z"/><path class="cls-3" d="M161.48,272.38c15.73-.59,31.57,5.4,47.72,9.8,5.77,1.57,11.49,3.32,17.23,5,1.43.41,3,.57,3.37,2.46s-.79,2.73-2.11,3.57c-17.84,11.37-36.71,19.89-58,22.5-15.73,1.92-30.61-2.51-45.84-4.64-10.91-1.52-22-2.23-31.59,5.14-1.63,1.25-3.77,2.28-5.53.89s-.84-3.73-.07-5.55c5-11.68,13.9-19.79,24.45-26.15C126.09,276.34,142.52,272.16,161.48,272.38Z"/><path class="cls-2" d="M634.66,246.56c6.13,1.23,12.75,2.9,19.61,3.11,20.24.63,38.55-5.88,56.35-14.69,15.63-7.75,31-16.09,47.57-21.82,21.21-7.34,42.48-9.35,63.81-.44a65.41,65.41,0,0,1,13.9,7.79c1.38,1,3.26,2.25,2.27,4.41-.89,1.94-2.64,1.27-4.36,1A60.37,60.37,0,0,0,798,232c-11.8,5.84-23.11,12.53-34.28,19.45-36.18,22.38-73.81,24-112.72,8.24-6.16-2.49-12.46-4.69-18.21-8.1-1.31-.78-2.56-1.7-2-3.57S632.79,246.57,634.66,246.56Z"/><path class="cls-3" d="M656.69,199.58c15.73-.59,31.57,5.4,47.72,9.8,5.77,1.57,11.49,3.32,17.23,5,1.42.41,3,.57,3.37,2.46s-.79,2.73-2.11,3.57c-17.84,11.37-36.71,19.89-58,22.5-15.73,1.92-30.61-2.51-45.84-4.64-10.91-1.52-22-2.23-31.59,5.14-1.63,1.25-3.77,2.28-5.53.89s-.84-3.73-.07-5.55c5-11.68,13.89-19.79,24.45-26.15C621.3,203.54,637.73,199.36,656.69,199.58Z"/></g></g></svg>