<?xml version="1.0" encoding="utf-8"?>
<!-- Generator: Adobe Illustrator 24.1.2, SVG Export Plug-In . SVG Version: 6.00 Build 0)  -->
<svg version="1.1" id="Layer_1" xmlns="http://www.w3.org/2000/svg" xmlns:xlink="http://www.w3.org/1999/xlink" x="0px" y="0px"
	 viewBox="0 0 1920 1080" style="enable-background:new 0 0 1920 1080;" xml:space="preserve">
<style type="text/css">
	.st0{fill:url(#SVGID_1_);}
	.st1{fill:url(#SVGID_2_);}
	.st2{fill:url(#SVGID_3_);}
	.st3{fill:url(#SVGID_4_);}
	.st4{fill:url(#SVGID_5_);}
	.st5{fill:url(#SVGID_6_);}
	.st6{fill:url(#SVGID_7_);}
	.st7{fill:url(#SVGID_8_);}
	.st8{fill:url(#SVGID_9_);}
	.st9{fill:url(#SVGID_10_);}
</style>
<g>
	
		<linearGradient id="SVGID_1_" gradientUnits="userSpaceOnUse" x1="734.4788" y1="123.2829" x2="1151.1184" y2="539.9222" gradientTransform="matrix(1 0 0 -1 0 1080)">
		<stop  offset="0" style="stop-color:#C2C3C1"/>
		<stop  offset="0.486" style="stop-color:#CFCBC4"/>
		<stop  offset="0.6808" style="stop-color:#D5D2CD"/>
		<stop  offset="1" style="stop-color:#E6E6E6"/>
	</linearGradient>
	<path class="st0" d="M845.2,1005.9c3-0.7,4.7-0.9,6.3-1.4c61.4-21.1,122.8-42.1,184-63.4c2.7-0.9,5.4-4.7,5.8-7.4
		c3.5-21.7,1.5-42.5-12.4-61.7c-5.1-7-8.2-15.2-12.3-22.7c-16.3-30.1-18-61.1-7.4-92.8c11.7-35.2,34-65.3,59.4-94
		c9-10.1,18.5-19.9,28.6-30.6c-2.8,0.3-4.2,0.5-5.6,0.6c-34.3,2.4-68.5,5-102.8,7c-3.2,0.2-9-2.3-9.5-4.4c-1.7-7-7-10.4-13.6-12.5
		c-14.3-4.7-29-4.9-43.4-0.5c-7.3,2.2-13.5,5.5-15.2,13.1c-0.3,1.6-5.1,3.4-7.7,3.3c-13.1-0.4-26.2-1.4-39.6-2.1
		c2.3,30.7-14.1,50.5-43.9,62.1c-12.5,4.9-26.2,8-39.7,10.2c-15.2,2.5-30.8,3-46.1,4.3c19.5,18,38.7,36.1,58.3,53.8
		c34,30.6,49.4,68.2,52.3,109.6c2.8,39.8,3.1,79.7,4.5,119.6C845.3,999.1,845.2,1002.1,845.2,1005.9z M1215.2,604.1
		c-28.6,7.4-54,15.2-80.1,20.4c-15,3-26,8.5-35.8,18.7c-30.5,31.7-58.6,64.6-76.1,103.6c-21.5,47.7-7.1,90.7,22.1,132.7
		c0.3-1.8,0.5-3,0.7-4.2c4.6-41.8,20.8-79,55.4-109.3c24.9-21.8,49.7-43.7,74.3-65.7c6-5.4,13.6-11.1,15.9-17.8
		C1200.3,657,1207.2,631.1,1215.2,604.1z M844.9,1067.2c66.1,0,131.5,0,196.3,0c0-39,0-78.2,0-118.3c-11.6,3.9-21.9,7.4-32.2,10.9
		c-52.4,18-104.8,35.9-157.1,54.1c-2.9,1-6.5,4.4-6.6,6.7C844.7,1035.5,844.9,1050.5,844.9,1067.2z M849.4,636
		c-60.2-4.4-118.6-14.9-176.4-35.1c6.4,29,9.6,57.1,23.8,82.5c7.5,13.4,20.1,23.7,40.6,19.9c5.5-1,11.4-0.4,17.1-0.8
		c24.2-2,48-5.4,68.7-17.3C843.1,673.7,852.2,657.7,849.4,636z"/>
	
		<linearGradient id="SVGID_2_" gradientUnits="userSpaceOnUse" x1="766.5662" y1="498.0073" x2="1070.5339" y2="801.9753" gradientTransform="matrix(1 0 0 -1 0 1080)">
		<stop  offset="0" style="stop-color:#C2C3C1"/>
		<stop  offset="0.486" style="stop-color:#CFCBC4"/>
		<stop  offset="0.6808" style="stop-color:#D5D2CD"/>
		<stop  offset="1" style="stop-color:#E6E6E6"/>
	</linearGradient>
	<path class="st1" d="M862,148c29.5,15.2,57,29.3,84.4,43.5c24.7,12.7,49.3,25.4,73.9,38.2c2.7,1.4,6,3.2,7.2,5.6
		c14,26.9,36.8,47.9,59.6,69c2,1.9,4.1,3.8,6.7,6.2c-31.3,41.4-48.2,86.6-46.3,136.5c1.9,49.7,22.9,93.4,57.1,135.6
		c-15.5,2.3-29.4,5.3-43.5,6.2c-39.7,2.6-77.9-4.1-115.6-14.4c-3.4-0.9-7.6,0.3-11.4,0.9c-23.1,3.7-46,8.7-69.3,11.2
		c-36.4,3.9-71.7-0.9-104.9-14.9c-2.4-1-4.6-2.3-7.3-3.6c20.7-25.1,37.6-51.4,48.6-80.3c22-57.2,21.6-113.9-6.5-169.7
		c-2.7-5.3-2.3-8.6,2.6-12.9c11.2-9.9,21.7-20.5,32.4-30.8c34.8-33.2,46.6-71.5,34.1-115.2C862.9,156,862.7,152.9,862,148z"/>
	
		<linearGradient id="SVGID_3_" gradientUnits="userSpaceOnUse" x1="1055.1548" y1="561.1587" x2="1183.0848" y2="689.0889" gradientTransform="matrix(1 0 0 -1 0 1080)">
		<stop  offset="0" style="stop-color:#C2C3C1"/>
		<stop  offset="0.486" style="stop-color:#CFCBC4"/>
		<stop  offset="0.6808" style="stop-color:#D5D2CD"/>
		<stop  offset="1" style="stop-color:#E6E6E6"/>
	</linearGradient>
	<path class="st2" d="M1101.4,317.3c32.5,29.4,66.4,57,95.7,87.9c13,13.6,17.8,33.5,24.5,51c5.3,13.8,6.1,28.6,0.3,42.6
		c-3.3,8-7.4,16.6-14.1,22.5c-25.6,22.5-53.8,42.2-87.5,55c-1.9,0.7-3.9,1.2-5.8,1.8C1044.1,501.7,1037.3,398.2,1101.4,317.3z"/>
	
		<linearGradient id="SVGID_4_" gradientUnits="userSpaceOnUse" x1="679.9216" y1="560.4409" x2="832.3072" y2="712.8267" gradientTransform="matrix(1 0 0 -1 0 1080)">
		<stop  offset="0" style="stop-color:#C2C3C1"/>
		<stop  offset="0.486" style="stop-color:#CFCBC4"/>
		<stop  offset="0.6808" style="stop-color:#D5D2CD"/>
		<stop  offset="1" style="stop-color:#E6E6E6"/>
	</linearGradient>
	<path class="st3" d="M783.6,318.4c40.8,72.7,27.2,168.4-40.7,245.3c-25.1-14.5-50.2-29.3-68.8-50.4c-13.6-15.4-14.8-34.3-9.7-52.1
		c5.3-18.4,14.4-36,22.1-53.8c1.2-2.8,3.7-5.4,6.2-7.6c29.3-26.5,58.8-53,88.2-79.4C781.7,319.7,782.6,319.1,783.6,318.4z"/>
	
		<linearGradient id="SVGID_5_" gradientUnits="userSpaceOnUse" x1="918.6547" y1="980.871" x2="1023.4147" y2="1085.631" gradientTransform="matrix(1 0 0 -1 0 1080)">
		<stop  offset="0" style="stop-color:#C2C3C1"/>
		<stop  offset="0.486" style="stop-color:#CFCBC4"/>
		<stop  offset="0.6808" style="stop-color:#D5D2CD"/>
		<stop  offset="1" style="stop-color:#E6E6E6"/>
	</linearGradient>
	<path class="st4" d="M1045.1,16c-5.4,43.6-10.6,85.5-16.1,129.5c-4.8-2.8-7.2-4-9.4-5.5c-55.4-35.9-110.7-71.9-166.3-107.5
		c-7-4.5-10.3-9.1-8.1-16.6C910.5,16,976.2,16,1045.1,16z"/>
	
		<linearGradient id="SVGID_6_" gradientUnits="userSpaceOnUse" x1="894.5271" y1="910.3624" x2="966.2788" y2="982.114" gradientTransform="matrix(1 0 0 -1 0 1080)">
		<stop  offset="0" style="stop-color:#C2C3C1"/>
		<stop  offset="0.486" style="stop-color:#CFCBC4"/>
		<stop  offset="0.6808" style="stop-color:#D5D2CD"/>
		<stop  offset="1" style="stop-color:#E6E6E6"/>
	</linearGradient>
	<path class="st5" d="M847,39.3c34.2,22.1,67.3,43.5,100.4,65c23.7,15.4,47.5,30.6,71,46.2c2.6,1.8,5.8,5.4,5.5,7.8
		c-2.7,19.9-8,39.7-2,62c-16-8.2-29.7-15.2-43.4-22.2c-37.6-19.4-75.2-38.8-112.7-58.3c-3-1.6-6.6-4.5-7-7.1
		c-4.5-29.9-8.5-59.8-12.6-89.8C846.2,42,846.6,41.2,847,39.3z"/>
	
		<linearGradient id="SVGID_7_" gradientUnits="userSpaceOnUse" x1="774.7595" y1="144.5042" x2="1087.8265" y2="457.5712" gradientTransform="matrix(1 0 0 -1 0 1080)">
		<stop  offset="0" style="stop-color:#C2C3C1"/>
		<stop  offset="0.486" style="stop-color:#CFCBC4"/>
		<stop  offset="0.6808" style="stop-color:#D5D2CD"/>
		<stop  offset="1" style="stop-color:#E6E6E6"/>
	</linearGradient>
	<path class="st6" d="M845.2,1005.9c0-3.8,0.1-6.9,0-9.9c-1.4-39.9-1.7-79.8-4.5-119.6c-2.9-41.4-18.3-79-52.3-109.6
		C768.7,749.1,749.5,731,730,713c15.3-1.3,30.9-1.8,46.1-4.3c13.5-2.2,27.2-5.3,39.7-10.2c29.8-11.6,46.2-31.4,43.9-62.1
		c13.4,0.8,26.5,1.8,39.6,2.1c2.6,0.1,7.4-1.8,7.7-3.3c1.7-7.6,7.9-10.9,15.2-13.1c14.5-4.4,29.1-4.2,43.4,0.5
		c6.6,2.2,11.9,5.5,13.6,12.5c0.5,2,6.3,4.6,9.5,4.4c34.3-2,68.6-4.6,102.8-7c1.4-0.1,2.8-0.3,5.6-0.6
		c-10.1,10.7-19.6,20.5-28.6,30.6c-25.4,28.6-47.6,58.8-59.4,94c-10.6,31.8-9,62.7,7.4,92.8c4.1,7.6,7.2,15.7,12.3,22.7
		c13.9,19.2,15.9,40.1,12.4,61.7c-0.4,2.7-3.1,6.4-5.8,7.4c-61.2,21.4-122.6,42.4-184,63.4C849.9,1005.1,848.2,1005.3,845.2,1005.9z
		"/>
	
		<linearGradient id="SVGID_8_" gradientUnits="userSpaceOnUse" x1="999.6757" y1="246.0538" x2="1222.3313" y2="468.7093" gradientTransform="matrix(1 0 0 -1 0 1080)">
		<stop  offset="0" style="stop-color:#C2C3C1"/>
		<stop  offset="0.486" style="stop-color:#CFCBC4"/>
		<stop  offset="0.6808" style="stop-color:#D5D2CD"/>
		<stop  offset="1" style="stop-color:#E6E6E6"/>
	</linearGradient>
	<path class="st7" d="M1215.2,604.1c-8,26.9-14.9,52.9-23.7,78.3c-2.3,6.7-9.9,12.4-15.9,17.8c-24.6,22.1-49.4,43.9-74.3,65.7
		c-34.6,30.3-50.8,67.6-55.4,109.3c-0.1,1.2-0.4,2.3-0.7,4.2c-29.2-42.1-43.6-85-22.1-132.7c17.6-39,45.6-71.8,76.1-103.6
		c9.8-10.2,20.8-15.7,35.8-18.7C1161.2,619.3,1186.6,611.6,1215.2,604.1z"/>
	
		<linearGradient id="SVGID_9_" gradientUnits="userSpaceOnUse" x1="882.0469" y1="-24.2853" x2="1039.3235" y2="132.9913" gradientTransform="matrix(1 0 0 -1 0 1080)">
		<stop  offset="0" style="stop-color:#C2C3C1"/>
		<stop  offset="0.486" style="stop-color:#CFCBC4"/>
		<stop  offset="0.6808" style="stop-color:#D5D2CD"/>
		<stop  offset="1" style="stop-color:#E6E6E6"/>
	</linearGradient>
	<path class="st8" d="M844.9,1067.2c0-16.7-0.3-31.6,0.3-46.6c0.1-2.4,3.8-5.7,6.6-6.7c52.3-18.2,104.7-36.1,157.1-54.1
		c10.3-3.5,20.6-7,32.2-10.9c0,40.1,0,79.3,0,118.3C976.4,1067.2,911.1,1067.2,844.9,1067.2z"/>
	
		<linearGradient id="SVGID_10_" gradientUnits="userSpaceOnUse" x1="701.8097" y1="388.9053" x2="803.1559" y2="490.2517" gradientTransform="matrix(1 0 0 -1 0 1080)">
		<stop  offset="0" style="stop-color:#C2C3C1"/>
		<stop  offset="0.486" style="stop-color:#CFCBC4"/>
		<stop  offset="0.6808" style="stop-color:#D5D2CD"/>
		<stop  offset="1" style="stop-color:#E6E6E6"/>
	</linearGradient>
	<path class="st9" d="M849.4,636c2.8,21.7-6.4,37.7-26.1,49.1c-20.7,12-44.5,15.4-68.7,17.3c-5.7,0.5-11.6-0.2-17.1,0.8
		c-20.4,3.8-33.1-6.5-40.6-19.9c-14.2-25.4-17.4-53.6-23.8-82.5C730.8,621.1,789.2,631.6,849.4,636z"/>
</g>
</svg>
