<?xml version="1.0" encoding="utf-8"?>
<!-- Generator: Adobe Illustrator 24.1.2, SVG Export Plug-In . SVG Version: 6.00 Build 0)  -->
<svg version="1.1" id="Layer_1" xmlns="http://www.w3.org/2000/svg" xmlns:xlink="http://www.w3.org/1999/xlink" x="0px" y="0px"
	 viewBox="0 0 1920 1080" style="enable-background:new 0 0 1920 1080;" xml:space="preserve">
<style type="text/css">
	.st0{fill:url(#SVGID_1_);}
</style>
<linearGradient id="SVGID_1_" gradientUnits="userSpaceOnUse" x1="386.6866" y1="535.2" x2="1527.0598" y2="535.2" gradientTransform="matrix(1 0 0 -1 0 1080)">
	<stop  offset="0" style="stop-color:#FFFD8C"/>
	<stop  offset="0.4871" style="stop-color:#97FFF4"/>
	<stop  offset="1" style="stop-color:#7091F5"/>
</linearGradient>
<path class="st0" d="M940.7,72.8c263.1,0.9,474.3,213.8,471.8,476.8c-2.4,259.9-213.5,467.3-471.5,467.2
	c-271.8-0.1-480.6-225.8-472-486.9C477.2,279.1,682,73.7,940.7,72.8z M1189,653.8c-136.6,41.5-272,82.6-407.4,123.7
	c0.2,1.6,0.2,2.6,0.6,3.4c1,2.3,2.1,4.6,3.2,6.8c15.7,30.7,41.6,49.3,73,61c44.9,16.8,91.3,17.6,138,9.8c53.2-9,102-28.5,142.1-65.8
	C1178.5,755.6,1196.6,709.9,1189,653.8z M855.6,251.4c1.3,0,2.5-0.1,3.8-0.1c1.8-14.3,1.1-28.4-4.2-42.1
	c-8.1-20.7-26.9-30.9-48.7-26.1c-22.3,5-38.7,18-48.4,38.7c-12.8,27.3-1.7,48.9,27.7,55.4c55.5,12.3,116-27.9,126.7-84.1
	c0.7-3.5,1-7,1.5-10.5c-0.9-0.2-1.8-0.5-2.7-0.7c-0.9,2.2-2.1,4.4-2.5,6.7c-8.2,44.4-42.3,77.6-86.8,84.7
	c-16.8,2.7-33.4,2.7-48.9-5.4c-13-6.8-17.9-17.5-14.8-31.5c5-23.3,19.6-38.4,41.5-46.5c25.7-9.6,47.1,1.9,53.6,28.4
	c1.6,6.4,1.8,13.1,2.3,19.7C855.9,242.3,855.6,246.9,855.6,251.4z M1039.8,479.4c-1.6-25.1-9.3-51.8-21.2-67.3
	c-5.9-7.7-12.7-15.1-23.4-13.5c-11.2,1.8-16.6,11.1-17.9,20.9c-1.9,14.2-3.1,28.9-1.7,43.1c1.9,20,8.3,39,22.5,54.1
	c12.9,13.8,28.2,11.3,34.9-6.3C1036.5,500.7,1037.5,489.8,1039.8,479.4z M860.1,543c-1.7-29.7-6.1-53.8-22.5-73.7
	c-14.6-17.9-31.5-14.6-38.8,7.3c-6,18.2-4.8,36.7-0.8,55.1c3.6,16.5,9.4,31.9,21.1,44.8c10.6,11.6,28.7,11.9,34.9-6.7
	C857.4,559.6,858.8,549,860.1,543z M471.7,630.3c-9,4.9-16.6,9.2-24.4,13.2c-80.3,41.1-74.4,144.8-20.1,193.1
	c39.3,35,91.8,29,134.5-2.9C515.8,773,486.1,705.6,471.7,630.3z M1479.6,556.9c54.3-37.7,63.8-125,19.3-175.5
	c-30.3-34.4-81.1-37.4-118.7-20.9c29.4,70,40.9,143.1,35.7,219.5C1438.8,574.6,1460.7,570,1479.6,556.9z"/>
</svg>
