<?xml version="1.0" encoding="utf-8"?>
<!-- Generator: Adobe Illustrator 24.1.2, SVG Export Plug-In . SVG Version: 6.00 Build 0)  -->
<svg version="1.1" id="Layer_1" xmlns="http://www.w3.org/2000/svg" xmlns:xlink="http://www.w3.org/1999/xlink" x="0px" y="0px"
	 viewBox="0 0 1920 1080" style="enable-background:new 0 0 1920 1080;" xml:space="preserve">
<style type="text/css">
	.st0{fill:url(#SVGID_1_);}
</style>
<linearGradient id="SVGID_1_" gradientUnits="userSpaceOnUse" x1="597.9374" y1="3.3716" x2="1342.7386" y2="748.1725" gradientTransform="matrix(1 0 0 -1 0 1080)">
	<stop  offset="0" style="stop-color:#3FBCFF"/>
	<stop  offset="7.631361e-03" style="stop-color:#42BBFE"/>
	<stop  offset="0.1429" style="stop-color:#74B1F1"/>
	<stop  offset="0.2813" style="stop-color:#9EA8E6"/>
	<stop  offset="0.4206" style="stop-color:#C1A1DD"/>
	<stop  offset="0.5611" style="stop-color:#DC9BD6"/>
	<stop  offset="0.7033" style="stop-color:#F097D1"/>
	<stop  offset="0.8482" style="stop-color:#FB95CE"/>
	<stop  offset="1" style="stop-color:#FF94CD"/>
</linearGradient>
<path class="st0" d="M1003.1,226.9c0,55.9,0,111.9,0,167.8c0,14.1-6.1,24.6-18.6,30.9c-12.2,6.2-24.2,4.6-35-3.5
	c-9-6.7-13.1-16.2-13.1-27.3c-0.1-111.9-0.1-223.7,0-335.6c0-20.2,14.8-34.7,33.8-34.5c18.8,0.2,32.7,14.9,32.7,35.3
	C1003.2,115.7,1003.1,171.3,1003.1,226.9z M987.4,227c0-52.3,0-104.7,0-157c0-4.2,0.2-8.5-0.1-12.7c-0.7-9.3-7.3-16.1-16.1-16.8
	c-8.6-0.6-16.6,5.4-18.5,14.3c-0.7,3.5-0.6,7.1-0.6,10.7c0,63.8,0,127.5,0,191.3c0,43.5,0,87,0,130.5c0,2.3-0.1,4.6,0,6.9
	c0.5,11.4,8,19.3,18,19.2c10.2-0.1,17.2-7.8,17.2-19.7C987.4,338.1,987.4,282.5,987.4,227z M1225.6,890.3
	c30.5-23.6,53.2-53.9,73.3-86.2c45.2-72.4,74.5-151.6,99.4-232.7c1.3-4.2,0.4-9.9-1.3-14.1c-11-28.3-21.6-56.8-33.9-84.5
	c-39.8-90.2-87.5-176.1-142.7-257.8c-13.6-20.2-29.8-38.2-51.7-50c-19.2-10.3-38.4-9.9-54.6,5.1c-11.1,10.3-22.1,22.1-28.7,35.5
	c-12.3,25.1-23.6,51.1-31.5,77.9c-28.5,97.6-37,198.3-43.6,299.1c-0.4,5.9,2.6,7.8,7,10c23.8,12.1,44.9,28,63.7,46.9
	c56.3,56.7,91.4,126,117.7,200.4c6.4,18.1,12,36.5,18.4,56.2C1220.9,893.6,1223.3,892,1225.6,890.3z M1233.4,909.1
	c38,35.4,76.1,70.8,114.2,106.2c2.8,2.7,6,5.1,9.2,7.2c17.3,11.3,34.6,9.1,46.2-8c8-11.7,14.8-24.8,19.4-38.2
	c15.5-44.9,20.4-91.7,23.3-138.7c4.9-81.4-10.2-160-34.3-237.3c-0.6-1.8-1.7-3.5-2.1-4.2c-17.1,43.5-32.6,87.5-51.5,130.1
	c-30.3,67.9-66.7,131.9-126.6,180.2C1232.2,907.6,1232.7,908.4,1233.4,909.1z M1192.7,870.5c-20.3-61.3-45.3-120.4-83.2-173.3
	c-24.6-34.3-53.2-64.6-90.2-85.8c-2.9-1.6-6-2.9-12.3-5.9c0,36.8-0.3,70.8,0.1,104.8c0.2,19.8,8.1,36.1,25.1,47.3
	c4.1,2.7,7.9,5.8,11.9,8.7c49.9,35.2,99.7,70.4,148.8,104.9C1192.8,872.4,1193,871.3,1192.7,870.5z M581.6,461.2
	c-36.1,80-65.2,162.3-80.2,249.1c-1,6-0.1,9.7,4.7,13.4c9.7,7.3,18.8,15.3,28.4,22.5c67.9,51.2,141,92,225.1,109.9
	c4.3,0.9,10.4-0.7,14-3.3c26.6-18.9,52.7-38.5,79.2-57.6c19.9-14.3,40.3-27.8,60.2-42.1c11.8-8.5,18.5-20.9,18.7-35.2
	c0.6-39.1,0.2-78.3,0.2-116.1c-33.3-10.4-64.2-18.7-94.2-29.6c-90-32.8-176.7-71.1-236.3-153.7C594.5,433.4,587.9,447.2,581.6,461.2
	z M928.4,574c-5.5-56.3-9.8-112.6-16.9-168.7c-6.7-52.8-17.8-105-36.4-155.2c-9.5-25.5-20.3-50.4-39.1-70.7
	c-24-26-49.7-29.3-76.8-6.6c-16.6,13.9-32.5,30.1-43.8,48.3c-35,56.6-67.6,114.7-101.4,172.2c-3,5.2-2.7,9.3,0.3,14.4
	c14.6,24.6,34.3,44.5,56.7,61.8c54.5,42,116.6,69.1,181.1,91.1c24.6,8.4,49.7,15.5,76.2,23.7C928.5,579.2,928.7,576.6,928.4,574z
	 M497.4,740.4c-0.4,2.2-0.7,4.5-1,6.8c-6.7,56.6-2.8,113,6.3,168.9c5.1,31.3,11.3,62.5,28,90.2c16.9,28,38.7,30.2,62.7,8
	c50-46.1,100.5-91.5,150.8-137.3c2-1.8,4-3.8,6.3-6.1c-95.4-23.8-176.9-71.7-251.3-132.6C498.2,739.4,497.5,739.8,497.4,740.4z
	 M987.4,70.1c0-4.2,0.2-8.5-0.1-12.7c-0.7-9.3-7.3-16.1-16.1-16.8c-8.6-0.6-16.6,5.4-18.5,14.3c-0.7,3.5-0.6,7.1-0.6,10.7
	c0,63.8,0,127.5,0,191.3c0,43.5,0,87,0,130.5c0,2.3-0.1,4.6,0,6.9c0.5,11.4,8,19.3,18,19.2c10.2-0.1,17.2-7.8,17.2-19.7
	c0.1-55.6,0-111.2,0-166.8C987.4,174.7,987.4,122.4,987.4,70.1z"/>
</svg>
