<?xml version="1.0" encoding="utf-8"?>
<!-- Generator: Adobe Illustrator 24.1.2, SVG Export Plug-In . SVG Version: 6.00 Build 0)  -->
<svg version="1.1" id="Layer_1" xmlns="http://www.w3.org/2000/svg" xmlns:xlink="http://www.w3.org/1999/xlink" x="0px" y="0px"
	 viewBox="0 0 1920 1080" style="enable-background:new 0 0 1920 1080;" xml:space="preserve">
<style type="text/css">
	.st0{fill:url(#SVGID_1_);stroke:#FFFFFF;stroke-miterlimit:10;}
	.st1{fill:none;stroke:#FFFFFF;stroke-miterlimit:10;}
</style>
<g>
	
		<linearGradient id="SVGID_1_" gradientUnits="userSpaceOnUse" x1="742.7668" y1="809.4877" x2="1275.2488" y2="277.006" gradientTransform="matrix(1 0 0 -1 0 1080)">
		<stop  offset="0" style="stop-color:#01E1E6"/>
		<stop  offset="0.5077" style="stop-color:#0472BF"/>
		<stop  offset="1" style="stop-color:#060557"/>
	</linearGradient>
	<path class="st0" d="M975.7,849.5c96.2-141.7,14.3-112-153-388.5S1076.1,0,1076.1,0s-392,263.4,28.7,612.4s-196,217.3-143.4,467.6
		C961.4,1080,837.1,1053.7,975.7,849.5z"/>
	<line class="st1" x1="954.4" y1="882.8" x2="1172" y2="882.8"/>
	<line class="st1" x1="1005.8" y1="798.9" x2="1252.5" y2="798.9"/>
	<line class="st1" x1="1016.3" y1="749.6" x2="1235.8" y2="749.6"/>
	<line class="st1" x1="1001.2" y1="710.9" x2="1207.8" y2="710.9"/>
	<line class="st1" x1="967.9" y1="665.4" x2="1164.6" y2="665.4"/>
	<line class="st1" x1="936.8" y1="626.1" x2="1121" y2="626.1"/>
	<line class="st1" x1="910.4" y1="591.6" x2="1080.5" y2="591.6"/>
	<line class="st1" x1="873.5" y1="540" x2="1028.9" y2="540"/>
	<line class="st1" x1="857.3" y1="515.7" x2="1001.2" y2="515.7"/>
	<line class="st1" x1="832.5" y1="476.9" x2="976.4" y2="476.9"/>
	<line class="st1" x1="803.7" y1="424.4" x2="945" y2="424.4"/>
	<line class="st1" x1="787" y1="370.3" x2="923.1" y2="370.3"/>
	<line class="st1" x1="783.4" y1="320.4" x2="912.3" y2="320.4"/>
	<line class="st1" x1="788.6" y1="284.9" x2="910.1" y2="284.9"/>
	<line class="st1" x1="801.6" y1="244.4" x2="912.3" y2="244.4"/>
	<line class="st1" x1="820.3" y1="207.9" x2="921.3" y2="207.9"/>
	<line class="st1" x1="847.8" y1="168.8" x2="935.5" y2="168.8"/>
	<line class="st1" x1="881.1" y1="132.2" x2="951.2" y2="132.2"/>
	<line class="st1" x1="923.1" y1="94.9" x2="979.3" y2="94.9"/>
	<line class="st1" x1="976.4" y1="55.9" x2="1012.3" y2="55.9"/>
</g>
</svg>
