<svg xmlns="http://www.w3.org/2000/svg" xmlns:xlink="http://www.w3.org/1999/xlink" viewBox="0 0 883 485"><defs><style>.cls-1{fill:url(#linear-gradient);}.cls-2{fill:#f9f9f9;}.cls-3{fill:#f5f5f6;}.cls-4{fill:#e9ebea;}.cls-5{fill:#e5e7e8;}.cls-6{fill:#e7e9eb;}.cls-7{fill:#eaebed;}.cls-8{fill:#e7e8ea;}.cls-9{fill:#e77dde;}.cls-10{fill:#e57ae0;}.cls-11{fill:#a1cfbb;}.cls-12{fill:#a2d3bc;}.cls-13{fill:#dadcde;}.cls-14{fill:#594d7f;}.cls-15{fill:#5b4f85;}.cls-16{fill:#a7d9c6;}.cls-17{fill:#a7dac6;}.cls-18{fill:#595081;}.cls-19{fill:#5e5187;}.cls-20{fill:#b5eed2;}.cls-21{fill:#d379cd;}.cls-22{fill:#707ac8;}.cls-23{fill:#6b74c2;}.cls-24{fill:#6a74c4;}</style><linearGradient id="linear-gradient" x1="100" y1="584" x2="783" y2="-99" gradientUnits="userSpaceOnUse"><stop offset="0" stop-color="#152634"/><stop offset="1" stop-color="#173046"/></linearGradient></defs><g id="Layer_2" data-name="Layer 2"><g id="Layer_1-2" data-name="Layer 1"><rect class="cls-1" x="0.5" y="0.5" width="882" height="484"/><path d="M882,1V484H1V1H882m1-1H0V485H883V0Z"/><path class="cls-2" d="M196.74,154.22c6.77-1.19,10.5-4.9,11.55-11.81.84,7.18,5,10.5,11.64,11.79-7.24.57-10.6,4.43-11.37,11.45C206.6,159.79,204.41,154.42,196.74,154.22Z"/><path class="cls-3" d="M96.22,117.29c1.22,4.59,3,8,8.6,8.28-4.64,1.77-8.33,3.58-8,9.26C94.45,131.1,94,126,87.7,126.24,92.5,124.89,95.57,122.43,96.22,117.29Z"/><path class="cls-4" d="M153.88,63.81c.77,3.16,2.9,4.11,6,5.46-3.46.58-5.31,1.8-5.61,4.92-1-2.77-2.14-4.62-5.12-4.53C150.51,67.36,154.51,67.87,153.88,63.81Z"/><path class="cls-5" d="M255.44,117.06c.25,2.85,2.08,4,5.47,5.1-3.34.72-5.24,1.73-4.9,5-2.22-1.76-2.35-5.11-5.71-4.74A9.62,9.62,0,0,0,255.44,117.06Z"/><path class="cls-6" d="M291.91,208.82c-.7-2.67-2.21-3.92-5.35-4.31,2.5-1.42,5.14-1.83,5.3-5.09.86,3,3,3.92,6.95,4.93C294.59,204.68,292.85,206.05,291.91,208.82Z"/><path class="cls-7" d="M261.67,40.76c1.12,2.58,2.71,4,6.57,4.51-3.87.91-5.81,2.25-6.39,5.24-1-2.52-1.81-4.68-4.91-4.9C259.34,44.54,261.29,43.52,261.67,40.76Z"/><path class="cls-8" d="M165.9,227.92c2.4-.87,3.13-2.8,4.57-5,.72,2.42,1.48,4.2,5.12,4.26-2.83,1.8-5,2.55-4.72,5.54C168.86,230.93,168.57,228.26,165.9,227.92Z"/><path class="cls-9" d="M303.88,63.94a2,2,0,0,1-2-2.2c0-1.71,1.11-2.23,2.57-2.12s1.85,1.14,1.76,2.41S305.23,64,303.88,63.94Z"/><path class="cls-10" d="M190.25,46c.21,1.64-.77,1.84-2.07,1.81s-2.23-.28-2-1.9a2.13,2.13,0,0,1,2.19-2.12C189.92,43.74,190.13,44.86,190.25,46Z"/><path class="cls-11" d="M82.89,70.44c-1.09,0-1.9-.51-2-1.69s.44-1.89,1.7-1.88a2,2,0,0,1,2.13,1.62C84.89,69.65,84,70.21,82.89,70.44Z"/><path class="cls-12" d="M140.93,139.82a1.89,1.89,0,0,1,1.73,2,1.72,1.72,0,0,1-1.95,1.74,1.8,1.8,0,0,1-1.7-2A1.6,1.6,0,0,1,140.93,139.82Z"/><path class="cls-13" d="M119.77,187.16c-.79.68-1.59,1.93-2.4,1.93s-1.77-1.15-2.65-1.8c.9-.79,1.71-2,2.72-2.22C118.06,185,119,186.41,119.77,187.16Z"/><path class="cls-14" d="M111.62,43.82c1,.17,1.94.51,1.79,1.78a1.72,1.72,0,0,1-1.57,1.58,1.74,1.74,0,0,1-2-1.6C109.64,44.31,110.62,44,111.62,43.82Z"/><path class="cls-15" d="M262,84.6a1.63,1.63,0,0,1-1.7-1.45,1.61,1.61,0,0,1,1.62-2,1.58,1.58,0,0,1,1.7,1.91A1.6,1.6,0,0,1,262,84.6Z"/><path class="cls-16" d="M208.17,86.77c.41-1.27,1.05-2,2.19-1.84a1.75,1.75,0,0,1,1.78,1.92,1.63,1.63,0,0,1-2,1.6A2.38,2.38,0,0,1,208.17,86.77Z"/><path class="cls-17" d="M98.17,241.21c.08,1.24-.67,1.74-1.75,1.72s-2-.31-2.08-1.51.69-1.7,1.78-1.77A1.8,1.8,0,0,1,98.17,241.21Z"/><path class="cls-18" d="M286.24,163.79c-.92,0-1.72-.37-1.7-1.36a1.6,1.6,0,0,1,1.63-1.55,1.37,1.37,0,0,1,1.67,1.39C287.87,163.23,287.22,163.74,286.24,163.79Z"/><path class="cls-19" d="M82.51,196.3a1.64,1.64,0,0,1-1.73,1.38,1.35,1.35,0,0,1-1.49-1.51,1.39,1.39,0,0,1,1.63-1.39A1.61,1.61,0,0,1,82.51,196.3Z"/><path class="cls-20" d="M238.2,185.39a1.47,1.47,0,0,1-1.54,1.4c-.93,0-1.63-.34-1.72-1.34-.11-1.19.43-1.88,1.7-1.77A1.61,1.61,0,0,1,238.2,185.39Z"/><path class="cls-21" d="M253.72,236.48a1.71,1.71,0,0,1-1.58-1.57c0-1,.75-1.35,1.63-1.33a1.17,1.17,0,0,1,1.26,1.18A1.49,1.49,0,0,1,253.72,236.48Z"/><path class="cls-22" d="M127.29,88.17c-.25.62-.29,1.35-1.14,1.36a1.54,1.54,0,0,1-1.7-1.32,1.48,1.48,0,0,1,1.7-1.28C127,87,127.05,87.65,127.29,88.17Z"/><path class="cls-23" d="M180.54,116.93c-.59-.16-1.29-.16-1.37-1a1.35,1.35,0,0,1,1.39-1.55,1.83,1.83,0,0,1,1.29,1.09C182.21,116.5,181.37,116.78,180.54,116.93Z"/><path class="cls-24" d="M303.94,110.9a1.18,1.18,0,0,1,1.4,1c.15,1-.74.87-1.29.85s-1.15-.3-1.19-.56A1.15,1.15,0,0,1,303.94,110.9Z"/><path class="cls-2" d="M433.61,356.6c6.77-1.19,10.5-4.9,11.55-11.81.84,7.17,5,10.49,11.64,11.79-7.24.57-10.6,4.42-11.37,11.45C443.47,362.17,441.28,356.8,433.61,356.6Z"/><path class="cls-3" d="M333.09,319.67c1.22,4.59,3,8,8.6,8.28-4.64,1.77-8.33,3.58-8,9.26-2.34-3.73-2.77-8.88-9.09-8.59C329.37,327.27,332.44,324.81,333.09,319.67Z"/><path class="cls-4" d="M390.75,266.19c.77,3.15,2.9,4.11,6,5.46-3.46.58-5.31,1.79-5.61,4.92C390.1,273.8,389,272,386,272,387.38,269.74,391.38,270.25,390.75,266.19Z"/><path class="cls-5" d="M492.31,319.44c.25,2.85,2.08,4,5.47,5.1-3.34.72-5.24,1.73-4.9,5-2.22-1.77-2.35-5.11-5.71-4.74A9.62,9.62,0,0,0,492.31,319.44Z"/><path class="cls-6" d="M528.78,411.2c-.7-2.67-2.21-3.92-5.35-4.31,2.5-1.42,5.14-1.83,5.3-5.09.86,3,3,3.92,6.95,4.93C531.46,407.06,529.71,408.43,528.78,411.2Z"/><path class="cls-7" d="M498.54,243.13c1.12,2.59,2.71,4,6.57,4.52-3.87.91-5.81,2.25-6.39,5.24-1-2.53-1.81-4.68-4.91-4.91C496.21,246.92,498.16,245.9,498.54,243.13Z"/><path class="cls-8" d="M402.77,430.3c2.4-.88,3.13-2.8,4.57-5,.72,2.42,1.48,4.2,5.12,4.26-2.83,1.8-4.95,2.55-4.72,5.54C405.73,433.31,405.44,430.64,402.77,430.3Z"/><path class="cls-9" d="M540.75,266.32a2,2,0,0,1-2-2.2c0-1.72,1.11-2.23,2.57-2.12s1.85,1.13,1.76,2.41S542.1,266.38,540.75,266.32Z"/><path class="cls-10" d="M427.12,248.42c.21,1.64-.77,1.84-2.07,1.81s-2.23-.29-2-1.9a2.13,2.13,0,0,1,2.19-2.12C426.79,246.12,427,247.24,427.12,248.42Z"/><path class="cls-11" d="M319.76,272.82c-1.09,0-1.9-.51-2-1.7a1.54,1.54,0,0,1,1.7-1.87,2,2,0,0,1,2.13,1.62C321.76,272,320.87,272.59,319.76,272.82Z"/><path class="cls-12" d="M377.8,342.2a1.88,1.88,0,0,1,1.73,2,1.72,1.72,0,0,1-1.95,1.74,1.8,1.8,0,0,1-1.7-2A1.6,1.6,0,0,1,377.8,342.2Z"/><path class="cls-13" d="M356.64,389.54c-.79.68-1.59,1.92-2.4,1.93s-1.77-1.16-2.65-1.8c.9-.8,1.71-2,2.72-2.22C354.93,387.33,355.86,388.79,356.64,389.54Z"/><path class="cls-14" d="M348.49,246.2c1,.17,1.94.51,1.79,1.78a1.72,1.72,0,0,1-1.57,1.58,1.74,1.74,0,0,1-2-1.6C346.51,246.69,347.49,246.38,348.49,246.2Z"/><path class="cls-15" d="M498.9,287a1.72,1.72,0,0,1-.08-3.44,1.72,1.72,0,0,1,.08,3.44Z"/><path class="cls-16" d="M445,289.15c.41-1.27,1-2,2.19-1.84a1.75,1.75,0,0,1,1.78,1.91,1.63,1.63,0,0,1-2,1.61A2.38,2.38,0,0,1,445,289.15Z"/><path class="cls-17" d="M335,443.58c.08,1.25-.67,1.75-1.75,1.73s-2-.31-2.08-1.51.69-1.71,1.78-1.77A1.8,1.8,0,0,1,335,443.58Z"/><path class="cls-18" d="M523.11,366.16c-.92,0-1.72-.36-1.7-1.35a1.6,1.6,0,0,1,1.63-1.55,1.37,1.37,0,0,1,1.67,1.39C524.74,365.61,524.09,366.12,523.11,366.16Z"/><path class="cls-19" d="M319.38,398.68a1.64,1.64,0,0,1-1.73,1.38,1.35,1.35,0,0,1-1.49-1.51,1.4,1.4,0,0,1,1.63-1.4A1.62,1.62,0,0,1,319.38,398.68Z"/><path class="cls-20" d="M475.07,387.77a1.47,1.47,0,0,1-1.54,1.4c-.93,0-1.63-.34-1.72-1.34-.11-1.19.43-1.88,1.7-1.78A1.62,1.62,0,0,1,475.07,387.77Z"/><path class="cls-21" d="M490.59,438.86a1.71,1.71,0,0,1-1.58-1.57c0-1,.75-1.35,1.63-1.33a1.17,1.17,0,0,1,1.26,1.17A1.5,1.5,0,0,1,490.59,438.86Z"/><path class="cls-22" d="M364.16,290.55c-.25.62-.29,1.35-1.14,1.36a1.54,1.54,0,0,1-1.7-1.32c0-.76.77-1.31,1.7-1.29S363.92,290,364.16,290.55Z"/><path class="cls-23" d="M417.41,319.31c-.59-.16-1.29-.16-1.37-1a1.34,1.34,0,0,1,1.39-1.54,1.83,1.83,0,0,1,1.29,1.09C419.08,318.88,418.24,319.16,417.41,319.31Z"/><path class="cls-24" d="M540.81,313.28a1.17,1.17,0,0,1,1.4,1c.15,1-.74.87-1.29.85s-1.15-.31-1.19-.56A1.14,1.14,0,0,1,540.81,313.28Z"/><path class="cls-2" d="M745.61,139.6c6.77-1.19,10.5-4.9,11.55-11.81.84,7.17,5,10.49,11.64,11.79-7.24.57-10.6,4.42-11.37,11.45C755.47,145.17,753.28,139.8,745.61,139.6Z"/><path class="cls-3" d="M645.09,102.67c1.22,4.59,3,8,8.6,8.28-4.64,1.77-8.33,3.58-8,9.26-2.34-3.73-2.77-8.88-9.09-8.59C641.37,110.27,644.44,107.81,645.09,102.67Z"/><path class="cls-4" d="M702.75,49.19c.77,3.15,2.9,4.11,6,5.46-3.46.58-5.31,1.79-5.61,4.92C702.1,56.8,701,55,698,55,699.38,52.74,703.38,53.25,702.75,49.19Z"/><path class="cls-5" d="M804.31,102.44c.25,2.85,2.08,4,5.47,5.1-3.34.72-5.24,1.73-4.9,5-2.22-1.77-2.35-5.11-5.71-4.74A9.62,9.62,0,0,0,804.31,102.44Z"/><path class="cls-6" d="M840.78,194.2c-.7-2.67-2.21-3.92-5.35-4.31,2.5-1.42,5.14-1.83,5.3-5.09.86,3,3,3.92,6.95,4.93C843.46,190.06,841.71,191.43,840.78,194.2Z"/><path class="cls-7" d="M810.54,26.13c1.12,2.59,2.71,4,6.57,4.52-3.87.91-5.81,2.25-6.39,5.24-1-2.53-1.81-4.68-4.91-4.91C808.21,29.92,810.16,28.9,810.54,26.13Z"/><path class="cls-8" d="M714.77,213.3c2.4-.88,3.13-2.8,4.57-5,.72,2.42,1.48,4.2,5.12,4.26-2.83,1.8-5,2.55-4.72,5.54C717.73,216.31,717.44,213.64,714.77,213.3Z"/><path class="cls-9" d="M852.75,49.32a2,2,0,0,1-2-2.2c0-1.72,1.11-2.23,2.57-2.12s1.85,1.13,1.76,2.41S854.1,49.38,852.75,49.32Z"/><path class="cls-10" d="M739.12,31.42c.21,1.64-.77,1.84-2.07,1.81s-2.23-.29-2-1.9a2.13,2.13,0,0,1,2.19-2.12C738.79,29.12,739,30.24,739.12,31.42Z"/><path class="cls-11" d="M631.76,55.82c-1.09,0-1.9-.51-2-1.7a1.54,1.54,0,0,1,1.7-1.87,2,2,0,0,1,2.13,1.62C633.76,55,632.87,55.59,631.76,55.82Z"/><path class="cls-12" d="M689.8,125.2a1.88,1.88,0,0,1,1.73,2,1.72,1.72,0,0,1-1.95,1.74,1.8,1.8,0,0,1-1.7-2A1.6,1.6,0,0,1,689.8,125.2Z"/><path class="cls-13" d="M668.64,172.54c-.79.68-1.59,1.92-2.4,1.93s-1.77-1.16-2.65-1.8c.9-.8,1.71-2,2.72-2.22C666.93,170.33,667.86,171.79,668.64,172.54Z"/><path class="cls-14" d="M660.49,29.2c1,.17,1.94.51,1.79,1.78a1.72,1.72,0,0,1-1.57,1.58,1.74,1.74,0,0,1-2-1.6C658.51,29.69,659.49,29.38,660.49,29.2Z"/><path class="cls-15" d="M810.9,70a1.72,1.72,0,0,1-.08-3.44A1.72,1.72,0,0,1,810.9,70Z"/><path class="cls-16" d="M757,72.15c.41-1.27,1.05-2,2.19-1.84A1.75,1.75,0,0,1,761,72.22a1.63,1.63,0,0,1-2,1.61A2.38,2.38,0,0,1,757,72.15Z"/><path class="cls-17" d="M647,226.58c.08,1.25-.67,1.75-1.75,1.73s-2-.31-2.08-1.51.69-1.71,1.78-1.77A1.8,1.8,0,0,1,647,226.58Z"/><path class="cls-18" d="M835.11,149.16c-.92,0-1.72-.36-1.7-1.35a1.6,1.6,0,0,1,1.63-1.55,1.37,1.37,0,0,1,1.67,1.39C836.74,148.61,836.09,149.12,835.11,149.16Z"/><path class="cls-19" d="M631.38,181.68a1.64,1.64,0,0,1-1.73,1.38,1.35,1.35,0,0,1-1.49-1.51,1.4,1.4,0,0,1,1.63-1.4A1.62,1.62,0,0,1,631.38,181.68Z"/><path class="cls-20" d="M787.07,170.77a1.47,1.47,0,0,1-1.54,1.4c-.93,0-1.63-.34-1.72-1.34-.11-1.19.43-1.88,1.7-1.78A1.62,1.62,0,0,1,787.07,170.77Z"/><path class="cls-21" d="M802.59,221.86a1.71,1.71,0,0,1-1.58-1.57c0-1,.75-1.35,1.63-1.33a1.17,1.17,0,0,1,1.26,1.17A1.5,1.5,0,0,1,802.59,221.86Z"/><path class="cls-22" d="M676.16,73.55c-.25.62-.29,1.35-1.14,1.36a1.54,1.54,0,0,1-1.7-1.32c0-.76.77-1.31,1.7-1.29S675.92,73,676.16,73.55Z"/><path class="cls-23" d="M729.41,102.31c-.59-.16-1.29-.16-1.37-1a1.34,1.34,0,0,1,1.39-1.54,1.83,1.83,0,0,1,1.29,1.09C731.08,101.88,730.24,102.16,729.41,102.31Z"/><path class="cls-24" d="M852.81,96.28a1.17,1.17,0,0,1,1.4,1c.15,1-.74.87-1.29.85s-1.15-.31-1.19-.56A1.14,1.14,0,0,1,852.81,96.28Z"/><path class="cls-2" d="M475.61,127.6c6.77-1.19,10.5-4.9,11.55-11.81.84,7.17,5,10.49,11.64,11.79-7.24.57-10.6,4.42-11.37,11.45C485.47,133.17,483.28,127.8,475.61,127.6Z"/><path class="cls-3" d="M375.09,90.67c1.22,4.59,3,8,8.6,8.28-4.64,1.77-8.33,3.58-8,9.26-2.34-3.73-2.77-8.88-9.09-8.59C371.37,98.27,374.44,95.81,375.09,90.67Z"/><path class="cls-4" d="M432.75,37.19c.77,3.15,2.9,4.11,6,5.46-3.46.58-5.31,1.79-5.61,4.92C432.1,44.8,431,43,428,43,429.38,40.74,433.38,41.25,432.75,37.19Z"/><path class="cls-5" d="M534.31,90.44c.25,2.85,2.08,4,5.47,5.1-3.34.72-5.24,1.73-4.9,5-2.22-1.77-2.35-5.11-5.71-4.74A9.62,9.62,0,0,0,534.31,90.44Z"/><path class="cls-6" d="M570.78,182.2c-.7-2.67-2.21-3.92-5.35-4.31,2.5-1.42,5.14-1.83,5.3-5.09.86,3,3,3.92,6.95,4.93C573.46,178.06,571.71,179.43,570.78,182.2Z"/><path class="cls-7" d="M540.54,14.13c1.12,2.59,2.71,4,6.57,4.52-3.87.91-5.81,2.25-6.39,5.24-1-2.53-1.81-4.68-4.91-4.91C538.21,17.92,540.16,16.9,540.54,14.13Z"/><path class="cls-8" d="M444.77,201.3c2.4-.88,3.13-2.8,4.57-5,.72,2.42,1.48,4.2,5.12,4.26-2.83,1.8-4.95,2.55-4.72,5.54C447.73,204.31,447.44,201.64,444.77,201.3Z"/><path class="cls-9" d="M582.75,37.32a2,2,0,0,1-2-2.2c0-1.72,1.11-2.23,2.57-2.12s1.85,1.13,1.76,2.41S584.1,37.38,582.75,37.32Z"/><path class="cls-10" d="M469.12,19.42c.21,1.64-.77,1.84-2.07,1.81s-2.23-.29-2-1.9a2.13,2.13,0,0,1,2.19-2.12C468.79,17.12,469,18.24,469.12,19.42Z"/><path class="cls-11" d="M361.76,43.82c-1.09,0-1.9-.51-2-1.7a1.54,1.54,0,0,1,1.7-1.87,2,2,0,0,1,2.13,1.62C363.76,43,362.87,43.59,361.76,43.82Z"/><path class="cls-12" d="M419.8,113.2a1.88,1.88,0,0,1,1.73,2,1.72,1.72,0,0,1-1.95,1.74,1.8,1.8,0,0,1-1.7-2A1.6,1.6,0,0,1,419.8,113.2Z"/><path class="cls-13" d="M398.64,160.54c-.79.68-1.59,1.92-2.4,1.93s-1.77-1.16-2.65-1.8c.9-.8,1.71-2,2.72-2.22C396.93,158.33,397.86,159.79,398.64,160.54Z"/><path class="cls-14" d="M390.49,17.2c1,.17,1.94.51,1.79,1.78a1.72,1.72,0,0,1-1.57,1.58,1.74,1.74,0,0,1-2-1.6C388.51,17.69,389.49,17.38,390.49,17.2Z"/><path class="cls-15" d="M540.9,58a1.72,1.72,0,0,1-.08-3.44A1.72,1.72,0,0,1,540.9,58Z"/><path class="cls-16" d="M487,60.15c.41-1.27,1-2,2.19-1.84A1.75,1.75,0,0,1,491,60.22a1.63,1.63,0,0,1-2,1.61A2.38,2.38,0,0,1,487,60.15Z"/><path class="cls-17" d="M377,214.58c.08,1.25-.67,1.75-1.75,1.73s-2-.31-2.08-1.51.69-1.71,1.78-1.77A1.8,1.8,0,0,1,377,214.58Z"/><path class="cls-18" d="M565.11,137.16c-.92,0-1.72-.36-1.7-1.35a1.6,1.6,0,0,1,1.63-1.55,1.37,1.37,0,0,1,1.67,1.39C566.74,136.61,566.09,137.12,565.11,137.16Z"/><path class="cls-19" d="M361.38,169.68a1.64,1.64,0,0,1-1.73,1.38,1.35,1.35,0,0,1-1.49-1.51,1.4,1.4,0,0,1,1.63-1.4A1.62,1.62,0,0,1,361.38,169.68Z"/><path class="cls-20" d="M517.07,158.77a1.47,1.47,0,0,1-1.54,1.4c-.93,0-1.63-.34-1.72-1.34-.11-1.19.43-1.88,1.7-1.78A1.62,1.62,0,0,1,517.07,158.77Z"/><path class="cls-21" d="M532.59,209.86a1.71,1.71,0,0,1-1.58-1.57c0-1,.75-1.35,1.63-1.33a1.17,1.17,0,0,1,1.26,1.17A1.5,1.5,0,0,1,532.59,209.86Z"/><path class="cls-22" d="M406.16,61.55c-.25.62-.29,1.35-1.14,1.36a1.54,1.54,0,0,1-1.7-1.32c0-.76.77-1.31,1.7-1.29S405.92,61,406.16,61.55Z"/><path class="cls-23" d="M459.41,90.31c-.59-.16-1.29-.16-1.37-1a1.34,1.34,0,0,1,1.39-1.54,1.83,1.83,0,0,1,1.29,1.09C461.08,89.88,460.24,90.16,459.41,90.31Z"/><path class="cls-24" d="M582.81,84.28a1.17,1.17,0,0,1,1.4,1c.15,1-.74.87-1.29.85s-1.15-.31-1.19-.56A1.14,1.14,0,0,1,582.81,84.28Z"/><path class="cls-2" d="M174.61,380.6c6.77-1.19,10.5-4.9,11.55-11.81.84,7.17,5,10.49,11.64,11.79-7.24.57-10.6,4.42-11.37,11.45C184.47,386.17,182.28,380.8,174.61,380.6Z"/><path class="cls-3" d="M74.09,343.67c1.22,4.59,3,8,8.6,8.28-4.64,1.77-8.33,3.58-8,9.26-2.34-3.73-2.77-8.88-9.09-8.59C70.37,351.27,73.44,348.81,74.09,343.67Z"/><path class="cls-4" d="M131.75,290.19c.77,3.15,2.9,4.11,6,5.46-3.46.58-5.31,1.79-5.61,4.92C131.1,297.8,130,296,127,296,128.38,293.74,132.38,294.25,131.75,290.19Z"/><path class="cls-5" d="M233.31,343.44c.25,2.85,2.08,4,5.47,5.1-3.34.72-5.24,1.73-4.9,5-2.22-1.77-2.35-5.11-5.71-4.74A9.62,9.62,0,0,0,233.31,343.44Z"/><path class="cls-6" d="M269.78,435.2c-.7-2.67-2.21-3.92-5.35-4.31,2.5-1.42,5.14-1.83,5.3-5.09.86,3,3,3.92,6.95,4.93C272.46,431.06,270.71,432.43,269.78,435.2Z"/><path class="cls-7" d="M239.54,267.13c1.12,2.59,2.71,4,6.57,4.52-3.87.91-5.81,2.25-6.39,5.24-1-2.53-1.81-4.68-4.91-4.91C237.21,270.92,239.16,269.9,239.54,267.13Z"/><path class="cls-8" d="M143.77,454.3c2.4-.88,3.13-2.8,4.57-5,.72,2.42,1.48,4.2,5.12,4.26-2.83,1.8-5,2.55-4.72,5.54C146.73,457.31,146.44,454.64,143.77,454.3Z"/><path class="cls-9" d="M281.75,290.32a2,2,0,0,1-2-2.2c0-1.72,1.11-2.23,2.57-2.12s1.85,1.13,1.76,2.41S283.1,290.38,281.75,290.32Z"/><path class="cls-10" d="M168.12,272.42c.21,1.64-.77,1.84-2.07,1.81s-2.23-.29-2-1.9a2.13,2.13,0,0,1,2.19-2.12C167.79,270.12,168,271.24,168.12,272.42Z"/><path class="cls-11" d="M60.76,296.82c-1.09,0-1.9-.51-2-1.7a1.54,1.54,0,0,1,1.7-1.87,2,2,0,0,1,2.13,1.62C62.76,296,61.87,296.59,60.76,296.82Z"/><path class="cls-12" d="M118.8,366.2a1.88,1.88,0,0,1,1.73,2,1.72,1.72,0,0,1-2,1.74,1.8,1.8,0,0,1-1.7-2A1.6,1.6,0,0,1,118.8,366.2Z"/><path class="cls-13" d="M97.64,413.54c-.79.68-1.59,1.92-2.4,1.93s-1.77-1.16-2.65-1.8c.9-.8,1.71-2,2.72-2.22C95.93,411.33,96.86,412.79,97.64,413.54Z"/><path class="cls-14" d="M89.49,270.2c1,.17,1.94.51,1.79,1.78a1.72,1.72,0,0,1-1.57,1.58,1.74,1.74,0,0,1-2-1.6C87.51,270.69,88.49,270.38,89.49,270.2Z"/><path class="cls-15" d="M239.9,311a1.72,1.72,0,0,1-.08-3.44,1.72,1.72,0,0,1,.08,3.44Z"/><path class="cls-16" d="M186,313.15c.41-1.27,1.05-2,2.19-1.84a1.75,1.75,0,0,1,1.78,1.91,1.63,1.63,0,0,1-2,1.61A2.38,2.38,0,0,1,186,313.15Z"/><path class="cls-17" d="M76,467.58c.08,1.25-.67,1.75-1.75,1.73s-2-.31-2.08-1.51S72.9,466.09,74,466A1.8,1.8,0,0,1,76,467.58Z"/><path class="cls-18" d="M264.11,390.16c-.92,0-1.72-.36-1.7-1.35a1.6,1.6,0,0,1,1.63-1.55,1.37,1.37,0,0,1,1.67,1.39C265.74,389.61,265.09,390.12,264.11,390.16Z"/><path class="cls-19" d="M60.38,422.68a1.64,1.64,0,0,1-1.73,1.38,1.35,1.35,0,0,1-1.49-1.51,1.4,1.4,0,0,1,1.63-1.4A1.62,1.62,0,0,1,60.38,422.68Z"/><path class="cls-20" d="M216.07,411.77a1.47,1.47,0,0,1-1.54,1.4c-.93,0-1.63-.34-1.72-1.34-.11-1.19.43-1.88,1.7-1.78A1.62,1.62,0,0,1,216.07,411.77Z"/><path class="cls-21" d="M231.59,462.86a1.71,1.71,0,0,1-1.58-1.57c0-1,.75-1.35,1.63-1.33a1.17,1.17,0,0,1,1.26,1.17A1.5,1.5,0,0,1,231.59,462.86Z"/><path class="cls-22" d="M105.16,314.55c-.25.62-.29,1.35-1.14,1.36a1.54,1.54,0,0,1-1.7-1.32c0-.76.77-1.31,1.7-1.29S104.92,314,105.16,314.55Z"/><path class="cls-23" d="M158.41,343.31c-.59-.16-1.29-.16-1.37-1a1.34,1.34,0,0,1,1.39-1.54,1.83,1.83,0,0,1,1.29,1.09C160.08,342.88,159.24,343.16,158.41,343.31Z"/><path class="cls-24" d="M281.81,337.28a1.17,1.17,0,0,1,1.4,1c.15,1-.74.87-1.29.85s-1.15-.31-1.19-.56A1.14,1.14,0,0,1,281.81,337.28Z"/><path class="cls-2" d="M712.61,373.6c6.77-1.19,10.5-4.9,11.55-11.81.84,7.17,5,10.49,11.64,11.79-7.24.57-10.6,4.42-11.37,11.45C722.47,379.17,720.28,373.8,712.61,373.6Z"/><path class="cls-3" d="M612.09,336.67c1.22,4.59,3,8,8.6,8.28-4.64,1.77-8.33,3.58-8,9.26-2.34-3.73-2.77-8.88-9.09-8.59C608.37,344.27,611.44,341.81,612.09,336.67Z"/><path class="cls-4" d="M669.75,283.19c.77,3.15,2.9,4.11,6,5.46-3.46.58-5.31,1.79-5.61,4.92C669.1,290.8,668,289,665,289,666.38,286.74,670.38,287.25,669.75,283.19Z"/><path class="cls-5" d="M771.31,336.44c.25,2.85,2.08,4,5.47,5.1-3.34.72-5.24,1.73-4.9,5-2.22-1.77-2.35-5.11-5.71-4.74A9.62,9.62,0,0,0,771.31,336.44Z"/><path class="cls-6" d="M807.78,428.2c-.7-2.67-2.21-3.92-5.35-4.31,2.5-1.42,5.14-1.83,5.3-5.09.86,3,3,3.92,6.95,4.93C810.46,424.06,808.71,425.43,807.78,428.2Z"/><path class="cls-7" d="M777.54,260.13c1.12,2.59,2.71,4,6.57,4.52-3.87.91-5.81,2.25-6.39,5.24-1-2.53-1.81-4.68-4.91-4.91C775.21,263.92,777.16,262.9,777.54,260.13Z"/><path class="cls-8" d="M681.77,447.3c2.4-.88,3.13-2.8,4.57-5,.72,2.42,1.48,4.2,5.12,4.26-2.83,1.8-5,2.55-4.72,5.54C684.73,450.31,684.44,447.64,681.77,447.3Z"/><path class="cls-9" d="M819.75,283.32a2,2,0,0,1-2-2.2c0-1.72,1.11-2.23,2.57-2.12s1.85,1.13,1.76,2.41S821.1,283.38,819.75,283.32Z"/><path class="cls-10" d="M706.12,265.42c.21,1.64-.77,1.84-2.07,1.81s-2.23-.29-2-1.9a2.13,2.13,0,0,1,2.19-2.12C705.79,263.12,706,264.24,706.12,265.42Z"/><path class="cls-11" d="M598.76,289.82c-1.09,0-1.9-.51-2-1.7a1.54,1.54,0,0,1,1.7-1.87,2,2,0,0,1,2.13,1.62C600.76,289,599.87,289.59,598.76,289.82Z"/><path class="cls-12" d="M656.8,359.2a1.88,1.88,0,0,1,1.73,2,1.72,1.72,0,0,1-1.95,1.74,1.8,1.8,0,0,1-1.7-2A1.6,1.6,0,0,1,656.8,359.2Z"/><path class="cls-13" d="M635.64,406.54c-.79.68-1.59,1.92-2.4,1.93s-1.77-1.16-2.65-1.8c.9-.8,1.71-2,2.72-2.22C633.93,404.33,634.86,405.79,635.64,406.54Z"/><path class="cls-14" d="M627.49,263.2c1,.17,1.94.51,1.79,1.78a1.72,1.72,0,0,1-1.57,1.58,1.74,1.74,0,0,1-2-1.6C625.51,263.69,626.49,263.38,627.49,263.2Z"/><path class="cls-15" d="M777.9,304a1.72,1.72,0,0,1-.08-3.44,1.72,1.72,0,0,1,.08,3.44Z"/><path class="cls-16" d="M724,306.15c.41-1.27,1.05-2,2.19-1.84a1.75,1.75,0,0,1,1.78,1.91,1.63,1.63,0,0,1-2,1.61A2.38,2.38,0,0,1,724,306.15Z"/><path class="cls-17" d="M614,460.58c.08,1.25-.67,1.75-1.75,1.73s-2-.31-2.08-1.51.69-1.71,1.78-1.77A1.8,1.8,0,0,1,614,460.58Z"/><path class="cls-18" d="M802.11,383.16c-.92,0-1.72-.36-1.7-1.35a1.6,1.6,0,0,1,1.63-1.55,1.37,1.37,0,0,1,1.67,1.39C803.74,382.61,803.09,383.12,802.11,383.16Z"/><path class="cls-19" d="M598.38,415.68a1.64,1.64,0,0,1-1.73,1.38,1.35,1.35,0,0,1-1.49-1.51,1.4,1.4,0,0,1,1.63-1.4A1.62,1.62,0,0,1,598.38,415.68Z"/><path class="cls-20" d="M754.07,404.77a1.47,1.47,0,0,1-1.54,1.4c-.93,0-1.63-.34-1.72-1.34-.11-1.19.43-1.88,1.7-1.78A1.62,1.62,0,0,1,754.07,404.77Z"/><path class="cls-21" d="M769.59,455.86a1.71,1.71,0,0,1-1.58-1.57c0-1,.75-1.35,1.63-1.33a1.17,1.17,0,0,1,1.26,1.17A1.5,1.5,0,0,1,769.59,455.86Z"/><path class="cls-22" d="M643.16,307.55c-.25.62-.29,1.35-1.14,1.36a1.54,1.54,0,0,1-1.7-1.32c0-.76.77-1.31,1.7-1.29S642.92,307,643.16,307.55Z"/><path class="cls-23" d="M696.41,336.31c-.59-.16-1.29-.16-1.37-1a1.34,1.34,0,0,1,1.39-1.54,1.83,1.83,0,0,1,1.29,1.09C698.08,335.88,697.24,336.16,696.41,336.31Z"/><path class="cls-24" d="M819.81,330.28a1.17,1.17,0,0,1,1.4,1c.15,1-.74.87-1.29.85s-1.15-.31-1.19-.56A1.14,1.14,0,0,1,819.81,330.28Z"/></g></g></svg>