<?xml version="1.0" encoding="utf-8"?>
<!-- Generator: Adobe Illustrator 24.1.2, SVG Export Plug-In . SVG Version: 6.00 Build 0)  -->
<svg version="1.1" id="Layer_1" xmlns="http://www.w3.org/2000/svg" xmlns:xlink="http://www.w3.org/1999/xlink" x="0px" y="0px"
	 viewBox="0 0 1920 1080" style="enable-background:new 0 0 1920 1080;" xml:space="preserve">
<style type="text/css">
	.st0{fill:url(#SVGID_1_);}
	.st1{fill:url(#SVGID_2_);}
</style>
<linearGradient id="SVGID_1_" gradientUnits="userSpaceOnUse" x1="1145.1483" y1="521.987" x2="1892.8" y2="521.987" gradientTransform="matrix(1 0 0 -1 0 1080)">
	<stop  offset="0" style="stop-color:#81FDFF"/>
	<stop  offset="0.5077" style="stop-color:#23AAE1"/>
	<stop  offset="1" style="stop-color:#087DC4"/>
</linearGradient>
<path class="st0" d="M1850.5,94.4c-1.1,11.8-2,20.7-2.7,29.6c-0.8,9.3,2.8,13.8,10.8,12.9c8-0.9,16-2.2,23.9-3.1
	c3.1-0.3,6.2,0,9.3,0c0.3,1,0.6,2,0.9,2.9c-2.1,2.9-4.1,5.8-6.4,8.5c-42.9,50.6-85.9,101-128.5,151.8c-6.1,7.3-9.8,7.3-15.5-0.1
	c-7.8-10.3-16.3-20-24.9-29.4c-4.9-5.4-5.2-9.4-0.3-15.3c27.7-33.7,55.1-68,82.8-101.8c13.3-16.2,27-32,40.7-47.8
	C1843,100,1845.9,98.2,1850.5,94.4z M1617.7,447.5c-6.7-8.1-13.9-15.7-20.2-24.2c-5.6-7.6-9.2-6.6-14.6,0.7
	c-19.9,26.9-40.3,53.3-60.6,79.9c-19.2,25.2-38.6,50.3-57.6,75.7c-5.2,6.9-13.8,15.5-13,22c1,8,10.3,14.5,15.7,21.9
	c4.5,6.1,8.1,5.9,13,0.1c45.7-54,91.5-107.9,137.2-161.9c1.7-2,3-4.5,4.8-7.1C1620.7,451.9,1619.4,449.5,1617.7,447.5z M1633,443.6
	c7.5-8.7,14.9-17.5,22.4-26.3c28.5-33.6,57-67.1,85.4-100.6c3.3-3.9,7.2-7.3,1.9-13.4c-10-11.3-19.8-23.1-29.6-34.8
	c-3.8-4.5-6.5-3.4-10,1c-21.8,27.9-43.8,55.5-65.7,83.3c-12.4,15.8-24.6,31.8-36.6,47.9c-3,4.1-8,8.6-2.7,14.9
	c8.5,10.1,17.1,20.2,25.6,30.2c0.9,1,2,1.6,3.5,2.8C1629.3,447.1,1631.3,445.6,1633,443.6z M1457.4,619.9
	c-13.2-15.6-12.8-15.2-24.9,1.1c-24.7,33.2-49.6,66-74.8,98.6c-13.4,17.3-13.6,18.1,1,34.1c4.6,5,7.6,4.3,11.6-0.5
	c31.4-37.2,63.1-74.3,94.5-111.5c1.5-1.8,2.7-3.9,4.8-6.9C1465.5,629.6,1461.5,624.7,1457.4,619.9z M1336.1,748.1
	c-3.3,4.3-6.5,8.8-9.8,13.1c-18.9,25-37.5,50.4-56.8,74.9c-6.8,8.6-2.6,12.8,2.3,18.6c5.7,6.9,9.5,3.4,13.9-1.8
	c22.7-26.9,45.6-53.6,68.2-80.6c2.5-3,5.6-9.2,4.6-11.3c-3.7-7.7-9.1-14.3-14.2-21.7C1339.6,744.3,1337.7,746,1336.1,748.1z
	 M1191.1,962.4c21.5-26.1,43.6-51.6,65.6-77.3c3.9-4.6,8.3-8.7,12.4-13.1c7-7.3,1.5-11.8-2.5-16.9c-4.2-5.5-7.3-6.3-11.7,0.3
	c-6.7,10-14.4,19-21.6,28.4c-23.1,30.3-46.6,60.2-69.2,91c-9.4,12.9-15.5,28.6-19,46.8C1161.2,1000.9,1175.7,981.1,1191.1,962.4z"/>
<linearGradient id="SVGID_2_" gradientUnits="userSpaceOnUse" x1="25.6" y1="552.0339" x2="882.0906" y2="552.0339" gradientTransform="matrix(1 0 0 -1 0 1080)">
	<stop  offset="0" style="stop-color:#81FDFF"/>
	<stop  offset="0.5026" style="stop-color:#26B0E4"/>
	<stop  offset="1" style="stop-color:#0273BE"/>
</linearGradient>
<path class="st1" d="M882.1,986.2c-28.8,2.2-55.9,2.5-79.1-15.3c-52.2-39.9-103.7-81-155.1-122.4c-24.1-19.4-38.4-48.1-49.2-79.3
	c-12-35.1-31.4-63.4-56.6-86.4c-5.2-4.7-10.2-6.6-17.1-5.2c-17.4,3.4-29.9-9.2-42-21c-11.1-11-21.4-23.3-31.8-35.2
	c-24.5-27.9-48.8-56.1-73.4-83.7c-5.6-6.3-5.5-10.6,0-16.9c16.5-18.8,32.7-37.9,48.6-57.3c5.2-6.3,8.6-5.6,13.7,0.1
	c28.2,31.6,57.4,62.2,85.1,94.5c18,21,34.2,44.1,50.9,66.5c5.4,7.2,7,15.8,4.8,25.6c-0.7,3.2,0.6,8.7,2.7,10.9
	c32.1,34.8,64.5,69.2,96.7,103.8c22.2,23.8,44.4,47.6,66.6,71.4c32.5,34.8,65.2,69.4,97.4,104.5
	C857.1,954.6,868.6,969.9,882.1,986.2z M713.2,840.5c-8.3,0.6-11.3,5.3-8.2,12.5c3.4,7.8,8,15.5,13.4,21.4
	c21.8,23.6,44,46.7,66.3,69.7c4.3,4.5,9.3,9.1,14.7,10.7c4,1.2,9.6-1.2,13.3-4.1c1.2-0.9-1.1-8.8-2.4-13.1c-0.8-2.6-2.8-4.8-4.6-6.7
	c-25.8-27.1-51.5-54.3-77.6-81C724.1,845.6,718.2,843.6,713.2,840.5z M533.3,669.9c13.4-0.2,26.2-2.7,37.1-13.1
	C556.4,654.4,545.2,663.5,533.3,669.9z M46.2,164c13.3,15.2,26.8,30.3,40.3,45.3c22.2,24.8,44.6,49.5,66.6,74.6
	c4.9,5.6,7.8,4.7,12.1-0.5c12.1-14.7,24.5-29,36.7-43.4c8.9-10.4,8.7-10.4-0.8-19.7c-33.3-32.7-66.3-65.7-99.5-98.3
	c-16.4-16.1-32.9-32.1-49.7-47.6c-10.5-9.7-18.5-6.7-22.7,8.1c-2.1,7.5-2.8,15.6-3.6,20.1C26.1,128.5,32.4,148.2,46.2,164z
	 M207,240.3c-13,15.2-25.6,30.7-38.9,45.5c-5.5,6.1-5,10.1,0.2,15.8c28.1,31.3,56.1,62.8,83.9,94.5c5.2,5.9,8.5,4.8,13-0.7
	c14.3-17.2,28.7-34.3,43.3-51.1c5-5.7,6.1-10.1,0.2-15.9c-30.2-30.2-60.2-60.6-90.3-90.9c-1.3-1.3-3-2.2-5.1-3.7
	C211.1,236.2,208.9,238.1,207,240.3z M321.5,342.1c-1.2-1.1-5.9,0.5-7.6,2.4c-15.9,18.3-31.5,37-47.4,55.4c-4,4.6-3.9,8.3,0,12.8
	c16.8,18.8,33.5,37.7,50.1,56.8c4.2,4.8,7.3,3.6,10.9-0.8c7.3-8.9,14.8-17.6,22.3-26.3c10.7-12.4,21.5-24.8,33.4-38.5
	C361.9,382.4,341.8,362,321.5,342.1z M373,520.1c17.3-20.2,34.5-40.7,51.8-60.8c3.8-4.4,3.5-7.8-0.3-11.8
	c-11.1-11.5-22-23.4-33.4-34.5c-1.8-1.8-7.4-1.6-9.1,0.3c-17.1,19.4-33.8,39.4-50.7,59.1c-4.1,4.7-3.5,8.4,0.3,12.8
	c10,11.4,19.7,23.1,29.7,34.5c1.7,1.9,3.9,3.3,6,5C369.5,523,371.5,521.8,373,520.1z M570.4,656.9c-14-2.4-25.1,6.7-37.1,13.1
	C546.7,669.7,559.6,667.3,570.4,656.9z"/>
</svg>
