<?xml version="1.0" encoding="utf-8"?>
<!-- Generator: Adobe Illustrator 24.1.2, SVG Export Plug-In . SVG Version: 6.00 Build 0)  -->
<svg version="1.1" id="Layer_2_1_" xmlns="http://www.w3.org/2000/svg" xmlns:xlink="http://www.w3.org/1999/xlink" x="0px" y="0px"
	 viewBox="0 0 1920 1080" style="enable-background:new 0 0 1920 1080;" xml:space="preserve">
<style type="text/css">
	.st0{fill:url(#SVGID_1_);}
	.st1{fill:url(#SVGID_2_);}
	.st2{fill:url(#SVGID_3_);}
</style>
<g>
	
		<linearGradient id="SVGID_1_" gradientUnits="userSpaceOnUse" x1="1172.5457" y1="941.4565" x2="683.601" y2="452.5121" gradientTransform="matrix(1 0 0 -1 0 1080)">
		<stop  offset="0" style="stop-color:#FF7BAC"/>
		<stop  offset="0.25" style="stop-color:#FE7BE5"/>
		<stop  offset="0.7142" style="stop-color:#974EC3"/>
		<stop  offset="1" style="stop-color:#662D91"/>
	</linearGradient>
	<path class="st0" d="M1273.6,384c-1,196.6-163.2,351.7-358.3,344.5c-184.6-6.8-333.5-158.3-332.4-346.6
		c1.2-197.3,161.3-348.3,352.7-344.2C1123.8,41.7,1273.1,193.8,1273.6,384z M926.7,651.3c147.9,0.3,269-120.1,269.6-267.9
		c0.5-149.3-119.4-270.7-268.5-270.8c-155.3-0.1-271.5,127.5-270.2,273.2C658.9,530.3,779.6,651.1,926.7,651.3z"/>
	
		<linearGradient id="SVGID_2_" gradientUnits="userSpaceOnUse" x1="1039.1669" y1="298.7038" x2="817.7078" y2="77.2445" gradientTransform="matrix(1 0 0 -1 0 1080)">
		<stop  offset="0" style="stop-color:#FF7BAC"/>
		<stop  offset="0.25" style="stop-color:#FE7BE5"/>
		<stop  offset="0.7142" style="stop-color:#974EC3"/>
		<stop  offset="1" style="stop-color:#662D91"/>
	</linearGradient>
	<path class="st1" d="M1083.7,942.8c-33.5,0-66,0-99.4,0c0,38.5,0,76.3,0,114.8c-37.5,0-74.2,0-111.8,0c0-38.7,0-77.2,0-116.7
		c-33.6,0-66.4,0-100,0c0-38.5,0-75.9,0-114.4c32.7,0,65.5,0,99.5,0c0-34,0-66.8,0-98c37,0,72.8,0,110.6,0c0,31.1,0,63.6,0,97.4
		c34.8,0,67.7,0,101.1,0C1083.7,865.2,1083.7,903.3,1083.7,942.8z"/>
	
		<linearGradient id="SVGID_3_" gradientUnits="userSpaceOnUse" x1="1114.6654" y1="510.2506" x2="738.9037" y2="886.0123" gradientTransform="matrix(1 0 0 -1 0 1080)">
		<stop  offset="0" style="stop-color:#FF7BAC"/>
		<stop  offset="0.25" style="stop-color:#FE7BE5"/>
		<stop  offset="0.7142" style="stop-color:#974EC3"/>
		<stop  offset="1" style="stop-color:#662D91"/>
	</linearGradient>
	<path class="st2" d="M661.7,381.8c0,147.2,118.3,266,265.2,266c145.7,0.1,264.4-118.5,265.7-262.9
		c1.3-147.3-116.7-268.6-265.5-268.9C780.1,115.8,661.7,234.6,661.7,381.8z"/>
</g>
</svg>
