<svg id="Layer_1" data-name="Layer 1" xmlns="http://www.w3.org/2000/svg" viewBox="0 0 1920 1080"><defs><style>.cls-1{fill:#fff;}.cls-2,.cls-3{fill:#109bdc;stroke:#000;stroke-miterlimit:10;}.cls-2{stroke-width:8px;}.cls-3{stroke-width:6px;}</style></defs><path class="cls-1" d="M461,1085.12H387.56V-5.18H1546v1090.3h-67.81c23.11-140.3-64-315.12-184.49-367.91-37.92,48.76-86.58,85.85-148.43,93.52-60.17,7.47-121.73,6-182.59,4.71-30.37-.66-54.31-18.58-69.77-46.27-3.72-6.67-10.41-12.47-17-16.58-37.26-23.08-74.64-46-112.66-67.81-8.55-4.9-20.7-9-29.65-6.93C559.21,718.55,432,909.23,461,1085.12ZM748.91,519c5,10.59,8.71,19,12.8,27.18,25.46,51.13,62,91.62,113.23,118.15,11.9,6.16,20.94,8.6,31.68-3.95,20.22-23.63,47.74-31.9,78.48-31.44,32,.48,64.08-.89,96.05.37,31.5,1.25,54.93-11,70.73-37.54,13.75-23.13,26.43-46.88,42.57-75.7,6.26,14.11,14.06,24.19,14.93,34.84,6.23,76.87-45.48,133-122.44,134-35.78.45-71.58-.41-107.36.31-27.63.56-43.17,14.74-43.61,37.67-.47,23.65,16.88,40,44.12,40.38,34.84.46,69.69.14,104.54.11,117.66-.11,202.16-83.65,204.69-202,.2-9.16-.66-21.45,4.57-26.84,22.34-23,21.68-50.69,21.26-79.17-.49-33.89-.41-67.79,0-101.68.36-32.12,2.82-64.36-24.67-89.07-4-3.6-4-12.14-5-18.53-16-104.54-70.19-183-161.77-235.28a79.36,79.36,0,0,0-37-9.82C1008.55,0,930.37.2,852.21.79,841.4.87,829.33,2.81,820,7.9,739.29,52.13,686,119.06,660.82,207.46c-8.08,28.41-7.61,59.37-30,82.78-4.05,4.23-5.84,12.18-5.89,18.44-.48,61.19-1.49,122.41.14,183.56.67,25.15,16.06,44.81,40,53.49,24.18,8.78,48.22,6.27,68.45-12.19C738.09,529.35,742.55,525,748.91,519Z"/><path class="cls-2" d="M461,1085.12c-29-175.89,98.19-366.57,272.55-407.27,8.95-2.09,21.1,2,29.65,6.93,38,21.81,75.4,44.73,112.66,67.81,6.62,4.11,13.31,9.91,17,16.58,15.46,27.69,39.4,45.61,69.77,46.27,60.86,1.31,122.42,2.76,182.59-4.71,61.85-7.67,110.51-44.76,148.43-93.52,120.48,52.79,207.6,227.61,184.49,367.91Z"/><path class="cls-3" d="M748.91,519c-6.36,6-10.82,10.37-15.41,14.56-20.23,18.46-44.27,21-68.45,12.19-23.92-8.68-39.31-28.34-40-53.49-1.63-61.15-.62-122.37-.14-183.56.05-6.26,1.84-14.21,5.89-18.44,22.39-23.41,21.92-54.37,30-82.78C686,119.06,739.29,52.13,820,7.9c9.29-5.09,21.36-7,32.17-7.11C930.37.2,1008.55,0,1086.71.92a79.36,79.36,0,0,1,37,9.82C1215.28,63,1269.51,141.48,1285.47,246c1,6.39,1,14.93,5,18.53,27.49,24.71,25,56.95,24.67,89.07-.38,33.89-.46,67.79,0,101.68.42,28.48,1.08,56.2-21.26,79.17-5.23,5.39-4.37,17.68-4.57,26.84-2.53,118.35-87,201.89-204.69,202-34.85,0-69.7.35-104.54-.11-27.24-.36-44.59-16.73-44.12-40.38.44-22.93,16-37.11,43.61-37.67,35.78-.72,71.58.14,107.36-.31,77-1,128.67-57.08,122.44-134-.87-10.65-8.67-20.73-14.93-34.84-16.14,28.82-28.82,52.57-42.57,75.7-15.8,26.57-39.23,38.79-70.73,37.54-32-1.26-64,.11-96.05-.37-30.74-.46-58.26,7.81-78.48,31.44-10.74,12.55-19.78,10.11-31.68,3.95-51.26-26.53-87.77-67-113.23-118.15C757.62,538,753.88,529.57,748.91,519Zm-7.14-235.14,8.65,0C795.17,191.48,859.56,124.43,969,124.15c110.31-.28,175.17,67.72,224.7,160.17,7-14.28,13.65-28.3,11.46-40.76-19.47-111.24-118.83-192.9-233.81-193.89-116.09-1-217.09,80.46-237.15,193.09C731.87,255.59,739,270.1,741.77,283.84Z"/><path class="cls-1" d="M741.77,283.84c-2.77-13.74-9.9-28.25-7.61-41.08C754.22,130.13,855.22,48.68,971.31,49.67c115,1,214.34,82.65,233.81,193.89,2.19,12.46-4.5,26.48-11.46,40.76-49.53-92.45-114.39-160.45-224.7-160.17-109.4.28-173.79,67.33-218.54,159.64Z"/></svg>