<svg id="Layer_1" data-name="Layer 1" xmlns="http://www.w3.org/2000/svg" xmlns:xlink="http://www.w3.org/1999/xlink" viewBox="0 0 319.92 335.04"><defs><style>.cls-1{fill:#fff;}.cls-2{fill:url(#linear-gradient);}.cls-3{fill:url(#linear-gradient-2);}.cls-4{fill:url(#linear-gradient-3);}.cls-5{fill:url(#linear-gradient-4);}.cls-6{fill:url(#linear-gradient-5);}.cls-7{fill:url(#linear-gradient-6);}.cls-8{fill:url(#linear-gradient-7);}</style><linearGradient id="linear-gradient" x1="104.89" y1="456.27" x2="212.24" y2="563.63" gradientUnits="userSpaceOnUse"><stop offset="0" stop-color="#4296d2"/><stop offset="0.5" stop-color="#45a6dd"/><stop offset="1" stop-color="#2569b1"/></linearGradient><linearGradient id="linear-gradient-2" x1="254.87" y1="542.81" x2="394.72" y2="300.59" gradientUnits="userSpaceOnUse"><stop offset="0.13" stop-color="#287dc1"/><stop offset="0.17" stop-color="#3088c9"/><stop offset="0.27" stop-color="#3f9ed8"/><stop offset="0.33" stop-color="#45a6dd"/><stop offset="0.38" stop-color="#49a9df"/><stop offset="0.52" stop-color="#4cace1"/><stop offset="0.61" stop-color="#48a7de"/><stop offset="0.73" stop-color="#3d99d4"/><stop offset="0.85" stop-color="#2b81c4"/><stop offset="0.87" stop-color="#287dc1"/></linearGradient><linearGradient id="linear-gradient-3" x1="389.1" y1="509.16" x2="471.57" y2="605.59" gradientUnits="userSpaceOnUse"><stop offset="0" stop-color="#45a6dd"/><stop offset="0.32" stop-color="#287dc1"/><stop offset="0.61" stop-color="#33669a"/></linearGradient><linearGradient id="linear-gradient-4" x1="308.41" y1="552.51" x2="291.4" y2="456.37" gradientUnits="userSpaceOnUse"><stop offset="0" stop-color="#45a6dd"/><stop offset="0.64" stop-color="#287dc1"/><stop offset="0.9" stop-color="#287dc1"/></linearGradient><linearGradient id="linear-gradient-5" x1="239.99" y1="447.11" x2="127.5" y2="334.62" gradientUnits="userSpaceOnUse"><stop offset="0" stop-color="#45a6dd"/><stop offset="0.53" stop-color="#4ac7f2"/><stop offset="0.58" stop-color="#54c8ec"/><stop offset="0.69" stop-color="#65cadf"/><stop offset="0.82" stop-color="#70ccd8"/><stop offset="0.96" stop-color="#73ccd6"/></linearGradient><linearGradient id="linear-gradient-6" x1="375.41" y1="446.84" x2="422.24" y2="402.56" gradientUnits="userSpaceOnUse"><stop offset="0" stop-color="#287dc1"/><stop offset="0.01" stop-color="#297ec2"/><stop offset="0.36" stop-color="#3894d1"/><stop offset="0.7" stop-color="#42a1da"/><stop offset="1" stop-color="#45a6dd"/></linearGradient><linearGradient id="linear-gradient-7" x1="157.26" y1="431.35" x2="89.3" y2="363.39" gradientUnits="userSpaceOnUse"><stop offset="0" stop-color="#287dc1"/><stop offset="0.16" stop-color="#33669a"/></linearGradient></defs><path class="cls-1" d="M440.1,613v32.64H163.38a7.59,7.59,0,0,1,.78-.22c2.67-.5,5.39-.79,8-1.53,9.09-2.63,16.34-7.73,20.85-16.26a35,35,0,0,0,3.74-16.66V496.23c.45.54.7.83.94,1.13Q221.33,527.66,245,558c4.26,5.45,8.22,11.14,13.24,16,4.83,4.64,10.19,8.47,16.63,10.61,1.8.59,3.62,1.15,5.51.56a68.17,68.17,0,0,0,9.05-3c7.89-3.69,14-9.63,19.25-16.41l54.08-69.32c.18-.23.39-.45.79-.89v1.66q0,56.63,0,113.26a41.31,41.31,0,0,0,.2,4.31c1.28,12.12,7.34,21.09,18.42,26.1,14.1,6.38,28.11,5.43,41.52-2.19a31.35,31.35,0,0,0,15.32-20C439.49,616.72,439.74,614.82,440.1,613Z" transform="translate(-120.18 -310.55)"/><path class="cls-1" d="M120.18,604.07V310.55H440.1V607.19a5.47,5.47,0,0,1-.19-1q-.14-13.73-.25-27.47l-.24-26.14-.24-27.35-.24-26.5-.24-27.35L438.46,445l-.24-27.47q-.09-9.83-.16-19.67-.12-13.54-.24-27.1c-.06-8.32-.09-16.63-.18-25a56.25,56.25,0,0,0-.35-8c-.86-5.63-3.92-10.2-7.9-14.09-12.19-11.91-26.69-15.44-43.07-11.3-10.06,2.55-18.51,8.11-26.22,14.9-6,5.23-10.92,11.34-16,17.4Q316.57,377.91,289,411.1l-8.42,10.13c-1.6-1.77-3.18-3.41-4.64-5.14Q247.8,383,219.74,349.85C214,343.11,208.7,336,202.22,330c-6.73-6.31-14.07-11.77-22.78-15-18.24-6.73-34.75-4.05-48.86,9.79-4.9,4.81-8,10.59-8,17.76,0,9-.14,18-.22,27l-.24,26.74-.24,27.11L121.66,450l-.24,27.22-.24,26.51-.24,27.46q-.09,9.84-.16,19.67-.12,13.68-.24,27.35c-.06,8.24-.1,16.47-.17,24.71A6.73,6.73,0,0,1,120.18,604.07Z" transform="translate(-120.18 -310.55)"/><path class="cls-1" d="M120.18,604.07a6.73,6.73,0,0,0,.19-1.15c.07-8.24.11-16.47.17-24.71q.1-13.68.24-27.35.07-9.83.16-19.67l.24-27.46.24-26.51.24-27.22.24-26.62.24-27.11.24-26.74c.08-9,.24-18,.22-27,0-7.17,3.08-13,8-17.76,14.11-13.84,30.62-16.52,48.86-9.79,8.71,3.22,16.05,8.68,22.78,15,6.48,6.06,11.8,13.13,17.52,19.87q28.08,33.11,56.15,66.24c1.46,1.73,3,3.37,4.64,5.14L289,411.1q27.6-33.21,55.2-66.42c5-6.06,10-12.17,16-17.4,7.71-6.79,16.16-12.35,26.22-14.9,16.38-4.14,30.88-.61,43.07,11.3,4,3.89,7,8.46,7.9,14.09a56.25,56.25,0,0,1,.35,8c.09,8.32.12,16.63.18,25q.1,13.56.24,27.1.07,9.84.16,19.67l.24,27.47.24,26.38.24,27.35.24,26.5.24,27.35.24,26.14q.12,13.74.25,27.47a5.47,5.47,0,0,0,.19,1V613c-.36,1.87-.61,3.77-1.09,5.61a31.35,31.35,0,0,1-15.32,20c-13.41,7.62-27.42,8.57-41.52,2.19-11.08-5-17.14-14-18.42-26.1a41.31,41.31,0,0,1-.2-4.31q0-56.64,0-113.26v-1.66c-.4.44-.61.66-.79.89l-54.08,69.32c-5.29,6.78-11.36,12.72-19.25,16.41a68.17,68.17,0,0,1-9.05,3c-1.89.59-3.71,0-5.51-.56-6.44-2.14-11.8-6-16.63-10.61-5-4.82-9-10.51-13.24-16q-23.69-30.26-47.31-60.59c-.24-.3-.49-.59-.94-1.13V610.92A35,35,0,0,1,193,627.58c-4.51,8.53-11.76,13.63-20.85,16.26-2.6.74-5.32,1-8,1.53a7.59,7.59,0,0,0-.78.22h-7.44a4.56,4.56,0,0,0-.78-.22A43.71,43.71,0,0,1,140,641.26c-9.37-4.54-16-11.52-18.72-21.76-.48-1.75-.74-3.57-1.1-5.35Zm78.95-200.91c-.25.22-.43.37-.59.53q-36.24,36.22-72.44,72.48a2.43,2.43,0,0,0-.62,1.55c-.1,6.48-.16,12.95-.22,19.43q-.14,13.74-.24,27.47-.12,13.14-.24,26.27-.14,15.52-.24,31.07c-.08,9.43-.1,18.87-.26,28.3-.19,10.54,4.07,18.87,12.77,24.6,11.3,7.44,23.6,8.65,36.36,4.31a27.32,27.32,0,0,0,16.45-14.34,31.77,31.77,0,0,0,2.85-14.09q0-56.94,0-113.87c0-2.08,0-4.16,0-6.24a2,2,0,0,1,1.26-2.22,2.1,2.1,0,0,1,2.6.92c.56.78,1.18,1.52,1.77,2.27,2.15,2.77,4.31,5.53,6.54,8.37l40.94-42.68ZM359,427.85l17.95-17.38,21.78-21.13q17.1-16.56,34.18-33.14a2.72,2.72,0,0,0,.74-1.73c0-4.28-.09-8.56,0-12.83a16.14,16.14,0,0,0-2.38-8.91c-6.81-11-17-16.59-29.64-17.83-8.29-.81-16.1,1.21-23.51,4.89-9.61,4.78-17.55,11.69-24.38,19.84-18.31,21.85-36.47,43.83-54.73,65.72-6,7.17-12,14.3-18.19,21.3-3.73,4.22-7.78,8.16-11.68,12.22l-20.61,21.45-34.86,36.35-6.25,6.53c8.52,10.92,17,21.78,25.51,32.68l1.14-1.22L263.36,502l45.84-51c7.12-7.92,14.38-15.68,22.74-22.33,3.6-2.87,7.38-5.48,11.86-6.85,4.19-1.28,8.18-1,11.6,2A42.91,42.91,0,0,1,359,427.85Zm75.4-4.22c-.53.47-.77.65-1,.87q-32.58,32.58-65.15,65.18a2.4,2.4,0,0,0-.64,1.55c0,40.15-.1,80.31,0,120.46,0,11,4.94,19.76,14.92,24.73,14.05,7,28,5.93,41.08-2.68C432,628.25,436,620.1,436,610c0-3.48-.11-7-.15-10.44q-.13-13.55-.24-27.1l-.24-26.63-.24-27.23-.24-26.51q-.12-13.61-.24-27.22-.12-16-.24-31.91C434.36,430,434.38,427,434.38,423.63ZM235.45,539.11c.24.34.44.63.65.91l15.06,19.29c3.37,4.31,6.6,8.75,10.68,12.45,4.59,4.19,9.58,7.73,15.71,9.31a4.33,4.33,0,0,0,2,.06,44,44,0,0,0,13.75-6.06c5.2-3.41,9.22-8.09,13-13q27.81-35.72,55.68-71.4a3.6,3.6,0,0,0,.68-2.06c-.05-5.71-.12-11.43-.3-17.14a183,183,0,0,0-2.68-28.13c-.9-4.76-2.05-9.46-4.59-13.67s-6-5.5-10.72-3.81a34.12,34.12,0,0,0-9.64,5.74,162.76,162.76,0,0,0-20,19.3q-34.5,38.31-68.95,76.67Zm42.22-115c-.65-.7-1.24-1.3-1.78-1.93-12.19-14.19-24.44-28.32-36.55-42.59-11.22-13.23-22.21-26.65-33.45-39.87a75.27,75.27,0,0,0-22.58-18.52c-11-5.72-22.51-7.58-34.5-3.4-8.46,2.95-15.32,8-19.87,15.9a15.68,15.68,0,0,0-2.27,8c0,4.8-.09,9.59-.13,14.39q-.14,15.28-.24,30.58-.08,8.1-.16,16.19c0,1.37,0,2.74,0,4.23,1.66-1.92,3.06-3.78,4.71-5.38a58,58,0,0,1,36.8-16.85,38.34,38.34,0,0,1,21.78,4.43,41.7,41.7,0,0,1,11.67,10q21.45,25.05,43,50c1.48,1.72,3,3.43,4.48,5.17Zm88.95,61.05.46.21a13.76,13.76,0,0,1,.91-1.11l64.47-64.48a5.39,5.39,0,0,1,1-1,1.55,1.55,0,0,0,.73-1.61c-.06-1.92-.07-3.84-.09-5.76l-.24-31.66q0-6.9-.08-13.8c0-1.51,0-3,0-4.8-.45.33-.55.39-.63.47Q421.43,373,409.68,384.37l-19.89,19.29q-14.22,13.77-28.44,27.52a1.31,1.31,0,0,0-.38,1.53c1.06,4,2.29,7.91,3,12,2,11.16,2.37,22.47,2.64,33.78C366.66,480.67,366.62,482.89,366.62,485.12Zm-241-14.61,70.76-70.76c-1.51-1.36-3-2.9-4.72-4.22-6.82-5.31-14.69-7.2-23.18-6.75A53.46,53.46,0,0,0,141.64,398c-5.65,3.72-10.56,8.21-13.71,14.3a14.6,14.6,0,0,0-1.87,5.85c-.26,7.71-.18,15.43-.24,23.15,0,5.08-.13,10.15-.16,15.23C125.64,461.23,125.66,466,125.66,470.51Z" transform="translate(-120.18 -310.55)"/><path class="cls-1" d="M120.18,614.15c.36,1.78.62,3.6,1.1,5.35,2.75,10.24,9.35,17.22,18.72,21.76a43.71,43.71,0,0,0,15.16,4.11,4.56,4.56,0,0,1,.78.22H120.18Z" transform="translate(-120.18 -310.55)"/><path class="cls-2" d="M199.13,403.16l46.67,54.13L204.86,500c-2.23-2.84-4.39-5.6-6.54-8.37-.59-.75-1.21-1.49-1.77-2.27a2.1,2.1,0,0,0-2.6-.92,2,2,0,0,0-1.26,2.22c0,2.08,0,4.16,0,6.24q0,56.94,0,113.87a31.77,31.77,0,0,1-2.85,14.09,27.32,27.32,0,0,1-16.45,14.34c-12.76,4.34-25.06,3.13-36.36-4.31-8.7-5.73-13-14.06-12.77-24.6.16-9.43.18-18.87.26-28.3q.12-15.54.24-31.07.1-13.14.24-26.27.12-13.74.24-27.47c.06-6.48.12-12.95.22-19.43a2.43,2.43,0,0,1,.62-1.55q36.19-36.27,72.44-72.48C198.7,403.53,198.88,403.38,199.13,403.16Z" transform="translate(-120.18 -310.55)"/><path class="cls-3" d="M359,427.85a42.91,42.91,0,0,0-3.58-4c-3.42-3-7.41-3.29-11.6-2-4.48,1.37-8.26,4-11.86,6.85-8.36,6.65-15.62,14.41-22.74,22.33l-45.84,51L234,534.66l-1.14,1.22c-8.52-10.9-17-21.76-25.51-32.68l6.25-6.53,34.86-36.35,20.61-21.45c3.9-4.06,8-8,11.68-12.22,6.17-7,12.21-14.13,18.19-21.3,18.26-21.89,36.42-43.87,54.73-65.72,6.83-8.15,14.77-15.06,24.38-19.84,7.41-3.68,15.22-5.7,23.51-4.89,12.65,1.24,22.83,6.81,29.64,17.83a16.14,16.14,0,0,1,2.38,8.91c-.06,4.27.06,8.55,0,12.83a2.72,2.72,0,0,1-.74,1.73q-17.06,16.6-34.18,33.14l-21.78,21.13Z" transform="translate(-120.18 -310.55)"/><path class="cls-4" d="M434.38,423.63c0,3.37,0,6.36,0,9.35q.11,16,.24,31.91.11,13.61.24,27.22l.24,26.51.24,27.23.24,26.63q.12,13.54.24,27.1c0,3.48.13,7,.15,10.44.07,10.08-4,18.23-12.34,23.72-13.06,8.61-27,9.67-41.08,2.68-10-5-14.89-13.68-14.92-24.73-.13-40.15-.06-80.31,0-120.46a2.4,2.4,0,0,1,.64-1.55q32.55-32.61,65.15-65.18C433.61,424.28,433.85,424.1,434.38,423.63Z" transform="translate(-120.18 -310.55)"/><path class="cls-5" d="M235.45,539.11l10.35-11.52q34.47-38.34,68.95-76.67a162.76,162.76,0,0,1,20-19.3,34.12,34.12,0,0,1,9.64-5.74c4.71-1.69,8.14-.49,10.72,3.81s3.69,8.91,4.59,13.67a183,183,0,0,1,2.68,28.13c.18,5.71.25,11.43.3,17.14a3.6,3.6,0,0,1-.68,2.06q-27.83,35.71-55.68,71.4c-3.8,4.89-7.82,9.57-13,13a44,44,0,0,1-13.75,6.06,4.33,4.33,0,0,1-2-.06c-6.13-1.58-11.12-5.12-15.71-9.31-4.08-3.7-7.31-8.14-10.68-12.45L236.1,540C235.89,539.74,235.69,539.45,235.45,539.11Z" transform="translate(-120.18 -310.55)"/><path class="cls-6" d="M277.67,424.07l-29.05,30.28c-1.51-1.74-3-3.45-4.48-5.17q-21.54-25-43-50a41.7,41.7,0,0,0-11.67-10,38.34,38.34,0,0,0-21.78-4.43,58,58,0,0,0-36.8,16.85c-1.65,1.6-3,3.46-4.71,5.38,0-1.49,0-2.86,0-4.23q.08-8.09.16-16.19.12-15.28.24-30.58c0-4.8.14-9.59.13-14.39a15.68,15.68,0,0,1,2.27-8c4.55-7.86,11.41-13,19.87-15.9,12-4.18,23.47-2.32,34.5,3.4a75.27,75.27,0,0,1,22.58,18.52c11.24,13.22,22.23,26.64,33.45,39.87,12.11,14.27,24.36,28.4,36.55,42.59C276.43,422.77,277,423.37,277.67,424.07Z" transform="translate(-120.18 -310.55)"/><path class="cls-7" d="M366.62,485.12c0-2.23,0-4.45,0-6.68-.27-11.31-.65-22.62-2.64-33.78-.71-4-1.94-8-3-12a1.31,1.31,0,0,1,.38-1.53q14.23-13.74,28.44-27.52l19.89-19.29q11.74-11.4,23.51-22.78c.08-.08.18-.14.63-.47,0,1.77,0,3.29,0,4.8q0,6.9.08,13.8l.24,31.66c0,1.92,0,3.84.09,5.76a1.55,1.55,0,0,1-.73,1.61,5.39,5.39,0,0,0-1,1L368,484.22a13.76,13.76,0,0,0-.91,1.11Z" transform="translate(-120.18 -310.55)"/><path class="cls-8" d="M125.66,470.51c0-4.56,0-9.28,0-14,0-5.08.11-10.15.16-15.23.06-7.72,0-15.44.24-23.15a14.6,14.6,0,0,1,1.87-5.85c3.15-6.09,8.06-10.58,13.71-14.3a53.46,53.46,0,0,1,26.88-9.21c8.49-.45,16.36,1.44,23.18,6.75,1.69,1.32,3.21,2.86,4.72,4.22Z" transform="translate(-120.18 -310.55)"/></svg>