<svg xmlns="http://www.w3.org/2000/svg" xmlns:xlink="http://www.w3.org/1999/xlink" viewBox="0 0 1920 1080"><defs><style>.cls-1,.cls-14,.cls-3,.cls-4,.cls-5{stroke-miterlimit:10;}.cls-1{fill:url(#linear-gradient);stroke:url(#linear-gradient-2);}.cls-2,.cls-5{fill:#fff;}.cls-3{fill:#d89935;}.cls-14,.cls-3,.cls-4,.cls-5{stroke:#000;}.cls-14,.cls-3,.cls-4{stroke-width:5px;}.cls-4{fill:#109bdc;}.cls-14,.cls-6{fill:none;}.cls-7{fill:url(#linear-gradient-3);}.cls-8{fill:url(#linear-gradient-4);}.cls-9{fill:url(#linear-gradient-5);}.cls-10{fill:url(#linear-gradient-6);}.cls-11{fill:url(#linear-gradient-7);}.cls-12{fill:url(#linear-gradient-8);}.cls-13{fill:url(#linear-gradient-9);}</style><linearGradient id="linear-gradient" x1="500.08" y1="629.58" x2="1379.45" y2="629.58" gradientUnits="userSpaceOnUse"><stop offset="0" stop-color="#d89935"/><stop offset="0.48" stop-color="#6b9a90"/><stop offset="0.54" stop-color="#619a98"/><stop offset="1" stop-color="#109bdc"/></linearGradient><linearGradient id="linear-gradient-2" x1="499.58" y1="629.58" x2="1379.95" y2="629.58" xlink:href="#linear-gradient"/><linearGradient id="linear-gradient-3" x1="1006.34" y1="1830.81" x2="1058.28" y2="1882.75" gradientTransform="translate(-120.18 -1052.55)" gradientUnits="userSpaceOnUse"><stop offset="0" stop-color="#4296d2"/><stop offset="0.5" stop-color="#45a6dd"/><stop offset="1" stop-color="#2569b1"/></linearGradient><linearGradient id="linear-gradient-4" x1="1078.88" y1="1872.66" x2="1146.53" y2="1755.48" gradientTransform="translate(-120.18 -1052.55)" gradientUnits="userSpaceOnUse"><stop offset="0.13" stop-color="#287dc1"/><stop offset="0.17" stop-color="#3088c9"/><stop offset="0.27" stop-color="#3f9ed8"/><stop offset="0.33" stop-color="#45a6dd"/><stop offset="0.38" stop-color="#49a9df"/><stop offset="0.52" stop-color="#4cace1"/><stop offset="0.61" stop-color="#48a7de"/><stop offset="0.73" stop-color="#3d99d4"/><stop offset="0.85" stop-color="#2b81c4"/><stop offset="0.87" stop-color="#287dc1"/></linearGradient><linearGradient id="linear-gradient-5" x1="1143.84" y1="1856.38" x2="1183.74" y2="1903.03" gradientTransform="translate(-120.18 -1052.55)" gradientUnits="userSpaceOnUse"><stop offset="0" stop-color="#45a6dd"/><stop offset="0.32" stop-color="#287dc1"/><stop offset="0.61" stop-color="#33669a"/></linearGradient><linearGradient id="linear-gradient-6" x1="1104.81" y1="1877.35" x2="1096.58" y2="1830.84" gradientTransform="translate(-120.18 -1052.55)" gradientUnits="userSpaceOnUse"><stop offset="0" stop-color="#45a6dd"/><stop offset="0.64" stop-color="#287dc1"/><stop offset="0.9" stop-color="#287dc1"/></linearGradient><linearGradient id="linear-gradient-7" x1="1071.73" y1="1826.34" x2="1017.31" y2="1771.92" gradientTransform="translate(-120.18 -1052.55)" gradientUnits="userSpaceOnUse"><stop offset="0" stop-color="#45a6dd"/><stop offset="0.53" stop-color="#4ac7f2"/><stop offset="0.58" stop-color="#54c8ec"/><stop offset="0.69" stop-color="#65cadf"/><stop offset="0.82" stop-color="#70ccd8"/><stop offset="0.96" stop-color="#73ccd6"/></linearGradient><linearGradient id="linear-gradient-8" x1="1137.21" y1="1826.23" x2="1159.86" y2="1804.81" gradientTransform="translate(-120.18 -1052.55)" gradientUnits="userSpaceOnUse"><stop offset="0" stop-color="#287dc1"/><stop offset="0.01" stop-color="#297ec2"/><stop offset="0.36" stop-color="#3894d1"/><stop offset="0.7" stop-color="#42a1da"/><stop offset="1" stop-color="#45a6dd"/></linearGradient><linearGradient id="linear-gradient-9" x1="1031.68" y1="1818.75" x2="998.8" y2="1785.87" gradientTransform="translate(-120.18 -1052.55)" gradientUnits="userSpaceOnUse"><stop offset="0" stop-color="#287dc1"/><stop offset="0.16" stop-color="#33669a"/></linearGradient></defs><g id="Layer_4" data-name="Layer 4"><circle class="cls-1" cx="939.76" cy="629.58" r="439.68"/><path d="M1304.09,416.45l-56.17-75.14c-2.33,5.3-3.16,8-4.61,10.35-9.44,15.19-18,31.06-29,45.11-5.59,7.2-7.73,12-4.17,20.74a472,472,0,0,1,33.08,132.29c1,10.08-7.46,21.07-13.65,31.19-7.24-55.53-18.31-109.12-39.69-161.42-73.26,49.38-155.38,64.18-242.22,67.12v12.79q0,83.44,0,166.89c0,17.12,0,17.12-20,19.29v-199c-86.35-3.78-168.11-18.92-241.11-70.05-4.23,11.43-8.63,22.2-12.24,33.24-22.18,67.82-30.57,137.5-28.12,208.69.29,8.3,4.49,11.1,10.8,13.92,58.33,26,119.68,40.44,182.84,48,13.61,1.62,27.26,2.87,41.21,4.33-8.47,19-8.47,19-26.79,17.13-68.72-6.86-135.4-21.86-199-49.46-1.69-.73-3.51-1.17-7.14-2.34,3.2,21.92,6.2,42.56,9.23,63.34-20.35-4.77-20.57-4.74-23.51-23.74-2.17-14-3.11-28.23-5.81-42.13-.92-4.72-4.55-10.42-8.62-12.8-34.46-20.11-66.12-43.28-88.81-76.88-4-5.91-7.54-12.13-14.1-17.82v98c-16.5-5-20.87-10.32-21.5-25.91C485.91,425.85,642.74,229,866.78,194.9c182.65-27.77,329.09,39.16,438,188.38C1313.35,395,1305.1,404.81,1304.09,416.45ZM948.42,467.24c20-1.59,39.14-2.43,58.07-4.73,55.67-6.74,109.18-20.67,157.59-50.28,18.65-11.41,18.7-11.68,8.54-31.3-31.48-60.76-72.63-112.77-133.85-146.26-27.87-15.25-57.56-24.45-90.35-25.66ZM927.26,209.66c-97.6,1.08-189.79,88.13-231.63,188.63,69,50.07,148.27,64.78,231.63,68.23ZM624.84,656c.87-2.34,1.13-2.7,1.12-3.06-1.49-84.45,10.54-166.53,42.82-245.11.94-2.26.6-6.53-.94-8.11-16.5-17-28.58-36.49-34.69-59.58-1.91.92-2.73,1.09-3.23,1.58-2.16,2.17-4.28,4.4-6.33,6.68-41.63,46.27-71.3,99.24-90.68,158.4-7,21.5-5.55,41.53,3.31,61.38C554.27,608.55,587.41,633.77,624.84,656Zm572.44-269.75c14.89-14.73,24.94-30.51,29.91-49.65,2.09-8,.63-13.44-5.72-19.05-29.18-25.77-60.78-47.94-95.75-65-16.55-8.08-33.76-14.78-50.67-22.11C1129,271.93,1167.44,324.6,1197.28,386.22ZM801,233.3c-2.41-.48-3.24-.94-3.84-.73-53.16,18.43-100.37,46.9-142,84.57a12.13,12.13,0,0,0-3.47,8.88c2.16,22.1,12.12,40.4,28.29,56.83C709.05,323.41,746.83,272.3,801,233.3Z"/><path d="M647.52,917.79c19.07-4.51,36.94-7,53.79,4.61l-4-11.28c8.18.62,15.19,1.06,22.17,1.78.71.08,1.42,1.75,1.84,2.8,8.45,21.15,26.26,28.67,46.67,34.35,51.64,14.39,104.12,21.83,159,23V885.55c20.7,1.69,20.7,1.69,20.7,20.67v67.21c16.95-.87,32.91-1.23,48.78-2.58,44.5-3.76,88.17-12,130-28a44.88,44.88,0,0,0,19.91-15.5c28.5-41.45,48.55-87.08,60.9-135.68,4-15.71,12.18-23.44,28.21-27.37-14.32,54.35-30.52,107-58.14,156.52,7.78-4.47,15.68-8.75,23.32-13.45,58.09-35.78,103.55-84.31,137.27-142.93,10.3-17.9,11.77-40.9,17.17-61.59.87-3.32,1.8-6.86,1.54-10.21-1.35-17.19,10.92-25.53,22-35.6C1376,812.77,1267.6,993,1071.13,1055.2c-195.47,61.9-382.73-23.09-472.33-140,14-2.05,24.89-.34,35.61,11.24,44,47.52,97.49,81.3,158.18,103.74,2.78,1,5.6,1.92,7.52,2.58-18.36-17.49-38.54-34-55.29-53.5C730.66,962.81,715,950.88,695,942.8,678.46,936.16,663.28,926.25,647.52,917.79Zm465,51.83c-53.7,15.71-108.57,22.42-164,23.44v62.54C1016.41,1050.73,1068.64,1018.39,1112.54,969.62ZM927.26,992.87a677.09,677.09,0,0,1-163.81-22.48c44.2,48.35,96.27,80.69,163.81,85.12Zm143.93,40.24c80.55-19.24,201.1-116.33,226.52-180.85a8.36,8.36,0,0,0-1.9,1.15c-39.59,42.11-85.65,75.05-138.61,98.33a21.19,21.19,0,0,0-8,6.18C1127.54,985.91,1102.89,1010.87,1071.19,1033.11Z"/><path d="M1222.38,727.59c1.5-12.79,2.88-24.46,4.39-37.37l-63,23.48c14.14-18.53,29.72-34.48,52.54-40.62,9.38-2.53,14.4-8,12.64-18.19-2.91-16.91,9.78-26.09,19.86-40.38V657c46.11-28.89,87-58.39,97.9-113.63,1.56-7.91.78-16.86-1.18-24.77-3.32-13.32-7-26.93-13.18-39.08-7.65-15.08-2.73-27.71,3.35-42.37a433.71,433.71,0,0,1,40.19,127.68c1,6.43.89,13.14,2.65,19.33,4.73,16.68-5,26.27-17.09,36.91-1.23-14.83-2.35-28.34-3.49-42.12-1.57.56-2.62.61-2.86,1.07-21.87,41.61-56.63,69.86-96.6,92.43-7.8,4.41-12.69,9.11-11.83,18.51.27,3-1.15,6.12-.92,9.11C1247,716.21,1237.27,723.12,1222.38,727.59Z"/><path d="M503.59,716.1c13.08,6.32,22.41,13,26.53,28.69,13.48,51.15,46.88,89.46,85.37,123.84,2.57,2.29,5.26,4.46,7.82,6.75.52.47.74,1.28,2.23,4-19.12-.92-37.06-1.62-55-2.87-2-.14-4.16-3.08-5.53-5.19a429.16,429.16,0,0,1-61.41-149.9C503.34,720,503.59,718.42,503.59,716.1Z"/><path d="M969,692.9c51.22-.23,93.23,41.39,93.35,92.48.12,50.66-41,92.43-91.67,93.08-51,.66-93.55-41-93.9-92C876.41,735.23,917.91,693.13,969,692.9Zm-83.51,91.87c-.38,46.53,36.86,84.63,83.16,85.09a84.12,84.12,0,1,0-83.16-85.09Z"/><path d="M384.12,651.46c-51.24-.15-92.53-42-92.26-93.39.27-50.63,42.12-92.36,92.46-92.2,51.33.16,93,41.83,93,93S435.34,651.61,384.12,651.46Zm.18-8.67c46.48,0,84.33-37.58,84.41-83.84s-37.85-84.33-84-84.48-84.13,37.65-84.21,84A83.82,83.82,0,0,0,384.3,642.79Z"/><path d="M410.62,759.68a92.82,92.82,0,0,1,92.8,92.91c-.12,51.26-42.13,93-93.15,92.59A93,93,0,0,1,318,852.81C317.68,801.74,359.54,759.65,410.62,759.68Zm84.1,93.23a83.85,83.85,0,0,0-83.53-84.53c-46.47-.19-84.53,37.38-84.67,83.56s37.58,84.5,83.7,84.71A84.24,84.24,0,0,0,494.72,852.91Z"/><path d="M1371.66,426.43c.17-51,42.46-92.76,93.52-92.38,50.51.37,92.22,42.4,92,92.73-.18,51.31-42.25,93.37-93,93C1412.88,519.33,1371.49,477.61,1371.66,426.43ZM1465,342.78a84.13,84.13,0,0,0-84.61,83.57c-.27,46.47,37.2,84.47,83.5,84.68s84.48-37.33,84.68-83.56A84.28,84.28,0,0,0,1465,342.78Z"/><path d="M1381.22,122.28a92.54,92.54,0,1,1-92.68-92.73C1340.11,29.52,1381.13,70.56,1381.22,122.28Zm-176.49-1.57c-.84,46.4,35.81,84.49,82.54,85.76,45.57,1.24,84.4-36.32,85.66-82.86,1.25-46.15-37-85.2-83.91-85.64C1243.35,37.53,1205.57,74.62,1204.73,120.71Z"/><path d="M697.65,875.15c-18.91,3.85-19.38,4-25.84-12.67-9-23.34-17.23-47-26.59-72.66,15.65,3.51,25.1,7.48,29.19,22.55C680.15,833.56,689.54,853.76,697.65,875.15Z"/><path d="M1107.84,708.55c-12.92,11.92-23.37,27.13-44.23,27.45l-6.12-17.94Z"/><path d="M1185.55,650.14l13.4,12-17.18,18.51-11.11-14.48Z"/><path d="M1306.51,494.49l-16.49-7,8.41-22.49,17,6.06C1312.3,479.26,1309.63,486.29,1306.51,494.49Z"/><path d="M1319.58,459.19l-17-5.55c2.22-7.6,4.3-14.71,6.8-23.23l17.32,5C1324.31,443.43,1322.16,450.61,1319.58,459.19Z"/><path d="M1133.91,701.25l11.73,13.65L1126.94,731l-11.68-13.79Z"/><path d="M485,669.47,474.32,684l-19.39-14.67,11-14.27Z"/><path d="M1320,383.49c1.24-8.53,2.3-15.88,3.51-24.21l17.63,2.47c-1.22,8.35-2.34,16-3.56,24.28Z"/><path d="M1223.37,633.85l-16.17,18.88L1193.64,641l15.61-18.6Z"/><path d="M1160.48,676.19l12.89,12.95-18.24,17.25-11.18-12Z"/><path d="M1273,561.69l-15.56-9.14c3.94-7.1,7.67-13.85,11.75-21.23l16,8.57Z"/><path d="M1216.78,612.84l14.29-19.51,14.77,10.4-14.93,20.08Z"/><path d="M535.41,724.57l-20.78-12.76,9.56-15.3L544.44,709C541.34,714.32,538.59,719.06,535.41,724.57Z"/><path d="M1105.75,724.8l11.15,13.76-19.4,15.66-10.91-14.65C1093.14,734.51,1099.13,729.9,1105.75,724.8Z"/><path d="M1165.28,765.84l21.68-9.41c2.4,5.19,4.69,10.14,7.55,16.34l-22.43,9.63Z"/><path d="M1270.18,732.68l-9.57-15.47,19.79-13L1290.61,719Z"/><path d="M1335.64,398.61c-2.13,9.09-3.85,16.39-5.74,24.46l-17.11-4.37c1.6-7.73,3-14.69,4.79-23Z"/><path d="M1340.55,248.7c.91,8.81,1.69,16.26,2.59,24.92L1325.59,275c-1-7.79-1.92-15.16-3-23.59Z"/><path d="M1274.83,520.19c3.66-7.62,6.74-14.07,10.29-21.48l16.09,7.1-10.13,22.8Z"/><path d="M577.77,748.47c3.32-6.35,5.74-11,8.4-16l21.24,10.41-7.33,16Z"/><path d="M1126,798.94l-23.33,7.12c-1.69-5.69-3.25-10.92-5.19-17.43l22.7-6.65C1122.13,787.64,1123.8,792.52,1126,798.94Z"/><path d="M1375.08,647.87l-18.2,16.51c-3.1-4.19-6.41-8.64-9.87-13.32L1363.68,637Z"/><path d="M809.23,823.31l-23.75-4c1-6,1.95-11.38,3-17.62l23.3,3.89Z"/><path d="M667.38,787.53l-22.77-8.72c2.22-5.7,4.11-10.54,6.52-16.71l22.18,8.36C671.28,776.29,669.49,781.46,667.38,787.53Z"/><path d="M1137.7,795.28l-5.92-16.73,22.12-8.63c2.29,5.74,4.29,10.77,6.71,16.86Z"/><path d="M718.82,785.29l22.75,6.16c-1.37,5.82-2.55,10.85-4.07,17.29l-23.38-6Z"/><path d="M1428.94,580.89l-15-10.13,12.53-20,15.44,9.09Z"/><path d="M1251.56,563.08l14.84,9.28-13.2,21L1238,583.14Z"/><path d="M1407,580.53l14.79,10.39-14.6,19.74-14-11Z"/><path d="M702.11,799.36l-23-8c1.79-5.5,3.37-10.35,5.43-16.7l22.64,7.06C705.49,787.7,704,792.92,702.11,799.36Z"/><path d="M514.32,690l-10,15.06-20-13.74,10.35-14.84Z"/><path d="M1329.9,689.6l-11.5-14,17.8-15.55c4.07,4.42,7.86,8.55,12.19,13.27Z"/><path d="M749.2,811.87c1.61-6.55,2.85-11.59,4.32-17.55l22.58,5c-1,5.84-1.84,11.16-2.92,17.72Z"/><path d="M1343.55,286.39v24h-17V287.53Z"/><path d="M1342.59,349l-16.88-1.62v-22.8H1344C1343.49,332.86,1343.07,340.29,1342.59,349Z"/><path d="M821.17,825.13c1.05-6.57,1.87-11.65,2.85-17.78L847,809.94c-.39,5.9-.73,11-1.16,17.59Z"/><path d="M1300.8,712.05l-10.68-14.69,19-14.34,11.23,14.23Z"/><path d="M1399.38,620.16l-16,18.63c-4.59-4.19-8.65-7.89-13.38-12.22l15.47-17.78C1390.14,612.62,1394.42,616.12,1399.38,620.16Z"/><path d="M575.67,726.76c-3.11,5.67-5.61,10.24-8.64,15.75l-21.22-11.6,9.13-15.7Z"/><path d="M1250.31,723.51c3.37,5.43,6,9.6,9.32,15l-20.91,12.71c-3.14-5.57-5.88-10.4-9-15.85Z"/><path d="M610.74,764.42c2.89-6.3,5.08-11,7.54-16.4l21.77,9.4c-2.27,5.6-4.34,10.68-6.86,16.86Z"/><path d="M569.05,904c.46-6.25.85-11.41,1.23-16.68h22.59L592.12,904Z"/><path d="M1227.68,756.77l-21.69,11c-2.67-5.3-5.12-10.18-8.14-16.2L1219.2,741Z"/><path d="M740.48,880.32l22.13-3.66c1.14,6,2.15,11.4,3.35,17.81L743.12,898C742.18,891.72,741.39,886.37,740.48,880.32Z"/><path d="M777.43,892.36c-1.22-6.29-2.14-11.09-3.32-17.22L796,870c1.39,6,2.57,11,4.12,17.66Z"/><path d="M811.55,885.26c-1.59-6.62-2.72-11.34-4.15-17.31l21.86-5.88c1.56,5.92,2.87,10.89,4.55,17.22Z"/><path d="M534.55,900.41c.57-6.09,1-10.89,1.61-17l22.49,1.31c-.53,6.41-1,11.78-1.5,18.28Z"/><path d="M604.68,888.49h21.67v16.88H604.68Z"/><path d="M731.56,899.46,708.7,902.4c-.85-6.13-1.56-11.25-2.47-17.78l22.38-3C729.61,887.67,730.5,893.06,731.56,899.46Z"/><path d="M673.73,904.89c-.42-6.17-.76-11.35-1.21-18l22-1.28c.77,5.91,1.47,11.27,2.33,17.79Z"/><path d="M845.31,876.43l-4.71-17.12,21-6.54,6.11,16.72Z"/><path d="M661.11,888.61v16.54H639.22V888.61Z"/><path d="M1076.67,746.7,1086.9,761l-9.48,7.37-10.33-14.51Z"/><path d="M878.62,866.56l-5.47-17.26,11.06-3.57c2,5.48,3.69,10.34,5.76,16.15Z"/><path d="M456.63,647.71l-11.09,13.7-9.63-7.24c3.84-4.67,7.37-8.95,11.34-13.76Z"/><path d="M1447.94,549.22l-15.09-8.36c1.65-3.52,3-6.4,4.91-10.52l15.92,8C1451.61,542.28,1450,545.37,1447.94,549.22Z"/><path d="M1336.51,224.52c.87,4.7,1.47,7.91,2.22,12l-16.93,3.09c-.89-3.88-1.61-7.07-2.58-11.32Z"/><path d="M1078.86,812.17c-1.55-6.32-2.79-11.35-4.16-16.95l11-3.79c1.69,5.92,3.2,11.21,4.9,17.19Z"/><path d="M510.56,897.23c1-6.15,1.84-11.3,2.82-17.27l11.35,1.32c-.68,5.84-1.27,10.94-2,17.15Z"/><path d="M868.82,829.24l-10.71-.7c.34-5.79.65-11.16,1-16.39C872.14,811.2,872.18,811.26,868.82,829.24Z"/><path class="cls-2" d="M885.48,784.77a84.07,84.07,0,1,1,83.16,85.09C922.34,869.4,885.1,831.3,885.48,784.77Zm82.68,71.61c21-.34,37.61-8.46,49.85-24.93,11.07-14.91,5.82-34.69-11.38-41.69a14.63,14.63,0,0,0-11.29.78c-17.59,10.27-34.67,10.31-52.06-.38a12.67,12.67,0,0,0-9.32-1.07c-17.13,5.46-24.07,26.26-13.83,41C931.86,847,948.26,855.41,968.16,856.38Zm1.33-66.58a37.95,37.95,0,1,0-37.84-37.91A38,38,0,0,0,969.49,789.8Z"/><path class="cls-2" d="M384.3,642.79a83.82,83.82,0,0,1-83.78-84.27c.08-46.4,38-84.19,84.21-84s84.07,38.31,84,84.48S430.78,642.8,384.3,642.79Zm-.19-13.5c21-.42,37.41-8.81,49.38-25.48,10.13-14.11,5.37-33.2-10.55-40.23a17.18,17.18,0,0,0-13.4.56c-16.94,9.4-33.21,9.33-50.16,0-3.57-2-9.42-1.93-13.44-.54-13.93,4.84-20.7,27.5-11.16,39.57C347.8,619.67,363.66,628.84,384.11,629.29Zm.61-142a37.29,37.29,0,0,0-38,37.55c0,20.87,17,38.23,37.61,38.3s38.16-17.27,38.17-37.89A37.72,37.72,0,0,0,384.72,487.29Z"/><path class="cls-2" d="M494.72,852.91a84.24,84.24,0,0,1-84.5,83.74c-46.12-.21-83.84-38.38-83.7-84.71s38.2-83.75,84.67-83.56A83.85,83.85,0,0,1,494.72,852.91Zm-84.53,70.24c20.77-.52,37.28-8.8,49.33-25.42,10.46-14.44,5.24-34.13-11.22-41a15.84,15.84,0,0,0-12.33.85c-17.29,10-33.94,9.79-51.07-.36a14.5,14.5,0,0,0-11.32-.7c-17.13,7-22.33,26.84-11.29,41.72C374.25,914.37,390.43,922.49,410.19,923.15ZM448.5,818.43a37.92,37.92,0,0,0-38.07-37.76,37.94,37.94,0,1,0,.56,75.88A37.45,37.45,0,0,0,448.5,818.43Z"/><path class="cls-2" d="M1465,342.78a84.28,84.28,0,0,1,83.57,84.69c-.2,46.23-38.24,83.78-84.68,83.56s-83.77-38.21-83.5-84.68A84.13,84.13,0,0,1,1465,342.78Zm-.14,154.76c20.5-.61,36.24-9.6,48.94-25.73,11-14,2.46-35.77-12.3-40.94a15.28,15.28,0,0,0-11.35,1C1473,441.91,1456.21,442,1439,432c-2.83-1.66-7.26-2.6-10.23-1.64a27,27,0,0,0-13.74,41C1427.08,488.61,1443.85,497.08,1464.85,497.54Zm-2-66.51a37.9,37.9,0,0,0,39.5-36.3c.87-20.71-15.59-38.62-36.4-39.62-20.53-1-38.62,15.78-39.39,36.51A37.74,37.74,0,0,0,1462.89,431Z"/><path class="cls-2" d="M1204.73,120.71c.84-46.09,38.62-83.18,84.29-82.74,46.9.44,85.16,39.49,83.91,85.64-1.26,46.54-40.09,84.1-85.66,82.86C1240.54,205.2,1203.89,167.11,1204.73,120.71ZM1288.34,193c20.62-.94,37.27-8.88,49.24-25.68a27.17,27.17,0,0,0-8.21-39.52c-5.57-3.34-10.33-4.3-16.77-.19-15.51,9.9-32.17,10-47.66.08-6.94-4.43-12-3.09-17.72.66-13.43,8.73-16.78,25.85-7.48,38.86C1251.71,184,1268.26,192.1,1288.34,193ZM1251,88.27a37.65,37.65,0,0,0,37.54,38.15,37.94,37.94,0,1,0,.36-75.88A37.48,37.48,0,0,0,1251,88.27Z"/><path d="M968.16,856.38c-19.9-1-36.3-9.43-48-26.3-10.24-14.73-3.3-35.53,13.83-41a12.67,12.67,0,0,1,9.32,1.07c17.39,10.69,34.47,10.65,52.06.38a14.63,14.63,0,0,1,11.29-.78c17.2,7,22.45,26.78,11.38,41.69C1005.77,847.92,989.18,856,968.16,856.38Z"/><path d="M969.49,789.8a37.95,37.95,0,0,1,.09-75.89,37.95,37.95,0,1,1-.09,75.89Z"/><path d="M384.11,629.29c-20.45-.45-36.31-9.62-49.33-26.1-9.54-12.07-2.77-34.73,11.16-39.57,4-1.39,9.87-1.42,13.44.54,16.95,9.31,33.22,9.38,50.16,0a17.18,17.18,0,0,1,13.4-.56c15.92,7,20.68,26.12,10.55,40.23C421.52,620.48,405.12,628.87,384.11,629.29Z"/><path d="M384.72,487.29a37.72,37.72,0,0,1,37.77,38c0,20.62-17.48,38-38.17,37.89s-37.66-17.43-37.61-38.3A37.29,37.29,0,0,1,384.72,487.29Z"/><path d="M410.19,923.15c-19.76-.66-35.94-8.78-47.9-24.9-11-14.88-5.84-34.69,11.29-41.72a14.5,14.5,0,0,1,11.32.7c17.13,10.15,33.78,10.37,51.07.36a15.84,15.84,0,0,1,12.33-.85c16.46,6.86,21.68,26.55,11.22,41C447.47,914.35,431,922.63,410.19,923.15Z"/><path d="M448.5,818.43A37.45,37.45,0,0,1,411,856.55a37.94,37.94,0,1,1,37.51-38.12Z"/><path d="M1464.85,497.54c-21-.46-37.77-8.93-49.79-26.2a27,27,0,0,1,13.74-41c3-1,7.4,0,10.23,1.64,17.18,10,33.93,9.93,51.11-.13a15.28,15.28,0,0,1,11.35-1c14.76,5.17,23.29,27,12.3,40.94C1501.09,487.94,1485.35,496.93,1464.85,497.54Z"/><path d="M1462.89,431a37.74,37.74,0,0,1-36.29-39.41c.77-20.73,18.86-37.5,39.39-36.51,20.81,1,37.27,18.91,36.4,39.62A37.9,37.9,0,0,1,1462.89,431Z"/><path d="M1288.34,193c-20.08-.9-36.63-9.05-48.6-25.79-9.3-13-6-30.13,7.48-38.86,5.76-3.75,10.78-5.09,17.72-.66,15.49,9.87,32.15,9.82,47.66-.08,6.44-4.11,11.2-3.15,16.77.19a27.17,27.17,0,0,1,8.21,39.52C1325.61,184.12,1309,192.06,1288.34,193Z"/><path d="M1251,88.27a37.48,37.48,0,0,1,37.9-37.73,37.94,37.94,0,1,1-.36,75.88A37.65,37.65,0,0,1,1251,88.27Z"/><circle class="cls-3" cx="386.13" cy="563.97" r="98.99"/><circle class="cls-4" cx="1290.82" cy="121.99" r="98.99"/><circle class="cls-3" cx="1465.77" cy="425.85" r="105.89"/><circle class="cls-4" cx="411.46" cy="856.32" r="98.99"/><circle class="cls-5" cx="969.69" cy="786.11" r="98.99"/><circle class="cls-6" cx="969.46" cy="784.96" r="103"/><path class="cls-7" d="M931.76,752.56l22.57,26.18-19.8,20.66c-1.08-1.37-2.13-2.71-3.17-4-.28-.36-.58-.72-.85-1.09a1,1,0,0,0-1.26-.45,1,1,0,0,0-.61,1.07V853a15.27,15.27,0,0,1-1.38,6.82,13.18,13.18,0,0,1-8,6.93,19.29,19.29,0,0,1-17.59-2.08,13.14,13.14,0,0,1-6.17-11.9c.07-4.56.08-9.13.12-13.69l.12-15q0-6.36.11-12.71L896,798c0-3.14.06-6.27.11-9.4a1.16,1.16,0,0,1,.3-.75q17.51-17.55,35-35.06C931.55,752.74,931.63,752.66,931.76,752.56Z"/><path class="cls-8" d="M1009.09,764.5a21,21,0,0,0-1.73-1.94,5.5,5.5,0,0,0-5.61-1,17.71,17.71,0,0,0-5.74,3.31,93.5,93.5,0,0,0-11,10.8l-22.17,24.68-14.22,15.78-.55.59L935.73,801l3-3.16,16.87-17.58,10-10.38c1.89-2,3.87-3.87,5.65-5.91,3-3.39,5.91-6.84,8.8-10.3,8.82-10.59,17.61-21.23,26.47-31.81a37.65,37.65,0,0,1,11.79-9.59,20.73,20.73,0,0,1,11.37-2.36c6.12.6,11,3.29,14.34,8.62a7.87,7.87,0,0,1,1.15,4.3c0,2.07,0,4.14,0,6.21a1.27,1.27,0,0,1-.35.83q-8.27,8-16.54,16l-10.54,10.22Z"/><path class="cls-9" d="M1045.56,762.45V767c0,5.16.07,10.31.12,15.44q0,6.58.11,13.17l.12,12.82.11,13.17.12,12.89.12,13.11c0,1.68.06,3.38.07,5a12.91,12.91,0,0,1-6,11.47c-6.32,4.17-13.06,4.68-19.87,1.3-4.84-2.42-7.21-6.62-7.22-12q-.09-29.13,0-58.27a1.17,1.17,0,0,1,.31-.75q15.75-15.78,31.52-31.53A4.58,4.58,0,0,1,1045.56,762.45Z"/><path class="cls-10" d="M949.35,818.32l5-5.56,33.36-37.09a79,79,0,0,1,9.67-9.34,16.58,16.58,0,0,1,4.67-2.77,3.85,3.85,0,0,1,5.18,1.84,19.28,19.28,0,0,1,2.22,6.61,87.58,87.58,0,0,1,1.3,13.61c.09,2.76.12,5.53.14,8.29a1.77,1.77,0,0,1-.32,1l-26.94,34.54a27.21,27.21,0,0,1-6.29,6.29,21.3,21.3,0,0,1-6.65,2.93,2,2,0,0,1-1,0,18.07,18.07,0,0,1-7.6-4.5,46.39,46.39,0,0,1-5.16-6l-7.3-9.35A3,3,0,0,1,949.35,818.32Z"/><path class="cls-11" d="M969.75,762.67l-14,14.65-2.17-2.5q-10.42-12.09-20.8-24.19a20.45,20.45,0,0,0-5.64-4.84,18.55,18.55,0,0,0-10.54-2.14,28.08,28.08,0,0,0-17.81,8.16c-.79.77-1.45,1.67-2.27,2.6v-2c0-2.61,0-5.22.07-7.83q.08-7.39.12-14.8c0-2.32.07-4.64.06-7a7.58,7.58,0,0,1,1.1-3.87,17.08,17.08,0,0,1,9.61-7.69c5.81-2,11.36-1.12,16.69,1.64a36.66,36.66,0,0,1,10.93,9c5.43,6.4,10.75,12.89,16.18,19.29,5.86,6.9,11.78,13.74,17.68,20.6A8.73,8.73,0,0,0,969.75,762.67Z"/><path class="cls-12" d="M1012.78,792.2V789a106.39,106.39,0,0,0-1.28-16.34c-.34-1.93-.94-3.87-1.45-5.8a.63.63,0,0,1,.19-.74q6.87-6.65,13.75-13.32l9.63-9.33q5.67-5.51,11.37-11l.3-.23v2.33c0,2.22,0,4.45,0,6.67l.12,15.32c0,.93,0,1.86,0,2.78a.74.74,0,0,1-.35.78,2.78,2.78,0,0,0-.48.49l-31.21,31.21a4.51,4.51,0,0,0-.44.54Z"/><path class="cls-13" d="M896.21,785.14v-6.78c0-2.45.06-4.91.08-7.36,0-3.74,0-7.47.12-11.2a7.07,7.07,0,0,1,.9-2.83,18.73,18.73,0,0,1,6.63-6.92,25.89,25.89,0,0,1,13-4.46,16.27,16.27,0,0,1,11.22,3.27c.81.64,1.55,1.38,2.28,2Z"/><circle class="cls-14" cx="969.46" cy="784.96" r="104.74"/></g></svg>