<svg xmlns="http://www.w3.org/2000/svg" xmlns:xlink="http://www.w3.org/1999/xlink" viewBox="0 0 1920 1080"><defs><style>.cls-1,.cls-14,.cls-3,.cls-4,.cls-5{stroke-miterlimit:10;}.cls-1{fill:url(#linear-gradient);stroke:url(#linear-gradient-2);}.cls-2,.cls-5{fill:#fff;}.cls-3{fill:#d89935;}.cls-14,.cls-3,.cls-4,.cls-5{stroke:#000;}.cls-14,.cls-3,.cls-4{stroke-width:5px;}.cls-4{fill:#109bdc;}.cls-14,.cls-6{fill:none;}.cls-7{fill:url(#linear-gradient-3);}.cls-8{fill:url(#linear-gradient-4);}.cls-9{fill:url(#linear-gradient-5);}.cls-10{fill:url(#linear-gradient-6);}.cls-11{fill:url(#linear-gradient-7);}.cls-12{fill:url(#linear-gradient-8);}.cls-13{fill:url(#linear-gradient-9);}</style><linearGradient id="linear-gradient" x1="407.9" y1="522.68" x2="1456.46" y2="522.68" gradientUnits="userSpaceOnUse"><stop offset="0" stop-color="#d89935"/><stop offset="0.48" stop-color="#6b9a90"/><stop offset="0.54" stop-color="#619a98"/><stop offset="1" stop-color="#109bdc"/></linearGradient><linearGradient id="linear-gradient-2" x1="407.4" y1="522.68" x2="1456.96" y2="522.68" xlink:href="#linear-gradient"/><linearGradient id="linear-gradient-3" x1="988.44" y1="1752.52" x2="1050.38" y2="1814.46" gradientTransform="translate(-120.18 -1052.55)" gradientUnits="userSpaceOnUse"><stop offset="0" stop-color="#4296d2"/><stop offset="0.5" stop-color="#45a6dd"/><stop offset="1" stop-color="#2569b1"/></linearGradient><linearGradient id="linear-gradient-4" x1="1074.94" y1="1802.42" x2="1155.61" y2="1662.7" gradientTransform="translate(-120.18 -1052.55)" gradientUnits="userSpaceOnUse"><stop offset="0.13" stop-color="#287dc1"/><stop offset="0.17" stop-color="#3088c9"/><stop offset="0.27" stop-color="#3f9ed8"/><stop offset="0.33" stop-color="#45a6dd"/><stop offset="0.38" stop-color="#49a9df"/><stop offset="0.52" stop-color="#4cace1"/><stop offset="0.61" stop-color="#48a7de"/><stop offset="0.73" stop-color="#3d99d4"/><stop offset="0.85" stop-color="#2b81c4"/><stop offset="0.87" stop-color="#287dc1"/></linearGradient><linearGradient id="linear-gradient-5" x1="1152.4" y1="1783.01" x2="1199.97" y2="1838.64" gradientTransform="translate(-120.18 -1052.55)" gradientUnits="userSpaceOnUse"><stop offset="0" stop-color="#45a6dd"/><stop offset="0.32" stop-color="#287dc1"/><stop offset="0.61" stop-color="#33669a"/></linearGradient><linearGradient id="linear-gradient-6" x1="1105.86" y1="1808.02" x2="1096.05" y2="1752.56" gradientTransform="translate(-120.18 -1052.55)" gradientUnits="userSpaceOnUse"><stop offset="0" stop-color="#45a6dd"/><stop offset="0.64" stop-color="#287dc1"/><stop offset="0.9" stop-color="#287dc1"/></linearGradient><linearGradient id="linear-gradient-7" x1="1066.42" y1="1747.19" x2="1001.53" y2="1682.3" gradientTransform="translate(-120.18 -1052.55)" gradientUnits="userSpaceOnUse"><stop offset="0" stop-color="#45a6dd"/><stop offset="0.53" stop-color="#4ac7f2"/><stop offset="0.58" stop-color="#54c8ec"/><stop offset="0.69" stop-color="#65cadf"/><stop offset="0.82" stop-color="#70ccd8"/><stop offset="0.96" stop-color="#73ccd6"/></linearGradient><linearGradient id="linear-gradient-8" x1="1144.49" y1="1747.06" x2="1171.51" y2="1721.52" gradientTransform="translate(-120.18 -1052.55)" gradientUnits="userSpaceOnUse"><stop offset="0" stop-color="#287dc1"/><stop offset="0.01" stop-color="#297ec2"/><stop offset="0.36" stop-color="#3894d1"/><stop offset="0.7" stop-color="#42a1da"/><stop offset="1" stop-color="#45a6dd"/></linearGradient><linearGradient id="linear-gradient-9" x1="1018.66" y1="1738.14" x2="979.46" y2="1698.94" gradientTransform="translate(-120.18 -1052.55)" gradientUnits="userSpaceOnUse"><stop offset="0" stop-color="#287dc1"/><stop offset="0.16" stop-color="#33669a"/></linearGradient></defs><g id="Layer_4" data-name="Layer 4"><circle class="cls-1" cx="932.18" cy="522.68" r="524.28"/><path d="M1366.61,268.55l-67-89.59c-2.78,6.31-3.77,9.55-5.5,12.33-11.25,18.11-21.5,37-34.53,53.79-6.67,8.58-9.22,14.3-5,24.73,20.61,50.66,34.14,103.43,39.45,157.75,1.17,12-8.9,25.12-16.28,37.18-8.64-66.21-21.84-130.1-47.33-192.47-87.35,58.88-185.27,76.53-288.83,80V566.55c0,20.42,0,20.42-23.84,23V352.29c-102.95-4.51-200.44-22.57-287.49-83.54-5,13.63-10.29,26.48-14.6,39.63-26.45,80.88-36.45,164-33.53,248.86.35,9.88,5.36,13.22,12.88,16.58,69.55,31,142.71,48.23,218,57.21,16.23,1.93,32.51,3.42,49.14,5.16-10.11,22.71-10.1,22.61-31.94,20.43-81.94-8.18-161.46-26.07-237.24-59-2-.87-4.19-1.39-8.51-2.79,3.8,26.14,7.38,50.74,11,75.53-24.26-5.69-24.52-5.65-28-28.3-2.59-16.71-3.71-33.68-6.93-50.25-1.09-5.63-5.42-12.42-10.27-15.25-41.09-24-78.84-51.62-105.9-91.68-4.76-7-9-14.46-16.81-21.25V580.47c-19.67-5.93-24.89-12.31-25.64-30.89C391,279.76,578,45,845.15,4.37,1062.94-28.74,1237.56,51.06,1367.42,229,1377.65,243,1367.81,254.67,1366.61,268.55ZM942.5,329.11c23.9-1.89,46.68-2.9,69.25-5.63,66.38-8,130.19-24.66,187.91-60,22.23-13.6,22.3-13.92,10.18-37.32-37.54-72.44-86.61-134.47-159.61-174.4C1017,33.61,981.6,22.64,942.5,21.19ZM917.27,22C800.9,23.26,691,127.06,641.07,246.89c82.33,59.71,176.81,77.24,276.2,81.37ZM556.66,554.16c1-2.8,1.35-3.23,1.34-3.65-1.77-100.71,12.57-198.58,51.07-292.27,1.11-2.71.71-7.79-1.13-9.68-19.67-20.21-34.08-43.51-41.36-71-2.29,1.09-3.26,1.3-3.85,1.89-2.58,2.59-5.11,5.24-7.55,8-49.64,55.18-85,118.34-108.14,188.89-8.4,25.63-6.61,49.51,4,73.18C472.51,497.61,512,527.69,556.66,554.16Zm682.59-321.65c17.75-17.57,29.73-36.39,35.66-59.21,2.5-9.59.75-16-6.82-22.71-34.8-30.73-72.48-57.17-114.17-77.54-19.73-9.63-40.26-17.62-60.42-26.36C1157.77,96.22,1203.67,159,1239.25,232.51ZM766.69,50.15c-2.86-.57-3.85-1.11-4.57-.86-63.39,22-119.69,55.92-169.38,100.84a14.49,14.49,0,0,0-4.15,10.59c2.58,26.35,14.46,48.17,33.74,67.76C657.07,157.61,702.12,96.66,766.69,50.15Z"/><path d="M583.71,866.34c22.74-5.37,44-8.3,64.14,5.5l-4.74-13.44c9.75.73,18.11,1.26,26.43,2.12.84.09,1.69,2.09,2.19,3.34,10.08,25.22,31.32,34.18,55.65,41C789,922,851.53,930.85,917,932.28V827.91c24.69,2,24.69,2,24.69,24.65v80.13c20.2-1,39.23-1.47,58.16-3.07,53.07-4.48,105.14-14.28,155-33.32a53.67,53.67,0,0,0,23.75-18.49c34-49.43,57.89-103.83,72.61-161.79,4.76-18.73,14.52-27.95,33.63-32.63C1267.72,748.2,1248.4,811,1215.47,870c9.28-5.33,18.7-10.43,27.8-16,69.28-42.66,123.48-100.52,163.69-170.42,12.28-21.35,14-48.77,20.47-73.45,1-4,2.15-8.18,1.84-12.17-1.61-20.5,13-30.44,26.25-42.45C1452.3,741.12,1323.1,956,1088.82,1030.2c-233.08,73.81-456.37-27.54-563.2-166.91,16.71-2.44,29.68-.39,42.46,13.41,52.48,56.66,116.25,96.94,188.61,123.7,3.31,1.22,6.68,2.29,9,3.08-21.89-20.85-46-40.56-65.93-63.8-16.88-19.65-35.54-33.88-59.45-43.51C620.61,888.25,602.51,876.43,583.71,866.34Zm554.49,61.82c-64,18.72-129.46,26.72-195.53,27.94v74.57C1023.58,1024.87,1085.86,986.3,1138.2,928.16ZM917.28,955.87a807.59,807.59,0,0,1-195.34-26.8c52.71,57.65,114.8,96.21,195.34,101.49Zm171.62,48c96-23,239.79-138.72,270.1-215.65a10.08,10.08,0,0,0-2.27,1.37c-47.2,50.21-102.12,89.5-165.27,117.25a25.39,25.39,0,0,0-9.49,7.37C1156.08,947.57,1126.7,977.34,1088.9,1003.86Z"/><path d="M1269.17,639.55c1.8-15.24,3.43-29.16,5.25-44.55l-75.13,28c16.86-22.1,35.43-41.11,62.65-48.43,11.19-3,17.16-9.55,15.07-21.69-3.46-20.17,11.66-31.12,23.68-48.15v50.69c55-34.46,103.77-69.63,116.74-135.5,1.85-9.43.93-20.1-1.41-29.53-4-15.89-8.37-32.11-15.72-46.6-9.12-18-3.25-33,4-50.52a517.58,517.58,0,0,1,47.93,152.24c1.18,7.67,1.06,15.66,3.15,23.05,5.65,19.89-6,31.32-20.37,44-1.47-17.68-2.8-33.79-4.16-50.22-1.88.67-3.13.72-3.42,1.27-26.08,49.62-67.52,83.3-115.19,110.22-9.3,5.26-15.12,10.86-14.1,22.07.32,3.56-1.37,7.29-1.09,10.86C1298.55,626,1286.93,634.23,1269.17,639.55Z"/><path d="M412.09,625.85c15.59,7.54,26.72,15.55,31.64,34.22,16.07,61,55.89,106.66,101.79,147.66,3.06,2.74,6.27,5.31,9.33,8,.62.56.88,1.52,2.65,4.75-22.8-1.1-44.19-1.94-65.54-3.42-2.36-.17-5-3.68-6.6-6.19a511.61,511.61,0,0,1-73.22-178.75C411.79,630.46,412.09,628.62,412.09,625.85Z"/><path d="M967,598.19c61.07-.27,111.16,49.36,111.3,110.28.14,60.4-48.92,110.21-109.31,111-60.82.77-111.55-48.92-112-109.7C856.64,648.66,906.12,598.46,967,598.19ZM867.45,707.74c-.44,55.48,44,100.91,99.17,101.46a100.31,100.31,0,1,0-99.17-101.46Z"/><path d="M269.63,548.77c-61.1-.18-110.33-50-110-111.35.32-60.37,50.22-110.13,110.25-109.94,61.2.19,110.88,49.88,110.85,110.87S330.7,549,269.63,548.77Zm.22-10.34c55.42,0,100.54-44.8,100.65-100S325.37,337.91,270.36,337.73C215.19,337.56,170,382.63,170,438A99.92,99.92,0,0,0,269.85,538.43Z"/><path d="M301.23,677.81c61.17,0,110.8,49.71,110.65,110.79S361.65,899.52,300.82,899a110.83,110.83,0,0,1-110-110.14C190.4,728,240.32,677.79,301.23,677.81ZM401.51,789a100,100,0,0,0-99.61-100.8C246.5,688,201.11,732.76,201,787.83c-.16,55.24,44.8,100.75,99.81,101A100.45,100.45,0,0,0,401.51,789Z"/><path d="M1447.18,280.44c.2-60.79,50.63-110.6,111.51-110.15,60.23.45,110,50.56,109.75,110.58-.22,61.18-50.38,111.33-110.85,110.85C1496.33,391.22,1447,341.48,1447.18,280.44Zm111.29-99.74a100.33,100.33,0,0,0-100.89,99.66c-.33,55.4,44.36,100.72,99.57,101,55.37.26,100.73-44.51,101-99.64C1658.34,226.28,1613.74,181.08,1558.47,180.7Z"/><path d="M1458.58-82.22c.11,61.29-49.23,110.37-110.79,110.22A109.92,109.92,0,0,1,1237.9-81.81a110.06,110.06,0,0,1,110.17-111C1409.55-192.83,1458.47-143.89,1458.58-82.22Zm-210.45-1.87c-1,55.33,42.7,100.74,98.42,102.26,54.34,1.48,100.64-43.31,102.14-98.8,1.49-55-44.13-101.59-100.06-102.13C1294.19-183.28,1249.14-139,1248.13-84.09Z"/><path d="M643.49,815.51c-22.56,4.59-23.12,4.81-30.81-15.11-10.75-27.83-20.56-56-31.71-86.64,18.65,4.18,29.93,8.91,34.8,26.89C622.62,765.91,633.81,790,643.49,815.51Z"/><path d="M1132.6,616.85c-15.41,14.21-27.87,32.35-52.74,32.73l-7.3-21.39Z"/><path d="M1225.27,547.2l16,14.3-20.48,22.07c-4.55-5.92-8.35-10.88-13.25-17.27Z"/><path d="M1369.49,361.61l-19.66-8.32c3.29-8.81,6.4-17.12,10-26.82l20.25,7.23Z"/><path d="M1385.08,319.52l-20.27-6.62,8.1-27.7,20.66,6Z"/><path d="M1163.68,608.15l14,16.27-22.3,19.16c-4.73-5.57-9-10.6-13.93-16.44Z"/><path d="M390,570.25l-12.79,17.32-23.12-17.5,13.17-17Z"/><path d="M1385.58,229.24c1.48-10.17,2.75-18.93,4.19-28.87l21,2.95c-1.46,10-2.8,19.05-4.25,29Z"/><path d="M1270.36,527.78l-19.29,22.51-16.16-14,18.61-22.18Z"/><path d="M1195.37,578.27l15.37,15.44L1189,614.28,1175.66,600Z"/><path d="M1329.54,441.74,1311,430.84c4.69-8.48,9.13-16.52,14-25.31l19,10.21Z"/><path d="M1262.5,502.73l17-23.27,17.62,12.41c-6.13,8.24-11.68,15.71-17.81,23.93Z"/><path d="M450,636c-8.75-5.36-16.34-10-24.78-15.22l11.4-18.23,24.14,14.84Z"/><path d="M1130.11,636.23l13.29,16.41-23.13,18.67-13-17.48Z"/><path d="M1201.09,685.16l25.85-11.22,9,19.49-26.74,11.48Z"/><path d="M1326.18,645.63l-11.42-18.46,23.6-15.53,12.18,17.68Z"/><path d="M1404.23,247.28c-2.54,10.83-4.59,19.54-6.85,29.17l-20.4-5.21c1.91-9.22,3.64-17.52,5.71-27.47Z"/><path d="M1410.08,68.53c1.09,10.49,2,19.38,3.1,29.71l-20.93,1.69c-1.18-9.29-2.29-18.07-3.57-28.13Z"/><path d="M1331.72,392.25c4.36-9.09,8-16.77,12.27-25.62l19.18,8.47c-4,9-7.71,17.36-12.08,27.18Z"/><path d="M500.53,664.45l10-19.13,25.32,12.41c-2.79,6.12-5.34,11.7-8.74,19.14Z"/><path d="M1154.26,724.64l-27.82,8.48c-2-6.78-3.89-13-6.2-20.78l27.08-7.93C1149.63,711.16,1151.63,717,1154.26,724.64Z"/><path d="M1451.26,544.5l-21.71,19.68c-3.69-5-7.63-10.3-11.77-15.88l19.88-16.77Z"/><path d="M776.54,753.7,748.21,749c1.24-7.18,2.33-13.57,3.61-21l27.78,4.64C778.58,739.64,777.69,745.73,776.54,753.7Z"/><path d="M607.39,711l-27.15-10.41c2.65-6.79,4.9-12.56,7.78-19.92l26.44,10C612.05,697.63,609.9,703.79,607.39,711Z"/><path d="M1168.21,720.27c-2.67-7.52-4.61-13-7.07-19.95l26.39-10.3c2.72,6.86,5.1,12.85,8,20.11Z"/><path d="M668.73,708.36l27.12,7.34c-1.63,6.94-3,12.94-4.85,20.62l-27.88-7.1C665.09,721.88,666.79,715.58,668.73,708.36Z"/><path d="M1515.48,464.62l-17.91-12.07c5-8.07,9.56-15.25,14.94-23.85l18.41,10.84Z"/><path d="M1304,443.39l17.69,11.07-15.74,25.08-18.14-12.22Z"/><path d="M1489.32,464.2,1507,476.59l-17.41,23.53L1472.87,487Z"/><path d="M648.8,725.13l-27.39-9.47,6.48-19.92,27,8.42C652.84,711.23,651,717.46,648.8,725.13Z"/><path d="M424.89,594.68l-12,18-23.85-16.38,12.34-17.7Z"/><path d="M1397.38,594.25l-13.71-16.69L1404.9,559c4.85,5.28,9.36,10.21,14.53,15.83Z"/><path d="M705,740.05l5.15-20.93,26.93,6c-1.15,7-2.19,13.32-3.48,21.13Z"/><path d="M1413.66,113.47v28.61h-20.27V114.82Z"/><path d="M1412.51,188.11l-20.12-1.93V159h21.75C1413.58,168.87,1413.09,177.74,1412.51,188.11Z"/><path d="M790.77,755.86C792,748,793,742,794.17,734.66l27.35,3.09c-.46,7-.86,13.13-1.38,21Z"/><path d="M1362.69,621c-4.63-6.36-8.29-11.39-12.74-17.52l22.61-17.1,13.39,17Z"/><path d="M1480.23,511.46l-19.09,22.21-16-14.57,18.45-21.2Z"/><path d="M498,638.57l-10.3,18.78-25.3-13.84c3.82-6.58,7.14-12.28,10.89-18.72Z"/><path d="M1302.48,634.69l11.11,17.88-24.93,15.14L1278,648.81Z"/><path d="M539.85,683.47c3.45-7.51,6.06-13.18,9-19.55l26,11.2-8.19,20.11Z"/><path d="M490.15,849.88c.55-7.45,1-13.61,1.46-19.89h26.94c-.34,7.42-.61,13.53-.9,19.89Z"/><path d="M1275.5,674.35l-25.87,13.1-9.71-19.31,25.47-12.65Z"/><path d="M694.56,821.67,721,817.3c1.35,7.2,2.55,13.6,4,21.24l-27.24,4.18C696.59,835.27,695.64,828.88,694.56,821.67Z"/><path d="M738.61,836c-1.45-7.5-2.55-13.23-4-20.53l26.13-6.15c1.66,7.14,3.07,13.15,4.91,21.06Z"/><path d="M779.29,827.56c-1.88-7.89-3.23-13.52-4.94-20.64l26.07-7c1.86,7.06,3.42,13,5.42,20.54Z"/><path d="M449,845.63c.69-7.26,1.23-13,1.92-20.31l26.82,1.56c-.63,7.65-1.15,14-1.78,21.8Z"/><path d="M532.62,831.42h25.85v20.12H532.62Z"/><path d="M683.91,844.49,656.66,848c-1-7.31-1.86-13.42-2.94-21.2l26.68-3.59C681.6,830.44,682.66,836.86,683.91,844.49Z"/><path d="M615,851c-.49-7.36-.91-13.54-1.44-21.52l26.19-1.52c.92,7.05,1.75,13.44,2.77,21.21Z"/><path d="M819.56,817c-2-7.37-3.68-13.35-5.62-20.42L839,788.82l7.28,19.94Z"/><path d="M599.92,831.56v19.71H573.81V831.56Z"/><path d="M1095.43,662.34l12.2,17-11.31,8.79L1084,670.88Z"/><path d="M859.28,805.26c-2.53-8-4.39-13.85-6.53-20.58l13.19-4.26c2.33,6.54,4.4,12.33,6.87,19.27Z"/><path d="M356.09,544.31l-13.23,16.33L331.38,552l13.53-16.41Z"/><path d="M1538.14,426.87l-18-10c1.95-4.19,3.56-7.62,5.85-12.53l19,9.54Z"/><path d="M1405.27,39.69,1407.92,54l-20.2,3.69c-1-4.63-1.92-8.43-3.07-13.5Z"/><path d="M1098,740.41c-1.85-7.54-3.32-13.54-5-20.21l13.07-4.52,5.84,20.49Z"/><path d="M420.4,841.83c1.2-7.33,2.2-13.47,3.36-20.59l13.53,1.57c-.81,7-1.51,13.05-2.36,20.46Z"/><path d="M847.59,760.76l-12.77-.83c.41-6.91.78-13.3,1.14-19.55C851.55,739.25,851.6,739.33,847.59,760.76Z"/><path class="cls-2" d="M867.45,707.74A100.26,100.26,0,1,1,966.62,809.2C911.41,808.65,867,763.22,867.45,707.74Zm98.6,85.38c25.06-.4,44.83-10.08,59.43-29.73,13.21-17.77,6.94-41.36-13.56-49.71a17.43,17.43,0,0,0-13.47.94c-21,12.24-41.33,12.28-62.07-.45a15.05,15.05,0,0,0-11.11-1.28c-20.43,6.51-28.71,31.31-16.5,48.87C922.76,781.88,942.31,792,966.05,793.12Zm1.58-79.38a45.25,45.25,0,1,0-45.12-45.2A45.3,45.3,0,0,0,967.63,713.74Z"/><path class="cls-2" d="M269.85,538.43A99.92,99.92,0,0,1,170,438c.09-55.32,45.24-100.39,100.41-100.22,55,.18,100.25,45.68,100.14,100.73S325.27,538.44,269.85,538.43Zm-.23-16.09c25.05-.5,44.61-10.51,58.87-30.38,12.09-16.82,6.41-39.59-12.57-48-4.46-2-11.73-1.7-16,.66-20.21,11.21-39.61,11.13-59.82,0-4.26-2.34-11.24-2.3-16-.64-16.62,5.77-24.69,32.78-13.31,47.18C226.32,510.87,245.23,521.8,269.62,522.34ZM270.34,353A44.49,44.49,0,0,0,225,397.79c-.06,24.89,20.26,45.59,44.85,45.67s45.5-20.59,45.51-45.17A45,45,0,0,0,270.34,353Z"/><path class="cls-2" d="M401.51,789a100.45,100.45,0,0,1-100.75,99.85c-55-.26-100-45.77-99.81-101,.16-55.07,45.55-99.86,100.95-99.64A100,100,0,0,1,401.51,789Zm-100.8,83.75c24.77-.62,44.46-10.5,58.83-30.31,12.48-17.22,6.25-40.69-13.39-48.88-4.13-1.72-10.8-1.24-14.69,1-20.62,11.94-40.48,11.68-60.9-.43-3.51-2.08-9.67-2.4-13.5-.83-20.43,8.38-26.62,32-13.46,49.75C257.87,862.27,277.15,872,300.71,872.74ZM346.4,747.87c-.16-25-20.59-45.28-45.39-45a45.24,45.24,0,1,0,.66,90.48A44.67,44.67,0,0,0,346.4,747.87Z"/><path class="cls-2" d="M1558.47,180.7c55.27.38,99.87,45.58,99.64,101-.23,55.13-45.59,99.9-101,99.64-55.21-.25-99.9-45.57-99.57-101A100.33,100.33,0,0,1,1558.47,180.7Zm-.17,184.54c24.44-.73,43.21-11.44,58.35-30.68,13.11-16.66,2.94-42.65-14.66-48.81-4-1.39-10-.94-13.54,1.16-20.48,12-40.45,12.11-60.94.15-3.37-2-8.66-3.1-12.2-1.95A32.16,32.16,0,0,0,1498.93,334C1513.26,354.6,1533.25,364.7,1558.3,365.24ZM1556,285.93a45.19,45.19,0,0,0,47.1-43.28c1-24.69-18.58-46.05-43.41-47.24-24.47-1.19-46.05,18.81-47,43.54A45,45,0,0,0,1556,285.93Z"/><path class="cls-2" d="M1248.13-84.09c1-55,46.06-99.19,100.5-98.67,55.93.54,101.55,47.1,100.06,102.13-1.5,55.49-47.8,100.28-102.14,98.8C1290.83,16.65,1247.13-28.76,1248.13-84.09Zm99.69,86.2c24.59-1.13,44.45-10.59,58.73-30.62a32.42,32.42,0,0,0-9.79-47.13c-6.65-4-12.32-5.13-20-.22-18.48,11.8-38.35,11.86-56.83.09-8.27-5.28-14.26-3.68-21.13.79-16,10.41-20,30.82-8.91,46.33C1304.15-8.68,1323.88,1,1347.82,2.11Zm-44.53-124.88a44.89,44.89,0,0,0,44.76,45.48c24.82.12,45.45-20.31,45.48-45a45.4,45.4,0,0,0-45-45.44C1323.39-167.94,1303.42-148.06,1303.29-122.77Z"/><path d="M966.05,793.12c-23.74-1.15-43.29-11.24-57.28-31.36-12.21-17.56-3.93-42.36,16.5-48.87a15.05,15.05,0,0,1,11.11,1.28c20.74,12.73,41.09,12.69,62.07.45a17.43,17.43,0,0,1,13.47-.94c20.5,8.35,26.77,31.94,13.56,49.71C1010.88,783,991.11,792.72,966.05,793.12Z"/><path d="M967.63,713.74a45.25,45.25,0,0,1,.11-90.5,45.25,45.25,0,1,1-.11,90.5Z"/><path d="M269.62,522.34c-24.39-.54-43.3-11.47-58.82-31.12-11.38-14.4-3.31-41.41,13.31-47.18,4.78-1.66,11.76-1.7,16,.64,20.21,11.1,39.61,11.18,59.82,0,4.24-2.36,11.51-2.63,16-.66,19,8.38,24.66,31.15,12.57,48C314.23,511.83,294.67,521.84,269.62,522.34Z"/><path d="M270.34,353a45,45,0,0,1,45,45.28c0,24.58-20.85,45.26-45.51,45.17S225,422.68,225,397.79A44.49,44.49,0,0,1,270.34,353Z"/><path d="M300.71,872.74c-23.56-.78-42.84-10.47-57.11-29.69-13.16-17.74-7-41.37,13.46-49.75,3.83-1.57,10-1.25,13.5.83,20.42,12.11,40.28,12.37,60.9.43,3.89-2.25,10.56-2.73,14.69-1,19.64,8.19,25.87,31.66,13.39,48.88C345.17,862.24,325.48,872.12,300.71,872.74Z"/><path d="M346.4,747.87a44.67,44.67,0,0,1-44.73,45.46,45.24,45.24,0,1,1-.66-90.48C325.81,702.59,346.24,722.85,346.4,747.87Z"/><path d="M1558.3,365.24c-25-.54-45-10.64-59.37-31.24a32.16,32.16,0,0,1,16.38-48.89c3.54-1.15,8.83,0,12.2,1.95,20.49,12,40.46,11.85,60.94-.15,3.59-2.1,9.57-2.55,13.54-1.16,17.6,6.16,27.77,32.15,14.66,48.81C1601.51,353.8,1582.74,364.51,1558.3,365.24Z"/><path d="M1556,285.93a45,45,0,0,1-43.27-47c.91-24.73,22.49-44.73,47-43.54,24.83,1.19,44.44,22.55,43.41,47.24A45.19,45.19,0,0,1,1556,285.93Z"/><path d="M1347.82,2.11c-23.94-1.07-43.67-10.79-57.94-30.76-11.09-15.51-7.1-35.92,8.91-46.33,6.87-4.47,12.86-6.07,21.13-.79,18.48,11.77,38.35,11.71,56.83-.09,7.69-4.91,13.36-3.76,20,.22a32.42,32.42,0,0,1,9.79,47.13C1392.27-8.48,1372.41,1,1347.82,2.11Z"/><circle class="cls-3" cx="272.03" cy="444.45" r="118.03"/><circle class="cls-4" cx="1350.78" cy="-82.57" r="118.03"/><circle class="cls-3" cx="1559.4" cy="279.76" r="126.27"/><circle class="cls-4" cx="302.23" cy="793.06" r="118.03"/><circle class="cls-5" cx="967.87" cy="709.34" r="118.03"/><circle class="cls-6" cx="967.59" cy="707.96" r="122.82"/><path class="cls-7" d="M922.63,669.32l26.93,31.23-23.62,24.63c-1.29-1.63-2.53-3.23-3.77-4.82-.34-.44-.7-.86-1-1.31a1.21,1.21,0,0,0-1.5-.53,1.14,1.14,0,0,0-.73,1.28v69.28a18.36,18.36,0,0,1-1.64,8.13,15.8,15.8,0,0,1-9.49,8.27c-7.36,2.5-14.46,1.81-21-2.49a15.63,15.63,0,0,1-7.36-14.19c.09-5.44.1-10.88.15-16.32l.13-17.92q.06-7.59.14-15.16l.14-15.84c0-3.74.07-7.47.13-11.21a1.34,1.34,0,0,1,.36-.89q20.87-20.93,41.77-41.81Z"/><path class="cls-8" d="M1014.85,683.57a26.54,26.54,0,0,0-2.06-2.31,6.6,6.6,0,0,0-6.69-1.16,20.91,20.91,0,0,0-6.84,4,109.33,109.33,0,0,0-13.12,12.88L959.7,726.36l-17,18.82-.66.7c-4.91-6.29-9.81-12.55-14.71-18.85l3.6-3.77,20.13-21L963,689.92c2.25-2.34,4.61-4.61,6.73-7,3.56-4,7-8.15,10.5-12.28,10.51-12.63,21-25.31,31.55-37.92a44.65,44.65,0,0,1,14.06-11.44,24.74,24.74,0,0,1,13.56-2.82c7.3.72,13.17,3.93,17.1,10.29a9.32,9.32,0,0,1,1.37,5.12c0,2.46,0,4.93,0,7.4a1.61,1.61,0,0,1-.42,1q-9.85,9.57-19.72,19.11l-12.56,12.19Z"/><path class="cls-9" d="M1058.34,681.12v5.39q.06,9.24.13,18.41.08,7.86.14,15.7l.14,15.29.14,15.71L1059,767l.14,15.63c0,2,.07,4,.08,6a15.39,15.39,0,0,1-7.12,13.68c-7.53,5-15.57,5.58-23.69,1.55-5.77-2.89-8.59-7.9-8.61-14.27-.07-23.16,0-46.33,0-69.49a1.42,1.42,0,0,1,.37-.89q18.78-18.81,37.58-37.6A6.66,6.66,0,0,1,1058.34,681.12Z"/><path class="cls-10" d="M943.61,747.74l5.95-6.63,39.77-44.23a94.74,94.74,0,0,1,11.53-11.13,19.75,19.75,0,0,1,5.57-3.31c2.71-1,4.69-.28,6.18,2.2a23.17,23.17,0,0,1,2.65,7.88,105.15,105.15,0,0,1,1.54,16.23c.11,3.29.15,6.59.18,9.89a2.15,2.15,0,0,1-.4,1.19L984.47,761a33,33,0,0,1-7.5,7.5A25.21,25.21,0,0,1,969,772a2.36,2.36,0,0,1-1.15,0,21.48,21.48,0,0,1-9.06-5.37,54.78,54.78,0,0,1-6.16-7.18L944,748.27A4.43,4.43,0,0,1,943.61,747.74Z"/><path class="cls-11" d="M967.94,681.39l-16.76,17.46-2.58-3Q936.17,681.46,923.79,667a24,24,0,0,0-6.72-5.77,22.22,22.22,0,0,0-12.57-2.56,33.45,33.45,0,0,0-21.23,9.73c-.95.92-1.73,2-2.72,3.1v-2.44c0-3.11.07-6.22.1-9.34q.08-8.81.13-17.64c0-2.77.09-5.53.08-8.3a9.09,9.09,0,0,1,1.31-4.62A20.4,20.4,0,0,1,893.63,620c6.92-2.41,13.54-1.34,19.9,2a43.53,43.53,0,0,1,13,10.69c6.48,7.62,12.82,15.36,19.29,23,7,8.24,14,16.39,21.09,24.57A10,10,0,0,0,967.94,681.39Z"/><path class="cls-12" d="M1019.25,716.6v-3.85a129.64,129.64,0,0,0-1.52-19.49c-.41-2.31-1.12-4.61-1.73-6.92a.74.74,0,0,1,.21-.88l16.41-15.88,11.47-11.12q6.77-6.59,13.56-13.14a4,4,0,0,1,.37-.28v2.77q0,4,0,8l.14,18.27c0,1.1,0,2.21,0,3.32a.9.9,0,0,1-.42.93,3.08,3.08,0,0,0-.57.57L1020,716.08c-.18.21-.36.42-.52.64Z"/><path class="cls-13" d="M880.25,708.17V700.1c0-2.93.07-5.86.1-8.79,0-4.45,0-8.9.13-13.35a8.6,8.6,0,0,1,1.08-3.38,22.25,22.25,0,0,1,7.91-8.24A30.76,30.76,0,0,1,905,661a19.29,19.29,0,0,1,13.37,3.9c1,.76,1.85,1.65,2.72,2.43Z"/><circle class="cls-14" cx="967.59" cy="707.96" r="124.89"/></g></svg>