<?xml version="1.0" encoding="utf-8"?>
<!-- Generator: Adobe Illustrator 24.1.2, SVG Export Plug-In . SVG Version: 6.00 Build 0)  -->
<svg version="1.1" id="Layer_1" xmlns="http://www.w3.org/2000/svg" xmlns:xlink="http://www.w3.org/1999/xlink" x="0px" y="0px"
	 viewBox="0 0 1920 1080" style="enable-background:new 0 0 1920 1080;" xml:space="preserve">
<style type="text/css">
	.st0{fill:#ECECEC;}
	.st1{fill:#109BDC;}
	.st2{fill:#BC6E49;}
	.st3{fill:#6AB7A1;}
	.st4{fill:#BB6E49;}
	.st5{fill:#407A68;}
	.st6{fill:#BB6F4A;}
	.st7{fill:#040303;}
	.st8{fill:#F98C82;}
	.st9{fill:#FB8E84;}
	.st10{fill:#6AB49E;}
	.st11{fill:#B1B2B1;}
	.st12{fill:#69B39D;}
	.st13{fill:#F5EDE8;}
	.st14{fill:#46826F;}
	.st15{fill:#EEEBE7;}
	.st16{fill:#65AF9A;}
	.st17{fill:#DFD0C8;}
	.st18{fill:#E0D2CB;}
	.st19{fill:#472E2E;}
	.st20{fill:#281C1C;}
	.st21{fill:#250808;}
	.st22{fill:#2A0C0C;}
	.st23{fill:#582525;}
	.st24{fill:#201818;}
	.st25{fill:#505454;}
	.st26{fill:#461F1F;}
	.st27{fill:#534F4F;}
	.st28{fill:#697171;}
	.st29{fill:#3A2828;}
	.st30{fill:#253030;}
	.st31{fill:#1F2525;}
	.st32{fill:#2A1212;}
	.st33{fill:#211010;}
	.st34{fill:#221717;}
	.st35{fill:#2E0C0C;}
	.st36{fill:#3E5177;}
	.st37{fill:#FEFFFF;}
	.st38{fill:#3F5277;}
	.st39{fill:#4A5979;}
	.st40{fill:#445476;}
	.st41{fill:#44567A;}
	.st42{fill:#465779;}
	.st43{fill:#445578;}
	.st44{fill:#4D5D7E;}
	.st45{fill:#C8D2D9;}
	.st46{fill:#C8D2DC;}
	.st47{fill:#AFBBC8;}
	.st48{fill:#BDC0C9;}
	.st49{fill:#C6CFD5;}
	.st50{fill:#C3D5DE;}
	.st51{fill:#BCCAD5;}
	.st52{fill:#B4C5D1;}
	.st53{fill:#CBBBAF;}
	.st54{fill:#C5BAB8;}
	.st55{fill:#C4B3A1;}
	.st56{fill:#DDF7F9;}
	.st57{fill:#D8F0F3;}
	.st58{fill:#CAF3F4;}
	.st59{fill:#DCEDEF;}
	.st60{fill:#AEAEAD;}
	.st61{fill:#ADAFAE;}
	.st62{fill:#ADAEAD;}
	.st63{fill:#AEAFAF;}
	.st64{fill:#AFAEAE;}
	.st65{fill:#FD8579;}
	.st66{fill:#B1B2B2;}
	.st67{fill:#AFB0AF;}
	.st68{fill:#B0B0AF;}
	.st69{fill:#3A547B;}
	.st70{fill:#FA948B;}
	.st71{fill:#F98E83;}
	.st72{fill:#FC887D;}
	.st73{fill:#F7F7F7;}
	.st74{fill:#D1D6D6;}
	.st75{fill:#38ABDE;}
	.st76{fill:#A7ABAB;}
	.st77{fill:#375A83;}
	.st78{fill:#38577F;}
	.st79{fill:#365B85;}
	.st80{fill:#35608C;}
	.st81{fill:#375C86;}
	.st82{fill:#395982;}
	.st83{fill:#39557D;}
	.st84{fill:#87A8B4;}
	.st85{fill:#E0EEF2;}
	.st86{fill:#CFDCDC;}
	.st87{fill:#D5D1CC;}
	.st88{fill:#E9ECEC;}
	.st89{fill:#D7DBDB;}
	.st90{fill:#A3C6C6;}
	.st91{fill:#FEFEFE;}
	.st92{fill:#86A0A0;}
	.st93{fill:#EBEBEC;}
	.st94{fill:#E2D9D3;}
	.st95{fill:#8B482E;}
	.st96{fill:#904B30;}
	.st97{fill:#8F492E;}
	.st98{fill:#924D30;}
	.st99{fill:#ECEBEB;}
	.st100{fill:#EBE8E8;}
	.st101{fill:#F68A7F;}
	.st102{fill:#427B68;}
	.st103{fill:#447F6C;}
	.st104{fill:#447E6C;}
	.st105{fill:#0D0706;}
	.st106{fill:#090504;}
	.st107{fill:#DFD7D2;}
	.st108{fill:#5DA38E;}
	.st109{fill:#100705;}
	.st110{fill:#B2AFAE;}
	.st111{fill:#EBE9E9;}
	.st112{fill:#B4AFAE;}
	.st113{fill:#E9DCDA;}
	.st114{fill:#FCF3F2;}
	.st115{fill:#E9DDDC;}
	.st116{fill:#E6C8C6;}
	.st117{fill:#BAC0CE;}
	.st118{fill:#D9DEE5;}
	.st119{fill:#BCC2CF;}
	.st120{fill:#B0BBCA;}
	.st121{fill:#DBE1E8;}
	.st122{fill:#C9D3DC;}
	.st123{fill:#DBE2E9;}
	.st124{fill:#BFCDD7;}
	.st125{fill:#BFCBD6;}
	.st126{fill:#EBF3F5;}
	.st127{fill:#E6F4F6;}
	.st128{fill:#DDF4F6;}
	.st129{fill:#D4E2E8;}
	.st130{fill:#DCDFE6;}
	.st131{fill:#CBD0DA;}
	.st132{fill:#C9CFD9;}
	.st133{fill:#C7D3DC;}
	.st134{fill:#E0E2E8;}
	.st135{fill:#C5CCD7;}
	.st136{fill:#B8BFCD;}
	.st137{fill:#DBE9ED;}
	.st138{fill:#CFDAE2;}
	.st139{fill:#CEEDF1;}
	.st140{fill:#BED4DD;}
	.st141{fill:#BED2DC;}
	.st142{fill:#C2C1CF;}
	.st143{fill:#DCE4EA;}
	.st144{fill:#D8F2F5;}
	.st145{fill:#B7C3D1;}
	.st146{fill:#E5EEF1;}
	.st147{fill:#DEF2F5;}
	.st148{fill:#C1D4DC;}
	.st149{fill:#E1F5F7;}
	.st150{fill:#E4F2F4;}
	.st151{fill:#DAE5EB;}
	.st152{fill:#BBC5D1;}
	.st153{fill:#C7D6DF;}
	.st154{fill:#C4CBD6;}
	.st155{fill:#E7F1F5;}
	.st156{fill:#E6F3F5;}
	.st157{fill:#F38177;}
	.st158{fill:#6E8DA8;}
	.st159{fill:#BEC6C5;}
	.st160{fill:#ECEAEA;}
	.st161{fill:#FDFFFF;}
	.st162{fill:#BC6F4B;}
	.st163{fill:#655248;}
	.st164{fill:#1D0E0A;}
</style>
<g>
	<path class="st0" d="M1007.2,185.3c12.3,2,23.4,7,34.2,13.3c16.2,9.3,31.5,20,45.9,32c15.1,12.7,23.4,29.5,28.2,48.4
		c5.6,21.7,10,43.7,13.1,65.9c1.4,10.2,2.1,20.7,2.8,31.1c0.9,13.6,1.4,27.2,1.5,40.8c0.2,10-3.7,19.6-10.9,26.5
		c-7,6.9-13.5,14.4-22.3,19.1c-3.7,2-5.2,5.3-4.9,9.5c0.7,11.1-1.4,22.1,1.6,33.1c0.7,2.4,0.2,5,0.2,7.6c0.7,42.5-1.3,85-2.5,127.4
		c-1,35.5-0.3,71-1.2,106.5c0,1.9,0,3.8,0,5.7c0.1,4.7-2,7.2-6.8,7.1c-2.5,0-5.2-0.3-6.8,2.3c-4.7,2.5-9.8,2.5-14.9,2.5
		c-21.9,0.1-43.8,0.1-65.7,0c-13.5-0.1-14.8-1.7-15.7-15.5c-4-57.7-1.7-115.5-1.4-173.2c0.1-25.3,3.2-50.6,7.4-75.7
		c0.2-1.7,0.4-3.4,0.7-5.1c2-8.3,1.9-17.1,4.8-25.3c3.3-4.6,7.4-3.5,11.9-1.9c27.3,9.8,51.2,9.8,76.1,5.7
		c-30.1,5.6-59.1,1.9-87.3-9.8c-2.9-1.2-5.7-2.9-9-2.8c-17.5-4.5-33-13.2-48.6-21.7c-2.5-1.4-4.9-2.9-7.4-4.3c-4.8-2.7-6.4-1-5.7,4
		c2.5,18,0.6,36.2,1.2,54.3c0,2.2,0,4.4,0.1,6.6c1.9,62.1-1.4,124.3-10,185.8c-3.1,22.3-3.4,44.8-3.2,67.4
		c0.1,15.2-1.8,17-16.9,17.1c-7,0.2-14-0.2-20.9-1.2c-7-1.2-10,1.7-9.9,8.7c0.1,15.2,0.1,30.4,0,45.7c0,4.3,0.6,9-3.2,12.4
		c-2.8-3-1.7-6.7-1.7-10c-0.1-18.1-0.2-36.2,0.1-54.3c0.1-5.3-0.9-8.1-7-8.5c-6.9-0.5-13.7-2.2-20.5-3.6c-6.2-1.2-6.9-2.9-6.2-9.2
		c1.2-9.1,2-18.2,3.3-27.2c2-14.1,0.1-28.5,3.3-42.5c0.4-2.5,0.4-5.1,0.3-7.6c0-15.2-0.7-30.5,0.2-45.7
		c3.3-55.2,1.1-110.4,1.8-165.5c0.2-2.8,0.6-5.6,1.2-8.4c0.8-4.2,2.2-8.8-1.6-12.5c0.4-12.4,6.1-23.5,9.6-35.1
		c1.6-5.3,3.6-10.6,5.3-15.9c-2.9,9.5-6.8,18.7-9.8,28.2c-0.8,2.3-0.4,6.2-4.6,6.2c-2.8-2.2-4.6,0.4-6.5,1.6
		c-6.5,3.8-13.3,7.2-20.3,10.1c-9.1,4-18.6,4.2-28,3.2c-14.6-1.6-25.1-10.4-32-22.8c-9.2-16.7-14.4-34.6-16.8-53.8
		c-3.2-24.8,2.2-48.1,8.3-71.6c0.2-0.8,1.1-1.5,1.7-2.2c22.8,7.1,45.8,13.7,68.6,20.9c1.8,0.6,3.7,0.7,4.9,2.5
		c-0.7,12.1,0.2,24.5-5.2,35.9c-4.1-0.1-1.5-2.6-2.3-3.7c0.2,7.3-2.5,14.9-1.6,22.8c0.2,2.6-0.3,5.3-1.5,7.7c-0.2,0.3,0,0.2,0.5-0.7
		c1.9-3.2,0.9-9.9,6.5-8.6c4.2,1,2.3,6.6,2.4,10.2c0.1,4.9,0.9,10-0.7,13c2-6.1,2.6-14.8,0.3-21.7c-5.4-15.5,1.1-30,1.4-44.9
		c0.1-6,0.7-12.2,1-18.3c0,1.6-0.5,3.1-1.5,4.4c-2.7,1.9-5.3,0.9-8.1,0c-21.6-6.5-43.2-13.2-64.8-19.5c0.1-2.2,0.5-4.3,1.1-6.4
		c1.1-5.1,3.9-7,9.3-7.1c8.1-0.3,16.3,0.6,24.2,2.7c5.4,1.5,7.7,0.8,7.6-5c0.1-1.3,0.7-2.4,1.7-3.2c5.8,10.9,21.3,15.9,34,10.9
		c0.9-0.2,1.8-0.2,2.7,0.2c2.7,3.2,3.7,8,9.5,7.9c3.5-0.1,4,3.9,4.2,6.5c1.6,17.5,12.1,30,23.4,42c3,3.2,6.6,6.1,6,11.2
		c-2.7,9.3-3.1,19-5.1,28.4c-1.1,4.9,2.3,8.1,5.6,11.1c3.8,2.4,8.2,3.9,12.7,4.1c-4.6-4.1-9.5-1-12.4-4.1c-10.3-6.5-4.1-16-3.7-24
		c0.2-4.4,1-8.7,2.3-12.8c1.9-3.8,4.3-1.2,6.2-0.1c3.2,1.9,6.5,3.6,10,5.1c11.9,11.3,25.6,20.4,37.3,31.9
		c-0.2,10.4-8.4,1.7-11.9,4.8c9.8,2.2,11.4,1.3,12.4-6.8c1.6-16.1,4.6-32.1,9-47.7c0.3-1.5,0.8-3,1.5-4.3c4.1-5.3,9.1-2.8,13.8-1.3
		c18.7,5.7,37.1,12.4,55.8,18.3c9.5,7.7,20.1,13.9,30.6,20.1c10.5,6.2,20.6,12.5,30.8,18.5c-6.6-5.6-16.1-7.4-21.3-15.2
		c0.1-1.4,1-2.6,2.4-3c5.9-0.7,9.9,3.5,14.9,5.5c-10.6-6.2-22.2-10.2-33.1-15.6c-8.8-4.4-9.5-7.1-4.4-15.6
		c7.7-12.8,13.6-26.4,19.2-40.2c-5.9,13.7-11.5,27.5-19.4,40.1c-5.8,9.3-12.7,9.6-21.1,1.1c-2.1-17.9-1.4-36-2.2-54
		c-1.4-31.9-4-63.7-4.6-95.6c-0.4-5.3,0.3-10.7,1.8-15.8c6.3-3.4,8,3,11.5,5.4c0.3,10.5,7,18,12.4,26.1c3.8,5.6,4.4,10.5-1.4,14.8
		c-6.4,4.7-5.5,9-0.1,13.5c2.5,2.1,4.2,4.7,6.6,7c-0.6-0.9-1.3-1.7-2-2.5c-10.7-13.5-9.7-17.5,6.5-25.6c5.2,12.2,11.2,24.3,8,38.3
		c-1.4,2.1-3.4,3.7-5,5.6c-5.8,7.2-4.9,14.6,2.3,19.5c6.6,4.5,14.2,2.7,18.7-4.4c4.5-7.1,2.1-15.1-5.6-19.1c-3-1.5-6.9-1.6-8.4-5.5
		c-3.5-22.3-10.5-43.2-25.4-60.7C1008.6,191,1005.3,189.1,1007.2,185.3z"/>
	<path class="st1" d="M861.7,835.5c-0.7-20.9-0.2-41.8,0.2-62.7c0.2-8.3,0.3-8.6,8.5-7.6c11.1,1.3,22.1,1.8,33.2,2.2
		c4.6,0.2,6-1.5,5.9-6.1c-0.3-11.7-0.3-23.4,0-35.2c0.5-23.2,3.8-46.1,6.6-69c4.6-36.8,6.9-73.8,7.1-110.9c0-16.2,0.3-32.3,0.5-48.5
		c22.7-3.5,45.3-4.8,67.9,0.8c-1.3,12.3-2.5,24.6-4,36.8c-3.8,31.9-4.1,64-3.9,96c0.3,40.3,0.1,80.6,1.8,120.8
		c0.3,8.4,0.2,8.5,8.3,8.6c26.3,0.1,52.7,0.1,79,0c2.2,0,4.4-0.5,6.3,1.1c0.1,1.7,0.2,3.5,0.3,5.3c0.1,27.9,0.2,55.8,0.3,83.7
		c0.3,45.1,0.2,90.1-0.8,135.1c-0.1,3.8-0.5,7.6-0.9,11.4c-0.9,9.2-0.9,9.2-10.6,10.4c-9.5,5.9-20.2,4-30.5,4.3
		c-3.8,0.1-7.6-0.3-11.4,0.6c-1.1,0.3-2.1,0.5-3.2,0.6c-2.2,0.1-4.4-0.5-6.2-1.9c-4.6-1.3-9.9,4-13.3,0c-2.7-3.1-0.9-8.6-1-13
		c-0.7-39.9-4.9-79.5-9.8-119.1c-2.5-19.4-4.3-39-6.5-58.5c-0.2-1.9-0.8-3.7-1.1-5.5c-4.7-3.7-3.3-9.2-3.8-14
		c-1.9-18.1-4.8-36.1-5.4-54.3c-3.3-27.8-7.9-55.6-7.6-83.7c0-3.1-0.2-6.2,0.1-8.2c-0.8,2,0.1,5.1-0.2,8.1
		c0.3,27.4-2.1,54.5-5.7,81.6c-1.2,21.8-4.9,43.4-3.9,65.3c0.3,5.8,2.9,11.9-0.8,17.6c0.2,17.1,3.5,33.9,6.4,50.7
		c6,33.5,13.9,66.7,23.7,99.3c0.5,1.8,0.8,3.7,1.2,5.6c-4.1,2.2-8.8,1.1-12.9,2.9c-1.2,1.3-2.8,2.1-4.5,2.3
		c-12.9,1.8-25.5-1.4-38.3-2c-3.2-0.2-5.8-2.1-8.5-3.8c-2.5-0.6-4.9-1.1-7.4-1.7c-2-0.4-3.4-1.1-4-3.4
		c-3.8-14.2-11.3-26.9-17.7-39.9c-11.8-24-22.3-48.4-28.6-74.4c-0.2-0.6-0.6-1.1-1-1.6L861.7,835.5z"/>
	<path d="M1026.5,36.4c12.5,2.6,14.5,4.8,14.4,17.6c-0.2,18-3,35.8-8.3,53c-2.7,9-4.4,18.3-8.6,26.8c-1.7,0.4-2.5-0.7-3.2-1.9
		c-0.7-9.5-5.1-15.5-15.3-15.8c-4-2.7-10.1,0-13.1-5.2c-1.5-2.9-2.4-6.1-2.9-9.4c-0.5-10.7,3.9-20.4,5.9-30.6
		c0.4-2.1,1.8-4.7-0.2-6.2c-2-1.6-4.3,0-6.2,1c-8.6,4.6-17.2,8.3-26.8,2.4c-1.2-0.8-3.1,0.1-4.6,0.6c-1.2,0.4-2.5,1.2-3.6,1.1
		c-11.1-0.8-22.1-2.1-32.7-5.8l-0.5-3.9c-0.5-1.6-1.1-3.1-1.9-4.5c-2.5-3.3-6.3-0.8-9.2-1.9c-1.8-0.5-3.7-0.8-5.6-0.8
		c-0.7,0-1.4-0.4-1.8-1c-0.1-0.6-0.2-1.2-0.3-1.9c-1.7-13.5,2.7-18.3,16.8-17.7c2.8,0.1,5.7,0.4,8.5,0.6c0.3-0.7,0.8-1.4,0.7-1.7
		c-2.7-4.1-3.6-8.3-0.2-12.2c3.6-4.2,8.4-5.2,13.8-4.2c4.4,0.8,8.1,3.3,12.3,5.3c2.3-4.3,3.5-9.4,9.2-10c5.3-1.2,10.5-1.9,15.5,0.9
		c3.9,2.1,7.2,5.2,11.8,6.1c0.9,0,1.8,0.1,2.7,0.1c1.8,0,3.7,0,5.5,0c3.3,0,6.7,0,10,0c2.9,0,5.8,0.9,8.2,2.6
		c2.2,1.7,4.1,3.8,5.5,6.3C1024.6,28.9,1024.2,33.2,1026.5,36.4z"/>
	<path class="st2" d="M1005.1,114.3c4.9,0.5,10.1-0.5,13.9,4.1c3.3,4,3.4,8.6,3.1,13.3c-0.9,6.2-4.3,10.2-10.5,11.7
		c-13.9,3.4-13.8,3.5-13.3,18.5c0,1-0.7,1.9-1.6,2.1c-3.4,3.3-2.5,7.5-2.6,11.6c0.8,1.4,0.8,3.2-0.1,4.6c-1,4.7,0.2,9.7-1.8,14.3
		c-1,9.2-7.7,12.7-15.4,14c-10.7,1.8-20.8,0.1-28.1-9.2c-1.3-1.8-2.3-3.8-2.8-6c-1-5.7-0.9-11.5,0.2-17.2c0.3-0.9,0.8-1.8,1.5-2.5
		c8.9-0.8,16.4-6.4,23.8-7.6c-6.5,2.2-15.5-1.7-22.7,4.5l-1.2-0.5c0.4-2.5,1.3-5-2.6-5.7c-3.1-0.5-6.2-1.2-9.1-2.2
		c-14.6-5.1-20.3-18.8-17.6-34.3c0.3-1.5,1.9-1.2,3.1-1.4c6.8,0.2,12.7-3.6,19.3-4.4c3.3,4.4,3.4,11.2,9.3,13
		c-8.1-7.3-7.9-10.7,1.9-24.5c5.4-0.5,7.5,3.8,9.8,7.4c6.9,10.1,10.4,11.4,22.9,8.1c5.6-1.9,6-8.9,11.2-11.3
		C998.6,114.2,1001.8,112.5,1005.1,114.3z"/>
	<path class="st3" d="M880.9,356.8c-6.4,0.7-10.1-3.9-14.4-7.4c-2,0.2-2.1-1.5-2.7-2.7c-2.1-5.6-6.9-8.9-10.8-13
		c-11.7-12.3-19.7-26.2-19.8-43.8c-9,2.8-9.3,2.6-11.5-9.1c-1.4-4.4-1.2-8.5,2.5-11.8c3.8,2.3,5.5-1.9,8.3-2.7
		c6.5-1.9,8.6-0.3,8.4,7.4c3.1-5.6,5.2-11.7,6.4-18c-6.4,0.3-12.4,0.4-18.2,2.7c-0.9,0.1-1.8-0.4-2.1-1.2c3.3-5.4,5.8-11.4,12-14.4
		c5.4-4.2,10.9-2.6,15.8,0.6c12.6,8.1,22,18.7,24.6,34.1c0.1,2.3,0.5,4.6,1,6.8c0.6,2.1,0.7,4.3,1.1,6.5c0.3,1.2,0.6,2.5,1.1,3.7
		c3.9,11.5,11.9,19.6,21.6,26.4c3.7,2.6,8.6,4.2,10.1,9.3c0,1.3-0.3,2.8-1.4,3.4C901.4,340,891.9,349.4,880.9,356.8z"/>
	<path class="st3" d="M787.2,263.5c-3.1-4.5-1.7-9,0.3-13.4c4.1,4.4,8.2-0.1,12.3,0c-4.1-0.4-8.2,4-12.3,0
		c-2.3-19-11.2-35.4-20-51.9c-6.3-11.8-11-24.3-10.3-38.1c0.1-1.8-0.5-3.9,1.7-5c8.7,12.5,13.3,26.8,17.1,41.4
		c8.2,6,12.1,15.1,16.7,23.6c-4.2-8.7-7.8-17.8-16.6-23.4c-0.2-7.1,6.3-9.6,10-14c3.1-3.6,4.2-5.5,1.8-11c-4.9-11.2-9-23.2-7.8-36
		l1.6-1c2.2-1.3,0.9-5.9,4.1-5.5c3.5,0.4,4.7,4.1,5.3,7.1c1.6,7.7,2.6,15.5,4.1,23.3c1.8,9.7,5.6,18.7,9.8,27.6
		c1.2,2.6,2.5,5.1,5.4,6.4c-1.2,8.6-6,17.2-0.9,25.5c-1.5-8.7-3.5-18,4.9-25.6c2.9-3.7,3.4-8,4.1-12.4c0.7-4.4,2.4-8.6,6.9-10.7
		c4.7-2.2,8.2-0.3,8.5,4.9c0.1,4.4-0.7,8.9-2.3,13c-2.8,7.4-3.9,15.4-3.3,23.3c0.6,7.3-0.2,14.6-2.3,21.6c-1,3.6-2.5,7.2-2.2,11.1
		c-1.2,5.4-1.7,11.1,0.3,16.3c1.6,4.3,0,5.7-3.9,6C809.4,263,798.2,262.1,787.2,263.5z"/>
	<path class="st0" d="M877.7,278.6c-1.6-12-9.2-20.4-17.2-28.4c-5.8-5.8-12.9-8.8-21.4-7.4c9.2-15.2,20-29.1,34.6-39.7
		c13.1-9.6,28.3-15.7,44.4-17.7c2.5-0.3,4.9-1,7.4-1.5c0.8,1.8,0.5,3.8-0.7,5.3c-13.1,19.7-19,42.1-24.5,64.8
		C899.4,268.2,886.6,271.7,877.7,278.6z"/>
	<path class="st4" d="M921.2,63.9c4.7,2.9,9.2,1.4,13.5-0.9c2.9-1.5,4.7-2.1,6.7,1.6c2.2,4.1,6.4,4.8,10.8,3.4c3-1,5.9-2.3,8.8-3.5
		c1.5-0.6,2.9-1.5,4,0.4c4.1,6.9,9.6,4.3,15,2.2c6.2-2.5,11.7-6.1,19.2-7.8c-0.2,14.9-6.7,28-8.2,42c-0.7,0.5-1.6,0.7-2.4,0.3
		c-3.2-2.7-8.1-3.3-9.7-7.9c-3.4-7.6-6.8-9.7-15.9-9.6c1.6,5.4,9.7,3.8,10.5,9.8c-3.9,5.8-11.2,8.6-13.8,15.6
		c-1.1,0.8-2.5,1.3-3.9,1.3c-1.4-0.1-2.7-0.7-4.1-0.8c-2.8,0-5.5-0.7-7.9-2.1c-1-1-1.7-2.1-2.2-3.4c-2-7.9-9.8-8.8-15.2-12.6
		c1.9-6.8,10.6-2.6,13.2-8.2c-9.3-2-13.4,0.5-15.2,9c-1.9,0.8-3.7,0.8-4.9-1.1L921.2,63.9z"/>
	<path class="st5" d="M780.1,135.7c2.5,10.4,4.9,20.9,7.5,31.3c0.6,2.3,0.6,5.2,3.7,6c6.1,1.4,3.1,4.2,0.8,6.5
		c-4.4,4.6-9,9-13.4,13.5c-1,1.2-1.9,2.5-2.8,3.8l0.1-0.1c-1.9-0.3-5.4,0.9-4.9-2.4c1.7-10.5-5-18.2-8.1-27.1
		c-1.4-4.1-4.5-7.6-4.3-12.2c2.8-0.9,3.7,0.8,4.4,3c7.5,5.3,9,13.7,11.6,21.5c0.7,0.9-1,0.8,0.3,0.7c0.6,0,0.5-0.2,0-0.9
		c-0.3-0.5-0.6-1.1-0.7-1.7c-3.2-9.9-6.9-19.7-9.4-29.7c-0.8-3.2-4.4-7.6,1.4-10.2c2.5,1.1,3,3.6,4.1,5.8
		c8.3,8.1,8.2,19.4,11.3,28.3c-1.7-9.1-4.9-19-6.4-29.3c-0.4-3.2-2.5-8.4,4.7-6.9L780.1,135.7z"/>
	<path class="st6" d="M787.2,263.5c11.1-5.2,21.7-4,32.1,1.8c4.4,4.9,2.8,10.1,0.8,15.4c-1.6,2.7-3,4.7-7.2,4.2
		c-6.9-0.8-13.7-2-20.4-3.6c-7.2-1.8-7.2-1.8-7-9.2c0-0.9-0.1-1.9-0.1-2.8C786.1,267.3,786.6,265.4,787.2,263.5z"/>
	<path class="st6" d="M921,124.4l-2.4-0.8c-2.1,0.2-2.3-1.4-2.6-2.8c0-1,0.1-2,0.3-3c0.5-4.7,0.2-9.5,0.3-14.3c0.1-3.5,0.2-7.1,4-9
		c13.5-1.7,16.1-0.4,22,10.5c0.6,2.6,1.8,5.2,1,8C938.8,124.3,931.8,127.9,921,124.4z"/>
	<path class="st7" d="M997,162.8c-3.4-6.4-1.1-12.8,0.1-19.1c0.6-3.1,3.5-2.1,5.5-1.8c8.9,1.2,15.3-2.5,19.5-10.2l1.9,2.1
		c-0.1,0.9-0.2,1.9-0.3,2.8l-0.3,0.6c-3.9,10.4-9.6,19.2-20.4,23.7c-0.8,0.7-1.1,1.8-2,2.5c-0.7,0.3-1.4,0.4-2.1,0.4
		C998.2,163.5,997.6,163.2,997,162.8z"/>
	<path class="st8" d="M898.2,254c5.1-24.9,12.2-49.1,27.3-70.1c6.7-5.5,13.1-11.5,21.8-13.8c0.3-0.1,0.7-0.1,1-0.1
		c0.9,1.2,0.8,2.8-0.1,4h-0.9c-1,1.3-2.2,2.5-3.7,3.3c-3.7,1.7-7.1,4-9.9,7c-0.8,0.9-1.7,1.8-2.6,2.8c-6.8,7.8-12,16.8-15.5,26.5
		c-2.1,6.3-4.5,12.5-5.9,19c-0.7,2.5-1.6,5-2.4,7.5c-0.6,1.6-1,3.3-1.4,4.9c-0.5,2.5-1.4,5-2.5,7.4c-0.6,1.2-1.7,2.1-3,2.5
		C899.6,255,898.8,254.6,898.2,254z"/>
	<path class="st9" d="M993.9,180.2c0-1.5,0-3.1,0.1-4.6l13.3,9.7c16.7,17.5,24.8,39.1,29.5,62.2c0.3,2.2,0.5,4.4,0.6,6.5
		c-1,2.6-1.3,6.2-5.6,3.8c1.7-1.9,2.4-4.5,1.8-7c-2.6-10.5-3.8-21.5-9.4-31.1c-1.5-0.9-2.7-2.3-3.4-3.9c-3.2-6.6-6.4-13.2-11.1-18.9
		c-1.5-2.4-3.2-4.6-5.3-6.6c-0.8-0.9-1.4-2-1.8-3.1C1000.2,184.3,997.3,181.8,993.9,180.2z"/>
	<path class="st10" d="M780,135.5c-2.8,0.3-3.7,1.5-3,4.4c2.7,11.3,4.9,22.6,7.6,33.9c0.6,2.6,1.2,4.8-2.5,7.3
		c-3.9-13-7.2-25.6-11.9-37.7c2.9-2.1,1.4-5.2,1.9-7.8c0.2-1.8,0.5-3.7,1-5.5c0.3-1.6,1.8-2.7,3.4-2.7c0.9,0.1,2,1.5,2.5,2.5
		C779.5,131.9,779.9,133.7,780,135.5z"/>
	<path class="st11" d="M835.3,423.9c3.9-11,7.8-22,11.7-33c0.7-2.1,1.5-4.2,2.3-6.2c0.7-1.5,1.9-3,3.6-2.2c1.7,0.8,1.2,2.7,0.6,4.2
		c-7.3,17.6-12,36-18.8,53.8c-2.4-0.9-3.5-2.4-2.6-5C833.4,431.6,835.2,428,835.3,423.9z"/>
	<path class="st12" d="M766.3,137.7c-3.3,3.2-0.9,6.3,0.2,9.5c3.9,10.5,7.9,21.1,9.6,32.3c0.7,2-0.2,2.5-2,2
		c-2.8-8.2-7.2-15.7-11.1-23.4c2.1-2.2,1-4.6,0.4-6.9c-0.9-3.9-1.2-7.9-0.9-11.9C762.9,137.1,764,135.7,766.3,137.7z"/>
	<path class="st13" d="M921,95.5c-2.9,3.1-1.5,7-1.9,10.6c-0.6,4.9,0.7,9.9-1.6,14.6c-1.8-2-1.8-4.7-2.9-7.8c0.8,3.2,1,5.8,2.9,7.8
		c0.4,1,0.8,1.9,1.2,2.9c-4.9,0-7.3-3.5-8.7-7.3c-1.3-3.5-3.2-6.7-5.7-9.4c6.7-2.7,7.4-11.4,14.8-13.2
		C921.1,92.8,921.3,93.9,921,95.5z"/>
	<path class="st14" d="M814.2,193.4c-1.5,5.7-4.6,10.9-4,17.2c0.3,4,1.4,8,3.3,11.6c0.7,1.2,0.4,2.8-0.8,3.5
		c-0.2,0.1-0.5,0.2-0.7,0.3c-1.5,0.5-2.2-0.7-3-1.7c-6.1-8.6-5.6-20.5,1.2-30.8L814.2,193.4z"/>
	<path class="st15" d="M820.1,280.7l-0.8-15.4c1.7-1.1,5.1-0.1,3.5-4.7c-1.8-5.3-2.2-11.1,0.8-16.5c1.1,5.1-1.4,10.6,1.8,15.5
		c2.6,1.8,2.6,4.4,2,7.1c-0.3,1-1,1.9-1.9,2.5c-2.2,3.5-1.1,8-3.6,11.4L820.1,280.7z"/>
	<path class="st16" d="M826.2,267.4c-0.3-2.6-0.6-5.2-0.9-7.8l1.8-2.5c0.2,0.3,0.4,0.5,0.6,0.8c4.2,1,7.4-3,11.6-2.1
		c2.8,0.6,6,0.3,6.2,4.2c0.1,2.6-1.9,4.8-4.4,4.9c-0.1,0-0.2,0-0.3,0C835.6,264.7,831.2,268,826.2,267.4z"/>
	<path class="st17" d="M921,95.5l-2-1.7c0.1-0.8,0.3-1.5,0.5-2.3l4.9-0.1c0.9-0.6,2-0.7,2.9-0.1c7.6,1.1,13.8,4.2,16.3,12.2
		c-0.5,0.9-0.6,2.2-2,2.5C937.5,96.9,930.3,94.1,921,95.5z"/>
	<path class="st18" d="M921,124.4c9.8,1.2,17.4-1.9,20.8-11.9c1.4,0.3,2.5,1.3,3.1,2.6c0.7,3.9-1.1,6.3-4.6,7.6
		c-5.9,3.6-11.6,8.4-19.2,3.8L921,124.4z"/>
	<path class="st19" d="M978.7,13.6c-4.5-4.7-10.5-2.5-15.8-3.7c8.9-2.5,18.4-1.9,27.1,1.5c0.4,0.4,0.6,1,0.6,1.5
		c-0.1,0.6-0.2,0.8-0.3,0.8C986.3,16,982.5,12.6,978.7,13.6z"/>
	<path class="st20" d="M1026.5,36.4c-3.7-2.4-4.2-6.6-5.9-10.1c0.3-2.3-2.5-4-1-6.5c0.4-0.7,1.3-0.9,1.9-0.4c0,0,0,0,0,0
		C1026.1,24.3,1024.2,31,1026.5,36.4z"/>
	<path class="st21" d="M1009.5,19.2l-12.1,0.3c-1.2-1-2.7-1.7-4.2-2.1c-0.7-0.3-1.4-0.8-1.9-1.4c-0.4-0.7-0.4-1.5-0.1-2.3
		c1.2-1.2,3-0.6,4.3-1.6l1.9-0.4c0.8,0.3,1.5,0.7,2.2,1.2C1002,16.3,1008.1,14,1009.5,19.2z"/>
	<path class="st22" d="M921.2,54l-0.4,6c-1.1-1-2.1-1.9-3.9-1.1c-2.8,1.1-5.9,1.3-8.8,0.4c-0.5-0.4-0.7-1-0.6-1.6
		c0.2-0.5,0.3-0.8,0.5-0.8C912.2,55.2,916.2,52.5,921.2,54z"/>
	<path class="st23" d="M997.6,13.7c-0.1-0.6-0.1-1.2-0.2-1.9c3.6-3.1,7.6-1.9,11.6-1.3c0.4,0.8,0.1,1.8-0.7,2.4
		C1005,14.5,1001.1,14.8,997.6,13.7z"/>
	<path class="st24" d="M997,162.8h2.9c0.6,0.7,1.1,1.5,1.3,2.5v0.9l0.2,3.4c0.5,0.6,0.5,1.4,0,2c-3-1.6-3.6-4.7-4.7-7.5
		C997,163.7,997.1,163.2,997,162.8z"/>
	<path class="st25" d="M907.7,57c0.1,0.8,0.2,1.5,0.2,2.2c-3.9-0.9-5.7-3.5-5.8-7.4c0.4-0.1,0.9-0.2,1.3-0.2
		c1.3,0.2,2.5,0.8,3.3,1.8C907.7,54.4,908,55.7,907.7,57z"/>
	<path class="st26" d="M1001,163.2c0-1.2,0.9-2.1,2-2.3c0.7,1.7,1.4,3.4,2.1,5c0.6,0.4,0.8,1.1,0.6,1.7l-0.9,0.4l-3.5-1.9l0.1,0.3
		C1000.3,165.6,1000.2,164.2,1001,163.2z"/>
	<path class="st27" d="M1008.5,12.2c0-0.6,0.2-1.3,0.4-1.8c2.2-0.1,4.2,0.8,5.7,2.4c0.7,0.7,0.9,1.8,0.4,2.7
		C1011.5,17,1009.5,15.8,1008.5,12.2z"/>
	<path class="st28" d="M1006.9,166.5c1.8,0.3,4.2,1.3,2.9,3c-1.5,2-3.7,0.2-5.1-1.4c-0.1-0.3,0-0.7,0.3-0.8
		C1005.7,167.2,1006.4,167,1006.9,166.5z"/>
	<path class="st29" d="M995.4,12.2c-0.9,1.5-2.5,1.6-4,1.7c-0.4,0.4-1.1,0.3-1.5-0.1c-0.1-0.1-0.2-0.3-0.2-0.5
		c0.1-0.6,0.2-1.2,0.2-1.9L995.4,12.2z"/>
	<path class="st30" d="M1016.5,14.2c1.7,0.4,3,1.7,3.5,3.4c-0.5,0.6-1.2,0.9-2,0.9c-1.2-0.2-2.2-1.1-2.5-2.3
		C1015.5,15.4,1015.8,14.7,1016.5,14.2z"/>
	<path class="st31" d="M1018.4,17.6c0.5,0,1.1,0,1.6,0c0.9,0.2,1.5,1,1.6,1.9c-0.6,0.1-1.2,0.2-1.7,0.3c-0.6,0.1-1.3-0.1-1.7-0.5
		C1017.8,18.6,1017.9,17.9,1018.4,17.6z"/>
	<path class="st32" d="M1001.3,171.6c0-0.7,0-1.3,0-2c1.1,0,1.9,0.9,1.9,1.9c0,0,0,0,0,0c0.6,0.5,0.7,0.9,0.5,1.2
		c-0.2,0.3-0.5,0.5-0.7,0.5C1002.1,173.2,1001.4,172.5,1001.3,171.6z"/>
	<path class="st33" d="M1003.1,173.3c0.1-0.6,0.2-1.1,0.2-1.7c1.1,0.2,2.5,0.4,1.9,1.9C1004.9,174.2,1003.7,174.2,1003.1,173.3z"/>
	<path class="st34" d="M1016.5,14.2c-0.1,0.5-0.1,1,0,1.5c-0.8,0.5-1.4,0.4-1.8-0.5v-2.4L1016.5,14.2z"/>
	<path class="st2" d="M1023.4,137.2l-0.3-0.4c0,0,0.6-0.2,0.6-0.1l0.3,0.5L1023.4,137.2z"/>
	<path class="st35" d="M1006.9,166.5c-0.1,0.6-0.7,1.1-1.3,1c-0.2,0-0.4-0.1-0.6-0.3c0.1-0.4,0.1-0.9,0-1.3L1006.9,166.5z"/>
	<path class="st36" d="M924.6,982.7c15.8,1.9,31.6,3.4,47.5,3.7c2,2.7-0.8,3.9-1.7,5.7c-0.6,0.9-1.1,1.8-1.5,2.9
		c-0.1,0.7-0.3,1.4-0.4,2.2c-0.5,1.8-1.2,3.6-2.2,5.2c-0.6,1.4-1,3-1,4.5c-0.1,2.1-0.3,4.1-0.8,6.2c-1.2,4.6-1.4,9.3-0.5,14
		c0.1,0.9,0.1,1.7-0.1,2.6c-1.2,3.4-4.3,5-7,6.9c-1.6,1.1-3,2.5-4.5,3.6c-0.6,0.5-1.2,0.9-1.9,1.2c-1.6,1-3.1,2-4.6,3.2
		c-0.6,0.5-1.2,0.9-1.9,1.2c-2.3,1.5-4.6,3-6.8,4.6c-1.6,1.2-3.1,2.8-5.2,3.4c-0.9,0.1-1.7-0.1-2.5-0.4c-3.8-3.9-9.7-5.9-11.1-12
		c1.6-4.8,4.6-8.7,7.4-12.8c1.2-0.6,2.1,0.5,3.1,0.7c-0.8-0.9-1.5-2-2-3.1l2.8-4.4c1.3-0.6,2.9-0.1,3.7,1.1
		c-0.7-1.7-2.5-2.6-3.1-4.4c0.3-2.1,0-4.3,1.6-6c2.6-1.1,3.7,1.1,5.2,2.5c-1.7-2.5-4.3-3.9-6-6.3C931,999.5,927.7,991.1,924.6,982.7
		z"/>
	<path class="st37" d="M977.5,746c2.7,23,5.6,46,7.1,69.1l-27.2,12.6c-3.7-23.1-2-46.2,0.7-69.2c0.6-4.7,1.2-9.4,1.9-14.1
		C966.3,739.6,972,741.9,977.5,746z"/>
	<path class="st38" d="M1024.2,1010.9c2.6-2.6,5.9-1.6,8.9-1.7c11.5-0.3,23.1,0.2,34.4-1.7c-5.8,2.9-3,8.1-3.6,12.5
		c-0.9,3-3.5,4.7-5.1,7.1l-0.2,0.5c0.2-0.2,0.3-0.3,0.4-0.5c1.4-1.7,2.5-3.9,5.2-3.1c2.1,1.3,2,3.8,3.2,5.6
		c-0.2,1.3-0.7,2.4-1.6,3.4c-1.7,1.7-3.3,3.6-4.9,4.9c2.1-1.4,3.7-3.9,6.2-5.5l1.2-0.4c1.2,1.2,2.3,2.5,3.5,3.8
		c0.4,0.3,0.6,0.7,0.6,1.2c0,0.5-0.1,0.7-0.2,0.7c-0.9,1.1-1.9,2-2.8,3c-0.3,0.5-0.5,1-0.6,1.6l0.4,0.7l-0.3-0.8
		c0.1-0.6,0.4-1.2,0.8-1.6c0.6-0.7,1.4-1.4,2.2-1.9c0.6-0.2,1.4-0.1,1.9,0.3c3.5,2.9,6.6,6.3,9.3,10c0.5,0.6,0.7,1.4,0.5,2.1
		c-0.4,1.1-1.1,2.1-1.8,2.9c-0.8,0.9-1.6,1.8-2.3,2.6c-1.8,2.1-3,4.7-5.4,6.4c-1.1,0.6-2.3,0.8-3.5,0.6c-0.7-0.2-1.5-0.5-2.1-0.9
		c-0.3-0.2-0.6-0.4-0.9-0.6c-0.9-0.6-1.8-1.1-2.8-1.5c-1-0.3-2-0.7-2.9-1.1c-0.9-0.5-1.7-1.1-2.6-1.7c-1.2-0.6-2.5-1-3.9-1.2
		c-1.1-0.1-2.2-0.4-3.2-0.8c-1.7-0.8-3.4-1.7-4.9-2.7c-0.7-0.4-1.3-0.8-1.9-1.1c-1.1-0.4-2.2-0.8-3.3-1.1c-0.8-0.2-1.5-0.5-2.3-0.9
		c-1-0.7-1.8-1.7-2.3-2.9c-0.7-1.9-1.1-4-1.8-5.9c-1.1-3.5-2.2-7-3.5-10.4c-0.4-1.1-0.7-2.2-1-3.4c-0.5-1.8-1-3.6-1.6-5.3
		c-0.3-0.7-0.5-1.3-0.7-2s-0.6-1.2-0.9-1.9c-0.6-0.9-1.3-1.6-2.1-2.3c-1.2-0.8-2.2-1.9-2.9-3.3
		C1023.2,1012.1,1023.5,1011.3,1024.2,1010.9z"/>
	<path class="st39" d="M1098,1077.7c-2.5,4.3-5.5,1.5-8.2,0.6c-13.9-4.4-27.5-9.7-40.7-15.7c-6.3-2.9-12.7-5.7-18.9-8.9
		c-3.6-1.8-7.6-3.7-7.5-8.8c4.3-2.5,7.7,0.8,11.4,1.8c2.6,0.5,4.2,3,6.7,3.6c1.9,0.8,4,0.8,5.8,1.9c1.3,1,2.8,1.7,4.3,2.3
		c2.9,2.5,7,2.1,9.8,4.6c2.2,1,4.7,1.3,6.8,2.7c0.9,0.8,2,1.5,3.1,1.9c2.3,0.8,4.7,1.2,6.7,2.8c1.2,0.9,2.6,1.5,4.1,1.8
		c0.8,0.1,1.5,0.2,2.2,0.4c0.7,0.2,1.4,0.4,2.1,0.7c1.7,0.8,3.3,1.7,5,2.5c0.7,0.3,1.3,0.6,2,1c1.3,0.7,2.5,1.4,3.7,2.3
		C1097.2,1075.7,1097.8,1076.7,1098,1077.7z"/>
	<path class="st40" d="M976.3,1025.2c1.2,4-0.8,6.7-3.7,9c-18.2,14.2-37.4,27.1-57.5,38.5c-2.5,1.4-4.9,2.5-5.2-1.9
		c0.2-0.8,0.7-1.5,1.2-2.1c1.8-2.3,4.4-3.5,6.6-5.2c1.6-1.2,3-2.5,4.5-3.7c0.6-0.4,1.3-0.9,1.9-1.2c1.3-0.8,2.5-1.7,3.6-2.7
		c1.2-1,2.6-1.7,4.1-1.9c1.9-0.6,2.8-2.5,4.3-3.6c0.6-0.4,1.3-0.8,2-1.1c2.5-1,4.2-3.4,6.8-4.3c1.8-0.9,2.8-2.6,4.3-3.8
		c0.7-0.4,1.4-0.6,2.2-0.7c2-1.3,3.4-3.3,5.6-4.4c2.5-1.4,4.6-3.4,7-5.1c1.2-1.2,2.5-2.2,4-3.1
		C970.7,1026.5,972.9,1024,976.3,1025.2z"/>
	<path class="st41" d="M975.7,988c0.5,11.3,2.5,22.5,1,33.8c-0.6,0.7-1.2,1.3-1.9,1.8c-3,1.8-5.2,5-9.2,4.9c-1.8-1-2.3-2.8-2.5-4.7
		c-0.1-2.3-0.1-4.7,0-7.1c0.8-4.1,0.9-8.3,1.9-12.3c0.1-0.9,0.4-1.7,0.8-2.5c1.1-1.4,1.9-2.9,2.3-4.6
		C969.9,993.7,970.5,989.1,975.7,988z"/>
	<path class="st42" d="M1016.3,1011.1l4.9-0.2c0.8,0.3,1.4,0.8,1.8,1.6c2.3,2.9,5.2,5.3,6.5,8.9c0.6,2.5,2.2,4.5,2.9,6.9
		c0.1,0.9,0.4,1.7,0.8,2.5c1.7,2.8,1.9,5.9,2.3,8.9c0,1.8,0.1,3.7-1.1,5.3c-3.9,2-6.8-1-10.2-1.8c-0.8-0.5-1.5-1-2.1-1.7
		C1018.5,1031.7,1018.9,1021.1,1016.3,1011.1z"/>
	<path class="st43" d="M909.7,1067.9c0.6-8.4,2.7-16.3,7.7-23.2c5.9-0.9,7.6,4.7,11.2,7.3c0.5,0.6,0.8,1.4,0.9,2.3
		c-1.1,1.7-2.5,3.2-4,4.6c-0.7,0.4-1.4,0.7-2.2,0.8c-2.1,1.2-3.5,3.3-5.7,4.4s-3.9,3.1-5.9,4.6c-0.7,0.4-1.5,0.2-1.9-0.4
		C909.8,1068,909.7,1068,909.7,1067.9z"/>
	<path class="st44" d="M1085.4,1052.4c5.4,6.2,9.8,12.8,11.6,20.9v1.2c-0.7,0.3-1.5,0.3-2.3,0c-1.1-1.2-2.6-1.5-4.1-2
		c-1.9-1.2-4-2.3-6-3.3c-0.8-0.1-1.6-0.3-2.3-0.6c-3.2-0.8-6.5-1.5-7.4-5.4c1.4-3,2.8-6,5.5-8c0.9-0.9,1.7-1.7,2.6-2.6
		C1083.7,1052.1,1084.6,1052,1085.4,1052.4z"/>
	<path class="st45" d="M931.3,1008.7c5.5,2.2,8.8,6.5,12.5,10.6l-1.2,1.6l-10.6-8.3L931.3,1008.7z"/>
	<path class="st46" d="M928.1,1053c-3.6-2.8-6-7-10.7-8.4c-0.1-1.2-0.1-2.6,1.2-3.3c4.9,2.8,9.1,6.7,12.4,11.3
		c-0.5,0.9-1.6,1.2-2.5,0.7C928.4,1053.3,928.2,1053.2,928.1,1053z"/>
	<path class="st47" d="M1024,1041.8l9.6,2.8c0.7-0.3,1.6-0.1,2.2,0.4c0.8,1.9-0.3,2.9-1.9,3.6l-11.1-3.8c-0.2-0.5-0.3-1.1-0.3-1.7
		C1022.9,1042.6,1023.4,1042.1,1024,1041.8z"/>
	<path class="st48" d="M975.7,988c-3.2,2.6-3.9,6.9-6.8,9.8c-0.8-0.4-1.4-1.1-1.6-1.9c-0.1-0.5-0.2-1-0.3-1.6
		c0.4-0.8,0.8-1.6,1.4-2.3l3.7-5.6l3.8-0.1C976,986.8,975.9,987.5,975.7,988z"/>
	<path class="st49" d="M930.4,1018.5c3.7,2.3,7.2,4.6,9.5,9.3c-5.1,0.2-6.6-4.6-10.1-6C929.7,1020.6,929,1019.4,930.4,1018.5z"/>
	<path class="st50" d="M927.1,1026.1c3,2.3,6,4.6,8,9.8c-4.7-1.7-6.6-4.9-9.1-7.4C926.4,1027.8,926.7,1027,927.1,1026.1z"/>
	<path class="st51" d="M1064.3,1024l-5.8,6.2c-0.8-0.3-1.4-1-1.6-1.9c1.5-3.4,4-6.3,7.1-8.3
		C1064.1,1021.3,1064.2,1022.6,1064.3,1024z"/>
	<path class="st52" d="M966.7,1028c2.2-2.3,5-4.1,8-5.3c0.6,0.4,1.1,0.8,1.7,1.2c0.1,0.4,0.1,0.8,0,1.2l-7.7,4.4
		C967.7,1029.4,967,1028.8,966.7,1028z"/>
	<path class="st53" d="M1071.6,1037.2c-0.1-0.5,0-1,0.2-1.4c1.5,0.6,1.9,1.9,2.2,3.3l-1.9,1c-0.9-0.4-1.2-1.5-0.8-2.4
		C1071.3,1037.5,1071.5,1037.3,1071.6,1037.2z"/>
	<path class="st54" d="M1085.4,1052.4l-2.2,0.6c-0.4-0.4-0.6-1-0.5-1.5c0.1-0.5,0.3-0.8,0.5-0.8c-0.1-0.5-0.1-1.1,0.2-1.6
		C1084.9,1049.6,1085.2,1051,1085.4,1052.4z"/>
	<path class="st55" d="M1098,1077.7l-1.6-1.7c-0.6-0.5-0.8-0.9-0.6-1.4c0.2-0.5,0.4-0.7,0.6-0.7l0.4-0.6
		C1098.2,1074.4,1098.6,1076.1,1098,1077.7z"/>
	<path class="st56" d="M976.3,1024l-1.7-1.2l2.1-0.9C976.6,1022.6,976.5,1023.3,976.3,1024z"/>
	<path class="st57" d="M1065.1,1031.8l2.4-2.3c0.3,0.8,0.5,1.6,0.8,2.5h-0.5c-0.7,0.7-1.9,0.7-2.6-0.1
		C1065.2,1031.9,1065.2,1031.9,1065.1,1031.8z"/>
	<path class="st58" d="M1024,1041.8l-1.5,1.3c-0.4-0.5-0.5-1.1-0.4-1.6L1024,1041.8z"/>
	<path class="st59" d="M909.7,1067.9c0.6-0.1,1.2-0.3,1.7-0.6c0.7,0.6,0.8,1.7,0.2,2.4c-0.1,0.1-0.1,0.2-0.2,0.2
		c-0.4,0.4-0.9,0.7-1.5,0.8L909.7,1067.9z"/>
	<path class="st1" d="M947.5,192.7c11.1,18.4,32.4,19.2,44.6,1.8c2.5,12.8,2.4,25.8,3.1,38.8c2.1,38.7,3.9,77.4,4.7,116.1
		c0.5,0.6,0.5,1.4,0,2c-2.6,3.7-5.3,0.6-7.5-0.2c-17.6-6.2-35.3-12.2-53.2-17.5c-2.9-0.8-5.9-3.2-8.6,0.4c-0.7,0.6-1.6,0.7-2.4,0.2
		c-1.3-1.3-2.3-2.8-2.8-4.6c-0.6-2.2-0.9-4.4-1-6.6c-0.3-1.8-0.7-3.5-1.2-5.3c-0.7-2.8-0.7-5.6-1.2-8.5c-1.3-3.9-1.5-8.1-0.7-12.1
		c1.2-11.3,1.7-22.7,3-34.1c2.5-21.6,8.4-42.3,16.2-62.5C941.7,197.3,942.9,193.3,947.5,192.7z"/>
	<path class="st1" d="M923.4,492.8c-0.5-21.4-1-42.8-1.6-66.1c21.2,12.6,41.5,24.6,64,31.9c4.3,2.6,11.1,2.9,10.4,10.5
		c-1.5,8.5-1.6,17.2-4.1,25.6c-5.7,2.8-11.8,1.4-17.7,1.5c-13.2,0.2-26.4,0.1-39.7,0.1C930.6,496.1,926.4,496.5,923.4,492.8z"/>
	<path class="st2" d="M880.9,356.8c7.6-9.4,16.4-17.3,27.6-22.3c2.1-0.9,4-1.8,4.8-4.2c3-1.8,5.2,0.8,7.8,1.2
		c1.1,0.3,2.1,0.8,3.2,1.2c1,0.5,1.9,1.1,2.7,1.8c0.8,0.7,1.5,1.4,2.2,2.1c0.5,0.4,0.8,1.1,0.7,1.8c-3.9,16.2-6.9,32.6-9.4,49
		c-0.5,0.8-1.7,1.1-2.5,0.6c-0.2-0.1-0.3-0.2-0.4-0.4C903.8,379.3,891.5,368.9,880.9,356.8z"/>
	<path class="st60" d="M1080.8,631.7c-2.2,2.4-4.6,1.7-6.7,1.8c-12.1,0.1-24.2,0.1-36.2,0.1c-8,0-8.3-0.1-8.1-7.8
		c0.3-12,0.1-24,1.4-36.1c1.2-11.3,1.3-22.7,2.4-34.1c1.5-16.1,2.6-32.2,4.2-48.2c0.7-7.3,3.1-9.3,10.5-9.3
		c12.4-0.1,24.8,0.1,37.2,0.2c2.3,0,6.2-0.5,5.8,2.9s-3.8,2-6.3,1.7c-12-1.7-24.1-0.5-36.2-0.9c-4.1-0.1-5.1,2-6.2,5.6
		c-2.1,7.4-1.5,15.1-2.7,22.6c-1.8,10.6-1.8,21.4-2.5,32.2c-1.2,18.3-2.8,36.6-3.6,55c-0.6,13.3-1.6,12.4,12,12.3
		c9.2,0,18.5-0.1,27.7,0C1075.8,629.6,1078.6,628.6,1080.8,631.7z"/>
	<path class="st61" d="M849.5,485.4c11.9-0.9,21.8-3.1,32-2.5c6.8,0.3,10,3.8,8.6,10.6c-1.7,7.9-1.1,15.8-1.4,23.7
		c-1.2,31.3-3.8,62.6-4.1,94c-0.2,2.8-0.8,5.6-1.7,8.4c-0.5,2.6-2.8,4.5-5.5,4.4c-11.4,0-22.9-0.1-34.3-0.2c-1.3,0-2.4-0.8-2.5-3.1
		c5.4-1.4,11-0.5,16.5-0.6c5.5-0.2,10.8-0.1,16.2,0c4,0.1,5.6-1.5,5.9-5.5c0.5-10.4,1.4-20.8,1.9-31.3c1.2-20.9,1.1-41.8,3.2-62.6
		c0.9-8.8,0.5-17.8,0.5-26.7c0-6.8-1.2-8.2-7.8-6.7c-7,1.5-13.9,0.9-20.9,1.2C854.4,488.6,852.6,488.6,849.5,485.4z"/>
	<path class="st62" d="M999.8,351.3c0-0.7,0-1.3,0-2c2.4-2,4.7-1.2,7,0.2c4,2.6,6,0.9,8.2-2.8c8-13.4,14.4-27.5,20.4-41.8
		c0.9-2.3,1.2-4.9,4.3-6.3c2.2,1.7,1.2,3.7,0.5,5.7c-5.5,14.9-12.3,29.2-20.3,42.9c-4.3,7.2-4.4,7.4,3.3,11.2
		c10.8,5.3,21.7,10.4,32.6,15.5c1.7,0.8,3.4,1.6,5.1,2.5c1.4,0.7,3.1,1.7,2,3.5s-2.8,0.8-4.3,0.1c-5.8-2.5-11.1-6.1-17.3-7.8
		c-6.7-1.4-12.2-5.5-18-8.6c-0.5-0.2-0.8-0.6-1-1.1c0.1,0-0.3,0.6-0.3,0.6c0.6-0.2,1.3,0,1.6,0.7c5.1,3.8,11.7,5.1,15.7,10.3
		c8.2,4.8,16.3,9.6,24.4,14.6c1.5,0.9,3.9,2,2.9,4.2c-1.1,2.5-3.3,1-4.8,0c-19-11.3-37.9-22.8-57-34
		C1001.7,357,1001.8,353.6,999.8,351.3z"/>
	<path class="st63" d="M808.7,347.8c2.6-5.4,2.8-11.4,3.3-17.1c0.6-6.5,1.1-12.9,2.1-19.3c-1.1-1.1-1.1-2.9,0.1-4
		c0-2.5-0.1-5.1,0.1-7.6c0.2-1.9-0.8-5.2,2.7-4.8c2.5,0.3,1.5,2.8,1.5,4.7c-0.4,16.4-1.9,32.7-4.7,48.9c-0.5,3.4-0.3,6.8,0.7,10.1
		c3.1,11.9,2.6,23.7-0.4,35.6c-0.5,2.1-1.1,4.4-4.9,3.7c2-10.4,4.7-20.8,2.3-32.2c-5.4,4.7-2.9,13.4-9.6,17.7
		c-1.5-6.6,2.6-11.5,2.7-17C805,360,805.6,353.6,808.7,347.8z"/>
	<path class="st64" d="M996.2,469c-0.5-2.2-2-4.1-4.1-4.9c-2.6-1.1-4.9-3.1-6.3-5.6c3.4-1.1,6.2,0.6,9,1.9
		c28.9,13.3,59,16.3,90.1,10c1.9-0.4,3.7-1.2,5.6-0.7c0.5,0.1,0.9,0.7,1.5,1.2c-0.6,3.1-3.4,3.4-5.7,3.9
		c-27.9,5.3-55.4,4.4-82.1-5.8C1001.4,468,998.9,467.1,996.2,469z"/>
	<path class="st65" d="M1031.7,257.8c3,0.4,3.7-2.6,5.6-3.8c1.6,2.5,4.6,1.6,6.8,2.6c7.1,2.9,11,8.9,10.4,16.3
		c-0.8,7.1-5.8,12.9-12.7,14.8c-5.9,1.4-13.5-2-17-7.7c-3.9-6.3-3.1-13,2.3-19C1028.3,259.5,1029.9,258.4,1031.7,257.8z"/>
	<path class="st66" d="M947.8,349.5c-2.7,16.6-1.8,33.8-5,50.7c-1.6,8.7-2.2,17.6-4.3,26.2c-0.4,1.5-0.1,3.2-1.6,4.3
		c-0.5,0.3-1.1,0.4-1.7,0.3c-0.5-0.1-1.2-0.8-1.2-1.1c0.1-2.5,0.4-5.1,0.8-7.6c4.5-24,7.7-48.1,7.5-72.6c0-0.3,0-0.6,0-1
		c0.3-2.7-0.8-7.2,2.6-7.2C949.3,341.5,947,346.4,947.8,349.5z"/>
	<path class="st67" d="M1023,215.9l1.1,3.8c0,5.2-5.1,6-7.8,8.8c-4.2,4.4-4.4,4.4-0.3,9.1l9.9,11.4c0.9,1,1.5,2.1,0.4,3.3
		c-1.1,1.2-2.3,0.6-3.2-0.3c-4.9-4.9-9.8-9.8-14.6-14.9c-2.5-2.7-2.3-5.6,0.9-8.2c3.1-2.5,7.8-4.7,8.1-8.7c0.3-4-3.9-6.9-5.9-10.4
		c-3.2-5.4-6.3-10.9-9.4-16.4c-1.1-2-1.7-4.1,0.3-6l2.5,2c1.4,2.2,3.3,3.9,4.7,6.2C1014.3,202.1,1017.6,209.7,1023,215.9z"/>
	<path class="st68" d="M814.2,307.3c0,1.3,0,2.7-0.1,4c-6.9,0.3-13-2.8-19.3-4.6c-15.5-4.3-30.9-9.4-46.3-14.1
		c-2.7-0.8-5.6-1.2-6.9-4.4l0,0c4.2-2,8,0,11.8,1.2c18.1,5.4,36.2,11,54.2,16.5C809.8,306.9,812,307.3,814.2,307.3z"/>
	<path class="st69" d="M923.4,492.8c9.9,1.9,20,1.1,30,1.2c12.9,0.3,25.7,0.4,38.6,0.5c-0.2,1.3-0.4,2.6-0.6,3.9l-67.9-0.7
		L923.4,492.8z"/>
	<path class="st70" d="M863.9,346.7c0.9,0.9,1.8,1.8,2.7,2.7c-1,7.1-1.4,14.4-3.3,21.2c-1.9,6.9-0.6,12.2,4.8,16.7
		c-0.2,1.2-1.3,1.4-2.2,1.9c-6.4-3.5-8.1-8.6-6.8-15.7C860.7,364.5,861.6,355.5,863.9,346.7z"/>
	<path class="st71" d="M917.5,387.6l3-0.2c0.7,2.9-0.9,5.9-3.8,6.8c-3.5,1.2-6.8,3.7-10.7,2.8c-2.9-0.7-4.3-2.8-3.5-5.6
		c0.4-2.4,2.7-4,5-3.6c0.2,0,0.5,0.1,0.7,0.2c1.4,0.4,2.5,1.8,3.9,2.5C915.1,392,916.9,390.8,917.5,387.6z"/>
	<path class="st72" d="M865.8,389.1l2.2-1.9c2.2,0.5,4.5,0.2,6.4-0.9c2.7-1.3,5-0.2,6.3,2.5c1,1.7,0.7,3.9-0.8,5.3
		c-2.3,1.9-4.6,1.4-6.9-0.2S868.2,390.7,865.8,389.1z"/>
	<path class="st73" d="M808.7,347.8c-0.2,6.4-1.6,12.8-4.1,18.7c-1.4-0.8-2.1-2.5-1.7-4.1c2.1-6.8,1.5-14.2,4.5-20.8
		C809.3,343.3,808.1,345.7,808.7,347.8z"/>
	<path class="st74" d="M1022.2,362.7c6.9,2,13.4,5.1,19.2,9.4l-1.9,2C1033.3,370.9,1026.6,368.5,1022.2,362.7L1022.2,362.7z"/>
	<path class="st75" d="M929.8,338.4c-0.4-0.2-0.7-0.4-1-0.7c-1-0.7-1.2-2.2-0.5-3.2c0.1-0.2,0.3-0.3,0.5-0.5c0.6,0,1.2,0,1.8,0
		L929.8,338.4z"/>
	<path class="st76" d="M977.5,746c-5.9-0.2-11.5-2.5-17.5-1.7c2.3-27.4,4.6-54.8,6.9-82.3c0.6-0.8,1.2-0.9,1.7,0.1L977.5,746z"/>
	<path class="st77" d="M913,964.5c7-2,12.3,0.3,17.3,1.1c11.4,1.9,22.7,1.4,34,1.7c2.2,0.1,4.4,0,6.6,0.1c1.9,0.1,4.1,0.4,4,2.9
		c-0.1,1.8-2,2.3-3.7,2.3c-6,0-12.1,0.3-18-0.2c-10.4-0.9-20.7-2.3-31-3.4C919.1,968.7,916.2,968.3,913,964.5z"/>
	<path class="st78" d="M1008,992.3c0-2,1.5-2.2,2.6-2.3c19.3-1.1,38.4-3.3,57.4-6.8c2-0.4,4.1-0.7,4.5,1.8c0.3,1.9-1.7,2.6-3.2,2.7
		c-10.1,0.9-19.9,4-30,4.2c-8.6,0.2-16.9,2.7-25.5,1.9C1011.7,993.7,1009.3,994.7,1008,992.3z"/>
	<path class="st79" d="M941.1,617.6c11.1-0.4,22.3,0.8,33.1,3.7C968.2,625.3,952.5,623.9,941.1,617.6z"/>
	<path class="st80" d="M1027.8,820.1c1.3-2.7-2.5-8.3,1.1-8.6c5.1-0.4,2.3,5.9,3.8,9.1c1.6,3.4,1.1,7.4,0.7,11.2
		c-0.1,1.3-1.1,2.4-2.5,2.5c-1.3,0-2.4-1.1-2.5-2.5C1028.1,828.1,1028,824.3,1027.8,820.1z"/>
	<path class="st81" d="M1045.6,817.7c-3.7-7.5-3.5-13.8-5.5-19.4c-0.1-0.9,0.3-1.8,1-2.3c1-0.6,2.3-0.3,2.9,0.7
		c0.1,0.1,0.1,0.3,0.2,0.4C1046,803.1,1048.4,809.1,1045.6,817.7z"/>
	<path class="st82" d="M909,812.2c5.4,7.9,5.8,11.1,2.7,18.8C909.6,826.4,908.6,820.2,909,812.2z"/>
	<path class="st83" d="M901.2,822.9c3.4,0.6,3.7,3.1,4,5c0.5,2.9,1.7,7.7-1.9,8c-4.4,0.4-2.5-4.5-3-7.2
		C899.8,826.7,900.1,824.6,901.2,822.9z"/>
	<path class="st84" d="M968.5,662.1l-1.7-0.1c-0.1-2.5-0.6-5,0.9-8.1C969.2,656.9,968.7,659.5,968.5,662.1z"/>
	<path class="st85" d="M1022.4,1012.8c-0.4-0.6-0.8-1.2-1.2-1.8h2.9c0.2,0.6,0.4,1.2,0.6,1.8c-0.5,0.7-1.5,0.8-2.1,0.2
		C1022.6,1012.9,1022.5,1012.9,1022.4,1012.8z"/>
	<path class="st86" d="M1014.7,15.2l1.8,0.5c0,1.2,0.7,1.8,1.9,1.9c0,0.7,0,1.3,0,2l-0.3,0.9l-0.7,0.7l-0.9,0.3
		c-2.5-0.4-4.4-2.5-7.1-2.2c-1.8-1.7-4-1.3-6.2-1.2c-3.2,0.2-5.3-0.9-5.7-4.3c3.5-1.4,7.2-1.9,10.9-1.4
		C1010.2,14.1,1012.7,14.1,1014.7,15.2z"/>
	<path class="st87" d="M989.8,101.3c0.4,0.1,0.8,0.1,1.2-0.1c1.2,2.9,3.4,5.5,2.9,9c0,2.2,2.3,3.8,1.6,6.2
		c-3.5,3.7-4.1,9.7-9.7,11.6c-1.3-0.2-2.3-1.3-2.5-2.6c0.7-4.3,4.8-6.8,5.6-11c0.3-1.6,0.4-3.2,0.1-4.7c-0.4-2-1.1-4-0.7-6.2
		C988.6,102.6,989.1,101.9,989.8,101.3z"/>
	<path class="st88" d="M907.7,57l-2.2-3.3c-0.1-1.9,0.5-3,2.6-2.2c3.6,0.4,7.3,0.1,10.9-0.9c3.2-0.9,2,1.8,2.1,3.4
		C917,56.5,912.8,58.6,907.7,57z"/>
	<path class="st89" d="M989.7,13.3c0.5,0.4,1.1,0.7,1.7,0.6c0.2,0.6,0.3,1.2,0.3,1.8c0,1.6-0.9,3-2.3,3.7c-4.3-0.5-6.9-4.4-10.8-5.7
		C982.3,9.6,986,12.9,989.7,13.3z"/>
	<path class="st90" d="M995.6,116.4c-1.1-1.9-2.5-3.7-1.6-6.2c2,4,5.1,2.5,8,1.4c2.6-0.8,3.4,0.3,3.1,2.7L995.6,116.4z"/>
	<path class="st91" d="M1018.4,19.5c0.4,0.3,0.9,0.3,1.4,0.2c-0.6,2.3,3.2,4.1,0.8,6.6c-0.4-2.5-3.1-3-4.1-4.9
		c0.4,0.2,0.9,0,1.1-0.4l0.3-0.3C1018.4,20.4,1018.6,20,1018.4,19.5z"/>
	<path class="st86" d="M993.9,15.9c1.7,0.6,3.4,1.3,3.5,3.6c-1.9,0.6-3.7,1.2-5.6,0C990.5,17,992.6,16.7,993.9,15.9z"/>
	<path class="st29" d="M993.9,15.9l-2.1,3.6l-2.3-0.1c0.4-1.4,0.7-2.9,2.3-3.7L993.9,15.9z"/>
	<path class="st92" d="M908.2,51.5l-2.6,2.2l-2.1-2.1C905,48.7,906.6,49.9,908.2,51.5z"/>
	<path class="st93" d="M947.5,192.7c-8.6,15.4-13.1,32.2-16.9,49.2c-3.4,15.5-4.9,31.3-6,47.2c-0.2,3.1,0.1,6.4-1.5,9.3
		c-7.2-5.9-5.9-16.2-11.7-22.9c-2.9-10.3-6.9-20.3-7.3-31.2c-0.2-1.5,0.4-2.9,1.4-3.9c4.7-6.9,12.3-9.6,19.1-13.6
		c3.2-1.9,4.7-3.4,1.8-7.2c-9.8-12.9-9.8-13,0.1-26.6c1.7-2.3,3.1-4.8,4-7.5l1.9-2c3.5-3,10.1-1.5,11.3-7.8c0.9-1.1,2.3-1.7,3.7-1.6
		C947.4,180.2,947.5,186.4,947.5,192.7z"/>
	<path class="st94" d="M989.8,101.3c-0.1,0.9-0.3,1.9-0.4,2.9c-3.1,0.2-5.2-2-7.9-2.9c-5.2-1.9-10-1.4-14,2.6c-3.4,3-4.6,7.8-3,12.1
		c1.5,5.3,6.3,9.1,11.9,9.3c2.5,0.2,5-1,7.3,0.9l2.2,1.8c-12.3,5.4-20.9,2.7-26.6-9c-1.8-3.7-4-6.3-7.9-7.5c-0.7,0.6-1.6,1-2.5,1.2
		c-0.9,0.3-1.7,0.6-2.5,1.1c-0.7,0.6-1.6,0.9-2.5,1c-0.8-0.8-1.5-1.5-2.2-2.3c-0.1-2.2-0.1-4.4-0.2-6.6l2-2.5l0.5,3.2
		c2.2,3,5.8,0.5,8.3,2.2l3.2,0.6c1.5,0.8,2.8,0.7,3.6-1c0.5-8.6,8-11,13.6-15c2.7-2,5.3-1.7,7.7,0.5
		C983.5,96.5,988.3,96.8,989.8,101.3z"/>
	<path class="st95" d="M948.3,174l0.1-4c1.3-4,3.6-6.1,8.3-5.7c6.5,0.5,13.1,0.1,19.9,1.2c-7.4,3.3-14.8,6.5-22.1,9.7
		C952.1,176.3,950.1,175.3,948.3,174z"/>
	<path class="st96" d="M948.1,111.1l3.4,0.4c0.4,2.7-0.8,4.7-2.3,6.8c-5.4,7.4-4.5,10.9,3.2,15.9c1.5,1,3.7,1.2,4.1,3.4
		c-8.5,2.7-15.5-3.8-16.1-14.9c1.2-2.7,3.7-4.7,3.8-7.9l2-2.3C946.7,112,947.4,111.6,948.1,111.1z"/>
	<path class="st97" d="M1012.9,133.4c-2.6,0.9-4.7-0.2-6.9-0.5c-1.4-0.2-3.3,1.2-4.3-0.7c-1-1.9,0-3.8,1.5-5c1.9-1.6,4-3,6.2-4.2
		c1.5-0.8,3.5-2.7,5.1-0.8c1.9,2.2-0.7,3.2-2,4.3C1009.4,129.1,1015.2,130.6,1012.9,133.4z"/>
	<path class="st98" d="M969.6,142.4c-5.7,5.9-14.6,8.6-19.8,6.2c-0.7-0.5-1.3-1.3-1.5-2.2c-0.3-0.8,0.1-1.7,1-2
		c0.1,0,0.3-0.1,0.4-0.1c3.4,0.3,6.7,0.7,10.2-0.6C962.6,142.6,965.4,140.4,969.6,142.4z"/>
	<path class="st99" d="M921.7,333.7l-8.4-3.4c-4.5-3.3-9.2-6.4-13.5-9.9c-8.5-6.9-16.7-14.2-18.9-25.8c13.7-12.9,35.8-6.7,40.3,11.4
		c1,4,1.8,8,2.4,12.1c0.9,1.8,1.3,3.7,1.3,5.7c0.1,2.3,0,4.7-0.4,7C923.9,332,922.9,333,921.7,333.7z"/>
	<path class="st100" d="M879.6,291.7l-0.6-6.9c2-10.6,7.9-16.8,16.7-17.4c7.7-0.5,16.4,6.2,18.9,14.6c1.9,6.6-0.5,9.9-7.2,8.2
		C897.8,287.7,888.8,290.4,879.6,291.7z"/>
	<path class="st101" d="M879.6,291.7c11-4.9,12.1-5,32.9-2.5c0.6-10.9-5.4-18.7-15.4-19.8c-4.8-0.7-9.6,1.5-12.3,5.6
		c-2.1,3.1-3.9,6.5-5.8,9.7c-1.8-1.8-1.6-4-1.3-6.2c3.9-5.4,7.8-10.7,14.9-12.4c2.5-0.6,3.5-2.5,3.6-4.9c0.1-2.5,0.8-5,2-7.2
		l2.3,0.1c3.1,4.2,0,11.7,7.2,13.7c2.5,1.8,3.7,4.7,5.8,7c5.6,6.9,6.8,15.6,9.8,23.6c0.3,3.7,0.6,7.4,0.9,11.1
		c-0.8,3.1,1,6.6-1.2,9.5c-2.5-3.1-2.5-7.1-3.3-10.6c-3.9-14.6-14.1-20.8-28.8-17.1c-3.3,0.8-6.6,2.2-9.8,3.3
		C880,293.9,879.5,292.8,879.6,291.7z"/>
	<path class="st102" d="M826.2,267.4c4.2-2.9,9.1-4.4,14.2-4.2c1.9,0,3.8-1.1,3.3-3.6c-0.4-2-2.4-1.6-3.9-1.8
		c-3.3-0.4-6,0.8-8.8,2.6c-2.5,1.6-3.2-0.2-3.3-2.5c2.9-2.6,6.1-4.6,10.2-4c4.1,0.5,7.8-0.7,12.3-4.1c-0.4,12.5-4.6,21.7-11.2,31.1
		c-3.6-5.2,2-8.2,1.1-12.4c-4.1-2.5-7.6,0.2-10.8,2.3c-2.4,1.6-3.3,0.9-3.8-1.5C825.7,268.7,826,268,826.2,267.4z"/>
	<path class="st103" d="M776,196.8c2.2,0,4.3-0.1,6.2,1.5c5.4,4.6,12.8,19.8,13.5,28.7c-6.9-3.1-6.6-10.4-9.8-15.3
		C782.6,206.8,778,202.6,776,196.8L776,196.8z"/>
	<path class="st104" d="M787.4,250.1c6.3,0.5,11.6-4.7,18.5-3.2c-3.9,5.4-12,8.5-16.9,6.4C788.1,252.9,787.9,251.2,787.4,250.1
		L787.4,250.1z"/>
	<path class="st105" d="M927.3,91.3l-2.9,0.1c-3.9-5.6-3.7-7.1,1.3-8.8c4.2-1.4,8.4-2.6,12.6-3.7c2.8-0.8,5.1-0.1,5.8,3
		c0.8,2.4-0.5,4.9-2.8,5.7c-0.2,0.1-0.4,0.1-0.5,0.1C936.4,89.1,931.8,90.2,927.3,91.3z"/>
	<path class="st106" d="M980.4,94l-7.7-0.5c-2.5-3.3-6.7-3.3-10.1-4.9c-2.7-1.2-4.1-3.2-3-6c1.1-2.8,3.4-3.8,6.2-2.5
		c4.3,1.9,8.6,4,12.9,6C982.5,88,982.2,90.8,980.4,94z"/>
	<path class="st107" d="M952.3,108.8c-2.9-0.1-6.3,1.6-8.3-2.2C946.6,108.3,950,106.7,952.3,108.8z"/>
	<path class="st107" d="M959.1,108.4c-0.6,2.3-1.8,2.8-3.6,1L959.1,108.4z"/>
	<path class="st108" d="M774.2,181.5l2-2c1,0.8,1.6,2,1.7,3.2c0,1.2,0.4,2.8-1.1,3.1c-1.5,0.3-2-1.2-2.3-2.5
		C774.3,182.8,774.3,182.1,774.2,181.5z"/>
	<path class="st109" d="M936.2,110.6c-0.1,2.6-2.2,4.7-4.9,4.6c0,0,0,0-0.1,0c-2.9,0.1-4.8-1.4-4.8-4.5c0-3.3,1.8-5.4,5.2-5.1
		C934.5,105.8,936.1,107.7,936.2,110.6z"/>
	<path class="st91" d="M1001,163.2c0.1,1.1,0.2,2.1,0.3,3.2c-2.4-0.5-1.3-2.3-1.5-3.7C1000.2,163,1000.6,163.2,1001,163.2z"/>
	<path class="st110" d="M930.5,185.5c2.8,4.7-1.6,7.1-3.6,9.7c-8.9,12-9.1,11.9,1,22.7c5.6,6,5.6,6.4-1.1,10.3
		c-7.1,4.1-14.2,8.2-21.4,12.3c-0.1-2.5,0.7-4.9,2.1-7c0.9-1.3,2-2.5,3.2-3.4c10.9-8.1,10.9-8.1,3.1-18.2
		C918.2,202.3,922.3,192.6,930.5,185.5z"/>
	<path class="st111" d="M913.9,211.9c5.7,1.4,8.1,6.6,12.6,10.5c-6.2,4.7-12,8.7-18.8,11.1C908.2,225.8,911.9,219.1,913.9,211.9z"/>
	<path class="st112" d="M913.4,274.8c-2.5-1.3-4.6-3.3-5.9-5.7c-4.9-4.6-5.4-10.6-5.4-16.8c0.7-2.6,1.4-5.3,2.1-7.9
		C908.6,254.1,910.5,264.6,913.4,274.8z"/>
	<path class="st113" d="M902.1,252.3c2.9,5.2,3.8,11.1,5.4,16.8c-8.3-2.8-8.3-2.8-7.4-11.3c0.1-1.2,0.2-2.5,0.3-3.7
		C901,253.5,901.5,252.9,902.1,252.3z"/>
	<path class="st114" d="M943.7,175.6c3,2.5,2.5,4.4-0.6,6.3c-3.4,2.1-7,1.4-10.7,1.5C935.1,179.2,939,176.9,943.7,175.6z"/>
	<path class="st115" d="M1023,215.9c-7.2-5.4-11.3-12.9-14.5-21c0.3-0.6,1.1-0.8,1.7-0.4c0.2,0.1,0.3,0.3,0.4,0.4
		C1015.9,201.1,1020.1,208.2,1023,215.9z"/>
	<path class="st116" d="M1010.6,194.9h-2.1c-2.1-1.1-3.5-3.2-3.5-5.6C1007.5,190.4,1009.5,192.4,1010.6,194.9z"/>
	<path class="st91" d="M917.5,120.8c-3.4-1.6-4.7-4.8-5.6-8.1c-0.5-2.1-0.6-4.7,2.4-4.9c2.5-0.3,2.8,1.9,2.9,3.8
		C917.3,114.6,917.3,117.7,917.5,120.8L917.5,120.8z"/>
	<path class="st91" d="M915.1,102.9c-0.7-0.3-0.9-0.8-0.4-1.4c0.4-0.3,0.9-0.6,1.4-0.8c0.1,0.5,0.5,1.1,0.4,1.4
		C916.4,102.5,915.6,102.6,915.1,102.9z"/>
	<path class="st117" d="M964.6,1016.5v8c-1,1.1,0,3.1-1.7,3.9c-2.2-5.1-2.2-10.8,0-15.9C964.5,1013.4,963.6,1015.4,964.6,1016.5z"/>
	<path class="st118" d="M964.6,1016.5c-1.3-1-1.3-2.6-1.7-3.9c0.1-2.4,0.2-4.7,0.3-7.1c0.4-1,1-1.9,1.8-2.7c0.7-0.3,1.5-0.1,1.8,0.6
		C966,1007.7,965.3,1012.1,964.6,1016.5z"/>
	<path class="st119" d="M965.1,1032.1c-2.3,2.2-5,4-7.9,5.4c-0.8-0.3-1.5-0.9-1.9-1.8l7.4-6.1C964,1029.9,964.9,1030.8,965.1,1032.1
		z"/>
	<path class="st120" d="M945.9,1045.4c-2.2,2.3-4.9,4.2-7.9,5.4c-0.5-0.4-1-0.7-1.6-0.9l-0.2-0.9c2.2-2.3,4.8-4.2,7.8-5.4
		c0.5,0.4,1,0.6,1.6,0.8L945.9,1045.4z"/>
	<path class="st121" d="M965.1,1032.1l-2.5-2.5c-0.1-0.4,0-0.8,0.1-1.2c0.5-1.4,0.4-2.9,1.7-3.9c0.5,1.3,0.2,3,2.1,3.5l1.9,1.6
		L965.1,1032.1z"/>
	<path class="st122" d="M955.4,1035.7l1.9,1.8c-1.8,1.4-3.4,3.1-5.7,3.7c-0.5-0.3-0.7-0.9-0.6-1.5c0.2-0.5,0.4-0.8,0.5-0.8
		C952.3,1037.4,953.7,1036.3,955.4,1035.7z"/>
	<path class="st123" d="M967.3,995.9l1.6,1.9c-0.2,1.5-0.4,2.9-1.9,3.7c-0.4,0.5-1.1,0.8-1.7,0.8l-0.7-0.6
		C965.4,999.7,966.4,997.8,967.3,995.9z"/>
	<path class="st124" d="M949.8,1042.2c-0.9,1.5-2.2,2.6-3.9,3.2l-0.4-0.7c-0.4-0.6-0.3-1.3,0.2-1.8c0.8-1.6,2.3-2.7,4-3
		c0.4,0.4,0.6,1,0.5,1.5C950.1,1041.9,950,1042.2,949.8,1042.2z"/>
	<path class="st125" d="M936.4,1051.6c-0.7,1.6-2.2,2.8-4,3.1c-1-0.7-1-1.5-0.1-2.3c0.8-1.7,2.3-2.5,3.9-3.3l0.4,0.7
		C937,1050.4,936.9,1051.1,936.4,1051.6z"/>
	<path class="st126" d="M932.4,1052.3c0,0.8,0,1.5,0.1,2.3l-3.7,2.5c-0.9-0.6-1.1-1.8-0.5-2.7c0,0,0-0.1,0.1-0.1
		c-0.1-0.4-0.1-0.8-0.2-1.2l2.9-0.4C931.5,1052.6,931.9,1052.5,932.4,1052.3z"/>
	<path class="st41" d="M965,1003.3l-1.9,2.1c-0.1-1.5,0-2.9,1.4-3.8l0.8-0.3C965.8,1002,965.6,1002.9,965,1003.3z"/>
	<path class="st41" d="M968.4,992c-0.5,0.8-0.9,1.6-1.4,2.3C967.5,993.5,967.9,992.8,968.4,992z"/>
	<path class="st127" d="M949.8,1042.2c0-0.8,0-1.6,0-2.3l1.7-1c0,0.8,0,1.5,0,2.3L949.8,1042.2z"/>
	<path class="st128" d="M945.8,1042.8c-0.1,0.6-0.2,1.2-0.2,1.8c-0.8,0.2-1.2-0.3-1.5-1C944.6,1043.3,945.2,1043,945.8,1042.8z"/>
	<path class="st129" d="M1076.2,1062.6c0.9,3.7,5.2,3.1,7,5.7c0.7,0.4,0.9,0.8,0.7,1.1s-0.4,0.6-0.7,0.6l-2,0.1
		c-0.9-1.2-2.7-0.7-3.7-1.7l-7.6-4.1c-0.6-0.3-0.9-1.1-0.5-1.8c0.1-0.2,0.3-0.4,0.5-0.5l3.6,0.4c0.6-0.7,1.7-0.7,2.4-0.1
		C1076,1062.3,1076.1,1062.4,1076.2,1062.6z"/>
	<path class="st130" d="M1033.7,1039.3c0.4-3.2-0.9-6.2-1.6-9.3c0.5-0.9,1.1-0.9,1.7-0.1c2.8,3.4,2.6,7.7,3.9,11.6
		c0.5,0.7,0.4,1.6-0.1,2.3c-0.7,0.4-1.6,0.4-2.3,0C1034.4,1042.5,1034.8,1040.6,1033.7,1039.3z"/>
	<path class="st131" d="M1022.4,1012.8h2.3l2.9,2.1c1.3,0.8,0.8,2.7,2.2,3.5l0.1,0.2c0.4,0.7,0.6,1.4,0.6,2.2
		c-0.3,1.2-0.8,2.1-2.3,1.5L1022.4,1012.8z"/>
	<path class="st132" d="M1065.1,1031.8l2.7,0.1l-7.4,10.1C1060.1,1036,1062.6,1033.9,1065.1,1031.8z"/>
	<path class="st133" d="M1060.5,1060c-3.7-1-7.2-2.7-10.4-4.9c0.7-1,2.2-1.3,3.2-0.6c0,0,0,0,0,0l3.2,0.3c0.9,1.2,2.6,0.8,3.7,1.7
		l2,2.1C1062,1059.3,1061.3,1059.9,1060.5,1060z"/>
	<path class="st134" d="M1035.6,1043.4h1.6c1.7,0.8,0.8,2.9,2.1,3.9l1.9,2c0.5,0.4,0.7,0.7,0.5,1.1c-0.1,0.4-0.3,0.6-0.4,0.6
		c-2.8,0.2-5.1-1.2-7.4-2.4l1.3-3.8C1034.7,1044.2,1034.9,1043.7,1035.6,1043.4z"/>
	<path class="st135" d="M1076.2,1062.6l-2.6-0.2c1.5-2.6,2.2-5.9,5-7.6c0.7-0.2,1.3-0.4,1.9-0.7l0.8,0.6
		C1079.6,1057.2,1077.9,1059.9,1076.2,1062.6z"/>
	<path class="st136" d="M1028.4,1022.2l1.6-2.1c0.6-0.2,1.3,0.1,1.6,0.7l1.7,5.5c-0.3,0.8-0.9,1.5-1.6,1.9
		C1029.7,1026.7,1029.2,1024.3,1028.4,1022.2z"/>
	<path class="st137" d="M1060.5,1060l1.8-1.4l3.1,0.3c1,0.2,1.7,0.9,2.5,1.3l-0.1,0.5c0.6,0.5,0.8,1,0.6,1.5
		c-0.2,0.5-0.4,0.7-0.6,0.7L1060.5,1060z"/>
	<path class="st138" d="M1056.9,1028.2c0.5,0.6,1,1.2,1.6,1.9c-0.9,1.3-1.3,4.4-3.4,2.7C1053.5,1031.6,1056.1,1029.8,1056.9,1028.2z
		"/>
	<path class="st139" d="M1041.3,1051l-0.1-1.7l2-0.1c1,1.2,2.7,0.8,3.8,1.7l-0.1,0.6c0.5,0.3,0.7,0.9,0.5,1.5
		c-0.2,0.5-0.4,0.7-0.6,0.7C1044.8,1053.1,1042.7,1052.9,1041.3,1051z"/>
	<path class="st140" d="M1046.8,1053.6c0-0.7,0-1.5,0-2.2c2.3,0.7,4.8,1.2,6.6,3.1l-3.2,0.6
		C1048.8,1055.1,1047.6,1054.9,1046.8,1053.6z"/>
	<path class="st141" d="M1071.6,1037.2c0.2,0.9,0.3,1.9,0.5,2.9c-0.2,0.8-0.5,1.5-1.4,1.6c-0.4,0.6-1.2,0.9-1.9,0.5
		c-0.2-0.1-0.3-0.3-0.5-0.5C1068.6,1039.7,1069.9,1038,1071.6,1037.2z"/>
	<path class="st39" d="M1039.3,1047.3c-2-0.6-1.5-2.5-2.1-3.9c0.2-0.6,0.4-1.2,0.6-1.8C1039.7,1043.1,1039.3,1045.2,1039.3,1047.3z"
		/>
	<path class="st142" d="M1069.7,1043.3c-0.5,1.6-0.8,3.9-3.2,2.7c-0.9-0.4-0.4-2.1,0.9-2.7C1068,1042.7,1069,1042.6,1069.7,1043.3
		C1069.7,1043.2,1069.7,1043.3,1069.7,1043.3z"/>
	<path class="st42" d="M1029.9,1018.3c-1.3-0.7-2.1-2-2.2-3.5C1029.1,1015.4,1030,1016.8,1029.9,1018.3z"/>
	<path class="st143" d="M1031.6,1028.3c0.5-0.6,1.1-1.2,1.6-1.9c0.2,1.2,0.4,2.4,0.6,3.6l-1.7,0.1
		C1031.8,1029.5,1031.6,1028.9,1031.6,1028.3z"/>
	<path class="st39" d="M1047,1050.8c-1.5,0.2-2.9-0.5-3.8-1.7C1044.7,1048.9,1046.2,1049.6,1047,1050.8z"/>
	<path class="st144" d="M1083.2,1050.6v2.3l-1.8,1.6l-0.1-0.6c-0.4-0.2-0.5-0.8-0.3-1.2c0.1-0.1,0.2-0.2,0.3-0.3
		C1081.3,1051.5,1082.2,1050.7,1083.2,1050.6z"/>
	<path class="st39" d="M1060.3,1056.5c-1.4,0.2-2.9-0.5-3.7-1.7C1058,1054.6,1059.5,1055.3,1060.3,1056.5z"/>
	<path class="st145" d="M1067.9,1062.9v-2.2c0.9-0.2,1.8,0.3,2.1,1.2c0,0,0,0,0,0.1v2.3C1069.1,1064.5,1068.1,1063.9,1067.9,1062.9
		C1067.9,1063,1067.9,1063,1067.9,1062.9z"/>
	<path class="st42" d="M1031.6,1020.8c-0.5-0.2-1.1-0.4-1.6-0.7c0-0.5,0-1.1,0-1.6L1031.6,1020.8z"/>
	<path class="st146" d="M1069.7,1043.3h-2.3c0.3-0.6,0.6-1.2,0.9-1.7h2.3C1070.3,1042.2,1070,1042.7,1069.7,1043.3z"/>
	<path class="st147" d="M1081.2,1052.5c0,0.5,0,1,0,1.5l-2.6,0.8L1081.2,1052.5z"/>
	<path class="st39" d="M1068,1060.2c-1,0.2-2.1-0.4-2.5-1.3L1068,1060.2z"/>
	<path class="st148" d="M1085.1,1068.6c2.1,0.8,4.5,1.1,5.8,3.2c0.6,0.4,0.8,0.8,0.7,1.2c-0.2,0.4-0.4,0.6-0.6,0.6
		c-2.3-0.3-4.4-1.3-5.9-3c-0.4-0.3-0.6-0.8-0.4-1.3C1084.7,1068.8,1084.9,1068.6,1085.1,1068.6z"/>
	<path class="st44" d="M1077.6,1068.3c1.5-0.1,2.9,0.5,3.7,1.7C1079.8,1070.2,1078.3,1069.6,1077.6,1068.3z"/>
	<path class="st149" d="M1090.9,1073.6c0-0.6,0-1.2,0-1.8c1.5,0.2,3.1,0.3,3.7,2.1c-0.6,0.7-1.2,0.7-1.7,0L1090.9,1073.6z"/>
	<path class="st150" d="M1092.9,1073.9h1.7h1.9c0,0.7,0,1.4,0,2.1C1095,1075.7,1093.5,1075.6,1092.9,1073.9z"/>
	<path class="st151" d="M1085.1,1068.6v2l-1.8-0.7c0-0.6,0-1.1,0-1.7L1085.1,1068.6z"/>
	<path class="st152" d="M911.5,1069.9v-2.6c1.5-2,3.5-3.6,5.9-4.6c0.9,0.2,1.6,0.9,1.9,1.7C917.1,1066.8,914.4,1068.7,911.5,1069.9z
		"/>
	<path class="st153" d="M919.3,1064.4l-1.9-1.7c1.8-1.4,3.4-3.2,5.7-3.8c0.6,0.5,0.8,1,0.6,1.4s-0.4,0.8-0.6,0.8
		C922.3,1062.7,920.9,1063.9,919.3,1064.4z"/>
	<path class="st154" d="M928.3,1054.3c0.2,0.9,0.3,1.9,0.5,2.8c-0.7,1.6-2.2,2.8-4,3.1c-0.6-0.7-0.6-1.7,0-2.5L928.3,1054.3z"/>
	<path class="st155" d="M936.4,1051.6c0.1-0.6,0.2-1.2,0.2-1.8c0.8-0.2,1.2,0.3,1.4,1C937.6,1051.2,937,1051.4,936.4,1051.6z"/>
	<path class="st156" d="M924.8,1057.8v2.5c-0.5,0.5-1,0.8-1.6,0.9c0-0.7,0-1.5,0-2.2L924.8,1057.8z"/>
	<path class="st134" d="M965,1003.3c0.1-0.7,0.2-1.4,0.4-2c0.5,0.1,1.1,0.1,1.6,0.1l-0.3,1.9L965,1003.3L965,1003.3z"/>
	<path class="st39" d="M1035.6,1043.4c-0.2,0.5-0.4,1-0.4,1.5c-0.5,0.1-1.1,0-1.6-0.2c0-1.8,0.1-3.6,0.1-5.4L1035.6,1043.4z"/>
	<path class="st157" d="M922.8,319.1c0.6-3.2-0.8-6.6,1.2-9.5c1,2.8,1.3,5.8,1,8.8c0.5,1.3,0.8,2.7,0.9,4.1l1.1,7.7
		c0.8,2,1.1,4-0.4,5.9l-2.2-2.2c-0.4-0.7-0.6-1.5-0.5-2.2c-0.2-2.3,0.6-4.7-0.7-6.9C923.1,322.9,923,321,922.8,319.1z"/>
	<path class="st158" d="M926.7,336.1c0.1-2,0.2-4,0.4-5.9c1,1.1,1.6,2.5,1.7,3.9v3.6L926.7,336.1z"/>
	<path class="st101" d="M925.9,322.4c-0.9-1.2-1.2-2.7-0.9-4.1C926,319.4,926.4,321,925.9,322.4z"/>
	<path class="st1" d="M924.7,332.7c-0.4,0.3-0.4,0.8-0.2,1.2l-2.8-0.2c0.4-1.1,0.9-2.2,1.3-3.3C923.8,331,924.4,331.8,924.7,332.7z"
		/>
	<path class="st74" d="M1022.2,362.7c-1.6,0-3-0.2-3.8-1.9l0,0C1019.9,360.7,1021.4,361.4,1022.2,362.7L1022.2,362.7z"/>
	<path class="st159" d="M1018.4,360.8l-2.5-0.7C1017.3,358.3,1017.7,360.1,1018.4,360.8L1018.4,360.8z"/>
	<path class="st160" d="M1049,271.8c0,5.9-4.8,10.7-10.8,10.7c0,0,0,0,0,0c-5.6-0.4-10-4.8-10.2-10.4c0-5.9,4.8-10.6,10.7-10.6
		c0.1,0,0.2,0,0.2,0c5.5-0.1,10,4.3,10.1,9.8C1049,271.5,1049,271.6,1049,271.8z"/>
	<path class="st161" d="M1018,20.6l-0.3,0.3l-0.2-0.5L1018,20.6z"/>
	<path class="st162" d="M983.7,126.1c-9.3,2.5-15.3,1-19.4-4.7c-4.1-5.7-4.1-12.9,0.4-18.3c4.5-5.6,12.5-7.1,18.7-3.5
		c2.1,1.4,4.1,2.9,5.9,4.6l1.8,4.9c-0.8,1.9-0.8,4,0,5.9C990.3,119.8,986.8,122.8,983.7,126.1z"/>
	<path class="st163" d="M991.2,115c-2.1-2-2.1-3.9,0-5.9C991.9,111,991.9,113.1,991.2,115z"/>
	<path class="st107" d="M948.1,111.1l-2,1.3L948.1,111.1z"/>
	<path class="st101" d="M924.7,332.7c-0.6-0.8-1.1-1.6-1.7-2.3c0.1-1.9,0.2-3.8,0.3-5.6C925.8,327,924.6,330,924.7,332.7z"/>
	<path class="st164" d="M976.8,117.2c-2.8,0.1-5.1-1.1-5.4-4c-0.4-3.2,1.2-5.5,4.6-5.9c3.3-0.3,5.3,1.9,5.5,5
		C981.7,115.2,979.7,116.8,976.8,117.2z"/>
</g>
</svg>
