<svg xmlns="http://www.w3.org/2000/svg" xmlns:xlink="http://www.w3.org/1999/xlink" viewBox="0 0 311.72 326.98"><defs><style>.cls-1{fill:url(#linear-gradient);}.cls-2{fill:url(#linear-gradient-2);}.cls-3{fill:url(#linear-gradient-3);}.cls-4{fill:url(#linear-gradient-4);}.cls-5{fill:url(#linear-gradient-5);}.cls-6{fill:url(#linear-gradient-6);}.cls-7{fill:url(#linear-gradient-7);}</style><linearGradient id="linear-gradient" x1="100.8" y1="1194.11" x2="208.17" y2="1301.49" gradientTransform="translate(-120.18 -1052.55)" gradientUnits="userSpaceOnUse"><stop offset="0" stop-color="#4296d2"/><stop offset="0.5" stop-color="#45a6dd"/><stop offset="1" stop-color="#2569b1"/></linearGradient><linearGradient id="linear-gradient-2" x1="250.76" y1="1280.62" x2="390.61" y2="1038.41" gradientTransform="translate(-120.18 -1052.55)" gradientUnits="userSpaceOnUse"><stop offset="0.13" stop-color="#287dc1"/><stop offset="0.17" stop-color="#3088c9"/><stop offset="0.27" stop-color="#3f9ed8"/><stop offset="0.33" stop-color="#45a6dd"/><stop offset="0.38" stop-color="#49a9df"/><stop offset="0.52" stop-color="#4cace1"/><stop offset="0.61" stop-color="#48a7de"/><stop offset="0.73" stop-color="#3d99d4"/><stop offset="0.85" stop-color="#2b81c4"/><stop offset="0.87" stop-color="#287dc1"/></linearGradient><linearGradient id="linear-gradient-3" x1="385.04" y1="1246.98" x2="467.51" y2="1343.41" gradientTransform="translate(-120.18 -1052.55)" gradientUnits="userSpaceOnUse"><stop offset="0" stop-color="#45a6dd"/><stop offset="0.32" stop-color="#287dc1"/><stop offset="0.61" stop-color="#33669a"/></linearGradient><linearGradient id="linear-gradient-4" x1="304.36" y1="1290.33" x2="287.35" y2="1194.19" gradientTransform="translate(-120.18 -1052.55)" gradientUnits="userSpaceOnUse"><stop offset="0" stop-color="#45a6dd"/><stop offset="0.64" stop-color="#287dc1"/><stop offset="0.9" stop-color="#287dc1"/></linearGradient><linearGradient id="linear-gradient-5" x1="235.98" y1="1184.88" x2="123.49" y2="1072.39" gradientTransform="translate(-120.18 -1052.55)" gradientUnits="userSpaceOnUse"><stop offset="0" stop-color="#45a6dd"/><stop offset="0.53" stop-color="#4ac7f2"/><stop offset="0.58" stop-color="#54c8ec"/><stop offset="0.69" stop-color="#65cadf"/><stop offset="0.82" stop-color="#70ccd8"/><stop offset="0.96" stop-color="#73ccd6"/></linearGradient><linearGradient id="linear-gradient-6" x1="371.33" y1="1184.66" x2="418.16" y2="1140.38" gradientTransform="translate(-120.18 -1052.55)" gradientUnits="userSpaceOnUse"><stop offset="0" stop-color="#287dc1"/><stop offset="0.01" stop-color="#297ec2"/><stop offset="0.36" stop-color="#3894d1"/><stop offset="0.7" stop-color="#42a1da"/><stop offset="1" stop-color="#45a6dd"/></linearGradient><linearGradient id="linear-gradient-7" x1="153.18" y1="1169.18" x2="85.22" y2="1101.22" gradientTransform="translate(-120.18 -1052.55)" gradientUnits="userSpaceOnUse"><stop offset="0" stop-color="#287dc1"/><stop offset="0.16" stop-color="#33669a"/></linearGradient></defs><g id="Layer_2" data-name="Layer 2"><g id="Layer_1-2" data-name="Layer 1"><path class="cls-1" d="M74.88,88.44l46.67,54.13L80.61,185.28c-2.23-2.84-4.39-5.6-6.54-8.37-.59-.75-1.21-1.49-1.77-2.27a2.11,2.11,0,0,0-2.6-.92,2,2,0,0,0-1.26,2.22V296.05a31.83,31.83,0,0,1-2.85,14.09,27.3,27.3,0,0,1-16.45,14.34c-12.76,4.34-25.06,3.13-36.36-4.31-8.7-5.73-13-14.06-12.77-24.6.16-9.43.18-18.87.26-28.3L.51,236.2q.09-13.14.24-26.27L1,182.46c.06-6.48.12-13,.22-19.43a2.38,2.38,0,0,1,.62-1.55Q38,125.21,74.24,89Z"/><path class="cls-2" d="M234.75,113.13a43.85,43.85,0,0,0-3.58-4c-3.42-3-7.41-3.29-11.6-2-4.48,1.37-8.26,4-11.86,6.85-8.36,6.65-15.62,14.41-22.74,22.33l-45.84,51-29.38,32.63-1.14,1.22c-8.52-10.9-17-21.76-25.51-32.68L89.35,182l34.89-36.35,20.61-21.45c3.9-4.06,8-8,11.68-12.22,6.17-7,12.21-14.13,18.19-21.3,18.23-21.89,36.39-43.87,54.7-65.74A77.39,77.39,0,0,1,253.8,5.07C261.21,1.39,269-.63,277.31.18,290,1.42,300.14,7,307,18a16.22,16.22,0,0,1,2.38,8.88c-.06,4.27.06,8.55,0,12.83a2.74,2.74,0,0,1-.74,1.73Q291.52,58,274.41,74.59L252.63,95.72Z"/><path class="cls-3" d="M310.13,108.89v9.35q.11,16,.24,31.91.11,13.62.24,27.22l.24,26.51.24,27.23.24,26.63.24,27.1c0,3.48.13,7,.15,10.44.07,10.08-4,18.23-12.34,23.72-13.06,8.61-27,9.67-41.08,2.68-10-5-14.89-13.68-14.92-24.73-.13-40.15-.06-80.31,0-120.46a2.4,2.4,0,0,1,.64-1.55q32.55-32.61,65.15-65.18A9.91,9.91,0,0,1,310.13,108.89Z"/><path class="cls-4" d="M111.24,224.39l10.31-11.5,69-76.67a161.41,161.41,0,0,1,20-19.3,34.12,34.12,0,0,1,9.64-5.74c4.71-1.69,8.14-.49,10.72,3.81s3.69,8.91,4.59,13.67a183,183,0,0,1,2.68,28.13c.18,5.71.25,11.43.3,17.14a3.63,3.63,0,0,1-.68,2.06l-55.68,71.4c-3.8,4.89-7.82,9.57-13,13a43.65,43.65,0,0,1-13.75,6.06,4.23,4.23,0,0,1-2-.06c-6.13-1.58-11.12-5.12-15.71-9.31-4.08-3.7-7.31-8.14-10.68-12.45L111.85,225.3A9.59,9.59,0,0,1,111.24,224.39Z"/><path class="cls-5" d="M153.42,109.35l-29,30.28c-1.51-1.74-3-3.45-4.48-5.17q-21.54-25-43-50a42.15,42.15,0,0,0-11.65-10A38.34,38.34,0,0,0,43.44,70,58,58,0,0,0,6.64,86.89c-1.65,1.6-3,3.46-4.71,5.38V88q.07-8.09.16-16.19.15-15.27.24-30.58c0-4.8.14-9.59.13-14.39a15.68,15.68,0,0,1,2.27-8C9.24,11,16.14,5.89,24.6,3c12-4.18,23.47-2.32,34.5,3.4A75.34,75.34,0,0,1,81.68,24.89c11.24,13.22,22.23,26.64,33.45,39.87,12.11,14.27,24.36,28.4,36.55,42.59A18.33,18.33,0,0,0,153.42,109.35Z"/><path class="cls-6" d="M242.37,170.4v-6.68c-.27-11.31-.65-22.62-2.64-33.78-.71-4-1.94-8-3-12a1.3,1.3,0,0,1,.38-1.53q14.22-13.74,28.44-27.52L285.44,69.6Q297.17,58.2,309,46.82c.08-.08.18-.14.63-.47v4.8q0,6.9.08,13.8l.24,31.66c0,1.92,0,3.84.09,5.76a1.58,1.58,0,0,1-.73,1.61,5.26,5.26,0,0,0-1,1L243.75,169.5c-.32.36-.63.73-.91,1.11Z"/><path class="cls-7" d="M1.41,155.79v-14c0-5.08.11-10.15.16-15.23.06-7.72,0-15.44.24-23.15a14.57,14.57,0,0,1,1.87-5.85C6.83,91.47,11.74,87,17.39,83.26a53.32,53.32,0,0,1,26.85-9.21c8.49-.45,16.36,1.44,23.18,6.75,1.69,1.32,3.21,2.86,4.72,4.22Z"/></g></g></svg>