<svg xmlns="http://www.w3.org/2000/svg" xmlns:xlink="http://www.w3.org/1999/xlink" viewBox="0 0 971.04 888.39">
  <defs>
    <style>
      .cls-1 {
        fill: url(#linear-gradient);
      }

      .cls-2 {
        fill: url(#linear-gradient-2);
      }

      .cls-3 {
        fill: url(#linear-gradient-3);
      }

      .cls-4 {
        fill: url(#linear-gradient-4);
      }

      .cls-5 {
        fill: url(#linear-gradient-5);
      }

      .cls-6 {
        fill: url(#linear-gradient-6);
      }

      .cls-7 {
        fill: url(#linear-gradient-7);
      }

      .cls-8 {
        fill: url(#linear-gradient-8);
      }

      .cls-9 {
        fill: url(#linear-gradient-9);
      }

      .cls-10 {
        fill: url(#linear-gradient-10);
      }

      .cls-11 {
        fill: url(#linear-gradient-11);
      }

      .cls-12 {
        fill: url(#linear-gradient-12);
      }

      .cls-13 {
        fill: url(#linear-gradient-13);
      }

      .cls-14 {
        fill: url(#linear-gradient-14);
      }

      .cls-15 {
        fill: url(#linear-gradient-15);
      }

      .cls-16 {
        fill: url(#linear-gradient-16);
      }

      .cls-17 {
        fill: url(#linear-gradient-17);
      }

      .cls-18 {
        fill: url(#linear-gradient-18);
      }

      .cls-19 {
        fill: url(#linear-gradient-19);
      }

      .cls-20 {
        fill: url(#linear-gradient-20);
      }

      .cls-21 {
        fill: url(#linear-gradient-21);
      }

      .cls-22 {
        fill: url(#linear-gradient-22);
      }

      .cls-23 {
        fill: url(#linear-gradient-23);
      }

      .cls-24 {
        fill: url(#linear-gradient-24);
      }

      .cls-25 {
        fill: url(#linear-gradient-25);
      }

      .cls-26 {
        fill: url(#linear-gradient-26);
      }
    </style>
    <linearGradient id="linear-gradient" x1="444" y1="-691.46" x2="551.37" y2="-798.84" gradientTransform="matrix(1, 0, 0, -1, -120.18, -303.97)" gradientUnits="userSpaceOnUse">
      <stop offset="0" stop-color="#4296d2"/>
      <stop offset="0.5" stop-color="#45a6dd"/>
      <stop offset="1" stop-color="#2569b1"/>
    </linearGradient>
    <linearGradient id="linear-gradient-2" x1="593.98" y1="-777.98" x2="733.84" y2="-535.76" gradientTransform="matrix(1, 0, 0, -1, -120.18, -303.97)" gradientUnits="userSpaceOnUse">
      <stop offset="0.13" stop-color="#287dc1"/>
      <stop offset="0.17" stop-color="#3088c9"/>
      <stop offset="0.27" stop-color="#3f9ed8"/>
      <stop offset="0.33" stop-color="#45a6dd"/>
      <stop offset="0.38" stop-color="#49a9df"/>
      <stop offset="0.52" stop-color="#4cace1"/>
      <stop offset="0.61" stop-color="#48a7de"/>
      <stop offset="0.73" stop-color="#3d99d4"/>
      <stop offset="0.85" stop-color="#2b81c4"/>
      <stop offset="0.87" stop-color="#287dc1"/>
    </linearGradient>
    <linearGradient id="linear-gradient-3" x1="728.24" y1="-744.33" x2="810.71" y2="-840.76" gradientTransform="matrix(1, 0, 0, -1, -120.18, -303.97)" gradientUnits="userSpaceOnUse">
      <stop offset="0" stop-color="#45a6dd"/>
      <stop offset="0.32" stop-color="#287dc1"/>
      <stop offset="0.61" stop-color="#33669a"/>
    </linearGradient>
    <linearGradient id="linear-gradient-4" x1="647.59" y1="-787.67" x2="630.58" y2="-691.53" gradientTransform="matrix(1, 0, 0, -1, -120.18, -303.97)" gradientUnits="userSpaceOnUse">
      <stop offset="0" stop-color="#45a6dd"/>
      <stop offset="0.64" stop-color="#287dc1"/>
      <stop offset="0.9" stop-color="#287dc1"/>
    </linearGradient>
    <linearGradient id="linear-gradient-5" x1="579.18" y1="-682.23" x2="466.69" y2="-569.74" gradientTransform="matrix(1, 0, 0, -1, -120.18, -303.97)" gradientUnits="userSpaceOnUse">
      <stop offset="0" stop-color="#45a6dd"/>
      <stop offset="0.53" stop-color="#4ac7f2"/>
      <stop offset="0.58" stop-color="#54c8ec"/>
      <stop offset="0.69" stop-color="#65cadf"/>
      <stop offset="0.82" stop-color="#70ccd8"/>
      <stop offset="0.96" stop-color="#73ccd6"/>
    </linearGradient>
    <linearGradient id="linear-gradient-6" x1="714.55" y1="-682.02" x2="761.38" y2="-637.74" gradientTransform="matrix(1, 0, 0, -1, -120.18, -303.97)" gradientUnits="userSpaceOnUse">
      <stop offset="0" stop-color="#287dc1"/>
      <stop offset="0.01" stop-color="#297ec2"/>
      <stop offset="0.36" stop-color="#3894d1"/>
      <stop offset="0.7" stop-color="#42a1da"/>
      <stop offset="1" stop-color="#45a6dd"/>
    </linearGradient>
    <linearGradient id="linear-gradient-7" x1="496.38" y1="-666.53" x2="428.42" y2="-598.57" gradientTransform="matrix(1, 0, 0, -1, -120.18, -303.97)" gradientUnits="userSpaceOnUse">
      <stop offset="0" stop-color="#287dc1"/>
      <stop offset="0.16" stop-color="#33669a"/>
    </linearGradient>
    <linearGradient id="linear-gradient-8" x1="101.53" y1="669.79" x2="101.53" y2="529.51" gradientUnits="userSpaceOnUse">
      <stop offset="0.01" stop-color="#fbb03b"/>
      <stop offset="0.5" stop-color="#fbb03b"/>
      <stop offset="1" stop-color="#d4622a"/>
    </linearGradient>
    <linearGradient id="linear-gradient-9" x1="4.42" y1="598.27" x2="113.38" y2="489.31" gradientUnits="userSpaceOnUse">
      <stop offset="0" stop-color="#f37f7b"/>
      <stop offset="0.5" stop-color="#fe3e96"/>
      <stop offset="1" stop-color="#dd1e47"/>
    </linearGradient>
    <linearGradient id="linear-gradient-10" x1="167.84" y1="670.5" x2="167.84" y2="529.08" gradientUnits="userSpaceOnUse">
      <stop offset="0" stop-color="#fbb03b"/>
      <stop offset="0.5" stop-color="#fbb03b"/>
      <stop offset="1" stop-color="#d4622a"/>
    </linearGradient>
    <linearGradient id="linear-gradient-11" x1="153.37" y1="597.9" x2="261.36" y2="489.91" gradientUnits="userSpaceOnUse">
      <stop offset="0" stop-color="#f37f7b"/>
      <stop offset="0.5" stop-color="#ff3f9a"/>
      <stop offset="0.6" stop-color="#fd3d94"/>
      <stop offset="0.72" stop-color="#f63785"/>
      <stop offset="0.86" stop-color="#ec2c6b"/>
      <stop offset="1" stop-color="#dd1e47"/>
    </linearGradient>
    <linearGradient id="linear-gradient-12" x1="37.86" y1="355.73" x2="252.71" y2="140.88" gradientUnits="userSpaceOnUse">
      <stop offset="0" stop-color="#3fbcff"/>
      <stop offset="0.01" stop-color="#42bbfe"/>
      <stop offset="0.14" stop-color="#74b1f1"/>
      <stop offset="0.28" stop-color="#9ea8e6"/>
      <stop offset="0.42" stop-color="#c1a1dd"/>
      <stop offset="0.56" stop-color="#dc9bd6"/>
      <stop offset="0.7" stop-color="#f097d1"/>
      <stop offset="0.85" stop-color="#fb95ce"/>
      <stop offset="1" stop-color="#ff94cd"/>
    </linearGradient>
    <linearGradient id="linear-gradient-13" x1="907.81" y1="271.59" x2="788.36" y2="64.69" gradientUnits="userSpaceOnUse">
      <stop offset="0.02" stop-color="#ff766a"/>
      <stop offset="0.32" stop-color="#dd315d"/>
      <stop offset="0.63" stop-color="#dc3535"/>
      <stop offset="0.96" stop-color="#af1e68"/>
    </linearGradient>
    <linearGradient id="linear-gradient-14" x1="318" y1="125.54" x2="645.08" y2="125.54" gradientUnits="userSpaceOnUse">
      <stop offset="0" stop-color="#fe81b6"/>
      <stop offset="0.51" stop-color="#f5aaff"/>
      <stop offset="1" stop-color="#ee3690"/>
    </linearGradient>
    <linearGradient id="linear-gradient-15" x1="753.14" y1="566.85" x2="890.5" y2="429.49" gradientUnits="userSpaceOnUse">
      <stop offset="0" stop-color="#fbbc36"/>
      <stop offset="0.5" stop-color="#fced22"/>
      <stop offset="1" stop-color="#ff81a4"/>
    </linearGradient>
    <linearGradient id="linear-gradient-16" x1="570.75" y1="829.26" x2="778.61" y2="621.4" gradientUnits="userSpaceOnUse">
      <stop offset="0" stop-color="#e98800"/>
      <stop offset="0.43" stop-color="#e8ff3f"/>
      <stop offset="0.98" stop-color="#fbb03b"/>
    </linearGradient>
    <linearGradient id="linear-gradient-17" x1="335.84" y1="861.01" x2="432.39" y2="764.46" gradientUnits="userSpaceOnUse">
      <stop offset="0" stop-color="#c2c3c1"/>
      <stop offset="0.49" stop-color="#cfcbc4"/>
      <stop offset="0.68" stop-color="#d5d2cd"/>
      <stop offset="1" stop-color="#e6e6e6"/>
    </linearGradient>
    <linearGradient id="linear-gradient-18" x1="343.18" y1="765.3" x2="413.57" y2="694.91" xlink:href="#linear-gradient-17"/>
    <linearGradient id="linear-gradient-19" x1="405.61" y1="752.83" x2="436.3" y2="722.14" xlink:href="#linear-gradient-17"/>
    <linearGradient id="linear-gradient-20" x1="327.09" y1="752.94" x2="362.97" y2="717.06" xlink:href="#linear-gradient-17"/>
    <linearGradient id="linear-gradient-21" x1="379.8" y1="648.8" x2="402.42" y2="626.18" xlink:href="#linear-gradient-17"/>
    <linearGradient id="linear-gradient-22" x1="373.7" y1="666.39" x2="388.8" y2="651.29" xlink:href="#linear-gradient-17"/>
    <linearGradient id="linear-gradient-23" x1="345.31" y1="855.36" x2="418.28" y2="782.38" xlink:href="#linear-gradient-17"/>
    <linearGradient id="linear-gradient-24" x1="394.39" y1="830.55" x2="446.43" y2="778.5" xlink:href="#linear-gradient-17"/>
    <linearGradient id="linear-gradient-25" x1="370.74" y1="895.91" x2="406.28" y2="860.37" xlink:href="#linear-gradient-17"/>
    <linearGradient id="linear-gradient-26" x1="331.69" y1="795.07" x2="354.31" y2="772.45" xlink:href="#linear-gradient-17"/>
  </defs>
  <g id="Layer_2" data-name="Layer 2">
    <g id="Layer_1-2" data-name="Layer 1">
      <g>
        <g id="Layer_1-2-2" data-name="Layer 1-2">
          <path class="cls-1" d="M418.08,334.36l46.67,54.13L423.81,431.2c-2.23-2.84-4.39-5.6-6.54-8.37-.59-.75-1.21-1.49-1.77-2.27a2.12,2.12,0,0,0-2.6-.92,2,2,0,0,0-1.26,2.22V542a31.77,31.77,0,0,1-2.85,14.09,27.27,27.27,0,0,1-16.45,14.34c-12.76,4.34-25.06,3.13-36.36-4.31-8.7-5.73-13-14.06-12.77-24.6.16-9.43.18-18.87.26-28.3l.24-31.07q.09-13.14.24-26.27l.25-27.47c.06-6.48.12-13,.22-19.43a2.48,2.48,0,0,1,.62-1.55q36.16-36.27,72.4-72.48Z"/>
          <path class="cls-2" d="M578,359.05a43.69,43.69,0,0,0-3.58-4c-3.42-3-7.41-3.29-11.6-2-4.48,1.37-8.26,4-11.86,6.85-8.36,6.65-15.62,14.41-22.74,22.33l-45.84,51L453,465.86l-1.14,1.22c-8.52-10.9-17-21.76-25.51-32.68l6.25-6.48,34.89-36.35,20.61-21.45c3.9-4.06,8-8,11.68-12.22,6.17-7,12.21-14.13,18.19-21.3,18.23-21.89,36.39-43.87,54.7-65.74A77.49,77.49,0,0,1,597,251c7.41-3.68,15.2-5.7,23.51-4.89,12.69,1.24,22.83,6.82,29.69,17.82a16.18,16.18,0,0,1,2.38,8.88c-.06,4.27.06,8.55,0,12.83a2.67,2.67,0,0,1-.74,1.73q-17.12,16.56-34.23,33.15l-21.78,21.13Z"/>
          <path class="cls-3" d="M653.33,354.81v9.35q.12,16,.24,31.91.12,13.62.24,27.22l.24,26.51.24,27.23.24,26.63.24,27.1c0,3.48.13,7,.15,10.44.07,10.08-4,18.23-12.34,23.72-13.06,8.61-27,9.67-41.08,2.68-10-5-14.89-13.68-14.92-24.73-.13-40.15-.06-80.31,0-120.46a2.44,2.44,0,0,1,.64-1.55q32.55-32.61,65.15-65.18A9.91,9.91,0,0,1,653.33,354.81Z"/>
          <path class="cls-4" d="M454.44,470.31l10.31-11.5,69-76.67a162.13,162.13,0,0,1,20-19.3,34.26,34.26,0,0,1,9.64-5.74c4.71-1.69,8.14-.49,10.72,3.81s3.69,8.91,4.59,13.67a181.86,181.86,0,0,1,2.68,28.13c.18,5.71.25,11.43.3,17.14a3.63,3.63,0,0,1-.68,2.06l-55.68,71.4c-3.8,4.89-7.82,9.57-13,13a43.65,43.65,0,0,1-13.75,6.06,4.23,4.23,0,0,1-2-.06c-6.13-1.58-11.12-5.12-15.71-9.31-4.08-3.7-7.31-8.14-10.68-12.45l-15.13-19.33A9.62,9.62,0,0,1,454.44,470.31Z"/>
          <path class="cls-5" d="M496.62,355.27l-29,30.28c-1.51-1.74-3-3.45-4.48-5.17q-21.54-25-43-50a42.35,42.35,0,0,0-11.65-10,38.41,38.41,0,0,0-21.85-4.46,58.08,58.08,0,0,0-36.8,16.89c-1.65,1.6-3,3.46-4.71,5.38v-4.27q.08-8.09.16-16.19.15-15.27.24-30.58c0-4.8.14-9.59.13-14.39a15.8,15.8,0,0,1,2.27-8c4.51-7.84,11.41-12.95,19.87-15.84,12-4.18,23.47-2.32,34.5,3.4a75.55,75.55,0,0,1,22.58,18.49c11.24,13.22,22.23,26.64,33.45,39.87,12.11,14.27,24.36,28.4,36.55,42.59A18.47,18.47,0,0,0,496.62,355.27Z"/>
          <path class="cls-6" d="M585.57,416.32v-6.68c-.27-11.31-.65-22.62-2.64-33.78-.71-4-1.94-8-3-12a1.32,1.32,0,0,1,.38-1.53q14.22-13.74,28.44-27.52l19.89-19.29q11.73-11.4,23.56-22.78c.08-.08.18-.14.63-.47v4.8q0,6.9.08,13.8l.24,31.66c0,1.92,0,3.84.09,5.76a1.57,1.57,0,0,1-.73,1.61,5.91,5.91,0,0,0-1,1L587,415.42c-.32.36-.63.73-.91,1.11Z"/>
          <path class="cls-7" d="M344.61,401.71v-14c0-5.08.11-10.15.16-15.23.06-7.72,0-15.44.24-23.15a14.62,14.62,0,0,1,1.87-5.85c3.15-6.09,8.06-10.56,13.71-14.3A53.36,53.36,0,0,1,387.44,320c8.49-.45,16.36,1.44,23.18,6.75,1.69,1.32,3.21,2.86,4.72,4.22Z"/>
        </g>
        <g>
          <path class="cls-8" d="M73.26,551.44v-5c1.93-2.05,3.92-4.42,6.17-6.49a106,106,0,0,1,11.87-8.84c3-2.08,5.17-2.18,8.12,0,2.48,1.83,5.61,2.69,8.55,3.78a33.26,33.26,0,0,1,5.89,3.25,49.82,49.82,0,0,1,5,3.59A26.76,26.76,0,0,1,124,548c.8,1.22,1.36,2.6,2.2,3.79,1.72,2.43,2.27,5.35,3.45,8a5.39,5.39,0,0,1,.15,2.1q0,53.07,0,106.14a5.28,5.28,0,0,1-.09.68c-1.87,1.32-3.18,1.16-5.52,1.08-3.3-.1-3.86-2.13-4.6-4.63a23.5,23.5,0,0,1-.65-6.6c0-1.94,0-3.87,0-5.8,0-3.74-.2-7.5,0-11.23s-.93-7.49-.8-11.29,0-7.49,0-11.23.48-7.56-.12-11.21c-.75-4.52-.5-9-.58-13.48s0-9.18,0-13.77c0-2.21-1-4.29-.77-6.59a27.71,27.71,0,0,0,0-6.5c-.44-3.53-1.6-7-4.18-9.42-2.17-2-4.81-4.11-8.23-3.52-.87.15-1.19-.61-2.09-.49A32,32,0,0,0,95,555.45c-.31.14-.63.41-.92.38-3.76-.32-7.52.49-11.33-.57-1.94-.53-4-.66-5.87-1.6C75.6,553,74.39,552.13,73.26,551.44Z"/>
          <path class="cls-9" d="M29.23,549.33c-4.69-2.06-6.86-6.55-10.93-8.83a4.3,4.3,0,0,1-.78-.76c-4.08-3.84-8.14-7.7-12.25-11.5-1.19-1.1-2.55-2-3.75-2.93-.25-3.6,1.3-6.9.71-10.36,1.13-1.82.54-3.88.77-5.78l4.26-2.08c6.31-3.11,12.81-5.79,19.14-8.86,4.31-2.08,8.72-4,13.12-5.9,3-1.27,5.93-2.56,8.87-3.92s5.55-2.92,8.46-4c4.5-1.7,8.79-3.84,13.13-5.89s9-3.9,13.49-5.88c2.65-1.17,5.27-2.42,8.1-3.74a17.15,17.15,0,0,1,4.87,8.32,25.08,25.08,0,0,1,1.49,9.17,31.59,31.59,0,0,0,0,6.15c.24,2-.88,3.61-.8,5.5s-.87,3.5-1.22,5.26a45.79,45.79,0,0,1-3.6,10.83,4.4,4.4,0,0,0-.22,1.71c0,1.93,0,3.86,0,5.79a21.36,21.36,0,0,0,1.52,6.49c-1.65,1.06-3.36,2.14-5.05,3.24-5,3.26-9.88,6.68-13.77,11.23-1.59,1.86-3.36,3.84-3,6.77Zm-.91,1.58c0,.59.17,1.17,0,1.51a61.49,61.49,0,0,0-3.74,8.23c-1.18,2.89-2.95,5.56-4,8.48-1.93,5.38-4.52,10.45-6.74,15.68-1.87,4.42-3.82,8.8-5.81,13.38,1.59,2.07,3.42,4.16,4.92,6.46a88.09,88.09,0,0,0,12.84,14.94,11.44,11.44,0,0,0,2.79,2,2.23,2.23,0,0,0,1.91-.18c5.25-3.56,10.62-6.92,16-10.23,3.78-2.31,7.22-5.21,11.1-7.33C64,600.4,69.89,596.25,76,592.43c6.62-4.15,13.32-8.23,19.74-12.7,1.9-1.32,4.38-1.88,5.46-3.6a50.85,50.85,0,0,0-7.11-18.79c-4.24-.22-8.39.35-12.49-.72-2.29-.6-4.47-1.48-6.72-2.11-1.65-.47-1.35-2.09-2.43-2.75a3.44,3.44,0,0,1-.79-.85ZM15.49,501.64c4.79-2.14,9.59-4.25,14.37-6.41,5.49-2.48,11-5,16.45-7.51,5.07-2.31,10.13-4.66,15.26-6.85,6.16-2.63,12.18-5.57,18.27-8.36,1.22-.55,2.41-1.13,3.7-1.57,2.52-.87,4.81-2.4,7.6-3.88a91.24,91.24,0,0,0-7.65-5.38,65.07,65.07,0,0,0-15.91-6.2c-2.87-.72-5.79-1.27-8.67-1.7a53.93,53.93,0,0,0-10.48-.07,24,24,0,0,0-5,1.11,19.19,19.19,0,0,0-9.25,5.63c-2.09,2.25-4,4.63-6.17,6.85-2.84,3-5.74,5.87-8.71,8.7a58.49,58.49,0,0,0-7.16,8.63c-3.82,5.4-5.92,11.54-7.77,17.79-.38,1.27-.53,2.61-.92,4.64ZM98.7,579.75c-3.75,1.89-7,4.52-10.63,6.65-3.8,2.24-7.43,4.77-11.16,7.14-3.53,2.24-7.12,4.38-10.64,6.64-4.39,2.82-8.62,5.91-13.12,8.53-3.82,2.22-7.44,4.73-11.18,7.06l-11.49,7.14c3.58,3.76,8.29,5.49,12.8,7.65,3.67,1.77,7.66,1.65,11.44,1.94a52.7,52.7,0,0,0,14.55-.39,33,33,0,0,0,9.19-3.18,71.21,71.21,0,0,0,12.75-9.47c2.58-2.26,4.37-5.16,6.32-7.9a23.6,23.6,0,0,0,3.18-6.61,16.79,16.79,0,0,0,.88-5.83c-.09-1.93.57-3.89.62-5.85.12-3.73,0-7.48.06-11.21a5.8,5.8,0,0,0-1.38-3.9A16.46,16.46,0,0,1,98.7,579.75Zm-91,15.93a107.4,107.4,0,0,1,4.56-10.44,64.9,64.9,0,0,0,2.93-6.75c2-5.45,4.81-10.57,6.9-16,1.42-3.67,3.16-7.21,5-11.43-2.22.78-3.75,1.6-5.37,1.83-3.5.5-6.74,1.85-10.15,2.66-3.17.75-6.31,1.69-9.48,2.45-1.66.4-2.12.64-2,2.21.14,3.28-.5,6.6.65,9.86.56,1.61-.17,3.37.63,5.18.7,1.56.49,3.62.72,5.45.42,3.32,1.67,6.37,2.41,9.57.45,2,1.67,3.74,2.49,5.48C7.47,595.71,7.67,595.73,7.69,595.68ZM24.12,547c-3.69-2.19-6.18-5.71-9.52-8.32-4.55-3.57-8.54-7.83-12.81-11.83C0,530.14,1.55,533.77.65,537s-.39,6.58-.56,9.86c-.18,3.45,0,6.92,0,10.32l27-7.3A17.8,17.8,0,0,0,24.12,547Z"/>
          <path class="cls-10" d="M199.36,550.33c-2.05,2.62-4.62,3.6-7.58,4.13a66.57,66.57,0,0,1-9.19,1.36c-3.25.14-6.52.11-9.77,0a15.46,15.46,0,0,1-3.63-.81c-1.29-.38-2.53-.89-3.8-1.32-.11,0-.33-.05-.35,0-.51,1.17-1.87-.45-2.37.72a10,10,0,0,0-7.9,2.83A18.41,18.41,0,0,0,150,564.3c-.87,3.14-.53,6.32-.71,9.49-.28,5.09-.9,10.15-.73,15.27s.56,10.21-.12,15.18c-.62,4.53-.43,9-.55,13.48s.37,9-.1,13.39c-1.11,10.4-.4,20.81-.65,31.21,0,.08-1.43,4.72-1.44,4.83-.18,1.86-1.8,2.35-3.09,3a3.48,3.48,0,0,1-3.66-.27c-.32-.24-.94,0-1.35-.21a1.81,1.81,0,0,1-1.34-1.83c0-.85,0-1.69,0-2.54q0-50.87,0-101.74c0-4.88,2-9,4.33-13.06.68-1.16,1.28-2.39,2.07-3.48a31,31,0,0,1,2.63-3.21,41.6,41.6,0,0,1,7.28-5.92,33.49,33.49,0,0,1,8.18-3.84,39.56,39.56,0,0,0,8.37-4.21,3.18,3.18,0,0,1,3.51-.34,141.4,141.4,0,0,1,18.48,10.48c2.61,1.75,4.57,4.11,6.83,6.19A4.85,4.85,0,0,1,199.36,550.33Z"/>
          <path class="cls-11" d="M172.41,527.91c2.1-4.18,1.71-8.7,1.5-13.12-.07-1.58-1.27-3.08-1.76-4.67a109.26,109.26,0,0,1-3.15-11,100.07,100.07,0,0,1-1-10.23c3.36-1.4,6.52-2.77,9.71-4.05,2.9-1.17,5.83-2.25,8.75-3.37,5.83-2.25,11.63-4.58,17.44-6.89,4-1.6,8.07-3.24,12.08-4.93,5.75-2.44,11.62-4.6,17.44-6.88a1.51,1.51,0,0,0,.35-.23,30,30,0,0,0,2,2.42q5.85,5.93,11.78,11.79A50,50,0,0,1,258,492a78.3,78.3,0,0,1,3.66,11.16,39.26,39.26,0,0,1,1.53,9.53,13.56,13.56,0,0,0,.76,3.16L240.22,549.2H201.07c-1.42-3.58-4-6.27-7.19-8.8C187.33,535.19,179.91,531.67,172.41,527.91Zm4.8,55.63c2.25,1.25,4.57,2.42,6.8,3.73,2.63,1.54,5.13,3.31,7.79,4.8,2.83,1.58,5.93,2.7,8.64,4.44,5,3.23,10.35,5.92,15.51,8.91,4,2.3,8,4.66,12,6.88,2.86,1.57,5.74,3.09,8.53,4.81,1.34.83,2.75,2.11,4.73,1.74,7.7-7.93,14.86-16.34,19.58-26.28-6.81-14-13.57-27.85-20.33-41.73H200.88a28.1,28.1,0,0,1-3,2.81,17.9,17.9,0,0,1-8.21,2.8c-3.48.4-7,1.25-10.55.9-2.37-.23-4.77-.05-6.84-.05-4.24,5.84-6.1,12.3-7.66,19.33C168.82,578.79,173,581.21,177.21,583.54Zm56.35,33.62c-4.7-3.12-9.8-5.52-14.64-8.38-2.8-1.64-5.84-2.89-8.55-4.66-4.72-3.09-9.8-5.52-14.64-8.38-2.79-1.65-5.84-2.89-8.54-4.67-4.71-3.1-9.82-5.47-14.63-8.38-2.5-1.52-5.08-2.88-7.77-4.4a10.84,10.84,0,0,0-.89,2.82c-.11,3.5,0,7-.06,10.5s1.11,7,.82,10.56c-.1,1.24.64,2.59,1.15,3.82a39,39,0,0,0,8.95,13.29c1.35,1.29,2.92,2.34,4.28,3.61,2.7,2.53,5.91,4.29,9,6.16a25.4,25.4,0,0,0,13,3.56c4.72,0,9.51.79,14.17-.65,4.45.62,8.08-2.08,12.15-3,4-2.92,8.54-5.12,11.84-9A47,47,0,0,1,233.56,617.16ZM222.7,454.88c-1.14-1.3-3.09.34-4.26-1.18-.22-.29-1.15-.08-1.75,0-3.76.26-7.49-.21-11.31.56-3,.6-6.18.94-9.09,1.74a57.3,57.3,0,0,0-16.44,7.42A24.36,24.36,0,0,0,170,476.23c-1.16,3.44-2.43,6.95-1.48,10.94l7.19-2.93c4.22-1.74,8.45-3.48,12.71-5.12,5.4-2.09,10.78-4.24,16.16-6.4,4.23-1.7,8.49-3.35,12.69-5.17,2.52-1.09,5.16-2.08,7.78-3s5.17-2.06,7.81-3.12C229.91,458.3,226.78,455.84,222.7,454.88Zm43.35,101c0-3.3.12-6.43,0-9.53s.51-6.32-.58-9.51c-.59-1.73,0-3.83-.13-5.76s-.55-3.89-.68-5.85c-.13-2.13.23-4.34-1.29-6.32a61.83,61.83,0,0,1-4.59,6.84c-1.82,2.64-3.67,5.26-5.6,7.82-2.35,3.1-4.4,6.4-6.67,9.55-1.62,2.25-3.33,4.43-5,6.65Zm-24-4.54c6.51,13.4,13.27,26.17,19.37,39.14A77.5,77.5,0,0,0,265,574.67a82,82,0,0,0,.92-17.38Z"/>
        </g>
        <path class="cls-12" d="M154.72,110.6q0,24.2,0,48.4a9.28,9.28,0,0,1-5.36,8.92,9,9,0,0,1-10.1-1,9.4,9.4,0,0,1-3.77-7.87q0-48.4,0-96.79c0-5.84,4.27-10,9.75-10s9.43,4.31,9.45,10.2Q154.76,86.55,154.72,110.6Zm-4.52,0q0-22.65,0-45.28c0-1.23.05-2.46,0-3.68a5,5,0,0,0-4.65-4.83A5.14,5.14,0,0,0,140.18,61a15.15,15.15,0,0,0-.17,3.09q0,27.6,0,55.19v37.64c0,.66,0,1.32,0,2,.15,3.29,2.31,5.58,5.2,5.55s5-2.25,5-5.67Q150.23,134.68,150.2,110.63ZM218.9,302c8.8-6.8,15.34-15.55,21.16-24.87,13-20.88,21.49-43.74,28.68-67.12a6.7,6.7,0,0,0-.37-4.08c-3.17-8.16-6.24-16.38-9.77-24.38a475.41,475.41,0,0,0-41.16-74.37c-3.94-5.81-8.6-11-14.92-14.42-5.55-3-11.08-2.85-15.74,1.48-3.19,3-6.38,6.39-8.27,10.24a141,141,0,0,0-9.08,22.45c-8.23,28.15-10.68,57.2-12.58,86.3-.11,1.71.75,2.26,2,2.9a72.08,72.08,0,0,1,18.38,13.53c16.24,16.37,26.36,36.35,34,57.8,1.84,5.22,3.45,10.53,5.31,16.21C217.54,302.92,218.24,302.48,218.9,302Zm2.25,5.41Q237.62,322.72,254.1,338a20.77,20.77,0,0,0,2.67,2.08c5,3.26,10,2.61,13.33-2.3a47.16,47.16,0,0,0,5.59-11c4.45-12.94,5.9-26.47,6.73-40,1.42-23.48-2.94-46.17-9.9-68.45a6,6,0,0,0-.61-1.23c-4.92,12.53-9.39,25.24-14.86,37.51-8.72,19.58-19.24,38.06-36.52,52A8.49,8.49,0,0,0,221.15,307.39Zm-11.74-11.13c-5.85-17.69-13.06-34.75-24-50-7.1-9.89-15.34-18.63-26-24.75-.84-.47-1.74-.84-3.55-1.71,0,10.62-.09,20.42,0,30.22a15.7,15.7,0,0,0,7.23,13.66c1.17.78,2.27,1.68,3.42,2.5l42.92,30.27C209.45,296.81,209.5,296.52,209.41,296.26ZM33.15,178.19C22.74,201.27,14.35,225,10,250c-.3,1.73,0,2.81,1.36,3.85,2.78,2.1,5.41,4.4,8.2,6.5,19.59,14.77,40.67,26.53,64.93,31.71a5.75,5.75,0,0,0,4-1c7.68-5.45,15.21-11.11,22.86-16.6,5.73-4.12,11.62-8,17.35-12.14a12.49,12.49,0,0,0,5.41-10.14c.18-11.29.06-22.58.06-33.5-9.62-3-18.54-5.38-27.18-8.53-25.95-9.46-50.95-20.5-68.16-44.35C36.87,170.18,35,174.16,33.15,178.19Zm100,32.56c-1.59-16.22-2.84-32.49-4.89-48.65a200.52,200.52,0,0,0-10.49-44.76c-2.73-7.36-5.85-14.53-11.27-20.4-6.92-7.5-14.33-8.46-22.17-1.9A60.39,60.39,0,0,0,71.74,109c-10.1,16.33-19.51,33.09-29.23,49.66a3.63,3.63,0,0,0,.08,4.15A63.68,63.68,0,0,0,59,180.6c15.72,12.12,33.63,19.93,52.24,26.28,7.11,2.42,14.34,4.47,22,6.84C133.19,212.22,133.26,211.48,133.19,210.75Zm-124.34,48c-.12.65-.21,1.3-.29,1.95-1.94,16.34-.8,32.58,1.81,48.74,1.47,9,3.26,18,8.07,26s11.14,8.71,18.08,2.31c14.41-13.29,29-26.41,43.49-39.61.58-.53,1.14-1.08,1.83-1.74-27.53-6.86-51-20.67-72.48-38.26C9.08,258.45,8.88,258.57,8.85,258.72ZM150.19,65.38c0-1.23.05-2.46,0-3.68a5,5,0,0,0-4.65-4.83A5.13,5.13,0,0,0,140.18,61a15.15,15.15,0,0,0-.17,3.09q0,27.6,0,55.19v37.64c0,.66,0,1.32,0,2,.15,3.29,2.31,5.58,5.2,5.55s5-2.25,5-5.67q0-24.06,0-48.11Q150.19,88,150.19,65.38Z"/>
        <path class="cls-13" d="M838.71,153.1a41.35,41.35,0,0,0-3.56-17c-6.25-14-17-23.8-29.67-31.89-1.93-1.23-3-1.14-4.7.47q-41.64,40.63-83.42,81.11c-1.41,1.37-2,2.41-1.15,4.42,9.21,22.86,23.76,42,40.82,59.48,1.34,1.37,2.05.81,3.11-.18,4.71-4.4,9.46-8.75,14.21-13.11q31.17-28.67,62.38-57.29a5.46,5.46,0,0,0,2-4.56c-.11-4.22,0-8.44,0-12.66Q838.72,157.5,838.71,153.1ZM841,223.46q0,7.56,0,15.13c0,.45,0,1.13.24,1.31.63.42,1-.31,1.39-.66.61-.54,1.16-1.15,1.74-1.74l48.89-49.11a41.14,41.14,0,0,1,17.16-10.56c11-3.38,19-.07,24.43,9.39a43.44,43.44,0,0,1,2.86,6.38c3.57,9.68,4.11,19.86,4.79,30,0,.74-.46,1.9.45,2.12.75.18,1.11-1,1.56-1.62a151,151,0,0,0,18.89-33.87c8.32-21.46,10.23-43.34,3.79-65.63-4.46-15.44-13.46-26.77-29.37-31.72A4.76,4.76,0,0,0,932.49,94q-44.72,41.24-89.57,82.35a5.62,5.62,0,0,0-2,4.57c.08,9.38,0,18.76,0,28.14Zm.6,86.17a353.42,353.42,0,0,0,36-22.44c22.53-15.66,43.12-33.48,60.6-54.74a8.52,8.52,0,0,0,2.18-6.38c-.47-7.24-.68-14.51-2.06-21.66-1.26-6.56-3-13-6.94-18.54-3.54-4.92-8.24-7.49-14.42-7-8.35.63-15.31,4.53-21.05,10.18-17.88,17.6-35.46,35.51-53.19,53.27a5.26,5.26,0,0,0-1.74,4q.1,31.31.11,62.62ZM713.71,182.88c.78,2.45,1.4,2.08,2.84.67q41.21-40.08,82.47-80.11c1.51-1.46,1.6-2.09-.42-3.07-15.35-7.38-31.28-11.82-48.46-9.31-14.88,2.17-26.54,9.28-33.49,23.1-5.91,11.76-7.64,24.41-7.93,35A107.59,107.59,0,0,0,713.71,182.88Zm125,1.8c0-1.17.8-2.9-.57-3.43-.91-.35-1.8,1.23-2.63,2q-36.62,33.65-73.24,67.27c-1.84,1.68-2,2.45-.14,4.2a389.35,389.35,0,0,0,33.14,27.69c2,1.51,3.08,1.5,4.88-.34q18.07-18.45,36.43-36.64a7,7,0,0,0,2.21-5.56c-.1-9.26,0-18.52,0-27.77S838.75,193.82,838.68,184.68ZM841,171.62c0,.91-.43,2.24.31,2.62s1.47-.84,2.12-1.42q31.48-28.87,62.94-57.79,11.91-10.95,23.79-21.93c.44-.41,1.37-.71,1-1.58-.27-.64-1-.44-1.57-.5a78,78,0,0,0-8.05-.65c-21.5.21-40.49,7.56-57.13,20.92C848.92,123.73,839,139.07,841,158.18,841,163.88,841,167.75,841,171.62Zm-2.37,137.31c0-8,.06-15.92.07-23.88q0-17.93,0-35.84c0-.64.35-1.55-.41-1.86s-1.15.62-1.6,1.07Q818.93,266.2,801.2,284c-1,1-1.65,1.58.06,2.73,12,8.07,24.06,16.1,36.87,22.91Zm-.51.7c.36.14.77.65,1.06,0,.06-.12-.36-.45-.55-.69Zm3-.7c-.19.23-.6.57-.55.69.3.66.7.14,1.07,0Z"/>
        <path class="cls-14" d="M510,40.25c4.14,3.7,8,6.9,11.62,10.43Q580,108.43,638.4,166.28c8.88,8.79,9.2,17.44-.8,25.4-7.64,6.09-16.69,10.47-25.37,15.15-1.2.65-4.32-.81-5.71-2.16-11.21-10.95-22.26-22.08-33.28-33.23-20.29-20.54-40.59-41.07-60.69-61.8-2.1-2.17-4-5.65-4-8.52-.05-19.46.42-38.92.76-58.38A13.12,13.12,0,0,1,510,40.25Zm-113.85-27C375,20.2,356.45,31,341.62,47.93c-2.72,3.1-3.35,5.25,0,8.17s6.12,6,9.16,9q30.72,30.6,61.43,61.19c2.08,2.07,3.78,4.11,6.86,1Q444,102.14,469.14,77.18c2.09-2.08,2.13-3.68,0-5.8q-29.26-29.56-58.46-59.2a22.65,22.65,0,0,0-4-2.65C403,10.86,399.59,12.16,396.15,13.29ZM644.6,164.86c-.89-6.87-2.62-13.73-2.61-20.59,0-13.79-5.06-25.63-11.61-37.3a187.72,187.72,0,0,1-10.94-23.28,52.31,52.31,0,0,0-17.05-22.56c-4.58-3.58-9.11-8-11.79-13A50.13,50.13,0,0,0,575,29.92c-6-4.15-11.92-8.31-18-12.28-12.81-8.38-27.4-11-42.24-12.71-4-.46-5.72,1.2-5.59,5.33.21,6.27-.16,12.56.2,18.81A11.4,11.4,0,0,0,512,35.64c6.76,7.45,13.75,14.7,20.83,21.85q49.28,49.83,98.66,99.53c3.85,3.88,7.94,7.53,12.81,12.12A30.32,30.32,0,0,0,644.6,164.86Zm-326-62c2.7,15.43,6.27,30.25,19.05,41.27,11.86,10.23,25.06,17.56,40.16,21.4,1.68.43,4.44-.86,5.84-2.23,8.33-8.2,16.16-16.94,24.7-24.92,3.91-3.65,3.34-5.6,0-9-17.49-17.49-34.77-35.2-52.13-52.82-6.8-6.91-13.63-13.79-20.41-20.64C322.55,67.71,315.79,86.54,318.64,102.85ZM586,239.89c7.49-4,14.2-9.19,17.94-17.15,4.63-9.88,3.28-13.18-6.43-17.28-.91-.38-1.79-.83-2.71-1.19-21-8.29-42.3-15.11-65.26-14-14,.71-27.15,4.15-37,15.07a10.17,10.17,0,0,0-2.36,7.34,39.37,39.37,0,0,0,12.2,23.74c11.55,10.69,25.77,13.92,40.93,14.62A98.31,98.31,0,0,0,586,239.89ZM505,98.28c-.14.61.07.14.06-.34-.27-20.29-.5-40.59-1-60.88a9.51,9.51,0,0,0-2.62-5.58c-8.45-9-17.15-17.83-25.63-26.84A13.63,13.63,0,0,0,464.39,0c-9.54.69-19.13,1-28.6,2.21-7.74,1-15.34,3.12-22.12,4.56Zm95.33,104.1-90.92-89.74c-.6,1.89-1,2.62-1,3.36q-.12,35.63-.17,71.26c0,3.08,1.32,4,4.38,3.38a122.93,122.93,0,0,1,16.59-2.36c22.76-1,44,5.51,64.85,13.64,1.74.67,3.48,1.31,5.23,2ZM451,158.77c16.5-16.16,32.94-32.39,49.5-48.5,2.65-2.58,2.53-4.38-.08-6.89Q489.48,92.93,479,82.09c-2.84-2.94-4.94-2.88-7.78,0q-24,24.27-48.33,48.3c-2.37,2.35-2.62,4.09-.1,6.53,7.47,7.24,14.75,14.67,22.13,22a30.08,30.08,0,0,0,2.92,2.24A30.63,30.63,0,0,0,451,158.77Zm51.7-44.69c-16.22,16.21-32.38,32.47-48.65,48.64-2.55,2.53-1.36,4.15.59,6.15,8.17,8.38,16.2,16.89,24.4,25.25,9.63,9.81,9.6,9.62,21.1,2.26,3.75-2.4,5.37-5.07,5.32-9.61-.24-22.93-.17-45.86-.23-68.79,0-1.56-.19-3.12-.33-5.19A12.75,12.75,0,0,0,502.65,114.08Zm-61.87,48c-7-7.05-14.09-13.94-20.91-21.12-2.82-3-4.77-3-7.63,0-8.14,8.43-16.41,16.75-24.88,24.84-3.18,3-4.38,5.76-2.18,9.89.95,1.79.57,4.24,1.25,6.24.91,2.7,1.65,5.9,3.56,7.75,4,3.87,8.73,7,13.12,10.44,2.71,2.15,4.87,1.76,7.29-.7,10.06-10.25,20.28-20.35,30.41-30.53.91-.91,1.66-2,2.75-3.31A41.13,41.13,0,0,0,440.78,162.08Zm38.45,38.33q-14.5-14.5-29-29c-2.13-2.13-3.68-1.24-5.4.51-5.2,5.28-10.5,10.47-15.69,15.76-5.46,5.58-10.85,11.23-16.77,17.37,2.09.63,3.27,1.11,4.5,1.35,10.82,2.08,21.63,4.19,32.48,6.11,2.21.39,4.81.63,6.8-.14,7.94-3.1,15.71-6.63,23.9-10.16C479.62,201.28,479.55,200.72,479.23,200.41ZM504.31,15.83c.2-11.66.21-11.69-11.48-13.32-4.26-.59-8.55-1-11-1.28L504.3,25.86C504.3,21.55,504.26,18.69,504.31,15.83Z"/>
        <path class="cls-15" d="M804.2,373.51l21-3.17c0,8.17-.4,16.14.13,24A83,83,0,0,0,828.47,413c3.68,12.08,11.26,16.15,23.62,14a183.37,183.37,0,0,1,19.75-2.7c11.61-.74,20.94,4.26,25.67,14.66A138.92,138.92,0,0,1,907.64,470c2.59,13.52,3.21,27.42,4.66,41.15.08.78,0,1.58,0,2.94-8.3-6.68-16-13.14-24-19.24-16.83-12.87-34.66-24.17-54.06-32.83-2.8-1.25-4-2.75-4-5.92a24.26,24.26,0,0,0-6.84-17.76C806,420.14,805.14,397.19,804.2,373.51Zm-82,144.39c2.5-3.87,6.7-6.61,10.84-4.69A62.44,62.44,0,0,1,748.91,524c2.09,1.93,2.08,6.22,2.8,9.49.42,1.93.37,4,.62,6,2,16,8.16,30,19.79,41.52,3.46,3.42,6.35,3.66,9.48.13,3.39-3.84,7.33-7.42,9.81-11.81C802,550.62,799.67,531,795.05,511c-16.8.44-31.55-5.3-46.2-11.9a55,55,0,0,0-28.23-4.9c-5.72.58-8.67,3.15-9.07,8.18-.73,9.21,1,18.08,4.21,27.08C718,525.34,719.91,521.48,722.23,517.9ZM827,488.54l-10.82,13.12c18.86,29.29,25.1,61.63,23.88,96.19,19.09-3.56,35.32-11.59,49.41-25.05C875.41,539.28,854.81,511.28,827,488.54Zm2.26-7.57c-1,4.21.65,6.19,3.52,8.61a198.56,198.56,0,0,1,44.32,52.29c5.27,9.1,10,18.51,15.09,28a75.38,75.38,0,0,0,20-48.28c.08-1.74-1.38-4-2.79-5.31a305.55,305.55,0,0,0-51.1-38.12c-8.65-5.17-17.71-9.65-27.3-14.83C830.41,470.12,830.48,475.69,829.27,481Zm-44,109.33c14.18,7.88,29.54,9.53,45.42,9,4.94-.18,6.53-2,6.58-6.83.18-21.66-2.36-42.88-10.43-63.1-3.59-9-8.29-17.53-12.38-26l-16.07,7.49c5.68,28.15,7.52,55.46-18.68,76.1C781.54,588.07,783.34,589.26,785.22,590.3Z"/>
        <path class="cls-16" d="M653,815.41c-1.63-.85-3.6-1.36-4.83-2.61-11.94-12.07-23.92-24.12-35.56-36.48-11.29-12-22-24.5-33.35-36.47-6-6.32-9.41-5.94-14.47.87-9.67,13-20.09,25.26-32.82,35.44-1.1.88-1.82,3.79-1.22,5,2.84,5.78,5.57,11.81,9.51,16.82,9.07,11.52,21.22,19.58,33.46,27.34,6,3.82,12.86,4.44,19.76,3.21,12.9-2.29,25.77-4.78,38.66-7.18l19.38-3.64ZM646,688.57c-3.14.67-7.69.83-9.83-1-10.08-8.36-21.94-9.85-34.18-10.4-14-.64-25.94,3.69-35,14.73a115.59,115.59,0,0,0-9.17,12.45c-7.24,11.76-14.47,23.54-21.12,35.64a74.86,74.86,0,0,0-7,18.06c-1.3,5.35-.95,11.1-1.33,16.68l1.8.41c3.22-2.85,6.75-5.42,9.6-8.6,8.21-9.16,16.22-18.5,24.15-27.91,5.09-6,8.51-6.49,14.85-1.79,1.58,1.18,3.81,2.29,5.65,2.16a114.65,114.65,0,0,0,38.66-9c9.31-4.07,17.93-9.34,22.69-18.68,4.51-8.84,8.13-18.14,12.44-27.92C653.63,685.45,650,687.73,646,688.57Zm12.1,99.58q-1.29-2.7-2.42-5.47c-3.33-8.23-.51-12.65,8.28-12.64,4.82,0,9.64.73,14.45.64,2.89,0,6.27-.26,8.55-1.75,5.54-3.6,10.57-8,16.08-12.28-9.91-9.65-18.11-20.94-32.64-23.11-7.21-1.08-14.55-2.18-21.78-1.89-8.74.36-17.45,2-26.14,3.38-12.78,2-25.52,4.19-39.54,6.51l70.29,75C661.68,807.07,663,798.2,658.12,788.15Zm55.51-119a219.23,219.23,0,0,0-29.6-3.89c-3.64-.2-8,2-11,4.36-7.35,5.75-13.51,12.61-16.43,21.95-1.52,4.89-4.25,9.38-6,14.2-4.38,11.85-13,19.39-24,24.72-1.18.58-2.32,1.25-3.48,1.87,41.62-6,74.11-28.61,105-57.42C722.74,672.72,718.36,670,713.63,669.12Zm53,70.62C760.12,733.12,754.06,726,747,720a33,33,0,0,0-22.65-7.78c-11.15.33-22.3,1.13-33.45,1.15a35.24,35.24,0,0,0-18,4.47c-6.49,3.65-13.6,6.21-20.42,9.26-1.52.67-3,1.42-4.5,2.13,23.88-1.8,42.27,7.76,56,26.39,5-3.54,8.9-6.79,13.24-9.17,3.69-2,7.87-4.13,11.92-4.32,12.23-.56,24.49-.2,36.74-.2Zm-4.39-7c1.68,1.85,3.32,3.74,5.16,5.42.9.82,2.45,2,3.26,1.67,4.48-1.54,9.09-3,13.15-5.4,5.27-3.07,9.77-7.53,15.14-10.37C809.76,718.3,821,713.25,832,707.91c5.92-2.87,8.7-7.59,7.81-13.63-1.2-8.19-5.44-14.8-10.78-20.81-14.29,9.84-24.37,25.28-42,29.33-16.6,3.82-33.44,6.57-50.3,9.82C747.8,715.63,754.73,724.51,762.21,732.72Zm-42.1-23.6c4.71-.09,9.91.27,14-1.56,10.56-4.71,21.12-9.78,30.74-16.13,8.16-5.38,15-12.75,22.44-19.24-10.19-2.7-19.58-5.36-29-7.64-6.45-1.55-13.17-2.14-18.3,3.16a95.91,95.91,0,0,1-12.8,11.1c-13.54,9.83-26.12,21-37.57,30.37C698.55,709.18,709.33,709.32,720.11,709.12ZM820.19,670.4c-4,.08-8,.84-12,.61-13-.72-23.34,3.42-32.3,13.4s-20.61,16.76-33.07,21.93c-2.14.89-4.27,1.81-6.41,2.73a147.17,147.17,0,0,0,17.08-1.2c23.09-2.74,45.43-7.19,62.08-25.69,3.37-3.75,7.64-6.68,12.73-11A81.7,81.7,0,0,0,820.19,670.4Z"/>
        <g>
          <path class="cls-17" d="M363.26,873.32c.64-.17,1-.22,1.35-.35,13.13-5.19,26.26-10.36,39.36-15.61a2.66,2.66,0,0,0,1.23-1.82c.75-5.33.34-10.46-2.64-15.19a51.89,51.89,0,0,1-2.63-5.59,31.42,31.42,0,0,1-1.58-22.85c2.51-8.65,7.27-16.07,12.7-23.11,1.92-2.49,4-4.89,6.12-7.53-.6.08-.9.13-1.2.15-7.33.6-14.66,1.22-22,1.73-.68,0-1.92-.58-2-1.08A4.05,4.05,0,0,0,389,779a13.21,13.21,0,0,0-9.29-.12c-1.57.54-2.89,1.35-3.26,3.23-.07.38-1.09.84-1.65.82-2.8-.09-5.6-.33-8.46-.53.48,7.56-3,12.43-9.39,15.27a37.2,37.2,0,0,1-8.49,2.51c-3.25.61-6.59.73-9.86,1.07,4.16,4.42,8.27,8.88,12.47,13.24,7.28,7.53,10.57,16.78,11.2,27,.6,9.79.67,19.62,1,29.43C363.28,871.63,363.26,872.38,363.26,873.32Zm79.13-98.86c-6.12,1.84-11.55,3.73-17.13,5a13.16,13.16,0,0,0-7.65,4.6c-6.52,7.81-12.53,15.89-16.28,25.48-4.6,11.75-1.53,22.31,4.72,32.65.07-.45.12-.74.14-1,1-10.28,4.46-19.44,11.85-26.9q8-8,15.88-16.17c1.29-1.33,2.9-2.72,3.4-4.38C439.2,787.47,440.69,781.08,442.39,774.46ZM363.21,888.39h42V859.28L398.29,862q-16.8,6.63-33.6,13.3a2.5,2.5,0,0,0-1.41,1.66C363.15,880.6,363.21,884.28,363.21,888.39Zm1-106.09a128.68,128.68,0,0,1-37.72-8.63c1.36,7.12,2.05,14.06,5.09,20.3,1.6,3.29,4.3,5.83,8.67,4.89a31.87,31.87,0,0,1,3.67-.2c5.17-.49,10.26-1.33,14.7-4.27A11.89,11.89,0,0,0,364.17,782.3Z"/>
          <path class="cls-18" d="M366.85,662.25c6.3,3.73,12.18,7.21,18,10.7q7.91,4.68,15.8,9.4a3.71,3.71,0,0,1,1.54,1.38c3,6.61,7.86,11.78,12.74,17l1.42,1.53c-6.7,10.19-10.3,21.3-9.9,33.58s4.9,23,12.22,33.36c-3.33.56-6.29,1.31-9.3,1.53-8.48.64-16.66-1-24.72-3.54a5.6,5.6,0,0,0-2.44.21c-4.94.93-9.84,2.14-14.82,2.75A39.48,39.48,0,0,1,345,766.43c-.51-.24-1-.55-1.56-.87a74.48,74.48,0,0,0,10.4-19.75c4.69-14.08,4.6-28-1.39-41.76a2.41,2.41,0,0,1,.54-3.17c2.41-2.43,4.64-5,6.94-7.57,7.44-8.17,10-17.59,7.3-28.36A26,26,0,0,1,366.85,662.25Z"/>
          <path class="cls-19" d="M418.06,703.9c6.95,7.23,14.19,14,20.47,21.62,2.78,3.35,3.81,8.23,5.24,12.55a15.92,15.92,0,0,1,.06,10.49,15.06,15.06,0,0,1-3,5.53c-5.47,5.54-11.51,10.38-18.73,13.54-.41.18-.84.31-1.24.45C405.8,749.26,404.36,723.79,418.06,703.9Z"/>
          <path class="cls-20" d="M350.09,704.17c8.72,17.9,5.82,41.43-8.71,60.35-5.37-3.57-10.73-7.21-14.71-12.39-2.91-3.78-3.17-8.43-2.08-12.82s3.07-8.85,4.73-13.24a5.92,5.92,0,0,1,1.33-1.88q9.41-9.78,18.85-19.53A5.9,5.9,0,0,1,350.09,704.17Z"/>
          <path class="cls-21" d="M406,629.76c-1.16,10.73-2.28,21-3.46,31.88-1-.69-1.53-1-2-1.35-11.84-8.82-23.67-17.68-35.56-26.44-1.5-1.11-2.19-2.25-1.74-4.09Z"/>
          <path class="cls-22" d="M363.64,635.49l21.48,16c5.07,3.78,10.16,7.54,15.19,11.37a2.76,2.76,0,0,1,1.17,1.91c-.59,4.9-1.71,9.77-.42,15.25l-9.28-5.47c-8-4.77-16.09-9.53-24.1-14.35a3.07,3.07,0,0,1-1.5-1.76c-1-7.35-1.82-14.72-2.69-22.09A4.16,4.16,0,0,1,363.64,635.49Z"/>
          <path class="cls-23" d="M363.26,873.32c0-.94,0-1.69,0-2.44-.29-9.81-.36-19.64-1-29.43-.63-10.19-3.92-19.44-11.2-27-4.2-4.36-8.31-8.82-12.47-13.24,3.27-.34,6.61-.46,9.86-1.07a37.2,37.2,0,0,0,8.49-2.51c6.38-2.84,9.87-7.71,9.39-15.27,2.86.2,5.66.44,8.46.53.56,0,1.58-.44,1.65-.82.37-1.88,1.69-2.69,3.26-3.23A13.21,13.21,0,0,1,389,779a4.05,4.05,0,0,1,2.91,3.08c.11.5,1.35,1.12,2,1.08,7.34-.51,14.67-1.13,22-1.73.3,0,.6-.07,1.2-.15-2.16,2.64-4.2,5-6.12,7.53-5.43,7-10.19,14.46-12.7,23.11a31.42,31.42,0,0,0,1.58,22.85,51.89,51.89,0,0,0,2.63,5.59c3,4.73,3.39,9.86,2.64,15.19a2.66,2.66,0,0,1-1.23,1.82c-13.1,5.25-26.23,10.42-39.36,15.61C364.27,873.1,363.9,873.15,363.26,873.32Z"/>
          <path class="cls-24" d="M442.39,774.46c-1.7,6.62-3.19,13-5.07,19.27-.5,1.66-2.11,3-3.4,4.38Q426,806.25,418,814.28c-7.39,7.46-10.87,16.62-11.85,26.9,0,.29-.07.58-.14,1-6.25-10.34-9.32-20.9-4.72-32.65,3.75-9.59,9.76-17.67,16.28-25.48a13.16,13.16,0,0,1,7.65-4.6C430.84,778.19,436.27,776.3,442.39,774.46Z"/>
          <path class="cls-25" d="M363.21,888.39c0-4.11-.06-7.79.07-11.46a2.5,2.5,0,0,1,1.41-1.66q16.79-6.71,33.6-13.3l6.89-2.69v29.11Z"/>
          <path class="cls-26" d="M364.17,782.3a11.89,11.89,0,0,1-5.59,12.09c-4.44,2.94-9.53,3.78-14.7,4.27a31.87,31.87,0,0,0-3.67.2c-4.37.94-7.07-1.6-8.67-4.89-3-6.24-3.73-13.18-5.09-20.3A128.68,128.68,0,0,0,364.17,782.3Z"/>
        </g>
      </g>
    </g>
  </g>
</svg>
