<svg xmlns="http://www.w3.org/2000/svg" xmlns:xlink="http://www.w3.org/1999/xlink" viewBox="0 0 1053.01 858.8">
  <defs>
    <style>
      .cls-1 {
        fill: url(#linear-gradient);
      }

      .cls-2 {
        fill: url(#linear-gradient-2);
      }

      .cls-3 {
        fill: url(#linear-gradient-3);
      }

      .cls-4 {
        fill: url(#linear-gradient-4);
      }
    </style>
    <linearGradient id="linear-gradient" x1="401.79" y1="855.98" x2="401.79" y2="300.86" gradientUnits="userSpaceOnUse">
      <stop offset="0.01" stop-color="#fbb03b"/>
      <stop offset="0.5" stop-color="#fbb03b"/>
      <stop offset="1" stop-color="#d4622a"/>
    </linearGradient>
    <linearGradient id="linear-gradient-2" x1="17.48" y1="572.97" x2="448.68" y2="141.76" gradientUnits="userSpaceOnUse">
      <stop offset="0" stop-color="#f37f7b"/>
      <stop offset="0.5" stop-color="#fe3e96"/>
      <stop offset="1" stop-color="#dd1e47"/>
    </linearGradient>
    <linearGradient id="linear-gradient-3" x1="664.17" y1="858.8" x2="664.17" y2="299.15" gradientUnits="userSpaceOnUse">
      <stop offset="0" stop-color="#fbb03b"/>
      <stop offset="0.5" stop-color="#fbb03b"/>
      <stop offset="1" stop-color="#d4622a"/>
    </linearGradient>
    <linearGradient id="linear-gradient-4" x1="606.93" y1="571.49" x2="1034.29" y2="144.14" gradientUnits="userSpaceOnUse">
      <stop offset="0" stop-color="#f37f7b"/>
      <stop offset="0.5" stop-color="#ff3f9a"/>
      <stop offset="0.6" stop-color="#fd3d94"/>
      <stop offset="0.72" stop-color="#f63785"/>
      <stop offset="0.86" stop-color="#ec2c6b"/>
      <stop offset="1" stop-color="#dd1e47"/>
    </linearGradient>
  </defs>
  <g id="Layer_2" data-name="Layer 2">
    <g id="Layer_1-2" data-name="Layer 1">
      <g>
        <path class="cls-1" d="M289.9,387.63V367.86c7.66-8.13,15.5-17.52,24.44-25.7,14.45-13.22,30.83-23.9,47-35,12-8.22,20.45-8.62,32.14,0,9.78,7.25,22.18,10.67,33.83,15,8.24,3,15.79,8.15,23.31,12.87a197.43,197.43,0,0,1,19.91,14.19c8.3,6.79,14.24,15.73,20.1,24.6,3.19,4.81,5.42,10.27,8.74,15,6.8,9.63,9,21.16,13.65,31.65,1.07,2.39.6,5.54.6,8.34q0,210,0,420a19.27,19.27,0,0,1-.38,2.7c-7.39,5.22-12.6,4.58-21.82,4.28-13.06-.42-15.29-8.42-18.22-18.33-2.59-8.75-2.49-17.36-2.57-26.13-.07-7.64,0-15.29,0-22.93,0-14.82-.78-29.68.22-44.43,1-15.15-3.67-29.66-3.19-44.7.48-14.79.11-29.62.11-44.43s1.9-29.94-.49-44.36c-3-17.88-2-35.58-2.3-53.36-.36-18.15,0-36.32-.12-54.47-.07-8.76-4.06-17-3-26.07a109.88,109.88,0,0,0,0-25.76c-1.75-13.93-6.33-27.84-16.54-37.27-8.59-7.92-19.06-16.26-32.58-13.92-3.44.6-4.7-2.42-8.28-1.93-7.87,1.08-20.57,2.55-28.29,5.83-1.22.52-2.48,1.6-3.64,1.5-14.88-1.28-29.77,1.93-44.84-2.26-7.65-2.13-15.95-2.64-23.24-6.34C299.18,393.77,294.36,390.37,289.9,387.63Z"/>
        <path class="cls-2" d="M115.67,379.29c-18.55-8.15-27.15-25.92-43.27-35-1.2-.67-2-2-3.06-3-16.15-15.2-32.2-30.49-48.5-45.52-4.7-4.33-10.09-7.92-14.84-11.6-1-14.22,5.16-27.3,2.81-41,4.48-7.19,2.17-15.34,3-22.86,5.76-2.81,11.32-5.52,16.87-8.25,25-12.3,50.69-22.92,75.75-35,17-8.24,34.49-15.85,51.9-23.35,11.75-5,23.49-10.16,35.1-15.52,11.24-5.18,22-11.58,33.5-16,17.82-6.75,34.77-15.21,51.94-23.33,17.54-8.29,35.63-15.41,53.39-23.24,10.5-4.62,20.85-9.6,32.07-14.8,10,8.77,15.47,20.36,19.28,32.92,3.58,11.83,6.8,23.65,5.86,36.3a125.85,125.85,0,0,0,.1,24.32c.95,7.75-3.5,14.27-3.17,21.76.32,7.31-3.45,13.88-4.82,20.84a182.63,182.63,0,0,1-14.25,42.84c-.93,2-.85,4.5-.88,6.78-.1,7.64-.07,15.28,0,22.92,0,8.7,3.08,16.73,6,25.67-6.52,4.18-13.27,8.45-20,12.82C330.76,321,311.39,334.47,296,352.5c-6.28,7.35-13.28,15.2-11.89,26.79Zm-3.61,6.24c0,2.36.7,4.62-.11,6-6.11,10.34-10.28,21.5-14.81,32.57-4.67,11.43-11.66,22-15.81,33.55-7.64,21.26-17.88,41.32-26.67,62-7.4,17.47-15.11,34.82-23,52.95,6.29,8.18,13.54,16.44,19.48,25.56,14.34,22,32.09,41,50.83,59.12a45,45,0,0,0,11,7.95,8.93,8.93,0,0,0,7.56-.7c20.78-14.1,42-27.4,63.47-40.5,15-9.14,28.59-20.61,43.93-29,25.16-13.72,48.63-30.11,72.82-45.27,26.21-16.42,52.69-32.56,78.1-50.24,7.52-5.23,17.35-7.42,21.61-14.23A201.12,201.12,0,0,0,372.34,411c-16.79-.89-33.21,1.39-49.41-2.86-9.06-2.37-17.71-5.84-26.6-8.37-6.54-1.85-5.35-8.25-9.62-10.86a13.66,13.66,0,0,1-3.13-3.37Zm-50.74-195c18.93-8.48,37.94-16.81,56.85-25.35,21.73-9.82,43.39-19.8,65.08-29.72,20.07-9.17,40.09-18.45,60.41-27.13C268,98,291.85,86.31,316,75.29c4.81-2.2,9.54-4.46,14.65-6.22,10-3.43,19-9.51,30-15.34-10.91-7.78-20-15.58-30.28-21.29A257.45,257.45,0,0,0,267.43,7.89c-11.37-2.84-22.9-5-34.29-6.73-13.56-2-27.66-.94-41.48-.26-6.6.32-13.13,2.64-19.61,4.38a76.33,76.33,0,0,0-36.6,22.28c-8.28,8.91-16,18.33-24.41,27.1C99.79,66.38,88.34,77.91,76.58,89.11c-10.82,10.3-19.75,22-28.33,34.15-15.11,21.35-23.46,45.65-30.77,70.37C16,198.68,15.4,204,13.84,212,31.55,204,46.41,197.23,61.32,190.56ZM390.57,499.67c-14.85,7.47-27.82,17.87-42.07,26.29-15,8.89-29.4,18.9-44.16,28.26-14,8.86-28.17,17.35-42.08,26.29-17.37,11.17-34.11,23.39-51.94,33.74C195.2,623,180.89,633,166.09,642.19q-22.68,14.12-45.46,28.26c14.16,14.88,32.81,21.73,50.63,30.29,14.55,7,30.31,6.5,45.27,7.68,18.92,1.48,38.22,2.29,57.58-1.57,13-2.59,25.42-6.64,36.38-12.57,18.37-9.95,34.61-23.6,50.43-37.47,10.22-8.95,17.33-20.41,25-31.26a93.32,93.32,0,0,0,12.6-26.17c2.25-7.25,3.87-15,3.49-23.06-.36-7.66,2.23-15.41,2.46-23.15.44-14.78-.08-29.59.23-44.38.12-5.74-1.6-10.45-5.47-15.41C396.35,495.51,393.71,498.09,390.57,499.67Zm-360.15,63A420,420,0,0,1,48.49,521.4a259.32,259.32,0,0,0,11.58-26.72c8.05-21.58,19-41.82,27.3-63.26,5.61-14.53,12.52-28.56,19.93-45.26-8.75,3.09-14.82,6.34-21.22,7.25-13.84,2-26.7,7.31-40.16,10.51-12.57,3-25,6.7-37.54,9.71C1.81,415.2,0,416.18.3,422.36c.59,13-2,26.13,2.58,39,2.24,6.36-.68,13.33,2.52,20.5,2.77,6.19,1.94,14.34,2.84,21.58,1.65,13.15,6.61,25.2,9.53,37.85,1.79,7.75,6.61,14.81,9.84,21.69C29.55,562.8,30.35,562.88,30.42,562.69ZM95.47,370.12C80.86,361.46,71,347.56,57.79,337.21c-18-14.1-33.82-31-50.72-46.82-7.24,12.95-1,27.32-4.5,39.95-3.71,13.21-1.54,26.05-2.21,39C-.35,383,.2,396.73.2,410.2L107,381.31C102.78,377.11,99.7,372.63,95.47,370.12Z"/>
        <path class="cls-3" d="M788.92,383.23c-8.1,10.38-18.29,14.24-30,16.36-12.08,2.18-24.09,4.89-36.35,5.39-12.87.54-25.8.42-38.68,0-4.83-.16-9.66-1.82-14.38-3.21-5.08-1.49-10-3.48-15-5.22-.42-.15-1.29-.18-1.37,0-2,4.63-7.4-1.78-9.38,2.85-12.21-1.22-22.07,3.15-31.27,11.2-7,6.17-16.27,19.26-18.7,28-3.48,12.42-2.14,25-2.83,37.53-1.1,20.14-3.57,40.16-2.9,60.43.65,20,2.21,40.39-.47,60.09-2.44,17.91-1.68,35.58-2.15,53.34s1.45,35.51-.42,53c-4.4,41.15-1.58,82.34-2.56,123.49,0,.34-5.67,18.7-5.71,19.12-.71,7.37-7.12,9.32-12.22,11.72-4.48,2.11-9.75,2.37-14.48-1.07-1.29-.94-3.71-.17-5.34-.84-3.08-1.29-5.53-3.27-5.31-7.24.19-3.34,0-6.69,0-10q0-201.3-.09-402.61c0-19.33,7.72-35.68,17.12-51.69,2.71-4.6,5.07-9.46,8.2-13.77a126.38,126.38,0,0,1,10.42-12.7,162.23,162.23,0,0,1,28.8-23.43,133,133,0,0,1,32.37-15.22c11.65-3.72,22.59-10.21,33.13-16.65,5-3.06,8.52-3.86,13.87-1.33a556.47,556.47,0,0,1,73.14,41.45c10.33,6.95,18.1,16.28,27,24.51C788.17,371,789.4,376.72,788.92,383.23Z"/>
        <path class="cls-4" d="M682.28,294.52c8.3-16.56,6.76-34.41,5.94-51.92-.3-6.25-5-12.17-7-18.48-4.49-14.41-9.49-28.78-12.45-43.53-2.64-13.16-2.82-26.81-4.1-40.47,13.29-5.57,25.79-11,38.41-16.06,11.47-4.62,23.08-8.89,34.62-13.33,23.08-8.88,46-18.12,69-27.25,16-6.35,32-12.82,47.82-19.53,22.76-9.64,46-18.19,69-27.22a5.67,5.67,0,0,0,1.39-.89c2.63,3.28,4.93,6.7,7.78,9.58q23.19,23.44,46.61,46.66A197.75,197.75,0,0,1,1021,152.26c6.31,14.06,10.31,29.24,14.48,44.16a156,156,0,0,1,6.06,37.72c.13,4.81,2.25,9.57,3,12.48L950.61,378.78H795.67c-5.62-14.18-15.78-24.81-28.42-34.85C741.33,323.34,712,309.4,682.28,294.52Zm19,220.15c8.91,5,18.08,9.58,26.9,14.75,10.41,6.11,20.31,13.11,30.84,19,11.19,6.25,23.46,10.71,34.2,17.6,19.9,12.77,40.95,23.43,61.37,35.23,15.8,9.13,31.47,18.47,47.46,27.25,11.31,6.22,22.71,12.22,33.72,19,5.33,3.29,10.88,8.37,18.75,6.89C985,623,1013.3,589.74,1032,550.41c-27-55.36-53.69-110.21-80.44-165.14H794.93c-4.73,4.54-7.85,8.41-11.76,11.13-9.7,6.73-21.37,9.75-32.49,11.05-13.78,1.61-27.54,4.94-41.74,3.56-9.36-.91-18.88-.17-27.08-.17-16.74,23.09-24.14,48.64-30.29,76.48C668.07,495.88,684.61,505.42,701.27,514.67Zm223,133c-18.59-12.35-38.76-21.85-57.92-33.14-11.07-6.52-23.1-11.47-33.82-18.48-18.68-12.21-38.78-21.81-57.93-33.14-11.05-6.54-23.13-11.42-33.82-18.46-18.64-12.28-38.86-21.68-57.9-33.2-9.88-6-20.11-11.39-30.74-17.38-1.22,3.68-3.41,7.39-3.53,11.16-.43,13.83,0,27.68-.23,41.52-.29,14,4.39,27.6,3.25,41.8-.39,4.9,2.54,10.24,4.57,15.13a154.07,154.07,0,0,0,35.42,52.59c5.31,5.11,11.55,9.25,16.93,14.29,10.67,10,23.37,17,35.76,24.37a100.16,100.16,0,0,0,51.33,14.08c18.67.11,37.63,3.12,56.08-2.58,17.61,2.47,32-8.23,48.07-11.86,15.81-11.57,33.81-20.26,46.86-35.66C939.21,655.15,931.15,652.29,924.24,647.7Zm-43-642.18c-4.5-5.15-12.2,1.33-16.82-4.66-.89-1.16-4.56-.31-6.94-.15-14.86,1.05-29.65-.8-44.74,2.23-11.88,2.38-24.47,3.71-36,6.89A227.29,227.29,0,0,0,711.7,39.19,96.62,96.62,0,0,0,672.59,90c-4.59,13.63-9.64,27.51-5.87,43.3,9.76-4,19.12-7.76,28.45-11.6,16.71-6.89,33.46-13.78,50.28-20.28,21.39-8.25,42.68-16.78,64-25.31,16.76-6.73,33.62-13.26,50.21-20.46,10-4.33,20.44-8.23,30.8-12s20.48-8.16,30.91-12.36C909.8,19.05,897.42,9.33,881.26,5.52Zm171.56,399.54c0-13.09.49-25.45-.13-37.75-.64-12.5,2-25-2.32-37.63-2.33-6.84,0-15.16-.52-22.77s-2.17-15.42-2.66-23.17c-.54-8.43.89-17.15-5.13-25-5,9.85-12,18.16-18.17,27.06-7.18,10.43-14.52,20.83-22.15,30.93-9.29,12.3-17.41,25.35-26.4,37.82-6.4,8.89-13.16,17.52-19.8,26.31Zm-94.89-18c25.78,53,52.5,103.53,76.67,154.88,7.13-19.9,11.19-41,14.1-62.41,3-22.27,5.45-44.54,3.65-68.77Z"/>
      </g>
    </g>
  </g>
</svg>
