<svg xmlns="http://www.w3.org/2000/svg" xmlns:xlink="http://www.w3.org/1999/xlink" viewBox="0 0 831.46 876">
  <defs>
    <style>
      .cls-1 {
        fill: url(#linear-gradient);
      }
    </style>
    <linearGradient id="linear-gradient" x1="91.5" y1="917.13" x2="740.87" y2="267.76" gradientUnits="userSpaceOnUse">
      <stop offset="0" stop-color="#3fbcff"/>
      <stop offset="0.01" stop-color="#42bbfe"/>
      <stop offset="0.14" stop-color="#74b1f1"/>
      <stop offset="0.28" stop-color="#9ea8e6"/>
      <stop offset="0.42" stop-color="#c1a1dd"/>
      <stop offset="0.56" stop-color="#dc9bd6"/>
      <stop offset="0.7" stop-color="#f097d1"/>
      <stop offset="0.85" stop-color="#fb95ce"/>
      <stop offset="1" stop-color="#ff94cd"/>
    </linearGradient>
  </defs>
  <g id="Layer_2" data-name="Layer 2">
    <g id="Layer_1-2" data-name="Layer 1">
      <path class="cls-1" d="M444.7,176.25q0,73.14,0,146.27c0,12.32-5.32,21.44-16.21,27-10.68,5.42-21.07,4-30.53-3.07-7.84-5.87-11.38-14.17-11.38-23.8q-.11-146.27,0-292.54c0-17.63,12.92-30.23,29.49-30.07,16.37.16,28.5,13,28.54,30.83Q444.82,103.54,444.7,176.25Zm-13.67.08q0-68.43,0-136.86c0-3.7.15-7.42-.11-11.11-.58-8.16-6.35-14-14-14.61A15.5,15.5,0,0,0,400.76,26.2a46.18,46.18,0,0,0-.53,9.35q0,83.4,0,166.8V316.11c0,2-.06,4,0,6,.47,9.93,7,16.86,15.71,16.78s15-6.81,15-17.14Q431.12,249,431,176.33ZM638.67,754.65c26.61-20.53,46.38-47,64-75.15,39.39-63.1,65-132.19,86.7-202.86,1.13-3.68.32-8.59-1.13-12.34-9.57-24.67-18.86-49.49-29.53-73.69A1433.16,1433.16,0,0,0,634.25,165.86c-11.88-17.59-26-33.34-45.07-43.6-16.77-9-33.5-8.61-47.57,4.49-9.65,9-19.28,19.29-25,30.93-10.76,21.85-20.61,44.54-27.43,67.87-24.87,85.07-32.29,172.86-38,260.83-.34,5.15,2.26,6.83,6,8.77A217.22,217.22,0,0,1,512.74,536c49.08,49.48,79.65,109.86,102.59,174.68,5.59,15.78,10.45,31.82,16,49C634.56,757.52,636.69,756.18,638.67,754.65ZM645.49,771q49.75,46.32,99.56,92.59a62.27,62.27,0,0,0,8.08,6.29c15,9.85,30.2,7.9,40.3-6.95a142.71,142.71,0,0,0,16.89-33.29c13.46-39.11,17.85-80,20.33-121,4.29-71-8.86-139.54-29.91-206.9a21.5,21.5,0,0,0-1.83-3.71C784,536,770.51,574.39,754,611.47c-26.35,59.16-58.15,115-110.37,157.15A21.08,21.08,0,0,0,645.49,771ZM610,737.39c-17.69-53.48-39.47-105-72.53-151.09C516,556.4,491.13,530,458.79,511.5c-2.53-1.45-5.25-2.55-10.75-5.19,0,32.12-.24,61.74.1,91.35.2,17.28,7.08,31.45,21.85,41.27,3.55,2.37,6.86,5.09,10.35,7.56L610.07,738C610.12,739.05,610.26,738.15,610,737.39ZM77.26,380.52C45.81,450.29,20.45,522,7.29,597.69c-.91,5.23-.08,8.47,4.11,11.63,8.42,6.34,16.38,13.29,24.79,19.64,59.2,44.66,122.92,80.19,196.24,95.84,3.76.8,9-.61,12.23-2.89,23.21-16.47,46-33.59,69.07-50.19,17.33-12.44,35.14-24.22,52.46-36.68,10.3-7.41,16.13-18.19,16.33-30.66.54-34.12.19-68.25.19-101.24-29.06-9-56-16.26-82.14-25.78-78.43-28.59-154-61.94-206-134C88.52,356.31,82.75,368.35,77.26,380.52Zm302.36,98.42c-4.79-49-8.56-98.2-14.76-147.06-5.85-46.06-15.49-91.52-31.71-135.27-8.24-22.25-17.67-43.91-34.07-61.66-20.92-22.65-43.3-25.56-67-5.74-14.44,12.08-28.35,26.23-38.18,42.13-30.54,49.35-59,100-88.36,150.09-2.66,4.52-2.35,8.15.27,12.56,12.72,21.44,29.91,38.77,49.45,53.83,47.51,36.62,101.65,60.23,157.91,79.42,21.46,7.32,43.32,13.5,66.46,20.66C379.64,483.39,379.83,481.14,379.62,478.94ZM3.84,623.92c-.39,2-.66,3.92-.89,5.89C-2.92,679.2.52,728.29,8.44,777.11c4.41,27.26,9.83,54.47,24.36,78.65,14.69,24.44,33.69,26.33,54.66,7C131,822.57,175.06,782.91,218.9,743c1.76-1.6,3.45-3.29,5.53-5.27C141.23,717,70.21,675.31,5.37,622.15,4.53,623.09,3.93,623.46,3.84,623.92ZM431,39.56c0-3.7.15-7.42-.11-11.11-.58-8.16-6.35-14-14-14.6a15.5,15.5,0,0,0-16.12,12.44,46.28,46.28,0,0,0-.52,9.36q0,83.39,0,166.79V316.2c0,2-.06,4,0,6,.47,9.94,7,16.87,15.71,16.79s15-6.81,15-17.15q.13-72.7,0-145.41Q431,108,431,39.56Z"/>
    </g>
  </g>
</svg>
