<svg id="Layer_1" data-name="Layer 1" xmlns="http://www.w3.org/2000/svg" viewBox="0 0 1920 1080"><defs><style>.cls-1{fill:#109bdc;}.cls-2{fill:#d89935;}</style></defs><path class="cls-1" d="M198.88,380.42l-.33,0-.26.18c-.51.37-1.23.28-1.76.63l.07,0c-.63.81-1.86.14-2.54.82h0a5.53,5.53,0,0,1-2,.69l-.29,0-.23.18c-.5.4-1.24.29-1.76.65l.06,0c-.6.81-1.85.11-2.49.85h0c-.51.42-1.24.35-1.79.68l.07,0c-.58.85-1.85.12-2.47.88h0c-.51.4-1.25.32-1.77.68l.05,0c-.51.55-1.31.49-2,.74l-.31,0-.23.18c-.48.39-1.23.25-1.69.68h0c-.48.46-1.24.37-1.77.72l.06,0c-.5.57-1.31.5-2,.75h-.3l-.23.18c-.48.38-1.23.22-1.66.69h0c-.48.43-1.24.32-1.74.72l0,0c-.46.5-1.23.4-1.76.75l.06,0c-.43.56-1.21.46-1.78.76l.08-.05c-.46.64-1.29.55-2,.8H164l-.22.18c-.47.38-1.23.21-1.63.71h0c-.48.39-1.24.27-1.69.73h0c-.47.43-1.24.3-1.71.74h0c-.46.46-1.23.34-1.73.75l0,0c-.44.49-1.23.37-1.72.77l0,0c-.44.5-1.23.38-1.73.78l0,0c-.45.51-1.23.39-1.74.77l0,0c-.44.52-1.22.4-1.74.77l0,0c-.41.54-1.22.4-1.71.8l0,0c-.43.51-1.22.38-1.72.78l0,0c-.44.5-1.23.38-1.72.78l0,0c-.43.5-1.23.37-1.71.78h0c-.44.48-1.23.35-1.69.78h0c-.44.46-1.23.32-1.67.78h0c-.46.42-1.24.27-1.66.76h0c-.45.41-1.24.24-1.63.76l0,0a2.64,2.64,0,0,1-1.21.62h-.3l-.21.2c-.33.18-.57.49-1,.57l.1-.07c-.37.63-1.2.5-1.74.83l.07,0c-.39.59-1.21.45-1.72.83l.06,0c-.41.54-1.22.4-1.71.82l0,0c-.43.49-1.23.34-1.68.8h0c-.43.45-1.23.28-1.63.79l0,0a2.46,2.46,0,0,1-1.21.62h-.3l-.21.2a6.67,6.67,0,0,1-1,.57l.09-.07c-.37.62-1.2.48-1.72.84l.06,0c-.4.55-1.21.41-1.7.82l0,0c-.42.5-1.23.34-1.66.81h0c-.44.42-1.24.25-1.61.78l-.06,0c-.35.19-.59.54-1,.61l.09-.08c-.35.65-1.19.51-1.72.86l.07-.05c-.39.58-1.21.44-1.7.84l0,0c-.41.51-1.23.36-1.66.82h0c-.43.44-1.24.26-1.61.79l-.05,0c-.35.19-.59.54-1,.61l.09-.08c-.34.65-1.18.51-1.71.86l.06,0c-.38.57-1.21.43-1.69.84l0,0c-.42.49-1.23.34-1.66.81h0a2,2,0,0,1-1.24.65h-.27l-.19.19c-.32.2-.56.51-1,.59l.09-.07c-.35.63-1.19.49-1.71.85l.06,0c-.39.56-1.21.41-1.69.84l0,0c-.42.48-1.22.32-1.64.81h0a2.29,2.29,0,0,1-1.23.64h-.28l-.19.2a7.31,7.31,0,0,1-1,.58l.09-.07c-.37.62-1.2.47-1.71.85l0,0c-.4.54-1.22.39-1.68.82h0c-.42.47-1.23.3-1.63.81h0a2.49,2.49,0,0,1-1.2.63.4.4,0,0,0-.51.2,9.41,9.41,0,0,1-1,.58l.08-.06c-.37.6-1.2.45-1.7.84l0,0c-.41.53-1.22.38-1.67.82h0c-.43.45-1.23.28-1.62.8h0c-.35.2-.59.56-1,.62l.1-.09c-.34.67-1.18.52-1.72.86l.07,0c-.38.58-1.2.44-1.7.84l0,0c-.41.52-1.23.36-1.67.82h0c-.43.44-1.24.26-1.61.79l0,0c-.36.19-.6.53-1,.61l.09-.08c-.34.65-1.18.5-1.71.86l.07,0c-.4.56-1.22.42-1.7.83l0,0c-.41.49-1.22.34-1.65.81h0a2.14,2.14,0,0,1-1.24.65h-.28l-.18.18a3.15,3.15,0,0,1-1,.6l.09-.08c-.35.63-1.19.49-1.71.86l.06,0c-.39.55-1.21.41-1.69.83l0,0c-.42.48-1.23.32-1.64.81h0a2.23,2.23,0,0,1-1.21.64h-.3l-.2.19a6.67,6.67,0,0,1-1,.59l.09-.07c-.37.61-1.2.47-1.72.84l.06,0c-.4.54-1.22.39-1.68.83h0c-.42.46-1.23.3-1.63.8h0a2.56,2.56,0,0,1-1,.62l.1-.09c-.33.68-1.17.53-1.72.87l.08-.05c-.38.6-1.21.46-1.71.84l0,0a7.45,7.45,0,0,1-1.7,1.51c-8.13,4.3-16.5,8.23-24.62,12.56a17.88,17.88,0,0,1-3.92,1.11h0c-4.45,4-10.42,5.73-15.6,8.63a129.31,129.31,0,0,1-12.09,6c-1.31.56-2.65,1.59-4.25.53V-11.29c2-1.26,4.35-.73,6.54-.73,123.36,0,246.71.15,370.07-.13,35.56-.08,71.11-.07,106.67-.26H762.31q22.19,0,44.38,0c1.5,0,3.07.37,4.51-.37h49.6l-.09,2c-.75,1.27.09,2.76-.68,4l-.17,1.23c-.67,1,.11,2.33-.77,3.31v0c-.9.88.08,2.17-.85,3.05v0c-.74.63-.12,1.62-.75,2.28a.45.45,0,0,0-.15.58c-.62.72,0,1.79-.86,2.44l0-.06c-.39.47-.29,1.11-.69,1.58a.42.42,0,0,0-.17.55c-.33.55-.27,1.24-.75,1.73h0c-.83.57,0,1.72-1,2.23l0-.06c-.36.49-.26,1.18-.81,1.6l0,0c-.45.45-.33,1.13-.81,1.57h0c-.51.4-.37,1.08-.8,1.52l0,0c-.55.37-.39,1.05-.81,1.48l0,0c-.57.35-.39,1.06-.85,1.47h0c-.54.38-.36,1.1-.87,1.49h0c-.5.41-.33,1.14-.92,1.5l0,0c-.44.45-.27,1.21-1,1.52l.09-.08c-.1.38-.48.6-.7.91l0,0c-.58.33-.38,1.08-.94,1.43l0,0c-.46.44-.27,1.22-1,1.5l.1-.09a2.06,2.06,0,0,1-.75.91h0c-.51.4-.31,1.19-1,1.47l.09-.09a2.13,2.13,0,0,1-.76.9h0c-.51.39-.3,1.2-1,1.45l.09-.09a1.67,1.67,0,0,1-.79.91l0,0a10.53,10.53,0,0,1-1.8,2.26l.08-.07a2.47,2.47,0,0,1-.8.87h0c-.65.71-1,1.66-1.84,2.22l.09-.08a1.81,1.81,0,0,1-.83.88l0,0a8.71,8.71,0,0,1-.78.83v0c-.74.64-1,1.64-1.89,2.16l.09-.08a1.42,1.42,0,0,1-.86.87l.07-.06a2.36,2.36,0,0,1-.85.84l0,0a8.85,8.85,0,0,1-.81.81h0a5.6,5.6,0,0,0-.77.77l0,0c-.81.58-1,1.66-2,2.08l.1-.08a1,1,0,0,1-.91.86l.09-.08a1.2,1.2,0,0,1-.89.86l.08-.07a1.39,1.39,0,0,1-.91.84l.08-.07a1.6,1.6,0,0,1-.89.84l.07-.06a1.83,1.83,0,0,1-.91.82l.07-.06a1.87,1.87,0,0,1-.91.82l.07-.07A1.94,1.94,0,0,1,822,53l.06-.05a2.49,2.49,0,0,1-.88.82l0,0a2.49,2.49,0,0,1-.91.79l.06,0a2.06,2.06,0,0,1-.92.8l.07-.06a1.92,1.92,0,0,1-.91.82l.07-.06a1.9,1.9,0,0,1-.91.81l.07-.06a1.7,1.7,0,0,1-.94.8l.08-.07a1.44,1.44,0,0,1-.94.82l.09-.08a1.3,1.3,0,0,1-.95.82l.08-.08a1.11,1.11,0,0,1-.95.81l.09-.09c-.48.89-1.69,1-2.29,1.76l-.07.06a2.57,2.57,0,0,0-.82.67l0,0a8.42,8.42,0,0,0-.87.71h0a5,5,0,0,1-.91.74l0,0a2.1,2.1,0,0,1-.94.77l.08-.06a1.45,1.45,0,0,1-1,.78l.08-.09c-.54.84-1.69,1-2.35,1.73l0,0a10,10,0,0,0-.89.68h0a3.57,3.57,0,0,1-.93.74l.06,0a1.66,1.66,0,0,1-1,.76l.08-.08c-.59.81-1.69,1-2.41,1.69h0a6.46,6.46,0,0,1-.93.7l0,0a1.78,1.78,0,0,1-1,.75l.09-.09c-.61.81-1.68,1.07-2.46,1.67h0a2.76,2.76,0,0,1-1,.72l.08-.06a17.4,17.4,0,0,1-2.48,1.63h0a3,3,0,0,1-1,.71l.07-.06A15,15,0,0,1,789.31,78h0a2.65,2.65,0,0,1-1,.71l.09-.08c-.29.61-1.19.4-1.54.94l0,0c-.35.18-.6.48-1,.66l.05,0a1.54,1.54,0,0,1-1,.71l.09-.1c-.25.7-1.16.51-1.6,1h0a2.23,2.23,0,0,1-1,.69l.09-.08c-.29.64-1.18.45-1.59.93h0a3.13,3.13,0,0,1-1,.68l.08-.07c-.32.59-1.2.41-1.59.9l0,0a3.72,3.72,0,0,1-1,.66l.08-.07c-.32.6-1.2.41-1.59.91h0a3.72,3.72,0,0,1-1,.66l.08-.07c-.33.6-1.2.42-1.61.9h0a3.22,3.22,0,0,1-1,.66l.09-.07c-.33.62-1.2.45-1.64.9h0a2,2,0,0,1-1,.67l.1-.09c-.3.68-1.18.51-1.66.91l0,0c-.37.52-1.22.33-1.58.86l-.05,0c-.35.19-.59.52-1,.64l.08-.07c-.35.6-1.2.43-1.65.88h0a1.88,1.88,0,0,1-1,.66l.1-.1c-.29.71-1.16.54-1.68.91l.07,0c-.37.56-1.23.37-1.64.86-7.09,3.56-14.15,7.15-21.26,10.66-26.63,13.16-54.1,24.85-81.34,37-33.42,14.86-66.14,30.81-96.78,50C545,202.75,530,213.09,515.66,224.19a11.38,11.38,0,0,0-3,2.62,1.54,1.54,0,0,1-1,.83l.09-.08a1.19,1.19,0,0,1-1,.8l.08-.1c-.48.9-1.68,1-2.31,1.76l-.05,0a4.07,4.07,0,0,0-.84.69l0,0c-.31.22-.58.49-.88.72l0,0a4.12,4.12,0,0,1-.9.76l0,0a2.42,2.42,0,0,1-.92.78l.06-.06a1.78,1.78,0,0,1-.94.8l.08-.07a1.45,1.45,0,0,1-.95.8l.09-.07a1.19,1.19,0,0,1-1,.8l.09-.08a1,1,0,0,1-.95.82l.09-.09a35.18,35.18,0,0,1-4,3.27l0,0a3.79,3.79,0,0,0-.82.72l0,0a7.24,7.24,0,0,0-.84.72h0c-.31.23-.58.5-.86.74h0c-.28.26-.56.52-.86.76h0c-.27.27-.55.52-.85.77h0a6.4,6.4,0,0,1-.88.76l0,0a3.34,3.34,0,0,1-.9.77l.05,0a3,3,0,0,1-.89.8l.05,0a3.07,3.07,0,0,1-.89.79l.05,0a3.1,3.1,0,0,1-.89.8l.05,0a3.25,3.25,0,0,1-.89.8l0,0a3,3,0,0,1-.88.79l0,0a2.94,2.94,0,0,1-.88.8l0,0a3.08,3.08,0,0,1-.88.8l0,0a3,3,0,0,1-.88.79l0,0a3.06,3.06,0,0,1-.88.8l0,0a3.12,3.12,0,0,1-.89.8l0-.05a3,3,0,0,1-.89.8l.05,0a3,3,0,0,1-.89.8l.05,0a3,3,0,0,1-.89.79l.05,0a3,3,0,0,1-.89.8l.05,0a3.12,3.12,0,0,1-.89.8l.05,0a3.69,3.69,0,0,1-.86.81l0,0a7.85,7.85,0,0,1-.84.79h0c-.27.27-.56.52-.85.77h0c-.28.26-.56.52-.85.76h0c-.28.27-.56.52-.86.77h0c-.27.26-.56.51-.84.77h0a7.31,7.31,0,0,0-.8.77l0,0a5.2,5.2,0,0,0-.81.74l0,0a4.32,4.32,0,0,0-.81.73l0,0a4.3,4.3,0,0,0-.81.72l0,0a3.49,3.49,0,0,0-.79.74l0,0c-2.92,3.18-6.41,5.87-9.5,8.9l.1-.08a1.08,1.08,0,0,1-.93.84l.08-.09a1.05,1.05,0,0,1-.92.84l.08-.08a1.06,1.06,0,0,1-.93.84l.09-.08a1,1,0,0,1-.93.83l.09-.08a1.08,1.08,0,0,1-.93.84l.09-.08a1.08,1.08,0,0,1-.93.84l.09-.08a1.06,1.06,0,0,1-.93.83l.09-.08a1.08,1.08,0,0,1-.93.84l.09-.08a1.08,1.08,0,0,1-.93.84l.09-.09a1.07,1.07,0,0,1-.93.84l.09-.08a1.08,1.08,0,0,1-.93.84l.09-.08a1.06,1.06,0,0,1-.93.83l.09-.08a1.08,1.08,0,0,1-.93.84l.09-.08a1.08,1.08,0,0,1-.93.84l.08-.08a1,1,0,0,1-.93.83l.09-.09c-2.17,1.84-4.17,3.86-6.53,5.53l0,0a3.74,3.74,0,0,0-.82.71l0,0c-.3.23-.59.47-.86.72h0c-.29.25-.56.51-.87.75l0,0a4.64,4.64,0,0,1-.89.76l0,0a3,3,0,0,1-.91.78l0-.05a2.15,2.15,0,0,1-.92.79l.07-.06a1.68,1.68,0,0,1-.95.8l.08-.08a1.31,1.31,0,0,1-.95.81l.09-.08a1.11,1.11,0,0,1-1,.8l.08-.09a16.7,16.7,0,0,1-3.21,2.49h0c-.3.24-.57.51-.89.73l0,0a3.19,3.19,0,0,1-.92.75l.06-.05a1.91,1.91,0,0,1-1,.78l.08-.07a1.31,1.31,0,0,1-1,.79l.09-.09c-.53.86-1.68,1-2.36,1.73l0,0c-.33.2-.59.48-.9.7l0,0a2.93,2.93,0,0,1-.93.74l.06-.05a1.58,1.58,0,0,1-1,.77l.09-.08c-.58.81-1.7,1-2.4,1.69l0,0c-.32.21-.58.5-.92.7l0,0a2.08,2.08,0,0,1-1,.75l.08-.08c-.62.78-1.7,1-2.42,1.68h0a8.12,8.12,0,0,1-.94.69l.06,0a1.66,1.66,0,0,1-1,.74l.09-.09c-.24.65-1.18.44-1.51,1l-.06,0c-.35.17-.59.47-.92.66l0,0a2,2,0,0,1-1,.73l.09-.08c-.27.63-1.18.42-1.53,1l-.05,0c-.35.19-.6.48-.94.67l.05,0a1.68,1.68,0,0,1-1,.72l.1-.09c-.27.67-1.17.48-1.58,1h0a3.06,3.06,0,0,1-1,.69l.08-.07c-.31.59-1.2.39-1.56.92l-.05,0a10.85,10.85,0,0,1-1,.66l.06-.05a13.78,13.78,0,0,1-2.56,1.56l0,0a14.79,14.79,0,0,1-2.58,1.54l.06,0c-.36.53-1.22.34-1.57.88l-.06,0c-.36.18-.6.5-1,.63l.08-.06c-.35.57-1.21.4-1.62.88h0a2.79,2.79,0,0,1-1,.65l.1-.08c-.33.65-1.19.48-1.68.89l.05,0c-.39.51-1.22.33-1.61.85h0c-.34.21-.58.55-1,.63l.1-.08c-.34.64-1.19.49-1.7.87l.06,0c-.4.54-1.22.38-1.66.84h0c-.42.45-1.23.27-1.6.8l-.06,0c-.35.19-.59.54-1,.61l.1-.08c-.35.65-1.18.51-1.72.85l.07,0c-.39.58-1.21.45-1.73.82l.06,0c-.41.54-1.22.41-1.71.81l0,0c-.44.5-1.23.38-1.72.78l0,0c-.44.51-1.23.38-1.73.78l.05,0c-.44.5-1.23.38-1.73.78l.05,0c-.45.5-1.23.38-1.74.77l.05,0c-.44.52-1.22.41-1.75.77l.06,0c-.44.55-1.22.45-1.77.77l.08-.05c-.48.62-1.31.54-2,.79l-.3,0-.23.18c-.48.38-1.23.24-1.68.69h0c-.48.45-1.23.36-1.76.71l.06,0c-.51.56-1.31.49-2,.75l-.3,0-.24.18c-.49.38-1.23.26-1.72.67l0,0c-.54.5-1.32.45-2,.71l-.32,0-.25.18c-.5.38-1.23.27-1.73.66l.05,0c-.63.76-1.85.08-2.49.82h0c-.56.43-1.32.39-1.94.67l-.33,0-.27.18c-.55.37-1.28.29-1.84.63l-.37,0-.32.18c-.53.32-1.23.24-1.73.61l.05,0c-.66.76-1.85.13-2.55.79h0c-.68.72-1.85.12-2.57.76l.05,0c-.68.74-1.86.14-2.58.77l.05,0c-.72.75-1.9.2-2.69.76l-.36,0-.31.17a11.86,11.86,0,0,1-1.95.59l-.31,0-.25.17c-.72.62-1.85,0-2.55.7h0c-.76.69-1.91.17-2.71.72l-.35,0-.31.16c-.73.57-1.84,0-2.53.68h0c-.79.66-1.93.19-2.76.7l-.33,0-.28.16c-.77.59-1.88.08-2.65.67l-.38,0-.35.17c-.74.53-1.82,0-2.53.65h0c-.81.67-2,.24-2.84.69l-.28-.07-.23.16c-.82.64-2,.2-2.83.67l-.29-.06-.24.16c-.83.62-2,.19-2.82.66l-.3-.07-.25.16c-.83.63-2,.21-2.85.66l-.28-.07-.23.16c-1,.82-2.43-.06-3.43.74l-.41,0-.39.16c-.79.5-1.86,0-2.63.62l-.38,0-.34.16c-.81.53-1.9.1-2.71.62l-.34-.05-.31.16c-.83.56-1.93.16-2.79.63l-.3-.07-.26.16c-1,.79-2.42-.07-3.41.72h0c-1,.84-2.48,0-3.54.74l-.36-.06-.31.16c-.84.55-1.94.17-2.81.62l-.29-.06-.25.15c-1,.8-2.45-.05-3.46.73l-.4-.05-.36.16c-.82.51-1.9.09-2.71.61l-.34-.05-.31.15c-.85.56-1.95.18-2.83.63l-.28-.07-.24.15c-1,.82-2.45,0-3.46.74l-.4-.05-.36.16c-.8.51-1.88.07-2.67.62l-.37-.05-.32.16c-.82.54-1.91.13-2.75.62l-.32-.05-.29.16c-.83.58-1.94.17-2.8.64l-.3-.06-.25.16c-.85.6-2,.2-2.86.65l-.27-.07-.23.15c-.83.64-2,.22-2.86.67l-.28-.07-.23.16c-.83.64-2,.22-2.85.67l-.28-.07-.23.16c-.81.64-1.95.19-2.81.67l-.31-.05-.25.16c-.79.61-1.91.14-2.73.67l-.34,0-.3.16c-.77.58-1.88.07-2.64.66l-.39,0-.34.16a12.37,12.37,0,0,1-2,.57l-.28-.06-.22.16c-.77.65-1.91.13-2.7.7l-.36,0-.32.17a10.75,10.75,0,0,1-2,.58l-.28-.06-.22.16c-.74.66-1.89.11-2.65.72l-.39,0-.34.17c-.58.32-1.3.29-1.89.58l-.34,0-.29.17a10.2,10.2,0,0,1-2,.6l-.3,0-.24.16a7.6,7.6,0,0,1-2,.63l-.28-.06-.21.17c-.7.66-1.85,0-2.54.73h0a6.28,6.28,0,0,1-2,.67l-.27-.05-.21.16a7.09,7.09,0,0,1-2,.65l-.28,0-.22.18C200.26,380.2,199.5,380.14,198.88,380.42Z"/><path class="cls-2" d="M1899.29,659c.21.09.38,0,.49-.24a2.37,2.37,0,0,1,1.15-.85.4.4,0,0,0,.54-.24,2.61,2.61,0,0,1,1.13-.84.45.45,0,0,0,.56-.28,10.43,10.43,0,0,1,1-.82l-.09.1c.39-.87,1.21-.69,1.76-1.16l-.07.06c.39-.84,1.21-.66,1.75-1.16l-.07.06c.41-.81,1.22-.63,1.74-1.15l-.06,0c.42-.78,1.23-.6,1.74-1.14l0,.05c.42-.77,1.22-.58,1.73-1.14l0,0c.43-.74,1.23-.55,1.73-1.13l0,0c.44-.71,1.23-.53,1.72-1.12l0,0c.44-.69,1.24-.49,1.71-1.11h0c.45-.66,1.24-.46,1.7-1.1h0c.45-.64,1.25-.43,1.68-1.11h0c.46-.6,1.24-.4,1.67-1.08h0c.45-.59,1.24-.36,1.64-1.09l0,0c.47-.55,1.25-.33,1.65-1.06l0,0c.46-.55,1.24-.31,1.62-1.07l.06,0a2.88,2.88,0,0,1,1.2-.88.39.39,0,0,0,.53-.23,2.42,2.42,0,0,1,1.16-.84c.22.09.4,0,.53-.24a2.51,2.51,0,0,1,1.15-.84.43.43,0,0,0,.54-.27l.92-.87-.05.07c.23-.43.49-.47.8-.13v456c-7.9,1.17-15.83.21-23.74.52H1496.75q-32,0-63.92,0c-1.52,0-3.09.44-4.57-.44-.83-.07-1.67-.2-2.51-.2q-66.45-.08-132.88-.11c-.7,0-1.4.1-2.1.15-1.63-.88-3.34-.43-5-.43q-117.36,0-234.72-.09c-1.49,0-3.51,1.41-4.51-1.48l-.14.11a2.16,2.16,0,0,1,.94-1.14l-.07.11c.6-1.12,1.71-1.42,2.41-2.4l0,0c.33-.29.59-.68.91-1l0,0a3.5,3.5,0,0,1,.93-1.08l-.06.08a1.92,1.92,0,0,1,1-1.1l-.08.12c.25-.9,1.19-.58,1.49-1.39l.09-.08a4,4,0,0,0,.86-.93v0a12.72,12.72,0,0,1,.91-1l0,.05a2.8,2.8,0,0,1,.95-1.08l-.07.08a1.71,1.71,0,0,1,1-1.1l-.08.12c.23-.93,1.18-.61,1.5-1.39l.06-.06a6.29,6.29,0,0,0,.89-1h0a4.9,4.9,0,0,1,.93-1l-.06.06a2.3,2.3,0,0,1,1-1.09l-.07.11c.61-1.12,1.71-1.42,2.41-2.4l0,0c.33-.29.59-.69.92-1l0,0a3.09,3.09,0,0,1,1-1.07l-.07.08a1.82,1.82,0,0,1,1-1.1l-.08.12c.59-1.18,1.69-1.51,2.44-2.41h0a6.56,6.56,0,0,1,.93-1l0,.07a2.25,2.25,0,0,1,1-1.09l-.08.1c.62-1.11,1.71-1.43,2.43-2.38l0,0c.32-.31.59-.71.92-1l0,0a3,3,0,0,1,1-1.08l-.07.09a1.75,1.75,0,0,1,1-1.11l-.08.13c.24-.93,1.18-.63,1.52-1.38l0-.05c.31-.3.61-.63.9-1l0,0a3.87,3.87,0,0,1,.94-1.06l-.06.08a2,2,0,0,1,1-1.09l-.08.11c.61-1.15,1.69-1.5,2.45-2.39h0a4.65,4.65,0,0,1,.94-1l-.06.06a2.2,2.2,0,0,1,1-1.09l-.08.11c.26-.87,1.2-.55,1.49-1.36l.1-.08a4.56,4.56,0,0,0,.87-.93h0a6.52,6.52,0,0,1,.93-1l0,.06a2.29,2.29,0,0,1,1-1.09l-.07.11c.62-1.11,1.7-1.45,2.44-2.38h0a11.24,11.24,0,0,1,.93-1l0,.06a2.51,2.51,0,0,1,1-1.09l-.08.11c.28-.85,1.2-.53,1.5-1.35l.09-.08a3.88,3.88,0,0,0,.87-.93h0a7.09,7.09,0,0,1,.93-1l0,.07a2.25,2.25,0,0,1,1-1.09l-.07.11c.63-1.11,1.7-1.48,2.46-2.36h0a4.89,4.89,0,0,1,.94-1l-.06.07a2.1,2.1,0,0,1,1-1.09l-.08.12c.26-.89,1.19-.59,1.51-1.37l.07-.06a7.32,7.32,0,0,0,.9-.94l0,0a3.71,3.71,0,0,1,1-1l-.06.08a1.8,1.8,0,0,1,1-1.09l-.08.13c.25-.94,1.18-.64,1.54-1.38l0,0c.34-.28.6-.69.93-1l0,0a2.71,2.71,0,0,1,1-1.07l-.07.1c.65-1.07,1.7-1.45,2.46-2.35h0a6.58,6.58,0,0,1,.94-1l0,.07a2,2,0,0,1,1-1.08l-.08.12c.26-.9,1.19-.6,1.53-1.36l0,0a10.49,10.49,0,0,0,.92-1l0,0a2.91,2.91,0,0,1,1-1.06l-.07.1c.66-1.06,1.71-1.46,2.47-2.34h0a5.15,5.15,0,0,1,1-1l-.06.07a1.93,1.93,0,0,1,1-1.08l-.08.13c.26-.93,1.19-.63,1.55-1.37l0,0c.34-.29.6-.7.94-1l0,.05a2.37,2.37,0,0,1,1-1.07l-.07.11c.64-1.1,1.68-1.52,2.5-2.33l0,0a3.06,3.06,0,0,1,1-1l-.07.11c.29-.84,1.2-.53,1.51-1.34l.09-.07a5.67,5.67,0,0,0,.9-.93l0,0a3.56,3.56,0,0,1,1-1l-.07.09c.69-1,1.71-1.45,2.5-2.3h0a4.27,4.27,0,0,1,.95-1l-.06.08a1.74,1.74,0,0,1,1-1.08l-.09.13c.27-1,1.18-.67,1.59-1.35h0a4.63,4.63,0,0,1,1-1l-.07.07a1.81,1.81,0,0,1,1-1.07l-.09.13c.27-.95,1.18-.67,1.59-1.35h0a4.57,4.57,0,0,1,1-1l-.06.08c.69-1,1.71-1.45,2.5-2.3h0a3.76,3.76,0,0,1,1-1l-.07.09c.31-.81,1.21-.5,1.52-1.31l.09-.07a6.1,6.1,0,0,0,.91-.92l0,0a3.18,3.18,0,0,1,1-1l-.07.1c.3-.84,1.2-.55,1.55-1.31l.06,0c.35-.25.6-.67.93-1l0,0a2.28,2.28,0,0,1,1-1l-.09.11c.3-.88,1.2-.6,1.58-1.32l0,0a9.68,9.68,0,0,1,1-1l-.06.06a1.9,1.9,0,0,1,1-1.05l-.08.13c.27-1,1.18-.68,1.6-1.34h0a3.47,3.47,0,0,1,1-1l-.08.1c.32-.83,1.21-.54,1.56-1.31l.06,0c.36-.24.6-.66.94-.94l0,.05a2.23,2.23,0,0,1,1-1.05l-.09.12c.3-.9,1.19-.63,1.6-1.32h0a4.76,4.76,0,0,1,1-1l-.07.09c.33-.8,1.22-.51,1.55-1.3l.07-.05a10.3,10.3,0,0,0,.94-.93l0,0a2.26,2.26,0,0,1,1-1l-.08.12c.3-.9,1.19-.64,1.61-1.31h0a3.86,3.86,0,0,1,1-1l-.08.09c.33-.82,1.21-.53,1.57-1.29l0,0c.35-.27.6-.69,1-1l0,.06a1.86,1.86,0,0,1,1-1l-.09.13c.29-1,1.18-.7,1.63-1.32l0,0a2.61,2.61,0,0,1,1-1l-.08.11c.31-.88,1.2-.62,1.61-1.3h0a3.93,3.93,0,0,1,1-1l-.08.09c.33-.83,1.21-.55,1.59-1.29l0,0c.34-.28.59-.72,1-.95l-.07.07c.34-.77,1.22-.48,1.56-1.27l.07,0c.36-.24.61-.66,1-.92l0,.05a1.94,1.94,0,0,1,1-1l-.08.13c.29-1,1.17-.71,1.64-1.31l0,0a2.25,2.25,0,0,1,1-1l-.09.12c.32-.92,1.19-.67,1.65-1.29l0,0a2.47,2.47,0,0,1,1-1l-.09.12c.32-.91,1.2-.65,1.63-1.3h0a3,3,0,0,1,1-1l-.08.12c.33-.89,1.2-.64,1.64-1.29h0a2.93,2.93,0,0,1,1-1l-.09.11c.33-.88,1.2-.63,1.64-1.29h0a3,3,0,0,1,1-1l-.08.11c.33-.88,1.2-.63,1.64-1.28h0a2.76,2.76,0,0,1,1-1l-.09.11c.34-.89,1.2-.65,1.66-1.27l0,0a2.35,2.35,0,0,1,1-1l-.09.12c.32-.92,1.19-.68,1.66-1.28l0,0c.28-.43.55-.86,1-1l-.08.12c.31-.95,1.18-.71,1.67-1.28l0,0c.37-.73,1.23-.45,1.57-1.23l.07-.05c.36-.25.61-.68,1-.92l-.07.07c.37-.77,1.23-.5,1.61-1.24l0,0c.34-.3.58-.74,1-.94l-.08.09c.36-.82,1.22-.58,1.65-1.25h0a3,3,0,0,1,1-1l-.08.12c.34-.9,1.2-.66,1.67-1.26l0,0a1.81,1.81,0,0,1,1.22-1c.22.07.37,0,.47-.28l.92-.87-.06.07c.38-.77,1.22-.53,1.63-1.22l0,0c.33-.32.57-.78,1-.95l-.08.11c.35-.87,1.21-.64,1.67-1.25l0,0a1.81,1.81,0,0,1,1.22-1c.21.08.37,0,.47-.26.3-.31.61-.6.93-.88l-.07.07c.38-.79,1.22-.55,1.65-1.22h0c.32-.34.57-.81,1-.95l-.09.12c.34-.91,1.2-.69,1.69-1.25l0,0c.38-.74,1.22-.49,1.62-1.21l0,0c.33-.3.58-.77,1-.93l-.09.11c.36-.88,1.21-.66,1.7-1.24l0,0c.39-.72,1.23-.47,1.62-1.2l0,0c.34-.3.59-.76,1-.92l-.08.1c.36-.87,1.2-.65,1.69-1.23l0,0c.4-.72,1.23-.48,1.64-1.18l0,0c.33-.31.58-.78,1-.93l-.09.11c.35-.89,1.2-.67,1.71-1.23l-.06,0c.4-.76,1.23-.53,1.66-1.19h0a2.12,2.12,0,0,1,1.2-1c.23.07.39,0,.51-.28.3-.3.62-.58.94-.85l-.08.09c.39-.82,1.22-.61,1.7-1.21l0,0c.41-.7,1.23-.46,1.64-1.17h0a2.49,2.49,0,0,1,1.18-.92.45.45,0,0,0,.55-.29c.3-.29.61-.57.92-.84l-.07.08c.4-.8,1.22-.59,1.7-1.19l0,0c.42-.7,1.23-.47,1.65-1.16l0,0a2.37,2.37,0,0,1,1.2-.92c.22.08.4,0,.52-.26a11,11,0,0,1,.95-.86l-.08.1c.38-.84,1.21-.64,1.72-1.19l0,0c.41-.75,1.22-.54,1.69-1.17l0,0c.43-.66,1.24-.43,1.65-1.14h0a2.42,2.42,0,0,1,1.2-.92.39.39,0,0,0,.52-.25,7,7,0,0,1,1-.85l-.08.1c.38-.87,1.2-.67,1.73-1.19l-.06,0c.41-.79,1.22-.6,1.72-1.16l0,0c.43-.72,1.24-.52,1.7-1.14h0c.44-.66,1.24-.44,1.67-1.13h0c.45-.6,1.24-.36,1.63-1.1l0,0a2.54,2.54,0,0,1,1.2-.88.39.39,0,0,0,.52-.25c.33-.28.57-.71,1-.85l-.08.1c.38-.88,1.2-.7,1.75-1.16l-.07.06c.39-.85,1.21-.66,1.74-1.16l-.06,0c.4-.81,1.22-.62,1.73-1.15l0,0c.42-.77,1.22-.59,1.74-1.13l-.05.05c.42-.76,1.22-.58,1.73-1.14l0,0c.43-.74,1.23-.55,1.72-1.13l0,0c.44-.71,1.23-.53,1.73-1.11l0,0c.44-.71,1.23-.53,1.73-1.1l0,0c.44-.72,1.23-.54,1.73-1.11l0,0c.44-.71,1.23-.54,1.72-1.11l0,0c.44-.71,1.23-.53,1.73-1.11l0,0c.44-.71,1.23-.53,1.73-1.1l0,0c.45-.72,1.23-.56,1.75-1.09l-.06,0c.44-.75,1.23-.58,1.75-1.12l-.06,0c.44-.76,1.23-.6,1.77-1.1l-.07,0c.42-.8,1.22-.64,1.77-1.12l-.07.06c.46-.85,1.29-.7,1.91-1.12a.51.51,0,0,0,.61-.26,2.56,2.56,0,0,1,1.15-.82c.22.1.4,0,.53-.23.47-.53,1.23-.28,1.63-1h0c.49-.56,1.25-.39,1.71-1h0c.48-.62,1.25-.46,1.74-1.05l0,0c.46-.69,1.23-.54,1.75-1.07l0,0c.44-.76,1.22-.6,1.77-1.08l-.07,0c.49-.85,1.31-.73,2-1.1a.41.41,0,0,0,.55-.23c.47-.55,1.23-.32,1.66-1h0c.49-.6,1.25-.45,1.75-1l0,0c.46-.69,1.24-.55,1.77-1.05l-.06.05c.5-.82,1.31-.71,2-1.08a.42.42,0,0,0,.56-.24c.48-.54,1.23-.33,1.68-1h0c.49-.62,1.25-.49,1.77-1l-.06,0c.51-.77,1.31-.66,1.94-1.06a.47.47,0,0,0,.6-.24c.49-.52,1.23-.31,1.67-1h0c.49-.61,1.24-.48,1.76-1l0,0c.52-.78,1.32-.68,2-1.05.23.1.41,0,.56-.22.49-.55,1.23-.37,1.71-1h0c.52-.69,1.31-.58,1.91-1a.54.54,0,0,0,.64-.25c.5-.48,1.23-.3,1.68-.94h0c.49-.63,1.24-.5,1.78-1l-.07.05c.61-1.18,1.86-.17,2.51-1.22h0c.5-.61,1.25-.49,1.78-1l-.06.06c.61-1.18,1.86-.2,2.52-1.21h0c.54-.66,1.31-.56,1.92-1a.51.51,0,0,0,.63-.23c.51-.5,1.23-.34,1.71-.92l0,0c.55-.7,1.33-.64,2-1a.4.4,0,0,0,.56-.2c.5-.57,1.24-.42,1.76-.94l-.06,0c.63-1.15,1.86-.19,2.54-1.18h0c.55-.66,1.33-.62,2-1a.39.39,0,0,0,.56-.19c.5-.58,1.24-.43,1.77-.93l-.07,0c.64-1.16,1.87-.23,2.56-1.17l0,0c.66-1.06,1.87-.13,2.54-1.13h0c.57-.63,1.34-.61,2-.95a.38.38,0,0,0,.54-.18c.56-.6,1.32-.51,1.93-.92a.47.47,0,0,0,.61-.2c.55-.55,1.3-.45,1.88-.9a.53.53,0,0,0,.66-.21c.55-.51,1.28-.4,1.83-.89a.61.61,0,0,0,.71-.22c.55-.47,1.27-.37,1.82-.86a.64.64,0,0,0,.72-.21c.55-.48,1.27-.38,1.82-.86a.61.61,0,0,0,.71-.22c.52-.47,1.23-.36,1.74-.87l-.05,0c.7-1.1,1.9-.26,2.67-1.11a.61.61,0,0,0,.71-.2c.56-.49,1.29-.41,1.86-.86a.55.55,0,0,0,.67-.19c.57-.52,1.31-.47,1.92-.87a.46.46,0,0,0,.61-.18c.59-.55,1.34-.54,2-.87a.34.34,0,0,0,.53-.15c.71-.94,1.86-.09,2.57-1h0c.74-1,1.91-.2,2.68-1.05a.62.62,0,0,0,.72-.19c.58-.48,1.31-.45,1.92-.84a.43.43,0,0,0,.6-.16c.72-.88,1.85-.06,2.56-1h0c.76-1,1.92-.24,2.72-1a.53.53,0,0,0,.67-.18c.73-.82,1.84,0,2.54-1h0c.78-.93,1.93-.24,2.75-1a.49.49,0,0,0,.64-.16c.76-.84,1.88-.08,2.62-1a.67.67,0,0,0,.77-.18,11.51,11.51,0,0,1,2-.81.34.34,0,0,0,.54-.13c.79-.92,1.93-.22,2.76-1a.46.46,0,0,0,.63-.15c.78-.85,1.9-.14,2.69-1a.57.57,0,0,0,.7-.16c.77-.81,1.88-.09,2.65-.94a.61.61,0,0,0,.73-.16c.78-.77,1.88-.07,2.64-.92a.62.62,0,0,0,.74-.16c.8-.76,1.89-.09,2.67-.9a.57.57,0,0,0,.71-.16c.8-.78,1.9-.13,2.7-.9a.52.52,0,0,0,.67-.15c.83-.8,1.93-.21,2.78-.9a.4.4,0,0,0,.59-.13c1-1.12,2.43.1,3.42-1h0c1-1.18,2.49,0,3.57-1a.5.5,0,0,0,.66-.13c1-1.05,2.44.11,3.45-1a.68.68,0,0,0,.78-.15c.85-.72,1.93-.19,2.79-.85a.37.37,0,0,0,.57-.11c1.06-1.11,2.51,0,3.6-1a.44.44,0,0,0,.63-.11c1.08-1.07,2.5,0,3.6-1a.43.43,0,0,0,.62-.1c1.09-1.07,2.52,0,3.64-1a.38.38,0,0,0,.58-.1c1.31-1.27,3,.18,4.33-1a.63.63,0,0,0,.76-.12c1.09-.94,2.48,0,3.58-.9a.44.44,0,0,0,.63-.1c1.34-1.22,3,.14,4.38-1a.53.53,0,0,0,.7-.09c1.34-1.18,3,.15,4.38-1a.5.5,0,0,0,.68-.1c1.37-1.16,3.06.11,4.44-1l1.5-.2c1.35-1,3,.22,4.33-.91a.57.57,0,0,0,.72-.1c1.41-1.09,3.1,0,4.53-.91l2.25-.25c1.38-1,3,.18,4.39-.87l1.52-.17c1.65-1.12,3.57.25,5.22-.92l1.54-.16c1.68-1.09,3.61.2,5.3-.89l2.31-.21c1.7-1,3.63.18,5.33-.85l2.26-.19c2.24-1.22,4.7.32,6.94-.93l2.36-.17c2.28-1.14,4.76.27,7-.87a5.14,5.14,0,0,0,3.1-.21c2.81-1.22,5.8.39,8.6-.91a5.92,5.92,0,0,0,3.23-.18c2.84-1.18,5.85.36,8.68-.87a5.38,5.38,0,0,0,3.15-.17c3.37-1.27,6.91.39,10.28-.94a5.86,5.86,0,0,0,3.24-.17c3.1-1.18,6.37.37,9.46-.9a5.8,5.8,0,0,0,3.22-.17c2.83-1.2,5.83.35,8.66-.89a5.67,5.67,0,0,0,3.16-.19c2.55-1.18,5.28.34,7.81-.89l2.33-.16c2.27-1.2,4.76.26,7-.9l2.26-.17c2.23-1.26,4.69.33,6.92-1l1.53-.13c1.94-1.21,4.14.29,6.08-.94l1.53-.16c1.67-1.11,3.59.23,5.26-.91l1.5-.17c1.41-1,3.08.09,4.5-.88l1.41-.17c1.39-1.08,3.06.11,4.45-.92l1.47-.19c1.13-.89,2.52,0,3.67-.87l1.4-.2c1.11-.93,2.5,0,3.62-.89l1.45-.22c1.06-.92,2.44.13,3.48-.91a.6.6,0,0,0,.74-.13c1-1,2.45.09,3.49-.94a.61.61,0,0,0,.74-.13c1-1,2.43.12,3.45-1a.69.69,0,0,0,.78-.14c.82-.74,1.91-.17,2.74-.87a.43.43,0,0,0,.62-.13c1-1.1,2.45.09,3.47-1a.66.66,0,0,0,.77-.15c.8-.74,1.89-.09,2.67-.89a.58.58,0,0,0,.71-.15c.8-.79,1.9-.15,2.71-.91a.51.51,0,0,0,.66-.15c.8-.82,1.91-.16,2.72-.93a.51.51,0,0,0,.66-.15c.79-.83,1.9-.14,2.69-.94a.57.57,0,0,0,.7-.17c.76-.8,1.87-.06,2.62-.94a.66.66,0,0,0,.76-.18,11.51,11.51,0,0,1,2-.81c.21.14.39.09.54-.14.77-.92,1.92-.18,2.72-1a.55.55,0,0,0,.68-.17c.73-.82,1.84,0,2.54-1h0c.76-1,1.91-.2,2.69-1a.59.59,0,0,0,.71-.19c.59-.49,1.32-.47,2-.83a.39.39,0,0,0,.57-.17c.72-.89,1.86,0,2.56-1h0c.71-1,1.87-.16,2.6-1.06l0,0c.72-1.06,1.91-.25,2.68-1.08a.62.62,0,0,0,.71-.2c.56-.5,1.28-.42,1.86-.87a.54.54,0,0,0,.67-.2c.58-.5,1.31-.46,1.92-.85a.46.46,0,0,0,.61-.19c.57-.55,1.31-.49,1.92-.89a.46.46,0,0,0,.61-.19c.55-.56,1.3-.45,1.88-.91a.54.54,0,0,0,.66-.2c.52-.51,1.24-.39,1.77-.88l-.07.05c.65-1.16,1.86-.25,2.58-1.15l0,0c.65-1.11,1.86-.2,2.56-1.14l0,0c.65-1.06,1.86-.13,2.53-1.14h0c.57-.63,1.33-.59,2-1a.42.42,0,0,0,.58-.2c.53-.57,1.29-.45,1.86-.92a.58.58,0,0,0,.68-.24c.52-.46,1.23-.32,1.71-.89l0,0c.55-.7,1.33-.65,2-1a.37.37,0,0,0,.54-.19c.5-.58,1.25-.43,1.77-.94l-.06.05c.62-1.17,1.86-.19,2.53-1.2h0c.54-.66,1.31-.57,1.93-1a.49.49,0,0,0,.62-.22c.5-.52,1.24-.35,1.71-.94l0,0c.54-.69,1.32-.62,2-1a.43.43,0,0,0,.58-.22c.5-.54,1.24-.36,1.72-.95l0,0c.53-.71,1.31-.62,1.94-1a.46.46,0,0,0,.6-.23c.5-.52,1.23-.34,1.7-.94h0c.52-.68,1.3-.57,1.9-1a.54.54,0,0,0,.65-.25c.5-.48,1.23-.28,1.66-.94h0c.5-.59,1.25-.47,1.77-1l0,0c.51-.78,1.31-.68,2-1.06a.42.42,0,0,0,.57-.22c.49-.55,1.23-.35,1.69-1h0c.48-.65,1.24-.51,1.77-1l-.06.05c.5-.8,1.31-.7,2-1.07a.42.42,0,0,0,.56-.23c.49-.54,1.24-.33,1.68-1h0c.48-.63,1.24-.49,1.76-1l0,0c.45-.74,1.23-.6,1.78-1.07l-.08.06c.5-.86,1.33-.76,2-1.1a.36.36,0,0,0,.51-.21c.48-.58,1.24-.37,1.7-1h0c.48-.64,1.25-.5,1.76-1l0,0c.45-.74,1.23-.59,1.77-1.08l-.06.06c.48-.85,1.3-.73,2-1.1a.44.44,0,0,0,.57-.25c.47-.53,1.22-.29,1.64-1h0c.48-.57,1.25-.4,1.71-1h0c.47-.64,1.24-.49,1.74-1l0,0c.46-.72,1.24-.56,1.76-1.08l-.06.05c.44-.78,1.23-.62,1.77-1.1l-.07.06c.47-.86,1.3-.72,1.93-1.12a.46.46,0,0,0,.59-.26A2.49,2.49,0,0,1,1835,700a.38.38,0,0,0,.53-.21c.46-.56,1.23-.31,1.63-1h0c.48-.57,1.25-.39,1.7-1h0c.47-.62,1.24-.44,1.71-1.06h0c.46-.65,1.24-.49,1.73-1.06l0,0c.44-.7,1.23-.53,1.73-1.1l0,0c.45-.72,1.23-.56,1.75-1.09l0,0c.43-.76,1.22-.58,1.74-1.12l0,0c.43-.76,1.22-.61,1.76-1.1l-.06.05c.41-.8,1.21-.63,1.75-1.13l-.06.06c.41-.81,1.21-.64,1.75-1.13l-.06.06c.42-.82,1.21-.66,1.77-1.11l-.07.07c.4-.87,1.2-.7,1.76-1.15l-.07.07c.39-.87,1.2-.69,1.76-1.15l-.07.07c.4-.87,1.2-.69,1.76-1.15l-.07.07c.4-.86,1.2-.69,1.76-1.14l-.07.06c.39-.86,1.2-.69,1.76-1.14l-.07.06c.39-.86,1.2-.68,1.76-1.14l-.07.06c.4-.86,1.2-.68,1.76-1.14l-.07.07c.4-.87,1.2-.69,1.76-1.15l-.07.07c.39-.86,1.2-.69,1.76-1.14l-.07.06c.39-.86,1.2-.69,1.76-1.14l-.07.06c.39-.86,1.2-.68,1.76-1.14l-.07.07c.39-.87,1.21-.68,1.75-1.17l-.07.06c.4-.83,1.21-.65,1.75-1.15l-.06.06c.41-.81,1.21-.64,1.75-1.13l-.06,0c.41-.81,1.21-.63,1.75-1.13l-.07.05c.41-.8,1.22-.62,1.74-1.16l-.06.05c.43-.76,1.23-.59,1.75-1.13l-.06,0c.43-.76,1.23-.58,1.74-1.13l0,0c.43-.75,1.23-.56,1.72-1.14l0,0c.45-.71,1.24-.53,1.73-1.1l0,0c.44-.7,1.24-.51,1.71-1.13l0,0c.46-.66,1.24-.48,1.71-1.1l0,0c.45-.66,1.24-.45,1.68-1.12h0c.46-.61,1.24-.41,1.67-1.08h0c.46-.6,1.25-.37,1.66-1.09l0,0c.46-.56,1.24-.33,1.64-1.06l0,0C1898.43,659.5,1898.78,659.06,1899.29,659Z"/></svg>