<svg xmlns="http://www.w3.org/2000/svg" xmlns:xlink="http://www.w3.org/1999/xlink" viewBox="0 0 1920 1080"><defs><style>.cls-1{fill:url(#linear-gradient);}.cls-2{fill:#3ca9d3;}.cls-3{fill:#89c8d0;}</style><linearGradient id="linear-gradient" y1="540" x2="1920" y2="540" gradientUnits="userSpaceOnUse"><stop offset="0" stop-color="#4296d2"/><stop offset="0.5" stop-color="#45a6dd"/><stop offset="1" stop-color="#2569b1"/></linearGradient></defs><g id="Layer_2" data-name="Layer 2"><g id="Layer_2-2" data-name="Layer 2"><rect class="cls-1" width="1920" height="1080"/><path class="cls-2" d="M1670.44,146c23.74-.76,43.47-9.36,61.7-21.68,15.38-10.39,30.18-21.67,45.24-32.54a100,100,0,0,1,25.7-13.72c27.1-9.43,52.88,7.6,56.55,37.42,1.71,13.87-.77,26.8-9.41,37.91-5.57,7.16-13,11.08-22.12,10.89-3.86-.08-7.16-1.5-8.07-6-.84-4.14,1.18-6.34,4.64-8.13a61.57,61.57,0,0,0,10.4-6.76c9.93-8,13.33-20,8.73-29.65-4.34-9.15-17.76-15-28.85-12.51-18,4-31.07,20.7-31.2,39.83-.12,18.55,12.59,33.65,32.48,38.57,34.34,8.5,71.32-16.59,80-54.27,13.34-58-37.12-111.32-95.33-101.32-27,4.64-50.59,16.47-72.68,32.25-12.73,9.08-24.87,19.09-38.44,26.87-19.54,11.2-39.9,17.28-61.69,7-12.63-6-23.26-14.42-27.82-28.78-.7-2.2-1.38-4.56-4.27-4-2.74.49-3,2.87-3,5.21C1594.15,111.71,1628.57,149.8,1670.44,146Z"/><path class="cls-2" d="M1646.37,935.21c23.76,0,43.74,7.92,62.36,19.64,15.69,9.88,30.84,20.66,46.24,31a100,100,0,0,0,26.11,12.86c27.38,8.53,52.61-9.34,55.34-39.27,1.27-13.92-1.61-26.76-10.6-37.58-5.79-7-13.35-10.65-22.45-10.16-3.86.21-7.11,1.74-7.88,6.26-.7,4.16,1.38,6.3,4.9,8a62.55,62.55,0,0,1,10.6,6.41c10.18,7.69,14,19.51,9.66,29.35-4.05,9.29-17.27,15.55-28.43,13.46-18.09-3.39-31.71-19.66-32.44-38.78-.71-18.54,11.52-34,31.24-39.63,34.06-9.63,71.81,14.23,81.66,51.61,15.17,57.57-33.6,112.48-92.08,104.41-27.16-3.74-51.09-14.79-73.67-29.83-13-8.66-25.45-18.26-39.26-25.58-19.88-10.55-40.43-16-61.88-4.93-12.44,6.39-22.79,15.18-26.9,29.68-.63,2.22-1.23,4.6-4.13,4.17s-3.12-2.77-3.14-5.1C1571.2,972,1604.4,932.81,1646.37,935.21Z"/><path class="cls-2" d="M268.79,148.32c-23.75-.76-43.47-9.36-61.71-21.68C191.71,116.25,176.91,105,161.85,94.1a100,100,0,0,0-25.7-13.72C109.05,71,83.27,88,79.6,117.8c-1.71,13.87.77,26.8,9.41,37.91,5.57,7.16,13,11.08,22.12,10.89,3.86-.08,7.16-1.5,8.07-6,.84-4.14-1.18-6.34-4.64-8.13a61.57,61.57,0,0,1-10.4-6.76c-9.93-8-13.33-20-8.73-29.65,4.34-9.15,17.76-15,28.84-12.51,18,4,31.07,20.7,31.2,39.83C155.6,161.94,142.89,177,123,182c-34.34,8.5-71.32-16.59-80-54.27-13.35-58,37.12-111.32,95.33-101.32,27,4.64,50.59,16.47,72.68,32.25,12.73,9.08,24.87,19.09,38.43,26.87,19.54,11.2,39.91,17.28,61.7,7,12.63-6,23.26-14.42,27.82-28.78.7-2.2,1.38-4.56,4.27-4s3,2.87,3,5.21C345.08,114,310.66,152.12,268.79,148.32Z"/><path class="cls-2" d="M292.86,937.53c-23.76,0-43.75,7.92-62.36,19.64-15.69,9.88-30.84,20.66-46.24,31a100,100,0,0,1-26.11,12.86c-27.38,8.53-52.61-9.34-55.34-39.27-1.27-13.92,1.61-26.76,10.6-37.58,5.79-7,13.35-10.65,22.45-10.16,3.86.21,7.11,1.74,7.88,6.26.7,4.16-1.38,6.3-4.9,8a62.55,62.55,0,0,0-10.6,6.41c-10.18,7.69-14,19.51-9.66,29.35,4,9.29,17.27,15.55,28.43,13.46,18.09-3.39,31.71-19.66,32.44-38.78.71-18.54-11.52-34.05-31.25-39.63-34-9.63-71.8,14.23-81.65,51.61-15.17,57.57,33.6,112.48,92.08,104.41,27.16-3.74,51.08-14.79,73.67-29.83,13-8.66,25.45-18.26,39.26-25.58,19.88-10.55,40.43-16,61.88-4.93,12.44,6.39,22.79,15.18,26.9,29.68.63,2.22,1.23,4.6,4.13,4.17s3.12-2.77,3.14-5.11C368,974.33,334.83,935.13,292.86,937.53Z"/><path class="cls-3" d="M560.89,421.67c13.34,2.75,27.72,6.44,42.64,6.92,44,1.41,83.81-13.08,122.53-32.72,34-17.24,67.44-35.81,103.44-48.58,46.11-16.35,92.36-20.82,138.74-1a141.34,141.34,0,0,1,30.22,17.34c3,2.3,7.09,5,4.94,9.83-1.93,4.31-5.75,2.81-9.47,2.28-27.31-3.91-53.22.91-77.93,13.42-25.66,13-50.25,27.9-74.55,43.29-78.66,49.85-160.48,53.44-245.1,18.36-13.38-5.55-27.08-10.44-39.58-18-2.85-1.73-5.57-3.79-4.29-7.95C553.68,421,556.83,421.68,560.89,421.67Z"/><path class="cls-2" d="M608.79,317.05c34.2-1.32,68.64,12,103.76,21.82,12.55,3.5,25,7.41,37.47,11.11,3.1.92,6.55,1.28,7.33,5.49.75,4.06-1.71,6.08-4.58,7.95-38.81,25.32-79.83,44.3-126.21,50.09-34.22,4.28-66.56-5.59-99.67-10.32-23.73-3.38-47.79-5-68.7,11.45-3.54,2.77-8.2,5.07-12,2-4-3.28-1.83-8.28-.15-12.34,10.79-26,30.21-44.08,53.17-58.25C531.84,325.87,567.56,316.57,608.79,317.05Z"/><path class="cls-3" d="M971.86,484c13.33,2.75,27.71,6.44,42.63,6.92,44,1.41,83.82-13.08,122.53-32.72,34-17.24,67.44-35.81,103.44-48.58,46.11-16.35,92.36-20.82,138.74-1A140.79,140.79,0,0,1,1409.43,426c3,2.29,7.08,5,4.93,9.82-1.93,4.31-5.74,2.81-9.47,2.28-27.31-3.91-53.21.91-77.93,13.42-25.66,13-50.25,27.9-74.54,43.29-78.66,49.85-160.49,53.44-245.1,18.36-13.39-5.55-27.09-10.44-39.59-18-2.85-1.74-5.56-3.8-4.28-8C964.64,483.33,967.79,484,971.86,484Z"/><path class="cls-2" d="M1019.75,379.4c34.21-1.32,68.65,12,103.76,21.82,12.55,3.5,25,7.41,37.47,11.12,3.1.91,6.55,1.27,7.33,5.48s-1.71,6.08-4.58,7.95c-38.81,25.32-79.83,44.3-126.21,50.09-34.21,4.28-66.56-5.59-99.67-10.32-23.73-3.38-47.78-5-68.7,11.45-3.54,2.77-8.2,5.07-12,2-4-3.27-1.83-8.28-.15-12.34,10.79-26,30.21-44.08,53.17-58.25C942.81,388.22,978.52,378.92,1019.75,379.4Z"/><path class="cls-2" d="M443.73,563.54c13.33,2.75,27.71,6.44,42.64,6.92,44,1.41,83.81-13.08,122.53-32.72,34-17.24,67.43-35.81,103.43-48.58,46.12-16.35,92.37-20.82,138.75-1a140.92,140.92,0,0,1,30.22,17.34c3,2.3,7.08,5,4.93,9.83-1.92,4.31-5.74,2.81-9.46,2.27-27.32-3.91-53.22.92-77.93,13.43-25.66,13-50.26,27.9-74.55,43.29-78.66,49.85-160.48,53.44-245.1,18.36-13.39-5.55-27.09-10.44-39.59-18-2.85-1.73-5.56-3.79-4.28-7.95C436.51,562.85,439.66,563.55,443.73,563.54Z"/><path class="cls-3" d="M491.63,458.91c34.2-1.31,68.64,12,103.76,21.83,12.54,3.5,25,7.4,37.47,11.11,3.09.92,6.54,1.28,7.32,5.49s-1.71,6.08-4.58,8c-38.8,25.32-79.82,44.29-126.21,50.09-34.21,4.28-66.56-5.59-99.67-10.32-23.72-3.39-47.78-5-68.7,11.45-3.53,2.77-8.2,5.07-12,2-4-3.28-1.82-8.28-.14-12.34,10.79-26,30.21-44.09,53.17-58.25C414.68,467.74,450.39,458.44,491.63,458.91Z"/><path class="cls-2" d="M833,641.48c13.33,2.74,27.71,6.44,42.64,6.92,44,1.4,83.81-13.09,122.53-32.72,34-17.24,67.43-35.82,103.43-48.58,46.12-16.35,92.37-20.83,138.74-1a141.21,141.21,0,0,1,30.23,17.35c3,2.3,7.08,5,4.93,9.83-1.92,4.31-5.74,2.81-9.46,2.27-27.32-3.91-53.22.91-77.94,13.43-25.65,13-50.25,27.9-74.54,43.29-78.66,49.84-160.48,53.44-245.1,18.35-13.39-5.55-27.09-10.44-39.59-18-2.85-1.73-5.56-3.8-4.28-8C825.73,640.78,828.88,641.49,833,641.48Z"/><path class="cls-3" d="M880.84,536.85c34.21-1.31,68.65,12,103.76,21.83,12.55,3.49,25,7.4,37.48,11.11,3.09.92,6.54,1.28,7.32,5.48s-1.71,6.08-4.58,8C986,608.55,945,627.52,898.61,633.32c-34.21,4.28-66.56-5.59-99.67-10.32-23.72-3.39-47.78-5-68.7,11.44-3.53,2.78-8.2,5.08-12,2-4-3.28-1.82-8.29-.14-12.34,10.78-26,30.2-44.09,53.16-58.25C803.9,545.68,839.61,536.37,880.84,536.85Z"/><path class="cls-2" d="M1228.69,708.28c13.33,2.75,27.71,6.45,42.64,6.92,44,1.41,83.81-13.08,122.53-32.72,34-17.24,67.43-35.81,103.43-48.58,46.12-16.35,92.37-20.82,138.75-1a141,141,0,0,1,30.22,17.35c3,2.29,7.08,5,4.93,9.82-1.92,4.31-5.74,2.81-9.46,2.28-27.32-3.91-53.22.91-77.93,13.42-25.66,13-50.26,27.9-74.55,43.29-78.66,49.85-160.48,53.44-245.1,18.36-13.39-5.55-27.09-10.44-39.59-18-2.85-1.73-5.56-3.8-4.28-8C1221.47,707.59,1224.63,708.29,1228.69,708.28Z"/><path class="cls-3" d="M1276.59,603.66c34.2-1.32,68.64,12,103.76,21.82,12.54,3.5,25,7.41,37.47,11.12,3.1.92,6.55,1.27,7.33,5.48.75,4.06-1.72,6.08-4.59,7.95-38.8,25.32-79.82,44.3-126.21,50.1-34.21,4.27-66.55-5.6-99.67-10.32-23.72-3.39-47.78-5-68.7,11.44-3.53,2.77-8.2,5.07-12,2-4-3.28-1.82-8.29-.14-12.35,10.79-26,30.21-44.08,53.17-58.25C1199.64,612.48,1235.35,603.18,1276.59,603.66Z"/><path class="cls-2" d="M303.23,711.15c13.33,2.75,27.71,6.45,42.63,6.93,44,1.4,83.82-13.09,122.53-32.72,34-17.24,67.44-35.82,103.44-48.58,46.11-16.36,92.36-20.83,138.74-1a140.79,140.79,0,0,1,30.23,17.35c3,2.29,7.08,5,4.93,9.82-1.93,4.31-5.74,2.81-9.47,2.28-27.31-3.91-53.21.91-77.93,13.42-25.66,13-50.25,27.9-74.54,43.3-78.66,49.84-160.49,53.43-245.1,18.35-13.39-5.55-27.09-10.44-39.59-18-2.85-1.73-5.56-3.8-4.28-8C296,710.46,299.16,711.16,303.23,711.15Z"/><path class="cls-3" d="M351.12,606.53c34.21-1.32,68.65,12,103.76,21.83,12.55,3.49,25,7.4,37.47,11.11,3.1.92,6.55,1.27,7.33,5.48s-1.71,6.08-4.58,8C456.29,678.22,415.27,697.2,368.89,703c-34.21,4.28-66.56-5.59-99.67-10.32-23.73-3.39-47.78-5-68.7,11.44-3.54,2.78-8.2,5.08-12,2-4-3.28-1.83-8.29-.15-12.34,10.79-26,30.21-44.09,53.17-58.25C274.18,615.35,309.89,606.05,351.12,606.53Z"/><path class="cls-2" d="M1380,549c13.33,2.75,27.71,6.45,42.64,6.92,44,1.41,83.81-13.08,122.53-32.72,34-17.24,67.43-35.81,103.43-48.58,46.12-16.35,92.37-20.82,138.75-1A141,141,0,0,1,1817.58,491c3,2.29,7.08,5,4.93,9.82-1.92,4.31-5.74,2.81-9.46,2.28-27.32-3.91-53.22.91-77.93,13.42-25.66,13-50.26,27.9-74.55,43.3-78.66,49.84-160.48,53.43-245.1,18.35-13.39-5.55-27.08-10.44-39.59-18-2.85-1.73-5.56-3.8-4.28-8C1372.79,548.35,1376,549.05,1380,549Z"/><path class="cls-3" d="M1427.91,444.42c34.2-1.32,68.64,12,103.76,21.82,12.54,3.5,25,7.41,37.47,11.12,3.1.92,6.55,1.27,7.33,5.48s-1.71,6.08-4.59,8c-38.8,25.32-79.82,44.3-126.21,50.1-34.21,4.27-66.55-5.6-99.67-10.32-23.72-3.39-47.78-5-68.7,11.44-3.53,2.78-8.2,5.08-12,2-4-3.28-1.82-8.29-.14-12.34,10.79-26,30.21-44.09,53.17-58.25C1351,453.24,1386.67,443.94,1427.91,444.42Z"/></g></g></svg>