<?xml version="1.0" encoding="utf-8"?>
<!-- Generator: Adobe Illustrator 24.1.2, SVG Export Plug-In . SVG Version: 6.00 Build 0)  -->
<svg version="1.1" id="Layer_1" xmlns="http://www.w3.org/2000/svg" xmlns:xlink="http://www.w3.org/1999/xlink" x="0px" y="0px"
	 viewBox="0 0 60 60" style="enable-background:new 0 0 60 60;" xml:space="preserve">
<style type="text/css">
	.st0{fill:url(#SVGID_1_);}
	.st1{fill:none;stroke:#170500;stroke-miterlimit:10;}
</style>
<g id="Layer_4">
	
		<linearGradient id="SVGID_1_" gradientUnits="userSpaceOnUse" x1="9.8107" y1="-646.0807" x2="53.3183" y2="-602.5732" gradientTransform="matrix(1 0 0 -1 0 -584.6095)">
		<stop  offset="0" style="stop-color:#F7931E"/>
		<stop  offset="0.5" style="stop-color:#FFF100"/>
		<stop  offset="1" style="stop-color:#FFD700"/>
	</linearGradient>
	<path class="st0" d="M56.6,46.4c3.5-5.3,4.1-10.9,2.5-16.9c-0.1-0.3-0.2-0.7-0.4-1c-1.3-3-3.6-3.6-6-1.2c-2.7,2.7-4.9,5.7-7.4,8.5
		c-2,2.4-3.9,4.9-6.1,7.2c-0.7,0.8-2,1.2-3.1,1.7c-0.4-1-1.1-2-1.3-3.1c-0.6-3.4,0.2-6.5,2.2-9.5c3.2-4.9,5.3-10.3,5.8-15.9
		c0.5-5.7-1.8-10.6-6.1-14.7c-0.3-0.3-0.7-0.6-1.1-0.9c-2.4-1.5-4.1-0.9-4.8,1.7c-0.3,1.1-0.5,2.2-0.9,3.3c-1,3.5-3.1,6.4-6.5,8.5
		C17.8,17.8,12.3,21.6,7.2,26c-1.1,1-2.1,2-3.1,3.1c-4.7,5.2-5.3,10.8-1.8,16.7c1.2,2,2.5,3.8,3.6,5.8C5.9,51.7,6,51.8,6,51.9
		c0.4,0.4,0.7,1,0.9,1.5c0.2,0.3,0.4,0.6,0.4,1c0,0,0,0.1,0,0.1c0.1,0.2,0.1,0.3,0.2,0.5l0.1,0.5c0.1,0.2,0.1,0.4,0.1,0.6l0,0.1
		c0,0,0,0,0,0c0,0.1,0,0.2,0,0.3c6.3,2.2,13.4,3.4,20.8,3.4c10.1,0,19.5-2.2,27.4-6c-1.1-1.1-1.8-2.4-1.3-4
		C55.2,48.7,55.9,47.5,56.6,46.4z"/>
</g>
<g id="Layer_5">
</g>
<g id="Layer_2_1_">
	<path class="st1" d="M118.2-115.8"/>
</g>
</svg>
