<?xml version="1.0" encoding="utf-8"?>
<!-- Generator: Adobe Illustrator 24.1.2, SVG Export Plug-In . SVG Version: 6.00 Build 0)  -->
<svg version="1.1" id="Layer_1" xmlns="http://www.w3.org/2000/svg" xmlns:xlink="http://www.w3.org/1999/xlink" x="0px" y="0px"
	 viewBox="0 0 60 60" style="enable-background:new 0 0 60 60;" xml:space="preserve">
<style type="text/css">
	.st0{fill:url(#SVGID_1_);}
	.st1{fill:url(#SVGID_2_);}
	.st2{fill:none;stroke:#170500;stroke-miterlimit:10;}
</style>
<g id="Layer_5">
</g>
<g>
	<g id="Layer_4">
		
			<linearGradient id="SVGID_1_" gradientUnits="userSpaceOnUse" x1="15.9453" y1="-299.3727" x2="41.2133" y2="-274.1047" gradientTransform="matrix(1 0 0 -1 0 -244.1)">
			<stop  offset="0" style="stop-color:#F7931E"/>
			<stop  offset="0.5" style="stop-color:#FFF100"/>
			<stop  offset="1" style="stop-color:#FFD700"/>
		</linearGradient>
		<ellipse class="st0" cx="28.6" cy="42.6" rx="19" ry="16.7"/>
		
			<linearGradient id="SVGID_2_" gradientUnits="userSpaceOnUse" x1="13.4315" y1="-254.1352" x2="40.6212" y2="-301.2291" gradientTransform="matrix(1 0 0 -1 0 -244.1)">
			<stop  offset="0" style="stop-color:#FF1D25"/>
			<stop  offset="0.5" style="stop-color:#FFCA05"/>
			<stop  offset="1" style="stop-color:#FAAC18"/>
		</linearGradient>
		<path class="st1" d="M32-0.7c0.4,2.8,1,5.5,2.1,7.9c1.1,2.2,2.2,4.4,3.5,6.5c2.5,4.1,4.2,8.6,5.4,13.2c0.2,0.8,0.4,1.6,0.7,2.4
			c0.3,1,1.1,1.2,1.8,0.4c0.5-0.5,0.9-1.2,1.2-1.9c0.7-1.6,1.3-3.2,2-4.8c0.1,0.3,0.3,0.5,0.4,0.8c3.5,7.9,3,15.7-0.7,23.3
			c-1.8,3.7-4,6.9-7.1,9.5c-0.5,0.5-1.2,0.8-1.8,1.1c-0.5,0.3-1,0.4-1.5-0.1c-0.6-0.6-0.9-1.2-0.7-2c0.2-0.6,0.4-1.1,0.7-1.6
			c1.3-2.4,1.6-5,1-7.7c0-0.2-0.1-0.3-0.1-0.4c-0.5-1.4-1.4-1.6-2.3-0.5c-1,1.2-1.9,2.6-2.8,3.9c-0.8,1.1-1.5,2.2-2.3,3.3
			c-0.3,0.4-0.8,0.5-1.2,0.8c-0.2-0.5-0.4-0.9-0.5-1.4c-0.2-1.5,0.1-3,0.8-4.3c1.2-2.2,2-4.7,2.2-7.3c0.2-2.6-0.7-4.8-2.3-6.7
			c-0.1-0.1-0.3-0.3-0.4-0.4c-0.9-0.7-1.6-0.4-1.8,0.8c-0.1,0.5-0.2,1-0.3,1.5c-0.4,1.6-1.2,2.9-2.5,3.9c-2.2,1.6-4.4,3.3-6.3,5.4
			c-0.4,0.4-0.8,0.9-1.2,1.4c-1.8,2.4-2,4.9-0.7,7.6c0.4,0.9,1,1.7,1.4,2.6c0.2,0.3,0.3,0.9,0.2,1.1c-0.2,0.3-0.7,0.4-1.1,0.3
			c-1.6-0.1-3.1-0.9-4.4-1.9c-2.7-2.1-4.6-4.9-5.9-8.2c-3.3-7.8-3.8-15.8-1.1-23.9c0.8-2.4,1.9-4.5,3.6-6.4c0.3-0.4,0.8-0.7,1.2-1
			c0.3-0.2,0.6-0.2,0.7,0.4c0.1,1.1,0.2,2.3,0.4,3.4c0.3,1.7,1,3.3,2,4.7c0.2,0.3,0.5,0.5,0.7,0.7c0.6,0.5,1.4,0.3,1.7-0.5
			c0.3-0.8,0.4-1.6,0.5-2.4c0.3-2.5,0.6-5.1,1.3-7.6c1.3-4.2,3.7-7.6,6.7-10.5C27.3,2.6,29.5,0.9,32-0.7z"/>
	</g>
	<g id="Layer_2_1_">
		<path class="st2" d="M64.8,39.5"/>
	</g>
</g>
</svg>
