<?xml version="1.0" encoding="utf-8"?>
<!-- Generator: Adobe Illustrator 24.1.2, SVG Export Plug-In . SVG Version: 6.00 Build 0)  -->
<svg version="1.1" id="Layer_1" xmlns="http://www.w3.org/2000/svg" xmlns:xlink="http://www.w3.org/1999/xlink" x="0px" y="0px"
	 viewBox="0 0 60 60" style="enable-background:new 0 0 60 60;" xml:space="preserve">
<style type="text/css">
	.st0{fill:url(#SVGID_1_);}
	.st1{fill:url(#SVGID_2_);}
	.st2{fill:url(#SVGID_3_);}
	.st3{fill:none;stroke:#170500;stroke-miterlimit:10;}
</style>
<g>
	<g id="Layer_4">
		
			<linearGradient id="SVGID_1_" gradientUnits="userSpaceOnUse" x1="30" y1="-65" x2="30" y2="-125" gradientTransform="matrix(1 0 0 -1 0 -65)">
			<stop  offset="0" style="stop-color:#FF931E"/>
			<stop  offset="0.5" style="stop-color:#F15A24"/>
			<stop  offset="1" style="stop-color:#CF232A"/>
		</linearGradient>
		<circle class="st0" cx="30" cy="30" r="30"/>
	</g>
	<g id="Layer_5">
		<g>
			
				<linearGradient id="SVGID_2_" gradientUnits="userSpaceOnUse" x1="18.3996" y1="-121.1346" x2="41.9731" y2="-97.5611" gradientTransform="matrix(1 0 0 -1 0 -65)">
				<stop  offset="0" style="stop-color:#F7931E"/>
				<stop  offset="0.5" style="stop-color:#FFF100"/>
				<stop  offset="1" style="stop-color:#FFD700"/>
			</linearGradient>
			<ellipse class="st1" cx="30.2" cy="44.3" rx="18.3" ry="14.9"/>
			
				<linearGradient id="SVGID_3_" gradientUnits="userSpaceOnUse" x1="17.0879" y1="-78.4381" x2="41.5329" y2="-120.7782" gradientTransform="matrix(1 0 0 -1 0 -65)">
				<stop  offset="0" style="stop-color:#FF1D25"/>
				<stop  offset="0.5" style="stop-color:#FFCA05"/>
				<stop  offset="1" style="stop-color:#FAAC18"/>
			</linearGradient>
			<path class="st2" d="M33.8,3.8c0.4,2.5,0.9,4.9,2.1,7c1,2,2.1,3.9,3.3,5.8c2.4,3.6,4,7.7,5.2,11.8c0.2,0.7,0.4,1.4,0.6,2.1
				c0.3,0.9,1.1,1.1,1.7,0.4c0.5-0.5,0.9-1.1,1.2-1.7c0.7-1.4,1.3-2.8,1.9-4.3c0.1,0.2,0.2,0.4,0.4,0.7c3.3,7.1,2.9,14-0.6,20.9
				c-1.7,3.3-3.9,6.2-6.8,8.5c-0.5,0.4-1.1,0.7-1.7,1c-0.5,0.2-1,0.4-1.5-0.1c-0.5-0.5-0.9-1.1-0.7-1.8c0.2-0.5,0.4-1,0.7-1.5
				c1.3-2.2,1.5-4.5,0.9-6.9c0-0.1-0.1-0.3-0.1-0.4c-0.5-1.2-1.3-1.5-2.2-0.5c-1,1.1-1.8,2.3-2.7,3.5c-0.7,1-1.4,2-2.2,2.9
				c-0.3,0.3-0.7,0.5-1.1,0.7c-0.2-0.4-0.4-0.8-0.5-1.3c-0.2-1.4,0.1-2.6,0.8-3.9c1.2-2,1.9-4.2,2.1-6.5c0.2-2.3-0.6-4.3-2.2-6
				c-0.1-0.1-0.3-0.2-0.4-0.3c-0.9-0.6-1.5-0.4-1.8,0.7c-0.1,0.4-0.2,0.9-0.3,1.3c-0.4,1.4-1.1,2.6-2.4,3.5c-2.2,1.4-4.2,3-6.1,4.8
				c-0.4,0.4-0.8,0.8-1.1,1.2c-1.7,2.1-1.9,4.4-0.7,6.8c0.4,0.8,0.9,1.6,1.3,2.4c0.2,0.3,0.3,0.8,0.2,1c-0.2,0.2-0.7,0.3-1,0.3
				c-1.6-0.1-2.9-0.8-4.2-1.7c-2.6-1.9-4.4-4.4-5.7-7.3c-3.1-7-3.6-14.1-1.1-21.3c0.7-2.1,1.9-4.1,3.4-5.7c0.3-0.3,0.7-0.6,1.1-0.9
				c0.3-0.2,0.6-0.2,0.7,0.3c0.1,1,0.2,2,0.4,3.1c0.3,1.6,1,2.9,1.9,4.2c0.2,0.2,0.4,0.5,0.7,0.7c0.6,0.4,1.3,0.3,1.6-0.4
				c0.2-0.7,0.4-1.4,0.5-2.2c0.3-2.3,0.5-4.6,1.3-6.8c1.2-3.8,3.6-6.8,6.5-9.4C29.3,6.7,31.4,5.1,33.8,3.8z"/>
		</g>
	</g>
</g>
<g id="Layer_2_1_">
	<path class="st3" d="M79,144"/>
</g>
</svg>
