<svg width="2" height="12" viewBox="0 0 2 12" fill="none" xmlns="http://www.w3.org/2000/svg">
<g clip-path="url(#clip0_2002_242)">
<path d="M1 10C0.734784 10 0.48043 10.1054 0.292893 10.2929C0.105357 10.4804 0 10.7348 0 11C0 11.2652 0.105357 11.5196 0.292893 11.7071C0.48043 11.8946 0.734784 12 1 12C1.26522 12 1.51957 11.8946 1.70711 11.7071C1.89464 11.5196 2 11.2652 2 11C2 10.7348 1.89464 10.4804 1.70711 10.2929C1.51957 10.1054 1.26522 10 1 10ZM1 5C0.734784 5 0.48043 5.10536 0.292893 5.29289C0.105357 5.48043 0 5.73478 0 6C0 6.26522 0.105357 6.51957 0.292893 6.70711C0.48043 6.89464 0.734784 7 1 7C1.26522 7 1.51957 6.89464 1.70711 6.70711C1.89464 6.51957 2 6.26522 2 6C2 5.73478 1.89464 5.48043 1.70711 5.29289C1.51957 5.10536 1.26522 5 1 5ZM2 1C2 0.734784 1.89464 0.48043 1.70711 0.292893C1.51957 0.105357 1.26522 0 1 0C0.734784 0 0.48043 0.105357 0.292893 0.292893C0.105357 0.48043 0 0.734784 0 1C0 1.26522 0.105357 1.51957 0.292893 1.70711C0.48043 1.89464 0.734784 2 1 2C1.26522 2 1.51957 1.89464 1.70711 1.70711C1.89464 1.51957 2 1.26522 2 1Z" fill="white"/>
</g>
<defs>
<clipPath id="clip0_2002_242">
<rect width="2" height="12" fill="white"/>
</clipPath>
</defs>
</svg>
