<?xml version="1.0" encoding="utf-8"?>
<!-- Generator: Adobe Illustrator 24.1.2, SVG Export Plug-In . SVG Version: 6.00 Build 0)  -->
<svg version="1.1" id="Layer_1" xmlns="http://www.w3.org/2000/svg" xmlns:xlink="http://www.w3.org/1999/xlink" x="0px" y="0px"
	 viewBox="840 380 320 340" style="enable-background:new 0 0 1920 1080;" xml:space="preserve">
<style type="text/css">
	.st0{fill:url(#SVGID_1_);}
	.st1{fill:url(#SVGID_2_);}
	.st2{fill:url(#SVGID_3_);stroke:#000000;stroke-miterlimit:10;}
</style>
<g>
	<g>
		<path d="M1150.8,424.9c1.7,10,3.7,19.8,5.1,29.6c2.7,18.8,4.1,37.7,4.1,56.6c0.1,35.1-3.9,69.8-17.2,103.3
			c-8.3,21-20.1,40.3-37.3,57.1c-23.8,23.2-54.1,36.7-89,43.6c-15.9,3.2-30.6,0.3-45.4-3.3c-50.6-12.2-84.9-40.2-106.1-80.7
			c-11.3-21.6-18.2-44.3-21.2-67.7c-2.2-16.9-3.8-34-3.8-51c0-17.9,1.9-35.7,3.6-53.5c1.1-10.9,3.5-21.6,5.3-32.4
			c0.3-1.6,0.9-2.2,2.9-2.2c37-0.1,72.8-6.7,107.9-16.1c12.7-3.4,25.1-7.6,37.6-11.4c1.2-0.4,2.8-0.4,4,0
			c31.2,10.8,63.3,18.9,96.5,23.9c16.4,2.5,32.9,4,49.6,4.2C1148.4,424.9,1149.4,424.9,1150.8,424.9z M1149.4,426.1
			c-1.6,0-2.8,0.1-4,0c-13.7-1-27.5-1.5-41.1-3.2c-35.1-4.4-69-13.1-101.9-24.4c-2.1-0.7-3.8-0.8-5.9-0.1
			c-24.4,8.4-49.3,15.1-75,19.9c-22.4,4.2-45,7.4-68.1,7.2c-1.8,0-2.8,0.6-3.2,2.4c-4.1,18.9-6.5,38-7.7,57.2
			c-1.7,26.9-1.3,53.9,3.2,80.7c3.9,23.1,10.4,45.6,21.9,66.9c21.2,39.3,55.1,66.2,104.4,77.9c14.1,3.3,28.1,6.2,43.2,3.3
			c33.6-6.5,63-19,86.5-40.8c17.1-15.9,29.2-34.4,37.7-54.6c15.5-36.6,19.5-74.6,18.9-113.1c-0.3-19.3-2-38.6-5.1-57.7
			C1152.1,440.5,1150.7,433.4,1149.4,426.1z"/>
		
			<linearGradient id="SVGID_1_" gradientUnits="userSpaceOnUse" x1="841.5287" y1="523.4448" x2="1158.4093" y2="523.4448" gradientTransform="matrix(1 0 0 -1 0 1080)">
			<stop  offset="3.370000e-02" style="stop-color:#9B9B98"/>
			<stop  offset="0.1338" style="stop-color:#A4A5A7"/>
			<stop  offset="0.2191" style="stop-color:#AEB0B7"/>
			<stop  offset="0.3518" style="stop-color:#9FA3AA"/>
			<stop  offset="0.6054" style="stop-color:#788187"/>
			<stop  offset="0.7191" style="stop-color:#657076"/>
			<stop  offset="1" style="stop-color:#8B949A"/>
		</linearGradient>
		<path class="st0" d="M1149.4,426.1c1.3,7.3,2.8,14.4,3.9,21.6c3.1,19.2,4.8,38.4,5.1,57.7c0.6,38.6-3.4,76.6-18.9,113.1
			c-8.6,20.2-20.6,38.7-37.7,54.6c-23.5,21.8-52.9,34.3-86.5,40.8c-15.1,2.9-29.1,0-43.2-3.3c-49.3-11.7-83.2-38.7-104.4-77.9
			c-11.5-21.3-18-43.8-21.9-66.9c-4.5-26.8-4.9-53.7-3.2-80.7c1.2-19.2,3.7-38.3,7.7-57.2c0.4-1.8,1.3-2.4,3.2-2.4
			c23.1,0.2,45.6-3,68.1-7.2c25.7-4.8,50.6-11.5,75-19.9c2.1-0.7,3.8-0.7,5.9,0.1c32.9,11.3,66.8,19.9,101.9,24.4
			c13.6,1.7,27.4,2.2,41.1,3.2C1146.5,426.2,1147.7,426.1,1149.4,426.1z M1133.9,438.6c-10.7-0.7-20.8-1-30.8-2.1
			c-35.1-3.7-68.8-11.8-101.5-23.1c-2.1-0.7-3.7-0.8-5.8-0.1c-41.5,13.9-84,23.6-128.9,24.4c-1.8,0-2.4,0.5-2.8,2
			c-3.8,17.5-6,35.2-7.2,52.9c-1.4,21.1-0.8,42.2,1.8,63.2c2.8,22.2,8.4,43.8,18.7,64.4c18.9,37.6,50.1,63.5,96.9,74.5
			c11.6,2.7,23.2,5.5,35.7,3.3c28-4.9,53.2-14.5,74.2-31.4c19.9-16.1,33-35.9,41.9-57.7c12.4-30.3,16.2-61.7,15.8-93.4
			c-0.3-18-2.3-36.1-4-54.1C1137.3,453.8,1135.3,446.2,1133.9,438.6z"/>
		<path d="M1133.9,438.6c1.4,7.6,3.3,15.2,4.1,22.8c1.7,18,3.7,36,4,54.1c0.5,31.8-3.4,63.2-15.8,93.4c-9,21.9-22,41.7-41.9,57.7
			c-21,16.9-46.1,26.5-74.2,31.4c-12.5,2.2-24.1-0.6-35.7-3.3c-46.8-11-78-36.9-96.9-74.5c-10.3-20.6-15.9-42.2-18.7-64.4
			c-2.6-21-3.2-42.1-1.8-63.2c1.2-17.8,3.4-35.4,7.2-52.9c0.3-1.5,0.9-2,2.8-2c44.9-0.7,87.4-10.5,128.9-24.4
			c2.1-0.7,3.8-0.6,5.8,0.1c32.7,11.2,66.4,19.4,101.5,23.1C1113.1,437.6,1123.3,437.9,1133.9,438.6z M1132.5,439.7
			c-1.3-0.1-2.2-0.1-3-0.1c-11.2-0.8-22.5-1.2-33.6-2.5c-32.5-3.9-63.9-11.7-94.4-22c-1.6-0.6-4-0.7-5.6-0.1
			c-41.2,13.6-83.5,23.4-128,24.3c-0.8,0-2.2,1.1-2.4,1.9c-4,18.1-6.3,36.3-7.3,54.7c-1,17.6-0.7,35.2,1.1,52.8
			c1.9,17.9,5.3,35.5,11.4,52.6c7.6,21,18.7,40.4,35.9,57c20.3,19.5,45.8,31.4,75.5,37.1c6.5,1.2,13.4,3.1,19.8,2.4
			c23.3-2.4,44.9-9,64.4-20.4c24.2-14.1,40.9-33.4,52.4-56.2c10-19.7,15.8-40.4,18.6-61.8c2.2-16.4,3.7-32.9,2.8-49.3
			c-0.9-16.8-2.6-33.6-4.4-50.4C1135.3,452.9,1133.7,446.3,1132.5,439.7z"/>
		
			<linearGradient id="SVGID_2_" gradientUnits="userSpaceOnUse" x1="857.7496" y1="523.8757" x2="1140.6399" y2="523.8757" gradientTransform="matrix(1 0 0 -1 0 1080)">
			<stop  offset="0" style="stop-color:#00B8B5"/>
			<stop  offset="0.5" style="stop-color:#B7E2E0"/>
			<stop  offset="1" style="stop-color:#00AEA8"/>
		</linearGradient>
		<path class="st1" d="M1132.5,439.7c1.2,6.6,2.8,13.2,3.5,19.8c1.7,16.8,3.4,33.6,4.4,50.4c0.9,16.5-0.6,32.9-2.8,49.3
			c-2.9,21.3-8.6,42-18.6,61.8c-11.6,22.7-28.2,42.1-52.4,56.2c-19.5,11.4-41.2,18-64.4,20.4c-6.4,0.7-13.3-1.2-19.8-2.4
			c-29.7-5.6-55.1-17.6-75.5-37.1c-17.3-16.5-28.4-35.9-35.9-57c-6.2-17.2-9.6-34.7-11.4-52.6c-1.8-17.6-2.1-35.2-1.1-52.8
			c1-18.3,3.3-36.6,7.3-54.7c0.2-0.8,1.5-1.9,2.4-1.9c44.6-0.9,86.8-10.7,128-24.3c1.6-0.5,3.9-0.4,5.6,0.1
			c30.5,10.3,61.9,18.1,94.4,22c11.1,1.3,22.4,1.7,33.6,2.5C1130.4,439.6,1131.2,439.6,1132.5,439.7z"/>
	</g>
	
		<linearGradient id="SVGID_3_" gradientUnits="userSpaceOnUse" x1="1046.4176" y1="472.8909" x2="971.3575" y2="602.8986" gradientTransform="matrix(1 0 0 -1 0 1080)">
		<stop  offset="0" style="stop-color:#FDEBF3"/>
		<stop  offset="0.1124" style="stop-color:#F7EAF3"/>
		<stop  offset="0.2303" style="stop-color:#FAF1F2"/>
		<stop  offset="0.3539" style="stop-color:#FFFEF0"/>
		<stop  offset="0.478" style="stop-color:#FBFBF0"/>
		<stop  offset="0.5952" style="stop-color:#F0F3F2"/>
		<stop  offset="0.7093" style="stop-color:#DDE5F4"/>
		<stop  offset="0.7135" style="stop-color:#DCE4F4"/>
		<stop  offset="1" style="stop-color:#FEE9DF"/>
	</linearGradient>
	<path class="st2" d="M1004,535.2c0-3.6-0.8-7-2.5-10.2c-4.4-8.4-12-14.3-20.9-19.2c-1.4-0.7-2.1-0.7-3.3,0.3
		c-19.5,16.3-39.1,32.5-58.7,48.7c-1,0.8-1.4,1.4-0.8,2.7c6.5,13.7,16.7,25.3,28.7,35.7c0.9,0.8,1.4,0.5,2.2-0.1
		c3.3-2.6,6.7-5.3,10-7.9c14.6-11.5,29.2-23,43.9-34.4c1-0.8,1.5-1.6,1.4-2.7c-0.1-2.5,0-5.1,0-7.6
		C1004,538.7,1004.1,536.9,1004,535.2z M1005.7,577.4c0,3,0,6.1,0,9.1c0,0.3,0,0.7,0.2,0.8c0.4,0.3,0.7-0.2,1-0.4
		c0.4-0.3,0.8-0.7,1.2-1c11.5-9.8,22.9-19.7,34.4-29.5c3.4-2.9,7.4-5.1,12.1-6.3c7.8-2,13.4,0,17.2,5.6c0.8,1.2,1.5,2.5,2,3.8
		c2.5,5.8,2.9,11.9,3.4,18c0,0.4-0.3,1.1,0.3,1.3c0.5,0.1,0.8-0.6,1.1-1c5.4-6.3,10-13.1,13.3-20.4c5.8-12.9,7.2-26,2.7-39.4
		c-3.1-9.3-9.5-16.1-20.7-19.1c-1.5-0.4-2.6-0.3-3.8,0.7c-21,16.5-42,33-63,49.5c-1,0.8-1.4,1.6-1.4,2.7c0.1,5.6,0,11.3,0,16.9
		C1005.7,571.7,1005.7,574.6,1005.7,577.4z M1006.1,629.2c8.8-4,17.1-8.6,25.3-13.5c15.8-9.4,30.3-20.1,42.6-32.9
		c1.1-1.2,1.7-2.3,1.5-3.8c-0.3-4.4-0.5-8.7-1.5-13c-0.9-3.9-2.1-7.8-4.9-11.1c-2.5-3-5.8-4.5-10.1-4.2c-5.9,0.4-10.8,2.7-14.8,6.1
		c-12.6,10.6-24.9,21.3-37.4,32c-0.8,0.7-1.2,1.4-1.2,2.4c0,12.5,0.1,25.1,0.1,37.6C1005.8,628.9,1006,629.1,1006.1,629.2z
		 M916.1,553.1c0.5,1.5,1,1.3,2,0.4c19.3-16.1,38.6-32.1,58-48.1c1.1-0.9,1.1-1.3-0.3-1.8c-10.8-4.4-22-7.1-34.1-5.6
		c-10.5,1.3-18.7,5.6-23.6,13.9c-4.2,7.1-5.4,14.7-5.6,21C912.6,540.7,913.9,546.9,916.1,553.1z M1004,554.1c0-0.7,0.6-1.7-0.4-2.1
		c-0.6-0.2-1.3,0.7-1.9,1.2c-17.2,13.5-34.3,27-51.5,40.4c-1.3,1-1.4,1.5-0.1,2.5c7.4,5.9,15.2,11.4,23.3,16.6
		c1.4,0.9,2.2,0.9,3.4-0.2c8.5-7.4,17-14.7,25.6-22c1.2-1,1.6-2,1.6-3.3c-0.1-5.6,0-11.1,0-16.7C1004,565.1,1004.1,559.6,1004,554.1
		z M1005.7,546.3c0,0.5-0.3,1.3,0.2,1.6c0.6,0.3,1-0.5,1.5-0.9c14.8-11.6,29.5-23.1,44.3-34.7c5.6-4.4,11.2-8.8,16.7-13.2
		c0.3-0.2,1-0.4,0.7-1c-0.2-0.4-0.7-0.3-1.1-0.3c-1.9-0.2-3.8-0.4-5.7-0.4c-15.1,0.1-28.5,4.5-40.2,12.6
		c-10.9,7.5-17.9,16.7-16.5,28.2C1005.7,541.6,1005.6,544,1005.7,546.3z M1004,628.8c0-4.8,0-9.6,0.1-14.4c0-7.2,0-14.4,0-21.5
		c0-0.4,0.2-0.9-0.3-1.1c-0.5-0.2-0.8,0.4-1.1,0.6c-8.3,7.1-16.6,14.3-25,21.4c-0.7,0.6-1.2,0.9,0,1.6c8.4,4.9,16.9,9.7,25.9,13.8
		C1003.8,629.1,1003.9,628.9,1004,628.8z M1003.6,629.2c0.3,0.1,0.5,0.4,0.7,0c0-0.1-0.3-0.3-0.4-0.4
		C1003.9,628.9,1003.8,629.1,1003.6,629.2z M1005.7,628.8c-0.1,0.1-0.4,0.3-0.4,0.4c0.2,0.4,0.5,0.1,0.7,0
		C1006,629.1,1005.8,628.9,1005.7,628.8z"/>
</g>
</svg>
