<?xml version="1.0" encoding="utf-8"?>
<!-- Generator: Adobe Illustrator 24.1.2, SVG Export Plug-In . SVG Version: 6.00 Build 0)  -->
<svg version="1.1" id="Layer_1" xmlns="http://www.w3.org/2000/svg" xmlns:xlink="http://www.w3.org/1999/xlink" x="0px" y="0px"
	 viewBox="840 370 320 340" style="enable-background:new 0 0 1920 1080;" xml:space="preserve">
<style type="text/css">
	.st0{fill:url(#SVGID_1_);}
	.st1{fill:url(#SVGID_2_);}
	.st2{fill:url(#SVGID_3_);stroke:#000000;stroke-miterlimit:10;}
</style>
<g>
	<g>
		<path d="M1150.83,400.37c1.72,9.95,3.66,19.76,5.07,29.63c2.68,18.8,4.07,37.69,4.11,56.64c0.06,35.12-3.89,69.76-17.19,103.26
			c-8.33,20.97-20.07,40.35-37.25,57.11c-23.84,23.24-54.09,36.69-89.04,43.63c-15.87,3.15-30.62,0.3-45.42-3.28
			c-50.6-12.21-84.92-40.23-106.11-80.74c-11.28-21.58-18.16-44.25-21.17-67.66c-2.17-16.92-3.82-33.98-3.82-50.98
			c0-17.85,1.87-35.72,3.64-53.54c1.08-10.85,3.52-21.6,5.26-32.41c0.26-1.61,0.86-2.24,2.87-2.25
			c37.04-0.14,72.8-6.72,107.93-16.13c12.69-3.4,25.08-7.63,37.64-11.39c1.19-0.35,2.81-0.37,3.97,0.02
			c31.23,10.75,63.33,18.95,96.51,23.92c16.4,2.46,32.93,4,49.61,4.17C1148.4,400.38,1149.38,400.37,1150.83,400.37z
			 M1149.36,401.59c-1.61,0-2.82,0.08-4.01-0.01c-13.71-1.02-27.51-1.5-41.1-3.21c-35.13-4.42-68.97-13.06-101.89-24.35
			c-2.08-0.72-3.82-0.77-5.93-0.05c-24.37,8.37-49.34,15.12-75,19.89c-22.42,4.17-44.99,7.4-68.06,7.19
			c-1.83-0.02-2.76,0.59-3.16,2.43c-4.08,18.92-6.54,38.01-7.75,57.2c-1.7,26.95-1.31,53.86,3.19,80.66
			c3.88,23.13,10.43,45.6,21.93,66.89c21.21,39.26,55.12,66.22,104.41,77.95c14.06,3.35,28.09,6.22,43.17,3.31
			c33.58-6.48,62.99-18.99,86.52-40.81c17.14-15.9,29.15-34.4,37.74-54.61c15.54-36.58,19.54-74.58,18.93-113.14
			c-0.31-19.33-2.01-38.57-5.08-57.73C1152.12,416.03,1150.69,408.92,1149.36,401.59z"/>
		
			<linearGradient id="SVGID_1_" gradientUnits="userSpaceOnUse" x1="841.5289" y1="547.9448" x2="1158.4093" y2="547.9448" gradientTransform="matrix(1 0 0 -1 0 1080)">
			<stop  offset="0.0337" style="stop-color:#9B9B98"/>
			<stop  offset="0.1338" style="stop-color:#A4A5A7"/>
			<stop  offset="0.2191" style="stop-color:#AEB0B7"/>
			<stop  offset="0.3518" style="stop-color:#9FA3AA"/>
			<stop  offset="0.6054" style="stop-color:#788187"/>
			<stop  offset="0.7191" style="stop-color:#657076"/>
			<stop  offset="1" style="stop-color:#8B949A"/>
		</linearGradient>
		<path class="st0" d="M1149.36,401.59c1.33,7.33,2.77,14.44,3.91,21.59c3.07,19.15,4.77,38.4,5.08,57.73
			c0.61,38.56-3.4,76.57-18.93,113.14c-8.58,20.21-20.6,38.71-37.74,54.61c-23.53,21.82-52.94,34.33-86.52,40.81
			c-15.08,2.91-29.11,0.03-43.17-3.31c-49.29-11.72-83.2-38.69-104.41-77.95c-11.5-21.28-18.05-43.76-21.93-66.89
			c-4.49-26.79-4.88-53.71-3.19-80.66c1.21-19.19,3.68-38.28,7.75-57.2c0.39-1.84,1.33-2.45,3.16-2.43
			c23.06,0.21,45.64-3.03,68.06-7.19c25.67-4.77,50.64-11.52,75-19.89c2.1-0.72,3.85-0.66,5.93,0.05
			c32.92,11.29,66.76,19.93,101.89,24.36c13.59,1.71,27.39,2.19,41.1,3.21C1146.54,401.67,1147.74,401.59,1149.36,401.59z
			 M1133.93,414.12c-10.67-0.7-20.79-1.02-30.82-2.08c-35.05-3.69-68.75-11.84-101.47-23.07c-2.08-0.72-3.72-0.8-5.85-0.09
			c-41.47,13.89-84.03,23.64-128.9,24.38c-1.8,0.03-2.43,0.55-2.75,2.05c-3.76,17.51-6.05,35.18-7.2,52.95
			c-1.37,21.1-0.84,42.15,1.8,63.19c2.79,22.23,8.4,43.82,18.74,64.4c18.86,37.55,50.12,63.5,96.91,74.46
			c11.6,2.72,23.2,5.49,35.7,3.3c28.04-4.9,53.2-14.48,74.17-31.41c19.93-16.09,32.97-35.85,41.93-57.75
			c12.38-30.26,16.2-61.67,15.76-93.44c-0.26-18.04-2.26-36.08-3.96-54.08C1137.26,429.29,1135.32,421.72,1133.93,414.12z"/>
		<path d="M1133.93,414.12c1.39,7.6,3.34,15.16,4.06,22.81c1.7,18.01,3.7,36.04,3.96,54.08c0.46,31.77-3.36,63.19-15.76,93.44
			c-8.96,21.89-22.01,41.66-41.93,57.75c-20.98,16.94-46.14,26.51-74.17,31.41c-12.5,2.18-24.1-0.58-35.7-3.3
			c-46.78-10.96-78.05-36.91-96.91-74.46c-10.34-20.57-15.95-42.16-18.74-64.4c-2.64-21.04-3.17-42.09-1.8-63.19
			c1.15-17.77,3.44-35.43,7.2-52.95c0.32-1.5,0.95-2.02,2.75-2.05c44.88-0.74,87.44-10.5,128.9-24.38c2.13-0.72,3.77-0.62,5.85,0.09
			c32.72,11.23,66.43,19.38,101.47,23.07C1113.13,413.1,1123.26,413.43,1133.93,414.12z M1132.54,415.21
			c-1.29-0.06-2.16-0.08-3.02-0.13c-11.19-0.81-22.45-1.19-33.57-2.52c-32.54-3.89-63.86-11.74-94.39-22.03
			c-1.65-0.55-3.96-0.67-5.58-0.13c-41.25,13.61-83.46,23.39-128.02,24.26c-0.83,0.02-2.19,1.13-2.36,1.9
			c-4.03,18.06-6.26,36.32-7.29,54.66c-0.99,17.6-0.71,35.19,1.14,52.79c1.87,17.87,5.26,35.46,11.44,52.62
			c7.57,21.01,18.69,40.42,35.95,56.96c20.34,19.49,45.82,31.44,75.47,37.06c6.53,1.23,13.41,3.1,19.82,2.44
			c23.25-2.38,44.92-9.04,64.41-20.4c24.23-14.12,40.87-33.44,52.43-56.18c10.03-19.74,15.78-40.44,18.63-61.78
			c2.19-16.4,3.7-32.86,2.77-49.34c-0.95-16.82-2.64-33.62-4.35-50.4C1135.34,428.37,1133.72,421.82,1132.54,415.21z"/>
		
			<radialGradient id="SVGID_2_" cx="998.8148" cy="554.1298" r="235.0149" gradientTransform="matrix(0.6809 0 0 -0.5457 319.1378 834.0447)" gradientUnits="userSpaceOnUse">
			<stop  offset="0.1798" style="stop-color:#F4E8D9"/>
			<stop  offset="0.5899" style="stop-color:#EDD089"/>
			<stop  offset="1" style="stop-color:#C08329"/>
		</radialGradient>
		<path class="st1" d="M1132.54,415.21c1.19,6.61,2.8,13.15,3.47,19.78c1.71,16.78,3.4,33.58,4.35,50.4
			c0.93,16.48-0.58,32.94-2.77,49.34c-2.85,21.34-8.59,42.04-18.63,61.78c-11.55,22.74-28.2,42.07-52.43,56.18
			c-19.49,11.36-41.15,18.01-64.41,20.4c-6.41,0.66-13.29-1.2-19.82-2.44c-29.65-5.61-55.14-17.57-75.47-37.06
			c-17.26-16.54-28.38-35.94-35.95-56.96c-6.18-17.16-9.56-34.75-11.44-52.62c-1.85-17.59-2.12-35.18-1.14-52.79
			c1.03-18.34,3.25-36.6,7.29-54.66c0.17-0.76,1.53-1.88,2.36-1.9c44.56-0.87,86.77-10.65,128.02-24.26
			c1.62-0.54,3.93-0.42,5.58,0.13c30.53,10.29,61.86,18.14,94.4,22.03c11.11,1.33,22.37,1.71,33.57,2.52
			C1130.38,415.14,1131.25,415.15,1132.54,415.21z"/>
	</g>
	
		<linearGradient id="SVGID_3_" gradientUnits="userSpaceOnUse" x1="1040.4651" y1="504.236" x2="965.4077" y2="634.2394" gradientTransform="matrix(1 0 0 -1 0 1080)">
		<stop  offset="0" style="stop-color:#FDEBF3"/>
		<stop  offset="0.1124" style="stop-color:#F7EAF3"/>
		<stop  offset="0.2303" style="stop-color:#FAF1F2"/>
		<stop  offset="0.3539" style="stop-color:#FFFEF0"/>
		<stop  offset="0.478" style="stop-color:#FBFBF0"/>
		<stop  offset="0.5952" style="stop-color:#F0F3F2"/>
		<stop  offset="0.7093" style="stop-color:#DDE5F4"/>
		<stop  offset="0.7135" style="stop-color:#DCE4F4"/>
		<stop  offset="1" style="stop-color:#FEE9DF"/>
	</linearGradient>
	<path class="st2" d="M998.1,503.82c-0.01-3.55-0.8-6.96-2.51-10.22c-4.4-8.43-11.97-14.3-20.87-19.16
		c-1.35-0.74-2.14-0.69-3.3,0.28c-19.52,16.28-39.08,32.52-58.67,48.74c-0.99,0.82-1.38,1.45-0.8,2.66
		c6.48,13.74,16.71,25.25,28.71,35.74c0.94,0.83,1.44,0.49,2.19-0.11c3.31-2.65,6.65-5.25,9.99-7.88
		c14.62-11.49,29.23-22.97,43.87-34.43c1-0.78,1.46-1.58,1.42-2.74c-0.08-2.53-0.03-5.07-0.03-7.6
		C998.1,507.34,998.1,505.59,998.1,503.82z M999.7,546.1c0,3.03,0,6.06,0.01,9.09c0,0.27-0.01,0.68,0.16,0.79
		c0.44,0.26,0.7-0.18,0.98-0.4c0.43-0.33,0.82-0.7,1.23-1.05c11.46-9.84,22.92-19.68,34.38-29.52c3.42-2.94,7.44-5.13,12.06-6.34
		c7.76-2.04,13.4-0.05,17.18,5.64c0.8,1.21,1.45,2.52,2.02,3.83c2.51,5.82,2.89,11.94,3.36,18.04c0.03,0.44-0.33,1.14,0.31,1.27
		c0.53,0.11,0.78-0.6,1.1-0.97c5.37-6.34,9.97-13.05,13.29-20.36c5.85-12.89,7.19-26.04,2.66-39.44
		c-3.13-9.28-9.47-16.09-20.66-19.06c-1.52-0.4-2.55-0.29-3.75,0.65c-20.97,16.52-41.97,33.01-62.99,49.49
		c-0.99,0.78-1.39,1.6-1.38,2.75c0.05,5.64,0.03,11.28,0.03,16.91C999.7,540.33,999.7,543.22,999.7,546.1z M1000.12,597.89
		c8.8-4,17.14-8.63,25.31-13.49c15.84-9.41,30.32-20.12,42.62-32.9c1.11-1.15,1.65-2.32,1.53-3.83c-0.33-4.35-0.48-8.72-1.45-13.02
		c-0.89-3.94-2.08-7.81-4.88-11.14c-2.49-2.96-5.79-4.5-10.14-4.22c-5.88,0.38-10.77,2.72-14.8,6.11
		c-12.58,10.58-24.95,21.34-37.41,32.02c-0.81,0.69-1.22,1.41-1.22,2.41c0.05,12.54,0.05,25.09,0.07,37.63
		C999.88,597.61,1000,597.75,1000.12,597.89z M910.18,521.72c0.54,1.48,0.98,1.25,1.99,0.41c19.32-16.06,38.65-32.12,58-48.14
		c1.06-0.88,1.12-1.26-0.3-1.84c-10.79-4.44-22-7.1-34.08-5.6c-10.46,1.3-18.66,5.58-23.55,13.88c-4.16,7.07-5.37,14.67-5.58,21.04
		C906.68,509.31,907.91,515.58,910.18,521.72z M998.07,522.8c-0.01-0.7,0.57-1.75-0.39-2.06c-0.64-0.21-1.27,0.74-1.85,1.2
		c-17.16,13.48-34.3,26.98-51.51,40.43c-1.29,1.01-1.41,1.47-0.1,2.53c7.4,5.93,15.18,11.44,23.31,16.64
		c1.42,0.91,2.16,0.9,3.42-0.2c8.48-7.39,17.03-14.73,25.62-22.02c1.16-0.99,1.57-1.99,1.55-3.35c-0.07-5.56-0.03-11.12-0.03-16.69
		C998.1,533.79,998.12,528.29,998.07,522.8z M999.71,514.95c0.01,0.55-0.31,1.34,0.22,1.58c0.63,0.28,1.03-0.51,1.49-0.86
		c14.76-11.57,29.52-23.14,44.26-34.73c5.58-4.39,11.17-8.77,16.73-13.18c0.31-0.24,0.97-0.43,0.7-0.95
		c-0.19-0.38-0.71-0.26-1.1-0.3c-1.89-0.15-3.77-0.41-5.66-0.4c-15.12,0.13-28.48,4.55-40.18,12.58
		c-10.89,7.48-17.87,16.69-16.46,28.18C999.7,510.3,999.69,512.63,999.71,514.95z M998.04,597.47c0.02-4.78,0.05-9.57,0.05-14.35
		c0.01-7.18,0.01-14.35-0.01-21.53c0-0.38,0.25-0.94-0.29-1.12c-0.54-0.19-0.8,0.37-1.12,0.65c-8.32,7.12-16.63,14.25-24.95,21.37
		c-0.72,0.62-1.16,0.95,0.04,1.64c8.45,4.85,16.92,9.68,25.93,13.77C997.8,597.75,997.92,597.61,998.04,597.47z M997.68,597.89
		c0.26,0.08,0.54,0.39,0.75-0.01c0.04-0.08-0.25-0.27-0.39-0.41C997.92,597.61,997.8,597.75,997.68,597.89z M999.76,597.47
		c-0.14,0.14-0.42,0.34-0.39,0.42c0.2,0.4,0.49,0.09,0.75,0.01C1000,597.75,999.88,597.61,999.76,597.47z"/>
</g>
</svg>
