<?xml version="1.0" encoding="utf-8"?>
<!-- Generator: Adobe Illustrator 24.1.2, SVG Export Plug-In . SVG Version: 6.00 Build 0)  -->
<svg version="1.1" id="Layer_1" xmlns="http://www.w3.org/2000/svg" xmlns:xlink="http://www.w3.org/1999/xlink" x="0px" y="0px"
	 viewBox="800 360 320 340" style="enable-background:new 0 0 1920 1080;" xml:space="preserve">
<style type="text/css">
	.st0{fill:url(#SVGID_1_);}
	.st1{fill:url(#SVGID_2_);}
	.st2{fill:url(#SVGID_3_);stroke:#000000;stroke-miterlimit:10;}
</style>
<g>
	<g>
		<path d="M1110.77,407.35c1.72,9.96,3.66,19.76,5.07,29.63c2.68,18.8,4.07,37.69,4.1,56.64c0.06,35.12-3.89,69.76-17.19,103.25
			c-8.33,20.97-20.07,40.35-37.25,57.1c-23.83,23.24-54.09,36.69-89.04,43.63c-15.87,3.15-30.62,0.3-45.42-3.27
			c-50.6-12.21-84.93-40.23-106.1-80.74c-11.28-21.58-18.16-44.26-21.17-67.66c-2.17-16.92-3.82-33.99-3.82-50.99
			c0-17.85,1.87-35.72,3.64-53.54c1.07-10.85,3.52-21.6,5.26-32.41c0.26-1.6,0.86-2.24,2.87-2.25c37.04-0.14,72.8-6.72,107.93-16.13
			c12.69-3.4,25.07-7.63,37.64-11.39c1.19-0.36,2.81-0.37,3.97,0.02c31.23,10.75,63.33,18.95,96.51,23.92
			c16.4,2.46,32.93,4,49.61,4.17C1108.34,407.36,1109.32,407.35,1110.77,407.35z M1109.3,408.57c-1.61,0-2.82,0.08-4.01-0.01
			c-13.71-1.02-27.51-1.5-41.1-3.21c-35.13-4.42-68.97-13.06-101.89-24.35c-2.08-0.71-3.82-0.77-5.93-0.05
			c-24.37,8.37-49.33,15.12-75,19.89c-22.42,4.16-44.99,7.4-68.06,7.19c-1.83-0.02-2.76,0.59-3.16,2.43
			c-4.08,18.92-6.54,38.01-7.75,57.2c-1.69,26.95-1.31,53.86,3.19,80.66c3.88,23.12,10.43,45.6,21.93,66.88
			c21.21,39.26,55.12,66.22,104.41,77.95c14.06,3.34,28.09,6.22,43.17,3.31c33.58-6.48,62.99-18.99,86.52-40.81
			c17.14-15.89,29.16-34.4,37.74-54.61c15.53-36.58,19.54-74.59,18.93-113.14c-0.31-19.33-2.01-38.58-5.08-57.73
			C1112.06,423.01,1110.63,415.89,1109.3,408.57z"/>
		<linearGradient id="SVGID_1_" gradientUnits="userSpaceOnUse" x1="801.4698" y1="539.036" x2="1118.347" y2="539.036">
			<stop  offset="0.0337" style="stop-color:#9B9B98"/>
			<stop  offset="0.1338" style="stop-color:#A4A5A7"/>
			<stop  offset="0.2191" style="stop-color:#AEB0B7"/>
			<stop  offset="0.3518" style="stop-color:#9FA3AA"/>
			<stop  offset="0.6054" style="stop-color:#788187"/>
			<stop  offset="0.7191" style="stop-color:#657076"/>
			<stop  offset="1" style="stop-color:#8B949A"/>
		</linearGradient>
		<path class="st0" d="M1109.3,408.57c1.34,7.33,2.77,14.44,3.91,21.59c3.07,19.15,4.77,38.4,5.08,57.73
			c0.61,38.56-3.4,76.56-18.93,113.14c-8.58,20.2-20.6,38.71-37.74,54.61c-23.53,21.82-52.94,34.33-86.52,40.81
			c-15.08,2.91-29.11,0.03-43.17-3.31c-49.29-11.72-83.2-38.69-104.41-77.95c-11.5-21.28-18.05-43.76-21.93-66.88
			c-4.5-26.79-4.88-53.71-3.19-80.66c1.21-19.19,3.67-38.28,7.75-57.2c0.4-1.84,1.33-2.45,3.16-2.43
			c23.06,0.21,45.64-3.03,68.06-7.19c25.67-4.77,50.64-11.52,75-19.89c2.11-0.72,3.85-0.66,5.93,0.05
			c32.92,11.29,66.76,19.93,101.89,24.35c13.59,1.71,27.39,2.19,41.1,3.21C1106.48,408.64,1107.68,408.57,1109.3,408.57z
			 M1093.87,421.1c-10.67-0.7-20.8-1.02-30.82-2.07c-35.05-3.69-68.75-11.84-101.47-23.07c-2.08-0.72-3.72-0.8-5.85-0.09
			c-41.47,13.89-84.03,23.64-128.9,24.38c-1.81,0.03-2.43,0.55-2.75,2.05c-3.76,17.52-6.04,35.18-7.2,52.95
			c-1.37,21.1-0.84,42.15,1.8,63.19c2.79,22.23,8.4,43.82,18.74,64.4c18.86,37.55,50.12,63.5,96.91,74.46
			c11.6,2.72,23.2,5.48,35.7,3.3c28.04-4.9,53.2-14.48,74.17-31.41c19.93-16.09,32.97-35.85,41.93-57.75
			c12.39-30.26,16.2-61.67,15.75-93.44c-0.26-18.04-2.26-36.08-3.96-54.08C1097.21,436.26,1095.26,428.7,1093.87,421.1z"/>
		<path d="M1093.87,421.1c1.39,7.6,3.34,15.16,4.06,22.81c1.7,18.01,3.7,36.04,3.96,54.08c0.45,31.77-3.37,63.18-15.75,93.44
			c-8.96,21.9-22,41.66-41.93,57.75c-20.98,16.94-46.13,26.51-74.17,31.41c-12.5,2.18-24.1-0.58-35.7-3.3
			c-46.78-10.96-78.05-36.91-96.91-74.46c-10.33-20.57-15.95-42.17-18.74-64.4c-2.64-21.04-3.18-42.09-1.8-63.19
			c1.15-17.77,3.44-35.43,7.2-52.95c0.32-1.5,0.95-2.02,2.75-2.05c44.87-0.75,87.43-10.5,128.9-24.38c2.13-0.71,3.76-0.62,5.85,0.09
			c32.72,11.23,66.42,19.38,101.47,23.07C1073.07,420.08,1083.2,420.4,1093.87,421.1z M1092.48,422.19
			c-1.29-0.06-2.16-0.07-3.02-0.14c-11.19-0.81-22.46-1.19-33.56-2.52c-32.54-3.89-63.87-11.74-94.39-22.03
			c-1.65-0.56-3.96-0.67-5.58-0.14c-41.25,13.61-83.46,23.39-128.01,24.26c-0.83,0.02-2.19,1.14-2.36,1.89
			c-4.03,18.06-6.26,36.32-7.29,54.66c-0.99,17.6-0.71,35.2,1.13,52.79c1.87,17.87,5.25,35.46,11.44,52.62
			c7.57,21.01,18.69,40.42,35.95,56.96c20.34,19.49,45.82,31.44,75.47,37.06c6.53,1.24,13.41,3.1,19.82,2.44
			c23.25-2.38,44.92-9.04,64.41-20.4c24.23-14.12,40.87-33.44,52.43-56.18c10.03-19.74,15.77-40.44,18.63-61.78
			c2.19-16.4,3.7-32.85,2.77-49.34c-0.95-16.82-2.64-33.62-4.35-50.4C1095.28,435.34,1093.67,428.8,1092.48,422.19z"/>
		<linearGradient id="SVGID_2_" gradientUnits="userSpaceOnUse" x1="817.6982" y1="538.6042" x2="1100.5842" y2="538.6042">
			<stop  offset="0" style="stop-color:#00B8B5"/>
			<stop  offset="0.5" style="stop-color:#B7E2E0"/>
			<stop  offset="1" style="stop-color:#00AEA8"/>
		</linearGradient>
		<path class="st1" d="M1092.48,422.19c1.19,6.61,2.8,13.16,3.47,19.77c1.71,16.78,3.41,33.58,4.35,50.4
			c0.93,16.48-0.58,32.94-2.77,49.34c-2.85,21.34-8.6,42.04-18.63,61.78c-11.56,22.74-28.2,42.06-52.43,56.18
			c-19.49,11.36-41.15,18.01-64.41,20.4c-6.41,0.66-13.29-1.21-19.82-2.44c-29.65-5.62-55.13-17.57-75.47-37.06
			c-17.26-16.54-28.38-35.95-35.95-56.96c-6.18-17.16-9.56-34.75-11.44-52.62c-1.85-17.59-2.12-35.18-1.13-52.79
			c1.03-18.34,3.26-36.6,7.29-54.66c0.17-0.76,1.53-1.88,2.36-1.89c44.55-0.87,86.77-10.65,128.01-24.26
			c1.62-0.53,3.93-0.42,5.58,0.14c30.53,10.29,61.85,18.14,94.39,22.03c11.11,1.33,22.37,1.71,33.56,2.52
			C1090.32,422.11,1091.19,422.13,1092.48,422.19z"/>
	</g>
	<linearGradient id="SVGID_3_" gradientUnits="userSpaceOnUse" x1="875.1156" y1="533.6129" x2="1081.2369" y2="533.6129">
		<stop  offset="0" style="stop-color:#FDEBF3"/>
		<stop  offset="0.1124" style="stop-color:#F7EAF3"/>
		<stop  offset="0.2303" style="stop-color:#FAF1F2"/>
		<stop  offset="0.3539" style="stop-color:#FFFEF0"/>
		<stop  offset="0.478" style="stop-color:#FBFBF0"/>
		<stop  offset="0.5952" style="stop-color:#F0F3F2"/>
		<stop  offset="0.7093" style="stop-color:#DDE5F4"/>
		<stop  offset="0.7135" style="stop-color:#DCE4F4"/>
		<stop  offset="1" style="stop-color:#FEE9DF"/>
	</linearGradient>
	<path class="st2" d="M957.48,572.69c-1.08-0.48-2.38-0.77-3.2-1.47c-7.9-6.83-15.82-13.64-23.52-20.62
		c-7.47-6.78-14.58-13.85-22.07-20.62c-3.95-3.57-6.22-3.36-9.57,0.49c-6.39,7.35-13.29,14.28-21.71,20.04
		c-0.73,0.5-1.21,2.14-0.81,2.84c1.88,3.27,3.68,6.67,6.29,9.5c6,6.52,14.04,11.07,22.14,15.46c3.98,2.16,8.5,2.51,13.07,1.82
		c8.54-1.29,17.05-2.7,25.58-4.06c4.27-0.68,8.55-1.37,12.82-2.05C956.82,573.56,957.15,573.13,957.48,572.69z M952.89,500.98
		c-2.08,0.38-5.09,0.47-6.5-0.53c-6.67-4.73-14.52-5.57-22.62-5.88c-9.23-0.36-17.16,2.09-23.13,8.33
		c-2.16,2.25-4.29,4.56-6.07,7.04c-4.79,6.65-9.57,13.31-13.97,20.15c-2.04,3.18-3.6,6.69-4.61,10.21
		c-0.86,3.02-0.63,6.28-0.88,9.43c0.4,0.08,0.79,0.16,1.19,0.24c2.13-1.61,4.46-3.06,6.35-4.86c5.43-5.18,10.73-10.46,15.98-15.78
		c3.37-3.41,5.63-3.67,9.82-1.01c1.05,0.66,2.52,1.29,3.74,1.22c8.84-0.51,17.43-2.07,25.57-5.12c6.16-2.3,11.86-5.28,15.01-10.56
		c2.98-5,5.38-10.25,8.23-15.78C957.93,499.22,955.51,500.5,952.89,500.98z M960.9,557.28c-0.57-1.01-1.11-2.05-1.6-3.09
		c-2.2-4.66-0.34-7.16,5.48-7.15c3.19,0,6.37,0.41,9.56,0.36c1.91-0.03,4.15-0.15,5.66-0.99c3.67-2.04,6.99-4.52,10.64-6.94
		c-6.56-5.45-11.98-11.84-21.6-13.07c-4.77-0.61-9.63-1.23-14.41-1.06c-5.79,0.2-11.55,1.15-17.29,1.91
		c-8.46,1.12-16.89,2.37-26.16,3.68c15.79,14.4,31.06,28.33,46.5,42.42C963.25,567.97,964.1,562.96,960.9,557.28z M997.62,489.98
		c-6.46-1.07-13.02-1.89-19.58-2.2c-2.4-0.11-5.3,1.12-7.31,2.46c-4.87,3.26-8.94,7.13-10.87,12.41c-1.01,2.76-2.81,5.3-3.99,8.03
		c-2.9,6.7-8.63,10.96-15.91,13.97c-0.78,0.32-1.53,0.7-2.3,1.06c27.54-3.4,49.02-16.18,69.46-32.47
		C1003.65,492.02,1000.75,490.5,997.62,489.98z M1032.66,529.91c-4.29-3.74-8.3-7.77-12.95-11.15c-4.16-3.02-9.37-4.53-14.98-4.39
		c-7.38,0.19-14.75,0.63-22.13,0.65c-4.3,0.01-8.11,0.69-11.92,2.53c-4.29,2.07-8.99,3.51-13.51,5.23c-1,0.38-1.98,0.8-2.97,1.21
		c15.8-1.02,27.97,4.38,37.06,14.92c3.33-2,5.89-3.84,8.76-5.18c2.44-1.14,5.21-2.34,7.89-2.44c8.09-0.32,16.2-0.11,24.3-0.11
		C1032.37,530.75,1032.52,530.33,1032.66,529.91z M1029.76,525.94c1.11,1.04,2.2,2.11,3.42,3.06c0.59,0.46,1.62,1.1,2.16,0.95
		c2.96-0.87,6.01-1.71,8.7-3.05c3.49-1.74,6.46-4.26,10.01-5.86c7.18-3.25,14.6-6.1,21.91-9.12c3.91-1.62,5.76-4.29,5.17-7.7
		c-0.79-4.63-3.6-8.37-7.14-11.77c-9.45,5.57-16.12,14.29-27.77,16.58c-10.98,2.16-22.12,3.72-33.28,5.55
		C1020.23,516.28,1024.82,521.3,1029.76,525.94z M1001.91,512.6c3.12-0.05,6.56,0.15,9.27-0.88c6.99-2.66,13.97-5.53,20.34-9.12
		c5.4-3.04,9.92-7.2,14.84-10.88c-6.74-1.53-12.95-3.03-19.22-4.32c-4.27-0.87-8.71-1.21-12.1,1.78c-2.63,2.33-5.36,4.34-8.47,6.27
		c-8.96,5.56-17.28,11.86-24.86,17.17C987.65,512.63,994.78,512.71,1001.91,512.6z M1068.12,490.71c-2.64,0.05-5.29,0.48-7.91,0.35
		c-8.59-0.41-15.44,1.93-21.36,7.58c-5.92,5.63-13.64,9.48-21.88,12.39c-1.42,0.5-2.83,1.03-4.24,1.54c3.87-0.01,7.59-0.3,11.3-0.67
		c15.27-1.55,30.06-4.07,41.07-14.53c2.23-2.12,5.06-3.77,8.42-6.24C1071.04,490.92,1069.58,490.68,1068.12,490.71z"/>
</g>
</svg>
