<?xml version="1.0" encoding="utf-8"?>
<!-- Generator: Adobe Illustrator 24.1.2, SVG Export Plug-In . SVG Version: 6.00 Build 0)  -->
<svg version="1.1" id="Layer_1" xmlns="http://www.w3.org/2000/svg" xmlns:xlink="http://www.w3.org/1999/xlink" x="0px" y="0px"
	 viewBox="800 360 320 340" style="enable-background:new 0 0 1920 1080;" xml:space="preserve">
<style type="text/css">
	.st0{fill:url(#SVGID_1_);}
	.st1{fill:url(#SVGID_2_);}
	.st2{fill:url(#SVGID_3_);stroke:#000000;stroke-miterlimit:10;}
</style>
<g>
	<g>
		<path d="M1110.54,406.52c1.72,9.96,3.66,19.76,5.07,29.63c2.68,18.8,4.07,37.69,4.1,56.64c0.06,35.12-3.89,69.76-17.19,103.25
			c-8.33,20.97-20.07,40.35-37.25,57.1c-23.83,23.24-54.09,36.69-89.04,43.63c-15.87,3.15-30.62,0.3-45.42-3.27
			c-50.6-12.21-84.93-40.23-106.1-80.74c-11.28-21.58-18.16-44.26-21.17-67.66c-2.17-16.92-3.82-33.99-3.82-50.99
			c0-17.85,1.87-35.72,3.64-53.54c1.07-10.85,3.52-21.6,5.26-32.41c0.26-1.6,0.86-2.24,2.87-2.25c37.04-0.14,72.8-6.72,107.93-16.13
			c12.69-3.4,25.07-7.63,37.64-11.39c1.19-0.36,2.81-0.37,3.97,0.02c31.23,10.75,63.33,18.95,96.51,23.92
			c16.4,2.46,32.93,4,49.61,4.17C1108.1,406.52,1109.08,406.52,1110.54,406.52z M1109.06,407.74c-1.61,0-2.82,0.08-4.01-0.01
			c-13.71-1.02-27.51-1.5-41.1-3.21c-35.13-4.42-68.97-13.06-101.89-24.35c-2.08-0.71-3.82-0.77-5.93-0.05
			c-24.37,8.37-49.33,15.12-75,19.89c-22.42,4.16-44.99,7.4-68.06,7.19c-1.83-0.02-2.76,0.59-3.16,2.43
			c-4.08,18.92-6.54,38.01-7.75,57.2c-1.69,26.95-1.31,53.86,3.19,80.66c3.88,23.12,10.43,45.6,21.93,66.88
			c21.21,39.26,55.12,66.22,104.41,77.95c14.06,3.34,28.09,6.22,43.17,3.31c33.58-6.48,62.99-18.99,86.52-40.81
			c17.14-15.89,29.16-34.4,37.74-54.61c15.53-36.58,19.54-74.59,18.93-113.14c-0.31-19.33-2.01-38.58-5.08-57.73
			C1111.83,422.18,1110.39,415.06,1109.06,407.74z"/>
		<linearGradient id="SVGID_1_" gradientUnits="userSpaceOnUse" x1="801.2322" y1="538.2042" x2="1118.1094" y2="538.2042">
			<stop  offset="0.0337" style="stop-color:#9B9B98"/>
			<stop  offset="0.1338" style="stop-color:#A4A5A7"/>
			<stop  offset="0.2191" style="stop-color:#AEB0B7"/>
			<stop  offset="0.3518" style="stop-color:#9FA3AA"/>
			<stop  offset="0.6054" style="stop-color:#788187"/>
			<stop  offset="0.7191" style="stop-color:#657076"/>
			<stop  offset="1" style="stop-color:#8B949A"/>
		</linearGradient>
		<path class="st0" d="M1109.06,407.74c1.34,7.33,2.77,14.44,3.91,21.59c3.07,19.15,4.77,38.4,5.08,57.73
			c0.61,38.56-3.39,76.56-18.93,113.14c-8.58,20.2-20.6,38.71-37.74,54.61c-23.53,21.82-52.94,34.33-86.52,40.81
			c-15.08,2.91-29.11,0.03-43.17-3.31c-49.29-11.72-83.2-38.69-104.41-77.95c-11.5-21.28-18.05-43.76-21.93-66.88
			c-4.5-26.79-4.88-53.71-3.19-80.66c1.21-19.19,3.67-38.28,7.75-57.2c0.4-1.84,1.33-2.45,3.16-2.43
			c23.06,0.21,45.64-3.03,68.06-7.19c25.67-4.77,50.64-11.52,75-19.89c2.11-0.72,3.85-0.66,5.93,0.05
			c32.92,11.29,66.76,19.93,101.89,24.35c13.59,1.71,27.39,2.19,41.1,3.21C1106.24,407.81,1107.45,407.74,1109.06,407.74z
			 M1093.63,420.27c-10.67-0.7-20.8-1.02-30.82-2.07c-35.05-3.69-68.75-11.84-101.47-23.07c-2.08-0.72-3.72-0.8-5.85-0.09
			c-41.47,13.89-84.03,23.64-128.9,24.38c-1.81,0.03-2.43,0.55-2.75,2.05c-3.76,17.52-6.04,35.18-7.2,52.95
			c-1.37,21.1-0.84,42.15,1.8,63.19c2.79,22.23,8.4,43.82,18.74,64.4c18.86,37.55,50.12,63.5,96.91,74.46
			c11.6,2.72,23.2,5.48,35.7,3.3c28.04-4.9,53.2-14.48,74.17-31.41c19.93-16.09,32.97-35.85,41.93-57.75
			c12.39-30.26,16.2-61.67,15.75-93.44c-0.26-18.04-2.26-36.08-3.96-54.08C1096.97,435.43,1095.02,427.87,1093.63,420.27z"/>
		<path d="M1093.63,420.27c1.39,7.6,3.34,15.16,4.06,22.81c1.7,18.01,3.7,36.04,3.96,54.08c0.45,31.77-3.37,63.18-15.75,93.44
			c-8.96,21.9-22,41.66-41.93,57.75c-20.98,16.94-46.13,26.51-74.17,31.41c-12.5,2.18-24.1-0.58-35.7-3.3
			c-46.78-10.96-78.05-36.91-96.91-74.46c-10.33-20.57-15.95-42.17-18.74-64.4c-2.64-21.04-3.18-42.09-1.8-63.19
			c1.15-17.77,3.44-35.43,7.2-52.95c0.32-1.5,0.95-2.02,2.75-2.05c44.87-0.75,87.43-10.5,128.9-24.38c2.13-0.71,3.76-0.62,5.85,0.09
			c32.72,11.23,66.42,19.38,101.47,23.07C1072.83,419.25,1082.96,419.57,1093.63,420.27z M1092.24,421.35
			c-1.29-0.06-2.16-0.07-3.02-0.14c-11.19-0.81-22.46-1.19-33.56-2.52c-32.54-3.89-63.87-11.74-94.39-22.03
			c-1.65-0.56-3.96-0.67-5.58-0.14c-41.25,13.61-83.46,23.39-128.01,24.26c-0.83,0.02-2.19,1.14-2.36,1.89
			c-4.03,18.06-6.26,36.32-7.29,54.66c-0.99,17.6-0.71,35.2,1.13,52.79c1.87,17.87,5.25,35.46,11.44,52.62
			c7.57,21.01,18.69,40.42,35.95,56.96c20.34,19.49,45.82,31.44,75.47,37.06c6.53,1.24,13.41,3.1,19.82,2.44
			c23.25-2.38,44.92-9.04,64.41-20.4c24.23-14.12,40.87-33.44,52.43-56.18c10.03-19.74,15.77-40.44,18.63-61.78
			c2.19-16.4,3.7-32.85,2.77-49.34c-0.95-16.82-2.64-33.62-4.35-50.4C1095.04,434.51,1093.43,427.96,1092.24,421.35z"/>
		
			<radialGradient id="SVGID_2_" cx="958.4927" cy="537.4983" r="232.8353" gradientTransform="matrix(0.6616 0 0 0.5654 324.7749 233.8976)" gradientUnits="userSpaceOnUse">
			<stop  offset="5.618000e-03" style="stop-color:#AEB0B7"/>
			<stop  offset="0.3156" style="stop-color:#AAAAA8"/>
			<stop  offset="0.3539" style="stop-color:#A9A9A6"/>
			<stop  offset="0.5001" style="stop-color:#9A9E9E"/>
			<stop  offset="0.6742" style="stop-color:#838C92"/>
			<stop  offset="1" style="stop-color:#657076"/>
		</radialGradient>
		<path class="st1" d="M1092.24,421.35c1.19,6.61,2.8,13.16,3.47,19.77c1.71,16.78,3.41,33.58,4.35,50.4
			c0.93,16.48-0.58,32.94-2.77,49.34c-2.85,21.34-8.6,42.04-18.63,61.78c-11.56,22.74-28.2,42.06-52.43,56.18
			c-19.49,11.36-41.15,18.01-64.41,20.4c-6.41,0.66-13.29-1.21-19.82-2.44c-29.65-5.62-55.13-17.57-75.47-37.06
			c-17.26-16.54-28.38-35.95-35.95-56.96c-6.18-17.16-9.56-34.75-11.44-52.62c-1.85-17.59-2.12-35.18-1.13-52.79
			c1.03-18.34,3.26-36.6,7.29-54.66c0.17-0.76,1.53-1.88,2.36-1.89c44.55-0.87,86.77-10.65,128.01-24.26
			c1.62-0.53,3.93-0.42,5.58,0.14c30.53,10.29,61.85,18.14,94.39,22.03c11.11,1.33,22.37,1.71,33.56,2.52
			C1090.08,421.28,1090.95,421.3,1092.24,421.35z"/>
	</g>
	<linearGradient id="SVGID_3_" gradientUnits="userSpaceOnUse" x1="917.3193" y1="575.8996" x2="1003.5019" y2="489.7171">
		<stop  offset="0" style="stop-color:#FDEBF3"/>
		<stop  offset="0.1124" style="stop-color:#F7EAF3"/>
		<stop  offset="0.2303" style="stop-color:#FAF1F2"/>
		<stop  offset="0.3539" style="stop-color:#FFFEF0"/>
		<stop  offset="0.478" style="stop-color:#FBFBF0"/>
		<stop  offset="0.5952" style="stop-color:#F0F3F2"/>
		<stop  offset="0.7093" style="stop-color:#DDE5F4"/>
		<stop  offset="0.7135" style="stop-color:#DCE4F4"/>
		<stop  offset="1" style="stop-color:#FEE9DF"/>
	</linearGradient>
	<path class="st2" d="M948.34,460.24c4.84-0.62,9.27-1.19,13.91-1.79c0,4.62-0.26,9.12,0.08,13.59c0.27,3.54,0.87,7.14,2.07,10.52
		c2.43,6.83,7.45,9.13,15.63,7.92c4.33-0.64,8.69-1.29,13.06-1.53c7.68-0.42,13.85,2.41,16.98,8.29c2.97,5.59,5.36,11.56,6.71,17.57
		c1.71,7.64,2.12,15.5,3.08,23.26c0.05,0.44,0.01,0.89,0.01,1.66c-5.49-3.77-10.59-7.43-15.88-10.88
		c-11.14-7.28-22.93-13.66-35.77-18.56c-1.85-0.71-2.68-1.55-2.62-3.35c0.13-3.84-1.49-7.32-4.53-10.04
		C949.56,486.6,948.96,473.63,948.34,460.24z M894.11,541.87c1.66-2.19,4.44-3.74,7.18-2.65c3.8,1.51,7.4,3.68,10.48,6.12
		c1.38,1.09,1.37,3.52,1.85,5.37c0.28,1.1,0.25,2.25,0.42,3.37c1.35,9.05,5.39,16.97,13.09,23.47c2.29,1.93,4.2,2.07,6.27,0.07
		c2.25-2.17,4.85-4.19,6.49-6.67c7-10.57,5.47-21.67,2.41-32.97c-11.11,0.25-20.87-3-30.56-6.73c-5.85-2.25-12.16-3.33-18.67-2.77
		c-3.78,0.32-5.74,1.78-6,4.62c-0.49,5.21,0.63,10.22,2.78,15.31C891.34,546.08,892.58,543.9,894.11,541.87z M963.43,525.27
		c-2.56,2.65-4.85,5.02-7.16,7.42c12.47,16.56,16.61,34.84,15.8,54.38c12.63-2.01,23.37-6.55,32.69-14.16
		C995.46,553.96,981.83,538.13,963.43,525.27z M964.93,520.99c-0.64,2.38,0.43,3.5,2.33,4.87c11.71,8.44,21.63,18.22,29.32,29.56
		c3.49,5.14,6.61,10.46,9.98,15.84c8.25-7.77,12.63-16.89,13.23-27.3c0.06-0.98-0.91-2.26-1.84-3
		c-10.37-8.2-21.68-15.37-33.81-21.56c-5.72-2.92-11.72-5.45-18.07-8.38C965.68,514.86,965.73,518.01,964.93,520.99z M935.79,582.8
		c9.38,4.45,19.54,5.39,30.05,5.08c3.27-0.1,4.32-1.15,4.35-3.86c0.12-12.25-1.56-24.25-6.9-35.67c-2.38-5.08-5.49-9.91-8.19-14.72
		c-4.04,1.61-7.29,2.9-10.64,4.23c3.76,15.91,4.98,31.36-12.36,43.02C933.36,581.54,934.55,582.21,935.79,582.8z"/>
</g>
</svg>
