<?xml version="1.0" encoding="utf-8"?>
<!-- Generator: Adobe Illustrator 24.1.2, SVG Export Plug-In . SVG Version: 6.00 Build 0)  -->
<svg version="1.1" id="Layer_1" xmlns="http://www.w3.org/2000/svg" xmlns:xlink="http://www.w3.org/1999/xlink" x="0px" y="0px"
	 viewBox="800 360 320 340" style="enable-background:new 0 0 1920 1080;" xml:space="preserve">
<style type="text/css">
	.st0{fill:url(#SVGID_1_);stroke:#000000;stroke-miterlimit:10;}
	.st1{fill:url(#SVGID_2_);}
	.st2{fill:url(#SVGID_3_);}
	.st3{fill:url(#SVGID_4_);}
	.st4{fill:url(#SVGID_5_);}
	.st5{fill:url(#SVGID_6_);}
	.st6{fill:url(#SVGID_7_);}
</style>
<g>
	
		<radialGradient id="SVGID_1_" cx="959.75" cy="539.625" r="140.5" gradientTransform="matrix(1.1388 0 0 1.1388 -133.2037 -74.8946)" gradientUnits="userSpaceOnUse">
		<stop  offset="0" style="stop-color:#FFFFFF"/>
		<stop  offset="0.2264" style="stop-color:#D9EDF8"/>
		<stop  offset="0.7285" style="stop-color:#7BBFE6"/>
		<stop  offset="1" style="stop-color:#45A5DC"/>
	</radialGradient>
	<circle class="st0" cx="959.75" cy="539.63" r="160"/>
	<g>
		<path d="M958.28,403.89c10.62,18.07,20.75,35.12,30.68,52.28c14.22,24.57,27.68,49.61,42.73,73.66
			c7.17,11.46,7.71,20.51,0.67,32.26c-22.06,36.82-43,74.31-64.55,111.43c-2.7,4.65-6.46,8.67-10.78,14.37
			c-4.01-4.39-7.77-7.32-10-11.15c-22.65-38.89-45.41-77.73-67.13-117.14c-3.4-6.16-5.03-16.85-1.98-22.44
			c23.22-42.53,47.78-84.32,72.08-126.26C951.26,408.72,954.02,407.42,958.28,403.89z M921.05,551.55
			c11.87,40.01,22.63,76.29,33.4,112.56c1.34-0.03,2.69-0.05,4.03-0.08c10.69-36.81,21.37-73.61,32.65-112.48
			C966.64,551.55,945.58,551.55,921.05,551.55z M921.59,540.01c24.69,0,45.59,0,69.48,0c-11.45-38.51-22.13-74.39-32.8-110.27
			c-1.45,0.07-2.9,0.14-4.35,0.21C943.48,465.5,933.03,501.05,921.59,540.01z M884.66,553.12c16.85,29.05,32.57,56.14,48.28,83.23
			c-2.29-23.98-9.36-45.6-14.79-67.62C913.83,551.23,904.15,546.48,884.66,553.12z M976.08,633.11c1.36,0.87,2.71,1.73,4.07,2.6
			c15.78-27.38,31.55-54.77,48.26-83.76c-27.59-2.36-27.72-2.4-33.77,17.77C988.3,590.81,982.25,611.98,976.08,633.11z
			 M885.92,537.3c1.65,2.28,3.29,4.55,4.94,6.83c8.17-4.31,21.07-6.73,23.68-13.26c9.63-24.11,15.85-49.57,23.35-74.53
			c-1.3-0.55-2.6-1.11-3.9-1.66C917.97,482.22,901.95,509.76,885.92,537.3z M1027.31,538.62c-16.07-27.66-31.52-54.26-46.97-80.85
			c1.77,23.17,8.75,44.07,13.99,65.4C998.68,540.9,1008.38,545.12,1027.31,538.62z"/>
		
			<radialGradient id="SVGID_2_" cx="956.5339" cy="599.5165" r="41.1658" gradientTransform="matrix(1.1388 0 0 1.1388 -133.2037 -74.8946)" gradientUnits="userSpaceOnUse">
			<stop  offset="5.618000e-03" style="stop-color:#FFFEEE"/>
			<stop  offset="0.2849" style="stop-color:#F3F4E9"/>
			<stop  offset="0.7472" style="stop-color:#D7DADE"/>
			<stop  offset="0.8764" style="stop-color:#DCD8D4"/>
		</radialGradient>
		<path class="st1" d="M921.05,551.55c24.53,0,45.59,0,70.08,0c-11.28,38.86-21.97,75.67-32.65,112.48
			c-1.34,0.03-2.69,0.05-4.03,0.08C943.68,627.84,932.92,591.56,921.05,551.55z"/>
		
			<radialGradient id="SVGID_3_" cx="956.7444" cy="491.549" r="40.4651" gradientTransform="matrix(1.1388 0 0 1.1388 -133.2037 -74.8946)" gradientUnits="userSpaceOnUse">
			<stop  offset="5.618000e-03" style="stop-color:#FFFEEE"/>
			<stop  offset="0.2849" style="stop-color:#F3F4E9"/>
			<stop  offset="0.7472" style="stop-color:#D7DADE"/>
			<stop  offset="0.8764" style="stop-color:#DCD8D4"/>
		</radialGradient>
		<path class="st2" d="M921.59,540.01c11.45-38.96,21.89-74.51,32.34-110.06c1.45-0.07,2.9-0.14,4.35-0.21
			c10.67,35.88,21.34,71.76,32.8,110.27C967.18,540.01,946.27,540.01,921.59,540.01z"/>
		
			<radialGradient id="SVGID_4_" cx="915.0135" cy="586.7582" r="30.6475" gradientTransform="matrix(1.1388 0 0 1.1388 -133.2037 -74.8946)" gradientUnits="userSpaceOnUse">
			<stop  offset="5.618000e-03" style="stop-color:#FFFEEE"/>
			<stop  offset="0.2849" style="stop-color:#F3F4E9"/>
			<stop  offset="0.7472" style="stop-color:#D7DADE"/>
			<stop  offset="0.8764" style="stop-color:#DCD8D4"/>
		</radialGradient>
		<path class="st3" d="M884.66,553.12c19.49-6.63,29.17-1.89,33.49,15.61c5.44,22.02,12.5,43.64,14.79,67.62
			C917.23,609.26,901.52,582.17,884.66,553.12z"/>
		
			<radialGradient id="SVGID_5_" cx="997.0601" cy="586.7623" r="30.9388" gradientTransform="matrix(1.1388 0 0 1.1388 -133.2037 -74.8946)" gradientUnits="userSpaceOnUse">
			<stop  offset="5.618000e-03" style="stop-color:#FFFEEE"/>
			<stop  offset="0.2849" style="stop-color:#F3F4E9"/>
			<stop  offset="0.7472" style="stop-color:#D7DADE"/>
			<stop  offset="0.8764" style="stop-color:#DCD8D4"/>
		</radialGradient>
		<path class="st4" d="M976.08,633.11c6.17-21.13,12.23-42.3,18.56-63.39c6.05-20.17,6.18-20.13,33.77-17.77
			c-16.7,28.99-32.48,56.37-48.26,83.76C978.79,634.84,977.43,633.98,976.08,633.11z"/>
		
			<radialGradient id="SVGID_6_" cx="917.739" cy="504.3068" r="32.1178" gradientTransform="matrix(1.1388 0 0 1.1388 -133.2037 -74.8946)" gradientUnits="userSpaceOnUse">
			<stop  offset="5.618000e-03" style="stop-color:#FFFEEE"/>
			<stop  offset="0.2849" style="stop-color:#F3F4E9"/>
			<stop  offset="0.7472" style="stop-color:#D7DADE"/>
			<stop  offset="0.8764" style="stop-color:#DCD8D4"/>
		</radialGradient>
		<path class="st5" d="M885.92,537.3c16.03-27.54,32.05-55.08,48.08-82.62c1.3,0.55,2.6,1.11,3.9,1.66
			c-7.5,24.96-13.73,50.42-23.35,74.53c-2.61,6.53-15.51,8.95-23.68,13.26C889.22,541.85,887.57,539.58,885.92,537.3z"/>
		
			<radialGradient id="SVGID_7_" cx="998.459" cy="504.5125" r="29.8062" gradientTransform="matrix(1.1388 0 0 1.1388 -133.2037 -74.8946)" gradientUnits="userSpaceOnUse">
			<stop  offset="5.618000e-03" style="stop-color:#FFFEEE"/>
			<stop  offset="0.2849" style="stop-color:#F3F4E9"/>
			<stop  offset="0.7472" style="stop-color:#D7DADE"/>
			<stop  offset="0.8764" style="stop-color:#DCD8D4"/>
		</radialGradient>
		<path class="st6" d="M1027.31,538.62c-18.93,6.5-28.63,2.27-32.98-15.45c-5.23-21.33-12.22-42.23-13.99-65.4
			C995.8,484.37,1011.24,510.96,1027.31,538.62z"/>
	</g>
</g>
</svg>
