<?xml version="1.0" encoding="utf-8"?>
<!-- Generator: Adobe Illustrator 24.1.2, SVG Export Plug-In . SVG Version: 6.00 Build 0)  -->
<svg version="1.1" id="Layer_1" xmlns="http://www.w3.org/2000/svg" xmlns:xlink="http://www.w3.org/1999/xlink" x="0px" y="0px"
	 viewBox="800 360 320 340" style="enable-background:new 0 0 1920 1080;" xml:space="preserve">
<style type="text/css">
	.st0{fill:url(#SVGID_1_);stroke:#000000;stroke-miterlimit:10;}
	.st1{fill:url(#SVGID_2_);}
	.st2{fill:url(#SVGID_3_);}
	.st3{fill:url(#SVGID_4_);}
	.st4{fill:url(#SVGID_5_);}
	.st5{fill:url(#SVGID_6_);}
	.st6{fill:url(#SVGID_7_);}
</style>
<g>
	
		<radialGradient id="SVGID_1_" cx="959.75" cy="539.625" r="140.5" gradientTransform="matrix(1.1388 0 0 1.1388 -133.2037 -74.8946)" gradientUnits="userSpaceOnUse">
		<stop  offset="0" style="stop-color:#A1DDDB"/>
		<stop  offset="0.4344" style="stop-color:#7BC6DB"/>
		<stop  offset="1" style="stop-color:#45A5DC"/>
	</radialGradient>
	<circle class="st0" cx="959.75" cy="539.63" r="160"/>
	<g>
		<path d="M961.72,400.4c10.62,18.07,20.75,35.12,30.68,52.28c14.22,24.57,27.68,49.61,42.73,73.66
			c7.17,11.46,7.71,20.51,0.67,32.26c-22.06,36.82-43,74.31-64.55,111.43c-2.7,4.65-6.46,8.67-10.78,14.37
			c-4.01-4.39-7.77-7.32-10-11.15c-22.65-38.89-45.41-77.73-67.13-117.14c-3.4-6.16-5.03-16.85-1.98-22.44
			c23.22-42.53,47.78-84.32,72.08-126.26C954.7,405.24,957.47,403.93,961.72,400.4z M924.49,548.06
			c11.87,40.01,22.63,76.29,33.4,112.56c1.34-0.03,2.69-0.05,4.03-0.08c10.69-36.81,21.37-73.61,32.65-112.48
			C970.08,548.06,949.02,548.06,924.49,548.06z M925.03,536.53c24.69,0,45.59,0,69.48,0c-11.45-38.51-22.13-74.39-32.8-110.27
			c-1.45,0.07-2.9,0.14-4.35,0.21C946.92,462.02,936.48,497.57,925.03,536.53z M888.11,549.63c16.85,29.05,32.57,56.14,48.28,83.23
			c-2.29-23.98-9.36-45.6-14.79-67.62C917.28,547.74,907.6,543,888.11,549.63z M979.52,629.63c1.36,0.87,2.71,1.73,4.07,2.6
			c15.78-27.38,31.55-54.77,48.26-83.76c-27.59-2.36-27.72-2.4-33.77,17.77C991.75,587.33,985.69,608.5,979.52,629.63z
			 M889.37,533.82c1.65,2.28,3.29,4.55,4.94,6.83c8.17-4.31,21.07-6.73,23.68-13.26c9.63-24.11,15.85-49.57,23.35-74.53
			c-1.3-0.55-2.6-1.11-3.9-1.66C921.42,478.74,905.39,506.28,889.37,533.82z M1030.76,535.14c-16.07-27.66-31.52-54.26-46.97-80.85
			c1.77,23.17,8.75,44.07,13.99,65.4C1002.13,537.41,1011.83,541.64,1030.76,535.14z"/>
		<linearGradient id="SVGID_2_" gradientUnits="userSpaceOnUse" x1="924.4911" y1="604.3438" x2="994.5742" y2="604.3438">
			<stop  offset="0" style="stop-color:#00B8B5"/>
			<stop  offset="0.5" style="stop-color:#B7E2E0"/>
			<stop  offset="1" style="stop-color:#00AEA8"/>
		</linearGradient>
		<path class="st1" d="M924.49,548.06c24.53,0,45.59,0,70.08,0c-11.28,38.86-21.97,75.67-32.65,112.48
			c-1.34,0.03-2.69,0.05-4.03,0.08C947.13,624.35,936.36,588.08,924.49,548.06z"/>
		<linearGradient id="SVGID_3_" gradientUnits="userSpaceOnUse" x1="925.0313" y1="481.3914" x2="994.5134" y2="481.3914">
			<stop  offset="0" style="stop-color:#00B8B5"/>
			<stop  offset="0.5" style="stop-color:#B7E2E0"/>
			<stop  offset="1" style="stop-color:#00AEA8"/>
		</linearGradient>
		<path class="st2" d="M925.03,536.53c11.45-38.96,21.89-74.51,32.34-110.06c1.45-0.07,2.9-0.14,4.35-0.21
			c10.67,35.88,21.34,71.76,32.8,110.27C970.62,536.53,949.72,536.53,925.03,536.53z"/>
		<linearGradient id="SVGID_4_" gradientUnits="userSpaceOnUse" x1="888.1078" y1="589.8148" x2="936.3915" y2="589.8148">
			<stop  offset="0" style="stop-color:#00B8B5"/>
			<stop  offset="0.5" style="stop-color:#B7E2E0"/>
			<stop  offset="1" style="stop-color:#00AEA8"/>
		</linearGradient>
		<path class="st3" d="M888.11,549.63c19.49-6.63,29.17-1.89,33.49,15.61c5.44,22.02,12.5,43.64,14.79,67.62
			C920.68,605.77,904.96,578.68,888.11,549.63z"/>
		<linearGradient id="SVGID_5_" gradientUnits="userSpaceOnUse" x1="979.5209" y1="589.8194" x2="1031.8459" y2="589.8194">
			<stop  offset="0" style="stop-color:#00B8B5"/>
			<stop  offset="0.5" style="stop-color:#B7E2E0"/>
			<stop  offset="1" style="stop-color:#00AEA8"/>
		</linearGradient>
		<path class="st4" d="M979.52,629.63c6.17-21.13,12.23-42.3,18.55-63.39c6.05-20.17,6.18-20.13,33.77-17.77
			c-16.7,28.99-32.48,56.37-48.26,83.76C982.23,631.36,980.88,630.49,979.52,629.63z"/>
		<linearGradient id="SVGID_6_" gradientUnits="userSpaceOnUse" x1="889.3679" y1="495.9199" x2="941.3388" y2="495.9199">
			<stop  offset="0" style="stop-color:#00B8B5"/>
			<stop  offset="0.5" style="stop-color:#B7E2E0"/>
			<stop  offset="1" style="stop-color:#00AEA8"/>
		</linearGradient>
		<path class="st5" d="M889.37,533.82c16.03-27.54,32.05-55.08,48.08-82.62c1.3,0.55,2.6,1.11,3.9,1.66
			c-7.5,24.96-13.73,50.42-23.35,74.53c-2.61,6.53-15.51,8.95-23.68,13.26C892.66,538.37,891.01,536.09,889.37,533.82z"/>
		<linearGradient id="SVGID_7_" gradientUnits="userSpaceOnUse" x1="983.793" y1="496.1542" x2="1030.76" y2="496.1542">
			<stop  offset="0" style="stop-color:#00B8B5"/>
			<stop  offset="0.5" style="stop-color:#B7E2E0"/>
			<stop  offset="1" style="stop-color:#00AEA8"/>
		</linearGradient>
		<path class="st6" d="M1030.76,535.14c-18.93,6.5-28.63,2.27-32.98-15.45c-5.23-21.33-12.22-42.23-13.99-65.4
			C999.24,480.88,1014.69,507.48,1030.76,535.14z"/>
	</g>
</g>
</svg>
