<?xml version="1.0" encoding="utf-8"?>
<!-- Generator: Adobe Illustrator 24.1.2, SVG Export Plug-In . SVG Version: 6.00 Build 0)  -->
<svg version="1.1" id="Layer_1" xmlns="http://www.w3.org/2000/svg" xmlns:xlink="http://www.w3.org/1999/xlink" x="0px" y="0px"
	 viewBox="800 360 320 340" style="enable-background:new 0 0 1920 1080;" xml:space="preserve">
<style type="text/css">
	.st0{fill:url(#SVGID_1_);stroke:#000000;stroke-miterlimit:10;}
	.st1{fill:url(#SVGID_2_);}
	.st2{fill:url(#SVGID_3_);}
	.st3{fill:url(#SVGID_4_);}
	.st4{fill:url(#SVGID_5_);}
	.st5{fill:url(#SVGID_6_);}
	.st6{fill:url(#SVGID_7_);}
</style>
<g>
	
		<radialGradient id="SVGID_1_" cx="959.75" cy="539.625" r="140.5" gradientTransform="matrix(1.1388 0 0 1.1388 -133.2037 -74.8946)" gradientUnits="userSpaceOnUse">
		<stop  offset="0" style="stop-color:#F0D282"/>
		<stop  offset="0.2447" style="stop-color:#CAC896"/>
		<stop  offset="0.7877" style="stop-color:#6CAFC8"/>
		<stop  offset="1" style="stop-color:#45A5DC"/>
	</radialGradient>
	<circle class="st0" cx="959.75" cy="539.63" r="160"/>
	<g>
		<path d="M951.45,399.33c10.62,18.07,20.75,35.12,30.68,52.28c14.22,24.57,27.68,49.61,42.73,73.66
			c7.17,11.46,7.71,20.51,0.67,32.26c-22.06,36.82-43,74.31-64.55,111.43c-2.7,4.65-6.46,8.67-10.78,14.37
			c-4.01-4.39-7.77-7.32-10-11.15c-22.65-38.89-45.41-77.73-67.13-117.14c-3.4-6.16-5.03-16.85-1.98-22.44
			c23.22-42.53,47.78-84.32,72.08-126.26C944.43,404.17,947.19,402.86,951.45,399.33z M914.21,546.99
			c11.87,40.01,22.63,76.29,33.4,112.56c1.34-0.03,2.69-0.05,4.03-0.08c10.69-36.81,21.37-73.61,32.65-112.48
			C959.8,546.99,938.74,546.99,914.21,546.99z M914.75,535.46c24.69,0,45.59,0,69.48,0c-11.45-38.51-22.13-74.39-32.8-110.27
			c-1.45,0.07-2.9,0.14-4.35,0.21C936.65,460.95,926.2,496.5,914.75,535.46z M877.83,548.56c16.85,29.05,32.57,56.14,48.28,83.23
			c-2.29-23.98-9.36-45.6-14.79-67.62C907,546.67,897.32,541.93,877.83,548.56z M969.24,628.56c1.36,0.87,2.71,1.73,4.07,2.6
			c15.78-27.38,31.55-54.77,48.26-83.76c-27.59-2.36-27.72-2.4-33.77,17.77C981.47,586.26,975.42,607.43,969.24,628.56z
			 M879.09,532.75c1.65,2.28,3.29,4.55,4.94,6.83c8.17-4.31,21.07-6.73,23.68-13.26c9.63-24.11,15.85-49.57,23.35-74.53
			c-1.3-0.55-2.6-1.11-3.9-1.66C911.14,477.67,895.12,505.21,879.09,532.75z M1020.48,534.07c-16.07-27.66-31.52-54.26-46.97-80.85
			c1.77,23.17,8.75,44.07,13.99,65.4C991.85,536.34,1001.55,540.57,1020.48,534.07z"/>
		<linearGradient id="SVGID_2_" gradientUnits="userSpaceOnUse" x1="914.2133" y1="603.2736" x2="984.2964" y2="603.2736">
			<stop  offset="0" style="stop-color:#E5A31E"/>
			<stop  offset="0.095" style="stop-color:#E5A522"/>
			<stop  offset="0.1845" style="stop-color:#E7AA2D"/>
			<stop  offset="0.2719" style="stop-color:#E9B340"/>
			<stop  offset="0.358" style="stop-color:#ECC05B"/>
			<stop  offset="0.4423" style="stop-color:#F0D07D"/>
			<stop  offset="0.5" style="stop-color:#F3DD99"/>
			<stop  offset="0.5668" style="stop-color:#F2D78D"/>
			<stop  offset="0.689" style="stop-color:#F0C66B"/>
			<stop  offset="0.8515" style="stop-color:#EDAB36"/>
			<stop  offset="1" style="stop-color:#E98F00"/>
		</linearGradient>
		<path class="st1" d="M914.21,546.99c24.53,0,45.59,0,70.08,0c-11.28,38.86-21.97,75.67-32.65,112.48
			c-1.34,0.03-2.69,0.05-4.03,0.08C936.85,623.28,926.09,587.01,914.21,546.99z"/>
		<linearGradient id="SVGID_3_" gradientUnits="userSpaceOnUse" x1="914.7535" y1="480.3214" x2="984.2355" y2="480.3214">
			<stop  offset="0" style="stop-color:#E5A31E"/>
			<stop  offset="0.095" style="stop-color:#E5A522"/>
			<stop  offset="0.1845" style="stop-color:#E7AA2D"/>
			<stop  offset="0.2719" style="stop-color:#E9B340"/>
			<stop  offset="0.358" style="stop-color:#ECC05B"/>
			<stop  offset="0.4423" style="stop-color:#F0D07D"/>
			<stop  offset="0.5" style="stop-color:#F3DD99"/>
			<stop  offset="0.5668" style="stop-color:#F2D78D"/>
			<stop  offset="0.689" style="stop-color:#F0C66B"/>
			<stop  offset="0.8515" style="stop-color:#EDAB36"/>
			<stop  offset="1" style="stop-color:#E98F00"/>
		</linearGradient>
		<path class="st2" d="M914.75,535.46c11.45-38.96,21.89-74.51,32.34-110.06c1.45-0.07,2.9-0.14,4.35-0.21
			c10.67,35.88,21.34,71.76,32.8,110.27C960.34,535.46,939.44,535.46,914.75,535.46z"/>
		<linearGradient id="SVGID_4_" gradientUnits="userSpaceOnUse" x1="877.83" y1="588.7447" x2="926.1137" y2="588.7447">
			<stop  offset="0" style="stop-color:#E5A31E"/>
			<stop  offset="0.095" style="stop-color:#E5A522"/>
			<stop  offset="0.1845" style="stop-color:#E7AA2D"/>
			<stop  offset="0.2719" style="stop-color:#E9B340"/>
			<stop  offset="0.358" style="stop-color:#ECC05B"/>
			<stop  offset="0.4423" style="stop-color:#F0D07D"/>
			<stop  offset="0.5" style="stop-color:#F3DD99"/>
			<stop  offset="0.5668" style="stop-color:#F2D78D"/>
			<stop  offset="0.689" style="stop-color:#F0C66B"/>
			<stop  offset="0.8515" style="stop-color:#EDAB36"/>
			<stop  offset="1" style="stop-color:#E98F00"/>
		</linearGradient>
		<path class="st3" d="M877.83,548.56c19.49-6.63,29.17-1.89,33.49,15.61c5.44,22.02,12.5,43.64,14.79,67.62
			C910.4,604.7,894.68,577.61,877.83,548.56z"/>
		<linearGradient id="SVGID_5_" gradientUnits="userSpaceOnUse" x1="969.2431" y1="588.7493" x2="1021.5681" y2="588.7493">
			<stop  offset="0" style="stop-color:#E5A31E"/>
			<stop  offset="0.095" style="stop-color:#E5A522"/>
			<stop  offset="0.1845" style="stop-color:#E7AA2D"/>
			<stop  offset="0.2719" style="stop-color:#E9B340"/>
			<stop  offset="0.358" style="stop-color:#ECC05B"/>
			<stop  offset="0.4423" style="stop-color:#F0D07D"/>
			<stop  offset="0.5" style="stop-color:#F3DD99"/>
			<stop  offset="0.5668" style="stop-color:#F2D78D"/>
			<stop  offset="0.689" style="stop-color:#F0C66B"/>
			<stop  offset="0.8515" style="stop-color:#EDAB36"/>
			<stop  offset="1" style="stop-color:#E98F00"/>
		</linearGradient>
		<path class="st4" d="M969.24,628.56c6.17-21.13,12.23-42.3,18.55-63.39c6.05-20.17,6.18-20.13,33.77-17.77
			c-16.7,28.99-32.48,56.37-48.26,83.76C971.96,630.29,970.6,629.42,969.24,628.56z"/>
		<linearGradient id="SVGID_6_" gradientUnits="userSpaceOnUse" x1="879.0901" y1="494.8498" x2="931.061" y2="494.8498">
			<stop  offset="0" style="stop-color:#E5A31E"/>
			<stop  offset="0.095" style="stop-color:#E5A522"/>
			<stop  offset="0.1845" style="stop-color:#E7AA2D"/>
			<stop  offset="0.2719" style="stop-color:#E9B340"/>
			<stop  offset="0.358" style="stop-color:#ECC05B"/>
			<stop  offset="0.4423" style="stop-color:#F0D07D"/>
			<stop  offset="0.5" style="stop-color:#F3DD99"/>
			<stop  offset="0.5668" style="stop-color:#F2D78D"/>
			<stop  offset="0.689" style="stop-color:#F0C66B"/>
			<stop  offset="0.8515" style="stop-color:#EDAB36"/>
			<stop  offset="1" style="stop-color:#E98F00"/>
		</linearGradient>
		<path class="st5" d="M879.09,532.75c16.03-27.54,32.05-55.08,48.08-82.62c1.3,0.55,2.6,1.11,3.9,1.66
			c-7.5,24.96-13.73,50.42-23.35,74.53c-2.61,6.53-15.51,8.95-23.68,13.26C882.38,537.3,880.74,535.02,879.09,532.75z"/>
		<linearGradient id="SVGID_7_" gradientUnits="userSpaceOnUse" x1="973.5152" y1="495.0841" x2="1020.4822" y2="495.0841">
			<stop  offset="0" style="stop-color:#E5A31E"/>
			<stop  offset="0.095" style="stop-color:#E5A522"/>
			<stop  offset="0.1845" style="stop-color:#E7AA2D"/>
			<stop  offset="0.2719" style="stop-color:#E9B340"/>
			<stop  offset="0.358" style="stop-color:#ECC05B"/>
			<stop  offset="0.4423" style="stop-color:#F0D07D"/>
			<stop  offset="0.5" style="stop-color:#F3DD99"/>
			<stop  offset="0.5668" style="stop-color:#F2D78D"/>
			<stop  offset="0.689" style="stop-color:#F0C66B"/>
			<stop  offset="0.8515" style="stop-color:#EDAB36"/>
			<stop  offset="1" style="stop-color:#E98F00"/>
		</linearGradient>
		<path class="st6" d="M1020.48,534.07c-18.93,6.5-28.63,2.27-32.98-15.45c-5.23-21.33-12.22-42.23-13.99-65.4
			C988.96,479.81,1004.41,506.41,1020.48,534.07z"/>
	</g>
</g>
</svg>
