<?xml version="1.0" encoding="utf-8"?>
<!-- Generator: Adobe Illustrator 24.1.2, SVG Export Plug-In . SVG Version: 6.00 Build 0)  -->
<svg version="1.1" id="Layer_1" xmlns="http://www.w3.org/2000/svg" xmlns:xlink="http://www.w3.org/1999/xlink" x="0px" y="0px"
	 viewBox="800 360 320 340" style="enable-background:new 0 0 1920 1080;" xml:space="preserve">
<style type="text/css">
	.st0{fill:url(#SVGID_1_);stroke:#000000;stroke-miterlimit:10;}
	.st1{fill:url(#SVGID_2_);}
	.st2{fill:url(#SVGID_3_);}
	.st3{fill:url(#SVGID_4_);}
	.st4{fill:url(#SVGID_5_);}
	.st5{fill:url(#SVGID_6_);}
	.st6{fill:url(#SVGID_7_);}
</style>
<g>
	
		<radialGradient id="SVGID_1_" cx="959.75" cy="539.625" r="140.5" gradientTransform="matrix(1.1388 0 0 1.1388 -133.2037 -74.8946)" gradientUnits="userSpaceOnUse">
		<stop  offset="0" style="stop-color:#EFEB7A"/>
		<stop  offset="0.2461" style="stop-color:#C9DC90"/>
		<stop  offset="0.7921" style="stop-color:#6BB5C6"/>
		<stop  offset="1" style="stop-color:#45A5DC"/>
	</radialGradient>
	<circle class="st0" cx="959.75" cy="539.63" r="160"/>
	<g>
		<path d="M965.11,399.1c10.62,18.07,20.75,35.12,30.68,52.28c14.22,24.57,27.68,49.61,42.73,73.66
			c7.17,11.46,7.71,20.51,0.67,32.26c-22.06,36.82-43,74.31-64.55,111.43c-2.7,4.65-6.46,8.67-10.78,14.37
			c-4.01-4.39-7.77-7.32-10-11.15c-22.65-38.89-45.41-77.73-67.13-117.14c-3.4-6.16-5.03-16.85-1.98-22.44
			c23.22-42.53,47.78-84.32,72.08-126.26C958.09,403.94,960.86,402.63,965.11,399.1z M927.88,546.77
			c11.87,40.01,22.63,76.29,33.4,112.56c1.34-0.03,2.69-0.05,4.03-0.08c10.69-36.81,21.37-73.61,32.65-112.48
			C973.47,546.77,952.41,546.77,927.88,546.77z M928.42,535.23c24.69,0,45.59,0,69.48,0c-11.45-38.51-22.13-74.39-32.8-110.27
			c-1.45,0.07-2.9,0.14-4.35,0.21C950.31,460.72,939.87,496.27,928.42,535.23z M891.5,548.33c16.85,29.05,32.57,56.14,48.28,83.23
			c-2.29-23.98-9.36-45.6-14.79-67.62C920.66,546.44,910.99,541.7,891.5,548.33z M982.91,628.33c1.36,0.87,2.71,1.73,4.07,2.6
			c15.78-27.38,31.55-54.77,48.26-83.76c-27.59-2.36-27.72-2.4-33.77,17.77C995.14,586.03,989.08,607.2,982.91,628.33z
			 M892.76,532.52c1.65,2.28,3.29,4.55,4.94,6.83c8.17-4.31,21.07-6.73,23.68-13.26c9.63-24.11,15.85-49.57,23.35-74.53
			c-1.3-0.55-2.6-1.11-3.9-1.66C924.81,477.44,908.78,504.98,892.76,532.52z M1034.15,533.84c-16.07-27.66-31.52-54.26-46.97-80.85
			c1.77,23.17,8.75,44.07,13.99,65.4C1005.52,536.12,1015.22,540.34,1034.15,533.84z"/>
		<linearGradient id="SVGID_2_" gradientUnits="userSpaceOnUse" x1="927.8787" y1="603.0459" x2="997.9619" y2="603.0459">
			<stop  offset="0" style="stop-color:#E5A31E"/>
			<stop  offset="0.1438" style="stop-color:#E8BA3C"/>
			<stop  offset="0.4556" style="stop-color:#F1F689"/>
			<stop  offset="0.5" style="stop-color:#F2FF94"/>
			<stop  offset="1" style="stop-color:#FBFF94"/>
		</linearGradient>
		<path class="st1" d="M927.88,546.77c24.53,0,45.59,0,70.08,0c-11.28,38.86-21.97,75.67-32.65,112.48
			c-1.34,0.03-2.69,0.05-4.03,0.08C950.51,623.05,939.75,586.78,927.88,546.77z"/>
		<linearGradient id="SVGID_3_" gradientUnits="userSpaceOnUse" x1="928.4189" y1="480.0936" x2="997.901" y2="480.0936">
			<stop  offset="0" style="stop-color:#E5A31E"/>
			<stop  offset="0.1438" style="stop-color:#E8BA3C"/>
			<stop  offset="0.4556" style="stop-color:#F1F689"/>
			<stop  offset="0.5" style="stop-color:#F2FF94"/>
			<stop  offset="1" style="stop-color:#FBFF94"/>
		</linearGradient>
		<path class="st2" d="M928.42,535.23c11.45-38.96,21.89-74.51,32.34-110.06c1.45-0.07,2.9-0.14,4.35-0.21
			c10.67,35.88,21.34,71.76,32.8,110.27C974.01,535.23,953.11,535.23,928.42,535.23z"/>
		<linearGradient id="SVGID_4_" gradientUnits="userSpaceOnUse" x1="891.4955" y1="588.517" x2="939.7792" y2="588.517">
			<stop  offset="0" style="stop-color:#E5A31E"/>
			<stop  offset="0.1438" style="stop-color:#E8BA3C"/>
			<stop  offset="0.4556" style="stop-color:#F1F689"/>
			<stop  offset="0.5" style="stop-color:#F2FF94"/>
			<stop  offset="1" style="stop-color:#FBFF94"/>
		</linearGradient>
		<path class="st3" d="M891.5,548.33c19.49-6.63,29.17-1.89,33.49,15.61c5.44,22.02,12.5,43.64,14.79,67.62
			C924.06,604.48,908.35,577.39,891.5,548.33z"/>
		<linearGradient id="SVGID_5_" gradientUnits="userSpaceOnUse" x1="982.9086" y1="588.5215" x2="1035.2335" y2="588.5215">
			<stop  offset="0" style="stop-color:#E5A31E"/>
			<stop  offset="0.1438" style="stop-color:#E8BA3C"/>
			<stop  offset="0.4556" style="stop-color:#F1F689"/>
			<stop  offset="0.5" style="stop-color:#F2FF94"/>
			<stop  offset="1" style="stop-color:#FBFF94"/>
		</linearGradient>
		<path class="st4" d="M982.91,628.33c6.17-21.13,12.23-42.3,18.56-63.39c6.05-20.17,6.18-20.13,33.77-17.77
			c-16.7,28.99-32.48,56.37-48.26,83.76C985.62,630.06,984.26,629.2,982.91,628.33z"/>
		<linearGradient id="SVGID_6_" gradientUnits="userSpaceOnUse" x1="892.7556" y1="494.6221" x2="944.7264" y2="494.6221">
			<stop  offset="0" style="stop-color:#E5A31E"/>
			<stop  offset="0.1438" style="stop-color:#E8BA3C"/>
			<stop  offset="0.4556" style="stop-color:#F1F689"/>
			<stop  offset="0.5" style="stop-color:#F2FF94"/>
			<stop  offset="1" style="stop-color:#FBFF94"/>
		</linearGradient>
		<path class="st5" d="M892.76,532.52c16.03-27.54,32.05-55.08,48.08-82.62c1.3,0.55,2.6,1.11,3.9,1.66
			c-7.5,24.96-13.73,50.42-23.35,74.53c-2.61,6.53-15.51,8.95-23.68,13.26C896.05,537.07,894.4,534.79,892.76,532.52z"/>
		<linearGradient id="SVGID_7_" gradientUnits="userSpaceOnUse" x1="987.1807" y1="494.8564" x2="1034.1477" y2="494.8564">
			<stop  offset="0" style="stop-color:#E5A31E"/>
			<stop  offset="0.1438" style="stop-color:#E8BA3C"/>
			<stop  offset="0.4556" style="stop-color:#F1F689"/>
			<stop  offset="0.5" style="stop-color:#F2FF94"/>
			<stop  offset="1" style="stop-color:#FBFF94"/>
		</linearGradient>
		<path class="st6" d="M1034.15,533.84c-18.93,6.5-28.63,2.27-32.98-15.45c-5.23-21.33-12.22-42.23-13.99-65.4
			C1002.63,479.58,1018.08,506.18,1034.15,533.84z"/>
	</g>
</g>
</svg>
