<?xml version="1.0" encoding="utf-8"?>
<!-- Generator: Adobe Illustrator 24.1.2, SVG Export Plug-In . SVG Version: 6.00 Build 0)  -->
<svg version="1.1" id="Layer_1" xmlns="http://www.w3.org/2000/svg" xmlns:xlink="http://www.w3.org/1999/xlink" x="0px" y="0px"
	 viewBox="800 360 320 340" style="enable-background:new 0 0 1920 1080;" xml:space="preserve">
<style type="text/css">
	.st0{fill:url(#SVGID_1_);}
	.st1{fill:url(#SVGID_2_);}
	.st2{fill:url(#SVGID_3_);stroke:#000000;stroke-miterlimit:10;}
	.st3{fill:url(#SVGID_4_);stroke:#000000;stroke-miterlimit:10;}
	.st4{fill:url(#SVGID_5_);stroke:#000000;stroke-miterlimit:10;}
	.st5{fill:url(#SVGID_6_);stroke:#000000;stroke-miterlimit:10;}
	.st6{fill:url(#SVGID_7_);stroke:#000000;stroke-miterlimit:10;}
	.st7{fill:url(#SVGID_8_);stroke:#000000;stroke-miterlimit:10;}
	.st8{fill:url(#SVGID_9_);stroke:#000000;stroke-miterlimit:10;}
	.st9{fill:url(#SVGID_10_);stroke:#000000;stroke-miterlimit:10;}
	.st10{fill:url(#SVGID_11_);stroke:#000000;stroke-miterlimit:10;}
	.st11{fill:url(#SVGID_12_);stroke:#000000;stroke-miterlimit:10;}
	.st12{fill:url(#SVGID_13_);stroke:#000000;stroke-miterlimit:10;}
	.st13{fill:url(#SVGID_14_);stroke:#000000;stroke-miterlimit:10;}
</style>
<g>
	<g>
		<path d="M1110.77,407.35c1.72,9.96,3.66,19.76,5.07,29.63c2.68,18.8,4.07,37.69,4.1,56.64c0.06,35.12-3.89,69.76-17.19,103.25
			c-8.33,20.97-20.07,40.35-37.25,57.1c-23.83,23.24-54.09,36.69-89.04,43.63c-15.87,3.15-30.62,0.3-45.42-3.27
			c-50.6-12.21-84.93-40.23-106.1-80.74c-11.28-21.58-18.16-44.26-21.17-67.66c-2.17-16.92-3.82-33.99-3.82-50.99
			c0-17.85,1.87-35.72,3.64-53.54c1.07-10.85,3.52-21.6,5.26-32.41c0.26-1.6,0.86-2.24,2.87-2.25c37.04-0.14,72.8-6.72,107.93-16.13
			c12.69-3.4,25.07-7.63,37.64-11.39c1.19-0.36,2.81-0.37,3.97,0.02c31.23,10.75,63.33,18.95,96.51,23.92
			c16.4,2.46,32.93,4,49.61,4.17C1108.34,407.36,1109.32,407.35,1110.77,407.35z M1109.3,408.57c-1.61,0-2.82,0.08-4.01-0.01
			c-13.71-1.02-27.51-1.5-41.1-3.21c-35.13-4.42-68.97-13.06-101.89-24.35c-2.08-0.71-3.82-0.77-5.93-0.05
			c-24.37,8.37-49.33,15.12-75,19.89c-22.42,4.16-44.99,7.4-68.06,7.19c-1.83-0.02-2.76,0.59-3.16,2.43
			c-4.08,18.92-6.54,38.01-7.75,57.2c-1.69,26.95-1.31,53.86,3.19,80.66c3.88,23.12,10.43,45.6,21.93,66.88
			c21.21,39.26,55.12,66.22,104.41,77.95c14.06,3.34,28.09,6.22,43.17,3.31c33.58-6.48,62.99-18.99,86.52-40.81
			c17.14-15.89,29.16-34.4,37.74-54.61c15.53-36.58,19.54-74.59,18.93-113.14c-0.31-19.33-2.01-38.58-5.08-57.73
			C1112.06,423.01,1110.63,415.89,1109.3,408.57z"/>
		<linearGradient id="SVGID_1_" gradientUnits="userSpaceOnUse" x1="801.4698" y1="539.036" x2="1118.347" y2="539.036">
			<stop  offset="0.0337" style="stop-color:#9B9B98"/>
			<stop  offset="0.1338" style="stop-color:#A4A5A7"/>
			<stop  offset="0.2191" style="stop-color:#AEB0B7"/>
			<stop  offset="0.3518" style="stop-color:#9FA3AA"/>
			<stop  offset="0.6054" style="stop-color:#788187"/>
			<stop  offset="0.7191" style="stop-color:#657076"/>
			<stop  offset="1" style="stop-color:#8B949A"/>
		</linearGradient>
		<path class="st0" d="M1109.3,408.57c1.34,7.33,2.77,14.44,3.91,21.59c3.07,19.15,4.77,38.4,5.08,57.73
			c0.61,38.56-3.4,76.56-18.93,113.14c-8.58,20.2-20.6,38.71-37.74,54.61c-23.53,21.82-52.94,34.33-86.52,40.81
			c-15.08,2.91-29.11,0.03-43.17-3.31c-49.29-11.72-83.2-38.69-104.41-77.95c-11.5-21.28-18.05-43.76-21.93-66.88
			c-4.5-26.79-4.88-53.71-3.19-80.66c1.21-19.19,3.67-38.28,7.75-57.2c0.4-1.84,1.33-2.45,3.16-2.43
			c23.06,0.21,45.64-3.03,68.06-7.19c25.67-4.77,50.64-11.52,75-19.89c2.11-0.72,3.85-0.66,5.93,0.05
			c32.92,11.29,66.76,19.93,101.89,24.35c13.59,1.71,27.39,2.19,41.1,3.21C1106.48,408.64,1107.68,408.57,1109.3,408.57z
			 M1093.87,421.1c-10.67-0.7-20.8-1.02-30.82-2.07c-35.05-3.69-68.75-11.84-101.47-23.07c-2.08-0.72-3.72-0.8-5.85-0.09
			c-41.47,13.89-84.03,23.64-128.9,24.38c-1.81,0.03-2.43,0.55-2.75,2.05c-3.76,17.52-6.04,35.18-7.2,52.95
			c-1.37,21.1-0.84,42.15,1.8,63.19c2.79,22.23,8.4,43.82,18.74,64.4c18.86,37.55,50.12,63.5,96.91,74.46
			c11.6,2.72,23.2,5.48,35.7,3.3c28.04-4.9,53.2-14.48,74.17-31.41c19.93-16.09,32.97-35.85,41.93-57.75
			c12.39-30.26,16.2-61.67,15.75-93.44c-0.26-18.04-2.26-36.08-3.96-54.08C1097.21,436.26,1095.26,428.7,1093.87,421.1z"/>
		<path d="M1093.87,421.1c1.39,7.6,3.34,15.16,4.06,22.81c1.7,18.01,3.7,36.04,3.96,54.08c0.45,31.77-3.37,63.18-15.75,93.44
			c-8.96,21.9-22,41.66-41.93,57.75c-20.98,16.94-46.13,26.51-74.17,31.41c-12.5,2.18-24.1-0.58-35.7-3.3
			c-46.78-10.96-78.05-36.91-96.91-74.46c-10.33-20.57-15.95-42.17-18.74-64.4c-2.64-21.04-3.18-42.09-1.8-63.19
			c1.15-17.77,3.44-35.43,7.2-52.95c0.32-1.5,0.95-2.02,2.75-2.05c44.87-0.75,87.43-10.5,128.9-24.38c2.13-0.71,3.76-0.62,5.85,0.09
			c32.72,11.23,66.42,19.38,101.47,23.07C1073.07,420.08,1083.2,420.4,1093.87,421.1z M1092.48,422.19
			c-1.29-0.06-2.16-0.07-3.02-0.14c-11.19-0.81-22.46-1.19-33.56-2.52c-32.54-3.89-63.87-11.74-94.39-22.03
			c-1.65-0.56-3.96-0.67-5.58-0.14c-41.25,13.61-83.46,23.39-128.01,24.26c-0.83,0.02-2.19,1.14-2.36,1.89
			c-4.03,18.06-6.26,36.32-7.29,54.66c-0.99,17.6-0.71,35.2,1.13,52.79c1.87,17.87,5.25,35.46,11.44,52.62
			c7.57,21.01,18.69,40.42,35.95,56.96c20.34,19.49,45.82,31.44,75.47,37.06c6.53,1.24,13.41,3.1,19.82,2.44
			c23.25-2.38,44.92-9.04,64.41-20.4c24.23-14.12,40.87-33.44,52.43-56.18c10.03-19.74,15.77-40.44,18.63-61.78
			c2.19-16.4,3.7-32.85,2.77-49.34c-0.95-16.82-2.64-33.62-4.35-50.4C1095.28,435.34,1093.67,428.8,1092.48,422.19z"/>
		<linearGradient id="SVGID_2_" gradientUnits="userSpaceOnUse" x1="817.6982" y1="538.6042" x2="1100.5842" y2="538.6042">
			<stop  offset="0" style="stop-color:#00B8B5"/>
			<stop  offset="0.5" style="stop-color:#B7E2E0"/>
			<stop  offset="1" style="stop-color:#00AEA8"/>
		</linearGradient>
		<path class="st1" d="M1092.48,422.19c1.19,6.61,2.8,13.16,3.47,19.77c1.71,16.78,3.41,33.58,4.35,50.4
			c0.93,16.48-0.58,32.94-2.77,49.34c-2.85,21.34-8.6,42.04-18.63,61.78c-11.56,22.74-28.2,42.06-52.43,56.18
			c-19.49,11.36-41.15,18.01-64.41,20.4c-6.41,0.66-13.29-1.21-19.82-2.44c-29.65-5.62-55.13-17.57-75.47-37.06
			c-17.26-16.54-28.38-35.95-35.95-56.96c-6.18-17.16-9.56-34.75-11.44-52.62c-1.85-17.59-2.12-35.18-1.13-52.79
			c1.03-18.34,3.26-36.6,7.29-54.66c0.17-0.76,1.53-1.88,2.36-1.89c44.55-0.87,86.77-10.65,128.01-24.26
			c1.62-0.53,3.93-0.42,5.58,0.14c30.53,10.29,61.85,18.14,94.39,22.03c11.11,1.33,22.37,1.71,33.56,2.52
			C1090.32,422.11,1091.19,422.13,1092.48,422.19z"/>
	</g>
	<g>
		<linearGradient id="SVGID_3_" gradientUnits="userSpaceOnUse" x1="890.1481" y1="565.0822" x2="890.1481" y2="521.9457">
			<stop  offset="0" style="stop-color:#FDEBF3"/>
			<stop  offset="0.1124" style="stop-color:#F7EAF3"/>
			<stop  offset="0.2303" style="stop-color:#FAF1F2"/>
			<stop  offset="0.3539" style="stop-color:#FFFEF0"/>
			<stop  offset="0.478" style="stop-color:#FBFBF0"/>
			<stop  offset="0.5952" style="stop-color:#F0F3F2"/>
			<stop  offset="0.7093" style="stop-color:#DDE5F4"/>
			<stop  offset="0.7135" style="stop-color:#DCE4F4"/>
			<stop  offset="1" style="stop-color:#FEE9DF"/>
		</linearGradient>
		<path class="st2" d="M898.7,524.91c5.83,0.02,12.59,0.95,18.35,4.58c5.97,3.75,9.65,8.61,8.57,15.29
			c-0.73,4.51-3.33,8.28-7.23,11.24c-10.89,8.27-23.65,12.51-38.29,11.98c-6.94-0.25-13.35-2.2-18.75-6.08
			c-7.82-5.61-9.09-14.65-3.14-21.74c4.83-5.75,11.58-9.27,19.09-11.84C883.79,526.13,890.53,524.94,898.7,524.91z"/>
		<linearGradient id="SVGID_4_" gradientUnits="userSpaceOnUse" x1="889.9887" y1="560.2086" x2="889.9887" y2="545.8901">
			<stop  offset="0" style="stop-color:#FDEBF3"/>
			<stop  offset="0.1124" style="stop-color:#F7EAF3"/>
			<stop  offset="0.2303" style="stop-color:#FAF1F2"/>
			<stop  offset="0.3539" style="stop-color:#FFFEF0"/>
			<stop  offset="0.478" style="stop-color:#FBFBF0"/>
			<stop  offset="0.5952" style="stop-color:#F0F3F2"/>
			<stop  offset="0.7093" style="stop-color:#DDE5F4"/>
			<stop  offset="0.7135" style="stop-color:#DCE4F4"/>
			<stop  offset="1" style="stop-color:#FEE9DF"/>
		</linearGradient>
		<path class="st3" d="M865.77,557.47c0.66,0.51,1.18,1.17,1.9,1.42c2.15,0.74,4.33,1.64,6.58,1.91c8.94,1.09,17.62-0.23,26.12-2.6
			c3.92-1.09,7.78-2.39,10.82-4.83c1.3-1.04,2.22-2.53,2.92-3.96c0.34-0.68-0.23-1.69-0.39-2.55c-0.2,0-0.4,0-0.61,0
			c1.49,3.12-0.54,5-3.07,6.67c-0.92,0.61-1.93,1.13-2.96,1.61c-5.57,2.59-11.6,3.97-17.82,4.81c-5.7,0.77-11.44,1.19-17.1-0.08
			C869.99,559.41,868,558.34,865.77,557.47z"/>
		<linearGradient id="SVGID_5_" gradientUnits="userSpaceOnUse" x1="972.5185" y1="602.6882" x2="972.5185" y2="560.5233">
			<stop  offset="0" style="stop-color:#FDEBF3"/>
			<stop  offset="0.1124" style="stop-color:#F7EAF3"/>
			<stop  offset="0.2303" style="stop-color:#FAF1F2"/>
			<stop  offset="0.3539" style="stop-color:#FFFEF0"/>
			<stop  offset="0.478" style="stop-color:#FBFBF0"/>
			<stop  offset="0.5952" style="stop-color:#F0F3F2"/>
			<stop  offset="0.7093" style="stop-color:#DDE5F4"/>
			<stop  offset="0.7135" style="stop-color:#DCE4F4"/>
			<stop  offset="1" style="stop-color:#FEE9DF"/>
		</linearGradient>
		<path class="st4" d="M978.73,563.42c5.52,0.03,11.84,0.91,17.69,3.53c3.6,1.61,6.61,3.8,8.83,6.73c4.3,5.67,4.28,11.39,0.13,17.09
			c-2.37,3.26-5.64,5.79-9.48,7.7c-10.38,5.17-21.5,7.93-33.61,6.89c-7.36-0.63-13.96-2.92-19.5-7.24
			c-7.67-5.97-8.37-15.38-1.59-22.3c4.75-4.85,11.02-7.71,17.87-9.75C965.1,564.29,971.33,563.42,978.73,563.42z"/>
		<linearGradient id="SVGID_6_" gradientUnits="userSpaceOnUse" x1="975.6163" y1="598.7786" x2="975.6163" y2="584.3813">
			<stop  offset="0" style="stop-color:#FDEBF3"/>
			<stop  offset="0.1124" style="stop-color:#F7EAF3"/>
			<stop  offset="0.2303" style="stop-color:#FAF1F2"/>
			<stop  offset="0.3539" style="stop-color:#FFFEF0"/>
			<stop  offset="0.478" style="stop-color:#FBFBF0"/>
			<stop  offset="0.5952" style="stop-color:#F0F3F2"/>
			<stop  offset="0.7093" style="stop-color:#DDE5F4"/>
			<stop  offset="0.7135" style="stop-color:#DCE4F4"/>
			<stop  offset="1" style="stop-color:#FEE9DF"/>
		</linearGradient>
		<path class="st5" d="M1000.41,585.37c0.41,3.57-0.15,4.72-3.85,6.79c-1.9,1.06-3.94,1.99-6.03,2.74
			c-6.36,2.28-13.04,3.61-19.9,4.1c-7.14,0.51-14.39,1.1-20.8-2.85c0.55,0.6,1.13,1.26,1.89,1.53c1.88,0.66,3.8,1.45,5.78,1.66
			c12.79,1.39,24.98-0.59,36.55-5.28c2.21-0.9,4.2-2.38,5.94-3.89C1001.82,588.58,1001.76,586.73,1000.41,585.37z"/>
		<linearGradient id="SVGID_7_" gradientUnits="userSpaceOnUse" x1="1047.7804" y1="565.7839" x2="1047.7804" y2="523.7017">
			<stop  offset="0" style="stop-color:#FDEBF3"/>
			<stop  offset="0.1124" style="stop-color:#F7EAF3"/>
			<stop  offset="0.2303" style="stop-color:#FAF1F2"/>
			<stop  offset="0.3539" style="stop-color:#FFFEF0"/>
			<stop  offset="0.478" style="stop-color:#FBFBF0"/>
			<stop  offset="0.5952" style="stop-color:#F0F3F2"/>
			<stop  offset="0.7093" style="stop-color:#DDE5F4"/>
			<stop  offset="0.7135" style="stop-color:#DCE4F4"/>
			<stop  offset="1" style="stop-color:#FEE9DF"/>
		</linearGradient>
		<path class="st6" d="M1043.19,568.67c-7.74-0.07-14.66-1.47-20.93-4.89c-13.33-7.26-14.07-20.34-1.59-28.62
			c6.84-4.54,14.76-6.88,23.21-7.99c7.56-1,15.08-0.8,22.43,1.2c5.01,1.36,9.43,3.53,12.83,7.04c6.26,6.48,6.2,14.41-0.17,20.84
			c-3.24,3.28-7.29,5.61-11.8,7.42C1059.46,566.8,1051.36,568.52,1043.19,568.67z"/>
		<linearGradient id="SVGID_8_" gradientUnits="userSpaceOnUse" x1="1053.1089" y1="561.8538" x2="1053.1089" y2="546.67">
			<stop  offset="0" style="stop-color:#FDEBF3"/>
			<stop  offset="0.1124" style="stop-color:#F7EAF3"/>
			<stop  offset="0.2303" style="stop-color:#FAF1F2"/>
			<stop  offset="0.3539" style="stop-color:#FFFEF0"/>
			<stop  offset="0.478" style="stop-color:#FBFBF0"/>
			<stop  offset="0.5952" style="stop-color:#F0F3F2"/>
			<stop  offset="0.7093" style="stop-color:#DDE5F4"/>
			<stop  offset="0.7135" style="stop-color:#DCE4F4"/>
			<stop  offset="1" style="stop-color:#FEE9DF"/>
		</linearGradient>
		<path class="st7" d="M1078.17,547.71c1.26,2.84-0.4,4.71-2.78,6.25c-1.54,0.99-3.17,1.93-4.9,2.63
			c-10.21,4.06-20.98,6.04-32.23,5.66c-2.91-0.1-5.8-1.03-8.65-1.71c-0.85-0.2-1.55-0.87-2.32-1.32c-0.1,0.13-0.21,0.27-0.31,0.4
			c1.09,0.61,2.09,1.43,3.29,1.77c2.03,0.59,4.15,1.05,6.27,1.26c6.67,0.67,13.22-0.16,19.72-1.39c6.03-1.14,11.94-2.66,17.2-5.51
			c1.79-0.97,3.43-2.28,4.79-3.67C1079.68,550.59,1079.52,549.14,1078.17,547.71z"/>
		<linearGradient id="SVGID_9_" gradientUnits="userSpaceOnUse" x1="959.178" y1="501.6743" x2="998.0811" y2="462.7713">
			<stop  offset="0" style="stop-color:#FDEBF3"/>
			<stop  offset="0.1124" style="stop-color:#F7EAF3"/>
			<stop  offset="0.2303" style="stop-color:#FAF1F2"/>
			<stop  offset="0.3539" style="stop-color:#FFFEF0"/>
			<stop  offset="0.478" style="stop-color:#FBFBF0"/>
			<stop  offset="0.5952" style="stop-color:#F0F3F2"/>
			<stop  offset="0.7093" style="stop-color:#DDE5F4"/>
			<stop  offset="0.7135" style="stop-color:#DCE4F4"/>
			<stop  offset="1" style="stop-color:#FEE9DF"/>
		</linearGradient>
		<path class="st8" d="M978.69,505.81c-9.95-0.09-18.54-2.95-24.95-9.59c-9.6-9.94-7.72-23.25,4.22-31.6
			c12.61-8.82,32.7-7.85,44.03,2.13c11.43,10.07,9.7,25.49-3.84,33.79C992.34,504.09,985.85,505.86,978.69,505.81z M980.62,469.66
			c0.6,0.58,1.04,0.96,1.42,1.39c1.38,1.55,2.68,3.16,4.13,4.67c0.91,0.95,2.16,1.85,3.64,1.36c3.77-1.25,7.12-3.1,9.3-6.12
			c1.17-1.61,0.74-3.08-0.99-4.24c-1.52-1.02-3.09-1.99-4.59-3.04c-3.43-2.41-7.29-3.54-11.74-3.11c-3.37,0.33-6.78,0.52-10.1,1.07
			c-2.08,0.34-4.22,0.97-6.02,1.91c-5.4,2.83-8.12,7.35-9.8,12.37c-1.26,3.77,0.87,6.62,5.38,7.48c3.76,0.71,5.77-0.61,5.85-3.87
			c0.05-2-0.06-4.01,0.09-6c0.15-1.97,1.13-2.66,3.43-2.55c1.28,0.06,2.55,0.33,3.83,0.42
			C976.67,471.54,978.99,471.97,980.62,469.66z M997.16,479.18c-0.99-0.54-1.57-1.11-1.99-1.03c-0.55,0.1-0.98,0.71-1.46,1.1
			c0.45,0.39,0.88,1.07,1.35,1.09C995.59,480.35,996.15,479.77,997.16,479.18z M983.65,496.02c0.68-0.86,1.33-1.34,1.34-1.82
			c0.01-0.35-0.82-0.98-1.3-0.99c-0.45-0.01-1.28,0.62-1.29,0.98C982.39,494.65,983.01,495.14,983.65,496.02z M985.82,503.53
			c0.68-0.84,1.33-1.3,1.35-1.79c0.01-0.35-0.81-1-1.27-1c-0.47-0.01-1.32,0.6-1.33,0.95C984.56,502.16,985.19,502.65,985.82,503.53
			z M968.54,488.9c-1.04-0.53-1.64-1.07-2.19-1.03c-0.45,0.03-0.84,0.75-1.25,1.16c0.51,0.36,0.99,0.94,1.55,1
			C967.09,490.09,967.62,489.49,968.54,488.9z M956.56,488.57c-0.9-0.54-1.49-1.15-1.88-1.07c-0.57,0.11-0.99,0.74-1.47,1.15
			c0.51,0.39,0.97,0.99,1.54,1.08C955.15,489.79,955.7,489.15,956.56,488.57z M992.87,491.49c0.68-0.84,1.33-1.31,1.35-1.79
			c0.01-0.35-0.81-1-1.27-1c-0.47-0.01-1.32,0.6-1.33,0.95C991.6,490.12,992.23,490.62,992.87,491.49z M970.3,497.01
			c-0.93-0.62-1.46-1.25-1.89-1.2c-0.56,0.07-1.04,0.66-1.55,1.03c0.41,0.4,0.79,1.09,1.25,1.13
			C968.66,498.02,969.26,497.5,970.3,497.01z M1003.7,488.15c0-0.2,0-0.4,0-0.6c-0.51-0.26-1.06-0.76-1.52-0.7
			c-0.53,0.06-0.98,0.61-1.46,0.95c0.49,0.38,0.93,0.96,1.49,1.07C1002.62,488.95,1003.2,488.41,1003.7,488.15z M973.54,488.05
			c0.67-0.78,1.39-1.28,1.3-1.62c-0.12-0.47-0.8-1.04-1.35-1.14c-0.35-0.06-1.24,0.65-1.25,1.03
			C972.23,486.76,972.89,487.23,973.54,488.05z M984.62,485c0.61-0.81,1.29-1.33,1.17-1.63c-0.18-0.46-0.88-1.01-1.4-1.04
			c-0.39-0.02-1.15,0.68-1.19,1.1C983.16,483.8,983.88,484.23,984.62,485z M951.49,481.34c0.68-0.82,1.38-1.3,1.31-1.67
			c-0.1-0.48-0.82-0.86-1.27-1.28c-0.45,0.37-1.24,0.73-1.27,1.12C950.23,479.97,950.86,480.47,951.49,481.34z"/>
		<linearGradient id="SVGID_10_" gradientUnits="userSpaceOnUse" x1="865.7662" y1="511.5009" x2="904.7092" y2="472.5578">
			<stop  offset="0" style="stop-color:#FDEBF3"/>
			<stop  offset="0.1124" style="stop-color:#F7EAF3"/>
			<stop  offset="0.2303" style="stop-color:#FAF1F2"/>
			<stop  offset="0.3539" style="stop-color:#FFFEF0"/>
			<stop  offset="0.478" style="stop-color:#FBFBF0"/>
			<stop  offset="0.5952" style="stop-color:#F0F3F2"/>
			<stop  offset="0.7093" style="stop-color:#DDE5F4"/>
			<stop  offset="0.7135" style="stop-color:#DCE4F4"/>
			<stop  offset="1" style="stop-color:#FEE9DF"/>
		</linearGradient>
		<path class="st9" d="M889.07,468.45c6.72,0.14,15.58,3.28,21.94,10.5c8.65,9.82,6.28,23.07-5.24,30.75
			c-12.78,8.53-31.49,7.8-43.28-1.69c-12.07-9.71-10.53-25.94,3.25-34.35C871.54,470.13,877.85,468.45,889.07,468.45z
			 M885.33,514.64c14.28-0.04,25.87-9.99,25.81-22.17c-0.06-12.37-11.73-22.02-26.55-21.96c-13.73,0.06-25.18,10.1-25.17,22.07
			C859.43,504.79,871.04,514.68,885.33,514.64z"/>
		<linearGradient id="SVGID_11_" gradientUnits="userSpaceOnUse" x1="951.2307" y1="555.8522" x2="990.1519" y2="516.9309">
			<stop  offset="0" style="stop-color:#FDEBF3"/>
			<stop  offset="0.1124" style="stop-color:#F7EAF3"/>
			<stop  offset="0.2303" style="stop-color:#FAF1F2"/>
			<stop  offset="0.3539" style="stop-color:#FFFEF0"/>
			<stop  offset="0.478" style="stop-color:#FBFBF0"/>
			<stop  offset="0.5952" style="stop-color:#F0F3F2"/>
			<stop  offset="0.7093" style="stop-color:#DDE5F4"/>
			<stop  offset="0.7135" style="stop-color:#DCE4F4"/>
			<stop  offset="1" style="stop-color:#FEE9DF"/>
		</linearGradient>
		<path class="st10" d="M970.6,559.99c-9.6-0.13-17.86-2.9-24.34-9.11c-8.79-8.43-8.7-20.76,0.17-29.17
			c11.89-11.27,33.83-12,46.73-1.55c12.55,10.17,10.93,26.38-3.51,34.89C983.94,558.42,977.57,560.05,970.6,559.99z M985.92,536.64
			c0.01-4.66-1.15-7.65-3.47-10.31c-6.93-7.96-20.85-9.28-30.07-2.85c-8.58,5.98-8.91,16.8-0.72,23.09
			c7.2,5.53,18.28,6.15,26.22,1.41C983.01,544.91,985.8,540.7,985.92,536.64z"/>
		<linearGradient id="SVGID_12_" gradientUnits="userSpaceOnUse" x1="976.7941" y1="469.6606" x2="975.0643" y2="461.156">
			<stop  offset="0" style="stop-color:#FDEBF3"/>
			<stop  offset="0.1124" style="stop-color:#F7EAF3"/>
			<stop  offset="0.2303" style="stop-color:#FAF1F2"/>
			<stop  offset="0.3539" style="stop-color:#FFFEF0"/>
			<stop  offset="0.478" style="stop-color:#FBFBF0"/>
			<stop  offset="0.5952" style="stop-color:#F0F3F2"/>
			<stop  offset="0.7093" style="stop-color:#DDE5F4"/>
			<stop  offset="0.7135" style="stop-color:#DCE4F4"/>
			<stop  offset="1" style="stop-color:#FEE9DF"/>
		</linearGradient>
		<path class="st11" d="M966.45,477.05c0,1.15,0.02,2.31,0,3.46c-0.02,1.37-0.95,2.11-2.43,2.38c-3.46,0.64-9.24-1.81-7.72-6.36
			c1.73-5.2,4.43-9.89,10.09-12.72c1.96-0.98,4.34-1.51,6.61-1.84c3.4-0.5,6.86-0.74,10.31-0.93c3.08-0.17,5.91,0.6,8.4,2.21
			c2.01,1.3,4.04,2.58,6.02,3.91c1.56,1.05,1.85,1.98,0.9,3.4c-1.99,2.98-5.25,4.69-8.83,5.88c-0.76,0.25-2.33-0.38-3.01-1.01
			c-1.59-1.46-2.85-3.17-4.27-4.76c-1.45-1.63-1.47-1.53-3.35-0.37c-0.81,0.5-2.07,0.66-3.11,0.64c-1.93-0.03-3.84-0.4-5.77-0.45
			c-2.38-0.06-3.52,0.91-3.76,2.95c-0.07,0.6-0.07,1.2-0.08,1.8c-0.01,0.6,0,1.2,0,1.81C966.43,477.05,966.44,477.05,966.45,477.05z
			"/>
		<linearGradient id="SVGID_13_" gradientUnits="userSpaceOnUse" x1="868.6754" y1="509.1472" x2="901.8494" y2="475.9733">
			<stop  offset="0" style="stop-color:#FDEBF3"/>
			<stop  offset="0.1124" style="stop-color:#F7EAF3"/>
			<stop  offset="0.2303" style="stop-color:#FAF1F2"/>
			<stop  offset="0.3539" style="stop-color:#FFFEF0"/>
			<stop  offset="0.478" style="stop-color:#FBFBF0"/>
			<stop  offset="0.5952" style="stop-color:#F0F3F2"/>
			<stop  offset="0.7093" style="stop-color:#DDE5F4"/>
			<stop  offset="0.7135" style="stop-color:#DCE4F4"/>
			<stop  offset="1" style="stop-color:#FEE9DF"/>
		</linearGradient>
		<path class="st12" d="M860.12,492.53c0-11.96,11.17-21.52,25.14-21.52c13.92,0,25.19,9.61,25.22,21.52
			c0.03,11.93-11.36,21.66-25.31,21.62C871.25,514.1,860.12,504.5,860.12,492.53z"/>
		<linearGradient id="SVGID_14_" gradientUnits="userSpaceOnUse" x1="953.4258" y1="547.6517" x2="978.2221" y2="522.8554">
			<stop  offset="0" style="stop-color:#FDEBF3"/>
			<stop  offset="0.1124" style="stop-color:#F7EAF3"/>
			<stop  offset="0.2303" style="stop-color:#FAF1F2"/>
			<stop  offset="0.3539" style="stop-color:#FFFEF0"/>
			<stop  offset="0.478" style="stop-color:#FBFBF0"/>
			<stop  offset="0.5952" style="stop-color:#F0F3F2"/>
			<stop  offset="0.7093" style="stop-color:#DDE5F4"/>
			<stop  offset="0.7135" style="stop-color:#DCE4F4"/>
			<stop  offset="1" style="stop-color:#FEE9DF"/>
		</linearGradient>
		<path class="st13" d="M946.38,535.3c0.19-6.18,3.73-10.55,10.01-13.44c6.99-3.21,16.41-2.38,22.47,1.98
			c8.51,6.13,8.67,16.26,0.36,22.58c-9.34,7.1-24.93,4.91-30.84-4.34C947.03,539.98,946.28,537.74,946.38,535.3z"/>
	</g>
</g>
</svg>
