<?xml version="1.0" encoding="utf-8"?>
<!-- Generator: Adobe Illustrator 24.1.2, SVG Export Plug-In . SVG Version: 6.00 Build 0)  -->
<svg version="1.1" id="Layer_1" xmlns="http://www.w3.org/2000/svg" xmlns:xlink="http://www.w3.org/1999/xlink" x="0px" y="0px"
	 viewBox="800 360 320 340" style="enable-background:new 0 0 1920 1080;" xml:space="preserve">
<style type="text/css">
	.st0{fill:url(#SVGID_1_);}
	.st1{fill:url(#SVGID_2_);}
	.st2{fill:url(#SVGID_3_);stroke:#000000;stroke-miterlimit:10;}
	.st3{fill:url(#SVGID_4_);stroke:#000000;stroke-miterlimit:10;}
	.st4{fill:url(#SVGID_5_);stroke:#000000;stroke-miterlimit:10;}
	.st5{fill:url(#SVGID_6_);stroke:#000000;stroke-miterlimit:10;}
</style>
<g>
	<g>
		<path d="M1110.77,407.35c1.72,9.96,3.66,19.76,5.07,29.63c2.68,18.8,4.07,37.69,4.1,56.64c0.06,35.12-3.89,69.76-17.19,103.25
			c-8.33,20.97-20.07,40.35-37.25,57.1c-23.83,23.24-54.09,36.69-89.04,43.63c-15.87,3.15-30.62,0.3-45.42-3.27
			c-50.6-12.21-84.93-40.23-106.1-80.74c-11.28-21.58-18.16-44.26-21.17-67.66c-2.17-16.92-3.82-33.99-3.82-50.99
			c0-17.85,1.87-35.72,3.64-53.54c1.07-10.85,3.52-21.6,5.26-32.41c0.26-1.6,0.86-2.24,2.87-2.25c37.04-0.14,72.8-6.72,107.93-16.13
			c12.69-3.4,25.07-7.63,37.64-11.39c1.19-0.36,2.81-0.37,3.97,0.02c31.23,10.75,63.33,18.95,96.51,23.92
			c16.4,2.46,32.93,4,49.61,4.17C1108.34,407.36,1109.32,407.35,1110.77,407.35z M1109.3,408.57c-1.61,0-2.82,0.08-4.01-0.01
			c-13.71-1.02-27.51-1.5-41.1-3.21c-35.13-4.42-68.97-13.06-101.89-24.35c-2.08-0.71-3.82-0.77-5.93-0.05
			c-24.37,8.37-49.33,15.12-75,19.89c-22.42,4.16-44.99,7.4-68.06,7.19c-1.83-0.02-2.76,0.59-3.16,2.43
			c-4.08,18.92-6.54,38.01-7.75,57.2c-1.69,26.95-1.31,53.86,3.19,80.66c3.88,23.12,10.43,45.6,21.93,66.88
			c21.21,39.26,55.12,66.22,104.41,77.95c14.06,3.34,28.09,6.22,43.17,3.31c33.58-6.48,62.99-18.99,86.52-40.81
			c17.14-15.89,29.16-34.4,37.74-54.61c15.53-36.58,19.54-74.59,18.93-113.14c-0.31-19.33-2.01-38.58-5.08-57.73
			C1112.06,423.01,1110.63,415.89,1109.3,408.57z"/>
		<linearGradient id="SVGID_1_" gradientUnits="userSpaceOnUse" x1="801.4698" y1="539.036" x2="1118.347" y2="539.036">
			<stop  offset="0.0337" style="stop-color:#9B9B98"/>
			<stop  offset="0.1338" style="stop-color:#A4A5A7"/>
			<stop  offset="0.2191" style="stop-color:#AEB0B7"/>
			<stop  offset="0.3518" style="stop-color:#9FA3AA"/>
			<stop  offset="0.6054" style="stop-color:#788187"/>
			<stop  offset="0.7191" style="stop-color:#657076"/>
			<stop  offset="1" style="stop-color:#8B949A"/>
		</linearGradient>
		<path class="st0" d="M1109.3,408.57c1.34,7.33,2.77,14.44,3.91,21.59c3.07,19.15,4.77,38.4,5.08,57.73
			c0.61,38.56-3.4,76.56-18.93,113.14c-8.58,20.2-20.6,38.71-37.74,54.61c-23.53,21.82-52.94,34.33-86.52,40.81
			c-15.08,2.91-29.11,0.03-43.17-3.31c-49.29-11.72-83.2-38.69-104.41-77.95c-11.5-21.28-18.05-43.76-21.93-66.88
			c-4.5-26.79-4.88-53.71-3.19-80.66c1.21-19.19,3.67-38.28,7.75-57.2c0.4-1.84,1.33-2.45,3.16-2.43
			c23.06,0.21,45.64-3.03,68.06-7.19c25.67-4.77,50.64-11.52,75-19.89c2.11-0.72,3.85-0.66,5.93,0.05
			c32.92,11.29,66.76,19.93,101.89,24.35c13.59,1.71,27.39,2.19,41.1,3.21C1106.48,408.64,1107.68,408.57,1109.3,408.57z
			 M1093.87,421.1c-10.67-0.7-20.8-1.02-30.82-2.07c-35.05-3.69-68.75-11.84-101.47-23.07c-2.08-0.72-3.72-0.8-5.85-0.09
			c-41.47,13.89-84.03,23.64-128.9,24.38c-1.81,0.03-2.43,0.55-2.75,2.05c-3.76,17.52-6.04,35.18-7.2,52.95
			c-1.37,21.1-0.84,42.15,1.8,63.19c2.79,22.23,8.4,43.82,18.74,64.4c18.86,37.55,50.12,63.5,96.91,74.46
			c11.6,2.72,23.2,5.48,35.7,3.3c28.04-4.9,53.2-14.48,74.17-31.41c19.93-16.09,32.97-35.85,41.93-57.75
			c12.39-30.26,16.2-61.67,15.75-93.44c-0.26-18.04-2.26-36.08-3.96-54.08C1097.21,436.26,1095.26,428.7,1093.87,421.1z"/>
		<path d="M1093.87,421.1c1.39,7.6,3.34,15.16,4.06,22.81c1.7,18.01,3.7,36.04,3.96,54.08c0.45,31.77-3.37,63.18-15.75,93.44
			c-8.96,21.9-22,41.66-41.93,57.75c-20.98,16.94-46.13,26.51-74.17,31.41c-12.5,2.18-24.1-0.58-35.7-3.3
			c-46.78-10.96-78.05-36.91-96.91-74.46c-10.33-20.57-15.95-42.17-18.74-64.4c-2.64-21.04-3.18-42.09-1.8-63.19
			c1.15-17.77,3.44-35.43,7.2-52.95c0.32-1.5,0.95-2.02,2.75-2.05c44.87-0.75,87.43-10.5,128.9-24.38c2.13-0.71,3.76-0.62,5.85,0.09
			c32.72,11.23,66.42,19.38,101.47,23.07C1073.07,420.08,1083.2,420.4,1093.87,421.1z M1092.48,422.19
			c-1.29-0.06-2.16-0.07-3.02-0.14c-11.19-0.81-22.46-1.19-33.56-2.52c-32.54-3.89-63.87-11.74-94.39-22.03
			c-1.65-0.56-3.96-0.67-5.58-0.14c-41.25,13.61-83.46,23.39-128.01,24.26c-0.83,0.02-2.19,1.14-2.36,1.89
			c-4.03,18.06-6.26,36.32-7.29,54.66c-0.99,17.6-0.71,35.2,1.13,52.79c1.87,17.87,5.25,35.46,11.44,52.62
			c7.57,21.01,18.69,40.42,35.95,56.96c20.34,19.49,45.82,31.44,75.47,37.06c6.53,1.24,13.41,3.1,19.82,2.44
			c23.25-2.38,44.92-9.04,64.41-20.4c24.23-14.12,40.87-33.44,52.43-56.18c10.03-19.74,15.77-40.44,18.63-61.78
			c2.19-16.4,3.7-32.85,2.77-49.34c-0.95-16.82-2.64-33.62-4.35-50.4C1095.28,435.34,1093.67,428.8,1092.48,422.19z"/>
		<linearGradient id="SVGID_2_" gradientUnits="userSpaceOnUse" x1="817.6982" y1="538.6042" x2="1100.5842" y2="538.6042">
			<stop  offset="0" style="stop-color:#00B8B5"/>
			<stop  offset="0.5" style="stop-color:#B7E2E0"/>
			<stop  offset="1" style="stop-color:#00AEA8"/>
		</linearGradient>
		<path class="st1" d="M1092.48,422.19c1.19,6.61,2.8,13.16,3.47,19.77c1.71,16.78,3.41,33.58,4.35,50.4
			c0.93,16.48-0.58,32.94-2.77,49.34c-2.85,21.34-8.6,42.04-18.63,61.78c-11.56,22.74-28.2,42.06-52.43,56.18
			c-19.49,11.36-41.15,18.01-64.41,20.4c-6.41,0.66-13.29-1.21-19.82-2.44c-29.65-5.62-55.13-17.57-75.47-37.06
			c-17.26-16.54-28.38-35.95-35.95-56.96c-6.18-17.16-9.56-34.75-11.44-52.62c-1.85-17.59-2.12-35.18-1.13-52.79
			c1.03-18.34,3.26-36.6,7.29-54.66c0.17-0.76,1.53-1.88,2.36-1.89c44.55-0.87,86.77-10.65,128.01-24.26
			c1.62-0.53,3.93-0.42,5.58,0.14c30.53,10.29,61.85,18.14,94.39,22.03c11.11,1.33,22.37,1.71,33.56,2.52
			C1090.32,422.11,1091.19,422.13,1092.48,422.19z"/>
	</g>
	<g>
		<linearGradient id="SVGID_3_" gradientUnits="userSpaceOnUse" x1="930.279" y1="629.487" x2="930.279" y2="520.0673">
			<stop  offset="0" style="stop-color:#FDEBF3"/>
			<stop  offset="0.1124" style="stop-color:#F7EAF3"/>
			<stop  offset="0.2303" style="stop-color:#FAF1F2"/>
			<stop  offset="0.3539" style="stop-color:#FFFEF0"/>
			<stop  offset="0.478" style="stop-color:#FBFBF0"/>
			<stop  offset="0.5952" style="stop-color:#F0F3F2"/>
			<stop  offset="0.7093" style="stop-color:#DDE5F4"/>
			<stop  offset="0.7135" style="stop-color:#DCE4F4"/>
			<stop  offset="1" style="stop-color:#FEE9DF"/>
		</linearGradient>
		<path class="st2" d="M904.47,537.17c0-1.37,0-2.5,0-3.9c1.77-1.6,3.58-3.45,5.64-5.07c3.33-2.61,7.11-4.71,10.83-6.9
			c2.76-1.62,4.72-1.7,7.41,0.01c2.26,1.43,5.12,2.1,7.8,2.95c1.9,0.6,3.64,1.61,5.38,2.54c1.59,0.85,3.14,1.78,4.59,2.8
			c1.92,1.34,3.29,3.1,4.64,4.85c0.73,0.95,1.25,2.03,2.02,2.95c1.57,1.9,2.07,4.17,3.15,6.24c0.25,0.47,0.14,1.09,0.14,1.64
			c0.01,27.6,0,55.19,0,82.79c0,0.18-0.06,0.35-0.09,0.53c-1.71,1.03-2.91,0.9-5.03,0.84c-3.01-0.08-3.53-1.66-4.2-3.61
			c-0.6-1.73-0.57-3.42-0.59-5.15c-0.02-1.51,0-3.01,0-4.52c0-2.92-0.18-5.85,0.05-8.76c0.24-2.99-0.85-5.85-0.74-8.81
			c0.11-2.92,0.02-5.84,0.02-8.76s0.44-5.9-0.11-8.74c-0.68-3.52-0.45-7.01-0.53-10.52c-0.08-3.58,0-7.16-0.03-10.74
			c-0.02-1.73-0.94-3.34-0.7-5.14c0.22-1.67,0.25-3.41,0-5.08c-0.4-2.75-1.46-5.49-3.82-7.35c-1.98-1.56-4.4-3.21-7.51-2.74
			c-0.79,0.12-1.08-0.48-1.91-0.38c-1.82,0.21-4.75,0.5-6.53,1.15c-0.28,0.1-0.57,0.32-0.84,0.3c-3.43-0.25-6.87,0.38-10.34-0.45
			c-1.77-0.42-3.68-0.52-5.36-1.25C906.61,538.38,905.5,537.71,904.47,537.17z"/>
		<linearGradient id="SVGID_4_" gradientUnits="userSpaceOnUse" x1="846.2056" y1="576.1277" x2="935.8832" y2="486.45">
			<stop  offset="0" style="stop-color:#FDEBF3"/>
			<stop  offset="0.1124" style="stop-color:#F7EAF3"/>
			<stop  offset="0.2303" style="stop-color:#FAF1F2"/>
			<stop  offset="0.3539" style="stop-color:#FFFEF0"/>
			<stop  offset="0.478" style="stop-color:#FBFBF0"/>
			<stop  offset="0.5952" style="stop-color:#F0F3F2"/>
			<stop  offset="0.7093" style="stop-color:#DDE5F4"/>
			<stop  offset="0.7135" style="stop-color:#DCE4F4"/>
			<stop  offset="1" style="stop-color:#FEE9DF"/>
		</linearGradient>
		<path class="st3" d="M864.28,535.53c-4.28-1.61-6.26-5.11-9.98-6.89c-0.28-0.13-0.47-0.4-0.71-0.59c-3.72-3-7.43-6.01-11.19-8.97
			c-1.08-0.85-2.33-1.56-3.42-2.29c-0.23-2.8,1.19-5.38,0.65-8.08c1.03-1.42,0.5-3.02,0.7-4.51c1.33-0.55,2.61-1.09,3.89-1.63
			c5.76-2.42,11.69-4.52,17.47-6.91c3.93-1.62,7.95-3.12,11.97-4.6c2.71-1,5.42-2,8.1-3.06c2.59-1.02,5.07-2.28,7.73-3.14
			c4.11-1.33,8.02-3,11.98-4.6c4.05-1.63,8.22-3.04,12.32-4.58c2.42-0.91,4.81-1.89,7.4-2.92c2.31,1.73,3.57,4.01,4.45,6.49
			c0.83,2.33,1.57,4.66,1.35,7.16c-0.14,1.59-0.2,3.22,0.02,4.79c0.22,1.53-0.81,2.81-0.73,4.29c0.07,1.44-0.79,2.74-1.11,4.11
			c-0.68,2.95-1.79,5.74-3.29,8.44c-0.21,0.39-0.2,0.89-0.2,1.34c-0.02,1.51-0.02,3.01-0.01,4.52c0.01,1.72,0.71,3.3,1.38,5.06
			c-1.5,0.83-3.06,1.67-4.6,2.53c-4.55,2.54-9.02,5.21-12.58,8.76c-1.45,1.45-3.06,3-2.74,5.28
			C889.95,535.53,876.88,535.53,864.28,535.53z M863.45,536.76c0,0.46,0.16,0.91-0.03,1.18c-1.41,2.04-2.37,4.24-3.42,6.42
			c-1.08,2.25-2.69,4.33-3.65,6.61c-1.76,4.19-4.12,8.14-6.15,12.23c-1.71,3.44-3.49,6.86-5.31,10.44c1.45,1.61,3.12,3.24,4.49,5.04
			c3.31,4.34,7.4,8.08,11.72,11.65c0.75,0.62,1.62,1.18,2.54,1.57c0.46,0.19,1.31,0.12,1.74-0.14c4.79-2.78,9.7-5.4,14.64-7.98
			c3.45-1.8,6.59-4.06,10.13-5.71c5.8-2.7,11.22-5.94,16.8-8.92c6.05-3.24,12.15-6.42,18.02-9.9c1.73-1.03,4-1.46,4.98-2.81
			c-1.1-5.48-3.26-10.27-6.49-14.66c-3.87-0.18-7.66,0.27-11.4-0.56c-2.09-0.47-4.08-1.15-6.13-1.65c-1.51-0.37-1.24-1.63-2.22-2.14
			c-0.36-0.19-0.6-0.54-0.72-0.66C889.7,536.76,876.62,536.76,863.45,536.76z M851.74,498.33c4.37-1.67,8.75-3.31,13.11-5
			c5.01-1.94,10.01-3.9,15.01-5.86c4.63-1.81,9.25-3.64,13.93-5.35c5.62-2.05,11.12-4.35,16.67-6.52c1.11-0.43,2.2-0.88,3.38-1.23
			c2.3-0.68,4.39-1.88,6.93-3.02c-2.52-1.53-4.62-3.07-6.98-4.2c-4.56-2.17-9.41-3.75-14.52-4.84c-2.62-0.56-5.28-0.99-7.91-1.33
			c-3.13-0.4-6.38-0.19-9.57-0.05c-1.52,0.06-3.03,0.52-4.52,0.86c-3.31,0.76-6.12,2.26-8.44,4.39c-1.91,1.76-3.69,3.61-5.63,5.34
			c-2.59,2.31-5.24,4.58-7.95,6.79c-2.5,2.03-4.56,4.34-6.53,6.73c-3.49,4.21-5.41,9-7.1,13.87c-0.34,0.99-0.48,2.04-0.84,3.62
			C844.88,500.97,848.3,499.64,851.74,498.33z M927.69,559.26c-3.42,1.47-6.42,3.52-9.7,5.18c-3.47,1.75-6.78,3.73-10.19,5.57
			c-3.22,1.75-6.5,3.42-9.71,5.18c-4.01,2.2-7.87,4.61-11.98,6.65c-3.49,1.73-6.79,3.69-10.2,5.51c-3.49,1.86-6.98,3.71-10.49,5.57
			c3.27,2.93,7.57,4.28,11.68,5.97c3.36,1.38,6.99,1.28,10.44,1.51c4.36,0.29,8.81,0.45,13.28-0.31c3-0.51,5.86-1.31,8.39-2.48
			c4.24-1.96,7.98-4.65,11.63-7.39c2.36-1.76,4-4.02,5.77-6.16c1.28-1.54,2.25-3.35,2.91-5.16c0.52-1.43,0.89-2.95,0.8-4.55
			c-0.08-1.51,0.51-3.04,0.57-4.56c0.1-2.91-0.02-5.83,0.05-8.75c0.03-1.13-0.37-2.06-1.26-3.04
			C929.02,558.44,928.41,558.94,927.69,559.26z M844.62,571.68c1.23-2.77,2.59-5.49,4.17-8.14c1.01-1.7,1.9-3.49,2.67-5.27
			c1.86-4.25,4.39-8.24,6.3-12.47c1.29-2.86,2.89-5.63,4.6-8.92c-2.02,0.61-3.42,1.25-4.89,1.43c-3.19,0.39-6.16,1.44-9.26,2.07
			c-2.9,0.59-5.76,1.32-8.66,1.91c-1.52,0.31-1.93,0.5-1.86,1.72c0.14,2.56-0.45,5.15,0.6,7.69c0.52,1.25-0.16,2.63,0.58,4.04
			c0.64,1.22,0.45,2.83,0.66,4.25c0.38,2.59,1.52,4.97,2.2,7.46c0.41,1.53,1.52,2.92,2.27,4.28
			C844.42,571.7,844.6,571.71,844.62,571.68z M859.62,533.72c-3.37-1.71-5.65-4.45-8.69-6.49c-4.15-2.78-7.8-6.11-11.7-9.23
			c-1.67,2.55-0.22,5.38-1.04,7.88c-0.86,2.6-0.36,5.13-0.51,7.69c-0.16,2.69-0.04,5.4-0.04,8.05c8.28-1.91,16.35-3.78,24.64-5.7
			C861.31,535.1,860.6,534.21,859.62,533.72z"/>
		<linearGradient id="SVGID_5_" gradientUnits="userSpaceOnUse" x1="990.8007" y1="630.0431" x2="990.8007" y2="519.7301">
			<stop  offset="0" style="stop-color:#FDEBF3"/>
			<stop  offset="0.1124" style="stop-color:#F7EAF3"/>
			<stop  offset="0.2303" style="stop-color:#FAF1F2"/>
			<stop  offset="0.3539" style="stop-color:#FFFEF0"/>
			<stop  offset="0.478" style="stop-color:#FBFBF0"/>
			<stop  offset="0.5952" style="stop-color:#F0F3F2"/>
			<stop  offset="0.7093" style="stop-color:#DDE5F4"/>
			<stop  offset="0.7135" style="stop-color:#DCE4F4"/>
			<stop  offset="1" style="stop-color:#FEE9DF"/>
		</linearGradient>
		<path class="st4" d="M1019.58,536.3c-1.87,2.04-4.22,2.81-6.92,3.22c-2.79,0.43-5.56,0.96-8.39,1.06
			c-2.97,0.11-5.95,0.08-8.92-0.01c-1.11-0.03-2.23-0.36-3.32-0.63c-1.17-0.29-2.31-0.69-3.46-1.03c-0.1-0.03-0.3-0.03-0.32,0
			c-0.47,0.91-1.71-0.35-2.16,0.56c-2.82-0.24-5.09,0.62-7.21,2.21c-1.62,1.21-3.75,3.79-4.31,5.51c-0.8,2.45-0.49,4.93-0.65,7.4
			c-0.25,3.97-0.82,7.92-0.67,11.91c0.15,3.95,0.51,7.96-0.11,11.84c-0.56,3.53-0.39,7.01-0.5,10.51c-0.11,3.48,0.33,7-0.1,10.44
			c-1.01,8.11-0.36,16.23-0.59,24.34c0,0.07-1.31,3.69-1.32,3.77c-0.16,1.45-1.64,1.84-2.82,2.31c-1.04,0.42-2.25,0.47-3.34-0.21
			c-0.3-0.19-0.86-0.03-1.23-0.17c-0.71-0.25-1.27-0.64-1.22-1.43c0.04-0.66,0.01-1.32,0.01-1.98c0-26.45,0.02-52.91-0.02-79.36
			c-0.01-3.81,1.78-7.03,3.95-10.19c0.62-0.91,1.17-1.87,1.89-2.71c0.74-0.87,1.57-1.76,2.4-2.5c1.96-1.75,4.26-3.29,6.64-4.62
			c2.29-1.28,4.78-2.27,7.47-3c2.69-0.73,5.21-2.01,7.64-3.28c1.16-0.6,1.97-0.76,3.2-0.26c5.86,2.37,11.48,5.07,16.87,8.17
			c2.38,1.37,4.18,3.21,6.24,4.83C1019.4,533.89,1019.69,535.02,1019.58,536.3z"/>
		<linearGradient id="SVGID_6_" gradientUnits="userSpaceOnUse" x1="982.6707" y1="575.8468" x2="1071.6591" y2="486.8585">
			<stop  offset="0" style="stop-color:#FDEBF3"/>
			<stop  offset="0.1124" style="stop-color:#F7EAF3"/>
			<stop  offset="0.2303" style="stop-color:#FAF1F2"/>
			<stop  offset="0.3539" style="stop-color:#FFFEF0"/>
			<stop  offset="0.478" style="stop-color:#FBFBF0"/>
			<stop  offset="0.5952" style="stop-color:#F0F3F2"/>
			<stop  offset="0.7093" style="stop-color:#DDE5F4"/>
			<stop  offset="0.7135" style="stop-color:#DCE4F4"/>
			<stop  offset="1" style="stop-color:#FEE9DF"/>
		</linearGradient>
		<path class="st5" d="M994.98,518.82c1.91-3.26,1.56-6.78,1.37-10.23c-0.07-1.23-1.16-2.4-1.61-3.64
			c-1.04-2.84-2.19-5.67-2.87-8.58c-0.61-2.59-0.65-5.28-0.95-7.98c3.07-1.1,5.95-2.16,8.86-3.16c2.65-0.91,5.32-1.75,7.99-2.63
			c5.32-1.75,10.62-3.57,15.92-5.37c3.68-1.25,7.37-2.53,11.03-3.85c5.25-1.9,10.61-3.58,15.92-5.37c0.17-0.06,0.31-0.17,0.32-0.17
			c0.61,0.65,1.14,1.32,1.8,1.89c3.57,3.08,7.14,6.15,10.75,9.2c4.08,3.44,7.28,7.44,9.61,11.86c1.46,2.77,2.38,5.76,3.34,8.7
			c0.79,2.42,1.31,4.89,1.4,7.44c0.03,0.95,0.52,1.89,0.69,2.46c-7.33,8.82-14.42,17.34-21.66,26.05c-11.66,0-23.64,0-35.74,0
			c-1.3-2.8-3.64-4.89-6.56-6.87C1008.6,524.5,1001.82,521.75,994.98,518.82z M999.36,562.21c2.06,0.98,4.17,1.89,6.2,2.91
			c2.4,1.2,4.69,2.58,7.11,3.74c2.58,1.23,5.41,2.11,7.89,3.47c4.59,2.52,9.45,4.62,14.16,6.94c3.64,1.8,7.26,3.64,10.95,5.37
			c2.61,1.23,5.24,2.41,7.78,3.75c1.23,0.65,2.51,1.65,4.32,1.36c7.03-6.19,13.56-12.74,17.87-20.49
			c-6.22-10.91-12.38-21.72-18.56-32.55c-12.23,0-24.43,0-36.12,0c-1.09,0.9-1.81,1.66-2.71,2.19c-2.24,1.33-4.93,1.92-7.49,2.18
			c-3.18,0.32-6.35,0.97-9.63,0.7c-2.16-0.18-4.36-0.03-6.25-0.03c-3.86,4.55-5.57,9.59-6.99,15.08
			C991.7,558.51,995.51,560.39,999.36,562.21z M1050.79,588.43c-4.29-2.43-8.94-4.31-13.36-6.53c-2.55-1.28-5.33-2.26-7.8-3.64
			c-4.31-2.41-8.95-4.3-13.36-6.53c-2.55-1.29-5.34-2.25-7.8-3.64c-4.3-2.42-8.96-4.27-13.36-6.54c-2.28-1.18-4.64-2.25-7.09-3.43
			c-0.28,0.73-0.79,1.46-0.81,2.2c-0.1,2.73,0.01,5.46-0.05,8.18c-0.07,2.77,1.01,5.44,0.75,8.24c-0.09,0.97,0.59,2.02,1.06,2.98
			c1.91,3.92,4.58,7.42,8.17,10.37c1.22,1.01,2.66,1.82,3.9,2.82c2.46,1.97,5.39,3.34,8.25,4.8c3.64,1.86,7.67,2.76,11.84,2.78
			c4.31,0.02,8.68,0.61,12.94-0.51c4.06,0.49,7.37-1.62,11.09-2.34c3.65-2.28,7.8-3.99,10.81-7.03
			C1054.24,589.9,1052.38,589.34,1050.79,588.43z M1040.88,461.85c-1.04-1.02-2.81,0.26-3.88-0.92c-0.21-0.23-1.05-0.06-1.6-0.03
			c-3.43,0.21-6.84-0.16-10.32,0.44c-2.74,0.47-5.64,0.73-8.3,1.36c-5.3,1.25-10.37,3.16-15.01,5.79
			c-4.35,2.46-7.37,5.83-9.02,10.02c-1.06,2.68-2.22,5.42-1.35,8.53c2.25-0.78,4.41-1.53,6.56-2.29c3.85-1.36,7.72-2.72,11.6-4
			c4.93-1.63,9.85-3.31,14.75-4.99c3.87-1.33,7.75-2.61,11.58-4.03c2.3-0.85,4.71-1.62,7.1-2.37c2.39-0.75,4.72-1.61,7.13-2.44
			C1047.46,464.52,1044.6,462.6,1040.88,461.85z M1080.45,540.61c0-2.58,0.11-5.02-0.03-7.44c-0.15-2.46,0.46-4.93-0.53-7.42
			c-0.54-1.35-0.01-2.99-0.12-4.49c-0.11-1.53-0.5-3.04-0.61-4.57c-0.12-1.66,0.21-3.38-1.18-4.93c-1.16,1.94-2.78,3.58-4.19,5.33
			c-1.66,2.06-3.35,4.1-5.11,6.1c-2.14,2.42-4.02,5-6.09,7.45c-1.48,1.75-3.04,3.45-4.57,5.19
			C1065.56,537.44,1072.92,539.01,1080.45,540.61z M1058.56,537.07c5.95,10.45,12.11,20.41,17.68,30.53
			c1.65-3.92,2.58-8.08,3.25-12.3c0.7-4.39,1.26-8.78,0.84-13.55C1073.14,540.19,1065.99,538.66,1058.56,537.07z"/>
	</g>
</g>
</svg>
