<?xml version="1.0" encoding="utf-8"?>
<!-- Generator: Adobe Illustrator 24.1.2, SVG Export Plug-In . SVG Version: 6.00 Build 0)  -->
<svg version="1.1" id="Layer_1" xmlns="http://www.w3.org/2000/svg" xmlns:xlink="http://www.w3.org/1999/xlink" x="0px" y="0px"
	 viewBox="800 360 320 340" style="enable-background:new 0 0 1920 1080;" xml:space="preserve">
<style type="text/css">
	.st0{fill:url(#SVGID_1_);}
	.st1{fill:url(#SVGID_2_);}
	.st2{fill:url(#SVGID_3_);stroke:#000000;stroke-miterlimit:10;}
</style>
<g>
	<g>
		<path d="M1110.77,407.35c1.72,9.96,3.66,19.76,5.07,29.63c2.68,18.8,4.07,37.69,4.1,56.64c0.06,35.12-3.89,69.76-17.19,103.25
			c-8.33,20.97-20.07,40.35-37.25,57.1c-23.83,23.24-54.09,36.69-89.04,43.63c-15.87,3.15-30.62,0.3-45.42-3.27
			c-50.6-12.21-84.93-40.23-106.1-80.74c-11.28-21.58-18.16-44.26-21.17-67.66c-2.17-16.92-3.82-33.99-3.82-50.99
			c0-17.85,1.87-35.72,3.64-53.54c1.07-10.85,3.52-21.6,5.26-32.41c0.26-1.6,0.86-2.24,2.87-2.25c37.04-0.14,72.8-6.72,107.93-16.13
			c12.69-3.4,25.07-7.63,37.64-11.39c1.19-0.36,2.81-0.37,3.97,0.02c31.23,10.75,63.33,18.95,96.51,23.92
			c16.4,2.46,32.93,4,49.61,4.17C1108.34,407.36,1109.32,407.35,1110.77,407.35z M1109.3,408.57c-1.61,0-2.82,0.08-4.01-0.01
			c-13.71-1.02-27.51-1.5-41.1-3.21c-35.13-4.42-68.97-13.06-101.89-24.35c-2.08-0.71-3.82-0.77-5.93-0.05
			c-24.37,8.37-49.33,15.12-75,19.89c-22.42,4.16-44.99,7.4-68.06,7.19c-1.83-0.02-2.76,0.59-3.16,2.43
			c-4.08,18.92-6.54,38.01-7.75,57.2c-1.69,26.95-1.31,53.86,3.19,80.66c3.88,23.12,10.43,45.6,21.93,66.88
			c21.21,39.26,55.12,66.22,104.41,77.95c14.06,3.34,28.09,6.22,43.17,3.31c33.58-6.48,62.99-18.99,86.52-40.81
			c17.14-15.89,29.16-34.4,37.74-54.61c15.53-36.58,19.54-74.59,18.93-113.14c-0.31-19.33-2.01-38.58-5.08-57.73
			C1112.06,423.01,1110.63,415.89,1109.3,408.57z"/>
		<linearGradient id="SVGID_1_" gradientUnits="userSpaceOnUse" x1="801.4698" y1="539.036" x2="1118.347" y2="539.036">
			<stop  offset="0.0337" style="stop-color:#9B9B98"/>
			<stop  offset="0.1338" style="stop-color:#A4A5A7"/>
			<stop  offset="0.2191" style="stop-color:#AEB0B7"/>
			<stop  offset="0.3518" style="stop-color:#9FA3AA"/>
			<stop  offset="0.6054" style="stop-color:#788187"/>
			<stop  offset="0.7191" style="stop-color:#657076"/>
			<stop  offset="1" style="stop-color:#8B949A"/>
		</linearGradient>
		<path class="st0" d="M1109.3,408.57c1.34,7.33,2.77,14.44,3.91,21.59c3.07,19.15,4.77,38.4,5.08,57.73
			c0.61,38.56-3.4,76.56-18.93,113.14c-8.58,20.2-20.6,38.71-37.74,54.61c-23.53,21.82-52.94,34.33-86.52,40.81
			c-15.08,2.91-29.11,0.03-43.17-3.31c-49.29-11.72-83.2-38.69-104.41-77.95c-11.5-21.28-18.05-43.76-21.93-66.88
			c-4.5-26.79-4.88-53.71-3.19-80.66c1.21-19.19,3.67-38.28,7.75-57.2c0.4-1.84,1.33-2.45,3.16-2.43
			c23.06,0.21,45.64-3.03,68.06-7.19c25.67-4.77,50.64-11.52,75-19.89c2.11-0.72,3.85-0.66,5.93,0.05
			c32.92,11.29,66.76,19.93,101.89,24.35c13.59,1.71,27.39,2.19,41.1,3.21C1106.48,408.64,1107.68,408.57,1109.3,408.57z
			 M1093.87,421.1c-10.67-0.7-20.8-1.02-30.82-2.07c-35.05-3.69-68.75-11.84-101.47-23.07c-2.08-0.72-3.72-0.8-5.85-0.09
			c-41.47,13.89-84.03,23.64-128.9,24.38c-1.81,0.03-2.43,0.55-2.75,2.05c-3.76,17.52-6.04,35.18-7.2,52.95
			c-1.37,21.1-0.84,42.15,1.8,63.19c2.79,22.23,8.4,43.82,18.74,64.4c18.86,37.55,50.12,63.5,96.91,74.46
			c11.6,2.72,23.2,5.48,35.7,3.3c28.04-4.9,53.2-14.48,74.17-31.41c19.93-16.09,32.97-35.85,41.93-57.75
			c12.39-30.26,16.2-61.67,15.75-93.44c-0.26-18.04-2.26-36.08-3.96-54.08C1097.21,436.26,1095.26,428.7,1093.87,421.1z"/>
		<path d="M1093.87,421.1c1.39,7.6,3.34,15.16,4.06,22.81c1.7,18.01,3.7,36.04,3.96,54.08c0.45,31.77-3.37,63.18-15.75,93.44
			c-8.96,21.9-22,41.66-41.93,57.75c-20.98,16.94-46.13,26.51-74.17,31.41c-12.5,2.18-24.1-0.58-35.7-3.3
			c-46.78-10.96-78.05-36.91-96.91-74.46c-10.33-20.57-15.95-42.17-18.74-64.4c-2.64-21.04-3.18-42.09-1.8-63.19
			c1.15-17.77,3.44-35.43,7.2-52.95c0.32-1.5,0.95-2.02,2.75-2.05c44.87-0.75,87.43-10.5,128.9-24.38c2.13-0.71,3.76-0.62,5.85,0.09
			c32.72,11.23,66.42,19.38,101.47,23.07C1073.07,420.08,1083.2,420.4,1093.87,421.1z M1092.48,422.19
			c-1.29-0.06-2.16-0.07-3.02-0.14c-11.19-0.81-22.46-1.19-33.56-2.52c-32.54-3.89-63.87-11.74-94.39-22.03
			c-1.65-0.56-3.96-0.67-5.58-0.14c-41.25,13.61-83.46,23.39-128.01,24.26c-0.83,0.02-2.19,1.14-2.36,1.89
			c-4.03,18.06-6.26,36.32-7.29,54.66c-0.99,17.6-0.71,35.2,1.13,52.79c1.87,17.87,5.25,35.46,11.44,52.62
			c7.57,21.01,18.69,40.42,35.95,56.96c20.34,19.49,45.82,31.44,75.47,37.06c6.53,1.24,13.41,3.1,19.82,2.44
			c23.25-2.38,44.92-9.04,64.41-20.4c24.23-14.12,40.87-33.44,52.43-56.18c10.03-19.74,15.77-40.44,18.63-61.78
			c2.19-16.4,3.7-32.85,2.77-49.34c-0.95-16.82-2.64-33.62-4.35-50.4C1095.28,435.34,1093.67,428.8,1092.48,422.19z"/>
		<linearGradient id="SVGID_2_" gradientUnits="userSpaceOnUse" x1="817.6982" y1="538.6042" x2="1100.5842" y2="538.6042">
			<stop  offset="0" style="stop-color:#00B8B5"/>
			<stop  offset="0.5" style="stop-color:#B7E2E0"/>
			<stop  offset="1" style="stop-color:#00AEA8"/>
		</linearGradient>
		<path class="st1" d="M1092.48,422.19c1.19,6.61,2.8,13.16,3.47,19.77c1.71,16.78,3.41,33.58,4.35,50.4
			c0.93,16.48-0.58,32.94-2.77,49.34c-2.85,21.34-8.6,42.04-18.63,61.78c-11.56,22.74-28.2,42.06-52.43,56.18
			c-19.49,11.36-41.15,18.01-64.41,20.4c-6.41,0.66-13.29-1.21-19.82-2.44c-29.65-5.62-55.13-17.57-75.47-37.06
			c-17.26-16.54-28.38-35.95-35.95-56.96c-6.18-17.16-9.56-34.75-11.44-52.62c-1.85-17.59-2.12-35.18-1.13-52.79
			c1.03-18.34,3.26-36.6,7.29-54.66c0.17-0.76,1.53-1.88,2.36-1.89c44.55-0.87,86.77-10.65,128.01-24.26
			c1.62-0.53,3.93-0.42,5.58,0.14c30.53,10.29,61.85,18.14,94.39,22.03c11.11,1.33,22.37,1.71,33.56,2.52
			C1090.32,422.11,1091.19,422.13,1092.48,422.19z"/>
	</g>
	<linearGradient id="SVGID_3_" gradientUnits="userSpaceOnUse" x1="858.3641" y1="539.1525" x2="1076.7383" y2="539.1525">
		<stop  offset="0" style="stop-color:#FDEBF3"/>
		<stop  offset="0.1124" style="stop-color:#F7EAF3"/>
		<stop  offset="0.2303" style="stop-color:#FAF1F2"/>
		<stop  offset="0.3539" style="stop-color:#FFFEF0"/>
		<stop  offset="0.478" style="stop-color:#FBFBF0"/>
		<stop  offset="0.5952" style="stop-color:#F0F3F2"/>
		<stop  offset="0.7093" style="stop-color:#DDE5F4"/>
		<stop  offset="0.7135" style="stop-color:#DCE4F4"/>
		<stop  offset="1" style="stop-color:#FEE9DF"/>
	</linearGradient>
	<path class="st2" d="M986.55,490.49c2.77,2.11,5.37,3.93,7.76,5.95c26.01,21.97,51.98,43.97,77.97,65.95
		c5.93,5.01,6.14,9.95-0.53,14.49c-5.1,3.47-11.15,5.97-16.94,8.64c-0.8,0.37-2.89-0.46-3.81-1.23
		c-7.49-6.25-14.86-12.6-22.22-18.96c-13.55-11.72-27.1-23.43-40.52-35.26c-1.4-1.23-2.67-3.22-2.68-4.86
		c-0.04-11.1,0.28-22.2,0.51-33.3C986.09,491.58,986.3,491.24,986.55,490.49z M910.54,475.11c-14.1,3.94-26.51,10.12-36.4,19.76
		c-1.82,1.77-2.24,3,0,4.66c2.16,1.6,4.09,3.43,6.12,5.16c13.67,11.64,27.35,23.27,41.01,34.91c1.39,1.18,2.52,2.34,4.58,0.57
		c11.09-9.58,22.25-19.1,33.42-28.61c1.39-1.19,1.42-2.1,0.02-3.31c-13.03-11.24-26-22.53-39.03-33.77c-0.73-0.63-1.77-1-2.69-1.51
		C915.09,473.72,912.84,474.47,910.54,475.11z M1076.42,561.58c-0.59-3.92-1.75-7.83-1.74-11.75c0.01-7.86-3.38-14.62-7.75-21.28
		c-2.8-4.26-5.22-8.74-7.3-13.28c-2.42-5.26-6.18-9.39-11.38-12.87c-3.05-2.04-6.08-4.57-7.87-7.44
		c-2.63-4.22-5.92-7.67-10.42-10.36c-3.98-2.37-7.96-4.74-12.01-7.01c-8.56-4.78-18.29-6.27-28.2-7.25
		c-2.69-0.27-3.82,0.68-3.73,3.04c0.14,3.58-0.11,7.17,0.13,10.73c0.09,1.29,0.74,2.8,1.74,3.74c4.51,4.25,9.18,8.39,13.91,12.47
		c21.93,18.95,43.89,37.87,65.87,56.79c2.57,2.21,5.3,4.29,8.55,6.91C1076.33,562.62,1076.49,562.09,1076.42,561.58z M858.79,526.21
		c1.8,8.8,4.18,17.26,12.71,23.54c7.92,5.84,16.73,10.02,26.81,12.21c1.12,0.24,2.97-0.49,3.9-1.27
		c5.57-4.68,10.79-9.67,16.49-14.22c2.61-2.08,2.23-3.19-0.03-5.13c-11.68-9.98-23.21-20.08-34.8-30.14
		c-4.54-3.94-9.1-7.86-13.63-11.77C861.4,506.16,856.89,516.9,858.79,526.21z M1037.31,604.39c5-2.27,9.48-5.24,11.98-9.79
		c3.09-5.63,2.19-7.52-4.29-9.85c-0.61-0.22-1.2-0.47-1.81-0.68c-14-4.73-28.24-8.62-43.57-7.96c-9.36,0.4-18.13,2.37-24.69,8.59
		c-1.07,1.01-1.81,2.87-1.58,4.19c0.91,5.24,3.53,9.89,8.15,13.54c7.71,6.1,17.21,7.94,27.33,8.34
		C1018.89,610.42,1028.44,608.42,1037.31,604.39z M983.24,523.6c-0.09,0.35,0.05,0.08,0.04-0.19c-0.18-11.58-0.34-23.16-0.65-34.74
		c-0.03-1.08-0.85-2.36-1.75-3.18c-5.64-5.16-11.45-10.17-17.11-15.31c-2.14-1.94-4.62-2.81-7.67-2.62
		c-6.37,0.39-12.77,0.56-19.1,1.26c-5.17,0.57-10.24,1.78-14.76,2.6C942.78,488.99,963.14,506.4,983.24,523.6z M1046.89,582.99
		c-20.1-16.95-40.21-33.91-60.71-51.2c-0.4,1.07-0.68,1.49-0.69,1.92c-0.05,13.55-0.08,27.1-0.12,40.65c0,1.76,0.88,2.25,2.92,1.93
		c3.67-0.58,7.37-1.2,11.08-1.35c15.19-0.59,29.36,3.14,43.29,7.78c1.16,0.39,2.33,0.75,3.49,1.13
		C1046.41,583.57,1046.65,583.28,1046.89,582.99z M947.13,558.11c11.02-9.22,21.99-18.48,33.05-27.67c1.77-1.48,1.69-2.5-0.05-3.93
		c-4.85-3.98-9.63-8.02-14.3-12.15c-1.9-1.68-3.3-1.64-5.2,0c-10.7,9.23-21.47,18.41-32.27,27.56c-1.58,1.34-1.75,2.33-0.06,3.73
		c4.99,4.13,9.84,8.37,14.77,12.54c0.53,0.45,1.19,0.78,1.95,1.28C945.77,558.99,946.53,558.61,947.13,558.11z M981.64,532.62
		c-10.83,9.25-21.62,18.52-32.48,27.75c-1.7,1.45-0.91,2.37,0.39,3.51c5.46,4.78,10.82,9.64,16.3,14.4
		c6.43,5.6,6.41,5.49,14.09,1.29c2.5-1.37,3.58-2.89,3.55-5.48c-0.16-13.08-0.11-26.16-0.15-39.24c0-0.89-0.13-1.78-0.23-2.96
		C982.35,532.26,981.93,532.38,981.64,532.62z M940.34,560c-4.65-4.02-9.41-7.95-13.96-12.04c-1.89-1.7-3.19-1.71-5.09-0.02
		c-5.44,4.81-10.96,9.55-16.61,14.17c-2.12,1.73-2.93,3.29-1.46,5.64c0.64,1.02,0.38,2.42,0.83,3.56c0.61,1.54,1.1,3.37,2.38,4.42
		c2.67,2.21,5.83,3.98,8.76,5.96c1.81,1.23,3.25,1,4.87-0.4c6.72-5.85,13.54-11.61,20.3-17.41c0.61-0.52,1.11-1.13,1.84-1.89
		C941.54,561.26,941.01,560.57,940.34,560z M966.01,581.87c-6.45-5.52-12.94-11.01-19.38-16.53c-1.42-1.22-2.45-0.71-3.6,0.29
		c-3.47,3.01-7.01,5.97-10.47,8.99c-3.65,3.18-7.25,6.41-11.2,9.91c1.39,0.36,2.18,0.63,3,0.77c7.22,1.19,14.44,2.39,21.68,3.48
		c1.48,0.22,3.21,0.36,4.54-0.08c5.3-1.77,10.49-3.78,15.96-5.79C966.27,582.36,966.22,582.05,966.01,581.87z M982.75,476.56
		c0.13-6.65,0.14-6.67-7.67-7.6c-2.85-0.34-5.71-0.57-7.36-0.73c4.49,4.2,9.36,8.76,15.02,14.05
		C982.75,479.82,982.72,478.19,982.75,476.56z"/>
</g>
</svg>
