<?xml version="1.0" encoding="utf-8"?>
<!-- Generator: Adobe Illustrator 24.1.2, SVG Export Plug-In . SVG Version: 6.00 Build 0)  -->
<svg version="1.1" id="Layer_1" xmlns="http://www.w3.org/2000/svg" xmlns:xlink="http://www.w3.org/1999/xlink" x="0px" y="0px"
	 viewBox="800 360 320 340" style="enable-background:new 0 0 1920 1080;" xml:space="preserve">
<style type="text/css">
	.st0{fill:url(#SVGID_1_);}
	.st1{fill:url(#SVGID_2_);}
	.st2{fill:url(#SVGID_3_);}
	.st3{fill:url(#SVGID_4_);}
	.st4{fill:url(#SVGID_5_);}
	.st5{fill:url(#SVGID_6_);}
	.st6{fill:url(#SVGID_7_);}
	.st7{fill:url(#SVGID_8_);}
	.st8{fill:url(#SVGID_9_);}
	.st9{fill:url(#SVGID_10_);}
	.st10{fill:url(#SVGID_11_);}
</style>
<g>
	<path d="M1110.77,407.35c1.72,9.96,3.66,19.76,5.07,29.63c2.68,18.8,4.07,37.69,4.1,56.64c0.06,35.12-3.89,69.76-17.19,103.25
		c-8.33,20.97-20.07,40.35-37.25,57.1c-23.83,23.24-54.09,36.69-89.04,43.63c-15.87,3.15-30.62,0.3-45.42-3.27
		c-50.6-12.21-84.93-40.23-106.1-80.74c-11.28-21.58-18.16-44.26-21.17-67.66c-2.17-16.92-3.82-33.99-3.82-50.99
		c0-17.85,1.87-35.72,3.64-53.54c1.07-10.85,3.52-21.6,5.26-32.41c0.26-1.6,0.86-2.24,2.87-2.25c37.04-0.14,72.8-6.72,107.93-16.13
		c12.69-3.4,25.07-7.63,37.64-11.39c1.19-0.36,2.81-0.37,3.97,0.02c31.23,10.75,63.33,18.95,96.51,23.92
		c16.4,2.46,32.93,4,49.61,4.17C1108.34,407.36,1109.32,407.35,1110.77,407.35z M1109.3,408.57c-1.61,0-2.82,0.08-4.01-0.01
		c-13.71-1.02-27.51-1.5-41.1-3.21c-35.13-4.42-68.97-13.06-101.89-24.35c-2.08-0.71-3.82-0.77-5.93-0.05
		c-24.37,8.37-49.33,15.12-75,19.89c-22.42,4.16-44.99,7.4-68.06,7.19c-1.83-0.02-2.76,0.59-3.16,2.43
		c-4.08,18.92-6.54,38.01-7.75,57.2c-1.69,26.95-1.31,53.86,3.19,80.66c3.88,23.12,10.43,45.6,21.93,66.88
		c21.21,39.26,55.12,66.22,104.41,77.95c14.06,3.34,28.09,6.22,43.17,3.31c33.58-6.48,62.99-18.99,86.52-40.81
		c17.14-15.89,29.16-34.4,37.74-54.61c15.53-36.58,19.54-74.59,18.93-113.14c-0.31-19.33-2.01-38.58-5.08-57.73
		C1112.06,423.01,1110.63,415.89,1109.3,408.57z"/>
	<linearGradient id="SVGID_1_" gradientUnits="userSpaceOnUse" x1="801.4698" y1="539.036" x2="1118.347" y2="539.036">
		<stop  offset="0.0337" style="stop-color:#9B9B98"/>
		<stop  offset="0.1338" style="stop-color:#A4A5A7"/>
		<stop  offset="0.2191" style="stop-color:#AEB0B7"/>
		<stop  offset="0.3518" style="stop-color:#9FA3AA"/>
		<stop  offset="0.6054" style="stop-color:#788187"/>
		<stop  offset="0.7191" style="stop-color:#657076"/>
		<stop  offset="1" style="stop-color:#8B949A"/>
	</linearGradient>
	<path class="st0" d="M1109.3,408.57c1.34,7.33,2.77,14.44,3.91,21.59c3.07,19.15,4.77,38.4,5.08,57.73
		c0.61,38.56-3.4,76.56-18.93,113.14c-8.58,20.2-20.6,38.71-37.74,54.61c-23.53,21.82-52.94,34.33-86.52,40.81
		c-15.08,2.91-29.11,0.03-43.17-3.31c-49.29-11.72-83.2-38.69-104.41-77.95c-11.5-21.28-18.05-43.76-21.93-66.88
		c-4.5-26.79-4.88-53.71-3.19-80.66c1.21-19.19,3.67-38.28,7.75-57.2c0.4-1.84,1.33-2.45,3.16-2.43
		c23.06,0.21,45.64-3.03,68.06-7.19c25.67-4.77,50.64-11.52,75-19.89c2.11-0.72,3.85-0.66,5.93,0.05
		c32.92,11.29,66.76,19.93,101.89,24.35c13.59,1.71,27.39,2.19,41.1,3.21C1106.48,408.64,1107.68,408.57,1109.3,408.57z
		 M1093.87,421.1c-10.67-0.7-20.8-1.02-30.82-2.07c-35.05-3.69-68.75-11.84-101.47-23.07c-2.08-0.72-3.72-0.8-5.85-0.09
		c-41.47,13.89-84.03,23.64-128.9,24.38c-1.81,0.03-2.43,0.55-2.75,2.05c-3.76,17.52-6.04,35.18-7.2,52.95
		c-1.37,21.1-0.84,42.15,1.8,63.19c2.79,22.23,8.4,43.82,18.74,64.4c18.86,37.55,50.12,63.5,96.91,74.46
		c11.6,2.72,23.2,5.48,35.7,3.3c28.04-4.9,53.2-14.48,74.17-31.41c19.93-16.09,32.97-35.85,41.93-57.75
		c12.39-30.26,16.2-61.67,15.75-93.44c-0.26-18.04-2.26-36.08-3.96-54.08C1097.21,436.26,1095.26,428.7,1093.87,421.1z"/>
	<path d="M1093.87,421.1c1.39,7.6,3.34,15.16,4.06,22.81c1.7,18.01,3.7,36.04,3.96,54.08c0.45,31.77-3.37,63.18-15.75,93.44
		c-8.96,21.9-22,41.66-41.93,57.75c-20.98,16.94-46.13,26.51-74.17,31.41c-12.5,2.18-24.1-0.58-35.7-3.3
		c-46.78-10.96-78.05-36.91-96.91-74.46c-10.33-20.57-15.95-42.17-18.74-64.4c-2.64-21.04-3.18-42.09-1.8-63.19
		c1.15-17.77,3.44-35.43,7.2-52.95c0.32-1.5,0.95-2.02,2.75-2.05c44.87-0.75,87.43-10.5,128.9-24.38c2.13-0.71,3.76-0.62,5.85,0.09
		c32.72,11.23,66.42,19.38,101.47,23.07C1073.07,420.08,1083.2,420.4,1093.87,421.1z M1092.48,422.19
		c-1.29-0.06-2.16-0.07-3.02-0.14c-11.19-0.81-22.46-1.19-33.56-2.52c-32.54-3.89-63.87-11.74-94.39-22.03
		c-1.65-0.56-3.96-0.67-5.58-0.14c-41.25,13.61-83.46,23.39-128.01,24.26c-0.83,0.02-2.19,1.14-2.36,1.89
		c-4.03,18.06-6.26,36.32-7.29,54.66c-0.99,17.6-0.71,35.2,1.13,52.79c1.87,17.87,5.25,35.46,11.44,52.62
		c7.57,21.01,18.69,40.42,35.95,56.96c20.34,19.49,45.82,31.44,75.47,37.06c6.53,1.24,13.41,3.1,19.82,2.44
		c23.25-2.38,44.92-9.04,64.41-20.4c24.23-14.12,40.87-33.44,52.43-56.18c10.03-19.74,15.77-40.44,18.63-61.78
		c2.19-16.4,3.7-32.85,2.77-49.34c-0.95-16.82-2.64-33.62-4.35-50.4C1095.28,435.34,1093.67,428.8,1092.48,422.19z"/>
	
		<radialGradient id="SVGID_2_" cx="958.7303" cy="538.3301" r="232.8353" gradientTransform="matrix(0.6616 0 0 0.5654 324.8553 234.2591)" gradientUnits="userSpaceOnUse">
		<stop  offset="0.1798" style="stop-color:#F4E8D9"/>
		<stop  offset="0.5899" style="stop-color:#EDD089"/>
		<stop  offset="1" style="stop-color:#FEE962"/>
	</radialGradient>
	<path class="st1" d="M1092.48,422.19c1.19,6.61,2.8,13.16,3.47,19.77c1.71,16.78,3.41,33.58,4.35,50.4
		c0.93,16.48-0.58,32.94-2.77,49.34c-2.85,21.34-8.6,42.04-18.63,61.78c-11.56,22.74-28.2,42.06-52.43,56.18
		c-19.49,11.36-41.15,18.01-64.41,20.4c-6.41,0.66-13.29-1.21-19.82-2.44c-29.65-5.62-55.13-17.57-75.47-37.06
		c-17.26-16.54-28.38-35.95-35.95-56.96c-6.18-17.16-9.56-34.75-11.44-52.62c-1.85-17.59-2.12-35.18-1.13-52.79
		c1.03-18.34,3.26-36.6,7.29-54.66c0.17-0.76,1.53-1.88,2.36-1.89c44.55-0.87,86.77-10.65,128.01-24.26
		c1.62-0.53,3.93-0.42,5.58,0.14c30.53,10.29,61.85,18.14,94.39,22.03c11.11,1.33,22.37,1.71,33.56,2.52
		C1090.32,422.11,1091.19,422.13,1092.48,422.19z M943.97,460.01c1.13,7.33,2.11,14.39,3.35,21.41c0.89,5.03-0.64,9.33-4.61,13
		c-5.67,5.25-11.36,10.48-17.2,15.6c-3.93,3.44-5.28,7.76-5.97,12.22c-0.26,1.68,0.43,3.96,1.7,5.22
		c7.18,7.1,15.84,11.51,27.45,10.2c4.49-0.51,8.79-2.03,13.63-0.79c12.41,3.17,23.34,0.63,32.12-7.52c1.85-1.72,3.36-4.46,3.37-6.73
		c0.01-4.02-1.45-8-4.83-11.12c-5.84-5.39-11.66-10.78-17.63-16.06c-5.63-4.98-6.28-10.61-4.59-17.16
		c1.52-5.9,1.78-12.04,2.63-18.26C963.55,460.01,954.23,460.01,943.97,460.01z M920.71,537.83c0.29,1.76,0.3,3.28,0.82,4.65
		c1.23,3.27,2.06,6.84,4.25,9.59c2.54,3.19,6.3,5.68,9.63,8.38c6.17,4.99,8.43,11.25,8.5,18.31c0.07,7.05,0.34,14.11,0.34,21.16
		c0,2.03,0.86,2.53,3.09,2.5c7.49-0.1,14.99-0.11,22.48,0c2.53,0.04,3.2-0.77,3.17-2.81c-0.11-6.07,0.02-12.14,0-18.22
		c-0.02-8.64,2.58-16.33,10.57-22.18c1.33-0.98,2.31-2.34,3.73-3.19c7.03-4.26,7.58-10.96,9.56-17.58
		c-1.56,0.34-2.73,0.49-3.82,0.84c-8.32,2.64-16.95,3.79-25.78,3.79c-1.26,0-2.7-0.46-3.73-1.09c-2.48-1.53-7.18-1.63-9.65-0.24
		c-1.22,0.69-2.83,1.28-4.25,1.26C939.77,542.89,930.26,541.11,920.71,537.83z"/>
	<path d="M943.97,460.01c10.26,0,19.58,0,29.42,0c-0.84,6.22-1.11,12.36-2.63,18.26c-1.69,6.55-1.04,12.18,4.59,17.16
		c5.97,5.28,11.8,10.67,17.63,16.06c3.38,3.12,4.84,7.1,4.83,11.12c0,2.27-1.51,5-3.37,6.73c-8.78,8.16-19.71,10.7-32.12,7.52
		c-4.83-1.24-9.13,0.29-13.63,0.79c-11.61,1.31-20.27-3.1-27.45-10.2c-1.27-1.26-1.96-3.55-1.7-5.22c0.69-4.46,2.04-8.78,5.97-12.22
		c5.84-5.11,11.53-10.35,17.2-15.6c3.97-3.67,5.5-7.97,4.61-13C946.08,474.39,945.1,467.34,943.97,460.01z M978.72,536.03
		c-0.04-0.33,0.01-0.55-0.09-0.69c-8.15-11.17-9.04-22.53-1.34-34.18c0.34-0.51,0.09-1.64-0.38-2.17
		c-8.24-9.42-8.27-9.4-19.44-14.97c-2.07-1.03-4.05-2.2-6.11-3.26c-0.74-0.39-1.56-0.66-2.36-0.99c0,2.46,0.25,4.63-0.05,6.75
		c-0.66,4.63-3.85,8.14-7.65,11.23c-1.88,1.53-2.47,2.9-1.4,5.14c2.52,5.27,3.11,10.89,1.35,16.34c-1.67,5.19-4.28,10.16-6.57,15.44
		c0.49,0.17,1.67,0.63,2.9,0.96c5.45,1.47,10.85,0.63,16.32-0.1c2.82-0.37,5.84-0.29,8.65,0.14
		C967.89,536.5,973.16,537.41,978.72,536.03z M982.84,535.43c3.41-2.21,6.82-4.25,9.99-6.53c3.47-2.5,3.94-5.7,2.94-9.46
		c-2.09-7.78-9.84-11.63-15.17-17.25C972.46,510.79,973.38,526.15,982.84,535.43z M936.55,502.78c-2.06,1.63-4.03,3.13-5.93,4.69
		c-3.65,3-7,6.07-8.49,10.47c-2.03,6-1.3,8.65,4.55,12.46c1.38,0.9,2.83,1.7,4.23,2.54C939.14,524.51,941.61,510.83,936.55,502.78z
		 M946.41,461.21c-0.1,0.18-0.2,0.35-0.3,0.53c7.72,4.89,15.44,9.79,23.51,14.9c0.69-5.42,1.32-10.35,1.97-15.42
		C963.04,461.21,954.72,461.21,946.41,461.21z M946.54,465.15c0.08,1.48,0.2,2.31,0.16,3.13c-0.33,5.89,2.64,9.74,9.11,12.08
		c4.26,1.54,8.08,3.94,12.29,6.05c0.2-2.23,0.45-4.01,0.47-5.78c0.01-0.65-0.28-1.56-0.82-1.91
		C960.94,474.29,954.06,469.94,946.54,465.15z"/>
	<path d="M920.71,537.83c9.56,3.27,19.06,5.06,28.92,5.19c1.42,0.02,3.02-0.57,4.25-1.26c2.47-1.4,7.17-1.29,9.65,0.24
		c1.03,0.64,2.48,1.09,3.73,1.09c8.83-0.01,17.46-1.15,25.78-3.79c1.09-0.35,2.26-0.5,3.82-0.84c-1.98,6.62-2.53,13.32-9.56,17.58
		c-1.41,0.86-2.4,2.22-3.73,3.19c-8,5.85-10.6,13.55-10.57,22.18c0.02,6.07-0.11,12.14,0,18.22c0.04,2.04-0.64,2.85-3.17,2.81
		c-7.49-0.12-14.99-0.1-22.48,0c-2.24,0.03-3.09-0.47-3.09-2.5c-0.01-7.05-0.27-14.11-0.34-21.16c-0.07-7.06-2.34-13.32-8.5-18.31
		c-3.34-2.7-7.1-5.2-9.63-8.38c-2.19-2.75-3.02-6.33-4.25-9.59C921.01,541.11,921,539.59,920.71,537.83z M946.39,592.29
		c6.68-2.25,13.4-4.52,20.11-6.79c5.15-1.74,6.15-3.84,3.94-8.38c-0.72-1.47-1.63-2.88-2.43-4.32c-2.65-4.77-3.03-9.74-0.52-14.49
		c2.1-3.99,5.03-7.67,7.63-11.47c0.57-0.83,1.3-1.57,2.35-2.82c-4.19,0.29-7.59,0.67-10.99,0.68c-1.3,0-2.86-0.61-3.86-1.36
		c-2.18-1.63-5.81-1.62-8.08,0.07c-0.93,0.69-2.35,0.99-3.61,1.26c-0.88,0.19-1.87,0.04-2.74,0.04c-1.46,8.38-9.14,8.87-16.69,10.07
		c5.44,5.23,12.08,9.59,13.08,16.79C945.51,578.33,945.79,585.18,946.39,592.29z M972.05,574.09c1.27-6.67,4.76-11.43,9.85-15.44
		c2.34-1.85,4.35-4.01,6.77-5.78c4.37-3.2,4.25-7.73,5.69-11.99c-11.29,1.22-17.21,5.38-23.01,15.74
		C968.19,562.24,968.12,567.75,972.05,574.09z M970.8,600.68c0-4.68,0-9.11,0-13.87c-7.06,2.38-13.78,4.65-20.51,6.92
		c-4.9,1.65-5.29,2.34-3.81,6.95C954.48,600.68,962.5,600.68,970.8,600.68z M945.66,544.87c-8.11-1.52-15.4-2.89-23.2-4.35
		c1.16,3.28,2.04,6.28,3.33,9.14c0.44,0.98,1.89,2.26,2.94,2.3c4.74,0.2,9.61,0.04,13.51-2.64
		C943.76,548.28,944.52,546.42,945.66,544.87z"/>
	<linearGradient id="SVGID_3_" gradientUnits="userSpaceOnUse" x1="934.6844" y1="508.2574" x2="978.7229" y2="508.2574">
		<stop  offset="0" style="stop-color:#FDEBF3"/>
		<stop  offset="0.1124" style="stop-color:#F7EAF3"/>
		<stop  offset="0.2303" style="stop-color:#FAF1F2"/>
		<stop  offset="0.3539" style="stop-color:#FFFEF0"/>
		<stop  offset="0.478" style="stop-color:#FBFBF0"/>
		<stop  offset="0.5952" style="stop-color:#F0F3F2"/>
		<stop  offset="0.7093" style="stop-color:#DDE5F4"/>
		<stop  offset="0.7135" style="stop-color:#DCE4F4"/>
		<stop  offset="1" style="stop-color:#FEE9DF"/>
	</linearGradient>
	<path class="st2" d="M978.72,536.03c-5.56,1.38-10.83,0.47-16.17-0.35c-2.81-0.43-5.84-0.52-8.65-0.14
		c-5.47,0.73-10.87,1.57-16.32,0.1c-1.23-0.33-2.41-0.8-2.9-0.96c2.29-5.28,4.9-10.25,6.57-15.44c1.76-5.45,1.17-11.07-1.35-16.34
		c-1.07-2.24-0.49-3.6,1.4-5.14c3.8-3.09,6.99-6.6,7.65-11.23c0.3-2.11,0.05-4.29,0.05-6.75c0.79,0.33,1.61,0.6,2.36,0.99
		c2.05,1.07,4.03,2.23,6.11,3.26c11.18,5.57,11.2,5.55,19.44,14.97c0.46,0.53,0.72,1.65,0.38,2.17c-7.7,11.65-6.81,23.01,1.34,34.18
		C978.73,535.48,978.68,535.7,978.72,536.03z"/>
	<linearGradient id="SVGID_4_" gradientUnits="userSpaceOnUse" x1="975.0632" y1="518.8069" x2="996.2321" y2="518.8069">
		<stop  offset="0" style="stop-color:#FDEBF3"/>
		<stop  offset="0.1124" style="stop-color:#F7EAF3"/>
		<stop  offset="0.2303" style="stop-color:#FAF1F2"/>
		<stop  offset="0.3539" style="stop-color:#FFFEF0"/>
		<stop  offset="0.478" style="stop-color:#FBFBF0"/>
		<stop  offset="0.5952" style="stop-color:#F0F3F2"/>
		<stop  offset="0.7093" style="stop-color:#DDE5F4"/>
		<stop  offset="0.7135" style="stop-color:#DCE4F4"/>
		<stop  offset="1" style="stop-color:#FEE9DF"/>
	</linearGradient>
	<path class="st3" d="M982.84,535.43c-9.47-9.28-10.38-24.64-2.25-33.24c5.33,5.63,13.09,9.48,15.17,17.25
		c1.01,3.76,0.53,6.96-2.94,9.46C989.67,531.18,986.25,533.22,982.84,535.43z"/>
	<linearGradient id="SVGID_5_" gradientUnits="userSpaceOnUse" x1="921.1046" y1="517.8621" x2="939.1729" y2="517.8621">
		<stop  offset="0" style="stop-color:#FDEBF3"/>
		<stop  offset="0.1124" style="stop-color:#F7EAF3"/>
		<stop  offset="0.2303" style="stop-color:#FAF1F2"/>
		<stop  offset="0.3539" style="stop-color:#FFFEF0"/>
		<stop  offset="0.478" style="stop-color:#FBFBF0"/>
		<stop  offset="0.5952" style="stop-color:#F0F3F2"/>
		<stop  offset="0.7093" style="stop-color:#DDE5F4"/>
		<stop  offset="0.7135" style="stop-color:#DCE4F4"/>
		<stop  offset="1" style="stop-color:#FEE9DF"/>
	</linearGradient>
	<path class="st4" d="M936.55,502.78c5.07,8.05,2.59,21.73-5.63,30.15c-1.4-0.84-2.86-1.64-4.23-2.54
		c-5.85-3.82-6.58-6.46-4.55-12.46c1.49-4.4,4.84-7.47,8.49-10.47C932.52,505.91,934.49,504.41,936.55,502.78z"/>
	<linearGradient id="SVGID_6_" gradientUnits="userSpaceOnUse" x1="946.1137" y1="468.9223" x2="971.5978" y2="468.9223">
		<stop  offset="0" style="stop-color:#FDEBF3"/>
		<stop  offset="0.1124" style="stop-color:#F7EAF3"/>
		<stop  offset="0.2303" style="stop-color:#FAF1F2"/>
		<stop  offset="0.3539" style="stop-color:#FFFEF0"/>
		<stop  offset="0.478" style="stop-color:#FBFBF0"/>
		<stop  offset="0.5952" style="stop-color:#F0F3F2"/>
		<stop  offset="0.7093" style="stop-color:#DDE5F4"/>
		<stop  offset="0.7135" style="stop-color:#DCE4F4"/>
		<stop  offset="1" style="stop-color:#FEE9DF"/>
	</linearGradient>
	<path class="st5" d="M946.41,461.21c8.31,0,16.63,0,25.19,0c-0.65,5.08-1.28,10-1.97,15.42c-8.07-5.11-15.79-10.01-23.51-14.9
		C946.21,461.56,946.31,461.39,946.41,461.21z"/>
	<linearGradient id="SVGID_7_" gradientUnits="userSpaceOnUse" x1="946.538" y1="475.7776" x2="968.564" y2="475.7776">
		<stop  offset="0" style="stop-color:#FDEBF3"/>
		<stop  offset="0.1124" style="stop-color:#F7EAF3"/>
		<stop  offset="0.2303" style="stop-color:#FAF1F2"/>
		<stop  offset="0.3539" style="stop-color:#FFFEF0"/>
		<stop  offset="0.478" style="stop-color:#FBFBF0"/>
		<stop  offset="0.5952" style="stop-color:#F0F3F2"/>
		<stop  offset="0.7093" style="stop-color:#DDE5F4"/>
		<stop  offset="0.7135" style="stop-color:#DCE4F4"/>
		<stop  offset="1" style="stop-color:#FEE9DF"/>
	</linearGradient>
	<path class="st6" d="M946.54,465.15c7.52,4.79,14.4,9.14,21.2,13.57c0.54,0.35,0.83,1.26,0.82,1.91c-0.03,1.78-0.27,3.55-0.47,5.78
		c-4.21-2.11-8.04-4.51-12.29-6.05c-6.47-2.34-9.44-6.19-9.11-12.08C946.74,467.46,946.62,466.63,946.54,465.15z"/>
	<linearGradient id="SVGID_8_" gradientUnits="userSpaceOnUse" x1="931.4944" y1="567.2034" x2="977.4659" y2="567.2034">
		<stop  offset="0" style="stop-color:#FDEBF3"/>
		<stop  offset="0.1124" style="stop-color:#F7EAF3"/>
		<stop  offset="0.2303" style="stop-color:#FAF1F2"/>
		<stop  offset="0.3539" style="stop-color:#FFFEF0"/>
		<stop  offset="0.478" style="stop-color:#FBFBF0"/>
		<stop  offset="0.5952" style="stop-color:#F0F3F2"/>
		<stop  offset="0.7093" style="stop-color:#DDE5F4"/>
		<stop  offset="0.7135" style="stop-color:#DCE4F4"/>
		<stop  offset="1" style="stop-color:#FEE9DF"/>
	</linearGradient>
	<path class="st7" d="M946.39,592.29c-0.6-7.11-0.88-13.96-1.82-20.74c-1-7.2-7.64-11.56-13.08-16.79
		c7.56-1.2,15.24-1.69,16.69-10.07c0.87,0,1.85,0.15,2.74-0.04c1.26-0.27,2.67-0.56,3.61-1.26c2.28-1.68,5.9-1.7,8.08-0.07
		c1.01,0.75,2.56,1.36,3.86,1.36c3.4-0.01,6.79-0.39,10.99-0.68c-1.05,1.25-1.79,1.99-2.35,2.82c-2.6,3.8-5.53,7.48-7.63,11.47
		c-2.5,4.76-2.13,9.73,0.52,14.49c0.8,1.44,1.71,2.85,2.43,4.32c2.21,4.54,1.21,6.63-3.94,8.38
		C959.79,587.77,953.07,590.04,946.39,592.29z"/>
	<linearGradient id="SVGID_9_" gradientUnits="userSpaceOnUse" x1="969.0357" y1="557.4822" x2="994.3555" y2="557.4822">
		<stop  offset="0" style="stop-color:#FDEBF3"/>
		<stop  offset="0.1124" style="stop-color:#F7EAF3"/>
		<stop  offset="0.2303" style="stop-color:#FAF1F2"/>
		<stop  offset="0.3539" style="stop-color:#FFFEF0"/>
		<stop  offset="0.478" style="stop-color:#FBFBF0"/>
		<stop  offset="0.5952" style="stop-color:#F0F3F2"/>
		<stop  offset="0.7093" style="stop-color:#DDE5F4"/>
		<stop  offset="0.7135" style="stop-color:#DCE4F4"/>
		<stop  offset="1" style="stop-color:#FEE9DF"/>
	</linearGradient>
	<path class="st8" d="M972.05,574.09c-3.93-6.34-3.86-11.85-0.7-17.47c5.8-10.36,11.72-14.52,23.01-15.74
		c-1.44,4.26-1.33,8.79-5.69,11.99c-2.41,1.77-4.42,3.94-6.77,5.78C976.81,562.66,973.32,567.42,972.05,574.09z"/>
	<linearGradient id="SVGID_10_" gradientUnits="userSpaceOnUse" x1="945.7166" y1="593.7492" x2="970.7983" y2="593.7492">
		<stop  offset="0" style="stop-color:#FDEBF3"/>
		<stop  offset="0.1124" style="stop-color:#F7EAF3"/>
		<stop  offset="0.2303" style="stop-color:#FAF1F2"/>
		<stop  offset="0.3539" style="stop-color:#FFFEF0"/>
		<stop  offset="0.478" style="stop-color:#FBFBF0"/>
		<stop  offset="0.5952" style="stop-color:#F0F3F2"/>
		<stop  offset="0.7093" style="stop-color:#DDE5F4"/>
		<stop  offset="0.7135" style="stop-color:#DCE4F4"/>
		<stop  offset="1" style="stop-color:#FEE9DF"/>
	</linearGradient>
	<path class="st9" d="M970.8,600.68c-8.3,0-16.32,0-24.32,0c-1.48-4.61-1.09-5.3,3.81-6.95c6.73-2.27,13.45-4.54,20.51-6.92
		C970.8,591.58,970.8,596,970.8,600.68z"/>
	<linearGradient id="SVGID_11_" gradientUnits="userSpaceOnUse" x1="922.4639" y1="546.2683" x2="945.6609" y2="546.2683">
		<stop  offset="0" style="stop-color:#FDEBF3"/>
		<stop  offset="0.1124" style="stop-color:#F7EAF3"/>
		<stop  offset="0.2303" style="stop-color:#FAF1F2"/>
		<stop  offset="0.3539" style="stop-color:#FFFEF0"/>
		<stop  offset="0.478" style="stop-color:#FBFBF0"/>
		<stop  offset="0.5952" style="stop-color:#F0F3F2"/>
		<stop  offset="0.7093" style="stop-color:#DDE5F4"/>
		<stop  offset="0.7135" style="stop-color:#DCE4F4"/>
		<stop  offset="1" style="stop-color:#FEE9DF"/>
	</linearGradient>
	<path class="st10" d="M945.66,544.87c-1.15,1.55-1.9,3.41-3.42,4.45c-3.9,2.68-8.77,2.84-13.51,2.64c-1.05-0.04-2.49-1.32-2.94-2.3
		c-1.29-2.87-2.18-5.87-3.33-9.14C930.26,541.98,937.55,543.35,945.66,544.87z"/>
</g>
</svg>
