<?xml version="1.0" encoding="utf-8"?>
<!-- Generator: Adobe Illustrator 24.1.2, SVG Export Plug-In . SVG Version: 6.00 Build 0)  -->
<svg version="1.1" id="Layer_1" xmlns="http://www.w3.org/2000/svg" xmlns:xlink="http://www.w3.org/1999/xlink" x="0px" y="0px"
	 viewBox="800 360 320 340" style="enable-background:new 0 0 1920 1080;" xml:space="preserve">
<style type="text/css">
	.st0{fill:url(#SVGID_1_);}
	.st1{fill:url(#SVGID_2_);}
	.st2{fill:url(#SVGID_3_);}
	.st3{fill:url(#SVGID_4_);}
	.st4{fill:url(#SVGID_5_);}
</style>
<g>
	<g>
		<path d="M1110.77,407.35c1.72,9.96,3.66,19.76,5.07,29.63c2.68,18.8,4.07,37.69,4.1,56.64c0.06,35.12-3.89,69.76-17.19,103.25
			c-8.33,20.97-20.07,40.35-37.25,57.1c-23.83,23.24-54.09,36.69-89.04,43.63c-15.87,3.15-30.62,0.3-45.42-3.27
			c-50.6-12.21-84.93-40.23-106.1-80.74c-11.28-21.58-18.16-44.26-21.17-67.66c-2.17-16.92-3.82-33.99-3.82-50.99
			c0-17.85,1.87-35.72,3.64-53.54c1.07-10.85,3.52-21.6,5.26-32.41c0.26-1.6,0.86-2.24,2.87-2.25c37.04-0.14,72.8-6.72,107.93-16.13
			c12.69-3.4,25.07-7.63,37.64-11.39c1.19-0.36,2.81-0.37,3.97,0.02c31.23,10.75,63.33,18.95,96.51,23.92
			c16.4,2.46,32.93,4,49.61,4.17C1108.34,407.36,1109.32,407.35,1110.77,407.35z M1109.3,408.57c-1.61,0-2.82,0.08-4.01-0.01
			c-13.71-1.02-27.51-1.5-41.1-3.21c-35.13-4.42-68.97-13.06-101.89-24.35c-2.08-0.71-3.82-0.77-5.93-0.05
			c-24.37,8.37-49.33,15.12-75,19.89c-22.42,4.16-44.99,7.4-68.06,7.19c-1.83-0.02-2.76,0.59-3.16,2.43
			c-4.08,18.92-6.54,38.01-7.75,57.2c-1.69,26.95-1.31,53.86,3.19,80.66c3.88,23.12,10.43,45.6,21.93,66.88
			c21.21,39.26,55.12,66.22,104.41,77.95c14.06,3.34,28.09,6.22,43.17,3.31c33.58-6.48,62.99-18.99,86.52-40.81
			c17.14-15.89,29.16-34.4,37.74-54.61c15.53-36.58,19.54-74.59,18.93-113.14c-0.31-19.33-2.01-38.58-5.08-57.73
			C1112.06,423.01,1110.63,415.89,1109.3,408.57z"/>
		<linearGradient id="SVGID_1_" gradientUnits="userSpaceOnUse" x1="801.4698" y1="539.036" x2="1118.347" y2="539.036">
			<stop  offset="0.0337" style="stop-color:#9B9B98"/>
			<stop  offset="0.1338" style="stop-color:#A4A5A7"/>
			<stop  offset="0.2191" style="stop-color:#AEB0B7"/>
			<stop  offset="0.3518" style="stop-color:#9FA3AA"/>
			<stop  offset="0.6054" style="stop-color:#788187"/>
			<stop  offset="0.7191" style="stop-color:#657076"/>
			<stop  offset="1" style="stop-color:#8B949A"/>
		</linearGradient>
		<path class="st0" d="M1109.3,408.57c1.34,7.33,2.77,14.44,3.91,21.59c3.07,19.15,4.77,38.4,5.08,57.73
			c0.61,38.56-3.4,76.56-18.93,113.14c-8.58,20.2-20.6,38.71-37.74,54.61c-23.53,21.82-52.94,34.33-86.52,40.81
			c-15.08,2.91-29.11,0.03-43.17-3.31c-49.29-11.72-83.2-38.69-104.41-77.95c-11.5-21.28-18.05-43.76-21.93-66.88
			c-4.5-26.79-4.88-53.71-3.19-80.66c1.21-19.19,3.67-38.28,7.75-57.2c0.4-1.84,1.33-2.45,3.16-2.43
			c23.06,0.21,45.64-3.03,68.06-7.19c25.67-4.77,50.64-11.52,75-19.89c2.11-0.72,3.85-0.66,5.93,0.05
			c32.92,11.29,66.76,19.93,101.89,24.35c13.59,1.71,27.39,2.19,41.1,3.21C1106.48,408.64,1107.68,408.57,1109.3,408.57z
			 M1093.87,421.1c-10.67-0.7-20.8-1.02-30.82-2.07c-35.05-3.69-68.75-11.84-101.47-23.07c-2.08-0.72-3.72-0.8-5.85-0.09
			c-41.47,13.89-84.03,23.64-128.9,24.38c-1.81,0.03-2.43,0.55-2.75,2.05c-3.76,17.52-6.04,35.18-7.2,52.95
			c-1.37,21.1-0.84,42.15,1.8,63.19c2.79,22.23,8.4,43.82,18.74,64.4c18.86,37.55,50.12,63.5,96.91,74.46
			c11.6,2.72,23.2,5.48,35.7,3.3c28.04-4.9,53.2-14.48,74.17-31.41c19.93-16.09,32.97-35.85,41.93-57.75
			c12.39-30.26,16.2-61.67,15.75-93.44c-0.26-18.04-2.26-36.08-3.96-54.08C1097.21,436.26,1095.26,428.7,1093.87,421.1z"/>
		<path d="M1093.87,421.1c1.39,7.6,3.34,15.16,4.06,22.81c1.7,18.01,3.7,36.04,3.96,54.08c0.45,31.77-3.37,63.18-15.75,93.44
			c-8.96,21.9-22,41.66-41.93,57.75c-20.98,16.94-46.13,26.51-74.17,31.41c-12.5,2.18-24.1-0.58-35.7-3.3
			c-46.78-10.96-78.05-36.91-96.91-74.46c-10.33-20.57-15.95-42.17-18.74-64.4c-2.64-21.04-3.18-42.09-1.8-63.19
			c1.15-17.77,3.44-35.43,7.2-52.95c0.32-1.5,0.95-2.02,2.75-2.05c44.87-0.75,87.43-10.5,128.9-24.38c2.13-0.71,3.76-0.62,5.85,0.09
			c32.72,11.23,66.42,19.38,101.47,23.07C1073.07,420.08,1083.2,420.4,1093.87,421.1z M1092.48,422.19
			c-1.29-0.06-2.16-0.07-3.02-0.14c-11.19-0.81-22.46-1.19-33.56-2.52c-32.54-3.89-63.87-11.74-94.39-22.03
			c-1.65-0.56-3.96-0.67-5.58-0.14c-41.25,13.61-83.46,23.39-128.01,24.26c-0.83,0.02-2.19,1.14-2.36,1.89
			c-4.03,18.06-6.26,36.32-7.29,54.66c-0.99,17.6-0.71,35.2,1.13,52.79c1.87,17.87,5.25,35.46,11.44,52.62
			c7.57,21.01,18.69,40.42,35.95,56.96c20.34,19.49,45.82,31.44,75.47,37.06c6.53,1.24,13.41,3.1,19.82,2.44
			c23.25-2.38,44.92-9.04,64.41-20.4c24.23-14.12,40.87-33.44,52.43-56.18c10.03-19.74,15.77-40.44,18.63-61.78
			c2.19-16.4,3.7-32.85,2.77-49.34c-0.95-16.82-2.64-33.62-4.35-50.4C1095.28,435.34,1093.67,428.8,1092.48,422.19z"/>
		
			<radialGradient id="SVGID_2_" cx="958.7303" cy="538.3301" r="232.8353" gradientTransform="matrix(0.6616 0 0 0.5654 324.8553 234.2591)" gradientUnits="userSpaceOnUse">
			<stop  offset="5.618000e-03" style="stop-color:#AEB0B7"/>
			<stop  offset="0.3156" style="stop-color:#AAAAA8"/>
			<stop  offset="0.3539" style="stop-color:#A9A9A6"/>
			<stop  offset="0.5001" style="stop-color:#9A9E9E"/>
			<stop  offset="0.6742" style="stop-color:#838C92"/>
			<stop  offset="1" style="stop-color:#657076"/>
		</radialGradient>
		<path class="st1" d="M1092.48,422.19c1.19,6.61,2.8,13.16,3.47,19.77c1.71,16.78,3.41,33.58,4.35,50.4
			c0.93,16.48-0.58,32.94-2.77,49.34c-2.85,21.34-8.6,42.04-18.63,61.78c-11.56,22.74-28.2,42.06-52.43,56.18
			c-19.49,11.36-41.15,18.01-64.41,20.4c-6.41,0.66-13.29-1.21-19.82-2.44c-29.65-5.62-55.13-17.57-75.47-37.06
			c-17.26-16.54-28.38-35.95-35.95-56.96c-6.18-17.16-9.56-34.75-11.44-52.62c-1.85-17.59-2.12-35.18-1.13-52.79
			c1.03-18.34,3.26-36.6,7.29-54.66c0.17-0.76,1.53-1.88,2.36-1.89c44.55-0.87,86.77-10.65,128.01-24.26
			c1.62-0.53,3.93-0.42,5.58,0.14c30.53,10.29,61.85,18.14,94.39,22.03c11.11,1.33,22.37,1.71,33.56,2.52
			C1090.32,422.11,1091.19,422.13,1092.48,422.19z"/>
	</g>
	<g>
		<linearGradient id="SVGID_3_" gradientUnits="userSpaceOnUse" x1="850.7025" y1="538.8455" x2="1067.7528" y2="538.8455">
			<stop  offset="0" style="stop-color:#FDEBF3"/>
			<stop  offset="0.1124" style="stop-color:#F7EAF3"/>
			<stop  offset="0.2303" style="stop-color:#FAF1F2"/>
			<stop  offset="0.3539" style="stop-color:#FFFEF0"/>
			<stop  offset="0.478" style="stop-color:#FBFBF0"/>
			<stop  offset="0.5952" style="stop-color:#F0F3F2"/>
			<stop  offset="0.7093" style="stop-color:#DDE5F4"/>
			<stop  offset="0.7135" style="stop-color:#DCE4F4"/>
			<stop  offset="1" style="stop-color:#FEE9DF"/>
		</linearGradient>
		<path class="st2" d="M956.15,462.08c50.08,0.14,90.27,34.78,89.8,77.54c-0.46,42.28-40.64,76-89.74,75.99
			c-51.73-0.01-91.47-36.72-89.84-79.2C867.93,495.64,906.91,462.23,956.15,462.08z M1003.41,556.58
			c-26.01,6.75-51.78,13.43-77.55,20.11c0.05,0.26,0.04,0.43,0.1,0.56c0.19,0.38,0.39,0.75,0.61,1.11
			c2.98,4.99,7.92,8.02,13.89,9.92c8.56,2.72,17.39,2.87,26.27,1.59c10.13-1.46,19.42-4.63,27.05-10.69
			C1001.41,573.13,1004.85,565.7,1003.41,556.58z M939.96,491.13c0.24-0.01,0.48-0.01,0.71-0.02c0.35-2.32,0.22-4.62-0.8-6.84
			c-1.54-3.37-5.13-5.03-9.26-4.24c-4.24,0.81-7.37,2.93-9.21,6.29c-2.43,4.43-0.33,7.96,5.27,9.02c10.57,2,22.08-4.53,24.11-13.68
			c0.13-0.57,0.2-1.14,0.29-1.71c-0.17-0.04-0.34-0.08-0.52-0.12c-0.17,0.36-0.4,0.71-0.48,1.08c-1.56,7.22-8.05,12.63-16.51,13.78
			c-3.21,0.43-6.36,0.45-9.31-0.88c-2.47-1.11-3.4-2.84-2.82-5.12c0.96-3.78,3.74-6.25,7.89-7.57c4.88-1.56,8.97,0.31,10.2,4.61
			c0.3,1.04,0.34,2.13,0.43,3.2C940.01,489.65,939.96,490.39,939.96,491.13z M975,528.21c-0.3-4.09-1.77-8.42-4.04-10.95
			c-1.12-1.25-2.41-2.46-4.45-2.19c-2.13,0.29-3.15,1.8-3.4,3.4c-0.36,2.31-0.59,4.7-0.33,7.01c0.36,3.25,1.59,6.34,4.28,8.8
			c2.45,2.24,5.37,1.84,6.63-1.02C974.39,531.68,974.58,529.91,975,528.21z M940.8,538.55c-0.33-4.83-1.17-8.75-4.27-11.99
			c-2.79-2.91-5.99-2.37-7.38,1.18c-1.15,2.96-0.92,5.97-0.15,8.97c0.69,2.68,1.79,5.2,4.01,7.29c2.01,1.9,5.47,1.94,6.65-1.1
			C940.29,541.26,940.56,539.52,940.8,538.55z M866.89,552.75c-1.71,0.8-3.15,1.5-4.63,2.15c-15.28,6.68-14.17,23.55-3.83,31.41
			c7.48,5.69,17.48,4.71,25.6-0.48C875.28,575.96,869.63,564.99,866.89,552.75z M1058.72,540.81c10.34-6.13,12.14-20.33,3.67-28.55
			c-5.78-5.6-15.43-6.09-22.59-3.39c5.59,11.38,7.78,23.28,6.8,35.7C1050.96,543.69,1055.12,542.95,1058.72,540.81z M1002.1,557.54
			c1.37,8.56-1.92,15.54-9.19,21.22c-7.29,5.69-16.16,8.67-25.84,10.04c-8.48,1.2-16.92,1.07-25.09-1.49
			c-5.7-1.78-10.42-4.63-13.27-9.31c-0.21-0.34-0.41-0.69-0.58-1.05c-0.06-0.13-0.05-0.28-0.1-0.52
			C952.65,570.14,977.26,563.87,1002.1,557.54z M928.99,576.9c2.88,5.12,7.68,8.07,13.6,9.84c9.26,2.76,18.69,2.6,28.12,0.72
			c9.1-1.82,17.32-5.07,23.72-10.99c5.48-5.07,7.94-11.03,6.93-18.02C977.24,564.61,953.23,570.73,928.99,576.9z"/>
		<linearGradient id="SVGID_4_" gradientUnits="userSpaceOnUse" x1="863.6658" y1="511.0458" x2="890.8516" y2="511.0458">
			<stop  offset="0" style="stop-color:#FDEBF3"/>
			<stop  offset="0.1124" style="stop-color:#F7EAF3"/>
			<stop  offset="0.2303" style="stop-color:#FAF1F2"/>
			<stop  offset="0.3539" style="stop-color:#FFFEF0"/>
			<stop  offset="0.478" style="stop-color:#FBFBF0"/>
			<stop  offset="0.5952" style="stop-color:#F0F3F2"/>
			<stop  offset="0.7093" style="stop-color:#DDE5F4"/>
			<stop  offset="0.7135" style="stop-color:#DCE4F4"/>
			<stop  offset="1" style="stop-color:#FEE9DF"/>
		</linearGradient>
		<polygon class="st3" points="863.67,535.53 864.87,535.99 890.85,486.56 889.64,486.1 		"/>
		<linearGradient id="SVGID_5_" gradientUnits="userSpaceOnUse" x1="864.649" y1="511.6947" x2="907.6107" y2="511.6947">
			<stop  offset="0" style="stop-color:#FDEBF3"/>
			<stop  offset="0.1124" style="stop-color:#F7EAF3"/>
			<stop  offset="0.2303" style="stop-color:#FAF1F2"/>
			<stop  offset="0.3539" style="stop-color:#FFFEF0"/>
			<stop  offset="0.478" style="stop-color:#FBFBF0"/>
			<stop  offset="0.5952" style="stop-color:#F0F3F2"/>
			<stop  offset="0.7093" style="stop-color:#DDE5F4"/>
			<stop  offset="0.7135" style="stop-color:#DCE4F4"/>
			<stop  offset="1" style="stop-color:#FEE9DF"/>
		</linearGradient>
		<polygon class="st4" points="864.65,551.19 865.86,551.65 907.61,472.2 906.4,471.74 		"/>
	</g>
</g>
</svg>
