<?xml version="1.0" encoding="utf-8"?>
<!-- Generator: Adobe Illustrator 24.1.2, SVG Export Plug-In . SVG Version: 6.00 Build 0)  -->
<svg version="1.1" id="Layer_1" xmlns="http://www.w3.org/2000/svg" xmlns:xlink="http://www.w3.org/1999/xlink" x="0px" y="0px"
	 viewBox="800 360 320 340" style="enable-background:new 0 0 1920 1080;" xml:space="preserve">
<style type="text/css">
	.st0{fill:url(#SVGID_1_);}
	.st1{fill:url(#SVGID_2_);}
	.st2{fill:url(#SVGID_3_);stroke:#000000;stroke-miterlimit:10;}
</style>
<g>
	<g>
		<path d="M1110.77,407.35c1.72,9.96,3.66,19.76,5.07,29.63c2.68,18.8,4.07,37.69,4.1,56.64c0.06,35.12-3.89,69.76-17.19,103.25
			c-8.33,20.97-20.07,40.35-37.25,57.1c-23.83,23.24-54.09,36.69-89.04,43.63c-15.87,3.15-30.62,0.3-45.42-3.27
			c-50.6-12.21-84.93-40.23-106.1-80.74c-11.28-21.58-18.16-44.26-21.17-67.66c-2.17-16.92-3.82-33.99-3.82-50.99
			c0-17.85,1.87-35.72,3.64-53.54c1.07-10.85,3.52-21.6,5.26-32.41c0.26-1.6,0.86-2.24,2.87-2.25c37.04-0.14,72.8-6.72,107.93-16.13
			c12.69-3.4,25.07-7.63,37.64-11.39c1.19-0.36,2.81-0.37,3.97,0.02c31.23,10.75,63.33,18.95,96.51,23.92
			c16.4,2.46,32.93,4,49.61,4.17C1108.34,407.36,1109.32,407.35,1110.77,407.35z M1109.3,408.57c-1.61,0-2.82,0.08-4.01-0.01
			c-13.71-1.02-27.51-1.5-41.1-3.21c-35.13-4.42-68.97-13.06-101.89-24.35c-2.08-0.71-3.82-0.77-5.93-0.05
			c-24.37,8.37-49.33,15.12-75,19.89c-22.42,4.16-44.99,7.4-68.06,7.19c-1.83-0.02-2.76,0.59-3.16,2.43
			c-4.08,18.92-6.54,38.01-7.75,57.2c-1.69,26.95-1.31,53.86,3.19,80.66c3.88,23.12,10.43,45.6,21.93,66.88
			c21.21,39.26,55.12,66.22,104.41,77.95c14.06,3.34,28.09,6.22,43.17,3.31c33.58-6.48,62.99-18.99,86.52-40.81
			c17.14-15.89,29.16-34.4,37.74-54.61c15.53-36.58,19.54-74.59,18.93-113.14c-0.31-19.33-2.01-38.58-5.08-57.73
			C1112.06,423.01,1110.63,415.89,1109.3,408.57z"/>
		<linearGradient id="SVGID_1_" gradientUnits="userSpaceOnUse" x1="801.4698" y1="539.036" x2="1118.347" y2="539.036">
			<stop  offset="0.0337" style="stop-color:#9B9B98"/>
			<stop  offset="0.1338" style="stop-color:#A4A5A7"/>
			<stop  offset="0.2191" style="stop-color:#AEB0B7"/>
			<stop  offset="0.3518" style="stop-color:#9FA3AA"/>
			<stop  offset="0.6054" style="stop-color:#788187"/>
			<stop  offset="0.7191" style="stop-color:#657076"/>
			<stop  offset="1" style="stop-color:#8B949A"/>
		</linearGradient>
		<path class="st0" d="M1109.3,408.57c1.34,7.33,2.77,14.44,3.91,21.59c3.07,19.15,4.77,38.4,5.08,57.73
			c0.61,38.56-3.4,76.56-18.93,113.14c-8.58,20.2-20.6,38.71-37.74,54.61c-23.53,21.82-52.94,34.33-86.52,40.81
			c-15.08,2.91-29.11,0.03-43.17-3.31c-49.29-11.72-83.2-38.69-104.41-77.95c-11.5-21.28-18.05-43.76-21.93-66.88
			c-4.5-26.79-4.88-53.71-3.19-80.66c1.21-19.19,3.67-38.28,7.75-57.2c0.4-1.84,1.33-2.45,3.16-2.43
			c23.06,0.21,45.64-3.03,68.06-7.19c25.67-4.77,50.64-11.52,75-19.89c2.11-0.72,3.85-0.66,5.93,0.05
			c32.92,11.29,66.76,19.93,101.89,24.35c13.59,1.71,27.39,2.19,41.1,3.21C1106.48,408.64,1107.68,408.57,1109.3,408.57z
			 M1093.87,421.1c-10.67-0.7-20.8-1.02-30.82-2.07c-35.05-3.69-68.75-11.84-101.47-23.07c-2.08-0.72-3.72-0.8-5.85-0.09
			c-41.47,13.89-84.03,23.64-128.9,24.38c-1.81,0.03-2.43,0.55-2.75,2.05c-3.76,17.52-6.04,35.18-7.2,52.95
			c-1.37,21.1-0.84,42.15,1.8,63.19c2.79,22.23,8.4,43.82,18.74,64.4c18.86,37.55,50.12,63.5,96.91,74.46
			c11.6,2.72,23.2,5.48,35.7,3.3c28.04-4.9,53.2-14.48,74.17-31.41c19.93-16.09,32.97-35.85,41.93-57.75
			c12.39-30.26,16.2-61.67,15.75-93.44c-0.26-18.04-2.26-36.08-3.96-54.08C1097.21,436.26,1095.26,428.7,1093.87,421.1z"/>
		<path d="M1093.87,421.1c1.39,7.6,3.34,15.16,4.06,22.81c1.7,18.01,3.7,36.04,3.96,54.08c0.45,31.77-3.37,63.18-15.75,93.44
			c-8.96,21.9-22,41.66-41.93,57.75c-20.98,16.94-46.13,26.51-74.17,31.41c-12.5,2.18-24.1-0.58-35.7-3.3
			c-46.78-10.96-78.05-36.91-96.91-74.46c-10.33-20.57-15.95-42.17-18.74-64.4c-2.64-21.04-3.18-42.09-1.8-63.19
			c1.15-17.77,3.44-35.43,7.2-52.95c0.32-1.5,0.95-2.02,2.75-2.05c44.87-0.75,87.43-10.5,128.9-24.38c2.13-0.71,3.76-0.62,5.85,0.09
			c32.72,11.23,66.42,19.38,101.47,23.07C1073.07,420.08,1083.2,420.4,1093.87,421.1z M1092.48,422.19
			c-1.29-0.06-2.16-0.07-3.02-0.14c-11.19-0.81-22.46-1.19-33.56-2.52c-32.54-3.89-63.87-11.74-94.39-22.03
			c-1.65-0.56-3.96-0.67-5.58-0.14c-41.25,13.61-83.46,23.39-128.01,24.26c-0.83,0.02-2.19,1.14-2.36,1.89
			c-4.03,18.06-6.26,36.32-7.29,54.66c-0.99,17.6-0.71,35.2,1.13,52.79c1.87,17.87,5.25,35.46,11.44,52.62
			c7.57,21.01,18.69,40.42,35.95,56.96c20.34,19.49,45.82,31.44,75.47,37.06c6.53,1.24,13.41,3.1,19.82,2.44
			c23.25-2.38,44.92-9.04,64.41-20.4c24.23-14.12,40.87-33.44,52.43-56.18c10.03-19.74,15.77-40.44,18.63-61.78
			c2.19-16.4,3.7-32.85,2.77-49.34c-0.95-16.82-2.64-33.62-4.35-50.4C1095.28,435.34,1093.67,428.8,1092.48,422.19z"/>
		
			<radialGradient id="SVGID_2_" cx="958.7303" cy="538.3301" r="232.8353" gradientTransform="matrix(0.6616 0 0 0.5654 324.8553 234.2591)" gradientUnits="userSpaceOnUse">
			<stop  offset="0.1798" style="stop-color:#F4E8D9"/>
			<stop  offset="0.5899" style="stop-color:#EDD089"/>
			<stop  offset="1" style="stop-color:#FEE962"/>
		</radialGradient>
		<path class="st1" d="M1092.48,422.19c1.19,6.61,2.8,13.16,3.47,19.77c1.71,16.78,3.41,33.58,4.35,50.4
			c0.93,16.48-0.58,32.94-2.77,49.34c-2.85,21.34-8.6,42.04-18.63,61.78c-11.56,22.74-28.2,42.06-52.43,56.18
			c-19.49,11.36-41.15,18.01-64.41,20.4c-6.41,0.66-13.29-1.21-19.82-2.44c-29.65-5.62-55.13-17.57-75.47-37.06
			c-17.26-16.54-28.38-35.95-35.95-56.96c-6.18-17.16-9.56-34.75-11.44-52.62c-1.85-17.59-2.12-35.18-1.13-52.79
			c1.03-18.34,3.26-36.6,7.29-54.66c0.17-0.76,1.53-1.88,2.36-1.89c44.55-0.87,86.77-10.65,128.01-24.26
			c1.62-0.53,3.93-0.42,5.58,0.14c30.53,10.29,61.85,18.14,94.39,22.03c11.11,1.33,22.37,1.71,33.56,2.52
			C1090.32,422.11,1091.19,422.13,1092.48,422.19z"/>
	</g>
	<linearGradient id="SVGID_3_" gradientUnits="userSpaceOnUse" x1="876.7996" y1="527.7013" x2="1040.4044" y2="527.7013">
		<stop  offset="0" style="stop-color:#FDEBF3"/>
		<stop  offset="0.1124" style="stop-color:#F7EAF3"/>
		<stop  offset="0.2303" style="stop-color:#FAF1F2"/>
		<stop  offset="0.3539" style="stop-color:#FFFEF0"/>
		<stop  offset="0.478" style="stop-color:#FBFBF0"/>
		<stop  offset="0.5952" style="stop-color:#F0F3F2"/>
		<stop  offset="0.7093" style="stop-color:#DDE5F4"/>
		<stop  offset="0.7135" style="stop-color:#DCE4F4"/>
		<stop  offset="1" style="stop-color:#FEE9DF"/>
	</linearGradient>
	<path class="st2" d="M964.3,483.69c0,8.2-0.01,16.4,0,24.6c0,2.07-1.05,3.6-3.19,4.53c-2.1,0.91-4.15,0.68-6.01-0.52
		c-1.54-0.99-2.24-2.38-2.24-4c-0.01-16.4-0.03-32.79,0.01-49.19c0.01-2.96,2.54-5.08,5.8-5.06c3.22,0.03,5.61,2.19,5.62,5.18
		C964.32,467.39,964.3,475.54,964.3,483.69z M961.61,483.7c0-7.67,0-15.34,0-23.01c0-0.62,0.03-1.25-0.02-1.87
		c-0.11-1.37-1.25-2.36-2.76-2.46c-1.47-0.09-2.85,0.79-3.17,2.09c-0.12,0.51-0.1,1.05-0.1,1.57c-0.01,9.35,0,18.7,0,28.05
		c0,6.38,0,12.75,0,19.13c0,0.34-0.01,0.67,0.01,1.01c0.09,1.67,1.37,2.84,3.09,2.82c1.75-0.01,2.95-1.14,2.96-2.88
		C961.62,500,961.61,491.85,961.61,483.7z M1002.47,580.95c5.24-3.45,9.13-7.9,12.58-12.64c7.75-10.61,12.78-22.23,17.06-34.11
		c0.22-0.62,0.06-1.45-0.22-2.07c-1.88-4.15-3.71-8.32-5.81-12.39c-6.82-13.23-15.01-25.82-24.48-37.79
		c-2.34-2.96-5.11-5.61-8.87-7.33c-3.3-1.51-6.59-1.45-9.36,0.75c-1.9,1.51-3.79,3.24-4.92,5.2c-2.12,3.67-4.06,7.49-5.4,11.41
		c-4.89,14.3-6.35,29.07-7.48,43.86c-0.07,0.87,0.45,1.15,1.19,1.47c4.08,1.78,7.71,4.1,10.93,6.88
		c9.66,8.32,15.67,18.47,20.19,29.37c1.1,2.65,2.05,5.35,3.16,8.24C1001.66,581.43,1002.08,581.2,1002.47,580.95z M1003.81,583.7
		c6.53,5.19,13.05,10.38,19.59,15.57c0.49,0.39,1.03,0.74,1.59,1.06c2.96,1.66,5.94,1.33,7.93-1.17c1.37-1.72,2.53-3.63,3.32-5.6
		c2.65-6.58,3.51-13.45,4-20.34c0.85-11.93-1.74-23.46-5.89-34.79c-0.1-0.27-0.29-0.51-0.36-0.62c-2.93,6.37-5.59,12.83-8.84,19.06
		c-5.19,9.95-11.44,19.34-21.72,26.42C1003.61,583.48,1003.69,583.61,1003.81,583.7z M996.83,578.04
		c-3.48-8.99-7.77-17.66-14.27-25.41c-4.22-5.03-9.12-9.47-15.48-12.58c-0.5-0.24-1.03-0.43-2.11-0.87c0,5.4-0.05,10.38,0.02,15.36
		c0.04,2.9,1.39,5.29,4.3,6.94c0.7,0.4,1.35,0.86,2.04,1.27c8.55,5.16,17.11,10.31,25.53,15.39
		C996.85,578.32,996.88,578.17,996.83,578.04z M892,518.04c-6.19,11.73-11.18,23.79-13.77,36.51c-0.18,0.88-0.02,1.43,0.81,1.96
		c1.66,1.07,3.22,2.24,4.88,3.3c11.65,7.51,24.19,13.48,38.61,16.11c0.74,0.13,1.77-0.1,2.41-0.49c4.57-2.77,9.04-5.65,13.59-8.44
		c3.41-2.09,6.91-4.07,10.32-6.17c2.03-1.25,3.17-3.06,3.21-5.16c0.11-5.74,0.04-11.48,0.04-17.02c-5.72-1.52-11.02-2.73-16.16-4.34
		c-15.43-4.81-30.3-10.41-40.54-22.54C894.22,513.96,893.08,515.99,892,518.04z M951.5,534.58c-0.94-8.24-1.68-16.51-2.9-24.73
		c-1.15-7.75-3.05-15.39-6.24-22.75c-1.62-3.74-3.48-7.38-6.7-10.37c-4.12-3.81-8.52-4.3-13.18-0.97c-2.84,2.03-5.58,4.41-7.51,7.08
		c-6.01,8.3-11.61,16.82-17.39,25.24c-0.52,0.76-0.46,1.37,0.05,2.11c2.5,3.6,5.89,6.52,9.73,9.05c9.35,6.16,20,10.13,31.07,13.35
		c4.22,1.23,8.52,2.27,13.08,3.47C951.5,535.33,951.54,534.96,951.5,534.58z M877.55,558.96c-0.08,0.33-0.13,0.66-0.17,0.99
		c-1.16,8.3-0.48,16.56,1.08,24.77c0.87,4.58,1.94,9.16,4.79,13.22c2.89,4.11,6.63,4.43,10.75,1.17
		c8.57-6.76,17.24-13.42,25.86-20.13c0.35-0.27,0.68-0.55,1.09-0.89c-16.37-3.49-30.34-10.5-43.1-19.44
		C877.69,558.82,877.57,558.88,877.55,558.96z M961.61,460.71c0-0.62,0.03-1.25-0.02-1.87c-0.11-1.37-1.25-2.36-2.76-2.46
		c-1.47-0.09-2.85,0.79-3.17,2.09c-0.12,0.51-0.1,1.05-0.1,1.57c-0.01,9.35,0,18.7,0,28.05c0,6.38,0,12.75,0,19.13
		c0,0.34-0.01,0.67,0.01,1.01c0.09,1.67,1.37,2.84,3.09,2.82c1.75-0.01,2.95-1.14,2.96-2.88c0.02-8.15,0.01-16.3,0.01-24.45
		C961.61,476.05,961.61,468.38,961.61,460.71z"/>
</g>
</svg>
