<?xml version="1.0" encoding="utf-8"?>
<!-- Generator: Adobe Illustrator 24.1.2, SVG Export Plug-In . SVG Version: 6.00 Build 0)  -->
<svg version="1.1" id="Layer_1" xmlns="http://www.w3.org/2000/svg" xmlns:xlink="http://www.w3.org/1999/xlink" x="0px" y="0px"
	 viewBox="800 360 320 340" style="enable-background:new 0 0 1920 1080;" xml:space="preserve">
<style type="text/css">
	.st0{fill:url(#SVGID_1_);}
	.st1{fill:url(#SVGID_2_);}
	.st2{fill:url(#SVGID_3_);stroke:#000000;stroke-miterlimit:10;}
	.st3{fill:url(#SVGID_4_);stroke:#000000;stroke-miterlimit:10;}
	.st4{fill:url(#SVGID_5_);stroke:#000000;stroke-miterlimit:10;}
	.st5{fill:url(#SVGID_6_);stroke:#000000;stroke-miterlimit:10;}
	.st6{fill:url(#SVGID_7_);stroke:#000000;stroke-miterlimit:10;}
	.st7{fill:url(#SVGID_8_);stroke:#000000;stroke-miterlimit:10;}
	.st8{fill:url(#SVGID_9_);stroke:#000000;stroke-miterlimit:10;}
	.st9{fill:url(#SVGID_10_);stroke:#000000;stroke-miterlimit:10;}
	.st10{fill:url(#SVGID_11_);stroke:#000000;stroke-miterlimit:10;}
	.st11{fill:url(#SVGID_12_);stroke:#000000;stroke-miterlimit:10;}
	.st12{fill:url(#SVGID_13_);stroke:#000000;stroke-miterlimit:10;}
	.st13{fill:url(#SVGID_14_);stroke:#000000;stroke-miterlimit:10;}
	.st14{fill:url(#SVGID_15_);stroke:#000000;stroke-miterlimit:10;}
	.st15{fill:url(#SVGID_16_);stroke:#000000;stroke-miterlimit:10;}
	.st16{fill:url(#SVGID_17_);stroke:#000000;stroke-miterlimit:10;}
	.st17{fill:url(#SVGID_18_);stroke:#000000;stroke-miterlimit:10;}
	.st18{fill:url(#SVGID_19_);stroke:#000000;stroke-miterlimit:10;}
	.st19{fill:url(#SVGID_20_);stroke:#000000;stroke-miterlimit:10;}
	.st20{fill:url(#SVGID_21_);stroke:#000000;stroke-miterlimit:10;}
	.st21{fill:url(#SVGID_22_);stroke:#000000;stroke-miterlimit:10;}
	.st22{fill:url(#SVGID_23_);stroke:#000000;stroke-miterlimit:10;}
</style>
<g>
	<g>
		<path d="M1110.77,407.35c1.72,9.96,3.66,19.76,5.07,29.63c2.68,18.8,4.07,37.69,4.1,56.64c0.06,35.12-3.89,69.76-17.19,103.25
			c-8.33,20.97-20.07,40.35-37.25,57.1c-23.83,23.24-54.09,36.69-89.04,43.63c-15.87,3.15-30.62,0.3-45.42-3.27
			c-50.6-12.21-84.93-40.23-106.1-80.74c-11.28-21.58-18.16-44.26-21.17-67.66c-2.17-16.92-3.82-33.99-3.82-50.99
			c0-17.85,1.87-35.72,3.64-53.54c1.07-10.85,3.52-21.6,5.26-32.41c0.26-1.6,0.86-2.24,2.87-2.25c37.04-0.14,72.8-6.72,107.93-16.13
			c12.69-3.4,25.07-7.63,37.64-11.39c1.19-0.36,2.81-0.37,3.97,0.02c31.23,10.75,63.33,18.95,96.51,23.92
			c16.4,2.46,32.93,4,49.61,4.17C1108.34,407.36,1109.32,407.35,1110.77,407.35z M1109.3,408.57c-1.61,0-2.82,0.08-4.01-0.01
			c-13.71-1.02-27.51-1.5-41.1-3.21c-35.13-4.42-68.97-13.06-101.89-24.35c-2.08-0.71-3.82-0.77-5.93-0.05
			c-24.37,8.37-49.33,15.12-75,19.89c-22.42,4.16-44.99,7.4-68.06,7.19c-1.83-0.02-2.76,0.59-3.16,2.43
			c-4.08,18.92-6.54,38.01-7.75,57.2c-1.69,26.95-1.31,53.86,3.19,80.66c3.88,23.12,10.43,45.6,21.93,66.88
			c21.21,39.26,55.12,66.22,104.41,77.95c14.06,3.34,28.09,6.22,43.17,3.31c33.58-6.48,62.99-18.99,86.52-40.81
			c17.14-15.89,29.16-34.4,37.74-54.61c15.53-36.58,19.54-74.59,18.93-113.14c-0.31-19.33-2.01-38.58-5.08-57.73
			C1112.06,423.01,1110.63,415.89,1109.3,408.57z"/>
		<linearGradient id="SVGID_1_" gradientUnits="userSpaceOnUse" x1="801.4698" y1="539.036" x2="1118.347" y2="539.036">
			<stop  offset="0.0337" style="stop-color:#9B9B98"/>
			<stop  offset="0.1338" style="stop-color:#A4A5A7"/>
			<stop  offset="0.2191" style="stop-color:#AEB0B7"/>
			<stop  offset="0.3518" style="stop-color:#9FA3AA"/>
			<stop  offset="0.6054" style="stop-color:#788187"/>
			<stop  offset="0.7191" style="stop-color:#657076"/>
			<stop  offset="1" style="stop-color:#8B949A"/>
		</linearGradient>
		<path class="st0" d="M1109.3,408.57c1.34,7.33,2.77,14.44,3.91,21.59c3.07,19.15,4.77,38.4,5.08,57.73
			c0.61,38.56-3.4,76.56-18.93,113.14c-8.58,20.2-20.6,38.71-37.74,54.61c-23.53,21.82-52.94,34.33-86.52,40.81
			c-15.08,2.91-29.11,0.03-43.17-3.31c-49.29-11.72-83.2-38.69-104.41-77.95c-11.5-21.28-18.05-43.76-21.93-66.88
			c-4.5-26.79-4.88-53.71-3.19-80.66c1.21-19.19,3.67-38.28,7.75-57.2c0.4-1.84,1.33-2.45,3.16-2.43
			c23.06,0.21,45.64-3.03,68.06-7.19c25.67-4.77,50.64-11.52,75-19.89c2.11-0.72,3.85-0.66,5.93,0.05
			c32.92,11.29,66.76,19.93,101.89,24.35c13.59,1.71,27.39,2.19,41.1,3.21C1106.48,408.64,1107.68,408.57,1109.3,408.57z
			 M1093.87,421.1c-10.67-0.7-20.8-1.02-30.82-2.07c-35.05-3.69-68.75-11.84-101.47-23.07c-2.08-0.72-3.72-0.8-5.85-0.09
			c-41.47,13.89-84.03,23.64-128.9,24.38c-1.81,0.03-2.43,0.55-2.75,2.05c-3.76,17.52-6.04,35.18-7.2,52.95
			c-1.37,21.1-0.84,42.15,1.8,63.19c2.79,22.23,8.4,43.82,18.74,64.4c18.86,37.55,50.12,63.5,96.91,74.46
			c11.6,2.72,23.2,5.48,35.7,3.3c28.04-4.9,53.2-14.48,74.17-31.41c19.93-16.09,32.97-35.85,41.93-57.75
			c12.39-30.26,16.2-61.67,15.75-93.44c-0.26-18.04-2.26-36.08-3.96-54.08C1097.21,436.26,1095.26,428.7,1093.87,421.1z"/>
		<path d="M1093.87,421.1c1.39,7.6,3.34,15.16,4.06,22.81c1.7,18.01,3.7,36.04,3.96,54.08c0.45,31.77-3.37,63.18-15.75,93.44
			c-8.96,21.9-22,41.66-41.93,57.75c-20.98,16.94-46.13,26.51-74.17,31.41c-12.5,2.18-24.1-0.58-35.7-3.3
			c-46.78-10.96-78.05-36.91-96.91-74.46c-10.33-20.57-15.95-42.17-18.74-64.4c-2.64-21.04-3.18-42.09-1.8-63.19
			c1.15-17.77,3.44-35.43,7.2-52.95c0.32-1.5,0.95-2.02,2.75-2.05c44.87-0.75,87.43-10.5,128.9-24.38c2.13-0.71,3.76-0.62,5.85,0.09
			c32.72,11.23,66.42,19.38,101.47,23.07C1073.07,420.08,1083.2,420.4,1093.87,421.1z M1092.48,422.19
			c-1.29-0.06-2.16-0.07-3.02-0.14c-11.19-0.81-22.46-1.19-33.56-2.52c-32.54-3.89-63.87-11.74-94.39-22.03
			c-1.65-0.56-3.96-0.67-5.58-0.14c-41.25,13.61-83.46,23.39-128.01,24.26c-0.83,0.02-2.19,1.14-2.36,1.89
			c-4.03,18.06-6.26,36.32-7.29,54.66c-0.99,17.6-0.71,35.2,1.13,52.79c1.87,17.87,5.25,35.46,11.44,52.62
			c7.57,21.01,18.69,40.42,35.95,56.96c20.34,19.49,45.82,31.44,75.47,37.06c6.53,1.24,13.41,3.1,19.82,2.44
			c23.25-2.38,44.92-9.04,64.41-20.4c24.23-14.12,40.87-33.44,52.43-56.18c10.03-19.74,15.77-40.44,18.63-61.78
			c2.19-16.4,3.7-32.85,2.77-49.34c-0.95-16.82-2.64-33.62-4.35-50.4C1095.28,435.34,1093.67,428.8,1092.48,422.19z"/>
		
			<radialGradient id="SVGID_2_" cx="958.7303" cy="538.3301" r="232.8353" gradientTransform="matrix(0.6616 0 0 0.5654 324.8553 234.2591)" gradientUnits="userSpaceOnUse">
			<stop  offset="5.618000e-03" style="stop-color:#AEB0B7"/>
			<stop  offset="0.3156" style="stop-color:#AAAAA8"/>
			<stop  offset="0.3539" style="stop-color:#A9A9A6"/>
			<stop  offset="0.5001" style="stop-color:#9A9E9E"/>
			<stop  offset="0.6742" style="stop-color:#838C92"/>
			<stop  offset="1" style="stop-color:#657076"/>
		</radialGradient>
		<path class="st1" d="M1092.48,422.19c1.19,6.61,2.8,13.16,3.47,19.77c1.71,16.78,3.41,33.58,4.35,50.4
			c0.93,16.48-0.58,32.94-2.77,49.34c-2.85,21.34-8.6,42.04-18.63,61.78c-11.56,22.74-28.2,42.06-52.43,56.18
			c-19.49,11.36-41.15,18.01-64.41,20.4c-6.41,0.66-13.29-1.21-19.82-2.44c-29.65-5.62-55.13-17.57-75.47-37.06
			c-17.26-16.54-28.38-35.95-35.95-56.96c-6.18-17.16-9.56-34.75-11.44-52.62c-1.85-17.59-2.12-35.18-1.13-52.79
			c1.03-18.34,3.26-36.6,7.29-54.66c0.17-0.76,1.53-1.88,2.36-1.89c44.55-0.87,86.77-10.65,128.01-24.26
			c1.62-0.53,3.93-0.42,5.58,0.14c30.53,10.29,61.85,18.14,94.39,22.03c11.11,1.33,22.37,1.71,33.56,2.52
			C1090.32,422.11,1091.19,422.13,1092.48,422.19z"/>
	</g>
	<g>
		<linearGradient id="SVGID_3_" gradientUnits="userSpaceOnUse" x1="932.3007" y1="529.8859" x2="997.2272" y2="529.8859">
			<stop  offset="0" style="stop-color:#FDEBF3"/>
			<stop  offset="0.1124" style="stop-color:#F7EAF3"/>
			<stop  offset="0.2303" style="stop-color:#FAF1F2"/>
			<stop  offset="0.3539" style="stop-color:#FFFEF0"/>
			<stop  offset="0.478" style="stop-color:#FBFBF0"/>
			<stop  offset="0.5952" style="stop-color:#F0F3F2"/>
			<stop  offset="0.7093" style="stop-color:#DDE5F4"/>
			<stop  offset="0.7135" style="stop-color:#DCE4F4"/>
			<stop  offset="1" style="stop-color:#FEE9DF"/>
		</linearGradient>
		<path class="st2" d="M958.91,583.03c13.32-24.33,1.98-19.22-21.17-66.71s35.06-79.15,35.06-79.15s-54.25,45.23,3.97,105.16
			c58.22,59.93-27.13,37.31-19.85,80.28C956.93,622.6,939.73,618.08,958.91,583.03z"/>
		<linearGradient id="SVGID_4_" gradientUnits="userSpaceOnUse" x1="955.9713" y1="588.7509" x2="986.0864" y2="588.7509">
			<stop  offset="0" style="stop-color:#FDEBF3"/>
			<stop  offset="0.1124" style="stop-color:#F7EAF3"/>
			<stop  offset="0.2303" style="stop-color:#FAF1F2"/>
			<stop  offset="0.3539" style="stop-color:#FFFEF0"/>
			<stop  offset="0.478" style="stop-color:#FBFBF0"/>
			<stop  offset="0.5952" style="stop-color:#F0F3F2"/>
			<stop  offset="0.7093" style="stop-color:#DDE5F4"/>
			<stop  offset="0.7135" style="stop-color:#DCE4F4"/>
			<stop  offset="1" style="stop-color:#FEE9DF"/>
		</linearGradient>
		<line class="st3" x1="955.97" y1="588.75" x2="986.09" y2="588.75"/>
		<linearGradient id="SVGID_5_" gradientUnits="userSpaceOnUse" x1="963.0835" y1="574.3415" x2="997.219" y2="574.3415">
			<stop  offset="0" style="stop-color:#FDEBF3"/>
			<stop  offset="0.1124" style="stop-color:#F7EAF3"/>
			<stop  offset="0.2303" style="stop-color:#FAF1F2"/>
			<stop  offset="0.3539" style="stop-color:#FFFEF0"/>
			<stop  offset="0.478" style="stop-color:#FBFBF0"/>
			<stop  offset="0.5952" style="stop-color:#F0F3F2"/>
			<stop  offset="0.7093" style="stop-color:#DDE5F4"/>
			<stop  offset="0.7135" style="stop-color:#DCE4F4"/>
			<stop  offset="1" style="stop-color:#FEE9DF"/>
		</linearGradient>
		<line class="st4" x1="963.08" y1="574.34" x2="997.22" y2="574.34"/>
		<linearGradient id="SVGID_6_" gradientUnits="userSpaceOnUse" x1="964.5317" y1="565.875" x2="994.9138" y2="565.875">
			<stop  offset="0" style="stop-color:#FDEBF3"/>
			<stop  offset="0.1124" style="stop-color:#F7EAF3"/>
			<stop  offset="0.2303" style="stop-color:#FAF1F2"/>
			<stop  offset="0.3539" style="stop-color:#FFFEF0"/>
			<stop  offset="0.478" style="stop-color:#FBFBF0"/>
			<stop  offset="0.5952" style="stop-color:#F0F3F2"/>
			<stop  offset="0.7093" style="stop-color:#DDE5F4"/>
			<stop  offset="0.7135" style="stop-color:#DCE4F4"/>
			<stop  offset="1" style="stop-color:#FEE9DF"/>
		</linearGradient>
		<line class="st5" x1="964.53" y1="565.88" x2="994.91" y2="565.88"/>
		<linearGradient id="SVGID_7_" gradientUnits="userSpaceOnUse" x1="962.4499" y1="559.222" x2="991.0397" y2="559.222">
			<stop  offset="0" style="stop-color:#FDEBF3"/>
			<stop  offset="0.1124" style="stop-color:#F7EAF3"/>
			<stop  offset="0.2303" style="stop-color:#FAF1F2"/>
			<stop  offset="0.3539" style="stop-color:#FFFEF0"/>
			<stop  offset="0.478" style="stop-color:#FBFBF0"/>
			<stop  offset="0.5952" style="stop-color:#F0F3F2"/>
			<stop  offset="0.7093" style="stop-color:#DDE5F4"/>
			<stop  offset="0.7135" style="stop-color:#DCE4F4"/>
			<stop  offset="1" style="stop-color:#FEE9DF"/>
		</linearGradient>
		<line class="st6" x1="962.45" y1="559.22" x2="991.04" y2="559.22"/>
		<linearGradient id="SVGID_8_" gradientUnits="userSpaceOnUse" x1="957.8288" y1="551.4076" x2="985.0529" y2="551.4076">
			<stop  offset="0" style="stop-color:#FDEBF3"/>
			<stop  offset="0.1124" style="stop-color:#F7EAF3"/>
			<stop  offset="0.2303" style="stop-color:#FAF1F2"/>
			<stop  offset="0.3539" style="stop-color:#FFFEF0"/>
			<stop  offset="0.478" style="stop-color:#FBFBF0"/>
			<stop  offset="0.5952" style="stop-color:#F0F3F2"/>
			<stop  offset="0.7093" style="stop-color:#DDE5F4"/>
			<stop  offset="0.7135" style="stop-color:#DCE4F4"/>
			<stop  offset="1" style="stop-color:#FEE9DF"/>
		</linearGradient>
		<line class="st7" x1="957.83" y1="551.41" x2="985.05" y2="551.41"/>
		<linearGradient id="SVGID_9_" gradientUnits="userSpaceOnUse" x1="953.5231" y1="544.6747" x2="979.0257" y2="544.6747">
			<stop  offset="0" style="stop-color:#FDEBF3"/>
			<stop  offset="0.1124" style="stop-color:#F7EAF3"/>
			<stop  offset="0.2303" style="stop-color:#FAF1F2"/>
			<stop  offset="0.3539" style="stop-color:#FFFEF0"/>
			<stop  offset="0.478" style="stop-color:#FBFBF0"/>
			<stop  offset="0.5952" style="stop-color:#F0F3F2"/>
			<stop  offset="0.7093" style="stop-color:#DDE5F4"/>
			<stop  offset="0.7135" style="stop-color:#DCE4F4"/>
			<stop  offset="1" style="stop-color:#FEE9DF"/>
		</linearGradient>
		<line class="st8" x1="953.52" y1="544.67" x2="979.03" y2="544.67"/>
		<linearGradient id="SVGID_10_" gradientUnits="userSpaceOnUse" x1="949.8715" y1="538.7469" x2="973.4231" y2="538.7469">
			<stop  offset="0" style="stop-color:#FDEBF3"/>
			<stop  offset="0.1124" style="stop-color:#F7EAF3"/>
			<stop  offset="0.2303" style="stop-color:#FAF1F2"/>
			<stop  offset="0.3539" style="stop-color:#FFFEF0"/>
			<stop  offset="0.478" style="stop-color:#FBFBF0"/>
			<stop  offset="0.5952" style="stop-color:#F0F3F2"/>
			<stop  offset="0.7093" style="stop-color:#DDE5F4"/>
			<stop  offset="0.7135" style="stop-color:#DCE4F4"/>
			<stop  offset="1" style="stop-color:#FEE9DF"/>
		</linearGradient>
		<line class="st9" x1="949.87" y1="538.75" x2="973.42" y2="538.75"/>
		<linearGradient id="SVGID_11_" gradientUnits="userSpaceOnUse" x1="944.7721" y1="529.8859" x2="966.2744" y2="529.8859">
			<stop  offset="0" style="stop-color:#FDEBF3"/>
			<stop  offset="0.1124" style="stop-color:#F7EAF3"/>
			<stop  offset="0.2303" style="stop-color:#FAF1F2"/>
			<stop  offset="0.3539" style="stop-color:#FFFEF0"/>
			<stop  offset="0.478" style="stop-color:#FBFBF0"/>
			<stop  offset="0.5952" style="stop-color:#F0F3F2"/>
			<stop  offset="0.7093" style="stop-color:#DDE5F4"/>
			<stop  offset="0.7135" style="stop-color:#DCE4F4"/>
			<stop  offset="1" style="stop-color:#FEE9DF"/>
		</linearGradient>
		<line class="st10" x1="944.77" y1="529.89" x2="966.27" y2="529.89"/>
		<linearGradient id="SVGID_12_" gradientUnits="userSpaceOnUse" x1="942.5198" y1="525.7179" x2="962.4499" y2="525.7179">
			<stop  offset="0" style="stop-color:#FDEBF3"/>
			<stop  offset="0.1124" style="stop-color:#F7EAF3"/>
			<stop  offset="0.2303" style="stop-color:#FAF1F2"/>
			<stop  offset="0.3539" style="stop-color:#FFFEF0"/>
			<stop  offset="0.478" style="stop-color:#FBFBF0"/>
			<stop  offset="0.5952" style="stop-color:#F0F3F2"/>
			<stop  offset="0.7093" style="stop-color:#DDE5F4"/>
			<stop  offset="0.7135" style="stop-color:#DCE4F4"/>
			<stop  offset="1" style="stop-color:#FEE9DF"/>
		</linearGradient>
		<line class="st11" x1="942.52" y1="525.72" x2="962.45" y2="525.72"/>
		<linearGradient id="SVGID_13_" gradientUnits="userSpaceOnUse" x1="939.094" y1="519.0537" x2="959.0064" y2="519.0537">
			<stop  offset="0" style="stop-color:#FDEBF3"/>
			<stop  offset="0.1124" style="stop-color:#F7EAF3"/>
			<stop  offset="0.2303" style="stop-color:#FAF1F2"/>
			<stop  offset="0.3539" style="stop-color:#FFFEF0"/>
			<stop  offset="0.478" style="stop-color:#FBFBF0"/>
			<stop  offset="0.5952" style="stop-color:#F0F3F2"/>
			<stop  offset="0.7093" style="stop-color:#DDE5F4"/>
			<stop  offset="0.7135" style="stop-color:#DCE4F4"/>
			<stop  offset="1" style="stop-color:#FEE9DF"/>
		</linearGradient>
		<line class="st12" x1="939.09" y1="519.05" x2="959.01" y2="519.05"/>
		<linearGradient id="SVGID_14_" gradientUnits="userSpaceOnUse" x1="935.1143" y1="510.0421" x2="954.6609" y2="510.0421">
			<stop  offset="0" style="stop-color:#FDEBF3"/>
			<stop  offset="0.1124" style="stop-color:#F7EAF3"/>
			<stop  offset="0.2303" style="stop-color:#FAF1F2"/>
			<stop  offset="0.3539" style="stop-color:#FFFEF0"/>
			<stop  offset="0.478" style="stop-color:#FBFBF0"/>
			<stop  offset="0.5952" style="stop-color:#F0F3F2"/>
			<stop  offset="0.7093" style="stop-color:#DDE5F4"/>
			<stop  offset="0.7135" style="stop-color:#DCE4F4"/>
			<stop  offset="1" style="stop-color:#FEE9DF"/>
		</linearGradient>
		<line class="st13" x1="935.11" y1="510.04" x2="954.66" y2="510.04"/>
		<linearGradient id="SVGID_15_" gradientUnits="userSpaceOnUse" x1="932.7986" y1="500.7542" x2="951.6311" y2="500.7542">
			<stop  offset="0" style="stop-color:#FDEBF3"/>
			<stop  offset="0.1124" style="stop-color:#F7EAF3"/>
			<stop  offset="0.2303" style="stop-color:#FAF1F2"/>
			<stop  offset="0.3539" style="stop-color:#FFFEF0"/>
			<stop  offset="0.478" style="stop-color:#FBFBF0"/>
			<stop  offset="0.5952" style="stop-color:#F0F3F2"/>
			<stop  offset="0.7093" style="stop-color:#DDE5F4"/>
			<stop  offset="0.7135" style="stop-color:#DCE4F4"/>
			<stop  offset="1" style="stop-color:#FEE9DF"/>
		</linearGradient>
		<line class="st14" x1="932.8" y1="500.75" x2="951.63" y2="500.75"/>
		<linearGradient id="SVGID_16_" gradientUnits="userSpaceOnUse" x1="932.3007" y1="492.1771" x2="950.1349" y2="492.1771">
			<stop  offset="0" style="stop-color:#FDEBF3"/>
			<stop  offset="0.1124" style="stop-color:#F7EAF3"/>
			<stop  offset="0.2303" style="stop-color:#FAF1F2"/>
			<stop  offset="0.3539" style="stop-color:#FFFEF0"/>
			<stop  offset="0.478" style="stop-color:#FBFBF0"/>
			<stop  offset="0.5952" style="stop-color:#F0F3F2"/>
			<stop  offset="0.7093" style="stop-color:#DDE5F4"/>
			<stop  offset="0.7135" style="stop-color:#DCE4F4"/>
			<stop  offset="1" style="stop-color:#FEE9DF"/>
		</linearGradient>
		<line class="st15" x1="932.3" y1="492.18" x2="950.13" y2="492.18"/>
		<linearGradient id="SVGID_17_" gradientUnits="userSpaceOnUse" x1="933.0157" y1="486.0841" x2="949.8327" y2="486.0841">
			<stop  offset="0" style="stop-color:#FDEBF3"/>
			<stop  offset="0.1124" style="stop-color:#F7EAF3"/>
			<stop  offset="0.2303" style="stop-color:#FAF1F2"/>
			<stop  offset="0.3539" style="stop-color:#FFFEF0"/>
			<stop  offset="0.478" style="stop-color:#FBFBF0"/>
			<stop  offset="0.5952" style="stop-color:#F0F3F2"/>
			<stop  offset="0.7093" style="stop-color:#DDE5F4"/>
			<stop  offset="0.7135" style="stop-color:#DCE4F4"/>
			<stop  offset="1" style="stop-color:#FEE9DF"/>
		</linearGradient>
		<line class="st16" x1="933.02" y1="486.08" x2="949.83" y2="486.08"/>
		<linearGradient id="SVGID_18_" gradientUnits="userSpaceOnUse" x1="934.8118" y1="479.1367" x2="950.1349" y2="479.1367">
			<stop  offset="0" style="stop-color:#FDEBF3"/>
			<stop  offset="0.1124" style="stop-color:#F7EAF3"/>
			<stop  offset="0.2303" style="stop-color:#FAF1F2"/>
			<stop  offset="0.3539" style="stop-color:#FFFEF0"/>
			<stop  offset="0.478" style="stop-color:#FBFBF0"/>
			<stop  offset="0.5952" style="stop-color:#F0F3F2"/>
			<stop  offset="0.7093" style="stop-color:#DDE5F4"/>
			<stop  offset="0.7135" style="stop-color:#DCE4F4"/>
			<stop  offset="1" style="stop-color:#FEE9DF"/>
		</linearGradient>
		<line class="st17" x1="934.81" y1="479.14" x2="950.13" y2="479.14"/>
		<linearGradient id="SVGID_19_" gradientUnits="userSpaceOnUse" x1="937.4027" y1="472.8573" x2="951.3787" y2="472.8573">
			<stop  offset="0" style="stop-color:#FDEBF3"/>
			<stop  offset="0.1124" style="stop-color:#F7EAF3"/>
			<stop  offset="0.2303" style="stop-color:#FAF1F2"/>
			<stop  offset="0.3539" style="stop-color:#FFFEF0"/>
			<stop  offset="0.478" style="stop-color:#FBFBF0"/>
			<stop  offset="0.5952" style="stop-color:#F0F3F2"/>
			<stop  offset="0.7093" style="stop-color:#DDE5F4"/>
			<stop  offset="0.7135" style="stop-color:#DCE4F4"/>
			<stop  offset="1" style="stop-color:#FEE9DF"/>
		</linearGradient>
		<line class="st18" x1="937.4" y1="472.86" x2="951.38" y2="472.86"/>
		<linearGradient id="SVGID_20_" gradientUnits="userSpaceOnUse" x1="941.2178" y1="466.1438" x2="953.3541" y2="466.1438">
			<stop  offset="0" style="stop-color:#FDEBF3"/>
			<stop  offset="0.1124" style="stop-color:#F7EAF3"/>
			<stop  offset="0.2303" style="stop-color:#FAF1F2"/>
			<stop  offset="0.3539" style="stop-color:#FFFEF0"/>
			<stop  offset="0.478" style="stop-color:#FBFBF0"/>
			<stop  offset="0.5952" style="stop-color:#F0F3F2"/>
			<stop  offset="0.7093" style="stop-color:#DDE5F4"/>
			<stop  offset="0.7135" style="stop-color:#DCE4F4"/>
			<stop  offset="1" style="stop-color:#FEE9DF"/>
		</linearGradient>
		<line class="st19" x1="941.22" y1="466.14" x2="953.35" y2="466.14"/>
		<linearGradient id="SVGID_21_" gradientUnits="userSpaceOnUse" x1="945.8204" y1="459.8701" x2="955.5233" y2="459.8701">
			<stop  offset="0" style="stop-color:#FDEBF3"/>
			<stop  offset="0.1124" style="stop-color:#F7EAF3"/>
			<stop  offset="0.2303" style="stop-color:#FAF1F2"/>
			<stop  offset="0.3539" style="stop-color:#FFFEF0"/>
			<stop  offset="0.478" style="stop-color:#FBFBF0"/>
			<stop  offset="0.5952" style="stop-color:#F0F3F2"/>
			<stop  offset="0.7093" style="stop-color:#DDE5F4"/>
			<stop  offset="0.7135" style="stop-color:#DCE4F4"/>
			<stop  offset="1" style="stop-color:#FEE9DF"/>
		</linearGradient>
		<line class="st20" x1="945.82" y1="459.87" x2="955.52" y2="459.87"/>
		<linearGradient id="SVGID_22_" gradientUnits="userSpaceOnUse" x1="951.6311" y1="453.4574" x2="959.4179" y2="453.4574">
			<stop  offset="0" style="stop-color:#FDEBF3"/>
			<stop  offset="0.1124" style="stop-color:#F7EAF3"/>
			<stop  offset="0.2303" style="stop-color:#FAF1F2"/>
			<stop  offset="0.3539" style="stop-color:#FFFEF0"/>
			<stop  offset="0.478" style="stop-color:#FBFBF0"/>
			<stop  offset="0.5952" style="stop-color:#F0F3F2"/>
			<stop  offset="0.7093" style="stop-color:#DDE5F4"/>
			<stop  offset="0.7135" style="stop-color:#DCE4F4"/>
			<stop  offset="1" style="stop-color:#FEE9DF"/>
		</linearGradient>
		<line class="st21" x1="951.63" y1="453.46" x2="959.42" y2="453.46"/>
		<linearGradient id="SVGID_23_" gradientUnits="userSpaceOnUse" x1="959.0064" y1="446.7768" x2="963.9836" y2="446.7768">
			<stop  offset="0" style="stop-color:#FDEBF3"/>
			<stop  offset="0.1124" style="stop-color:#F7EAF3"/>
			<stop  offset="0.2303" style="stop-color:#FAF1F2"/>
			<stop  offset="0.3539" style="stop-color:#FFFEF0"/>
			<stop  offset="0.478" style="stop-color:#FBFBF0"/>
			<stop  offset="0.5952" style="stop-color:#F0F3F2"/>
			<stop  offset="0.7093" style="stop-color:#DDE5F4"/>
			<stop  offset="0.7135" style="stop-color:#DCE4F4"/>
			<stop  offset="1" style="stop-color:#FEE9DF"/>
		</linearGradient>
		<line class="st22" x1="959.01" y1="446.78" x2="963.98" y2="446.78"/>
	</g>
</g>
</svg>
