<?xml version="1.0" encoding="utf-8"?>
<!-- Generator: Adobe Illustrator 24.1.2, SVG Export Plug-In . SVG Version: 6.00 Build 0)  -->
<svg version="1.1" id="Layer_1" xmlns="http://www.w3.org/2000/svg" xmlns:xlink="http://www.w3.org/1999/xlink" x="0px" y="0px"
	 viewBox="800 360 320 340" style="enable-background:new 0 0 1920 1080;" xml:space="preserve">
<style type="text/css">
	.st0{fill:url(#SVGID_1_);}
	.st1{fill:url(#SVGID_2_);}
	.st2{fill:url(#SVGID_3_);stroke:#000000;stroke-miterlimit:10;}
	.st3{fill:url(#SVGID_4_);stroke:#000000;stroke-miterlimit:10;}
</style>
<g>
	<g>
		<path d="M1110.77,407.35c1.72,9.96,3.66,19.76,5.07,29.63c2.68,18.8,4.07,37.69,4.1,56.64c0.06,35.12-3.89,69.76-17.19,103.25
			c-8.33,20.97-20.07,40.35-37.25,57.1c-23.83,23.24-54.09,36.69-89.04,43.63c-15.87,3.15-30.62,0.3-45.42-3.27
			c-50.6-12.21-84.93-40.23-106.1-80.74c-11.28-21.58-18.16-44.26-21.17-67.66c-2.17-16.92-3.82-33.99-3.82-50.99
			c0-17.85,1.87-35.72,3.64-53.54c1.07-10.85,3.52-21.6,5.26-32.41c0.26-1.6,0.86-2.24,2.87-2.25c37.04-0.14,72.8-6.72,107.93-16.13
			c12.69-3.4,25.07-7.63,37.64-11.39c1.19-0.36,2.81-0.37,3.97,0.02c31.23,10.75,63.33,18.95,96.51,23.92
			c16.4,2.46,32.93,4,49.61,4.17C1108.34,407.36,1109.32,407.35,1110.77,407.35z M1109.3,408.57c-1.61,0-2.82,0.08-4.01-0.01
			c-13.71-1.02-27.51-1.5-41.1-3.21c-35.13-4.42-68.97-13.06-101.89-24.35c-2.08-0.71-3.82-0.77-5.93-0.05
			c-24.37,8.37-49.33,15.12-75,19.89c-22.42,4.16-44.99,7.4-68.06,7.19c-1.83-0.02-2.76,0.59-3.16,2.43
			c-4.08,18.92-6.54,38.01-7.75,57.2c-1.69,26.95-1.31,53.86,3.19,80.66c3.88,23.12,10.43,45.6,21.93,66.88
			c21.21,39.26,55.12,66.22,104.41,77.95c14.06,3.34,28.09,6.22,43.17,3.31c33.58-6.48,62.99-18.99,86.52-40.81
			c17.14-15.89,29.16-34.4,37.74-54.61c15.53-36.58,19.54-74.59,18.93-113.14c-0.31-19.33-2.01-38.58-5.08-57.73
			C1112.06,423.01,1110.63,415.89,1109.3,408.57z"/>
		<linearGradient id="SVGID_1_" gradientUnits="userSpaceOnUse" x1="801.4698" y1="539.036" x2="1118.347" y2="539.036">
			<stop  offset="0.0337" style="stop-color:#9B9B98"/>
			<stop  offset="0.1338" style="stop-color:#A4A5A7"/>
			<stop  offset="0.2191" style="stop-color:#AEB0B7"/>
			<stop  offset="0.3518" style="stop-color:#9FA3AA"/>
			<stop  offset="0.6054" style="stop-color:#788187"/>
			<stop  offset="0.7191" style="stop-color:#657076"/>
			<stop  offset="1" style="stop-color:#8B949A"/>
		</linearGradient>
		<path class="st0" d="M1109.3,408.57c1.34,7.33,2.77,14.44,3.91,21.59c3.07,19.15,4.77,38.4,5.08,57.73
			c0.61,38.56-3.4,76.56-18.93,113.14c-8.58,20.2-20.6,38.71-37.74,54.61c-23.53,21.82-52.94,34.33-86.52,40.81
			c-15.08,2.91-29.11,0.03-43.17-3.31c-49.29-11.72-83.2-38.69-104.41-77.95c-11.5-21.28-18.05-43.76-21.93-66.88
			c-4.5-26.79-4.88-53.71-3.19-80.66c1.21-19.19,3.67-38.28,7.75-57.2c0.4-1.84,1.33-2.45,3.16-2.43
			c23.06,0.21,45.64-3.03,68.06-7.19c25.67-4.77,50.64-11.52,75-19.89c2.11-0.72,3.85-0.66,5.93,0.05
			c32.92,11.29,66.76,19.93,101.89,24.35c13.59,1.71,27.39,2.19,41.1,3.21C1106.48,408.64,1107.68,408.57,1109.3,408.57z
			 M1093.87,421.1c-10.67-0.7-20.8-1.02-30.82-2.07c-35.05-3.69-68.75-11.84-101.47-23.07c-2.08-0.72-3.72-0.8-5.85-0.09
			c-41.47,13.89-84.03,23.64-128.9,24.38c-1.81,0.03-2.43,0.55-2.75,2.05c-3.76,17.52-6.04,35.18-7.2,52.95
			c-1.37,21.1-0.84,42.15,1.8,63.19c2.79,22.23,8.4,43.82,18.74,64.4c18.86,37.55,50.12,63.5,96.91,74.46
			c11.6,2.72,23.2,5.48,35.7,3.3c28.04-4.9,53.2-14.48,74.17-31.41c19.93-16.09,32.97-35.85,41.93-57.75
			c12.39-30.26,16.2-61.67,15.75-93.44c-0.26-18.04-2.26-36.08-3.96-54.08C1097.21,436.26,1095.26,428.7,1093.87,421.1z"/>
		<path d="M1093.87,421.1c1.39,7.6,3.34,15.16,4.06,22.81c1.7,18.01,3.7,36.04,3.96,54.08c0.45,31.77-3.37,63.18-15.75,93.44
			c-8.96,21.9-22,41.66-41.93,57.75c-20.98,16.94-46.13,26.51-74.17,31.41c-12.5,2.18-24.1-0.58-35.7-3.3
			c-46.78-10.96-78.05-36.91-96.91-74.46c-10.33-20.57-15.95-42.17-18.74-64.4c-2.64-21.04-3.18-42.09-1.8-63.19
			c1.15-17.77,3.44-35.43,7.2-52.95c0.32-1.5,0.95-2.02,2.75-2.05c44.87-0.75,87.43-10.5,128.9-24.38c2.13-0.71,3.76-0.62,5.85,0.09
			c32.72,11.23,66.42,19.38,101.47,23.07C1073.07,420.08,1083.2,420.4,1093.87,421.1z M1092.48,422.19
			c-1.29-0.06-2.16-0.07-3.02-0.14c-11.19-0.81-22.46-1.19-33.56-2.52c-32.54-3.89-63.87-11.74-94.39-22.03
			c-1.65-0.56-3.96-0.67-5.58-0.14c-41.25,13.61-83.46,23.39-128.01,24.26c-0.83,0.02-2.19,1.14-2.36,1.89
			c-4.03,18.06-6.26,36.32-7.29,54.66c-0.99,17.6-0.71,35.2,1.13,52.79c1.87,17.87,5.25,35.46,11.44,52.62
			c7.57,21.01,18.69,40.42,35.95,56.96c20.34,19.49,45.82,31.44,75.47,37.06c6.53,1.24,13.41,3.1,19.82,2.44
			c23.25-2.38,44.92-9.04,64.41-20.4c24.23-14.12,40.87-33.44,52.43-56.18c10.03-19.74,15.77-40.44,18.63-61.78
			c2.19-16.4,3.7-32.85,2.77-49.34c-0.95-16.82-2.64-33.62-4.35-50.4C1095.28,435.34,1093.67,428.8,1092.48,422.19z"/>
		
			<radialGradient id="SVGID_2_" cx="958.7303" cy="538.3301" r="232.8353" gradientTransform="matrix(0.6616 0 0 0.5654 324.8553 234.2591)" gradientUnits="userSpaceOnUse">
			<stop  offset="0.1798" style="stop-color:#F4E8D9"/>
			<stop  offset="0.5899" style="stop-color:#EDD089"/>
			<stop  offset="1" style="stop-color:#FEE962"/>
		</radialGradient>
		<path class="st1" d="M1092.48,422.19c1.19,6.61,2.8,13.16,3.47,19.77c1.71,16.78,3.41,33.58,4.35,50.4
			c0.93,16.48-0.58,32.94-2.77,49.34c-2.85,21.34-8.6,42.04-18.63,61.78c-11.56,22.74-28.2,42.06-52.43,56.18
			c-19.49,11.36-41.15,18.01-64.41,20.4c-6.41,0.66-13.29-1.21-19.82-2.44c-29.65-5.62-55.13-17.57-75.47-37.06
			c-17.26-16.54-28.38-35.95-35.95-56.96c-6.18-17.16-9.56-34.75-11.44-52.62c-1.85-17.59-2.12-35.18-1.13-52.79
			c1.03-18.34,3.26-36.6,7.29-54.66c0.17-0.76,1.53-1.88,2.36-1.89c44.55-0.87,86.77-10.65,128.01-24.26
			c1.62-0.53,3.93-0.42,5.58,0.14c30.53,10.29,61.85,18.14,94.39,22.03c11.11,1.33,22.37,1.71,33.56,2.52
			C1090.32,422.11,1091.19,422.13,1092.48,422.19z"/>
	</g>
	<linearGradient id="SVGID_3_" gradientUnits="userSpaceOnUse" x1="984.7375" y1="541.8201" x2="1083.8646" y2="541.8201">
		<stop  offset="0" style="stop-color:#FDEBF3"/>
		<stop  offset="0.1124" style="stop-color:#F7EAF3"/>
		<stop  offset="0.2303" style="stop-color:#FAF1F2"/>
		<stop  offset="0.3539" style="stop-color:#FFFEF0"/>
		<stop  offset="0.478" style="stop-color:#FBFBF0"/>
		<stop  offset="0.5952" style="stop-color:#F0F3F2"/>
		<stop  offset="0.7093" style="stop-color:#DDE5F4"/>
		<stop  offset="0.7135" style="stop-color:#DCE4F4"/>
		<stop  offset="1" style="stop-color:#FEE9DF"/>
	</linearGradient>
	<path class="st2" d="M1078.26,497.24c-0.14,1.14-0.26,1.99-0.36,2.85c-0.11,0.9,0.37,1.33,1.43,1.24c1.06-0.09,2.11-0.21,3.17-0.29
		c0.41-0.03,0.83-0.01,1.24-0.01c0.04,0.09,0.08,0.19,0.12,0.28c-0.28,0.27-0.55,0.56-0.85,0.82c-5.69,4.86-11.39,9.71-17.05,14.6
		c-0.81,0.7-1.3,0.7-2.05-0.01c-1.04-0.99-2.16-1.92-3.3-2.83c-0.65-0.52-0.68-0.9-0.04-1.47c3.68-3.25,7.31-6.54,10.98-9.79
		c1.76-1.56,3.58-3.07,5.39-4.59C1077.26,497.78,1077.65,497.61,1078.26,497.24z M1047.39,531.19c-0.89-0.78-1.85-1.5-2.68-2.32
		c-0.74-0.73-1.22-0.63-1.93,0.07c-2.64,2.59-5.35,5.13-8.03,7.68c-2.55,2.42-5.11,4.84-7.64,7.28c-0.69,0.66-1.83,1.49-1.72,2.11
		c0.13,0.77,1.37,1.39,2.09,2.11c0.59,0.59,1.07,0.57,1.72,0.01c6.05-5.2,12.13-10.38,18.19-15.57c0.22-0.19,0.39-0.43,0.63-0.69
		C1047.79,531.62,1047.62,531.38,1047.39,531.19z M1049.42,530.82c1-0.84,1.98-1.68,2.97-2.53c3.78-3.23,7.55-6.45,11.33-9.68
		c0.44-0.38,0.96-0.7,0.25-1.28c-1.33-1.09-2.63-2.22-3.93-3.34c-0.5-0.43-0.87-0.33-1.32,0.09c-2.89,2.68-5.81,5.34-8.71,8.02
		c-1.64,1.52-3.26,3.05-4.86,4.61c-0.4,0.39-1.06,0.82-0.35,1.43c1.12,0.98,2.26,1.94,3.4,2.9c0.11,0.09,0.26,0.15,0.47,0.27
		C1048.93,531.15,1049.2,531.01,1049.42,530.82z M1026.14,547.77c-1.75-1.5-1.7-1.46-3.3,0.11c-3.27,3.19-6.57,6.35-9.92,9.48
		c-1.78,1.66-1.8,1.75,0.14,3.28c0.6,0.48,1.01,0.41,1.54-0.05c4.17-3.58,8.36-7.15,12.54-10.72c0.2-0.17,0.35-0.37,0.63-0.67
		C1027.21,548.7,1026.68,548.23,1026.14,547.77z M1010.05,560.09c-0.44,0.41-0.86,0.84-1.3,1.26c-2.5,2.41-4.97,4.85-7.53,7.21
		c-0.9,0.83-0.34,1.23,0.3,1.79c0.75,0.66,1.26,0.32,1.84-0.18c3.01-2.59,6.04-5.15,9.04-7.75c0.33-0.28,0.75-0.88,0.61-1.08
		c-0.5-0.74-1.21-1.38-1.88-2.09C1010.52,559.73,1010.26,559.89,1010.05,560.09z M990.84,580.7c2.85-2.52,5.78-4.96,8.69-7.43
		c0.52-0.44,1.1-0.84,1.65-1.26c0.93-0.7,0.19-1.14-0.33-1.63c-0.55-0.52-0.97-0.6-1.56,0.03c-0.89,0.96-1.91,1.83-2.86,2.74
		c-3.07,2.91-6.18,5.78-9.17,8.75c-1.25,1.24-2.05,2.75-2.52,4.5C986.87,584.4,988.8,582.5,990.84,580.7z"/>
	<linearGradient id="SVGID_4_" gradientUnits="userSpaceOnUse" x1="836.2999" y1="538.9282" x2="949.8618" y2="538.9282">
		<stop  offset="0" style="stop-color:#FDEBF3"/>
		<stop  offset="0.1124" style="stop-color:#F7EAF3"/>
		<stop  offset="0.2303" style="stop-color:#FAF1F2"/>
		<stop  offset="0.3539" style="stop-color:#FFFEF0"/>
		<stop  offset="0.478" style="stop-color:#FBFBF0"/>
		<stop  offset="0.5952" style="stop-color:#F0F3F2"/>
		<stop  offset="0.7093" style="stop-color:#DDE5F4"/>
		<stop  offset="0.7135" style="stop-color:#DCE4F4"/>
		<stop  offset="1" style="stop-color:#FEE9DF"/>
	</linearGradient>
	<path class="st3" d="M949.86,582.99c-3.81,0.21-7.41,0.24-10.49-1.47c-6.92-3.84-13.75-7.79-20.57-11.77
		c-3.2-1.87-5.1-4.62-6.52-7.63c-1.59-3.38-4.16-6.1-7.51-8.31c-0.69-0.45-1.35-0.63-2.26-0.5c-2.31,0.33-3.97-0.88-5.57-2.02
		c-1.48-1.05-2.83-2.24-4.22-3.38c-3.25-2.68-6.46-5.39-9.73-8.05c-0.74-0.61-0.73-1.02,0-1.62c2.18-1.8,4.33-3.64,6.45-5.51
		c0.69-0.6,1.14-0.54,1.82,0.01c3.75,3.04,7.61,5.98,11.28,9.09c2.39,2.02,4.54,4.24,6.76,6.4c0.71,0.69,0.93,1.52,0.63,2.46
		c-0.1,0.31,0.08,0.83,0.36,1.05c4.25,3.35,8.55,6.66,12.83,9.98c2.94,2.29,5.88,4.58,8.83,6.86c4.31,3.35,8.65,6.67,12.92,10.05
		C946.54,579.95,948.07,581.42,949.86,582.99z M927.47,568.98c-1.1,0.05-1.5,0.5-1.08,1.2c0.45,0.75,1.06,1.49,1.78,2.06
		c2.89,2.27,5.83,4.49,8.78,6.7c0.57,0.43,1.24,0.87,1.95,1.03c0.53,0.12,1.28-0.12,1.77-0.39c0.16-0.09-0.14-0.84-0.33-1.26
		c-0.11-0.25-0.37-0.47-0.61-0.65c-3.42-2.61-6.83-5.22-10.29-7.79C928.9,569.47,928.14,569.28,927.47,568.98z M903.61,552.58
		c1.77-0.02,3.48-0.26,4.91-1.26C906.68,551.09,905.19,551.96,903.61,552.58z M839.03,503.93c1.77,1.46,3.55,2.91,5.34,4.36
		c2.95,2.39,5.91,4.76,8.83,7.17c0.65,0.53,1.04,0.45,1.61-0.05c1.6-1.41,3.24-2.79,4.87-4.18c1.17-1,1.15-1.01-0.11-1.9
		c-4.41-3.14-8.79-6.31-13.2-9.46c-2.17-1.55-4.36-3.08-6.59-4.57c-1.39-0.93-2.45-0.65-3.01,0.78c-0.28,0.72-0.37,1.5-0.47,1.93
		C836.37,500.52,837.2,502.41,839.03,503.93z M860.35,511.27c-1.72,1.46-3.4,2.95-5.16,4.38c-0.73,0.59-0.66,0.97,0.03,1.52
		c3.73,3.01,7.44,6.03,11.12,9.09c0.69,0.57,1.12,0.46,1.72-0.06c1.89-1.66,3.81-3.3,5.75-4.91c0.66-0.55,0.81-0.97,0.03-1.53
		c-4-2.9-7.98-5.83-11.98-8.74c-0.18-0.13-0.4-0.21-0.67-0.35C860.9,510.87,860.6,511.06,860.35,511.27z M875.53,521.06
		c-0.16-0.11-0.78,0.05-1,0.23c-2.11,1.76-4.18,3.56-6.28,5.33c-0.53,0.44-0.52,0.8,0.01,1.23c2.22,1.81,4.44,3.63,6.64,5.46
		c0.56,0.46,0.96,0.35,1.44-0.07c0.97-0.86,1.96-1.69,2.95-2.53c1.42-1.2,2.85-2.39,4.43-3.71
		C880.88,524.93,878.23,522.97,875.53,521.06z M882.36,538.17c2.29-1.95,4.57-3.91,6.87-5.85c0.5-0.42,0.47-0.75-0.04-1.13
		c-1.47-1.11-2.91-2.25-4.43-3.31c-0.24-0.17-0.98-0.15-1.21,0.03c-2.27,1.87-4.48,3.79-6.72,5.68c-0.54,0.46-0.47,0.81,0.04,1.23
		c1.32,1.1,2.62,2.22,3.93,3.32c0.22,0.19,0.52,0.31,0.8,0.48C881.9,538.45,882.16,538.34,882.36,538.17z M908.53,551.32
		c-1.85-0.24-3.34,0.64-4.91,1.26C905.39,552.56,907.09,552.32,908.53,551.32z"/>
</g>
</svg>
