<?xml version="1.0" encoding="utf-8"?>
<!-- Generator: Adobe Illustrator 24.1.2, SVG Export Plug-In . SVG Version: 6.00 Build 0)  -->
<svg version="1.1" id="Layer_1" xmlns="http://www.w3.org/2000/svg" xmlns:xlink="http://www.w3.org/1999/xlink" x="0px" y="0px"
	 viewBox="800 360 320 340" style="enable-background:new 0 0 1920 1080;" xml:space="preserve">
<style type="text/css">
	.st0{fill:url(#SVGID_1_);}
	.st1{fill:url(#SVGID_2_);}
	.st2{fill:url(#SVGID_3_);stroke:#000000;stroke-miterlimit:10;}
	.st3{fill:url(#SVGID_4_);stroke:#000000;stroke-miterlimit:10;}
	.st4{fill:url(#SVGID_5_);stroke:#000000;stroke-miterlimit:10;}
	.st5{fill:url(#SVGID_6_);stroke:#000000;stroke-miterlimit:10;}
	.st6{fill:url(#SVGID_7_);stroke:#000000;stroke-miterlimit:10;}
	.st7{fill:url(#SVGID_8_);stroke:#000000;stroke-miterlimit:10;}
</style>
<g>
	<g>
		<path d="M1110.77,407.35c1.72,9.96,3.66,19.76,5.07,29.63c2.68,18.8,4.07,37.69,4.1,56.64c0.06,35.12-3.89,69.76-17.19,103.25
			c-8.33,20.97-20.07,40.35-37.25,57.1c-23.83,23.24-54.09,36.69-89.04,43.63c-15.87,3.15-30.62,0.3-45.42-3.27
			c-50.6-12.21-84.93-40.23-106.1-80.74c-11.28-21.58-18.16-44.26-21.17-67.66c-2.17-16.92-3.82-33.99-3.82-50.99
			c0-17.85,1.87-35.72,3.64-53.54c1.07-10.85,3.52-21.6,5.26-32.41c0.26-1.6,0.86-2.24,2.87-2.25c37.04-0.14,72.8-6.72,107.93-16.13
			c12.69-3.4,25.07-7.63,37.64-11.39c1.19-0.36,2.81-0.37,3.97,0.02c31.23,10.75,63.33,18.95,96.51,23.92
			c16.4,2.46,32.93,4,49.61,4.17C1108.34,407.36,1109.32,407.35,1110.77,407.35z M1109.3,408.57c-1.61,0-2.82,0.08-4.01-0.01
			c-13.71-1.02-27.51-1.5-41.1-3.21c-35.13-4.42-68.97-13.06-101.89-24.35c-2.08-0.71-3.82-0.77-5.93-0.05
			c-24.37,8.37-49.33,15.12-75,19.89c-22.42,4.16-44.99,7.4-68.06,7.19c-1.83-0.02-2.76,0.59-3.16,2.43
			c-4.08,18.92-6.54,38.01-7.75,57.2c-1.69,26.95-1.31,53.86,3.19,80.66c3.88,23.12,10.43,45.6,21.93,66.88
			c21.21,39.26,55.12,66.22,104.41,77.95c14.06,3.34,28.09,6.22,43.17,3.31c33.58-6.48,62.99-18.99,86.52-40.81
			c17.14-15.89,29.16-34.4,37.74-54.61c15.53-36.58,19.54-74.59,18.93-113.14c-0.31-19.33-2.01-38.58-5.08-57.73
			C1112.06,423.01,1110.63,415.89,1109.3,408.57z"/>
		<linearGradient id="SVGID_1_" gradientUnits="userSpaceOnUse" x1="801.4698" y1="539.036" x2="1118.347" y2="539.036">
			<stop  offset="0.0337" style="stop-color:#9B9B98"/>
			<stop  offset="0.1338" style="stop-color:#A4A5A7"/>
			<stop  offset="0.2191" style="stop-color:#AEB0B7"/>
			<stop  offset="0.3518" style="stop-color:#9FA3AA"/>
			<stop  offset="0.6054" style="stop-color:#788187"/>
			<stop  offset="0.7191" style="stop-color:#657076"/>
			<stop  offset="1" style="stop-color:#8B949A"/>
		</linearGradient>
		<path class="st0" d="M1109.3,408.57c1.34,7.33,2.77,14.44,3.91,21.59c3.07,19.15,4.77,38.4,5.08,57.73
			c0.61,38.56-3.4,76.56-18.93,113.14c-8.58,20.2-20.6,38.71-37.74,54.61c-23.53,21.82-52.94,34.33-86.52,40.81
			c-15.08,2.91-29.11,0.03-43.17-3.31c-49.29-11.72-83.2-38.69-104.41-77.95c-11.5-21.28-18.05-43.76-21.93-66.88
			c-4.5-26.79-4.88-53.71-3.19-80.66c1.21-19.19,3.67-38.28,7.75-57.2c0.4-1.84,1.33-2.45,3.16-2.43
			c23.06,0.21,45.64-3.03,68.06-7.19c25.67-4.77,50.64-11.52,75-19.89c2.11-0.72,3.85-0.66,5.93,0.05
			c32.92,11.29,66.76,19.93,101.89,24.35c13.59,1.71,27.39,2.19,41.1,3.21C1106.48,408.64,1107.68,408.57,1109.3,408.57z
			 M1093.87,421.1c-10.67-0.7-20.8-1.02-30.82-2.07c-35.05-3.69-68.75-11.84-101.47-23.07c-2.08-0.72-3.72-0.8-5.85-0.09
			c-41.47,13.89-84.03,23.64-128.9,24.38c-1.81,0.03-2.43,0.55-2.75,2.05c-3.76,17.52-6.04,35.18-7.2,52.95
			c-1.37,21.1-0.84,42.15,1.8,63.19c2.79,22.23,8.4,43.82,18.74,64.4c18.86,37.55,50.12,63.5,96.91,74.46
			c11.6,2.72,23.2,5.48,35.7,3.3c28.04-4.9,53.2-14.48,74.17-31.41c19.93-16.09,32.97-35.85,41.93-57.75
			c12.39-30.26,16.2-61.67,15.75-93.44c-0.26-18.04-2.26-36.08-3.96-54.08C1097.21,436.26,1095.26,428.7,1093.87,421.1z"/>
		<path d="M1093.87,421.1c1.39,7.6,3.34,15.16,4.06,22.81c1.7,18.01,3.7,36.04,3.96,54.08c0.45,31.77-3.37,63.18-15.75,93.44
			c-8.96,21.9-22,41.66-41.93,57.75c-20.98,16.94-46.13,26.51-74.17,31.41c-12.5,2.18-24.1-0.58-35.7-3.3
			c-46.78-10.96-78.05-36.91-96.91-74.46c-10.33-20.57-15.95-42.17-18.74-64.4c-2.64-21.04-3.18-42.09-1.8-63.19
			c1.15-17.77,3.44-35.43,7.2-52.95c0.32-1.5,0.95-2.02,2.75-2.05c44.87-0.75,87.43-10.5,128.9-24.38c2.13-0.71,3.76-0.62,5.85,0.09
			c32.72,11.23,66.42,19.38,101.47,23.07C1073.07,420.08,1083.2,420.4,1093.87,421.1z M1092.48,422.19
			c-1.29-0.06-2.16-0.07-3.02-0.14c-11.19-0.81-22.46-1.19-33.56-2.52c-32.54-3.89-63.87-11.74-94.39-22.03
			c-1.65-0.56-3.96-0.67-5.58-0.14c-41.25,13.61-83.46,23.39-128.01,24.26c-0.83,0.02-2.19,1.14-2.36,1.89
			c-4.03,18.06-6.26,36.32-7.29,54.66c-0.99,17.6-0.71,35.2,1.13,52.79c1.87,17.87,5.25,35.46,11.44,52.62
			c7.57,21.01,18.69,40.42,35.95,56.96c20.34,19.49,45.82,31.44,75.47,37.06c6.53,1.24,13.41,3.1,19.82,2.44
			c23.25-2.38,44.92-9.04,64.41-20.4c24.23-14.12,40.87-33.44,52.43-56.18c10.03-19.74,15.77-40.44,18.63-61.78
			c2.19-16.4,3.7-32.85,2.77-49.34c-0.95-16.82-2.64-33.62-4.35-50.4C1095.28,435.34,1093.67,428.8,1092.48,422.19z"/>
		
			<radialGradient id="SVGID_2_" cx="958.7303" cy="538.3301" r="232.8353" gradientTransform="matrix(0.6616 0 0 0.5654 324.8553 234.2591)" gradientUnits="userSpaceOnUse">
			<stop  offset="5.618000e-03" style="stop-color:#AEB0B7"/>
			<stop  offset="0.3156" style="stop-color:#AAAAA8"/>
			<stop  offset="0.3539" style="stop-color:#A9A9A6"/>
			<stop  offset="0.5001" style="stop-color:#9A9E9E"/>
			<stop  offset="0.6742" style="stop-color:#838C92"/>
			<stop  offset="1" style="stop-color:#657076"/>
		</radialGradient>
		<path class="st1" d="M1092.48,422.19c1.19,6.61,2.8,13.16,3.47,19.77c1.71,16.78,3.41,33.58,4.35,50.4
			c0.93,16.48-0.58,32.94-2.77,49.34c-2.85,21.34-8.6,42.04-18.63,61.78c-11.56,22.74-28.2,42.06-52.43,56.18
			c-19.49,11.36-41.15,18.01-64.41,20.4c-6.41,0.66-13.29-1.21-19.82-2.44c-29.65-5.62-55.13-17.57-75.47-37.06
			c-17.26-16.54-28.38-35.95-35.95-56.96c-6.18-17.16-9.56-34.75-11.44-52.62c-1.85-17.59-2.12-35.18-1.13-52.79
			c1.03-18.34,3.26-36.6,7.29-54.66c0.17-0.76,1.53-1.88,2.36-1.89c44.55-0.87,86.77-10.65,128.01-24.26
			c1.62-0.53,3.93-0.42,5.58,0.14c30.53,10.29,61.85,18.14,94.39,22.03c11.11,1.33,22.37,1.71,33.56,2.52
			C1090.32,422.11,1091.19,422.13,1092.48,422.19z"/>
	</g>
	<g>
		<linearGradient id="SVGID_3_" gradientUnits="userSpaceOnUse" x1="900.866" y1="512.7078" x2="1027.8295" y2="512.7078">
			<stop  offset="0" style="stop-color:#FDEBF3"/>
			<stop  offset="0.1124" style="stop-color:#F7EAF3"/>
			<stop  offset="0.2303" style="stop-color:#FAF1F2"/>
			<stop  offset="0.3539" style="stop-color:#FFFEF0"/>
			<stop  offset="0.478" style="stop-color:#FBFBF0"/>
			<stop  offset="0.5952" style="stop-color:#F0F3F2"/>
			<stop  offset="0.7093" style="stop-color:#DDE5F4"/>
			<stop  offset="0.7135" style="stop-color:#DCE4F4"/>
			<stop  offset="1" style="stop-color:#FEE9DF"/>
		</linearGradient>
		<path class="st2" d="M1027.83,512.84c-0.18,30.89-30.01,55.24-65.86,54.12c-33.93-1.06-61.31-24.86-61.1-54.45
			c0.22-30.99,29.65-54.72,64.83-54.07C1000.29,459.07,1027.74,482.95,1027.83,512.84z M964.05,554.83
			c27.19,0.04,49.46-18.87,49.55-42.08c0.09-23.45-21.96-42.52-49.35-42.54c-28.54-0.02-49.92,20.03-49.67,42.91
			C914.82,535.82,937.02,554.79,964.05,554.83z"/>
		<linearGradient id="SVGID_4_" gradientUnits="userSpaceOnUse" x1="935.7216" y1="592.8026" x2="992.9263" y2="592.8026">
			<stop  offset="0" style="stop-color:#FDEBF3"/>
			<stop  offset="0.1124" style="stop-color:#F7EAF3"/>
			<stop  offset="0.2303" style="stop-color:#FAF1F2"/>
			<stop  offset="0.3539" style="stop-color:#FFFEF0"/>
			<stop  offset="0.478" style="stop-color:#FBFBF0"/>
			<stop  offset="0.5952" style="stop-color:#F0F3F2"/>
			<stop  offset="0.7093" style="stop-color:#DDE5F4"/>
			<stop  offset="0.7135" style="stop-color:#DCE4F4"/>
			<stop  offset="1" style="stop-color:#FEE9DF"/>
		</linearGradient>
		<path class="st3" d="M992.93,600.62c-6.15,0-12.14,0-18.27,0c0,6.05,0,11.99,0,18.04c-6.9,0-13.65,0-20.55,0
			c0-6.08,0-12.12,0-18.33c-6.17,0-12.21,0-18.38,0c0-6.04,0-11.92,0-17.98c6.01,0,12.04,0,18.29,0c0-5.34,0-10.49,0-15.39
			c6.8,0,13.38,0,20.33,0c0,4.88,0,10,0,15.3c6.41,0,12.44,0,18.58,0C992.93,588.42,992.93,594.41,992.93,600.62z"/>
		<linearGradient id="SVGID_5_" gradientUnits="userSpaceOnUse" x1="915.3359" y1="512.5161" x2="1012.9285" y2="512.5161">
			<stop  offset="0" style="stop-color:#FDEBF3"/>
			<stop  offset="0.1124" style="stop-color:#F7EAF3"/>
			<stop  offset="0.2303" style="stop-color:#FAF1F2"/>
			<stop  offset="0.3539" style="stop-color:#FFFEF0"/>
			<stop  offset="0.478" style="stop-color:#FBFBF0"/>
			<stop  offset="0.5952" style="stop-color:#F0F3F2"/>
			<stop  offset="0.7093" style="stop-color:#DDE5F4"/>
			<stop  offset="0.7135" style="stop-color:#DCE4F4"/>
			<stop  offset="1" style="stop-color:#FEE9DF"/>
		</linearGradient>
		<path class="st4" d="M915.34,512.5c-0.01,23.13,21.75,41.78,48.75,41.79c26.78,0.01,48.61-18.61,48.84-41.3
			c0.24-23.14-21.45-42.2-48.81-42.24C937.11,470.7,915.34,489.37,915.34,512.5z"/>
		<linearGradient id="SVGID_6_" gradientUnits="userSpaceOnUse" x1="945.2294" y1="512.7449" x2="983.1993" y2="512.7449">
			<stop  offset="0" style="stop-color:#FDEBF3"/>
			<stop  offset="0.1124" style="stop-color:#F7EAF3"/>
			<stop  offset="0.2303" style="stop-color:#FAF1F2"/>
			<stop  offset="0.3539" style="stop-color:#FFFEF0"/>
			<stop  offset="0.478" style="stop-color:#FBFBF0"/>
			<stop  offset="0.5952" style="stop-color:#F0F3F2"/>
			<stop  offset="0.7093" style="stop-color:#DDE5F4"/>
			<stop  offset="0.7135" style="stop-color:#DCE4F4"/>
			<stop  offset="1" style="stop-color:#FEE9DF"/>
		</linearGradient>
		<path class="st5" d="M964.21,500.97c1.81-3.67,4.6-6.26,8.39-8.07c0.93-0.45,1.95-0.83,2.98-1.07c3.91-0.92,6.68,0.58,7.35,4
			c0.73,3.75-0.02,7.37-1.62,10.86c-4.01,8.73-9.64,16.72-15.27,24.72c-0.52,0.74-1.07,1.47-1.84,2.52
			c-1.07-1.47-2.01-2.74-2.91-4.02c-5.19-7.44-10.31-14.92-14.1-22.99c-1.57-3.35-2.24-6.81-1.81-10.4c0.49-4.16,3.83-5.95,8.43-4.4
			C958.58,493.73,961.96,496.69,964.21,500.97z"/>
		<linearGradient id="SVGID_7_" gradientUnits="userSpaceOnUse" x1="945.778" y1="512.4883" x2="982.583" y2="512.4883">
			<stop  offset="0" style="stop-color:#FDEBF3"/>
			<stop  offset="0.1124" style="stop-color:#F7EAF3"/>
			<stop  offset="0.2303" style="stop-color:#FAF1F2"/>
			<stop  offset="0.3539" style="stop-color:#FFFEF0"/>
			<stop  offset="0.478" style="stop-color:#FBFBF0"/>
			<stop  offset="0.5952" style="stop-color:#F0F3F2"/>
			<stop  offset="0.7093" style="stop-color:#DDE5F4"/>
			<stop  offset="0.7135" style="stop-color:#DCE4F4"/>
			<stop  offset="1" style="stop-color:#FEE9DF"/>
		</linearGradient>
		<path class="st6" d="M964.35,503.25c1.1-5.29,4.92-8.67,10.55-10.63c4.06-1.41,6.74-0.09,7.44,3.59c0.65,3.42-0.07,6.74-1.51,9.95
			c-3.77,8.43-9.2,16.11-14.55,23.84c-0.63,0.91-1.3,1.8-2.12,2.92c-1.62-2.3-3.22-4.33-4.54-6.49
			c-4.05-6.63-8.14-13.25-11.92-19.99c-1.81-3.22-2.32-6.79-1.62-10.38c0.65-3.32,3.25-4.76,6.93-3.56
			c5.49,1.8,9.53,4.88,10.8,10.07c0.06,0.24,0.38,0.44,0.58,0.66c-0.02,0.27-0.04,0.54-0.1,1.25c-0.55-0.88-0.8-1.34-1.11-1.77
			c-1.88-2.56-4.37-4.52-7.79-5.43c-3.29-0.88-5.56,0.4-6.07,3.31c-0.55,3.14-0.03,6.23,1.63,9c3.96,6.61,8.17,13.11,12.3,19.65
			c0.2,0.32,0.58,0.57,0.86,0.84c0.26-0.16,0.39-0.21,0.44-0.28c4.94-6.85,9.94-13.7,13.16-21.3c1.01-2.38,1.21-5.12,1.16-7.69
			c-0.06-3.14-2.9-4.57-6.27-3.42c-1.53,0.52-3.06,1.22-4.3,2.13C966.83,500.6,965.66,501.99,964.35,503.25z"/>
		<linearGradient id="SVGID_8_" gradientUnits="userSpaceOnUse" x1="949.8837" y1="513.3962" x2="978.4554" y2="513.3962">
			<stop  offset="0" style="stop-color:#FDEBF3"/>
			<stop  offset="0.1124" style="stop-color:#F7EAF3"/>
			<stop  offset="0.2303" style="stop-color:#FAF1F2"/>
			<stop  offset="0.3539" style="stop-color:#FFFEF0"/>
			<stop  offset="0.478" style="stop-color:#FBFBF0"/>
			<stop  offset="0.5952" style="stop-color:#F0F3F2"/>
			<stop  offset="0.7093" style="stop-color:#DDE5F4"/>
			<stop  offset="0.7135" style="stop-color:#DCE4F4"/>
			<stop  offset="1" style="stop-color:#FEE9DF"/>
		</linearGradient>
		<path class="st7" d="M964.33,506.14c0.6-3.47,3.13-5.8,6.52-7.55c0.71-0.37,1.51-0.65,2.31-0.85c2.65-0.66,4.56,0.31,5.04,2.62
			c0.58,2.74,0.13,5.44-1.04,8.01c-3.3,7.26-7.99,13.89-12.71,20.52c-0.08,0.12-0.26,0.18-0.57,0.39
			c-2.45-3.64-5.04-7.16-7.22-10.85c-2.33-3.96-4.51-8.01-6.25-12.17c-0.76-1.82-0.56-4.06-0.27-6.06c0.31-2.21,2.32-3.14,4.78-2.44
			c4.43,1.26,7.54,3.71,8.79,7.68c0.07,0.24,0.19,0.47,0.3,0.69C964.02,506.14,964.12,506.13,964.33,506.14z"/>
	</g>
</g>
</svg>
