<svg id="etcSyBi2ARd1" xmlns="http://www.w3.org/2000/svg" xmlns:xlink="http://www.w3.org/1999/xlink" viewBox="0 0 1920 1080" shape-rendering="geometricPrecision" text-rendering="geometricPrecision" project-id="2484f69f67b84fa6818e04832055c3da" export-id="385a98b6b69c45828658e6a05759c929" cached="false"><path id="etcSyBi2ARd2" d="M198.88,380.42h-.33l-.26.18c-.51.37-1.23.28-1.76.63h.07c-.63.81-1.86.14-2.54.82v0c-.616047.356572-1.295139.590859-2,.69h-.29l-.23.18c-.5.4-1.24.29-1.76.65h.06c-.6.81-1.85.11-2.49.85v0c-.51.42-1.24.35-1.79.68h.07c-.58.85-1.85.12-2.47.88v0c-.51.4-1.25.32-1.77.68h.05c-.51.55-1.31.49-2,.74h-.31l-.23.18c-.48.39-1.23.25-1.69.68v0c-.48.46-1.24.37-1.77.72h.06c-.5.57-1.31.5-2,.75h-.3l-.23.18c-.48.38-1.23.22-1.66.69v0c-.48.43-1.24.32-1.74.72v0c-.46.5-1.23.4-1.76.75h.06c-.43.56-1.21.46-1.78.76l.08-.05c-.46.64-1.29.55-2,.8h-.17l-.22.18c-.47.38-1.23.21-1.63.71v0c-.48.39-1.24.27-1.69.73v0c-.47.43-1.24.3-1.71.74v0c-.46.46-1.23.34-1.73.75v0c-.44.49-1.23.37-1.72.77v0c-.44.5-1.23.38-1.73.78v0c-.45.51-1.23.39-1.74.77v0c-.44.52-1.22.4-1.74.77v0c-.41.54-1.22.4-1.71.8v0c-.43.51-1.22.38-1.72.78v0c-.44.5-1.23.38-1.72.78v0c-.43.5-1.23.37-1.71.78v0c-.44.48-1.23.35-1.69.78v0c-.44.46-1.23.32-1.67.78v0c-.46.42-1.24.27-1.66.76v0c-.45.41-1.24.24-1.63.76v0c-.342287.308762-.759455.522517-1.21.62h-.3l-.21.2c-.33.18-.57.49-1,.57l.1-.07c-.37.63-1.2.5-1.74.83h.07c-.39.59-1.21.45-1.72.83h.06c-.41.54-1.22.4-1.71.82v0c-.43.49-1.23.34-1.68.8v0c-.43.45-1.23.28-1.63.79v0c-.33708.316233-.756431.531108-1.21.62h-.3l-.21.2c-.316286.21846-.650865.40917-1,.57l.09-.07c-.37.62-1.2.48-1.72.84h.06c-.4.55-1.21.41-1.7.82v0c-.42.5-1.23.34-1.66.81v0c-.44.42-1.24.25-1.61.78h-.06c-.35.19-.59.54-1,.61l.09-.08c-.35.65-1.19.51-1.72.86l.07-.05c-.39.58-1.21.44-1.7.84v0c-.41.51-1.23.36-1.66.82v0c-.43.44-1.24.26-1.61.79h-.05c-.35.19-.59.54-1,.61l.09-.08c-.34.65-1.18.51-1.71.86h.06c-.38.57-1.21.43-1.69.84v0c-.42.49-1.23.34-1.66.81v0c-.321522.358986-.761854.589805-1.24.65h-.27l-.19.19c-.32.2-.56.51-1,.59l.09-.07c-.35.63-1.19.49-1.71.85h.06c-.39.56-1.21.41-1.69.84v0c-.42.48-1.22.32-1.64.81v0c-.334013.335313-.763715.558897-1.23.64h-.28l-.19.2c-.3175.219429-.651878.413368-1,.58l.09-.07c-.37.62-1.2.47-1.71.85v0c-.4.54-1.22.39-1.68.82v0c-.42.47-1.23.3-1.63.81v0c-.334054.316916-.749443.534995-1.2.63-.196141-.078468-.419486.009118-.51.2-.321131.213645-.655095.407344-1,.58l.08-.06c-.37.6-1.2.45-1.7.84v0c-.41.53-1.22.38-1.67.82v0c-.43.45-1.23.28-1.62.8v0c-.35.2-.59.56-1,.62l.1-.09c-.34.67-1.18.52-1.72.86h.07c-.38.58-1.2.44-1.7.84v0c-.41.52-1.23.36-1.67.82v0c-.43.44-1.24.26-1.61.79v0c-.36.19-.6.53-1,.61l.09-.08c-.34.65-1.18.5-1.71.86h.07c-.4.56-1.22.42-1.7.83v0c-.41.49-1.22.34-1.65.81v0c-.328763.349568-.765479.578492-1.24.65h-.28l-.18.18c-.293083.260498-.632228.463984-1,.6l.09-.08c-.35.63-1.19.49-1.71.86h.06c-.39.55-1.21.41-1.69.83v0c-.42.48-1.23.32-1.64.81v0c-.326266.334907-.749546.558791-1.21.64h-.3l-.2.19c-.31555.22536-.65015.422775-1,.59l.09-.07c-.37.61-1.2.47-1.72.84h.06c-.4.54-1.22.39-1.68.83v0c-.42.46-1.23.3-1.63.8v0c-.280675.281504-.62305.493777-1,.62l.1-.09c-.33.68-1.17.53-1.72.87l.08-.05c-.38.6-1.21.46-1.71.84v0c-.486066.587353-1.059409,1.096616-1.7,1.51-8.13,4.3-16.5,8.23-24.62,12.56-1.260107.518146-2.57531.890563-3.92,1.11v0c-4.45,4-10.42,5.73-15.6,8.63-3.922804,2.209099-7.9583,4.211826-12.09,6-1.31.56-2.65,1.59-4.25.53v-492.65c2-1.26,4.35-.73,6.54-.73c123.36,0,246.71.15,370.07-.13c35.56-.08,71.11-.07,106.67-.26h294.11q22.19,0,44.38,0c1.5,0,3.07.37,4.51-.37h49.6l-.09,2c-.75,1.27.09,2.76-.68,4l-.17,1.23c-.67,1,.11,2.33-.77,3.31v0c-.9.88.08,2.17-.85,3.05v0c-.74.63-.12,1.62-.75,2.28-.190126.127124-.254656.37664-.15.58-.62.72,0,1.79-.86,2.44v-.06c-.39.47-.29,1.11-.69,1.58-.193156.109562-.267644.350554-.17.55-.33.55-.27,1.24-.75,1.73v0c-.83.57,0,1.72-1,2.23v-.06c-.36.49-.26,1.18-.81,1.6v0c-.45.45-.33,1.13-.81,1.57v0c-.51.4-.37,1.08-.8,1.52v0c-.55.37-.39,1.05-.81,1.48v0c-.57.35-.39,1.06-.85,1.47v0c-.54.38-.36,1.1-.87,1.49v0c-.5.41-.33,1.14-.92,1.5v0c-.44.45-.27,1.21-1,1.52l.09-.08c-.1.38-.48.6-.7.91v0c-.58.33-.38,1.08-.94,1.43v0c-.46.44-.27,1.22-1,1.5l.1-.09c-.155983.369937-.416666.686232-.75.91v0c-.51.4-.31,1.19-1,1.47l.09-.09c-.163692.365479-.427099.677409-.76.9v0c-.51.39-.3,1.2-1,1.45l.09-.09c-.140899.391084-.422587.715561-.79.91v0c-.493309.83246-1.099009,1.59295-1.8,2.26l.08-.07c-.192332.350467-.466857.649014-.8.87v0c-.65.71-1,1.66-1.84,2.22l.09-.08c-.167557.37984-.460599.690535-.83.88v0c-.241613.293388-.50217.570648-.78.83v0c-.74.64-1,1.64-1.89,2.16l.09-.08c-.140652.404944-.456709.724676-.86.87l.07-.06c-.206575.348287-.499293.637561-.85.84v0c-.252224.287209-.522791.557776-.81.81v0c-.281071.231043-.538957.488929-.77.77v0c-.81.58-1,1.66-2,2.08l.1-.08c-.064134.464592-.442528.822196-.91.86l.09-.08c-.114556.429339-.456987.760227-.89.86l.08-.07c-.154951.407125-.4918.718062-.91.84l.08-.07c-.173631.386877-.493741.689003-.89.84l.07-.06c-.20013.369753-.521476.659318-.91.82l.07-.06c-.202668.367749-.523207.656586-.91.82l.07-.07c-.147603.319192-.379192.59226-.67.79l.06-.05c-.221915.34114-.524064.622688-.88.82v0c-.234075.33387-.546559.605147-.91.79h.06c-.218923.353385-.539639.632268-.92.8l.07-.06c-.205666.36536-.525272.653356-.91.82l.07-.06c-.206202.362566-.525981.647204-.91.81l.07-.06c-.202037.375019-.537503.660522-.94.8l.08-.07c-.172543.401904-.518396.703605-.94.82l.09-.08c-.155034.418202-.513634.727731-.95.82l.08-.08c-.120436.439371-.497115.760539-.95.81l.09-.09c-.48.89-1.69,1-2.29,1.76l-.07.06c-.316879.163991-.596139.392167-.82.67v0c-.305476.217043-.596122.454237-.87.71v0c-.273251.281514-.578685.529889-.91.74v0c-.230608.343691-.557634.611573-.94.77l.08-.06c-.19593.399717-.564607.687286-1,.78l.08-.09c-.54.84-1.69,1-2.35,1.73v0c-.309138.209862-.60627.436884-.89.68v0c-.266475.296897-.58083.547029-.93.74h.06c-.220927.37453-.579992.647419-1,.76l.08-.08c-.59.81-1.69,1-2.41,1.69v0c-.288304.260844-.599567.495128-.93.7v0c-.231705.362669-.58696.62911-1,.75l.09-.09c-.61.81-1.68,1.07-2.46,1.67v0c-.274814.312294-.616666.558428-1,.72l.08-.06c-.778739.612968-1.608422,1.158284-2.48,1.63v0c-.280885.303003-.621332.54472-1,.71l.07-.06c-.702888.542001-1.452495,1.020546-2.24,1.43v0c-.27323.311605-.615734.554784-1,.71l.09-.08c-.29.61-1.19.4-1.54.94v0c-.35.18-.6.48-1,.66h.05c-.220654.364913-.582741.621995-1,.71l.09-.1c-.25.7-1.16.51-1.6,1v0c-.263047.31812-.609229.556986-1,.69l.09-.08c-.29.64-1.18.45-1.59.93v0c-.285961.289517-.625632.520493-1,.68l.08-.07c-.32.59-1.2.41-1.59.9v0c-.295481.272589-.633194.495479-1,.66l.08-.07c-.32.6-1.2.41-1.59.91v0c-.295481.272589-.633194.495479-1,.66l.08-.07c-.33.6-1.2.42-1.61.9v0c-.289106.280626-.628311.5045-1,.66l.09-.07c-.33.62-1.2.45-1.64.9v0c-.256623.320723-.605774.554654-1,.67l.1-.09c-.3.68-1.18.51-1.66.91v0c-.37.52-1.22.33-1.58.86h-.05c-.35.19-.59.52-1,.64l.08-.07c-.35.6-1.2.43-1.65.88v0c-.252431.323175-.603606.554951-1,.66l.1-.1c-.29.71-1.16.54-1.68.91h.07c-.37.56-1.23.37-1.64.86-7.09,3.56-14.15,7.15-21.26,10.66-26.63,13.16-54.1,24.85-81.34,37-33.42,14.86-66.14,30.81-96.78,50-15.51,9.59-30.51,19.93-44.85,31.03-1.146246.690181-2.161798,1.577096-3,2.62-.194554.410652-.560538.714418-1,.83l.09-.08c-.149198.438583-.539363.750716-1,.8l.08-.1c-.48.9-1.68,1-2.31,1.76h-.05c-.309594.191404-.592113.423474-.84.69v0c-.31.22-.58.49-.88.72v0c-.262049.295134-.565146.551083-.9.76v0c-.23592.333481-.552417.601815-.92.78l.06-.06c-.207884.370249-.541277.653987-.94.8l.08-.07c-.180655.395652-.529376.689312-.95.8l.09-.07c-.149198.438583-.539363.750716-1,.8l.09-.08c-.0844.462745-.479889.804115-.95.82l.09-.09c-1.251385,1.186565-2.588322,2.279512-4,3.27v0c-.306634.199188-.58283.441701-.82.72v0c-.297954.218224-.578774.458927-.84.72v0c-.31.23-.58.5-.86.74v0c-.28.26-.56.52-.86.76v0c-.27.27-.55.52-.85.77v0c-.269665.27951-.564214.533893-.88.76v0c-.251731.308235-.556522.569001-.9.77h.05c-.23993.323731-.542617.59581-.89.8h.05c-.2423.318862-.544646.587237-.89.79h.05c-.241891.321941-.544189.59367-.89.8h.05c-.24459.319457-.546372.590722-.89.8v0c-.238012.319113-.537156.587663-.88.79v0c-.235771.323831-.535231.596067-.88.8v0c-.238575.321305-.537479.593036-.88.8v0c-.238012.319113-.537156.587663-.88.79v0c-.238191.321652-.53717.593451-.88.8v0c-.242267.321596-.544492.593259-.89.8v-.05c-.23993.323731-.542617.59581-.89.8h.05c-.23993.323731-.542617.59581-.89.8h.05c-.240937.320123-.543556.58874-.89.79h.05c-.23993.323731-.542617.59581-.89.8h.05c-.242267.321596-.544492.593259-.89.8h.05c-.241304.314435-.531691.58794-.86.81v0c-.260254.28357-.541011.547616-.84.79v0c-.27.27-.56.52-.85.77v0c-.28.26-.56.52-.85.76v0c-.28.27-.56.52-.86.77v0c-.27.26-.56.51-.84.77v0c-.285803.236013-.553241.493422-.8.77v0c-.295339.217414-.56685.465461-.81.74v0c-.299749.208144-.571917.453431-.81.73v0c-.299285.204879-.571446.4468-.81.72v0c-.300216.20408-.566755.453749-.79.74v0c-2.92,3.18-6.41,5.87-9.5,8.9l.1-.08c-.099245.449618-.472634.786873-.93.84l.08-.09c-.089494.451332-.46241.79182-.92.84l.08-.08c-.093572.452892-.469953.792849-.93.84l.09-.08c-.078552.459668-.464393.80402-.93.83l.09-.08c-.099245.449618-.472634.786873-.93.84l.09-.08c-.099245.449618-.472634.786873-.93.84l.09-.08c-.097384.448967-.472892.784098-.93.83l.09-.08c-.099245.449618-.472634.786873-.93.84l.09-.08c-.099245.449618-.472634.786873-.93.84l.09-.09c-.096449.451238-.471306.789819-.93.84l.09-.08c-.099245.449618-.472634.786873-.93.84l.09-.08c-.097384.448967-.472892.784098-.93.83l.09-.08c-.099245.449618-.472634.786873-.93.84l.09-.08c-.099245.449618-.472634.786873-.93.84l.08-.08c-.078552.459668-.464393.80402-.93.83l.09-.09c-2.17,1.84-4.17,3.86-6.53,5.53v0c-.306382.195563-.58262.434744-.82.71v0c-.3.23-.59.47-.86.72v0c-.29.25-.56.51-.87.75v0c-.263401.289882-.562445.545246-.89.76v0c-.24778.318563-.557289.583856-.91.78v-.05c-.224513.346153-.543885.620396-.92.79l.07-.06c-.202853.378225-.542771.664471-.95.8l.08-.08c-.159377.413234-.516766.717955-.95.81l.09-.08c-.130394.451454-.530934.771886-1,.8l.08-.09c-.964681.957539-2.042656,1.793725-3.21,2.49v0c-.3.24-.57.51-.89.73v0c-.257045.305355-.569113.559758-.92.75l.06-.05c-.234766.366307-.587557.641484-1,.78l.08-.07c-.174149.418651-.552409.717477-1,.79l.09-.09c-.53.86-1.68,1-2.36,1.73v0c-.33.2-.59.48-.9.7v0c-.256192.307609-.572703.559456-.93.74l.06-.05c-.211897.384436-.574176.663391-1,.77l.09-.08c-.58.81-1.7,1-2.4,1.69v0c-.32.21-.58.5-.92.7v0c-.248552.346616-.597654.608442-1,.75l.08-.08c-.62.78-1.7,1-2.42,1.68v0c-.296393.25223-.610536.482824-.94.69h.06c-.22481.366965-.583347.632283-1,.74l.09-.09c-.24.65-1.18.44-1.51,1h-.06c-.35.17-.59.47-.92.66v0c-.247729.34298-.597844.598564-1,.73l.09-.08c-.27.63-1.18.42-1.53,1h-.05c-.35.19-.6.48-.94.67h.05c-.230108.357995-.587505.615321-1,.72l.1-.09c-.27.67-1.17.48-1.58,1v0c-.283864.294527-.623898.529151-1,.69l.08-.07c-.31.59-1.2.39-1.56.92h-.05c-.320922.238251-.654765.458587-1,.66l.06-.05c-.794062.611551-1.652474,1.134646-2.56,1.56v0c-.805492.599585-1.669952,1.115581-2.58,1.54h.06c-.36.53-1.22.34-1.57.88h-.06c-.36.18-.6.5-1,.63l.08-.06c-.35.57-1.21.4-1.62.88v0c-.282584.286214-.623711.507947-1,.65l.1-.08c-.33.65-1.19.48-1.68.89h.05c-.39.51-1.22.33-1.61.85v0c-.34.21-.58.55-1,.63l.1-.08c-.34.64-1.19.49-1.7.87h.06c-.4.54-1.22.38-1.66.84v0c-.42.45-1.23.27-1.6.8h-.06c-.35.19-.59.54-1,.61l.1-.08c-.35.65-1.18.51-1.72.85h.07c-.39.58-1.21.45-1.73.82h.06c-.41.54-1.22.41-1.71.81v0c-.44.5-1.23.38-1.72.78v0c-.44.51-1.23.38-1.73.78h.05c-.44.5-1.23.38-1.73.78h.05c-.45.5-1.23.38-1.74.77h.05c-.44.52-1.22.41-1.75.77h.06c-.44.55-1.22.45-1.77.77l.08-.05c-.48.62-1.31.54-2,.79h-.3l-.23.18c-.48.38-1.23.24-1.68.69v0c-.48.45-1.23.36-1.76.71h.06c-.51.56-1.31.49-2,.75h-.3l-.24.18c-.49.38-1.23.26-1.72.67v0c-.54.5-1.32.45-2,.71h-.32l-.25.18c-.5.38-1.23.27-1.73.66h.05c-.63.76-1.85.08-2.49.82v0c-.56.43-1.32.39-1.94.67h-.33l-.27.18c-.55.37-1.28.29-1.84.63h-.37l-.32.18c-.53.32-1.23.24-1.73.61h.05c-.66.76-1.85.13-2.55.79v0c-.68.72-1.85.12-2.57.76h.05c-.68.74-1.86.14-2.58.77h.05c-.72.75-1.9.2-2.69.76h-.36l-.31.17c-.631874.252234-1.28428.449629-1.95.59h-.31l-.25.17c-.72.62-1.85,0-2.55.7v0c-.76.69-1.91.17-2.71.72h-.35l-.31.16c-.73.57-1.84,0-2.53.68v0c-.79.66-1.93.19-2.76.7h-.33l-.28.16c-.77.59-1.88.08-2.65.67h-.38l-.35.17c-.74.53-1.82,0-2.53.65v0c-.81.67-2,.24-2.84.69l-.28-.07-.23.16c-.82.64-2,.2-2.83.67l-.29-.06-.24.16c-.83.62-2,.19-2.82.66l-.3-.07-.25.16c-.83.63-2,.21-2.85.66l-.28-.07-.23.16c-1,.82-2.43-.06-3.43.74h-.41l-.39.16c-.79.5-1.86,0-2.63.62h-.38l-.34.16c-.81.53-1.9.1-2.71.62l-.34-.05-.31.16c-.83.56-1.93.16-2.79.63l-.3-.07-.26.16c-1,.79-2.42-.07-3.41.72v0c-1,.84-2.48,0-3.54.74l-.36-.06-.31.16c-.84.55-1.94.17-2.81.62l-.29-.06-.25.15c-1,.8-2.45-.05-3.46.73l-.4-.05-.36.16c-.82.51-1.9.09-2.71.61l-.34-.05-.31.15c-.85.56-1.95.18-2.83.63l-.28-.07-.24.15c-1,.82-2.45,0-3.46.74l-.4-.05-.36.16c-.8.51-1.88.07-2.67.62l-.37-.05-.32.16c-.82.54-1.91.13-2.75.62l-.32-.05-.29.16c-.83.58-1.94.17-2.8.64l-.3-.06-.25.16c-.85.6-2,.2-2.86.65l-.27-.07-.23.15c-.83.64-2,.22-2.86.67l-.28-.07-.23.16c-.83.64-2,.22-2.85.67l-.28-.07-.23.16c-.81.64-1.95.19-2.81.67l-.31-.05-.25.16c-.79.61-1.91.14-2.73.67h-.34l-.3.16c-.77.58-1.88.07-2.64.66h-.39l-.34.16c-.649485.245802-1.318516.436476-2,.57l-.28-.06-.22.16c-.77.65-1.91.13-2.7.7h-.36l-.32.17c-.646326.257601-1.316135.451845-2,.58l-.28-.06-.22.16c-.74.66-1.89.11-2.65.72h-.39l-.34.17c-.58.32-1.3.29-1.89.58h-.34l-.29.17c-.644386.26789-1.314564.468944-2,.6h-.3l-.24.16c-.634355.301401-1.307427.513419-2,.63l-.28-.06-.21.17c-.7.66-1.85,0-2.54.73v0c-.624126.334492-1.300328.56102-2,.67l-.27-.05-.21.16c-.630648.314882-1.304728.533958-2,.65h-.28l-.22.18c.38-1.41-.38-1.47-1-1.19Z" transform="matrix(1.606222 0 0 1.606222-381.772886-191.434418)" fill="#109bdc"/><path id="etcSyBi2ARd3" d="M1899.29,659c.21.09.38,0,.49-.24.28667-.394983.688291-.691834,1.15-.85.102987.045112.220205.044798.322949-.000866s.181525-.13246.217051-.239134c.292603-.378231.683494-.668805,1.13-.84.231643.073104.479498-.050823.56-.28.316051-.293755.650026-.567615,1-.82l-.09.1c.39-.87,1.21-.69,1.76-1.16l-.07.06c.39-.84,1.21-.66,1.75-1.16l-.07.06c.41-.81,1.22-.63,1.74-1.15h-.06c.42-.78,1.23-.6,1.74-1.14v.05c.42-.77,1.22-.58,1.73-1.14v0c.43-.74,1.23-.55,1.73-1.13v0c.44-.71,1.23-.53,1.72-1.12v0c.44-.69,1.24-.49,1.71-1.11v0c.45-.66,1.24-.46,1.7-1.1v0c.45-.64,1.25-.43,1.68-1.11v0c.46-.6,1.24-.4,1.67-1.08v0c.45-.59,1.24-.36,1.64-1.09v0c.47-.55,1.25-.33,1.65-1.06v0c.46-.55,1.24-.31,1.62-1.07h.06c.316002-.393392.729816-.696855,1.2-.88.100261.045339.21501.046214.315951.00241s.178681-.128213.214049-.23241c.293058-.390626.697437-.683452,1.16-.84.22.09.4,0,.53-.24.294195-.385155.693608-.6769,1.15-.84.223543.072738.464065-.047523.54-.27l.92-.87-.05.07c.23-.43.49-.47.8-.13v456c-7.9,1.17-15.83.21-23.74.52h-414.06q-32,0-63.92,0c-1.52,0-3.09.44-4.57-.44-.83-.07-1.67-.2-2.51-.2q-66.45-.08-132.88-.11c-.7,0-1.4.1-2.1.15-1.63-.88-3.34-.43-5-.43q-117.36,0-234.72-.09c-1.49,0-3.51,1.41-4.51-1.48l-.14.11c.169579-.478686.502397-.882317.94-1.14l-.07.11c.6-1.12,1.71-1.42,2.41-2.4v0c.33-.29.59-.68.91-1v0c.232645-.419975.549207-.787596.93-1.08l-.06.08c.1721-.486072.532481-.88249,1-1.1l-.08.12c.25-.9,1.19-.58,1.49-1.39l.09-.08c.334243-.262355.624549-.57629.86-.93v0c.28539-.34923.589153-.683035.91-1v.05c.21722-.436582.544692-.808866.95-1.08l-.07.08c.148178-.49996.516383-.904985,1-1.1l-.08.12c.23-.93,1.18-.61,1.5-1.39l.06-.06c.331394-.300725.62975-.635956.89-1v0c.261803-.375109.574843-.71171.93-1l-.06.06c.204215-.463535.555736-.846693,1-1.09l-.07.11c.61-1.12,1.71-1.42,2.41-2.4v0c.33-.29.59-.69.92-1v0c.242772-.431649.585738-.798622,1-1.07l-.07.08c.161561-.492293.525286-.892391,1-1.1l-.08.12c.59-1.18,1.69-1.51,2.44-2.41v0c.274366-.36478.586054-.699929.93-1v.07c.20096-.465653.553346-.849754,1-1.09l-.08.1c.62-1.11,1.71-1.43,2.43-2.38v0c.32-.31.59-.71.92-1v0c.238479-.437454.582156-.808625,1-1.08l-.07.09c.15071-.500846.51754-.908028,1-1.11l-.08.13c.24-.93,1.18-.63,1.52-1.38v-.05c.31-.3.61-.63.9-1v0c.245437-.408165.56411-.767519.94-1.06l-.06.08c.181784-.47778.539616-.867817,1-1.09l-.08.11c.61-1.15,1.69-1.5,2.45-2.39v0c.262146-.377993.578929-.714996.94-1l-.06.06c.197532-.467864.550849-.852979,1-1.09l-.08.11c.26-.87,1.2-.55,1.49-1.36l.1-.08c.332073-.26778.624929-.580832.87-.93v0c.274141-.364969.58585-.70014.93-1v.06c.203577-.463952.555266-.847293,1-1.09l-.07.11c.62-1.11,1.7-1.45,2.44-2.38v0c.289445-.351875.600019-.685824.93-1v.06c.216273-.455536.564742-.835368,1-1.09l-.08.11c.28-.85,1.2-.53,1.5-1.35l.09-.08c.339242-.259967.633201-.574199.87-.93v0c.277101-.362481.588545-.697367.93-1v.07c.20096-.465653.553346-.849754,1-1.09l-.07.11c.63-1.11,1.7-1.48,2.46-2.36v0c.264766-.375865.581215-.712513.94-1l-.06.07c.190101-.472592.545499-.859976,1-1.09l-.08.12c.26-.89,1.19-.59,1.51-1.37l.07-.06c.327313-.285991.628503-.600568.9-.94v0c.266131-.394369.605631-.733869,1-1l-.06.08c.161745-.48984.525877-.886745,1-1.09l-.08.13c.25-.94,1.18-.64,1.54-1.38v0c.34-.28.6-.69.93-1v0c.228814-.441685.574782-.811871,1-1.07l-.07.1c.65-1.07,1.7-1.45,2.46-2.35v0c.277619-.365189.592665-.700345.94-1v.07c.18393-.474027.541501-.860203,1-1.08l-.08.12c.26-.9,1.19-.6,1.53-1.36v0c.327956-.3131.635267-.647134.92-1v0c.238036-.432428.582159-.797199,1-1.06l-.07.1c.66-1.06,1.71-1.46,2.47-2.34v0c.285762-.377733.622267-.714238,1-1l-.06.07c.177584-.477961.537091-.866228,1-1.08l-.08.13c.26-.93,1.19-.63,1.55-1.37v0c.34-.29.6-.7.94-1v.05c.212009-.453297.562061-.827853,1-1.07l-.07.11c.64-1.1,1.68-1.52,2.5-2.33v0c.250677-.406844.593156-.749323,1-1l-.07.11c.29-.84,1.2-.53,1.51-1.34l.09-.07c.334511-.274634.636478-.586666.9-.93v0c.263104-.396854.603146-.736896,1-1l-.07.09c.69-1,1.71-1.45,2.5-2.3v0c.260381-.382614.581233-.720353.95-1l-.06.08c.157163-.490201.523319-.885649,1-1.08l-.09.13c.27-1,1.18-.67,1.59-1.35v0c.280159-.382575.617425-.719841,1-1l-.07.07c.167707-.481619.530811-.87014,1-1.07l-.09.13c.27-.95,1.18-.67,1.59-1.35v0c.279426-.383202.616798-.720574,1-1l-.06.08c.69-1,1.71-1.45,2.5-2.3v0c.267082-.393584.606416-.732918,1-1l-.07.09c.31-.81,1.21-.5,1.52-1.31l.09-.07c.335095-.273534.640144-.581936.91-.92v0c.254048-.404168.595832-.745952,1-1l-.07.1c.3-.84,1.2-.55,1.55-1.31h.06c.35-.25.6-.67.93-1v0c.218916-.430899.569101-.781084,1-1l-.09.11c.3-.88,1.2-.6,1.58-1.32v0c.308505-.357269.642731-.691495,1-1l-.06.06c.181423-.468432.540969-.845956,1-1.05l-.08.13c.27-1,1.18-.68,1.6-1.34v0c.261153-.398445.601555-.738847,1-1l-.08.1c.32-.83,1.21-.54,1.56-1.31h.06c.36-.24.6-.66.94-.94v.05c.20706-.451624.559007-.821169,1-1.05l-.09.12c.3-.9,1.19-.63,1.6-1.32v0c.28168-.381267.618733-.71832,1-1l-.07.09c.33-.8,1.22-.51,1.55-1.3l.07-.05c.332929-.289546.646909-.600186.94-.93v0c.217771-.431729.568271-.782229,1-1l-.08.12c.3-.9,1.19-.64,1.61-1.31v0c.268905-.392073.607927-.731095,1-1l-.08.09c.33-.82,1.21-.53,1.57-1.29v0c.35-.27.6-.69,1-1v.06c.188667-.451996.548004-.811333,1-1l-.09.13c.29-1,1.18-.7,1.63-1.32v0c.234953-.41901.58099-.765047,1-1l-.08.11c.31-.88,1.2-.62,1.61-1.3v0c.270122-.39106.60894-.729878,1-1l-.08.09c.33-.83,1.21-.55,1.59-1.29v0c.34-.28.59-.72,1-.95l-.07.07c.34-.77,1.22-.48,1.56-1.27h.07c.36-.24.61-.66,1-.92v.05c.195636-.447283.552717-.804364,1-1l-.08.13c.29-1,1.17-.71,1.64-1.31v0c.21719-.432149.567851-.78281,1-1l-.09.12c.32-.92,1.19-.67,1.65-1.29v0c.228743-.423674.576326-.771257,1-1l-.09.12c.32-.91,1.2-.65,1.63-1.3v0c.24888-.40826.59174-.75112,1-1l-.08.12c.33-.89,1.2-.64,1.64-1.29v0c.246682-.409984.590016-.753318,1-1l-.09.11c.33-.88,1.2-.63,1.64-1.29v0c.24888-.40826.59174-.75112,1-1l-.08.11c.33-.88,1.2-.63,1.64-1.28v0c.240828-.414525.585475-.759172,1-1l-.09.11c.34-.89,1.2-.65,1.66-1.27v0c.222748-.428104.571896-.777252,1-1l-.09.12c.32-.92,1.19-.68,1.66-1.28v0c.28-.43.55-.86,1-1l-.08.12c.31-.95,1.18-.71,1.67-1.28v0c.37-.73,1.23-.45,1.57-1.23l.07-.05c.36-.25.61-.68,1-.92l-.07.07c.37-.77,1.23-.5,1.61-1.24v0c.34-.3.58-.74,1-.94l-.08.09c.36-.82,1.22-.58,1.65-1.25v0c.24888-.40826.59174-.75112,1-1l-.08.12c.34-.9,1.2-.66,1.67-1.26v0c.232382-.502332.681828-.870731,1.22-1c.22.07.37,0,.47-.28l.92-.87-.06.07c.38-.77,1.22-.53,1.63-1.22v0c.33-.32.57-.78,1-.95l-.08.11c.35-.87,1.21-.64,1.67-1.25v0c.232382-.502332.681828-.870731,1.22-1c.21.08.37,0,.47-.26.3-.31.61-.6.93-.88l-.07.07c.38-.79,1.22-.55,1.65-1.22v0c.32-.34.57-.81,1-.95l-.09.12c.34-.91,1.2-.69,1.69-1.25v0c.38-.74,1.22-.49,1.62-1.21v0c.33-.3.58-.77,1-.93l-.09.11c.36-.88,1.21-.66,1.7-1.24v0c.39-.72,1.23-.47,1.62-1.2v0c.34-.3.59-.76,1-.92l-.08.1c.36-.87,1.2-.65,1.69-1.23v0c.4-.72,1.23-.48,1.64-1.18v0c.33-.31.58-.78,1-.93l-.09.11c.35-.89,1.2-.67,1.71-1.23h-.06c.4-.76,1.23-.53,1.66-1.19v0c.258141-.473918.687301-.831551,1.2-1c.23.07.39,0,.51-.28.3-.3.62-.58.94-.85l-.08.09c.39-.82,1.22-.61,1.7-1.21v0c.41-.7,1.23-.46,1.64-1.17v0c.289713-.420388.70165-.741559,1.18-.92.231378.065895.473661-.061855.55-.29.3-.29.61-.57.92-.84l-.07.08c.4-.8,1.22-.59,1.7-1.19v0c.42-.7,1.23-.47,1.65-1.16v0c.288818-.429465.710277-.752584,1.2-.92.22.08.4,0,.52-.26.299686-.304884.616891-.592038.95-.86l-.08.1c.38-.84,1.21-.64,1.72-1.19v0c.41-.75,1.22-.54,1.69-1.17v0c.43-.66,1.24-.43,1.65-1.14v0c.291466-.426968.712001-.749379,1.2-.92.101815.041198.216282.037554.315271-.010037s.173321-.134715.204729-.239963c.305978-.314026.640782-.598609,1-.85l-.08.1c.38-.87,1.2-.67,1.73-1.19h-.06c.41-.79,1.22-.6,1.72-1.16v0c.43-.72,1.24-.52,1.7-1.14v0c.44-.66,1.24-.44,1.67-1.13v0c.45-.6,1.24-.36,1.63-1.1v0c.303177-.406555.721117-.713044,1.2-.88.101815.041198.216282.037554.315271-.010037s.173321-.134715.204729-.239963c.33-.28.57-.71,1-.85l-.08.1c.38-.88,1.2-.7,1.75-1.16l-.07.06c.39-.85,1.21-.66,1.74-1.16h-.06c.4-.81,1.22-.62,1.73-1.15v0c.42-.77,1.22-.59,1.74-1.13l-.05.05c.42-.76,1.22-.58,1.73-1.14v0c.43-.74,1.23-.55,1.72-1.13v0c.44-.71,1.23-.53,1.73-1.11v0c.44-.71,1.23-.53,1.73-1.1v0c.44-.72,1.23-.54,1.73-1.11v0c.44-.71,1.23-.54,1.72-1.11v0c.44-.71,1.23-.53,1.73-1.11v0c.44-.71,1.23-.53,1.73-1.1v0c.45-.72,1.23-.56,1.75-1.09h-.06c.44-.75,1.23-.58,1.75-1.12h-.06c.44-.76,1.23-.6,1.77-1.1h-.07c.42-.8,1.22-.64,1.77-1.12l-.07.06c.46-.85,1.29-.7,1.91-1.12.239617.075384.498444-.034935.61-.26.298855-.375764.697357-.659914,1.15-.82.22.1.4,0,.53-.23.47-.53,1.23-.28,1.63-1v0c.49-.56,1.25-.39,1.71-1v0c.48-.62,1.25-.46,1.74-1.05v0c.46-.69,1.23-.54,1.75-1.07v0c.44-.76,1.22-.6,1.77-1.08h-.07c.49-.85,1.31-.73,2-1.1.103097.045779.2205.047059.324571.003539s.185612-.127996.225429-.233539c.47-.55,1.23-.32,1.66-1v0c.49-.6,1.25-.45,1.75-1v0c.46-.69,1.24-.55,1.77-1.05l-.06.05c.5-.82,1.31-.71,2-1.08.105802.045557.225671.045659.33155.000282s.188473-.132248.22845-.240282c.48-.54,1.23-.33,1.68-1v0c.49-.62,1.25-.49,1.77-1h-.06c.51-.77,1.31-.66,1.94-1.06.231999.091989.495441-.013388.6-.24.49-.52,1.23-.31,1.67-1v0c.49-.61,1.24-.48,1.76-1v0c.52-.78,1.32-.68,2-1.05.23.1.41,0,.56-.22.49-.55,1.23-.37,1.71-1v0c.52-.69,1.31-.58,1.91-1c.245674.080641.514035-.024187.64-.25.5-.48,1.23-.3,1.68-.94v0c.49-.63,1.24-.5,1.78-1l-.07.05c.61-1.18,1.86-.17,2.51-1.22v0c.5-.61,1.25-.49,1.78-1l-.06.06c.61-1.18,1.86-.2,2.52-1.21v0c.54-.66,1.31-.56,1.92-1c.237969.09161.507028-.006618.63-.23.51-.5,1.23-.34,1.71-.92v0c.55-.7,1.33-.64,2-1c.099787.053864.217747.062843.324537.024704s.192374-.119813.235463-.224704c.5-.57,1.24-.42,1.76-.94h-.06c.63-1.15,1.86-.19,2.54-1.18v0c.55-.66,1.33-.62,2-1c.097837.057768.216001.069998.323596.033493s.19392-.118116.236404-.223493c.5-.58,1.24-.43,1.77-.93h-.07c.64-1.16,1.87-.23,2.56-1.17v0c.66-1.06,1.87-.13,2.54-1.13v0c.57-.63,1.34-.61,2-.95.094206.054534.207276.066049.310542.031627s.186813-.111476.229458-.211627c.56-.6,1.32-.51,1.93-.92.224285.104205.490954.016772.61-.2.55-.55,1.3-.45,1.88-.9.241638.103308.522488.013947.66-.21.55-.51,1.28-.4,1.83-.89.259177.095977.5505.005708.71-.22.55-.47,1.27-.37,1.82-.86.260171.092689.550453.008023.72-.21.55-.48,1.27-.38,1.82-.86.259177.095977.5505.005708.71-.22.52-.47,1.23-.36,1.74-.87h-.05c.7-1.1,1.9-.26,2.67-1.11.254734.100184.545013.018415.71-.2.56-.49,1.29-.41,1.86-.86.240094.104134.520313.024669.67-.19.57-.52,1.31-.47,1.92-.87.218743.11287.487575.033542.61-.18.59-.55,1.34-.54,2-.87.085578.067576.198375.090006.303296.060311s.189232-.10791.226704-.210311c.71-.94,1.86-.09,2.57-1v0c.74-1,1.91-.2,2.68-1.05.255543.103893.548993.026455.72-.19.58-.48,1.31-.45,1.92-.84.100176.060891.220871.078242.334143.048036s.209301-.10535.265857-.208036c.72-.88,1.85-.06,2.56-1v0c.76-1,1.92-.24,2.72-1c.237035.114807.522413.038138.67-.18.73-.82,1.84,0,2.54-1v0c.78-.93,1.93-.24,2.75-1c.222663.119768.499893.05046.64-.16.76-.84,1.88-.08,2.62-1c.268485.114009.579879.041215.77-.18.639831-.332033,1.30944-.603224,2-.81.083058.07279.196296.100703.303669.074854s.1955-.102239.236331-.204854c.79-.92,1.93-.22,2.76-1c.215584.131336.496733.064396.63-.15.78-.85,1.9-.14,2.69-1c.241823.118811.533808.052072.7-.16.77-.81,1.88-.09,2.65-.94.251344.119415.551645.053596.73-.16.78-.77,1.88-.07,2.64-.92.254374.120948.558313.055232.74-.16.8-.76,1.89-.09,2.67-.9.244346.124366.542615.05715.71-.16.8-.78,1.9-.13,2.7-.9.229291.125503.51611.061289.67-.15.83-.8,1.93-.21,2.78-.9.093027.069129.211466.094509.324651.06957s.209989-.097746.265349-.19957c1-1.12,2.43.1,3.42-1v0c1-1.18,2.49,0,3.57-1c.220623.133254.50639.076966.66-.13c1-1.05,2.44.11,3.45-1c.265217.122826.579256.062434.78-.15.85-.72,1.93-.19,2.79-.85.085721.073862.200528.104439.311631.082998s.206288-.092543.258369-.192998c1.06-1.11,2.51,0,3.6-1c.096999.072326.219502.101517.338695.080705s.224555-.089787.291305-.190705c1.08-1.07,2.5,0,3.6-1c.094108.072852.2142.103444.331692.084493s.221878-.085748.288308-.184493c1.09-1.07,2.52,0,3.64-1c.08613.074792.201303.106936.313716.087554s.210173-.088237.266284-.187554c1.31-1.27,3,.18,4.33-1c.251176.137308.563349.088017.76-.12c1.09-.94,2.48,0,3.58-.9.095741.073303.21737.104102.33646.085199s.225203-.085852.29354-.185199c1.34-1.22,3,.14,4.38-1c.222286.152307.523471.113583.7-.09c1.34-1.18,3,.15,4.38-1c.21728.152435.515803.108535.68-.1c1.37-1.16,3.06.11,4.44-1l1.5-.2c1.35-1,3,.22,4.33-.91.232877.143878.535147.101896.72-.1c1.41-1.09,3.1,0,4.53-.91l2.25-.25c1.38-1,3,.18,4.39-.87l1.52-.17c1.65-1.12,3.57.25,5.22-.92l1.54-.16c1.68-1.09,3.61.2,5.3-.89l2.31-.21c1.7-1,3.63.18,5.33-.85l2.26-.19c2.24-1.22,4.7.32,6.94-.93l2.36-.17c2.28-1.14,4.76.27,7-.87c1.030254.251477,2.113074.178125,3.1-.21c2.81-1.22,5.8.39,8.6-.91c1.072497.241044,2.190926.178716,3.23-.18c2.84-1.18,5.85.36,8.68-.87c1.043399.259357,2.140574.200145,3.15-.17c3.37-1.27,6.91.39,10.28-.94c1.074475.249399,2.197524.190473,3.24-.17c3.1-1.18,6.37.37,9.46-.9c1.067826.248827,2.184311.189883,3.22-.17c2.83-1.2,5.83.35,8.66-.89c1.050009.237966,2.146068.172064,3.16-.19c2.55-1.18,5.28.34,7.81-.89l2.33-.16c2.27-1.2,4.76.26,7-.9l2.26-.17c2.23-1.26,4.69.33,6.92-1l1.53-.13c1.94-1.21,4.14.29,6.08-.94l1.53-.16c1.67-1.11,3.59.23,5.26-.91l1.5-.17c1.41-1,3.08.09,4.5-.88l1.41-.17c1.39-1.08,3.06.11,4.45-.92l1.47-.19c1.13-.89,2.52,0,3.67-.87l1.4-.2c1.11-.93,2.5,0,3.62-.89l1.45-.22c1.06-.92,2.44.13,3.48-.91.246628.135584.554351.081525.74-.13c1-1,2.45.09,3.49-.94.247252.131741.552454.078125.74-.13c1-1,2.43.12,3.45-1c.263548.122176.575392.066204.78-.14.82-.74,1.91-.17,2.74-.87.097905.070096.220714.09593.338562.07122s.219937-.0977.281438-.20122c1-1.1,2.45.09,3.47-1c.261758.124511.57412.063662.77-.15.8-.74,1.89-.09,2.67-.89.242581.122512.537702.060163.71-.15.8-.79,1.9-.15,2.71-.91.22626.124221.509657.059813.66-.15.8-.82,1.91-.16,2.72-.93.22626.124221.509657.059813.66-.15.79-.83,1.9-.14,2.69-.94.244109.116637.536579.045609.7-.17.76-.8,1.87-.06,2.62-.94.265458.112419.573164.039541.76-.18.639831-.332033,1.30944-.603224,2-.81.21.14.39.09.54-.14.77-.92,1.92-.18,2.72-1c.238097.11381.523472.042466.68-.17.73-.82,1.84,0,2.54-1v0c.76-1,1.91-.2,2.69-1c.252029.109816.546503.031014.71-.19.59-.49,1.32-.47,2-.83.095976.06253.214588.079705.324358.046966s.199598-.112079.245642-.216966c.72-.89,1.86,0,2.56-1v0c.71-1,1.87-.16,2.6-1.06v0c.72-1.06,1.91-.25,2.68-1.08.254899.096679.543042.015512.71-.2.56-.5,1.28-.42,1.86-.87.242174.106441.525802.021776.67-.2.58-.5,1.31-.46,1.92-.85.221324.111236.490989.027243.61-.19.57-.55,1.31-.49,1.92-.89.221324.111236.490989.027243.61-.19.55-.56,1.3-.45,1.88-.91.239467.100789.51676.01676.66-.2.52-.51,1.24-.39,1.77-.88l-.07.05c.65-1.16,1.86-.25,2.58-1.15v0c.65-1.11,1.86-.2,2.56-1.14v0c.65-1.06,1.86-.13,2.53-1.14v0c.57-.63,1.33-.59,2-1c.102763.054392.223477.063751.333396.025848s.199208-.119676.246604-.225848c.53-.57,1.29-.45,1.86-.92.254898.087751.536652-.011692.68-.24.52-.46,1.23-.32,1.71-.89v0c.55-.7,1.33-.65,2-1c.094766.057601.210372.069657.314984.03285s.187198-.118599.225016-.22285c.5-.58,1.25-.43,1.77-.94l-.06.05c.62-1.17,1.86-.19,2.53-1.2v0c.54-.66,1.31-.57,1.93-1c.232493.096925.500599.001791.62-.22.5-.52,1.24-.35,1.71-.94v0c.54-.69,1.32-.62,2-1c.105761.050197.227417.055102.336876.013583s.197259-.125873.243124-.233583c.5-.54,1.24-.36,1.72-.95v0c.53-.71,1.31-.62,1.94-1c.229276.09888.495569-.003199.6-.23.5-.52,1.23-.34,1.7-.94v0c.52-.68,1.3-.57,1.9-1c.248639.086175.523189-.019422.65-.25.5-.48,1.23-.28,1.66-.94v0c.5-.59,1.25-.47,1.77-1v0c.51-.78,1.31-.68,2-1.06.104311.04989.224576.054569.332448.012934s.193808-.1259.237552-.232934c.49-.55,1.23-.35,1.69-1v0c.48-.65,1.24-.51,1.77-1l-.06.05c.5-.8,1.31-.7,2-1.07.10452.046064.223292.047573.328948.004178s.189081-.127948.231052-.234178c.49-.54,1.24-.33,1.68-1v0c.48-.63,1.24-.49,1.76-1v0c.45-.74,1.23-.6,1.78-1.07l-.08.06c.5-.86,1.33-.76,2-1.1.094286.049331.205565.054422.303961.013906s.173826-.122488.206039-.223906c.48-.58,1.24-.37,1.7-1v0c.48-.64,1.25-.5,1.76-1v0c.45-.74,1.23-.59,1.77-1.08l-.06.06c.48-.85,1.3-.73,2-1.1.108736.042466.229891.039982.336796-.006906s.190794-.134336.233204-.243094c.47-.53,1.22-.29,1.64-1v0c.48-.57,1.25-.4,1.71-1v0c.47-.64,1.24-.49,1.74-1v0c.46-.72,1.24-.56,1.76-1.08l-.06.05c.44-.78,1.23-.62,1.77-1.1l-.07.06c.47-.86,1.3-.72,1.93-1.12.234662.088719.497136-.026947.59-.26-.716046.947026-2.001114,1.256782-3.07.74.097206.049498.210997.054836.31241.014653s.180666-.122009.21759-.224653c.46-.56,1.23-.31,1.63-1v0c.48-.57,1.25-.39,1.7-1v0c.47-.62,1.24-.44,1.71-1.06v0c.46-.65,1.24-.49,1.73-1.06v0c.44-.7,1.23-.53,1.73-1.1v0c.45-.72,1.23-.56,1.75-1.09v0c.43-.76,1.22-.58,1.74-1.12v0c.43-.76,1.22-.61,1.76-1.1l-.06.05c.41-.8,1.21-.63,1.75-1.13l-.06.06c.41-.81,1.21-.64,1.75-1.13l-.06.06c.42-.82,1.21-.66,1.77-1.11l-.07.07c.4-.87,1.2-.7,1.76-1.15l-.07.07c.39-.87,1.2-.69,1.76-1.15l-.07.07c.4-.87,1.2-.69,1.76-1.15l-.07.07c.4-.86,1.2-.69,1.76-1.14l-.07.06c.39-.86,1.2-.69,1.76-1.14l-.07.06c.39-.86,1.2-.68,1.76-1.14l-.07.06c.4-.86,1.2-.68,1.76-1.14l-.07.07c.4-.87,1.2-.69,1.76-1.15l-.07.07c.39-.86,1.2-.69,1.76-1.14l-.07.06c.39-.86,1.2-.69,1.76-1.14l-.07.06c.39-.86,1.2-.68,1.76-1.14l-.07.07c.39-.87,1.21-.68,1.75-1.17l-.07.06c.4-.83,1.21-.65,1.75-1.15l-.06.06c.41-.81,1.21-.64,1.75-1.13h-.06c.41-.81,1.21-.63,1.75-1.13l-.07.05c.41-.8,1.22-.62,1.74-1.16l-.06.05c.43-.76,1.23-.59,1.75-1.13h-.06c.43-.76,1.23-.58,1.74-1.13v0c.43-.75,1.23-.56,1.72-1.14v0c.45-.71,1.24-.53,1.73-1.1v0c.44-.7,1.24-.51,1.71-1.13v0c.46-.66,1.24-.48,1.71-1.1v0c.45-.66,1.24-.45,1.68-1.12v0c.46-.61,1.24-.41,1.67-1.08v0c.46-.6,1.25-.37,1.66-1.09v0c.46-.56,1.24-.33,1.64-1.06v0c.17-.17.52-.61,1.03-.67Z" transform="matrix(1.589823 0 0 1.589823-514.153206-460.67338)" fill="#d89935"/>
<script><![CDATA[
!function(t,n){"object"==typeof exports&&"undefined"!=typeof module?module.exports=n():"function"==typeof __SVGATOR_DEFINE__&&__SVGATOR_DEFINE__.amd?__SVGATOR_DEFINE__(n):((t="undefined"!=typeof globalThis?globalThis:t||self).__SVGATOR_PLAYER__=t.__SVGATOR_PLAYER__||{},t.__SVGATOR_PLAYER__["5c7f360c"]=n())}(this,(function(){"use strict";function t(t,n){var e=Object.keys(t);if(Object.getOwnPropertySymbols){var r=Object.getOwnPropertySymbols(t);n&&(r=r.filter((function(n){return Object.getOwnPropertyDescriptor(t,n).enumerable}))),e.push.apply(e,r)}return e}function n(n){for(var e=1;e<arguments.length;e++){var r=null!=arguments[e]?arguments[e]:{};e%2?t(Object(r),!0).forEach((function(t){o(n,t,r[t])})):Object.getOwnPropertyDescriptors?Object.defineProperties(n,Object.getOwnPropertyDescriptors(r)):t(Object(r)).forEach((function(t){Object.defineProperty(n,t,Object.getOwnPropertyDescriptor(r,t))}))}return n}function e(t){return(e="function"==typeof Symbol&&"symbol"==typeof Symbol.iterator?function(t){return typeof t}:function(t){return t&&"function"==typeof Symbol&&t.constructor===Symbol&&t!==Symbol.prototype?"symbol":typeof t})(t)}function r(t,n){if(!(t instanceof n))throw new TypeError("Cannot call a class as a function")}function i(t,n){for(var e=0;e<n.length;e++){var r=n[e];r.enumerable=r.enumerable||!1,r.configurable=!0,"value"in r&&(r.writable=!0),Object.defineProperty(t,r.key,r)}}function u(t,n,e){return n&&i(t.prototype,n),e&&i(t,e),t}function o(t,n,e){return n in t?Object.defineProperty(t,n,{value:e,enumerable:!0,configurable:!0,writable:!0}):t[n]=e,t}function a(t){return(a=Object.setPrototypeOf?Object.getPrototypeOf:function(t){return t.__proto__||Object.getPrototypeOf(t)})(t)}function l(t,n){return(l=Object.setPrototypeOf||function(t,n){return t.__proto__=n,t})(t,n)}function s(){if("undefined"==typeof Reflect||!Reflect.construct)return!1;if(Reflect.construct.sham)return!1;if("function"==typeof Proxy)return!0;try{return Boolean.prototype.valueOf.call(Reflect.construct(Boolean,[],(function(){}))),!0}catch(t){return!1}}function f(t,n,e){return(f=s()?Reflect.construct:function(t,n,e){var r=[null];r.push.apply(r,n);var i=new(Function.bind.apply(t,r));return e&&l(i,e.prototype),i}).apply(null,arguments)}function c(t,n){if(n&&("object"==typeof n||"function"==typeof n))return n;if(void 0!==n)throw new TypeError("Derived constructors may only return object or undefined");return function(t){if(void 0===t)throw new ReferenceError("this hasn't been initialised - super() hasn't been called");return t}(t)}function h(t,n,e){return(h="undefined"!=typeof Reflect&&Reflect.get?Reflect.get:function(t,n,e){var r=function(t,n){for(;!Object.prototype.hasOwnProperty.call(t,n)&&null!==(t=a(t)););return t}(t,n);if(r){var i=Object.getOwnPropertyDescriptor(r,n);return i.get?i.get.call(e):i.value}})(t,n,e||t)}function v(t){return function(t){if(Array.isArray(t))return y(t)}(t)||function(t){if("undefined"!=typeof Symbol&&null!=t[Symbol.iterator]||null!=t["@@iterator"])return Array.from(t)}(t)||function(t,n){if(!t)return;if("string"==typeof t)return y(t,n);var e=Object.prototype.toString.call(t).slice(8,-1);"Object"===e&&t.constructor&&(e=t.constructor.name);if("Map"===e||"Set"===e)return Array.from(t);if("Arguments"===e||/^(?:Ui|I)nt(?:8|16|32)(?:Clamped)?Array$/.test(e))return y(t,n)}(t)||function(){throw new TypeError("Invalid attempt to spread non-iterable instance.\nIn order to be iterable, non-array objects must have a [Symbol.iterator]() method.")}()}function y(t,n){(null==n||n>t.length)&&(n=t.length);for(var e=0,r=new Array(n);e<n;e++)r[e]=t[e];return r}function g(t,n,e){if(Number.isInteger(t))return t;var r=Math.pow(10,n);return Math[e]((+t+Number.EPSILON)*r)/r}Number.isInteger||(Number.isInteger=function(t){return"number"==typeof t&&isFinite(t)&&Math.floor(t)===t}),Number.EPSILON||(Number.EPSILON=2220446049250313e-31);var p=d(Math.pow(10,-6));function d(t){var n=arguments.length>1&&void 0!==arguments[1]?arguments[1]:6;return g(t,n,"round")}function m(t,n){var e=arguments.length>2&&void 0!==arguments[2]?arguments[2]:p;return Math.abs(t-n)<e}d(Math.pow(10,-2)),d(Math.pow(10,-4));var b=Math.PI/180;function w(t){return t*b}function x(t){return t/b}function _(t){return t}function A(t,n,e){var r=1-e;return 3*e*r*(t*r+n*e)+e*e*e}function k(){var t=arguments.length>0&&void 0!==arguments[0]?arguments[0]:0,n=arguments.length>1&&void 0!==arguments[1]?arguments[1]:0,e=arguments.length>2&&void 0!==arguments[2]?arguments[2]:1,r=arguments.length>3&&void 0!==arguments[3]?arguments[3]:1;return t<0||t>1||e<0||e>1?null:m(t,n)&&m(e,r)?_:function(i){if(i<=0)return t>0?i*n/t:0===n&&e>0?i*r/e:0;if(i>=1)return e<1?1+(i-1)*(r-1)/(e-1):1===e&&t<1?1+(i-1)*(n-1)/(t-1):1;for(var u,o=0,a=1;o<a;){var l=A(t,e,u=(o+a)/2);if(m(i,l))break;l<i?o=u:a=u}return A(n,r,u)}}function S(){return 1}function O(t){return 1===t?1:0}function j(){var t=arguments.length>0&&void 0!==arguments[0]?arguments[0]:1,n=arguments.length>1&&void 0!==arguments[1]?arguments[1]:0;if(1===t){if(0===n)return O;if(1===n)return S}var e=1/t;return function(t){return t>=1?1:(t+=n*e)-t%e}}var M=Math.sin,E=Math.cos,P=Math.acos,I=Math.asin,R=Math.tan,F=Math.atan2,N=Math.sqrt,T=function(){function t(){var n=arguments.length>0&&void 0!==arguments[0]?arguments[0]:1,e=arguments.length>1&&void 0!==arguments[1]?arguments[1]:0,i=arguments.length>2&&void 0!==arguments[2]?arguments[2]:0,u=arguments.length>3&&void 0!==arguments[3]?arguments[3]:1,o=arguments.length>4&&void 0!==arguments[4]?arguments[4]:0,a=arguments.length>5&&void 0!==arguments[5]?arguments[5]:0;r(this,t),this.m=[n,e,i,u,o,a],this.i=null,this.w=null,this.s=null}return u(t,[{key:"determinant",get:function(){var t=this.m;return t[0]*t[3]-t[1]*t[2]}},{key:"isIdentity",get:function(){if(null===this.i){var t=this.m;this.i=1===t[0]&&0===t[1]&&0===t[2]&&1===t[3]&&0===t[4]&&0===t[5]}return this.i}},{key:"point",value:function(t,n){var e=this.m;return{x:e[0]*t+e[2]*n+e[4],y:e[1]*t+e[3]*n+e[5]}}},{key:"translateSelf",value:function(){var t=arguments.length>0&&void 0!==arguments[0]?arguments[0]:0,n=arguments.length>1&&void 0!==arguments[1]?arguments[1]:0;if(!t&&!n)return this;var e=this.m;return e[4]+=e[0]*t+e[2]*n,e[5]+=e[1]*t+e[3]*n,this.w=this.s=this.i=null,this}},{key:"rotateSelf",value:function(){var t=arguments.length>0&&void 0!==arguments[0]?arguments[0]:0;if(t%=360){t=w(t);var n=M(t),e=E(t),r=this.m,i=r[0],u=r[1];r[0]=i*e+r[2]*n,r[1]=u*e+r[3]*n,r[2]=r[2]*e-i*n,r[3]=r[3]*e-u*n,this.w=this.s=this.i=null}return this}},{key:"scaleSelf",value:function(){var t=arguments.length>0&&void 0!==arguments[0]?arguments[0]:1,n=arguments.length>1&&void 0!==arguments[1]?arguments[1]:1;if(1!==t||1!==n){var e=this.m;e[0]*=t,e[1]*=t,e[2]*=n,e[3]*=n,this.w=this.s=this.i=null}return this}},{key:"skewSelf",value:function(t,n){if(n%=360,(t%=360)||n){var e=this.m,r=e[0],i=e[1],u=e[2],o=e[3];t&&(t=R(w(t)),e[2]+=r*t,e[3]+=i*t),n&&(n=R(w(n)),e[0]+=u*n,e[1]+=o*n),this.w=this.s=this.i=null}return this}},{key:"resetSelf",value:function(){var t=arguments.length>0&&void 0!==arguments[0]?arguments[0]:1,n=arguments.length>1&&void 0!==arguments[1]?arguments[1]:0,e=arguments.length>2&&void 0!==arguments[2]?arguments[2]:0,r=arguments.length>3&&void 0!==arguments[3]?arguments[3]:1,i=arguments.length>4&&void 0!==arguments[4]?arguments[4]:0,u=arguments.length>5&&void 0!==arguments[5]?arguments[5]:0,o=this.m;return o[0]=t,o[1]=n,o[2]=e,o[3]=r,o[4]=i,o[5]=u,this.w=this.s=this.i=null,this}},{key:"recomposeSelf",value:function(){var t=arguments.length>0&&void 0!==arguments[0]?arguments[0]:null,n=arguments.length>1&&void 0!==arguments[1]?arguments[1]:null,e=arguments.length>2&&void 0!==arguments[2]?arguments[2]:null,r=arguments.length>3&&void 0!==arguments[3]?arguments[3]:null,i=arguments.length>4&&void 0!==arguments[4]?arguments[4]:null;return this.isIdentity||this.resetSelf(),t&&(t.x||t.y)&&this.translateSelf(t.x,t.y),n&&this.rotateSelf(n),e&&(e.x&&this.skewSelf(e.x,0),e.y&&this.skewSelf(0,e.y)),!r||1===r.x&&1===r.y||this.scaleSelf(r.x,r.y),i&&(i.x||i.y)&&this.translateSelf(i.x,i.y),this}},{key:"decompose",value:function(){var t=arguments.length>0&&void 0!==arguments[0]?arguments[0]:0,n=arguments.length>1&&void 0!==arguments[1]?arguments[1]:0,e=this.m,r=e[0]*e[0]+e[1]*e[1],i=[[e[0],e[1]],[e[2],e[3]]],u=N(r);if(0===u)return{origin:{x:d(e[4]),y:d(e[5])},translate:{x:d(t),y:d(n)},scale:{x:0,y:0},skew:{x:0,y:0},rotate:0};i[0][0]/=u,i[0][1]/=u;var o=e[0]*e[3]-e[1]*e[2]<0;o&&(u=-u);var a=i[0][0]*i[1][0]+i[0][1]*i[1][1];i[1][0]-=i[0][0]*a,i[1][1]-=i[0][1]*a;var l,s=N(i[1][0]*i[1][0]+i[1][1]*i[1][1]);return 0===s?{origin:{x:d(e[4]),y:d(e[5])},translate:{x:d(t),y:d(n)},scale:{x:d(u),y:0},skew:{x:0,y:0},rotate:0}:(i[1][0]/=s,i[1][1]/=s,a/=s,i[1][1]<0?(l=x(P(i[1][1])),i[0][1]<0&&(l=360-l)):l=x(I(i[0][1])),o&&(l=-l),a=x(F(a,N(i[0][0]*i[0][0]+i[0][1]*i[0][1]))),o&&(a=-a),{origin:{x:d(e[4]),y:d(e[5])},translate:{x:d(t),y:d(n)},scale:{x:d(u),y:d(s)},skew:{x:d(a),y:0},rotate:d(l)})}},{key:"multiply",value:function(t){return this.clone().multiplySelf(t)}},{key:"preMultiply",value:function(t){return t.multiply(this)}},{key:"multiplySelf",value:function(t){var n=q(this.m,t.m),e=n.a,r=n.b,i=n.c,u=n.d,o=n.tx,a=n.ty;return this.resetSelf(e,r,i,u,o,a),this}},{key:"preMultiplySelf",value:function(t){var n=q(t.m,this.m),e=n.a,r=n.b,i=n.c,u=n.d,o=n.tx,a=n.ty;return this.resetSelf(e,r,i,u,o,a),this}},{key:"clone",value:function(){var t=this.m;return new this.constructor(t[0],t[1],t[2],t[3],t[4],t[5])}},{key:"toString",value:function(){var t=arguments.length>0&&void 0!==arguments[0]?arguments[0]:" ";if(null===this.s){var n=this.m.map((function(t){return d(t)}));1===n[0]&&0===n[1]&&0===n[2]&&1===n[3]?this.s="translate("+n[4]+t+n[5]+")":this.s="matrix("+n.join(t)+")"}return this.s}}],[{key:"create",value:function(t){return t?Array.isArray(t)?f(this,v(t)):t instanceof this?t.clone():(new this).recomposeSelf(t.origin,t.rotate,t.skew,t.scale,t.translate):new this}}]),t}();function q(t,n){return{a:t[0]*n[0]+t[2]*n[1],b:t[1]*n[0]+t[3]*n[1],c:t[0]*n[2]+t[2]*n[3],d:t[1]*n[2]+t[3]*n[3],tx:t[0]*n[4]+t[2]*n[5]+t[4],ty:t[1]*n[4]+t[3]*n[5]+t[5]}}function B(t,n,e){return t>=.5?e:n}function D(t,n,e){return 0===t||n===e?n:t*(e-n)+n}function L(t,n,e){var r=D(t,n,e);return r<=0?0:r}function C(t,n,e){var r=D(t,n,e);return r<=0?0:r>=1?1:r}function V(t,n,e){return 0===t?n:1===t?e:{x:D(t,n.x,e.x),y:D(t,n.y,e.y)}}function G(t,n,e){var r=function(t,n,e){return Math.round(D(t,n,e))}(t,n,e);return r<=0?0:r>=255?255:r}function z(t,n,e){return 0===t?n:1===t?e:{r:G(t,n.r,e.r),g:G(t,n.g,e.g),b:G(t,n.b,e.b),a:D(t,null==n.a?1:n.a,null==e.a?1:e.a)}}function Y(t,n){for(var e=[],r=0;r<t;r++)e.push(n);return e}function $(t,n){if(--n<=0)return t;var e=(t=Object.assign([],t)).length;do{for(var r=0;r<e;r++)t.push(t[r])}while(--n>0);return t}var U,Q=function(){function t(n){r(this,t),this.list=n,this.length=n.length}return u(t,[{key:"setAttribute",value:function(t,n){for(var e=this.list,r=0;r<this.length;r++)e[r].setAttribute(t,n)}},{key:"removeAttribute",value:function(t){for(var n=this.list,e=0;e<this.length;e++)n[e].removeAttribute(t)}},{key:"style",value:function(t,n){for(var e=this.list,r=0;r<this.length;r++)e[r].style[t]=n}}]),t}(),H=/-./g,J=function(t,n){return n.toUpperCase()};function Z(t){return"function"==typeof t?t:B}function K(t){return t?"function"==typeof t?t:Array.isArray(t)?function(t){var n=arguments.length>1&&void 0!==arguments[1]?arguments[1]:_;if(!Array.isArray(t))return n;switch(t.length){case 1:return j(t[0])||n;case 2:return j(t[0],t[1])||n;case 4:return k(t[0],t[1],t[2],t[3])||n}return n}(t,null):function(t,n){var e=arguments.length>2&&void 0!==arguments[2]?arguments[2]:_;switch(t){case"linear":return _;case"steps":return j(n.steps||1,n.jump||0)||e;case"bezier":case"cubic-bezier":return k(n.x1||0,n.y1||0,n.x2||0,n.y2||0)||e}return e}(t.type,t.value,null):null}function W(t,n,e){var r=arguments.length>3&&void 0!==arguments[3]&&arguments[3],i=n.length-1;if(t<=n[0].t)return r?[0,0,n[0].v]:n[0].v;if(t>=n[i].t)return r?[i,1,n[i].v]:n[i].v;var u,o=n[0],a=null;for(u=1;u<=i;u++){if(!(t>n[u].t)){a=n[u];break}o=n[u]}return null==a?r?[i,1,n[i].v]:n[i].v:o.t===a.t?r?[u,1,a.v]:a.v:(t=(t-o.t)/(a.t-o.t),o.e&&(t=o.e(t)),r?[u,t,e(t,o.v,a.v)]:e(t,o.v,a.v))}function X(t,n){var e=arguments.length>2&&void 0!==arguments[2]?arguments[2]:null;return t&&t.length?"function"!=typeof n?null:("function"!=typeof e&&(e=null),function(r){var i=W(r,t,n);return null!=i&&e&&(i=e(i)),i}):null}function tt(t,n){return t.t-n.t}function nt(t,n,r,i,u){var o,a="@"===r[0],l="#"===r[0],s=U[r],f=B;switch(a?(o=r.substr(1),r=o.replace(H,J)):l&&(r=r.substr(1)),e(s)){case"function":if(f=s(i,u,W,K,r,a,n,t),l)return f;break;case"string":f=X(i,Z(s));break;case"object":if((f=X(i,Z(s.i),s.f))&&"function"==typeof s.u)return s.u(n,f,r,a,t)}return f?function(t,n,e){if(arguments.length>3&&void 0!==arguments[3]&&arguments[3])return t instanceof Q?function(r){return t.style(n,e(r))}:function(r){return t.style[n]=e(r)};if(Array.isArray(n)){var r=n.length;return function(i){var u=e(i);if(null==u)for(var o=0;o<r;o++)t[o].removeAttribute(n);else for(var a=0;a<r;a++)t[a].setAttribute(n,u)}}return function(r){var i=e(r);null==i?t.removeAttribute(n):t.setAttribute(n,i)}}(n,r,f,a):null}function et(t,n,r,i){if(!i||"object"!==e(i))return null;var u=null,o=null;return Array.isArray(i)?o=function(t){if(!t||!t.length)return null;for(var n=0;n<t.length;n++)t[n].e&&(t[n].e=K(t[n].e));return t.sort(tt)}(i):(o=i.keys,u=i.data||null),o?nt(t,n,r,o,u):null}function rt(t,n,e){if(!e)return null;var r=[];for(var i in e)if(e.hasOwnProperty(i)){var u=et(t,n,i,e[i]);u&&r.push(u)}return r.length?r:null}function it(t,n){if(!n.settings.duration||n.settings.duration<0)return null;var e,r,i,u,o,a=function(t,n){if(!n)return null;var e=[];if(Array.isArray(n))for(var r=n.length,i=0;i<r;i++){var u=n[i];if(2===u.length){var o=null;if("string"==typeof u[0])o=t.getElementById(u[0]);else if(Array.isArray(u[0])){o=[];for(var a=0;a<u[0].length;a++)if("string"==typeof u[0][a]){var l=t.getElementById(u[0][a]);l&&o.push(l)}o=o.length?1===o.length?o[0]:new Q(o):null}if(o){var s=rt(t,o,u[1]);s&&(e=e.concat(s))}}}else for(var f in n)if(n.hasOwnProperty(f)){var c=t.getElementById(f);if(c){var h=rt(t,c,n[f]);h&&(e=e.concat(h))}}return e.length?e:null}(t,n.elements);return a?(e=a,r=n.settings,i=r.duration,u=e.length,o=null,function(t,n){var a=r.iterations||1/0,l=(r.alternate&&a%2==0)^r.direction>0?i:0,s=t%i,f=1+(t-s)/i;n*=r.direction,r.alternate&&f%2==0&&(n=-n);var c=!1;if(f>a)s=l,c=!0,-1===r.fill&&(s=r.direction>0?0:i);else if(n<0&&(s=i-s),s===o)return!1;o=s;for(var h=0;h<u;h++)e[h](s);return c}):null}function ut(t,n){for(var e=n.querySelectorAll("svg"),r=0;r<e.length;r++)if(e[r].id===t.root&&!e[r].svgatorAnimation)return e[r].svgatorAnimation=!0,e[r];return null}function ot(t){var n=function(t){return t.shadowRoot};return document?Array.from(t.querySelectorAll(":not("+["a","area","audio","br","canvas","circle","datalist","embed","g","head","hr","iframe","img","input","link","object","path","polygon","rect","script","source","style","svg","title","track","video"].join()+")")).filter(n).map(n):[]}function at(t){var n=arguments.length>1&&void 0!==arguments[1]?arguments[1]:document,e=arguments.length>2&&void 0!==arguments[2]?arguments[2]:0,r=ut(t,n);if(r)return r;if(e>=20)return null;for(var i=ot(n),u=0;u<i.length;u++){var o=at(t,i[u],e+1);if(o)return o}return null}function lt(t,n){if(U=n,!t||!t.root||!Array.isArray(t.animations))return null;var e=at(t);if(!e)return null;var r=t.animations.map((function(t){return it(e,t)})).filter((function(t){return!!t}));return r.length?{svg:e,animations:r,animationSettings:t.animationSettings,options:t.options||void 0}:null}function st(t){var n=arguments.length>1&&void 0!==arguments[1]?arguments[1]:null,e=arguments.length>2&&void 0!==arguments[2]?arguments[2]:Number,r=arguments.length>3&&void 0!==arguments[3]?arguments[3]:"undefined"!=typeof BigInt&&BigInt,i="0x"+(t.replace(/[^0-9a-fA-F]+/g,"")||27);return n&&r&&e.isSafeInteger&&!e.isSafeInteger(+i)?e(r(i))%n+n:+i}function ft(t,n,e){return!t||!e||n>t.length?t:t.substring(0,n)+ft(t.substring(n+1),e,e)}function ct(t){var n=arguments.length>1&&void 0!==arguments[1]?arguments[1]:27;return!t||t%n?t%n:[0,1].includes(n)?n:ct(t/n,n)}function ht(t,n,e){if(t&&t.length){var r=st(e),i=ct(r)+5,u=ft(t,ct(r,5),i);return u=u.replace(/\x7c$/g,"==").replace(/\x2f$/g,"="),u=function(t,n,e){var r=+("0x"+t.substring(0,4));t=t.substring(4);for(var i=st(n,r)%r+e%27,u=[],o=0;o<t.length;o+=2)if("|"!==t[o]){var a=+("0x"+t[o]+t[o+1])-i;u.push(a)}else{var l=+("0x"+t.substring(o+1,o+1+4))-i;o+=3,u.push(l)}return String.fromCharCode.apply(String,u)}(u=(u=atob(u)).replace(/[\x41-\x5A]/g,""),n,r),u=JSON.parse(u)}}var vt=[{key:"alternate",def:!1},{key:"fill",def:1},{key:"iterations",def:0},{key:"direction",def:1},{key:"speed",def:1},{key:"fps",def:100}],yt=function(){function t(n,e){var i=this,u=arguments.length>2&&void 0!==arguments[2]?arguments[2]:null;r(this,t),this._id=0,this._running=!1,this._rollingBack=!1,this._animations=n,this._settings=e,(!u||u<"2022-05-02")&&delete this._settings.speed,vt.forEach((function(t){i._settings[t.key]=i._settings[t.key]||t.def})),this.duration=e.duration,this.offset=e.offset||0,this.rollbackStartOffset=0}return u(t,[{key:"alternate",get:function(){return this._settings.alternate}},{key:"fill",get:function(){return this._settings.fill}},{key:"iterations",get:function(){return this._settings.iterations}},{key:"direction",get:function(){return this._settings.direction}},{key:"speed",get:function(){return this._settings.speed}},{key:"fps",get:function(){return this._settings.fps}},{key:"maxFiniteDuration",get:function(){return this.iterations>0?this.iterations*this.duration:this.duration}},{key:"_apply",value:function(t){for(var n=arguments.length>1&&void 0!==arguments[1]?arguments[1]:{},e=this._animations,r=e.length,i=0,u=0;u<r;u++)n[u]?i++:(n[u]=e[u](t,1),n[u]&&i++);return i}},{key:"_rollback",value:function(t){var n=this,e=1/0,r=null;this.rollbackStartOffset=t,this._rollingBack=!0,this._running=!0;this._id=window.requestAnimationFrame((function i(u){if(n._rollingBack){null==r&&(r=u);var o=Math.round(t-(u-r)*n.speed);if(o>n.duration&&e!==1/0){var a=!!n.alternate&&o/n.duration%2>1,l=o%n.duration;o=(l+=a?n.duration:0)||n.duration}var s=(n.fps?1e3/n.fps:0)*n.speed,f=Math.max(0,o);f<=e-s&&(n.offset=f,e=f,n._apply(f));var c=n.iterations>0&&-1===n.fill&&o>=n.maxFiniteDuration;(o<=0||n.offset<o||c)&&n.stop(),n._id=window.requestAnimationFrame(i)}}))}},{key:"_start",value:function(){var t=this,n=arguments.length>0&&void 0!==arguments[0]?arguments[0]:0,e=-1/0,r=null,i={};this._running=!0;var u=function u(o){null==r&&(r=o);var a=Math.round((o-r)*t.speed+n),l=(t.fps?1e3/t.fps:0)*t.speed;if(a>=e+l&&!t._rollingBack&&(t.offset=a,e=a,t._apply(a,i)===t._animations.length))return void t.pause(!0);t._id=window.requestAnimationFrame(u)};this._id=window.requestAnimationFrame(u)}},{key:"_pause",value:function(){this._id&&window.cancelAnimationFrame(this._id),this._running=!1}},{key:"play",value:function(){if(!this._running)return this._rollingBack?this._rollback(this.offset):this._start(this.offset)}},{key:"stop",value:function(){this._pause(),this.offset=0,this.rollbackStartOffset=0,this._rollingBack=!1,this._apply(0)}},{key:"reachedToEnd",value:function(){return this.iterations>0&&this.offset>=this.iterations*this.duration}},{key:"restart",value:function(){var t=arguments.length>0&&void 0!==arguments[0]&&arguments[0];this.stop(t),this.play(t)}},{key:"pause",value:function(){this._pause()}},{key:"reverse",value:function(){this.direction=-this.direction}}],[{key:"build",value:function(t,n){delete t.animationSettings,t.options=ht(t.options,t.root,"5c7f360c"),t.animations.map((function(n){n.settings=ht(n.s,t.root,"5c7f360c"),delete n.s,t.animationSettings||(t.animationSettings=n.settings)}));var e=t.version;if(!(t=lt(t,n)))return null;var r=t.options||{},i=new this(t.animations,t.animationSettings,e);return{el:t.svg,options:r,player:i}}},{key:"push",value:function(t){return this.build(t)}},{key:"init",value:function(){var t=this,n=window.__SVGATOR_PLAYER__&&window.__SVGATOR_PLAYER__["5c7f360c"];Array.isArray(n)&&n.splice(0).forEach((function(n){return t.build(n)}))}}]),t}();function gt(t){return d(t)+""}function pt(t){var n=arguments.length>1&&void 0!==arguments[1]?arguments[1]:" ";return t&&t.length?t.map(gt).join(n):""}function dt(t){return t?null==t.a||t.a>=1?function(t){if(!t)return"transparent";var n=function(t){return parseInt(t).toString(16).padStart(2,"0")};return function(t){for(var n=[],e="#"===t[0]?n.push("#"):0;e<t.length;e+=2){if(t[e]!==t[e+1])return t;n.push(t[e])}return n.join("")}("#"+n(t.r)+n(t.g)+n(t.b)+(null==t.a||t.a>=1?"":n(255*t.a)))}(t):"rgba("+t.r+","+t.g+","+t.b+","+t.a+")":"transparent"}function mt(t){return t?"url(#"+t+")":"none"}!function(){for(var t=0,n=["ms","moz","webkit","o"],e=0;e<n.length&&!window.requestAnimationFrame;++e)window.requestAnimationFrame=window[n[e]+"RequestAnimationFrame"],window.cancelAnimationFrame=window[n[e]+"CancelAnimationFrame"]||window[n[e]+"CancelRequestAnimationFrame"];window.requestAnimationFrame||(window.requestAnimationFrame=function(n){var e=Date.now(),r=Math.max(0,16-(e-t)),i=window.setTimeout((function(){n(e+r)}),r);return t=e+r,i},window.cancelAnimationFrame=window.clearTimeout)}();var bt={f:null,i:function(t,n,e){return 0===t?n:1===t?e:{x:L(t,n.x,e.x),y:L(t,n.y,e.y)}},u:function(t,n){return function(e){var r=n(e);t.setAttribute("rx",gt(r.x)),t.setAttribute("ry",gt(r.y))}}},wt={f:null,i:function(t,n,e){return 0===t?n:1===t?e:{width:L(t,n.width,e.width),height:L(t,n.height,e.height)}},u:function(t,n){return function(e){var r=n(e);t.setAttribute("width",gt(r.width)),t.setAttribute("height",gt(r.height))}}};Object.freeze({M:2,L:2,Z:0,H:1,V:1,C:6,Q:4,T:2,S:4,A:7});var xt={},_t=null;function At(t){var n=function(){if(_t)return _t;if("object"!==("undefined"==typeof document?"undefined":e(document))||!document.createElementNS)return{};var t=document.createElementNS("http://www.w3.org/2000/svg","svg");return t&&t.style?(t.style.position="absolute",t.style.opacity="0.01",t.style.zIndex="-9999",t.style.left="-9999px",t.style.width="1px",t.style.height="1px",_t={svg:t}):{}}().svg;if(!n)return function(t){return null};var r=document.createElementNS(n.namespaceURI,"path");r.setAttributeNS(null,"d",t),r.setAttributeNS(null,"fill","none"),r.setAttributeNS(null,"stroke","none"),n.appendChild(r);var i=r.getTotalLength();return function(t){var n=r.getPointAtLength(i*t);return{x:n.x,y:n.y}}}function kt(t){return xt[t]?xt[t]:xt[t]=At(t)}function St(t,n,e,r){if(!t||!r)return!1;var i=["M",t.x,t.y];if(n&&e&&(i.push("C"),i.push(n.x),i.push(n.y),i.push(e.x),i.push(e.y)),n?!e:e){var u=n||e;i.push("Q"),i.push(u.x),i.push(u.y)}return n||e||i.push("L"),i.push(r.x),i.push(r.y),i.join(" ")}function Ot(t,n,e,r){var i=arguments.length>4&&void 0!==arguments[4]?arguments[4]:1,u=St(t,n,e,r),o=kt(u);try{return o(i)}catch(t){return null}}function jt(t,n,e){return t+(n-t)*e}function Mt(t,n,e){var r=arguments.length>3&&void 0!==arguments[3]&&arguments[3],i={x:jt(t.x,n.x,e),y:jt(t.y,n.y,e)};return r&&(i.a=Et(t,n)),i}function Et(t,n){return Math.atan2(n.y-t.y,n.x-t.x)}function Pt(t,n,e,r){var i=1-r;return i*i*t+2*i*r*n+r*r*e}function It(t,n,e,r){return 2*(1-r)*(n-t)+2*r*(e-n)}function Rt(t,n,e,r){var i=arguments.length>4&&void 0!==arguments[4]&&arguments[4],u=Ot(t,n,null,e,r);return u||(u={x:Pt(t.x,n.x,e.x,r),y:Pt(t.y,n.y,e.y,r)}),i&&(u.a=Ft(t,n,e,r)),u}function Ft(t,n,e,r){return Math.atan2(It(t.y,n.y,e.y,r),It(t.x,n.x,e.x,r))}function Nt(t,n,e,r,i){var u=i*i;return i*u*(r-t+3*(n-e))+3*u*(t+e-2*n)+3*i*(n-t)+t}function Tt(t,n,e,r,i){var u=1-i;return 3*(u*u*(n-t)+2*u*i*(e-n)+i*i*(r-e))}function qt(t,n,e,r,i){var u=arguments.length>5&&void 0!==arguments[5]&&arguments[5],o=Ot(t,n,e,r,i);return o||(o={x:Nt(t.x,n.x,e.x,r.x,i),y:Nt(t.y,n.y,e.y,r.y,i)}),u&&(o.a=Bt(t,n,e,r,i)),o}function Bt(t,n,e,r,i){return Math.atan2(Tt(t.y,n.y,e.y,r.y,i),Tt(t.x,n.x,e.x,r.x,i))}function Dt(t,n,e){var r=arguments.length>3&&void 0!==arguments[3]&&arguments[3];if(Ct(n)){if(Vt(e))return Rt(n,e.start,e,t,r)}else if(Ct(e)){if(Gt(n))return Rt(n,n.end,e,t,r)}else{if(Gt(n))return Vt(e)?qt(n,n.end,e.start,e,t,r):Rt(n,n.end,e,t,r);if(Vt(e))return Rt(n,e.start,e,t,r)}return Mt(n,e,t,r)}function Lt(t,n,e){var r=Dt(t,n,e,!0);return r.a=x(function(t){return arguments.length>1&&void 0!==arguments[1]&&arguments[1]?t+Math.PI:t}(r.a)),r}function Ct(t){return!t.type||"corner"===t.type}function Vt(t){return null!=t.start&&!Ct(t)}function Gt(t){return null!=t.end&&!Ct(t)}var zt=new T;var Yt={f:gt,i:D},$t={f:gt,i:C};function Ut(t,n,e){return t.map((function(t){return function(t,n,e){var r=t.v;if(!r||"g"!==r.t||r.s||!r.v||!r.r)return t;var i=e.getElementById(r.r),u=i&&i.querySelectorAll("stop")||[];return r.s=r.v.map((function(t,n){var e=u[n]&&u[n].getAttribute("offset");return{c:t,o:e=d(parseInt(e)/100)}})),delete r.v,t}(t,0,e)}))}var Qt={gt:"gradientTransform",c:{x:"cx",y:"cy"},rd:"r",f:{x:"x1",y:"y1"},to:{x:"x2",y:"y2"}};function Ht(t,n,r,i,u,o,a,l){return Ut(t,0,l),n=function(t,n,e){for(var r,i,u,o=t.length-1,a={},l=0;l<=o;l++)(r=t[l]).e&&(r.e=n(r.e)),r.v&&"g"===(i=r.v).t&&i.r&&(u=e.getElementById(i.r))&&(a[i.r]={e:u,s:u.querySelectorAll("stop")});return a}(t,i,l),function(i){var u=r(i,t,Jt);if(!u)return"none";if("c"===u.t)return dt(u.v);if("g"===u.t){if(!n[u.r])return mt(u.r);var o=n[u.r];return function(t,n){for(var e=t.s,r=e.length;r<n.length;r++){var i=e[e.length-1].cloneNode();i.id=Wt(i.id),t.e.appendChild(i),e=t.s=t.e.querySelectorAll("stop")}for(var u=0,o=e.length,a=n.length-1;u<o;u++)e[u].setAttribute("stop-color",dt(n[Math.min(u,a)].c)),e[u].setAttribute("offset",n[Math.min(u,a)].o)}(o,u.s),Object.keys(Qt).forEach((function(t){if(void 0!==u[t])if("object"!==e(Qt[t])){var n,r="gt"===t?(n=u[t],Array.isArray(n)?"matrix("+n.join(" ")+")":""):u[t],i=Qt[t];o.e.setAttribute(i,r)}else Object.keys(Qt[t]).forEach((function(n){if(void 0!==u[t][n]){var e=u[t][n],r=Qt[t][n];o.e.setAttribute(r,e)}}))})),mt(u.r)}return"none"}}function Jt(t,e,r){if(0===t)return e;if(1===t)return r;if(e&&r){var i=e.t;if(i===r.t)switch(e.t){case"c":return{t:i,v:z(t,e.v,r.v)};case"g":if(e.r===r.r){var u={t:i,s:Zt(t,e.s,r.s),r:e.r};return e.gt&&r.gt&&(u.gt=function(t,n,e){var r=n.length;if(r!==e.length)return B(t,n,e);for(var i=new Array(r),u=0;u<r;u++)i[u]=D(t,n[u],e[u]);return i}(t,e.gt,r.gt)),e.c?(u.c=V(t,e.c,r.c),u.rd=L(t,e.rd,r.rd)):e.f&&(u.f=V(t,e.f,r.f),u.to=V(t,e.to,r.to)),u}}if("c"===e.t&&"g"===r.t||"c"===r.t&&"g"===e.t){var o="c"===e.t?e:r,a="g"===e.t?n({},e):n({},r),l=a.s.map((function(t){return{c:o.v,o:t.o}}));return a.s="c"===e.t?Zt(t,l,a.s):Zt(t,a.s,l),a}}return B(t,e,r)}function Zt(t,n,e){if(n.length===e.length)return n.map((function(n,r){return Kt(t,n,e[r])}));for(var r=Math.max(n.length,e.length),i=[],u=0;u<r;u++){var o=Kt(t,n[Math.min(u,n.length-1)],e[Math.min(u,e.length-1)]);i.push(o)}return i}function Kt(t,n,e){return{o:C(t,n.o,e.o||0),c:z(t,n.c,e.c||{})}}function Wt(t){return t.replace(/-fill-([0-9]+)$/,(function(t,n){return"-fill-"+(+n+1)}))}var Xt={fill:Ht,"fill-opacity":$t,stroke:Ht,"stroke-opacity":$t,"stroke-width":Yt,"stroke-dashoffset":{f:gt,i:D},"stroke-dasharray":{f:function(t){var n=arguments.length>1&&void 0!==arguments[1]?arguments[1]:" ";return t&&t.length>0&&(t=t.map((function(t){return d(t,4)}))),pt(t,n)},i:function(t,n,e){var r,i,u,o=n.length,a=e.length;if(o!==a)if(0===o)n=Y(o=a,0);else if(0===a)a=o,e=Y(o,0);else{var l=(u=(r=o)*(i=a)/function(t,n){for(var e;n;)e=n,n=t%n,t=e;return t||1}(r,i))<0?-u:u;n=$(n,Math.floor(l/o)),e=$(e,Math.floor(l/a)),o=a=l}for(var s=[],f=0;f<o;f++)s.push(d(L(t,n[f],e[f])));return s}},opacity:$t,transform:function(t,n,r,i){if(!(t=function(t,n){if(!t||"object"!==e(t))return null;var r=!1;for(var i in t)t.hasOwnProperty(i)&&(t[i]&&t[i].length?(t[i].forEach((function(t){t.e&&(t.e=n(t.e))})),r=!0):delete t[i]);return r?t:null}(t,i)))return null;var u=function(e,i,u){var o=arguments.length>3&&void 0!==arguments[3]?arguments[3]:null;return t[e]?r(i,t[e],u):n&&n[e]?n[e]:o};return n&&n.a&&t.o?function(n){var e=r(n,t.o,Lt);return zt.recomposeSelf(e,u("r",n,D,0)+e.a,u("k",n,V),u("s",n,V),u("t",n,V)).toString()}:function(t){return zt.recomposeSelf(u("o",t,Dt,null),u("r",t,D,0),u("k",t,V),u("s",t,V),u("t",t,V)).toString()}},r:Yt,"#size":wt,"#radius":bt,_:function(t,n){if(Array.isArray(t))for(var e=0;e<t.length;e++)this[t[e]]=n;else this[t]=n}},tn=function(t){!function(t,n){if("function"!=typeof n&&null!==n)throw new TypeError("Super expression must either be null or a function");t.prototype=Object.create(n&&n.prototype,{constructor:{value:t,writable:!0,configurable:!0}}),n&&l(t,n)}(o,t);var n,e,i=(n=o,e=s(),function(){var t,r=a(n);if(e){var i=a(this).constructor;t=Reflect.construct(r,arguments,i)}else t=r.apply(this,arguments);return c(this,t)});function o(){return r(this,o),i.apply(this,arguments)}return u(o,null,[{key:"build",value:function(t){var n=h(a(o),"build",this).call(this,t,Xt);if(!n)return null;n.el,n.options,function(t,n,e){t.play()}(n.player)}}]),o}(yt);return tn.init(),tn}));
(function(s,i,o,w,d,a,b){w[o]=w[o]||{};w[o][s]=w[o][s]||[];w[o][s].push(i);})('5c7f360c',{"root":"etcSyBi2ARd1","version":"2022-05-04","animations":[{"elements":{"etcSyBi2ARd2":{"transform":{"data":{"s":{"x":1.606222,"y":1.606222},"t":{"x":-422.859945,"y":-234.519697}},"keys":{"o":[{"t":0,"v":{"x":297.434061,"y":185.256279,"type":"cusp","end":{"x":297.434061,"y":238.928676}}},{"t":750,"v":{"x":200.25159,"y":282.43875,"type":"cusp","start":{"x":253.923987,"y":282.43875},"end":{"x":146.579193,"y":282.43875}}},{"t":1500,"v":{"x":103.069119,"y":185.256279,"type":"cusp","start":{"x":103.069119,"y":238.928676},"end":{"x":103.069119,"y":131.583882}}},{"t":2250,"v":{"x":200.25159,"y":88.073808,"type":"cusp","start":{"x":146.579193,"y":88.073808},"end":{"x":253.923987,"y":88.073808}}},{"t":3000,"v":{"x":297.434061,"y":185.256279,"type":"cusp","start":{"x":297.434061,"y":131.583882}}}]}}},"etcSyBi2ARd3":{"transform":{"data":{"s":{"x":1.589823,"y":1.589823},"t":{"x":-1490.47522,"y":-864.351288}},"keys":{"o":[{"t":0,"v":{"x":1855.43858,"y":913.492178,"type":"cusp","end":{"x":1855.43858,"y":993.321945}}},{"t":750,"v":{"x":1710.893997,"y":1058.03676,"type":"cusp","start":{"x":1790.723765,"y":1058.03676},"end":{"x":1631.06423,"y":1058.03676}}},{"t":1500,"v":{"x":1566.349415,"y":913.492178,"type":"cusp","start":{"x":1566.349415,"y":993.321945},"end":{"x":1566.349415,"y":833.66241}}},{"t":2250,"v":{"x":1710.893997,"y":768.947595,"type":"cusp","start":{"x":1631.06423,"y":768.947595},"end":{"x":1790.723765,"y":768.947595}}},{"t":3000,"v":{"x":1855.43858,"y":913.492178,"type":"cusp","start":{"x":1855.43858,"y":833.66241}}}]}}}},"s":"MGDA1Y2E4NGZEOTFhMjFlmRzhlYTE5NjljOWIB0ZjY3NjA1ZDVkNWQ1XOTRmOTE5NjlmOTI5MIGExOTZWOWM5YjRmQzOY3NWU1OTRmOTZhMTkLyOWY4ZWExOTZBOWM5FYmEwSzRmNjc1ZTU5NCGY5M0k5Njk5OTlQNGNY2NzVlNTk0ZjhlOTlPhMTkyOWY5YjhlYTE5FMjRmQjY3OTM4ZTk5UV2EwOTI1OUw0ZmEwOWVQ5MjkyQTkxSjRmNjcX1ZTU5NGY5MzlkYTA0MZlE2N1Y2MDVkYWE/"}],"options":"MRDAxMDg4MmZOODA4MTDZlN2Y4MTJmNDcyZjcL5N2M2ZTcxMmY4YQ|"},'__SVGATOR_PLAYER__',window,document)
]]></script>
</svg>
