<svg xmlns="http://www.w3.org/2000/svg" xmlns:xlink="http://www.w3.org/1999/xlink" viewBox="0 0 953.71 798.37">
  <defs>
    <style>
      .cls-1 {
        fill: url(#linear-gradient);
      }
    </style>
    <linearGradient id="linear-gradient" x1="723.8" y1="658.91" x2="289.52" y2="-93.29" gradientUnits="userSpaceOnUse">
      <stop offset="0.02" stop-color="#ff766a"/>
      <stop offset="0.32" stop-color="#dd315d"/>
      <stop offset="0.63" stop-color="#dc3535"/>
      <stop offset="0.96" stop-color="#af1e68"/>
    </linearGradient>
  </defs>
  <g id="Layer_2" data-name="Layer 2">
    <g id="Layer_1-2" data-name="Layer 1">
      <path class="cls-1" d="M472.61,228.14a150.75,150.75,0,0,0-13-61.84c-22.73-51-61.89-86.51-107.87-115.9-7-4.48-11-4.18-17.06,1.7Q183.33,199.82,31.4,347c-5.12,5-7.12,8.75-4.17,16.08C60.7,446.17,113.62,515.8,175.65,579.29c4.87,5,7.43,2.94,11.29-.67,17.11-16,34.4-31.8,51.65-47.65Q351.95,426.77,465.41,322.68c5.16-4.73,7.53-9.57,7.34-16.58-.42-15.33-.13-30.67-.13-46C472.61,249.44,472.63,238.79,472.61,228.14Zm8.31,255.79c0,18.33,0,36.66,0,55,0,1.64-.08,4.13.86,4.76,2.29,1.55,3.62-1.1,5.07-2.38,2.22-2,4.22-4.2,6.32-6.32q88.86-89.28,177.73-178.55c17.71-17.79,38.47-31.05,62.38-38.38,40.14-12.31,69.26-.28,88.83,34.14a155.42,155.42,0,0,1,10.41,23.17c13,35.21,14.94,72.21,17.4,109.13.18,2.66-1.67,6.89,1.64,7.68,2.74.66,4-3.62,5.68-5.88C885,448,908.83,407.36,926,363.13c30.22-78,37.17-157.54,13.77-238.58-16.21-56.13-49-97.33-106.8-115.33-7.86-2.44-13.19-1.75-19.38,4Q650.94,163.12,487.91,312.57c-5.15,4.72-7.19,9.67-7.13,16.62.3,34.1.14,68.21.14,102.31Zm2.18,313.28C528.61,773.05,571.72,745,614,715.62c81.89-56.93,156.75-121.72,220.31-199,5.74-7,8.54-14,7.93-23.18-1.74-26.33-2.5-52.76-7.49-78.75-4.58-23.86-10.76-47.24-25.25-67.41-12.85-17.89-30-27.23-52.41-25.54-30.37,2.29-55.67,16.49-76.52,37-65,64-128.95,129.11-193.41,193.68-4.2,4.21-6.32,8.52-6.3,14.58q.38,113.84.4,227.65ZM18.15,336.39c2.83,8.92,5.07,7.56,10.32,2.45Q178.28,193.1,328.3,47.59c5.5-5.33,5.81-7.62-1.55-11.17C271,9.57,213-6.56,150.58,2.56c-54.08,7.9-96.47,33.75-121.74,84C7.33,129.3,1.07,175.28,0,213.84,0,261.32,6.38,299.22,18.15,336.39Zm454.32,6.54c0-4.25,2.92-10.55-2.05-12.46-3.31-1.27-6.54,4.46-9.58,7.25Q327.75,460.06,194.57,582.31c-6.68,6.11-7.27,8.91-.49,15.27A1410.77,1410.77,0,0,0,314.56,698.24c7.36,5.5,11.18,5.47,17.72-1.21Q398,629.93,464.74,563.81c6-6,8.12-12,8-20.24-.35-33.65-.15-67.3-.15-101C472.62,409.39,472.74,376.16,472.47,342.93ZM481,295.45c0,3.3-1.58,8.14,1.12,9.54,3.24,1.69,5.36-3.05,7.7-5.19q114.48-105,228.84-210.09Q761.93,49.93,805.1,10c1.61-1.5,5-2.59,3.61-5.77-1-2.3-3.71-1.6-5.71-1.79C793.25,1.53,783.49,0,773.74,0,695.55.83,626.51,27.56,566,76.13c-56.31,45.23-92.35,101-85.11,170.47C480.92,267.32,480.86,281.38,481,295.45Zm-8.63,499.21c.09-28.94.24-57.89.28-86.83q.06-65.15-.05-130.27c0-2.33,1.28-5.66-1.51-6.76s-4.16,2.23-5.82,3.89Q400.7,639.31,336.23,704c-3.74,3.74-6,5.74.21,9.92,43.69,29.37,87.48,58.55,134,83.31Zm-1.86,2.55c1.33.49,2.8,2.35,3.87,0,.2-.45-1.3-1.65-2-2.51Zm10.75-2.56c-.71.86-2.2,2.07-2,2.53,1.07,2.39,2.54.52,3.88,0Z"/>
    </g>
  </g>
</svg>
